<?xml version="1.0" encoding="UTF-8"?>
<svg width="24px" height="24px" viewBox="0 0 24 24" version="1.1" xmlns="http://www.w3.org/2000/svg" xmlns:xlink="http://www.w3.org/1999/xlink">
    <title>Icon/Outline/3by3grid-outline</title>
    <g id="Icon/Outline/3by3grid-outline" stroke="none" stroke-width="1" fill="none" fill-rule="evenodd">
        <g id="Group" fill="#474747" fill-rule="nonzero">
            <g id="Outline">
                <path d="M22.5,1.5 L19.5,1.5 L19.5,4.5 L22.5,4.5 L22.5,1.5 Z M13.5,1.5 L10.5,1.5 L10.5,4.5 L13.5,4.5 L13.5,1.5 Z M4.5,1.5 L1.5,1.5 L1.5,4.5 L4.5,4.5 L4.5,1.5 Z M23.25,-5.92118946e-16 C23.6642136,-5.92118946e-16 24,0.335786438 24,0.75 L24,5.25 C24,5.66421356 23.6642136,6 23.25,6 L18.75,6 C18.3357864,6 18,5.66421356 18,5.25 L18,0.75 C18,0.335786438 18.3357864,-5.92118946e-16 18.75,-5.92118946e-16 L23.25,-5.92118946e-16 Z M14.25,-5.92118946e-16 C14.6642136,-5.92118946e-16 15,0.335786438 15,0.75 L15,5.25 C15,5.66421356 14.6642136,6 14.25,6 L9.75,6 C9.33578644,6 9,5.66421356 9,5.25 L9,0.75 C9,0.335786438 9.33578644,-5.92118946e-16 9.75,-5.92118946e-16 L14.25,-5.92118946e-16 Z M5.25,-5.92118946e-16 C5.66421356,-5.92118946e-16 6,0.335786438 6,0.75 L6,5.25 C6,5.66421356 5.66421356,6 5.25,6 L0.75,6 C0.335786438,6 -5.92118946e-16,5.66421356 -5.92118946e-16,5.25 L-5.92118946e-16,0.75 C-5.92118946e-16,0.335786438 0.335786438,-5.92118946e-16 0.75,-5.92118946e-16 L5.25,-5.92118946e-16 Z M22.5,10.5 L19.5,10.5 L19.5,13.5 L22.5,13.5 L22.5,10.5 Z M13.5,10.5 L10.5,10.5 L10.5,13.5 L13.5,13.5 L13.5,10.5 Z M4.5,10.5 L1.5,10.5 L1.5,13.5 L4.5,13.5 L4.5,10.5 Z M23.25,9 C23.6642136,9 24,9.33578644 24,9.75 L24,14.25 C24,14.6642136 23.6642136,15 23.25,15 L18.75,15 C18.3357864,15 18,14.6642136 18,14.25 L18,9.75 C18,9.33578644 18.3357864,9 18.75,9 L23.25,9 Z M14.25,9 C14.6642136,9 15,9.33578644 15,9.75 L15,14.25 C15,14.6642136 14.6642136,15 14.25,15 L9.75,15 C9.33578644,15 9,14.6642136 9,14.25 L9,9.75 C9,9.33578644 9.33578644,9 9.75,9 L14.25,9 Z M5.25,9 C5.66421356,9 6,9.33578644 6,9.75 L6,14.25 C6,14.6642136 5.66421356,15 5.25,15 L0.75,15 C0.335786438,15 -5.92118946e-16,14.6642136 -5.92118946e-16,14.25 L-5.92118946e-16,9.75 C-5.92118946e-16,9.33578644 0.335786438,9 0.75,9 L5.25,9 Z M22.5,19.5 L19.5,19.5 L19.5,22.5 L22.5,22.5 L22.5,19.5 Z M13.5,19.5 L10.5,19.5 L10.5,22.5 L13.5,22.5 L13.5,19.5 Z M4.5,19.5 L1.5,19.5 L1.5,22.5 L4.5,22.5 L4.5,19.5 Z M23.25,18 C23.6642136,18 24,18.3357864 24,18.75 L24,23.25 C24,23.6642136 23.6642136,24 23.25,24 L18.75,24 C18.3357864,24 18,23.6642136 18,23.25 L18,18.75 C18,18.3357864 18.3357864,18 18.75,18 L23.25,18 Z M14.25,18 C14.6642136,18 15,18.3357864 15,18.75 L15,23.25 C15,23.6642136 14.6642136,24 14.25,24 L9.75,24 C9.33578644,24 9,23.6642136 9,23.25 L9,18.75 C9,18.3357864 9.33578644,18 9.75,18 L14.25,18 Z M5.25,18 C5.66421356,18 6,18.3357864 6,18.75 L6,23.25 C6,23.6642136 5.66421356,24 5.25,24 L0.75,24 C0.335786438,24 -5.92118946e-16,23.6642136 -5.92118946e-16,23.25 L-5.92118946e-16,18.75 C-5.92118946e-16,18.3357864 0.335786438,18 0.75,18 L5.25,18 Z" id="Shape"></path>
            </g>
        </g>
    </g>
</svg>