<svg width="24" height="24" viewBox="0 0 24 24" fill="none" xmlns="http://www.w3.org/2000/svg">
<path d="M22.7568 17.5071C22.6634 17.1571 22.3034 16.9505 21.9568 17.0438C21.6068 17.1371 21.4001 17.4971 21.4934 17.8438L22.1634 19.9671L12.6034 14.4471V3.53714L14.1801 5.11714C14.4334 5.37381 14.8501 5.37381 15.1034 5.11714C15.3601 4.86047 15.3601 4.44714 15.1034 4.19381L11.9468 1.03714L8.86342 4.25714C8.60675 4.51381 8.60675 4.92714 8.86342 5.18047C9.12008 5.43714 9.53342 5.43714 9.78675 5.18047L11.2934 3.53714V14.5738L1.84342 20.0338L2.42342 17.8771C2.51675 17.5305 2.31008 17.1705 1.96008 17.0771C1.61008 16.9838 1.25342 17.1905 1.16008 17.5405L0.00341797 21.8505L4.33342 22.9105C4.68342 23.0038 5.04008 22.7971 5.13342 22.4471C5.22675 22.0971 5.02008 21.7405 4.67008 21.6471L2.49342 21.1638L12.0501 15.6438L21.5034 21.1005L19.3467 21.6771C18.9967 21.7705 18.7901 22.1271 18.8834 22.4771C18.9767 22.8271 19.3368 23.0338 19.6834 22.9405L23.9968 21.7871L22.7501 17.5071H22.7568Z" fill="black"/>
</svg>
