<svg width="24" height="24" viewBox="0 0 24 24" fill="none" xmlns="http://www.w3.org/2000/svg">
<g clip-path="url(#clip0_15805_63964)">
<path d="M12 0C5.37333 0 0 5.37333 0 12C0 18.6267 5.37333 24 12 24C18.6267 24 24 18.6267 24 12C24 5.37333 18.6267 0 12 0ZM12 22.5C6.21 22.5 1.5 17.79 1.5 12C1.5 6.21 5.76667 1.96333 11.1667 1.53667V12.82H12.8333V1.53667C18.2333 1.96333 22.5 6.49 22.5 12C22.5 17.79 17.79 22.5 12 22.5Z" fill="black"/>
<path d="M10.16 11.1667H8.49333V12.8333H10.16V11.1667Z" fill="black"/>
<path d="M7.16 11.1667H5.49333V12.8333H7.16V11.1667Z" fill="black"/>
<path d="M4.16 11.1667H2.49333V12.8333H4.16V11.1667Z" fill="black"/>
<path d="M21.4933 11.1533H19.8267V12.82H21.4933V11.1533Z" fill="black"/>
<path d="M18.4933 11.1533H16.8267V12.82H18.4933V11.1533Z" fill="black"/>
<path d="M15.4933 11.1533H13.8267V12.82H15.4933V11.1533Z" fill="black"/>
<path d="M12.8333 13.85H11.1667V15.5167H12.8333V13.85Z" fill="black"/>
<path d="M12.8333 19.85H11.1667V21.5167H12.8333V19.85Z" fill="black"/>
<path d="M12.8333 16.85H11.1667V18.5167H12.8333V16.85Z" fill="black"/>
</g>
<defs>
<clipPath id="clip0_15805_63964">
<rect width="24" height="24" fill="white"/>
</clipPath>
</defs>
</svg>
