<?xml version="1.0" encoding="UTF-8"?>
<svg width="24px" height="24px" viewBox="0 0 24 24" version="1.1" xmlns="http://www.w3.org/2000/svg" xmlns:xlink="http://www.w3.org/1999/xlink">
    <title>Icon/Outline/accessible-outline</title>
    <g id="Icon/Outline/accessible-outline" stroke="none" stroke-width="1" fill="none" fill-rule="evenodd">
        <g id="Icon" transform="translate(4.000000, 0.000000)" fill="#474747" fill-rule="nonzero">
            <g id="Accessible-icon">
                <path d="M5.29611121,4.0913328 C5.44787184,4.06406419 5.59337543,4.07420579 5.74953472,4.11505663 L5.74953472,4.11505663 L10.4178942,5.29842772 C11.1102424,5.47690277 11.6020964,5.80416252 11.862802,6.31482104 C12.1314455,6.82339842 12.1577756,7.37703734 11.964089,7.97796477 L11.964089,7.97796477 L10.8511093,11.3961225 C10.7241505,11.7695996 10.8033917,12.0258076 10.9522712,12.2069563 C11.1371738,12.3970807 11.3469549,12.4917635 11.6234445,12.4917635 L11.6234445,12.4917635 L13.1551896,12.4917635 C13.7854147,12.4917635 14.3363519,12.6293765 14.8050113,12.9145163 C15.2801998,13.1934992 15.6431331,13.5823185 15.9032596,14.0846204 C16.1719678,14.5971255 16.3013694,15.2012741 16.3013694,15.8944925 C16.3013694,17.0121706 16.0960328,18.0615692 15.683438,19.0422949 C15.2708393,20.0229225 14.696173,20.8838119 13.9559883,21.6274732 C13.2261174,22.3743775 12.3779926,22.9567142 11.4115937,23.374709 C10.4462851,23.7921572 9.40993227,24 8.30297615,24 C6.69349124,24 5.28276545,23.6773225 4.07424214,23.0232454 C2.88619468,22.3767307 1.95979484,21.468284 1.29624781,20.2993554 C0.632083412,19.1173982 0.3045929,17.7387637 0.3045929,16.1660458 C0.3045929,14.9665049 0.540100409,13.8488336 1.01283952,12.8149213 C1.49369903,11.7711041 2.13985622,10.8778057 2.95218753,10.1365091 C3.11285875,9.99029982 3.26483198,9.89223856 3.4243513,9.90535103 C3.56731375,9.91710816 3.686781,9.97144633 3.78000645,10.0738505 C3.87380187,10.1768809 3.91909802,10.3001408 3.91909802,10.4423763 C3.92313287,10.5918054 3.83296281,10.7074965 3.70515896,10.8221801 C2.96800799,11.4632051 2.38183703,12.2460822 1.94684423,13.1746045 C1.51994457,14.1022337 1.30554262,15.0991188 1.30554262,16.1660458 C1.30554262,17.5264422 1.5996719,18.7151352 2.1806699,19.7382739 C2.77291214,20.7599221 3.59555902,21.5557297 4.64836166,22.1246177 C5.69578443,22.6940787 6.91317957,22.9833073 8.30297615,22.9833073 C9.27550392,22.9833073 10.182631,22.7958977 11.0248096,22.4231816 C11.870116,22.0595924 12.612724,21.5531958 13.2527107,20.9042776 C13.8931081,20.2549428 14.3928384,19.5012379 14.750024,18.6461176 C15.1164187,17.7869599 15.300432,16.8699055 15.300432,15.8944925 C15.300432,15.3852209 15.1317268,14.9876034 14.8201773,14.6897137 C14.5279337,14.3976285 14.0961552,14.2252121 13.4979312,14.2252121 L13.4979312,14.2252121 L9.23486766,14.2252121 C8.79545771,14.2252121 8.42121755,14.1163564 8.11760133,13.8840877 C7.81901308,13.6555763 7.62202374,13.3455039 7.52052598,12.9580425 C7.4189569,12.5417659 7.46478072,12.0777807 7.6382798,11.5681744 L7.6382798,11.5681744 L9.01633447,7.59295189 C9.1182257,7.33685207 9.12264452,7.08030859 9.04502477,6.8260354 L9.04502477,6.8260354 L5.49410753,5.68382261 L1.14505459,8.03568236 C0.95877547,8.13738866 0.765560293,8.17659583 0.56460882,8.14862536 C0.387510357,8.11722215 0.247437984,8.01776723 0.138260234,7.86022921 C0.0185614917,7.69211701 -0.0205337612,7.50575303 0.00985406139,7.29835388 C0.0420085424,7.11196956 0.124702268,6.96922502 0.280378624,6.88196665 L0.280378624,6.88196665 L4.8144516,4.28439032 C4.99136434,4.18111534 5.15078072,4.11316561 5.29611121,4.0913328 Z M16.0798516,22.6415094 C16.2644668,22.6415094 16.4233515,22.7066598 16.5569798,22.8356875 C16.6893751,22.9698191 16.7541996,23.1335322 16.7541996,23.3256519 C16.7541996,23.5093652 16.686138,23.6667905 16.5536151,23.7993134 C16.4210197,23.9319088 16.2635872,24 16.0798516,24 C15.8911759,24 15.7300636,23.9330428 15.5963221,23.7992399 C15.4637589,23.6667375 15.3957091,23.5093365 15.3957091,23.3256519 C15.3957091,23.1327459 15.4610723,22.968482 15.5946524,22.8340778 C15.7289978,22.7050893 15.8910084,22.6415094 16.0798516,22.6415094 Z M12.9051541,0 C13.2823498,0 13.6252861,0.0908087461 13.9331626,0.275871273 C14.247769,0.459173653 14.4929159,0.7031654 14.6738303,1.01121448 C14.8544399,1.31858969 14.9428789,1.66111319 14.9428789,2.03773031 C14.9428789,2.40599861 14.851469,2.74303334 14.6663891,3.0481828 C14.48093,3.36388043 14.2338571,3.61237257 13.9192095,3.80158368 C13.6186918,3.985698 13.2802904,4.0754717 12.9051541,4.0754717 C12.527982,4.0754717 12.1849698,3.98468828 11.8771498,3.79960072 C11.565637,3.6123479 11.3185729,3.36386218 11.1363859,3.05366177 C10.9561664,2.7468577 10.8674072,2.40796067 10.8674072,2.03773031 C10.8674072,1.66109449 10.9558218,1.31855359 11.136401,1.01113719 C11.3172687,0.703183246 11.5624071,0.459197578 11.8717239,0.279079136 C12.1849669,0.0907874831 12.5279803,0 12.9051541,0 Z" id="Shape"></path>
            </g>
        </g>
    </g>
</svg>