<?xml version="1.0" encoding="UTF-8"?>
<svg width="24px" height="24px" viewBox="0 0 24 24" version="1.1" xmlns="http://www.w3.org/2000/svg" xmlns:xlink="http://www.w3.org/1999/xlink">
    <title>Icon/Outline/accessibility-outline</title>
    <g id="Icon/Outline/accessibility-outline" stroke="none" stroke-width="1" fill="none" fill-rule="evenodd">
        <g id="PwC_Funct_Icons_Accessibility_Outline_Black" fill="#474747" fill-rule="nonzero">
            <path d="M17.81,9.27 L14.11,10.14 L14.11,13.44 L15.5366667,19.82 C15.6256834,20.2247994 15.3709809,20.6254717 14.9666667,20.7166667 C14.9123331,20.7215807 14.8576669,20.7215807 14.8033333,20.7166667 C14.451991,20.7160453 14.1477302,20.4726366 14.07,20.13 L12.8933333,14.87 L11.0666667,14.87 L9.93,20.1433333 C9.83795254,20.5483421 9.43500882,20.8020475 9.03,20.71 C8.62499118,20.6179525 8.37128588,20.2150088 8.46333333,19.81 L9.85666667,13.3533333 L9.89,13.3533333 L9.89,10.1733333 L6.18666667,9.26666667 C5.91735188,9.21213281 5.69942065,9.01468946 5.61864867,8.75204849 C5.5378767,8.48940751 5.60719732,8.20362341 5.7993266,8.00717816 C5.99145587,7.81073291 6.27562974,7.73508165 6.54,7.81 L10.9633333,8.89 L12.8733333,8.89 L17.4633333,7.81 C17.7305404,7.73275519 18.0185527,7.8097338 18.2115904,8.00999071 C18.4046281,8.21024762 18.470985,8.50089096 18.3839859,8.7650832 C18.2969869,9.02927543 18.0709213,9.22362342 17.7966667,9.27 L17.81,9.27 Z M24,12 C24,18.627417 18.627417,24 12,24 C5.372583,24 0,18.627417 0,12 C0,5.372583 5.372583,0 12,0 C15.1825979,0 18.2348448,1.26428208 20.4852814,3.51471863 C22.7357179,5.76515517 24,8.81740212 24,12 Z M22.5,12 C22.5,6.20101013 17.7989899,1.5 12,1.5 C6.20101013,1.5 1.5,6.20101013 1.5,12 C1.5,17.7989899 6.20101013,22.5 12,22.5 C17.7967049,22.4944872 22.4944872,17.7967049 22.5,12 Z M12,3.12999757 C10.731586,3.12999757 9.70333333,4.15825269 9.70333333,5.42666667 C9.70333333,6.69508064 10.731586,7.72333333 12,7.72333333 C13.268414,7.72333333 14.2966691,6.69508064 14.2966691,5.42666667 C14.297553,4.8172815 14.0558682,4.2326002 13.6249673,3.80169936 C13.1940665,3.37079851 12.6093852,3.12911362 12,3.12999757 L12,3.12999757 Z" id="Shape"></path>
        </g>
    </g>
</svg>