<svg width="24" height="24" viewBox="0 0 24 24" fill="none" xmlns="http://www.w3.org/2000/svg">
<g clip-path="url(#clip0_15805_63981)">
<path d="M19.627 10.38L17.1403 7.86667L18.2103 6.78667L19.6303 8.22L22.9337 4.88667L24.0037 5.96667L19.6337 10.38H19.627ZM11.077 3.52667C9.43034 3.52667 8.08701 4.88333 8.08701 6.55C8.08701 8.21667 9.42701 9.57333 11.077 9.57333C12.727 9.57333 14.067 8.21667 14.067 6.55C14.067 4.88333 12.727 3.52667 11.077 3.52667ZM11.077 16.1233C6.99034 16.1233 3.27034 17.55 1.59701 19.76C1.46368 19.9367 1.50034 20.1067 1.55701 20.22C1.60368 20.3167 1.71701 20.4767 1.96034 20.4767H20.1937C20.4337 20.4767 20.5503 20.3167 20.597 20.22C20.6537 20.1067 20.6903 19.9367 20.557 19.76C18.887 17.55 15.167 16.1233 11.0803 16.1233M11.0803 2C13.567 2 15.5803 4.03667 15.5803 6.55C15.5803 9.06333 13.567 11.1 11.0803 11.1C8.59368 11.1 6.58034 9.06333 6.58034 6.55C6.58034 4.03667 8.59368 2 11.0803 2ZM11.0803 14.5967C15.797 14.5967 19.867 16.33 21.7603 18.8333C22.7403 20.1267 21.8103 22 20.197 22H1.96034C0.34701 22 -0.58299 20.1267 0.39701 18.8333C2.29034 16.33 6.36034 14.5967 11.077 14.5967H11.0803Z" fill="black"/>
</g>
<defs>
<clipPath id="clip0_15805_63981">
<rect width="24" height="24" fill="white"/>
</clipPath>
</defs>
</svg>
