<svg width="24" height="24" viewBox="0 0 24 24" fill="none" xmlns="http://www.w3.org/2000/svg">
<path d="M22.3818 11.3113C20.8651 10.5179 18.9385 10.0813 16.9585 10.0813C15.1785 10.0813 13.4018 10.4479 11.9551 11.1113C10.5085 10.4479 8.72846 10.0813 6.94846 10.0813C5.01179 10.0813 3.11846 10.5013 1.61846 11.2646L1.21179 11.4713V17.4246H22.7851V11.5213L22.3851 11.3113H22.3818ZM21.2985 12.4413V15.9279H12.7685V12.3746C13.9985 11.8479 15.4485 11.5713 16.9551 11.5713C18.4618 11.5713 20.0551 11.8779 21.2951 12.4379L21.2985 12.4413ZM11.2185 12.4113V15.9279H2.69179V12.4013C3.91846 11.8646 5.42846 11.5713 6.94846 11.5713C8.46846 11.5713 9.97179 11.8613 11.2218 12.4113H11.2185ZM16.7485 8.83125C19.1685 8.83125 21.1351 6.85125 21.1351 4.41458C21.1351 1.97792 19.1685 0.00125122 16.7485 0.00125122C14.3285 0.00125122 12.3618 1.98125 12.3618 4.41792C12.3618 6.85458 14.3285 8.83458 16.7485 8.83458V8.83125ZM13.8451 4.41458C13.8451 2.80125 15.1485 1.49125 16.7485 1.49125C18.3485 1.49125 19.6518 2.80458 19.6518 4.41458C19.6518 6.02458 18.3485 7.33792 16.7485 7.33792C15.1485 7.33792 13.8451 6.02458 13.8451 4.41458ZM6.73846 8.83125C9.15846 8.83125 11.1251 6.85125 11.1251 4.41458C11.1251 1.97792 9.15512 0.00125122 6.73846 0.00125122C4.32179 0.00125122 2.35179 1.98125 2.35179 4.41792C2.35179 6.85458 4.31846 8.83458 6.73846 8.83458V8.83125ZM3.83512 4.41458C3.83512 2.80125 5.13846 1.49125 6.73846 1.49125C8.33846 1.49125 9.64179 2.80458 9.64179 4.41458C9.64179 6.02458 8.33846 7.33792 6.73846 7.33792C5.13846 7.33792 3.83512 6.02458 3.83512 4.41458ZM22.8318 21.1846L20.3351 23.8013C20.0718 24.0646 19.6485 24.0646 19.3851 23.8013C19.2518 23.6679 19.1885 23.4946 19.1885 23.3212C19.1885 23.1479 19.2551 22.9746 19.3851 22.8412L20.2585 21.8646L3.74179 21.8579L4.63846 22.7446C4.90179 23.0079 4.90179 23.4379 4.63846 23.7046C4.37512 23.9679 3.95179 23.9679 3.68846 23.7046L1.16846 21.1779L3.66512 18.5613C3.92846 18.2979 4.35179 18.2979 4.61512 18.5613C4.74846 18.6946 4.81179 18.8679 4.81179 19.0412C4.81179 19.2146 4.74512 19.3879 4.61512 19.5213L3.74179 20.4979L20.2585 20.5046L19.3618 19.6179C19.0985 19.3546 19.0985 18.9246 19.3618 18.6579C19.6251 18.3946 20.0485 18.3946 20.3118 18.6579L22.8318 21.1846Z" fill="black"/>
</svg>
