<svg width="24" height="24" viewBox="0 0 24 24" fill="none" xmlns="http://www.w3.org/2000/svg">
<path d="M12.0018 12.86C14.2185 12.86 16.1285 13.6633 17.0185 14.8233C17.4785 15.4233 17.0418 16.29 16.2851 16.29H7.71848C6.96181 16.29 6.52514 15.4233 6.98514 14.8233C7.87514 13.6633 9.78848 12.86 12.0018 12.86ZM12.0018 7.02334C10.8351 7.02334 9.88848 7.96668 9.88848 9.13001C9.88848 10.2933 10.8351 11.2367 12.0018 11.2367C13.1685 11.2367 14.1151 10.2933 14.1151 9.13001C14.1151 7.96668 13.1685 7.02334 12.0018 7.02334ZM18.2551 16.46C16.8951 18.48 14.5818 19.81 11.9618 19.81C7.78514 19.81 4.38848 16.4233 4.38848 12.26V11.6433L6.29181 13.55C6.42514 13.6833 6.59848 13.7467 6.77181 13.7467C6.94514 13.7467 7.11848 13.68 7.25181 13.55C7.51514 13.2867 7.51514 12.86 7.25181 12.5933L3.71181 9.05334L0.198477 12.56C-0.0648568 12.8233 -0.0648568 13.25 0.198477 13.5167C0.46181 13.78 0.89181 13.78 1.15848 13.5167L3.03181 11.6467V12.2633C3.03181 17.17 7.03848 21.1667 11.9618 21.1667C15.0951 21.1667 17.8551 19.5467 19.4485 17.1067L18.2518 16.4633L18.2551 16.46ZM5.74848 7.53334C7.10848 5.51334 9.42181 4.18334 12.0418 4.18334C16.2185 4.18334 19.6151 7.57001 19.6151 11.7333V12.35L17.7118 10.4433C17.5785 10.31 17.4051 10.2467 17.2318 10.2467C17.0585 10.2467 16.8851 10.3133 16.7518 10.4433C16.4885 10.7067 16.4885 11.1333 16.7518 11.4L20.2918 14.94L23.8018 11.44C24.0651 11.1767 24.0651 10.75 23.8018 10.4833C23.5385 10.22 23.1085 10.22 22.8418 10.4833L20.9685 12.3533V11.7367C20.9685 6.83001 16.9618 2.83334 12.0385 2.83334C8.90514 2.83334 6.14514 4.45334 4.55181 6.89334L5.74848 7.53668V7.53334Z" fill="black"/>
</svg>
