<svg width="24" height="24" viewBox="0 0 24 24" fill="none" xmlns="http://www.w3.org/2000/svg">
<g clip-path="url(#clip0_15805_63979)">
<path d="M2 0C0.896667 0 0 0.893333 0 2V22C0 23.1067 0.896667 24 2 24H22C23.1067 24 24 23.1067 24 22V0H2ZM22.5 22C22.5 22.2767 22.2767 22.5 22 22.5H2C1.72333 22.5 1.5 22.2767 1.5 22V2C1.5 1.72333 1.72333 1.5 2 1.5H22.5V22ZM12 13.74C15.1933 13.74 17.9467 14.9 19.23 16.5767C19.8933 17.4433 19.2633 18.6967 18.1733 18.6967H5.83C4.74 18.6967 4.11 17.4433 4.77333 16.5767C6.05667 14.9 8.81 13.74 12.0033 13.74H12ZM15.0467 8.35333C15.0467 10.0367 13.6833 11.4 12 11.4C10.3167 11.4 8.95333 10.0367 8.95333 8.35333C8.95333 6.67 10.3167 5.30667 12 5.30667C13.6833 5.30667 15.0467 6.67 15.0467 8.35333Z" fill="black"/>
</g>
<defs>
<clipPath id="clip0_15805_63979">
<rect width="24" height="24" fill="white"/>
</clipPath>
</defs>
</svg>
