<svg width="24" height="24" viewBox="0 0 24 24" fill="none" xmlns="http://www.w3.org/2000/svg">
<path d="M22.9109 10.3467L21.2543 8.70667L19.5976 10.3767L18.5409 9.28667L20.1743 7.63667L18.5076 5.98667L19.5876 4.91667L21.2443 6.55667L22.9009 4.88667L23.9709 5.96667L22.3242 7.62667L24.0009 9.29L22.9109 10.3467ZM11.0809 3.52667C9.43425 3.52667 8.09092 4.88333 8.09092 6.55C8.09092 8.21667 9.43092 9.57333 11.0809 9.57333C12.7309 9.57333 14.0709 8.21667 14.0709 6.55C14.0709 4.88333 12.7309 3.52667 11.0809 3.52667ZM11.0809 16.1233C6.99425 16.1233 3.27425 17.55 1.60092 19.76C1.46758 19.9367 1.50425 20.1067 1.56092 20.22C1.60758 20.3167 1.72092 20.4767 1.96425 20.4767H20.1976C20.4376 20.4767 20.5543 20.3167 20.6009 20.22C20.6576 20.1067 20.6943 19.9367 20.5609 19.76C18.8909 17.55 15.1709 16.1233 11.0843 16.1233M11.0843 2C13.5709 2 15.5843 4.03667 15.5843 6.55C15.5843 9.06333 13.5709 11.1 11.0843 11.1C8.59758 11.1 6.58425 9.06333 6.58425 6.55C6.58425 4.03667 8.59758 2 11.0843 2ZM11.0843 14.5967C15.8009 14.5967 19.8676 16.33 21.7642 18.8333C22.7442 20.1267 21.8143 22 20.2009 22H1.96425C0.350916 22 -0.579084 20.1267 0.400917 18.8333C2.29425 16.33 6.36425 14.5967 11.0809 14.5967H11.0843Z" fill="black"/>
</svg>
