<?xml version="1.0" encoding="UTF-8"?>
<svg width="24px" height="24px" viewBox="0 0 24 24" version="1.1" xmlns="http://www.w3.org/2000/svg" xmlns:xlink="http://www.w3.org/1999/xlink">
    <title>Icon/Outline/add-user-outline</title>
    <g id="Icon/Outline/add-user-outline" stroke="none" stroke-width="1" fill="none" fill-rule="evenodd">
        <g id="Group" transform="translate(-0.000000, -0.000000)" fill="#474747" fill-rule="nonzero">
            <g id="add-user">
                <path d="M12,24 C5.37258302,24 0,18.6274171 0,12 C0,5.37258302 5.37258302,0 12,0 C18.6274171,0 24,5.37258302 24,12 C24,18.6274171 18.6274171,24 12,24 Z M12,22.5 C17.7989899,22.5 22.5,17.7989899 22.5,12 C22.5,6.20101015 17.7989899,1.50000001 12,1.50000001 C6.20101015,1.50000001 1.50000001,6.20101015 1.50000001,12 C1.50000001,17.7989899 6.20101015,22.5 12,22.5 Z M13.4999435,12.0004617 C12.257227,12.0004617 11.2499435,10.9931781 11.2499435,9.75046167 C11.2499435,8.50728356 12.257227,7.50000003 13.4999435,7.50000003 C14.74266,7.50000003 15.7499435,8.50728356 15.7499435,9.75046167 C15.7499435,10.9931781 14.74266,12.0004617 13.4999435,12.0004617 Z M13.5001411,13.5000001 C16.0536131,13.5000001 18.2575891,14.5529501 19.2830778,16.0750757 C19.813572,16.8619516 19.3095776,18.0000001 18.4365871,18.0000001 L8.56319494,18.0000001 C7.69020453,18.0000001 7.18671001,16.8619516 7.71670421,16.0750757 C8.74219301,14.5529501 10.9466689,13.5000001 13.5001411,13.5000001 Z M6.75000003,4.50000002 L8.25000003,4.50000002 L8.25000003,6.75000003 L10.5,6.75000003 L10.5,8.25000003 L8.25000003,8.25000003 L8.25000003,10.5 L6.75000003,10.5 L6.75000003,8.25000003 L4.50000002,8.25000003 L4.50000002,6.75000003 L6.75000003,6.75000003 L6.75000003,4.50000002 Z" id="Combined-Shape"></path>
            </g>
        </g>
    </g>
</svg>