<svg width="24" height="24" viewBox="0 0 24 24" fill="none" xmlns="http://www.w3.org/2000/svg">
<g clip-path="url(#clip0_15805_63989)">
<path d="M20.4919 11.3383C18.8919 11.3383 17.5452 12.4117 17.1219 13.875C16.6919 13.8283 16.2652 13.7317 15.8519 13.585C14.4152 13.0717 13.2719 12.0117 12.7185 10.675V2.63499L14.7019 4.61832C14.9719 4.88832 15.4085 4.88832 15.6752 4.61832C15.9452 4.34832 15.9452 3.91165 15.6752 3.64499L12.0285 -0.00167847L8.38187 3.64832C8.11187 3.91832 8.11187 4.35499 8.38187 4.62165C8.65187 4.89165 9.08854 4.89165 9.3552 4.62165L11.3385 2.63499V10.6783H11.3352C10.7785 12.0117 9.63854 13.0717 8.20187 13.585C7.77187 13.7383 7.32854 13.835 6.87854 13.8817C6.45854 12.415 5.11187 11.3383 3.50854 11.3383C1.57187 11.3383 -0.00146484 12.9083 -0.00146484 14.8483C-0.00146484 16.7883 1.56854 18.3583 3.50854 18.3583C5.2652 18.3583 6.7152 17.065 6.97187 15.3817C7.55854 15.3283 8.14187 15.205 8.7052 15.0017C9.71854 14.6383 10.6152 14.0517 11.3385 13.315V17.0517C9.73187 17.3717 8.51854 18.7883 8.51854 20.4917C8.51854 22.4283 10.0885 24.0017 12.0285 24.0017C13.9685 24.0017 15.5385 22.4317 15.5385 20.4917C15.5385 18.7883 14.3285 17.3717 12.7185 17.0517V13.315C13.4419 14.0517 14.3352 14.6383 15.3519 14.9983C15.8985 15.1917 16.4619 15.315 17.0285 15.3717C17.2819 17.0583 18.7352 18.355 20.4919 18.355C22.4285 18.355 24.0019 16.785 24.0019 14.845C24.0019 12.905 22.4319 11.335 20.4919 11.335V11.3383ZM3.51187 16.8583C2.4052 16.8583 1.50187 15.9583 1.50187 14.8483C1.50187 13.7383 2.40187 12.8383 3.51187 12.8383C4.62187 12.8383 5.52187 13.7383 5.52187 14.8483C5.52187 15.9583 4.62187 16.8583 3.51187 16.8583ZM14.0385 20.4917C14.0385 21.5983 13.1385 22.5017 12.0285 22.5017C10.9185 22.5017 10.0185 21.6017 10.0185 20.4917C10.0185 19.3817 10.9185 18.4817 12.0285 18.4817C13.1385 18.4817 14.0385 19.3817 14.0385 20.4917ZM20.4952 16.8583C19.3885 16.8583 18.4852 15.9583 18.4852 14.8483C18.4852 13.7383 19.3852 12.8383 20.4952 12.8383C21.6052 12.8383 22.5052 13.7383 22.5052 14.8483C22.5052 15.9583 21.6052 16.8583 20.4952 16.8583Z" fill="black"/>
</g>
<defs>
<clipPath id="clip0_15805_63989">
<rect width="24" height="24" fill="white"/>
</clipPath>
</defs>
</svg>
