<svg width="24" height="24" viewBox="0 0 24 24" fill="none" xmlns="http://www.w3.org/2000/svg">
<g clip-path="url(#clip0_15805_63991)">
<path d="M20.5833 8.35667C22.0333 7.44667 23.98 8.39 24 8.4V6.69333C22.97 6.37 21.1767 6.06333 19.5833 7.06667C19.1967 7.31 18.7767 7.42 18.3667 7.45V3.10333L11.9267 0L5.51 3.10667V15.2833C5.26 15.04 4.92 14.89 4.54667 14.89C3.77667 14.89 3.15 15.5233 3.15 16.3C3.15 17.0767 3.77667 17.71 4.54667 17.71C4.92 17.71 5.26 17.56 5.51 17.3167V21.4367L11.9367 24L18.3633 21.4367V17.26C19.0833 17.2267 19.8533 17.0433 20.58 16.5867C22.03 15.6767 23.9767 16.62 23.9967 16.63V14.9233C22.9667 14.6 21.1733 14.2933 19.58 15.2967C19.1933 15.54 18.7733 15.65 18.3633 15.68V13.1467C19.0833 13.1133 19.8533 12.93 20.58 12.4733C22.03 11.5633 23.9767 12.5067 23.9967 12.5167V10.81C22.9667 10.4867 21.1733 10.18 19.58 11.1833C19.1933 11.4267 18.7733 11.5367 18.3633 11.5667V9.03333C19.0833 9 19.8533 8.81667 20.58 8.36L20.5833 8.35667ZM11.1767 22.04L9.85 21.5333V2.69667L11.1767 2.07667V22.0433V22.04ZM12.6833 2.07L14.0333 2.7V21.5333L12.6833 22.05V2.07ZM7.02 4.02333L8.34667 3.40333V20.96L7.02 20.4533V4.02333ZM16.8633 20.4467L15.5367 20.9533V3.40333L16.8633 4.02333V7.28C16.6 7.20333 16.39 7.12333 16.2767 7.07333V8.76333C16.4533 8.81667 16.6533 8.86667 16.8633 8.91V11.3933C16.6 11.3167 16.39 11.2367 16.2767 11.1867V12.8767C16.4533 12.93 16.6533 12.98 16.8633 13.0233V15.5067C16.6 15.43 16.39 15.35 16.2767 15.3V16.99C16.4533 17.0433 16.6533 17.0933 16.8633 17.1367V20.4533V20.4467Z" fill="black"/>
<path d="M1.39667 15.0833C2.16667 15.0833 2.79333 14.45 2.79333 13.6733C2.79333 12.8967 2.16667 12.2633 1.39667 12.2633C0.626667 12.2633 0 12.8967 0 13.6733C0 14.45 0.626667 15.0833 1.39667 15.0833Z" fill="black"/>
<path d="M2.11333 9.64333C2.11333 10.42 2.74 11.0533 3.51 11.0533C4.28 11.0533 4.90667 10.42 4.90667 9.64333C4.90667 8.86667 4.28 8.23333 3.51 8.23333C2.74 8.23333 2.11333 8.86667 2.11333 9.64333Z" fill="black"/>
<path d="M1.39667 7.33667C2.16667 7.33667 2.79333 6.70333 2.79333 5.92667C2.79333 5.15 2.16667 4.51667 1.39667 4.51667C0.626667 4.51667 0 5.14667 0 5.92667C0 6.70667 0.626667 7.33667 1.39667 7.33667Z" fill="black"/>
<path d="M1.75667 18.6467C0.986667 18.6467 0.36 19.28 0.36 20.0567C0.36 20.8333 0.986667 21.4667 1.75667 21.4667C2.52667 21.4667 3.15333 20.8333 3.15333 20.0567C3.15333 19.28 2.52667 18.6467 1.75667 18.6467Z" fill="black"/>
</g>
<defs>
<clipPath id="clip0_15805_63991">
<rect width="24" height="24" fill="white"/>
</clipPath>
</defs>
</svg>
