<?xml version="1.0" encoding="UTF-8"?>
<svg width="24px" height="24px" viewBox="0 0 24 24" version="1.1" xmlns="http://www.w3.org/2000/svg" xmlns:xlink="http://www.w3.org/1999/xlink">
    <title>Icon/Outline/airplane-outline</title>
    <g id="Icon/Outline/airplane-outline" stroke="none" stroke-width="1" fill="none" fill-rule="evenodd">
        <g id="Group" transform="translate(-0.000000, -0.000000)" fill="#474747" fill-rule="nonzero">
            <g id="airplane">
                <path d="M11.1237927,10.1977179 L1.6580837,5.23660737 L15.0856558,6.25829692 L19.3985584,1.92367044 C19.3985584,1.92367044 20.7589988,0.556377623 22.974783,0.0487369393 C25.1905672,-0.458903744 23.3250302,3.13533402 21.9645899,4.50262682 L17.6523663,8.83657083 L18.6690918,22.3332989 L13.7328448,12.8199117 L6.96125012,19.6256146 L5.60642413,23.9997343 L4.41875123,19.558726 L0,18.365071 L4.35219799,17.0034208 L11.1237927,10.1977179 Z M16.1569413,8.99022326 L16.0841091,8.2813819 L20.8989307,3.44230833 C21.2456359,3.09385671 21.6415003,2.54410873 21.9551378,1.99377951 C21.8215026,2.0585373 21.6903533,2.12754292 21.5618151,2.20044488 C21.2364775,2.38496398 20.9498199,2.58185843 20.7072001,2.77579175 C20.5722331,2.88367501 20.4896426,2.95843596 20.4642177,2.98398893 L15.6447841,7.82769783 L14.9304712,7.7535637 C13.4847304,7.60351915 12.0272202,7.45652985 10.6217185,7.32041591 C9.73651031,7.2346891 8.89476071,7.15551086 8.1055636,7.0839906 C8.81953413,7.43281126 9.55579586,7.7880058 10.2921486,8.13974133 C10.6785886,8.32433313 11.0373714,8.4947299 11.3592171,8.6468275 C11.5519483,8.73790833 11.6892492,8.80251416 11.7618539,8.83654826 L13.6964766,9.74342103 L5.25614688,18.2262642 L5.64936303,18.3311771 L5.74988399,18.7117369 L14.1885082,10.2306078 L15.0964606,12.1870949 C15.1303303,12.2600786 15.1946187,12.3980847 15.2852496,12.5918008 C15.4365931,12.915285 15.6061444,13.2758929 15.7898198,13.664298 C16.1332294,14.390481 16.4799529,15.1165768 16.8207494,15.8215102 C16.6369425,13.7731527 16.4073672,11.4274987 16.1569413,8.99022326 Z" id="Combined-Shape"></path>
            </g>
        </g>
    </g>
</svg>