<?xml version="1.0" encoding="UTF-8"?>
<svg width="24px" height="24px" viewBox="0 0 24 24" version="1.1" xmlns="http://www.w3.org/2000/svg" xmlns:xlink="http://www.w3.org/1999/xlink">
    <title>Icon/Outline/alert-outline</title>
    <g id="Icon/Outline/alert-outline" stroke="none" stroke-width="1" fill="none" fill-rule="evenodd">
        <g id="Group" transform="translate(-0.000000, 1.500000)" fill="#474747" fill-rule="nonzero">
            <g id="alert">
                <path d="M23.8063295,18.8687078 C24.3568215,19.8152873 23.6683314,21 22.5658474,21 L1.43415273,21 C0.331668656,21 -0.356821395,19.8152873 0.19367065,18.8687078 L10.759518,0.711050869 C11.31151,-0.237016956 12.6884901,-0.237016956 13.2404821,0.711050869 L23.8063295,18.8687078 Z M12,1.56169795 L1.56179419,19.5000001 L22.4382059,19.5000001 L12,1.56169795 Z M12,16.5000001 C11.5861257,16.5000001 11.25,16.1646597 11.25,15.7500001 C11.25,15.3361257 11.5861257,15.0000001 12,15.0000001 C12.4138744,15.0000001 12.75,15.3361257 12.75,15.7500001 C12.75,16.1646597 12.4138744,16.5000001 12,16.5000001 Z M11.25,12.7522275 L11.25,8.2477726 C11.25,7.83977725 11.5857865,7.50000003 12,7.50000003 C12.4171014,7.50000003 12.75,7.83478923 12.75,8.2477726 L12.75,12.7522275 C12.75,13.1602228 12.4142136,13.5 12,13.5 C11.5828986,13.5 11.25,13.1652108 11.25,12.7522275 Z" id="Combined-Shape"></path>
            </g>
        </g>
    </g>
</svg>