<svg width="24" height="24" viewBox="0 0 24 24" fill="none" xmlns="http://www.w3.org/2000/svg">
<path d="M18.1667 18.0967C20.3133 16.2033 21.67 13.4233 21.67 10.33C21.6733 4.63333 17.0733 0 11.4233 0C5.77334 0 1.17334 4.63333 1.17334 10.33C1.17334 16.0267 5.77001 20.66 11.4233 20.66C13.4933 20.66 15.42 20.0367 17.0333 18.9667L21.7933 24L22.8267 23.0233L18.17 18.0933L18.1667 18.0967ZM11.4533 1.42C16.36 1.42 20.3367 5.39667 20.3367 10.3033C20.3367 11.23 20.1933 12.1267 19.93 12.9667H17.66V7.23333H13.9767V4.58H8.96667V9.17H5.30001V12.9667H2.97667C2.71334 12.1267 2.57001 11.23 2.57001 10.3033C2.57001 5.39667 6.54667 1.42 11.4533 1.42ZM16.3467 8.54667V12.9667H13.9933V8.54667H16.3467ZM12.6367 5.92V12.9667H10.3133V5.92H12.6367ZM8.97001 10.4667V12.9633H6.60334V10.4667H8.97001ZM11.4567 19.1833C8.05667 19.1833 5.10334 17.27 3.61001 14.4633H19.3033C17.81 17.27 14.8567 19.1833 11.4567 19.1833Z" fill="black"/>
</svg>
