<?xml version="1.0" encoding="UTF-8"?>
<svg width="24px" height="24px" viewBox="0 0 24 24" version="1.1" xmlns="http://www.w3.org/2000/svg" xmlns:xlink="http://www.w3.org/1999/xlink">
    <title>Icon/Outline/apparel-outline</title>
    <g id="Icon/Outline/apparel-outline" stroke="none" stroke-width="1" fill="none" fill-rule="evenodd">
        <g id="Group" transform="translate(0.000000, 4.000000)" fill="#474747" fill-rule="nonzero">
            <g id="Outline">
                <path d="M22.5764699,11.4022812 C21.6063343,10.8722071 14.5753516,7.06834209 12.8151056,6.1148755 L12.8151056,5.39477486 C14.1763206,4.99267823 15.008917,3.6218155 14.7381358,2.22852249 C14.4673545,0.835229479 13.1819134,-0.12400066 11.7691798,0.0130091209 C10.3564462,0.150018902 9.27928276,1.33837925 9.28127838,2.75773963 L9.28127838,2.92442959 L10.8414964,2.92442959 L10.8414964,2.75773963 C10.8414964,2.0985877 11.3758447,1.56423949 12.0349966,1.56423949 C12.6941485,1.56423949 13.2284967,2.0985877 13.2284967,2.75773963 C13.2284967,3.41689156 12.6941485,3.95123977 12.0349966,3.95123977 C11.828406,3.95035311 11.6299726,4.0318001 11.4835772,4.17756992 C11.3371817,4.32333975 11.2548857,4.52142248 11.2548876,4.728015 L11.2548876,6.1215431 C9.08791802,7.30837564 2.43032087,10.9488844 1.53352887,11.3856122 C0.150002168,12.052372 -0.133370771,13.1758624 0.0499881896,13.9893094 C0.313513524,14.9957813 1.23702316,15.687031 2.27696611,15.656209 L21.8030285,15.656209 C22.7980776,15.6840737 23.6809802,15.0222422 23.9333262,14.0593192 C24.1966963,13.0425104 23.6666223,11.9923636 22.5764699,11.4022812 Z M21.8030285,14.11266 L2.27696611,14.11266 C1.95823914,14.1451547 1.66145844,13.9463676 1.57020066,13.6392605 C1.50019087,13.3392185 1.74355822,13.0191738 2.23696051,12.7858079 C3.18042571,12.3257436 9.88802985,8.65856435 12.0583332,7.45172901 L13.2618347,8.11848886 L21.8463679,12.7858079 C22.3831095,13.0791822 22.5131277,13.4525677 22.4364503,13.7092702 L22.4364503,13.7092702 C22.3549733,13.9825202 22.0850972,14.1543887 21.8030285,14.11266 L21.8030285,14.11266 Z" id="Shape"></path>
            </g>
        </g>
    </g>
</svg>