<svg width="24" height="24" viewBox="0 0 24 24" fill="none" xmlns="http://www.w3.org/2000/svg">
<g id="Fill=False" clip-path="url(#clip0_264_15123)">
<path id="Vector" d="M6.09667 10.3333C6.09667 10.1094 6.18541 9.89451 6.34347 9.73582C6.50153 9.57714 6.71603 9.48755 6.94 9.48667H17.06C17.2846 9.48667 17.4999 9.57587 17.6587 9.73465C17.8175 9.89343 17.9067 10.1088 17.9067 10.3333C17.9067 10.5579 17.8175 10.7732 17.6587 10.932C17.4999 11.0908 17.2846 11.18 17.06 11.18H6.94C6.82897 11.18 6.71903 11.1581 6.6165 11.1155C6.51396 11.0729 6.42085 11.0105 6.34249 10.9318C6.26414 10.8532 6.20209 10.7598 6.1599 10.6571C6.11772 10.5544 6.09623 10.4444 6.09667 10.3333ZM22.3 21.7067V6.35667H1.7V21.7067C1.7 22.97 3.07333 24 4.33333 24H20C20.6086 23.9991 21.1921 23.7574 21.623 23.3277C22.054 22.898 22.2974 22.3152 22.3 21.7067ZM20.7267 7.92333V21.7067C20.7258 21.8991 20.649 22.0834 20.5129 22.2195C20.3768 22.3556 20.1925 22.4325 20 22.4333H4.33333C3.93 22.4333 3.26333 22.1 3.26333 21.7067V7.92333H20.7267ZM24 2.29333C23.9974 1.68419 23.7535 1.10089 23.3218 0.671091C22.8902 0.241293 22.3058 -5.74086e-06 21.6967 1.0244e-10H2.30333C1.69418 -5.74086e-06 1.10983 0.241293 0.678156 0.671091C0.246483 1.10089 0.00264466 1.68419 0 2.29333V5.36667H24V2.29333ZM1.57333 2.29333C1.57421 2.1003 1.65151 1.91548 1.78832 1.7793C1.92513 1.64312 2.1103 1.56666 2.30333 1.56667H21.6967C21.8897 1.56666 22.0749 1.64312 22.2117 1.7793C22.3485 1.91548 22.4258 2.1003 22.4267 2.29333V3.79667H1.57333V2.29333Z" fill="#474747"/>
</g>
<defs>
<clipPath id="clip0_264_15123">
<rect width="24" height="24" fill="white" transform="translate(0 0.000854492)"/>
</clipPath>
</defs>
</svg>
