<?xml version="1.0" encoding="UTF-8"?>
<svg width="24px" height="24px" viewBox="0 0 24 24" version="1.1" xmlns="http://www.w3.org/2000/svg" xmlns:xlink="http://www.w3.org/1999/xlink">
    <title>Icon/Outline/arrow-increase-outline</title>
    <g id="Icon/Outline/arrow-increase-outline" stroke="none" stroke-width="1" fill="none" fill-rule="evenodd">
        <g id="Group" transform="translate(-0.000000, -0.000000)" fill="#474747" fill-rule="nonzero">
            <g id="arrow-increase">
                <path d="M22.5,21.4393399 L22.5,0.750000003 C22.5,0.335786439 22.8357866,0 23.2500001,0 C23.6642136,0 24,0.335786439 24,0.750000003 L24,24 L0.750000003,24 C0.335786439,24 0,23.6642136 0,23.2500001 C0,22.8357866 0.335786439,22.5 0.750000003,22.5 L21.4393399,22.5 L0.219669915,1.28033009 C-0.073223305,0.987436872 -0.073223305,0.512563135 0.219669915,0.219669915 C0.512563135,-0.073223305 0.987436872,-0.073223305 1.28033009,0.219669915 L22.5,21.4393399 Z" id="Combined-Shape" transform="translate(12.000000, 12.000000) scale(-1, 1) rotate(-180.000000) translate(-12.000000, -12.000000) "></path>
            </g>
        </g>
    </g>
</svg>