<?xml version="1.0" encoding="UTF-8"?>
<svg width="24px" height="24px" viewBox="0 0 24 24" version="1.1" xmlns="http://www.w3.org/2000/svg" xmlns:xlink="http://www.w3.org/1999/xlink">
    <title>Icon/Outline/arrow-increase-small-outline</title>
    <g id="Icon/Outline/arrow-increase-small-outline" stroke="none" stroke-width="1" fill="none" fill-rule="evenodd">
        <g id="Group" transform="translate(4.000000, 4.000000)" fill="#474747" fill-rule="nonzero" stroke="#474747" stroke-width="0.5">
            <g id="arrow-increase">
                <path d="M15,14.2928932 L15,0.5 C15,0.223857625 15.2238576,0 15.5,0 C15.7761424,0 16,0.223857625 16,0.5 L16,16 L0.5,16 C0.223857625,16 0,15.7761424 0,15.5 C0,15.2238576 0.223857625,15 0.5,15 L14.2928932,15 L0.146446609,0.85355339 C-0.0488155365,0.658291245 -0.0488155365,0.341708756 0.146446609,0.146446609 C0.341708756,-0.0488155365 0.658291245,-0.0488155365 0.85355339,0.146446609 L15,14.2928932 Z" id="Combined-Shape" transform="translate(8.000000, 8.000000) scale(-1, 1) rotate(-180.000000) translate(-8.000000, -8.000000) "></path>
            </g>
        </g>
    </g>
</svg>