<?xml version="1.0" encoding="UTF-8"?>
<svg width="24px" height="24px" viewBox="0 0 24 24" version="1.1" xmlns="http://www.w3.org/2000/svg" xmlns:xlink="http://www.w3.org/1999/xlink">
    <title>Icon/Outline/art-themes-outline</title>
    <g id="Icon/Outline/art-themes-outline" stroke="none" stroke-width="1" fill="none" fill-rule="evenodd">
        <g id="Group" fill="#474747" fill-rule="nonzero">
            <g id="Outline">
                <path d="M12.3349308,1.51666676 C12.5282641,1.51666676 12.7249307,1.51666676 12.9182641,1.51666676 C14.0888888,1.58518585 15.2416486,1.83598139 16.3349305,2.26000004 C17.1206264,2.57617755 17.8596314,2.99782535 18.531597,3.51333329 C19.2570941,4.05274193 19.913174,4.67971246 20.4849302,5.37999984 C21.0551497,6.04452333 21.4747588,6.82460968 21.7149302,7.66666635 C21.8808654,8.24725365 21.8539632,8.8660051 21.6382635,9.42999957 C21.4567297,9.95522039 21.1047186,10.4046213 20.6382636,10.7066662 C20.1793537,10.9609701 19.6849998,11.1452293 19.171597,11.2533328 C18.6209789,11.3742465 18.088642,11.5670085 17.5882638,11.8266661 C16.2312794,12.591069 15.5934782,14.2001624 16.0582639,15.6866658 C16.2519399,16.214692 16.5129871,16.7154993 16.8349305,17.1766657 C17.133542,17.5910874 17.3673308,18.0485491 17.5282638,18.5333323 C17.6559931,19.062277 17.6019828,19.6188178 17.3749304,20.1133322 C17.136056,20.6813688 16.7228346,21.1587914 16.1949305,21.4766654 C15.429912,21.9416505 14.576059,22.2414074 13.688264,22.3566654 C13.136716,22.4406574 12.5795009,22.4818913 12.0215975,22.480061 C11.6649308,22.480061 11.3082642,22.480061 10.9549309,22.4333321 C10.1041502,22.3658542 9.26648567,22.1830707 8.46493102,21.8899988 C7.13320442,21.3891423 5.91162718,20.634006 4.86826459,19.6666656 C3.84139413,18.7098054 3.01631664,17.5571903 2.44159808,16.2766658 C1.87365075,15.0311648 1.55975331,13.6849188 1.51826481,12.316666 C1.51826481,12.2566661 1.57493148,6.25666645 6.66159781,3.08666665 C7.53085733,2.55742726 8.47313488,2.15872818 9.45826429,1.9033334 C10.3962246,1.64972918 11.3632955,1.51974051 12.3349308,1.51666676 M12.3349308,0 C11.2295072,0 10.128893,0.145510935 9.06159765,0.433333494 C7.93169589,0.726657625 6.85119639,1.18491521 5.85493119,1.7933334 C0.768264861,4.96666653 -0.0417350856,10.8066661 0.00159824494,12.3533327 C0.0468268182,13.9220813 0.406130116,15.4658387 1.05826484,16.8933324 C1.71721467,18.3552866 2.65988528,19.671853 3.83159799,20.7666655 C5.0156624,21.8702231 6.40232514,22.7339159 7.91493106,23.3099987 C8.84769374,23.6507236 9.82192764,23.8648533 10.8115975,23.9466653 C11.2115975,23.9833319 11.6149308,24 12.0149308,24 C12.6542958,24.0003166 13.292774,23.9524029 13.9249307,23.8566653 C15.0242693,23.7085604 16.0803303,23.331558 17.0249305,22.7499987 C17.8151395,22.257726 18.4298775,21.5286725 18.781597,20.6666655 C19.1313052,19.8690546 19.2051989,18.9776387 18.991597,18.1333323 C18.7921995,17.4980129 18.4953272,16.8975212 18.1115971,16.3533324 C17.8606141,16.0002712 17.6545838,15.6173235 17.4982638,15.2133325 C17.3711778,14.8280955 17.3889552,14.4097332 17.5482638,14.0366659 C17.6961316,13.656617 17.9751969,13.3420773 18.3349304,13.1499993 C18.7278378,12.9589922 19.1417704,12.8146752 19.5682636,12.7199994 C20.2268357,12.5769715 20.8596919,12.3341706 21.4449302,12 C22.1830545,11.5267172 22.7452187,10.824012 23.0449301,10 C23.3780017,9.14032798 23.4282124,8.19683284 23.1882634,7.30666638 C22.8955393,6.25016148 22.3769282,5.2698046 21.6682635,4.43333323 C21.0182135,3.63186856 20.2701456,2.91515679 19.441597,2.30000004 C18.6573325,1.70106979 17.7949123,1.21210331 16.8782638,0.8466668 C15.6373328,0.369191 14.3292429,0.0891270349 13.0015974,0.0166668546 C12.7815974,0.0166668546 12.5582641,0 12.3349308,0 L12.3349308,0 Z M5.7849312,13.0433327 C6.42926336,13.0433327 6.95159779,13.5656671 6.95159779,14.2099993 C6.95159779,14.8543314 6.42926336,15.3766658 5.7849312,15.3766658 C5.14059903,15.3766658 4.61826461,14.8543314 4.61826461,14.2099993 C4.61826461,13.5656671 5.14059903,13.0433327 5.7849312,13.0433327 M5.7849312,11.8766661 C4.49626687,11.8766661 3.45159802,12.9213349 3.45159802,14.2099993 C3.45159802,15.4986636 4.49626687,16.5433324 5.7849312,16.5433324 C7.07359553,16.5433324 8.11826438,15.4986636 8.11826438,14.2099993 C8.11826438,12.9213349 7.07359553,11.8766661 5.7849312,11.8766661 Z M7.47493109,6.33333311 C8.11926325,6.33333311 8.64159768,6.85566753 8.64159768,7.4999997 C8.64159768,8.14433186 8.11926325,8.66666629 7.47493109,8.66666629 C6.83059892,8.66666629 6.3082645,8.14433186 6.3082645,7.4999997 C6.3082645,6.85566753 6.83059892,6.33333311 7.47493109,6.33333311 M7.47493109,5.16666652 C6.53118591,5.16666652 5.68036796,5.73516489 5.31921232,6.60707175 C4.95805668,7.4789786 5.15768676,8.4825868 5.82501537,9.14991541 C6.49234399,9.81724403 7.49595219,10.0168741 8.36785904,9.65571846 C9.23976589,9.29456282 9.80826427,8.44374487 9.80826427,7.4999997 C9.80826427,6.21133537 8.76359542,5.16666652 7.47493109,5.16666652 L7.47493109,5.16666652 Z M14.6415973,4.16666658 C15.2859295,4.16666658 15.8082639,4.68900101 15.8082639,5.33333317 C15.8082639,5.97766534 15.2859295,6.49999976 14.6415973,6.49999976 C13.9972651,6.49999976 13.4749307,5.97766534 13.4749307,5.33333317 C13.4749307,4.68900101 13.9972651,4.16666658 14.6415973,4.16666658 M14.6415973,2.99999999 C13.352933,2.99999999 12.3082641,4.04466884 12.3082641,5.33333317 C12.3082641,6.6219975 13.352933,7.66666635 14.6415973,7.66666635 C15.9302616,7.66666635 16.9749305,6.6219975 16.9749305,5.33333317 C16.9749305,4.04466884 15.9302616,2.99999999 14.6415973,2.99999999 L14.6415973,2.99999999 Z M11.8949308,17.6666657 C12.539263,17.6666657 13.0615974,18.1890001 13.0615974,18.8333323 C13.0615974,19.4776645 12.539263,19.9999989 11.8949308,19.9999989 C11.2505986,19.9999989 10.7282642,19.4776645 10.7282642,18.8333323 C10.7282642,18.1890001 11.2505986,17.6666657 11.8949308,17.6666657 M11.8949308,16.4999991 C10.6062665,16.4999991 9.56159762,17.544668 9.56159762,18.8333323 C9.56159762,20.1219966 10.6062665,21.1666655 11.8949308,21.1666655 C13.1835951,21.1666655 14.228264,20.1219966 14.228264,18.8333323 C14.228264,17.544668 13.1835951,16.4999991 11.8949308,16.4999991 Z" id="Shape"></path>
            </g>
        </g>
    </g>
</svg>