<svg width="24" height="24" viewBox="0 0 24 24" fill="none" xmlns="http://www.w3.org/2000/svg">
<g clip-path="url(#clip0_15805_64001)">
<path d="M13.4985 0.00167847H10.4985C4.69853 0.00167847 -0.00146484 4.75168 -0.00146484 10.6083C-0.00146484 13.455 1.1152 16.035 2.92187 17.9383L2.90854 23.9983L7.75854 20.835C8.6352 21.075 9.55187 21.2117 10.5019 21.2117H13.5019C19.3019 21.2117 24.0019 16.4617 24.0019 10.605C24.0019 4.74835 19.2985 0.00167847 13.4985 0.00167847ZM13.4985 19.7017H10.4985C9.72853 19.7017 8.93854 19.5917 8.14854 19.375L7.5052 19.1983L6.9452 19.565L4.4152 21.215L4.42187 17.945V17.335L4.0052 16.895C2.38854 15.1917 1.49854 12.9583 1.49854 10.6117C1.49854 5.59835 5.5352 1.51835 10.4985 1.51835H13.4985C18.4619 1.51835 22.4985 5.59835 22.4985 10.6117C22.4985 15.625 18.4619 19.705 13.4985 19.705V19.7017Z" fill="black"/>
<path d="M13.1319 16.245H11.7452V14.4783H13.1319V16.245ZM15.1719 9.88168C14.9152 10.2917 14.5919 10.6883 14.2019 11.0583C13.9285 11.3317 13.6985 11.5617 13.5285 11.725C13.3952 11.8517 13.3319 11.9483 13.2985 12.0083C13.2785 12.0483 13.2419 12.1483 13.2219 12.315C13.1985 12.5183 13.1819 12.815 13.1752 13.205L11.6752 13.1717C11.6852 12.7183 11.7052 12.3717 11.7352 12.1317C11.7752 11.815 11.8552 11.535 11.9785 11.3017C12.1052 11.0617 12.2819 10.8383 12.5019 10.6283C12.6652 10.4717 12.8852 10.255 13.1585 9.97501C13.4685 9.67834 13.7152 9.37834 13.9052 9.07834C14.0485 8.84501 14.1219 8.54168 14.1219 8.17834C14.1219 7.89168 14.0719 7.63835 13.9752 7.42835C13.8752 7.21501 13.7385 7.03501 13.5652 6.88168C13.3852 6.72501 13.1785 6.60835 12.9352 6.52501C12.3519 6.32501 11.5952 6.36501 11.0885 6.57168C10.8019 6.68834 10.5685 6.84501 10.3719 7.04834C10.1819 7.24834 10.0385 7.49168 9.93853 7.78834C9.83187 8.10501 9.7752 8.46834 9.7752 8.86501H8.2752C8.2752 8.30168 8.35853 7.77168 8.51853 7.29501C8.69187 6.78834 8.95187 6.35501 9.2952 5.99834C9.6352 5.64168 10.0485 5.36501 10.5252 5.16834C11.3585 4.82501 12.4952 4.77168 13.4219 5.09168C13.8452 5.23835 14.2219 5.45501 14.5452 5.73501C14.8785 6.02501 15.1419 6.37835 15.3319 6.78501C15.5252 7.19835 15.6219 7.66835 15.6219 8.18168C15.6219 8.83835 15.4719 9.41168 15.1719 9.89168V9.88168Z" fill="black"/>
</g>
<defs>
<clipPath id="clip0_15805_64001">
<rect width="24" height="24" fill="white"/>
</clipPath>
</defs>
</svg>
