<?xml version="1.0" encoding="UTF-8"?>
<svg width="24px" height="24px" viewBox="0 0 24 24" version="1.1" xmlns="http://www.w3.org/2000/svg" xmlns:xlink="http://www.w3.org/1999/xlink">
    <title>Icon/Outline/atm-outline</title>
    <g id="Icon/Outline/atm-outline" stroke="none" stroke-width="1" fill="none" fill-rule="evenodd">
        <g id="Group" fill="#474747" fill-rule="nonzero">
            <g id="Outline">
                <path d="M24,-5.92118946e-16 L24,8.47 L18.41,8.47 L18.41,23.7466667 L5.44,23.7466667 L5.44,8.47 L0,8.47 L0,-5.92118946e-16 L24,-5.92118946e-16 Z M17.2066667,4.57333333 L6.64666667,4.57333333 L6.64666667,22.54 L17.2066667,22.54 L17.2066667,4.57333333 Z M16.1366667,20.1466667 L16.1366667,21.3533333 L13.6666667,21.3533333 L13.6666667,20.1466667 L16.1366667,20.1466667 Z M13.4635011,9.83619391 C14.9685725,10.4592496 15.95,11.9277288 15.95,13.5566667 C15.9481653,15.7784719 14.1484696,17.5796586 11.9266667,17.5833347 C10.2977294,17.5846818 8.82843787,16.6044714 8.20413597,15.0999164 C7.57983407,13.5953614 7.92351532,11.8628738 9.07487127,10.710564 C10.2262272,9.55825413 11.9584296,9.21313823 13.4635011,9.83619391 Z M11.9266667,10.7333333 C10.3673827,10.7333333 9.10333333,11.9973827 9.10333333,13.5566667 C9.10333333,15.1159506 10.3673827,16.38 11.9266667,16.38 C13.4859506,16.38 14.75,15.1159506 14.75,13.5566667 C14.7463347,11.9989035 13.4844299,10.7369987 11.9266667,10.7333333 Z M22.7933333,1.20666667 L1.20666667,1.20666667 L1.20666667,7.26333333 L5.44,7.26333333 L5.44,4.57333333 L2.68333333,4.57333333 L2.68333333,3.36666667 L21.2866667,3.36666667 L21.2866667,4.57333333 L18.41,4.57333333 L18.41,7.26333333 L22.7933333,7.26333333 L22.7933333,1.20666667 Z M10.1233333,5.75666667 L10.1233333,6.96333333 L7.65333333,6.96333333 L7.65333333,5.75666667 L10.1233333,5.75666667 Z" id="Combined-Shape"></path>
            </g>
        </g>
    </g>
</svg>