<?xml version="1.0" encoding="UTF-8"?>
<svg width="24px" height="24px" viewBox="0 0 24 24" version="1.1" xmlns="http://www.w3.org/2000/svg" xmlns:xlink="http://www.w3.org/1999/xlink">
    <title>Icon/Outline/audience-outline</title>
    <g id="Icon/Outline/audience-outline" stroke="none" stroke-width="1" fill="none" fill-rule="evenodd">
        <g id="Group" transform="translate(-0.000000, -0.000000)" fill="#474747" fill-rule="nonzero">
            <g id="audience" transform="translate(0.000000, 3.000000)">
                <path d="M15,12.5452155 C16.1297516,12.1976643 17.4002875,12 18.7492344,12 C20.7353071,12 22.5514074,12.4284781 24,13.132951 L24,18 L15,18 L0,18 L0,12.1027391 C2.06715521,11.1064856 4.66094282,10.5 7.49917973,10.5 C10.3374166,10.5 12.9312043,11.1064856 15,12.1027391 L15,12.5452155 Z M13.5,13.132951 L13.5,13.0829344 C11.7345897,12.3846593 9.66938344,12.0000001 7.49917973,12.0000001 C5.32901302,12.0000001 3.26399643,12.3846543 1.50000001,13.0826869 L1.50000001,16.5000001 L13.5,16.5000001 L13.5,13.132951 Z M7.50056456,7.5 C5.43222191,7.5 3.75000002,5.8166491 3.75000002,3.74943551 C3.75000002,1.6822219 5.43222191,0 7.50056456,0 C9.56777816,0 11.25,1.6822219 11.25,3.74943551 C11.25,5.8166491 9.56777816,7.5 7.50056456,7.5 Z M7.50000003,6.00000001 C8.74025231,6.00000001 9.75000002,4.9911124 9.75000002,3.75000002 C9.75000002,2.50974772 8.74025231,1.50000001 7.50000003,1.50000001 C6.25974774,1.50000001 5.25000002,2.50974772 5.25000002,3.75000002 C5.25000002,4.9911124 6.25974774,6.00000001 7.50000003,6.00000001 Z M18.7500001,10.5 C17.0963303,10.5 15.7500001,9.15481654 15.7500001,7.50000002 C15.7500001,5.84633027 17.0963303,4.50000002 18.7500001,4.50000002 C20.4036698,4.50000002 21.7500001,5.84633027 21.7500001,7.50000002 C21.7500001,9.15481654 20.4036698,10.5 18.7500001,10.5 Z M18.7500001,9.00000003 C19.576835,9.00000003 20.2500001,8.32740828 20.2500001,7.50000003 C20.2500001,6.67316515 19.576835,6.00000003 18.7500001,6.00000003 C17.9231652,6.00000003 17.2500001,6.67316515 17.2500001,7.50000003 C17.2500001,8.32740828 17.9231652,9.00000003 18.7500001,9.00000003 Z M15.0000001,16.5000001 L22.5000001,16.5000001 L22.5000001,14.1264004 C21.3821694,13.722045 20.0969457,13.5000001 18.7492344,13.5000001 C17.4016512,13.5000001 16.1166836,13.7220094 15.0000001,14.1261118 L15.0000001,16.5000001 Z" id="Combined-Shape"></path>
            </g>
        </g>
    </g>
</svg>