<?xml version="1.0" encoding="UTF-8"?>
<svg width="24px" height="24px" viewBox="0 0 24 24" version="1.1" xmlns="http://www.w3.org/2000/svg" xmlns:xlink="http://www.w3.org/1999/xlink">
    <title>Icon/Outline/automobile-outline</title>
    <g id="Icon/Outline/automobile-outline" stroke="none" stroke-width="1" fill="none" fill-rule="evenodd">
        <g id="Group" transform="translate(0.000000, 6.000000)" fill="#474747" fill-rule="nonzero">
            <g id="Outline">
                <path d="M17.83,3.52333333 L15.5966667,0 L2.80333333,0 L0,3.91666667 L0,9.64333333 L2.49666667,9.64333333 C2.82800694,10.9979912 4.04207556,11.9508956 5.43666667,11.9508956 C6.83125777,11.9508956 8.04532639,10.9979912 8.37666667,9.64333333 L12.9033333,9.64333333 C13.2346736,10.9979912 14.4487422,11.9508956 15.8433333,11.9508956 C17.2379244,11.9508956 18.4519931,10.9979912 18.7833333,9.64333333 L24,9.64333333 L24,5.5 L17.83,3.52333333 Z M14.78,1.52333333 L16.8433333,4.78 L16.8433333,4.81 L22.49,6.62 L22.49,8.15333333 L18.7833333,8.15333333 C18.4519931,6.79867545 17.2379244,5.84577105 15.8433333,5.84577105 C14.4487422,5.84577105 13.2346736,6.79867545 12.9033333,8.15333333 L8.37666667,8.15333333 C8.04532639,6.79867545 6.83125777,5.84577105 5.43666667,5.84577105 C4.04207556,5.84577105 2.82800694,6.79867545 2.49666667,8.15333333 L1.49666667,8.15333333 L1.49666667,4.40333333 L3.57,1.50666667 L14.78,1.52333333 Z M6.97668145,8.89 C6.96931227,9.74101826 6.27444004,10.4254693 5.42340781,10.4199642 C4.57237558,10.4144592 3.88641615,9.72107593 3.89005732,8.87003375 C3.89372758,8.01899156 4.58561855,7.33152699 5.43666667,7.33332978 C6.29140702,7.33883992 6.98036078,8.03524989 6.97668145,8.89 L6.97668145,8.89 Z M17.3866811,8.89 C17.3793179,9.74058506 16.6851239,10.4248631 15.8345212,10.4200005 C14.9839184,10.4150859 14.2976354,9.72287391 14.3000575,8.87226057 C14.3024923,8.02164723 14.9927165,7.33336508 15.8433333,7.33333333 C16.2544201,7.33509765 16.6479685,7.50009523 16.9374004,7.79202769 C17.2268324,8.08396014 17.3884386,8.47891329 17.3866811,8.89 Z" id="Shape"></path>
            </g>
        </g>
    </g>
</svg>