<?xml version="1.0" encoding="UTF-8"?>
<svg width="24px" height="24px" viewBox="0 0 24 24" version="1.1" xmlns="http://www.w3.org/2000/svg" xmlns:xlink="http://www.w3.org/1999/xlink">
    <title>Icon/Outline/avatar-outline</title>
    <g id="Icon/Outline/avatar-outline" stroke="none" stroke-width="1" fill="none" fill-rule="evenodd">
        <g id="Group" transform="translate(-0.000000, -0.000000)" fill="#474747" fill-rule="nonzero">
            <g id="avatar">
                <path d="M6.01009674,20.6250001 C7.70893353,21.8070275 9.77354059,22.5000001 12,22.5000001 C14.2264595,22.5000001 16.2910666,21.8070275 17.9899033,20.6250001 C16.2910666,19.4429727 14.2264595,18.7500001 12,18.7500001 C9.77354059,18.7500001 7.70893353,19.4429727 6.01009674,20.6250001 Z M4.80380307,19.6462658 C6.80873638,18.1415397 9.30025309,17.2500001 12,17.2500001 C14.699747,17.2500001 17.1912637,18.1415397 19.1961971,19.6462658 C21.230113,17.7313474 22.5,15.0139727 22.5,12 C22.5,6.20101015 17.7989899,1.50000001 12,1.50000001 C6.20101015,1.50000001 1.50000001,6.20101015 1.50000001,12 C1.50000001,15.0139727 2.7698871,17.7313474 4.80380307,19.6462658 Z M12,24 C5.37258302,24 0,18.6274171 0,12 C0,5.37258302 5.37258302,0 12,0 C18.6274171,0 24,5.37258302 24,12 C24,18.6274171 18.6274171,24 12,24 Z M12.0000001,14.25 C9.92893227,14.25 8.25000003,12.5710678 8.25000003,10.5 C8.25000003,8.42893226 9.92893227,6.75000003 12.0000001,6.75000003 C14.0710678,6.75000003 15.75,8.42893226 15.75,10.5 C15.75,12.5710678 14.0710678,14.25 12.0000001,14.25 Z M12.0000001,12.75 C13.2426407,12.75 14.25,11.7426407 14.25,10.5 C14.25,9.25735939 13.2426407,8.25000003 12.0000001,8.25000003 C10.7573594,8.25000003 9.75000004,9.25735939 9.75000004,10.5 C9.75000004,11.7426407 10.7573594,12.75 12.0000001,12.75 Z" id="icons/outline/Avatar_32"></path>
            </g>
        </g>
    </g>
</svg>