<?xml version="1.0" encoding="UTF-8"?>
<svg width="24px" height="24px" viewBox="0 0 24 24" version="1.1" xmlns="http://www.w3.org/2000/svg" xmlns:xlink="http://www.w3.org/1999/xlink">
    <title>Icon/Outline/battery-medium-outline</title>
    <g id="Icon/Outline/battery-medium-outline" stroke="none" stroke-width="1" fill="none" fill-rule="evenodd">
        <g id="Group" transform="translate(0.000000, 7.000000)" fill="#474747" fill-rule="nonzero">
            <g id="Outline">
                <path d="M22.8233344,2.94999735 L22.8233344,1.74333177 L21.1766692,1.74333177 L21.1766692,0 L0.510021098,0 C0.373875856,0.000881189562 0.243657147,0.0558112537 0.148013062,0.152705589 C0.0523689767,0.249599923 -0.000865374598,0.380520999 1.06465884e-05,0.516666203 L1.06465884e-05,9.48332482 C-0.000872939769,9.62062548 0.0532740908,9.75256191 0.150362379,9.84965019 C0.247450668,9.94673848 0.379387097,10.0008855 0.516687758,10 L21.1833359,10 L21.1833359,8.56665897 L22.8300011,8.56665897 L22.8300011,7.5 L24,7.5 L24,2.94999735 L22.8233344,2.94999735 Z M19.6666706,8.48332571 L1.5100202,8.48332571 L1.5100202,1.5166653 L19.6666706,1.5166653 L19.6666706,8.48332571 Z M9.93334597,7.33332675 L6.89668203,7.33332675 L6.89668203,2.60666433 L9.93334597,2.60666433 L9.93334597,7.33332675 Z M5.73668307,7.33332675 L2.70335246,7.33332675 L2.70335246,2.60666433 L5.73668307,2.60666433 L5.73668307,7.33332675 Z" id="Shape"></path>
            </g>
        </g>
    </g>
</svg>