<svg width="24" height="24" viewBox="0 0 24 24" fill="none" xmlns="http://www.w3.org/2000/svg">
<g clip-path="url(#clip0_15805_64009)">
<path d="M19.1219 19.7783H5.35187C4.49854 19.7783 3.73187 19.3017 3.35187 18.535C2.9752 17.7717 3.06187 16.8817 3.5752 16.2083C5.2052 14.075 8.5252 12.7483 12.2352 12.7483C15.9452 12.7483 19.2652 14.075 20.8952 16.2083C21.4085 16.8817 21.4952 17.7717 21.1185 18.535C20.7385 19.3017 19.9719 19.7783 19.1185 19.7783H19.1219ZM12.2385 14.2483C9.0352 14.2483 6.10187 15.375 4.76854 17.1183C4.5252 17.435 4.63854 17.7483 4.69854 17.8683C4.8252 18.125 5.06854 18.2783 5.35187 18.2783H19.1219C19.4052 18.2783 19.6519 18.125 19.7752 17.8683C19.8352 17.7483 19.9485 17.435 19.7052 17.1183C18.3719 15.375 15.4419 14.2483 12.2352 14.2483H12.2385ZM12.2385 11.635C9.95187 11.635 8.09187 9.77499 8.09187 7.48499C8.09187 5.19499 9.95187 3.33499 12.2385 3.33499C14.5252 3.33499 16.3852 5.19499 16.3852 7.48499C16.3852 9.77499 14.5252 11.635 12.2385 11.635ZM12.2385 4.83832C10.7785 4.83832 9.59187 6.02832 9.59187 7.48832C9.59187 8.94832 10.7785 10.1383 12.2385 10.1383C13.6985 10.1383 14.8852 8.95165 14.8852 7.48832C14.8852 6.02499 13.6985 4.83832 12.2385 4.83832ZM22.4952 5.25499H24.0019V-0.00167847H18.7485V1.50499H22.4985V5.25499H22.4952ZM-0.00146484 5.25499H1.5052V1.50499H5.2552V-0.00167847H-0.00146484V5.25499ZM-0.00146484 23.9983H5.25187V22.4917H1.5052V18.7417H-0.00146484V23.995V23.9983ZM18.7452 23.9983H23.9985V18.745H22.4919V22.495H18.7419V24.0017L18.7452 23.9983Z" fill="black"/>
</g>
<defs>
<clipPath id="clip0_15805_64009">
<rect width="24" height="24" fill="white"/>
</clipPath>
</defs>
</svg>
