<?xml version="1.0" encoding="UTF-8"?>
<svg width="24px" height="24px" viewBox="0 0 24 24" version="1.1" xmlns="http://www.w3.org/2000/svg" xmlns:xlink="http://www.w3.org/1999/xlink">
    <title>Icon/Outline/boat-outline</title>
    <g id="Icon/Outline/boat-outline" stroke="none" stroke-width="1" fill="none" fill-rule="evenodd">
        <g id="Group" transform="translate(0.000000, 5.000000)" fill="#474747" fill-rule="nonzero">
            <g id="Outline">
                <path d="M23.8880844,7.17677455 C23.7587913,7.00197144 23.5523493,6.90123769 23.3349997,6.90689584 L16.791274,6.90689584 C16.5080679,6.66033998 15.9216648,6.00730014 15.2586294,5.36092398 C12.3566004,2.53552713 12.2599771,1.83917342 10.760651,1.83917342 L7.56875216,1.83917342 L6.27933167,-8.8817842e-16 L2.394411,-8.8817842e-16 L2.72759459,1.83917342 L1.44483776,1.83917342 L1.44483776,6.90689584 L0.645197144,6.90689584 C0.453583338,6.90321982 0.270619482,6.98654622 0.147610627,7.13350943 C0.0246017718,7.28047265 -0.02520807,7.47524955 0.0121483218,7.66322259 L0.918407689,12.5043802 C1.0063355,12.9852566 1.4291744,13.3319845 1.91795846,13.3240118 L1.91795846,13.3240118 L17.9340937,13.2440477 C18.2891106,13.241776 18.6262067,13.0877788 18.8603441,12.8209046 C20.2530515,11.2216233 23.7414837,8.04971556 23.7714702,8.02306087 C24.0235096,7.81366067 24.0740976,7.44653633 23.8880844,7.17677455 L23.8880844,7.17677455 Z M2.71426724,6.90689584 L2.71426724,3.3584906 L9.90770097,3.3584906 C10.9439019,3.3584906 11.2837492,3.60837829 11.7701972,4.14813571 L4.06699262,4.14813571 L4.06699262,6.90689584 L2.71426724,6.90689584 Z M5.99612561,6.90689584 L5.99612561,5.66412105 L13.2761871,5.66412105 L14.7955042,6.92355502 L5.99612561,6.90689584 Z M21.2426067,8.36623997 L17.644224,11.6980759 C16.0516064,11.7347261 3.71048618,11.7180669 2.29112408,11.7180669 L1.67806628,8.36623997 L21.2426067,8.36623997 Z M3.80377759,1.81918241 L3.58720825,0.846286321 L5.70625589,0.846286321 L6.37262307,1.84583709 L3.80377759,1.81918241 Z" id="Shape"></path>
            </g>
        </g>
    </g>
</svg>