<svg width="24" height="24" viewBox="0 0 24 24" fill="none" xmlns="http://www.w3.org/2000/svg">
<g clip-path="url(#clip0_15805_64011)">
<path d="M22.5866 5.04H6.02327L4.64994 3.71667H21.1433V2.24L3.16994 2.32L1.99661 1.22333H19.4499V0.01L0.689941 0V19.81L5.17661 24H22.5899C22.9866 24 23.3099 23.67 23.3099 23.2667V5.77333C23.3099 5.36667 22.9866 5.04 22.5899 5.04H22.5866ZM4.99327 21.81L2.17327 19.2833L2.25994 3.46333L5.07994 6.11667L4.99327 21.81ZM10.1899 6.51667H16.4899V14.7467L13.3399 12.69L10.1899 14.7467V6.51667ZM6.47661 22.52V6.51667H8.70328V17.4967L13.3399 14.4667L17.9766 17.4967V6.51667H21.8699V22.52H6.47661Z" fill="black"/>
</g>
<defs>
<clipPath id="clip0_15805_64011">
<rect width="24" height="24" fill="white"/>
</clipPath>
</defs>
</svg>
