<?xml version="1.0" encoding="UTF-8"?>
<svg width="24px" height="24px" viewBox="0 0 24 24" version="1.1" xmlns="http://www.w3.org/2000/svg" xmlns:xlink="http://www.w3.org/1999/xlink">
    <title>Icon/Outline/bot-outline</title>
    <g id="Icon/Outline/bot-outline" stroke="none" stroke-width="1" fill="none" fill-rule="evenodd">
        <g id="Group" transform="translate(3.000000, 0.000000)" fill="#474747" fill-rule="nonzero">
            <g id="Outline">
                <path d="M9.74,0 L9.74,2.30666667 L13,2.30666667 C13.7219689,2.30843132 14.413617,2.59715473 14.9225621,3.10922603 C15.3852395,3.5747454 15.6624106,4.19012585 15.7069858,4.84058976 L15.7133333,5.03666667 L15.7133333,10.8333333 L10.38,10.8333333 L10.38,12.2233333 L13.0266667,12.2233333 C15.6958559,12.2233333 17.8790845,14.16402 17.9951471,16.5931405 L18,16.7966667 L18,24 L0,24 L0,15.8 C0,14.2373529 2.17297578,12.3387111 4.739023,12.228378 L4.97333333,12.2233333 L7.62,12.2233333 L7.62,10.8333333 L2.28666667,10.8333333 L2.28666667,5.03666667 C2.2840102,4.31470055 2.5684928,3.62129733 3.0774379,3.10922603 C3.54011527,2.64370667 4.15378688,2.36277233 4.80396564,2.31421482 L5,2.30666667 L8.26,2.30666667 L8.26,0 L9.74,0 Z M13.0266667,13.7166667 L4.97333333,13.7166667 C3.02869048,13.7166667 1.58926446,15.0773427 1.48892872,15.7304495 L1.48333333,15.8 L1.48333333,22.5066667 L16.5166667,22.5066667 L16.5166667,16.7966667 C16.5166667,15.0966667 14.9533333,13.7166667 13.0266667,13.7166667 Z M12.2666667,18.3633333 L12.2666667,21.0033333 L9.50666667,21.0033333 L9.50666667,18.3633333 L12.2666667,18.3633333 Z M6.71666667,18.4266667 C7.13824403,18.4266667 7.48,18.7714074 7.48,19.1966667 C7.48,19.6219259 7.13824403,19.9666667 6.71666667,19.9666667 C6.29508931,19.9666667 5.95333333,19.6219259 5.95333333,19.1966667 C5.95333333,18.7714074 6.29508931,18.4266667 6.71666667,18.4266667 Z M12.2666667,15.62 L12.2666667,17.0733333 L9.50666667,17.0733333 L9.50666667,15.62 L12.2666667,15.62 Z M6.71666667,15.53 C7.13824403,15.53 7.48,15.8747407 7.48,16.3 C7.48,16.7252593 7.13824403,17.07 6.71666667,17.07 C6.29508931,17.07 5.95333333,16.7252593 5.95333333,16.3 C5.95333333,15.8747407 6.29508931,15.53 6.71666667,15.53 Z M13,3.96328649 L5,3.96328649 C4.71391094,3.96065806 4.43866617,4.07266644 4.23573645,4.27434351 C4.06179669,4.44720956 3.95340573,4.67361194 3.92655246,4.91493848 L3.91999465,5.03666667 L3.91999465,9.17666667 L14.0666719,9.17666667 L14.0666719,5.03666667 C14.0675521,4.7528846 13.9556686,4.48037393 13.7556295,4.27908458 C13.5555904,4.07779524 13.2837821,3.96421601 13,3.96328649 Z M6.91666667,4.98666667 C7.48367901,4.98666667 7.94333333,5.45079814 7.94333333,6.02333333 C7.94333333,6.59586852 7.48367901,7.06 6.91666667,7.06 C6.34965432,7.06 5.89,6.59586852 5.89,6.02333333 C5.89,5.45079814 6.34965432,4.98666667 6.91666667,4.98666667 Z M11.0833333,4.98666667 C11.6503457,4.98666667 12.11,5.45079814 12.11,6.02333333 C12.11,6.59586852 11.6503457,7.06 11.0833333,7.06 C10.516321,7.06 10.0566667,6.59586852 10.0566667,6.02333333 C10.0566667,5.45079814 10.516321,4.98666667 11.0833333,4.98666667 Z" id="Combined-Shape"></path>
            </g>
        </g>
    </g>
</svg>