<?xml version="1.0" encoding="UTF-8"?>
<svg width="24px" height="24px" viewBox="0 0 24 24" version="1.1" xmlns="http://www.w3.org/2000/svg" xmlns:xlink="http://www.w3.org/1999/xlink">
    <title>Icon/Outline/box-outline</title>
    <g id="Icon/Outline/box-outline" stroke="none" stroke-width="1" fill="none" fill-rule="evenodd">
        <g id="Group" fill="#474747" fill-rule="nonzero">
            <g id="Outline">
                <path d="M23.9902469,5.5 L23.9902469,5.5 C23.9931286,5.36740664 23.9172069,5.24566998 23.7968298,5.19 L12.1301631,0.0333333333 C12.0861565,0.0130832614 12.0385735,0.00175397063 11.9901631,0 C11.9454804,0 11.9012711,0.00915448947 11.8601631,0.0266666667 L0.193496421,5.2 C0.073119314,5.25566998 -0.00280247148,5.37740664 7.92460593e-05,5.51 L7.92460593e-05,18.51 C0.00241169803,18.6377731 0.0775121355,18.7530134 0.193496421,18.8066667 L11.8601631,23.9633333 C11.9005401,23.9842992 11.9447816,23.9967775 11.9901631,24 C12.0348457,24 12.0790551,23.9908455 12.1201631,23.9733333 L23.7868298,18.8166667 C23.902814,18.7630134 23.9779145,18.6477731 23.9801631,18.52 L23.9902469,5.5 Z M11.1668298,11.1866667 L11.1668298,21.8533333 L1.63682975,17.6666667 L1.63682975,7 L11.1668298,11.1866667 Z M21.0134964,5.75333333 L11.9901631,9.75333333 L2.96682975,5.75333333 L11.9901631,1.77 L21.0134964,5.75333333 Z M22.3468298,17.66 L12.8134964,21.8666667 L12.8134964,11.2 L22.3434964,6.96666667 L22.3468298,17.66 Z" id="Shape"></path>
            </g>
        </g>
    </g>
</svg>