<?xml version="1.0" encoding="UTF-8"?>
<svg width="24px" height="24px" viewBox="0 0 24 24" version="1.1" xmlns="http://www.w3.org/2000/svg" xmlns:xlink="http://www.w3.org/1999/xlink">
    <title>Icon/Outline/box-open-outline</title>
    <g id="Icon/Outline/box-open-outline" stroke="none" stroke-width="1" fill="none" fill-rule="evenodd">
        <g id="Group" transform="translate(0.000000, 1.000000)" fill="#474747" fill-rule="nonzero">
            <g id="Outline">
                <path d="M11.95,11.85 L11.98,11.89 C11.9546077,11.9216302 11.933327,11.9563513 11.9166667,11.9933333 C11.9011935,11.9492381 11.8774337,11.9085072 11.8466667,11.8733333 L11.8633333,11.85 C11.8920078,11.8549782 11.9213256,11.8549782 11.95,11.85 L11.95,11.85 Z M21.45,11.9433333 L21.0466667,11.43 L21.0666667,12.1166667 L21.45,11.9433333 Z M2.36333333,11.9433333 L2.61,12.0533333 L2.61,11.6266667 L2.36333333,11.9433333 Z M11.9166667,20.9233333 C11.864267,21.0792785 11.7210459,21.1866943 11.5566667,21.1933333 L11.9166667,21.3533333 L12.2766667,21.1933333 C12.2065501,21.19062 12.1385234,21.1687131 12.08,21.13 C12.0044736,21.0807677 11.9471152,21.0081917 11.9166667,20.9233333 L11.9166667,20.9233333 Z M3.42666667,17.59 L3.48,17.6133333 C3.45957133,17.5885324 3.44170268,17.5617294 3.42666667,17.5333333 L3.42666667,17.59 Z M20.4066667,17.59 L20.4066667,17.5366667 C20.3931499,17.5641434 20.3763615,17.5898857 20.3566667,17.6133333 L20.4066667,17.59 Z M11.9066667,11.7966667 L11.8633333,11.85 C11.8920078,11.8549782 11.9213256,11.8549782 11.95,11.85 L11.9066667,11.7966667 Z M11.95,11.85 L11.98,11.89 C11.9851824,11.875313 11.9930997,11.8617405 12.0033333,11.85 C11.9855951,11.8516769 11.9677382,11.8516769 11.95,11.85 Z M23.8133333,12.4866667 L21.1033333,13.6733333 L21.2066667,17.8666667 C21.2055932,18.0244528 21.113343,18.1673757 20.97,18.2333333 L12.08,22.1566667 C12.0287189,22.180177 11.9730762,22.1926682 11.9166667,22.1933333 C11.8613238,22.192703 11.8067612,22.180199 11.7566667,22.1566667 L2.86666667,18.2333333 C2.72145462,18.1690216 2.62750048,18.0254805 2.62666667,17.8666667 L2.62666667,13.6333333 L0,12.4866667 L3.57333333,7.86666667 L0.06,4.09666667 L7.9,0 L12,4.43 L16.16,0 L24,4.01666667 L20.3333333,7.97666667 L23.8133333,12.4866667 Z M14.0466667,4.36666667 L19.2733333,6.98666667 L21.5366667,4.55 L16.36,1.9 L14.0466667,4.36666667 Z M4.78666667,7.05333333 L10,4.43 L7.68666667,1.96333333 L2.51,4.63 L4.78666667,7.05333333 Z M4.19,12.7433333 L7.98,14.41 L9.93333333,11.8533333 L4.33333333,9.38333333 L4.18,9.58666667 L2.6,11.6266667 L2.35333333,11.9433333 L2.6,12.0533333 L4.19,12.7433333 Z M11.1366667,12.8033333 L8.52666667,16.2233333 L4.19333333,14.3233333 L4.19333333,17.0966667 L11.14,20.1633333 L11.1366667,12.8033333 Z M18.1633333,8.25333333 L11.92,5.28666667 L11.06,5.7 L5.81666667,8.32666667 L11.9166667,11.02 L18.1633333,8.25333333 Z M19.6466667,14.3133333 L15.2866667,16.2233333 L12.7,12.8333333 L12.7,20.1666667 L19.6466667,17.0966667 L19.6466667,14.3133333 Z M21.45,11.9433333 L21.0466667,11.43 L19.6466667,9.61666667 L19.4666667,9.38666667 L19.4033333,9.30333333 L13.8366667,11.7933333 L13.8866667,11.86 L15.8333333,14.41 L19.6466667,12.7433333 L21.0666667,12.12 L21.45,11.9433333 Z" id="Shape"></path>
            </g>
        </g>
    </g>
</svg>