<?xml version="1.0" encoding="UTF-8"?>
<svg width="24px" height="24px" viewBox="0 0 24 24" version="1.1" xmlns="http://www.w3.org/2000/svg" xmlns:xlink="http://www.w3.org/1999/xlink">
    <title>Icon/Outline/bridge-chart-outline</title>
    <g id="Icon/Outline/bridge-chart-outline" stroke="none" stroke-width="1" fill="none" fill-rule="evenodd">
        <g id="Group" fill="#474747" fill-rule="nonzero">
            <g id="Outline">
                <path d="M22.5,1.5 L22.5,22.5 L20.8333333,22.5 L20.8333333,1.5 L22.5,1.5 M24,0 L19.3333333,0 L19.3333333,24 L24,24 L24,0 Z M16.0566667,1.5 L16.0566667,7.95 L14.39,7.95 L14.39,1.5 L16.0566667,1.5 M17.5566667,0 L12.89,0 L12.89,9.45 L17.5566667,9.45 L17.5566667,0 Z M9.61,9.17333333 L9.61,11.84 L7.94333333,11.84 L7.94333333,9.17333333 L9.61,9.17333333 M11.11,7.67333333 L6.44333333,7.67333333 L6.44333333,13.3333333 L11.11,13.3333333 L11.11,7.66666667 L11.11,7.67333333 Z M3.16666667,13.53 L3.16666667,22.5 L1.5,22.5 L1.5,13.53 L3.16666667,13.53 M4.66666667,12.03 L0,12.03 L0,24 L4.66666667,24 L4.66666667,12.03 Z" id="Shape"></path>
            </g>
        </g>
    </g>
</svg>