<?xml version="1.0" encoding="UTF-8"?>
<svg width="24px" height="24px" viewBox="0 0 24 24" version="1.1" xmlns="http://www.w3.org/2000/svg" xmlns:xlink="http://www.w3.org/1999/xlink">
    <title>Icon/Outline/brightness-outline</title>
    <g id="Icon/Outline/brightness-outline" stroke="none" stroke-width="1" fill="none" fill-rule="evenodd">
        <g id="Group" transform="translate(-0.000000, -0.000000)" fill="#474747" fill-rule="nonzero">
            <g id="brightness">
                <path d="M12,16.5 C14.4852814,16.5 16.5,14.4852814 16.5,12 C16.5,9.51471866 14.4852814,7.50000003 12,7.50000003 C9.51471866,7.50000003 7.50000003,9.51471866 7.50000003,12 C7.50000003,14.4852814 9.51471866,16.5 12,16.5 Z M12,18 C8.68629154,18 6.00000003,15.3137086 6.00000003,12 C6.00000003,8.68629154 8.68629154,6.00000003 12,6.00000003 C15.3137086,6.00000003 18,8.68629154 18,12 C18,15.3137086 15.3137086,18 12,18 Z M0.750000003,11.25 L3.75000002,11.25 C4.16421358,11.25 4.5,11.5857865 4.5,12.0000001 C4.5,12.4142136 4.16421358,12.75 3.75000002,12.75 L0.750000003,12.75 C0.335786439,12.75 0,12.4142136 0,12.0000001 C0,11.5857865 0.335786439,11.25 0.750000003,11.25 Z M20.2500001,11.25 L23.2500001,11.25 C23.6642136,11.25 24.0000001,11.5857865 24.0000001,12.0000001 C24.0000001,12.4142136 23.6642136,12.75 23.2500001,12.75 L20.2500001,12.75 C19.8357866,12.75 19.5000001,12.4142136 19.5000001,12.0000001 C19.5000001,11.5857865 19.8357866,11.25 20.2500001,11.25 Z M11.25,23.2500001 L11.25,20.2500001 C11.25,19.8357866 11.5857865,19.5000001 12.0000001,19.5000001 C12.4142136,19.5000001 12.75,19.8357866 12.75,20.2500001 L12.75,23.2500001 C12.75,23.6642136 12.4142136,24.0000001 12.0000001,24.0000001 C11.5857865,24.0000001 11.25,23.6642136 11.25,23.2500001 Z M11.25,3.75000002 L11.25,0.750000003 C11.25,0.335786439 11.5857865,0 12.0000001,0 C12.4142136,0 12.75,0.335786439 12.75,0.750000003 L12.75,3.75000002 C12.75,4.16421358 12.4142136,4.5 12.0000001,4.5 C11.5857865,4.5 11.25,4.16421358 11.25,3.75000002 Z M19.4246213,20.4852815 L17.3033009,18.3639611 C17.0104077,18.0710679 17.0104077,17.5961941 17.3033009,17.3033009 C17.5961941,17.0104077 18.0710679,17.0104077 18.3639611,17.3033009 L20.4852815,19.4246213 C20.7781747,19.7175145 20.7781747,20.1923882 20.4852815,20.4852815 C20.1923882,20.7781747 19.7175145,20.7781747 19.4246213,20.4852815 Z M5.636039,6.69669917 L3.51471864,4.57537881 C3.22182542,4.2824856 3.22182542,3.80761186 3.51471864,3.51471864 C3.80761186,3.22182542 4.2824856,3.22182542 4.57537881,3.51471864 L6.69669917,5.636039 C6.98959239,5.92893221 6.98959239,6.40380595 6.69669917,6.69669917 C6.40380595,6.98959239 5.92893221,6.98959239 5.636039,6.69669917 Z M20.4852815,4.57537881 L18.3639611,6.69669917 C18.0710679,6.98959239 17.5961941,6.98959239 17.3033009,6.69669917 C17.0104077,6.40380595 17.0104077,5.92893221 17.3033009,5.636039 L19.4246213,3.51471864 C19.7175145,3.22182542 20.1923882,3.22182542 20.4852815,3.51471864 C20.7781747,3.80761186 20.7781747,4.2824856 20.4852815,4.57537881 Z M6.69669917,18.3639611 L4.57537881,20.4852815 C4.2824856,20.7781747 3.80761186,20.7781747 3.51471864,20.4852815 C3.22182542,20.1923882 3.22182542,19.7175145 3.51471864,19.4246213 L5.636039,17.3033009 C5.92893221,17.0104077 6.40380595,17.0104077 6.69669917,17.3033009 C6.98959239,17.5961941 6.98959239,18.0710679 6.69669917,18.3639611 Z" id="ic_ol_brightness_32"></path>
            </g>
        </g>
    </g>
</svg>