<?xml version="1.0" encoding="UTF-8"?>
<svg width="24px" height="24px" viewBox="0 0 24 24" version="1.1" xmlns="http://www.w3.org/2000/svg" xmlns:xlink="http://www.w3.org/1999/xlink">
    <title>Icon/Outline/bubble-plot-outline</title>
    <g id="Icon/Outline/bubble-plot-outline" stroke="none" stroke-width="1" fill="none" fill-rule="evenodd">
        <g id="Group" transform="translate(-0.000000, -0.000000)" fill="#474747" fill-rule="nonzero">
            <g id="bubble-plot">
                <path d="M1.5,24 C0.672000003,24 0,23.3280001 0,22.5 L0,1.5 C0,0.672000003 0.672000003,0 1.5,0 L22.5,0 C23.3280001,0 24,0.672000003 24,1.5 L24,22.5 C24,23.3280001 23.3280001,24 22.5,24 L1.5,24 Z M1.50000001,22.5 L22.5,22.5 L22.5,1.50000001 L1.50000001,1.50000001 L1.50000001,22.5 Z M17.1151824,12.0029412 C19.1906626,11.9213278 20.9221234,13.5484283 20.997539,15.6145876 C21.0719216,17.6807468 19.4510015,19.4225191 17.3848192,19.4979339 C17.3393632,19.498967 17.2939072,19.5000001 17.2484512,19.5000001 C15.2432212,19.5000001 13.5758121,17.9059582 13.5024626,15.8852544 C13.42808,13.8190951 15.047967,12.0773229 17.1151824,12.0029412 Z M17.3308151,17.9990277 C18.5699684,17.9536052 19.5429095,16.9088876 19.4985409,15.669804 C19.4541722,14.4296641 18.3988321,13.4620591 17.1691865,13.5011436 C15.9289769,13.5476224 14.9570921,14.59234 15.0014608,15.8314236 C15.0468858,17.0715636 16.1127899,18.0349432 17.3308151,17.9990277 Z M7.69891871,6.75208183 C10.4141856,6.67473314 12.6504628,8.76215614 12.7466575,11.4485356 C12.7942589,12.7495803 12.332128,13.9911259 11.444559,14.9450931 C10.5579817,15.8980686 9.35207794,16.4494259 8.05097118,16.4960335 C7.99146933,16.4980168 7.93196756,16.5000001 7.87345736,16.5000001 C5.26430203,16.5000001 3.09744363,14.4274519 3.0032324,11.7995796 C2.90604607,9.11419181 5.01241094,6.84926352 7.69891871,6.75208183 Z M10.3458941,13.92375 C10.9593077,13.2638417 11.2803373,12.4043804 11.2477404,11.5034277 C11.1795834,9.64422514 9.58431304,8.18412873 7.75296243,8.25229293 C5.89395389,8.31946923 4.43598546,9.88724532 4.50216695,11.7464479 C4.56933623,13.6056505 6.15077761,15.0519165 7.99694493,14.9985706 C8.89780354,14.9659704 9.73149282,14.5846462 10.3458941,13.92375 Z M16.4985393,10.5 C14.8940564,10.5 13.5600377,9.22521341 13.5020811,7.60885713 C13.4725944,6.80881159 13.7572935,6.04434623 14.3033057,5.45778172 C14.849318,4.87121721 15.5905525,4.53269731 16.3917772,4.5032166 C17.2041864,4.46560327 17.9576223,4.75939382 18.5443058,5.3042787 C19.1309894,5.85018016 19.469578,6.59228084 19.4980479,7.39334294 C19.5265178,8.19338846 19.2428354,8.95785386 18.6968232,9.54441836 C18.150811,10.1309829 17.4085597,10.4695027 16.607335,10.4979669 C16.5707308,10.5 16.5341267,10.5 16.4985393,10.5 Z M15.4012236,6.47887182 C15.1282092,6.77151041 14.9865313,7.1541121 15.0010093,7.55429276 C15.0144532,7.95447348 15.1850872,8.32570053 15.4787845,8.59869199 C15.7704136,8.87064941 16.1385694,9.00404299 16.5542959,8.99990674 C16.9545102,8.98542994 17.3247343,8.81584429 17.5987828,8.52217166 C17.8707631,8.22953306 18.0134753,7.84693136 17.9989972,7.44571663 C17.9845192,7.04553595 17.8149193,6.67534296 17.5222561,6.40131742 C17.2295929,6.12936 16.874881,5.98562585 16.4457106,6.00113673 C16.0454963,6.01561356 15.6742381,6.18519917 15.4012236,6.47887182 Z" id="ic_ol_Bubble-Plot"></path>
            </g>
        </g>
    </g>
</svg>