<svg width="24" height="24" viewBox="0 0 24 24" fill="none" xmlns="http://www.w3.org/2000/svg">
<path fill-rule="evenodd" clip-rule="evenodd" d="M15.1232 10.62C15.1232 9.97667 14.9365 9.43667 14.5632 9.02333C14.2065 8.62333 13.5399 8.29333 12.5832 8.04V5.94667C12.8732 6.11333 13.0599 6.37333 13.1365 6.75L13.1499 6.82L14.8765 6.60667L14.8632 6.53C14.7532 5.93333 14.4932 5.45 14.0932 5.09C13.7132 4.75 13.2032 4.54 12.5799 4.45333V3.33H11.4132V4.46C10.7499 4.54667 10.2032 4.79667 9.7932 5.21333C9.3532 5.66 9.12986 6.21667 9.12986 6.87C9.12986 7.52333 9.32653 8.07 9.71653 8.52333C10.0832 8.95 10.6565 9.27667 11.4165 9.5V11.7367C11.2765 11.6433 11.1432 11.5267 11.0199 11.3767C10.8465 11.16 10.7265 10.9 10.6599 10.6033L10.6465 10.5367L8.86986 10.7167L8.8832 10.7933C9.00986 11.5733 9.30653 12.1833 9.7632 12.6133C10.1899 13.0167 10.7499 13.2667 11.4165 13.3633V14.45H12.5832V13.34C13.3565 13.2167 13.9765 12.92 14.4199 12.4467C14.8832 11.9533 15.1199 11.3367 15.1199 10.6167L15.1232 10.62ZM11.0299 7.33667C10.9065 7.17333 10.8465 6.99333 10.8465 6.80333C10.8465 6.59667 10.9132 6.4 11.0499 6.23C11.1465 6.10667 11.2732 6.01 11.4199 5.93667V7.64667C11.2565 7.56 11.1232 7.45667 11.0332 7.33667H11.0299ZM13.1665 11.5433C13.0132 11.7133 12.8165 11.83 12.5832 11.8933V9.83333C12.8665 9.92667 13.0799 10.05 13.2132 10.2C13.3665 10.3767 13.4399 10.5833 13.4399 10.8267C13.4399 11.1 13.3465 11.34 13.1665 11.54V11.5433ZM20.1765 22.4C20.1765 22.4667 20.1332 22.5 20.1132 22.5H3.8832C3.8632 22.5 3.81986 22.4667 3.81986 22.4V1.6C3.81986 1.53333 3.8632 1.5 3.8832 1.5H20.1165C20.1365 1.5 20.1799 1.53333 20.1799 1.6V22.4H20.1765ZM20.1132 0H3.8832C3.0132 0.0133333 2.31986 0.73 2.3332 1.6V22.4C2.31986 23.27 3.0132 23.9867 3.8832 24H20.1165C20.9865 23.9867 21.6799 23.27 21.6665 22.4V1.6C21.6799 0.73 20.9865 0.0133333 20.1165 0L20.1132 0ZM17.9965 20.8267H5.99986V19.3267H17.9999V20.8267H17.9965ZM17.9965 17.66H5.99986V16.16H17.9999V17.66H17.9965Z" fill="black"/>
</svg>
