<?xml version="1.0" encoding="UTF-8"?>
<svg width="24px" height="24px" viewBox="0 0 24 24" version="1.1" xmlns="http://www.w3.org/2000/svg" xmlns:xlink="http://www.w3.org/1999/xlink">
    <title>Icon/Outline/building-outline</title>
    <g id="Icon/Outline/building-outline" stroke="none" stroke-width="1" fill="none" fill-rule="evenodd">
        <g id="Group" transform="translate(-0.000000, -0.000000)" fill="#474747" fill-rule="nonzero">
            <g id="building">
                <path d="M21,22.5 L24,22.5 L24,24 L0,24 L0,22.5 L3,22.5 L3,1.5 C3,0.672000003 3.67200002,0 4.5,0 L15,0 C15.8280001,0 16.5,0.672000003 16.5,1.5 L16.5,4.5 L19.5,4.5 C20.3280001,4.5 21,5.17200002 21,6 L21,22.5 Z M19.5,22.5 L19.5,6.00000001 L16.5,6.00000001 L15,6.00000001 L15,4.50000001 L15,1.50000001 L4.50000002,1.50000001 L4.50000002,22.5 L19.5,22.5 Z M6.75000003,17.2500001 L6.75000003,15.7500001 L8.25000003,15.7500001 L8.25000003,17.2500001 L6.75000003,17.2500001 Z M6.75000003,11.25 L6.75000003,9.75000004 L8.25000003,9.75000004 L8.25000003,11.25 L6.75000003,11.25 Z M6.75000003,5.25000002 L6.75000003,3.75000002 L8.25000003,3.75000002 L8.25000003,5.25000002 L6.75000003,5.25000002 Z M11.25,18.7500001 L11.25,15.7500001 L12.75,15.7500001 L12.75,18.7500001 L11.25,18.7500001 Z M11.25,11.25 L11.25,9.75000004 L12.75,9.75000004 L12.75,11.25 L11.25,11.25 Z M11.25,5.25000002 L11.25,3.75000002 L12.75,3.75000002 L12.75,5.25000002 L11.25,5.25000002 Z M15.7500001,17.2500001 L15.7500001,15.7500001 L17.2500001,15.7500001 L17.2500001,17.2500001 L15.7500001,17.2500001 Z M15.7500001,11.25 L15.7500001,9.75000004 L17.2500001,9.75000004 L17.2500001,11.25 L15.7500001,11.25 Z" id="Combined-Shape"></path>
            </g>
        </g>
    </g>
</svg>