<?xml version="1.0" encoding="UTF-8"?>
<svg width="24px" height="24px" viewBox="0 0 24 24" version="1.1" xmlns="http://www.w3.org/2000/svg" xmlns:xlink="http://www.w3.org/1999/xlink">
    <title>Icon/Outline/bus-public-transportation-outline</title>
    <g id="Icon/Outline/bus-public-transportation-outline" stroke="none" stroke-width="1" fill="none" fill-rule="evenodd">
        <g id="Group" transform="translate(1.000000, 0.000000)" fill="#474747" fill-rule="nonzero">
            <g id="Outline">
                <path d="M11.2266667,0 C16.1266667,0 21.4,0.98 21.4,3.13333333 L21.4,5.11 L22.54,5.11 L22.54,11.31 L21.4,11.31 L21.4,17.8766667 C21.4014182,18.7391039 21.0553776,19.5657564 20.44,20.17 L20.44,21.6366667 C20.4400013,22.940599 19.383931,23.9981609 18.08,24 L17.81,24 C16.5055283,23.998164 15.4485027,22.9411384 15.4466667,21.6366667 L15.4466667,21.0966667 L7.00666667,21.0966667 L7.00666667,21.6366667 C7.00483067,22.9411384 5.94780504,23.998164 4.64333333,24 L4.37333333,24 C3.06940231,23.9981609 2.01333204,22.940599 2.01333333,21.6366667 L2.01333333,20.17 C1.39795572,19.5657564 1.05191512,18.7391039 1.05333333,17.8766667 L1.05333333,11.31 L0,11.31 L0,5.11 L1.05333333,5.11 L1.05333333,3.13333333 C1.05333333,0.98 6.32666667,0 11.2266667,0 Z M11.2266667,1.15666667 C5.27666667,1.15666667 2.22666667,2.54333333 2.22666667,3.13333333 L2.22666667,6.26666667 L1.15666667,6.26666667 L1.15666667,10.1566667 L1.61666667,10.1566667 L1.71,10.1766667 L2.21,10.2466667 L2.21,17.8766667 C2.20988664,18.4930465 2.48490441,19.0773064 2.96,19.47 L3.16666667,19.6433333 L3.16666667,21.6433333 C3.16849794,22.3089969 3.70766975,22.8481687 4.37333333,22.85 L4.64333333,22.85 C5.30975693,22.85 5.85,22.3097569 5.85,21.6433333 L5.85,19.94 L16.6033333,19.94 L16.6033333,21.6366667 C16.6033333,22.3030903 17.1435764,22.8433333 17.81,22.8433333 L18.08,22.8433333 C18.7399058,22.8342177 19.270063,22.2966354 19.27,21.6366667 L19.27,19.6366667 L19.48,19.4633333 C19.9550956,19.0706398 20.2301134,18.4863798 20.23,17.87 L20.23,10.1566667 L21.37,10.1566667 L21.37,6.26666667 L20.2433333,6.26666667 L20.2433333,3.13333333 C20.2433333,2.54333333 17.1766667,1.15666667 11.2266667,1.15666667 Z M18.0345705,16.2771853 C18.6888025,16.5489066 19.1146814,17.1882529 19.1133365,17.8966667 C19.1114991,18.8605632 18.3305632,19.6414991 17.3666667,19.6433365 C16.6582529,19.6446814 16.0189066,19.2188025 15.7471853,18.5645705 C15.4754639,17.9103386 15.6249745,17.1568247 16.1258996,16.6558996 C16.6268247,16.1549745 17.3803386,16.0054639 18.0345705,16.2771853 Z M5.7586756,16.2775028 C6.41249786,16.5494201 6.83801545,17.188556 6.83666986,17.8966667 C6.83482819,18.861863 6.05186473,19.6433333 5.08666667,19.6433333 C4.37855468,19.6433333 3.74023131,19.2165967 3.46956103,18.5622572 C3.19889075,17.9079177 3.34922529,17.1549506 3.85041317,16.6547174 C4.35160105,16.1544842 5.10485333,16.0055855 5.7586756,16.2775028 Z M5.08666667,17.3033333 L5.08666667,17.31 C4.75897772,17.31 4.49333333,17.5756444 4.49333333,17.9033333 C4.49333333,18.2310223 4.75897772,18.4966667 5.08666667,18.4966667 C5.41435562,18.4966667 5.68,18.2310223 5.68,17.9033333 C5.68178117,17.7448196 5.62005664,17.5921846 5.50859142,17.479467 C5.39712619,17.3667494 5.24519036,17.3033333 5.08666667,17.3033333 Z M17.3666667,17.3033333 L17.3666667,17.31 C17.126387,17.3086501 16.9090152,17.4523521 16.8161273,17.6739553 C16.7232394,17.8955585 16.7731764,18.1513065 16.9426031,18.3216905 C17.1120299,18.4920745 17.3674926,18.5434515 17.5896156,18.4518135 C17.8117385,18.3601755 17.9566629,18.1436168 17.9566667,17.9033333 C17.9584438,17.7453958 17.8971749,17.5932681 17.7864316,17.4806478 C17.6756883,17.3680275 17.5246117,17.3042107 17.3666667,17.3033333 Z M17.7166667,5.11 C18.8462484,5.11183523 19.7614981,6.02708493 19.7633333,7.15666667 L19.7633333,13.4333333 C19.7614981,14.5629151 18.8462484,15.4781648 17.7166667,15.48 L17.7166667,15.4866667 L4.73666667,15.4866667 C3.60632388,15.4866667 2.69,14.5703428 2.69,13.44 L2.69,7.15666667 C2.69,6.02632388 3.60632388,5.11 4.73666667,5.11 L17.7166667,5.11 Z M17.7133333,6.26666667 L4.73666667,6.26666667 C4.24589236,6.26849452 3.84849452,6.66589236 3.84661041,7.15666667 L3.84661041,13.4333333 C3.84399492,13.6711039 3.93658171,13.9000564 4.10377954,14.0691328 C4.27097738,14.2382093 4.49888112,14.3333333 4.73666667,14.3333333 L17.7166667,14.3333333 C17.9538739,14.3324599 18.1809178,14.2369295 18.3473934,14.0679506 C18.513869,13.8989716 18.6060002,13.6705271 18.6033897,13.4333333 L18.6033897,7.15666667 C18.6015055,6.66589236 18.2041076,6.26849452 17.7133333,6.26666667 Z M14.3466667,2.40666667 L14.3466667,4.04 L7.79333333,4.04 L7.79333333,2.40666667 L14.3466667,2.40666667 Z" id="Combined-Shape"></path>
            </g>
        </g>
    </g>
</svg>