<?xml version="1.0" encoding="UTF-8"?>
<svg width="24px" height="24px" viewBox="0 0 24 24" version="1.1" xmlns="http://www.w3.org/2000/svg" xmlns:xlink="http://www.w3.org/1999/xlink">
    <title>Icon/Outline/business-services-printer-outline</title>
    <g id="Icon/Outline/business-services-printer-outline" stroke="none" stroke-width="1" fill="none" fill-rule="evenodd">
        <g id="Group" transform="translate(3.000000, 0.000000)" fill="#474747" fill-rule="nonzero">
            <g id="Outline">
                <path d="M8.02333333,0 L8.69,0.803333333 L1.76,6.60333333 L15.2633333,6.60333333 L15.2633333,11.83 L18.0466667,9.49666667 L18.7133333,10.3 L15.26,13.1933333 L15.26,16.45 L18.0433333,14.1166667 L18.6966667,14.92 L15.2433333,17.8133333 L15.2433333,20.7766667 C15.2418042,21.3426321 14.8073685,21.8132708 14.2433333,21.86 L14.2433333,21.86 L14.2433333,24 L10.7066667,24 L10.7066667,21.8666667 L4.62666667,21.8666667 L4.62666667,24 L1.09,24 L1.09,21.8666667 C0.488009623,21.8666667 0,21.378657 0,20.7766667 L0,20.7766667 L0,6.60333333 L0.13,6.60333333 L8.02333333,0 Z M3.9,21.8666667 L1.81666667,21.8666667 L1.81666667,23.2733333 L3.9,23.2733333 L3.9,21.8666667 Z M13.5166667,21.8666667 L11.4333333,21.8666667 L11.4333333,23.2733333 L13.5166667,23.2733333 L13.5166667,21.8666667 Z M14.17,10.9633333 L1.09,10.9633333 L1.09,20.7833333 L14.17,20.7833333 L14.17,10.9633333 Z M14.17,7.69333333 L1.09,7.69333333 L1.09,9.88 L14.17,9.88 L14.17,7.69333333 Z M13.02,8.28666667 L13.02,9.37666667 L11.93,9.37666667 L11.93,8.28666667 L13.02,8.28666667 Z" id="Combined-Shape"></path>
            </g>
        </g>
    </g>
</svg>