<?xml version="1.0" encoding="UTF-8"?>
<svg width="24px" height="24px" viewBox="0 0 24 24" version="1.1" xmlns="http://www.w3.org/2000/svg" xmlns:xlink="http://www.w3.org/1999/xlink">
    <title>Icon/Outline/calculator-outline</title>
    <g id="Icon/Outline/calculator-outline" stroke="none" stroke-width="1" fill="none" fill-rule="evenodd">
        <g id="Group" fill="#474747" fill-rule="nonzero">
            <g id="Outline">
                <path d="M24,0 L24,20.4466643 C24.0011827,21.0672246 23.6192925,21.6241477 23.0399974,21.8466642 C19.5610525,23.2010754 15.8632362,23.906067 12.1299986,23.9266639 C8.32707564,23.8940519 4.55958318,23.1922309 1,21.8533308 C0.448606103,21.6593637 0.0649705608,21.1644595 0.00748495052,20.5914224 L0,20.4466643 L0,0 L24,0 Z M22.5033308,1.4966665 L1.4966665,1.4966665 L1.4966665,20.4466643 C4.89409885,21.7275647 8.48936941,22.4044277 12.1199986,22.4466641 C15.4648969,22.4188983 18.7786037,21.8168898 21.9169759,20.6684029 L22.5033308,20.4466643 L22.5033308,1.4966665 Z M14.4999985,17.299998 C15.052283,17.299998 15.4999985,17.7477132 15.4999985,18.299998 C15.4999985,18.8522826 15.052283,19.299998 14.4999985,19.299998 C13.9477137,19.299998 13.4999985,18.8522826 13.4999985,18.299998 C13.4999985,17.7477132 13.9477137,17.299998 14.4999985,17.299998 Z M4.4999996,17.299998 C5.05228417,17.299998 5.4999996,17.7477132 5.4999996,18.299998 C5.4999996,18.8522826 5.05228417,19.299998 4.4999996,19.299998 C3.9477148,19.299998 3.4999996,18.8522826 3.4999996,18.299998 C3.4999996,17.7477132 3.9477148,17.299998 4.4999996,17.299998 Z M9.49999903,17.299998 C10.0522836,17.299998 10.499999,17.7477132 10.499999,18.299998 C10.499999,18.8522826 10.0522836,19.299998 9.49999903,19.299998 C8.94771422,19.299998 8.49999903,18.8522826 8.49999903,18.299998 C8.49999903,17.7477132 8.94771422,17.299998 9.49999903,17.299998 Z M19.4999979,17.299998 C20.0522825,17.299998 20.4999979,17.7477132 20.4999979,18.299998 C20.4999979,18.8522826 20.0522825,19.299998 19.4999979,19.299998 C18.9477131,19.299998 18.4999979,18.8522826 18.4999979,18.299998 C18.4999979,17.7477132 18.9477131,17.299998 19.4999979,17.299998 Z M14.4999985,12.6266652 C15.052283,12.6266652 15.4999985,13.0743804 15.4999985,13.6266652 C15.4999985,14.1789498 15.052283,14.6266652 14.4999985,14.6266652 C13.9477137,14.6266652 13.4999985,14.1789498 13.4999985,13.6266652 C13.4999985,13.0743804 13.9477137,12.6266652 14.4999985,12.6266652 Z M4.4999996,12.6266652 C5.05228417,12.6266652 5.4999996,13.0743804 5.4999996,13.6266652 C5.4999996,14.1789498 5.05228417,14.6266652 4.4999996,14.6266652 C3.9477148,14.6266652 3.4999996,14.1789498 3.4999996,13.6266652 C3.4999996,13.0743804 3.9477148,12.6266652 4.4999996,12.6266652 Z M9.49999903,12.6266652 C10.0522836,12.6266652 10.499999,13.0743804 10.499999,13.6266652 C10.499999,14.1789498 10.0522836,14.6266652 9.49999903,14.6266652 C8.94771422,14.6266652 8.49999903,14.1789498 8.49999903,13.6266652 C8.49999903,13.0743804 8.94771422,12.6266652 9.49999903,12.6266652 Z M19.4999979,12.6266652 C20.0522825,12.6266652 20.4999979,13.0743804 20.4999979,13.6266652 C20.4999979,14.1789498 20.0522825,14.6266652 19.4999979,14.6266652 C18.9477131,14.6266652 18.4999979,14.1789498 18.4999979,13.6266652 C18.4999979,13.0743804 18.9477131,12.6266652 19.4999979,12.6266652 Z M20.2499977,2.86666634 L20.2499977,9.19999895 L3.60333292,9.19999895 L3.60333292,2.86666634 L20.2499977,2.86666634 Z M18.7499979,4.36666617 L5.10333275,4.36666617 L5.10333275,7.69999912 L18.7499979,7.69999912 L18.7499979,4.36666617 Z" id="Combined-Shape"></path>
            </g>
        </g>
    </g>
</svg>