<svg width="24" height="24" viewBox="0 0 24 24" fill="none" xmlns="http://www.w3.org/2000/svg">
<path d="M18.75 3V0H17.25V3H6.75V0H5.25V3H1.5V22.5C1.5 23.3267 2.17333 24 3 24H21C21.8267 24 22.5 23.3267 22.5 22.5V3H18.75ZM21 22.5H3V9H21V22.5ZM21 7.5H3V4.5H21V7.5ZM12.64 15.36H14.39V16.6433H11.36V13.6133H12.6433V15.3633L12.64 15.36ZM12 11.2967C9.40667 11.2967 7.29667 13.4067 7.29667 16C7.29667 18.5933 9.40667 20.7033 12 20.7033C14.5933 20.7033 16.7033 18.5933 16.7033 16C16.7033 13.4067 14.5933 11.2967 12 11.2967ZM12 19.4233C10.1133 19.4233 8.58 17.89 8.58 16.0033C8.58 14.1167 10.1133 12.5833 12 12.5833C13.8867 12.5833 15.42 14.1167 15.42 16.0033C15.42 17.89 13.8867 19.4233 12 19.4233Z" fill="black"/>
</svg>
