<?xml version="1.0" encoding="UTF-8"?>
<svg width="24px" height="24px" viewBox="0 0 24 24" version="1.1" xmlns="http://www.w3.org/2000/svg" xmlns:xlink="http://www.w3.org/1999/xlink">
    <title>Icon/Outline/calendar-accepted-outline</title>
    <g id="Icon/Outline/calendar-accepted-outline" stroke="none" stroke-width="1" fill="none" fill-rule="evenodd">
        <g id="Group" transform="translate(-0.000000, -0.000000)" fill="#474747" fill-rule="nonzero">
            <g id="calendar-accepted-outline" transform="translate(1.500000, 0.000000)">
                <path d="M21,7.5 L21,9 L21,22.5 C21,23.3280001 20.3280001,24 19.5,24 L1.5,24 C0.672000003,24 0,23.3280001 0,22.5 L0,3 L3.75000002,3 L3.75000002,0 L5.25000002,0 L5.25000002,3 L15.7500001,3 L15.7500001,0 L17.2500001,0 L17.2500001,3 L21,3 L21,7.5 Z M1.50000001,7.50000002 L19.5,7.50000002 L19.5,4.50000002 L1.50000001,4.50000002 L1.50000001,7.50000002 Z M1.50000001,22.5 L19.5,22.5 L19.5,9.00000004 L1.50000001,9.00000004 L1.50000001,22.5 Z M5.67439477,15.2422036 L8.32970868,17.8975175 L14.9772262,11.25 L16.1516209,12.4243948 L8.32970868,20.25 L4.50000002,16.4165983 L5.67439477,15.2422036 Z" id="Icon/Calender-accepted/Outline"></path>
            </g>
        </g>
    </g>
</svg>