<?xml version="1.0" encoding="UTF-8"?>
<svg width="24px" height="24px" viewBox="0 0 24 24" version="1.1" xmlns="http://www.w3.org/2000/svg" xmlns:xlink="http://www.w3.org/1999/xlink">
    <title>Icon/Outline/call-outline</title>
    <g id="Icon/Outline/call-outline" stroke="none" stroke-width="1" fill="none" fill-rule="evenodd">
        <g id="Group" transform="translate(-0.000000, -0.000000)" fill="#474747" fill-rule="nonzero">
            <g id="call-outline">
                <path d="M18.6597942,23.9961055 C17.3568332,23.9513147 16.0753195,23.6513137 14.8878679,23.1131016 C12.2221957,22.0035155 9.32327711,19.9442837 6.69425788,17.3152645 C4.06523861,14.6862452 1.99934262,11.7739983 0.879760272,9.12165439 C-0.363109416,6.15276189 -0.286471339,3.76032104 1.09301405,2.38083564 L2.73906667,0.734783026 C3.28642318,0.183857539 4.05955658,-0.0800187889 4.82952668,0.0212930663 C5.59949678,0.122604921 6.27805585,0.577493415 6.66426907,1.25125702 L9.84974742,6.8025195 C10.4086434,7.77725058 10.2462516,9.00542344 9.45322864,9.80140077 L8.36030306,10.8943264 C8.34285484,10.9143879 8.34285484,10.9442387 8.36030306,10.9643003 C9.05456749,11.8239546 9.79423354,12.6459295 10.5761431,13.4267151 C11.3558179,14.2075188 12.1766839,14.9460757 13.0352257,15.639223 C13.0563674,15.6571653 13.08739,15.6571653 13.1085317,15.639223 L14.2014574,14.5462974 C14.9966255,13.752173 16.2248818,13.5884055 17.2003387,14.1464466 L22.7516011,17.3419212 C23.4217406,17.7286849 23.8739088,18.4050977 23.9750999,19.1721918 C24.0762911,19.939286 23.814996,20.7098152 23.2680751,21.2571273 L21.6220225,22.9031799 C20.821197,23.6500976 19.7538339,24.0439054 18.6597942,23.9961055 L18.6597942,23.9961055 Z M4.49507826,1.50448341 C4.23333016,1.50316893 3.9821639,1.60772138 3.79867139,1.79438775 L2.15261877,3.44044036 C1.24295812,4.34676893 1.2829432,6.20607533 2.26257776,8.54187064 C3.29885785,11.0209458 5.2414665,13.7599241 7.73720216,16.2556597 C10.2329378,18.7513954 12.9752482,20.6973361 15.4543233,21.7336162 C17.7867865,22.7065866 19.646093,22.7499038 20.5557536,21.8402431 L22.2018062,20.1941905 C22.4189255,19.9759865 22.523406,19.6699199 22.4850339,19.3645 L22.4850339,19.3645 C22.4414703,19.0592727 22.2594943,18.7912268 21.9918845,18.6381043 L16.4472862,15.4426297 C16.0592362,15.2229146 15.5725849,15.2868046 15.2543979,15.5992379 L14.1614723,16.6921636 C13.6030551,17.2545019 12.7103118,17.3048176 12.0922442,16.8087867 C11.1900772,16.078372 10.328031,15.2997495 9.50987419,14.4763235 C8.68554769,13.6590258 7.90687976,12.7969292 7.17741098,11.8939535 C6.68917596,11.2759686 6.74221705,10.3900391 7.30069832,9.83472169 L8.39362391,8.74179604 C8.70605726,8.42360913 8.76994729,7.93695776 8.55023216,7.54890776 L5.35475757,1.99764526 C5.20163501,1.73003551 4.9335892,1.54805945 4.62836188,1.50448341 L4.49507826,1.50448341 Z" id="Shape"></path>
            </g>
        </g>
    </g>
</svg>