<?xml version="1.0" encoding="UTF-8"?>
<svg width="24px" height="24px" viewBox="0 0 24 24" version="1.1" xmlns="http://www.w3.org/2000/svg" xmlns:xlink="http://www.w3.org/1999/xlink">
    <title>Icon/Outline/camera-mic-speakers-outline</title>
    <g id="Icon/Outline/camera-mic-speakers-outline" stroke="none" stroke-width="1" fill="none" fill-rule="evenodd">
        <g id="Group" fill="#474747" fill-rule="nonzero">
            <g id="Outline">
                <path d="M15.593181,18.8264828 C15.593181,20.3864675 14.2053391,21.6929934 12.7244248,22.0227753 L12.5532107,22.0564512 L12.5532107,22.3364485 L13.443202,22.3364485 L13.443202,23.4464376 L10.5498969,23.4464376 L10.5498969,22.3364485 L11.4432216,22.3364485 L11.4432216,22.0697844 C9.95385339,21.8162067 8.51084965,20.5580662 8.40600351,19.0186482 L8.39991795,18.839816 L9.51324041,18.839816 C9.51324041,20.036471 10.8032278,21.0131281 11.9998828,21.0131281 C13.1466771,21.0131281 14.3791882,20.1161635 14.4799065,18.9764623 L14.4865252,18.8264828 L15.593181,18.8264828 Z M13.0098407,13.5631131 C13.583297,13.9047672 13.9414129,14.5110924 13.9697232,15.1706428 L13.9698635,18.4231534 C13.9680248,19.5098417 13.0865727,20.3898008 11.9998828,20.3898008 C11.4774112,20.3889175 10.9766896,20.180519 10.6078715,19.8104507 C10.2800332,19.481501 10.0802859,19.0487643 10.0405665,18.5897131 L10.0332353,18.4164868 L10.0333757,15.1706428 C10.061686,14.5110924 10.4198019,13.9047672 10.9932582,13.5631131 C11.6145025,13.1929877 12.3885964,13.1929877 13.0098407,13.5631131 Z M12.8598744,16.5265052 L11.1432245,16.5265052 L11.1432245,18.4231534 C11.1432245,18.8598789 11.4700269,19.2202756 11.8924254,19.2731371 L11.9998828,19.2798117 C12.2276597,19.2740314 12.4464114,19.184168 12.6077876,19.0234172 C12.7422678,18.8894583 12.8276746,18.7154644 12.852408,18.5293711 L12.8598744,18.4164868 L12.8598744,16.5265052 Z M12.5532107,0 L12.5532107,10.8232276 L22.6197791,17.4064966 L22.009785,18.3364876 L11.9965495,11.7865515 L1.98331396,18.3364876 L1.37665322,17.4064966 L11.4432216,10.8232276 L11.4432216,0 L12.5532107,0 Z M11.9998828,14.3898594 C11.1998906,14.3898594 11.1941698,14.9213421 11.157359,15.3340228 L11.1498911,15.4098495 L12.8498745,15.4098495 C12.8032083,14.983187 12.8498745,14.3898594 11.9998828,14.3898594 Z M18.4164868,3.38996689 C18.5822265,3.27044489 18.8003471,3.25199594 18.9838073,3.34198212 C19.1672675,3.4319683 19.2862001,3.61573995 19.2931458,3.81996269 L19.2931458,3.81996269 L19.2931458,11.3232227 C19.2935154,11.5326562 19.1763041,11.7245737 18.9898145,11.8198845 C18.9121084,11.8582003 18.8264495,11.8776163 18.739817,11.8765923 C18.6202001,11.8772875 18.5034539,11.8399287 18.4064869,11.769885 L18.4064869,11.769885 L15.4065162,9.53990682 L14.4265257,9.53990682 C14.1273233,9.54004257 13.8822099,9.30231214 13.8731978,9.00324539 L13.8731978,9.00324539 L13.8731978,6.17327303 C13.8731978,5.86767846 14.1209312,5.6199451 14.4265257,5.6199451 L14.4265257,5.6199451 L15.4165161,5.6199451 Z M22.4831137,3.8832954 C24.446143,5.84976834 24.5038792,8.9985718 22.6563222,11.0345936 L22.4831137,11.2165571 L21.699788,10.4332314 C22.726201,9.40321185 23.1274011,7.9050596 22.7531111,6.49993651 C22.5902509,5.88536747 22.2849543,5.31902454 21.8633083,4.84614715 L21.699788,4.67328769 L22.4831137,3.8832954 Z M7.11326385,4.19662567 C7.2605949,4.19662567 7.40184354,4.25537723 7.50570901,4.35986839 C7.60957448,4.46435956 7.66747932,4.60595852 7.66659178,4.7532869 L7.66659178,4.7532869 L7.66659178,5.41994706 L9.29657586,4.84328602 C9.46951347,4.74651886 9.68029948,4.74651886 9.85323709,4.84328602 C10.0236883,4.94326363 10.1288286,5.1256757 10.1299011,5.32328134 L10.1299011,5.32328134 L10.1299011,9.81990408 C10.1288286,10.0175097 10.0236883,10.1999218 9.85323709,10.2998994 C9.68064492,10.3979824 9.46916802,10.3979824 9.29657586,10.2998994 L9.29657586,10.2998994 L7.66659178,9.72323836 L7.66659178,10.3898985 C7.66660252,10.5378126 7.60739139,10.6795735 7.50217593,10.7835364 C7.39696046,10.8874993 7.25450061,10.9450085 7.10659725,10.9432667 L7.10659725,10.9432667 L0.553327928,10.9432667 C0.247733352,10.9432667 0,10.6954931 0,10.3898985 L0,10.3898985 L0,4.7466203 C0.00183311778,4.44232826 0.249030368,4.19662567 0.553327928,4.19662567 L0.553327928,4.19662567 Z M18.1964889,4.92995184 L15.9231778,6.61326874 C15.8267274,6.68470992 15.7098749,6.72327123 15.5898477,6.72326766 L15.5898477,6.72326766 L14.9798537,6.72326766 L14.9798537,8.44658416 L15.5898477,8.44658416 C15.7098749,8.44658059 15.8267274,8.48514191 15.9231778,8.55658309 L15.9231778,8.55658309 L18.1964889,10.2232335 L18.1964889,4.92995184 Z M21.056461,4.99328456 C21.7397791,5.67600208 22.1237137,6.60232628 22.1237137,7.56825941 C22.1237137,8.45988999 21.7965741,9.31777095 21.2087968,9.98145253 L21.056461,10.1432343 L20.2731353,9.35990857 C20.5902424,9.04530652 20.8199954,8.6535777 20.9397955,8.22325301 C21.1518657,7.4065546 20.9449804,6.54205777 20.3959855,5.91140218 L20.2731353,5.77994354 L21.056461,4.99328456 Z M6.54993602,5.29994823 L1.10998916,5.29994823 L1.10998916,9.84323719 L6.54993602,9.84323719 L6.54993602,5.29994823 Z M8.99991209,6.28327196 L7.66659178,6.69993456 L7.66659178,8.44325086 L8.99991209,8.85658016 L8.99991209,6.28327196 Z" id="Combined-Shape"></path>
            </g>
        </g>
    </g>
</svg>