<?xml version="1.0" encoding="UTF-8"?>
<svg width="24px" height="24px" viewBox="0 0 24 24" version="1.1" xmlns="http://www.w3.org/2000/svg" xmlns:xlink="http://www.w3.org/1999/xlink">
    <title>Icon/Outline/camera-outline</title>
    <g id="Icon/Outline/camera-outline" stroke="none" stroke-width="1" fill="none" fill-rule="evenodd">
        <g id="Group" transform="translate(-0.000000, -0.000000)" fill="#474747" fill-rule="nonzero">
            <g id="camera" transform="translate(0.000000, 2.250000)">
                <path d="M7.90500003,0 L16.0950001,0 C16.4205001,0 16.7250001,0.157500001 16.9110001,0.423000002 L19.5,3.75000002 L22.5,3.75000002 C23.3280001,3.75000002 24,4.42050002 24,5.25000002 L24,18 C24,18.8295001 23.3280001,19.5 22.5,19.5 L1.5,19.5 C0.672000003,19.5 0,18.8295001 0,18 L0,5.25000002 C0,4.42050002 0.672000003,3.75000002 1.5,3.75000002 L4.5,3.75000002 L7.08900003,0.423000002 C7.27650003,0.157500001 7.57950003,0 7.90500003,0 Z M18.7500001,5.25000002 L15.7500001,1.50000001 L8.25000003,1.50000001 L5.25000002,5.25000002 L1.50000001,5.25000002 L1.50000001,18 L22.5,18 L22.5,5.25000002 L18.7500001,5.25000002 Z M12.0000001,14.2503 C9.93150004,14.2503 8.25000003,12.5673001 8.25000003,10.5003 C8.25000003,8.43330004 9.93150004,6.75030003 12.0000001,6.75030003 C14.0685001,6.75030003 15.75,8.43330004 15.75,10.5003 C15.75,12.5673001 14.0685001,14.2503 12.0000001,14.2503 Z M12.0000001,8.25030003 C10.7595,8.25030003 9.75000004,9.25980004 9.75000004,10.5003 C9.75000004,11.7408 10.7595,12.7503 12.0000001,12.7503 C13.2405001,12.7503 14.25,11.7408 14.25,10.5003 C14.25,9.25980004 13.2405001,8.25030003 12.0000001,8.25030003 Z" id="Combined-Shape"></path>
            </g>
        </g>
    </g>
</svg>