<?xml version="1.0" encoding="UTF-8"?>
<svg width="24px" height="24px" viewBox="0 0 24 24" version="1.1" xmlns="http://www.w3.org/2000/svg" xmlns:xlink="http://www.w3.org/1999/xlink">
    <title>Icon/Outline/carers-space-outline</title>
    <g id="Icon/Outline/carers-space-outline" stroke="none" stroke-width="1" fill="none" fill-rule="evenodd">
        <g id="Group" transform="translate(5.000000, 0.000000)" fill="#474747" fill-rule="nonzero">
            <g id="Outline">
                <path d="M11.3377715,9.86311161 L11.3377715,8.54896907 C11.3377715,8.52268622 11.3377715,8.49640337 11.3377715,8.45369374 L11.3377715,7.063988 L10.5230031,7.063988 C10.5088632,5.85033097 9.77391826,4.76147587 8.65363531,4.29443259 C8.46430271,4.22043579 8.32317928,4.05845064 8.27581933,3.86076555 L8.22653899,3.61764918 C8.20301909,3.4610387 8.23685299,3.30120266 8.32181432,3.16755536 C8.60137469,2.70066955 8.68743786,2.14302736 8.56164533,1.61358181 C8.39404833,0.905074755 7.87080039,0.33428728 7.17950176,0.105863991 C6.48820313,-0.122559297 5.72788996,0.0241057583 5.17115758,0.493275291 C4.38166913,1.1458926 4.18385475,2.27566344 4.70463697,3.15769929 C4.79426849,3.2931578 4.83055102,3.45701436 4.80648302,3.61764918 L4.75720268,3.86076555 C4.70984272,4.05845064 4.5687193,4.22043579 4.3793867,4.29443259 C3.25910375,4.76147587 2.52415884,5.85033097 2.51001893,7.063988 L1.68867984,7.063988 L1.68867984,9.87296768 C0.682732339,10.1867917 -0.00174243488,11.1189558 3.33171485e-06,12.1727171 L3.33171485e-06,24 L13.0265001,24 L13.0265001,12.1727171 C13.0336017,11.1149737 12.3478656,10.1770895 11.3377715,9.86311161 Z M6.18304733,4.15316227 L6.23232768,3.90676054 C6.32965244,3.391501 6.23124611,2.85846667 5.95635775,2.4119234 L5.95635775,2.4119234 C5.90031939,2.31867034 5.87078583,2.21189516 5.87093848,2.1030999 C5.87073084,1.78166453 6.1099078,1.51037654 6.42883533,1.47030188 C6.74776285,1.43022721 7.04662183,1.63390859 7.12594461,1.9454028 C7.16684194,2.10492229 7.14198553,2.2741826 7.05695212,2.41520876 C6.78371387,2.86117458 6.68649205,3.39296622 6.78426755,3.90676054 L6.83354789,4.15316227 C6.97593322,4.8251291 7.44240854,5.38268403 8.07869795,5.6414287 C8.61836312,5.86784478 8.98959615,6.37292374 9.04459272,6.95557124 L3.97528786,6.95557124 C4.02815511,6.37211487 4.40010985,5.866054 4.94118263,5.6414287 C5.57620432,5.38181022 6.04132287,4.82440624 6.18304733,4.15316227 L6.18304733,4.15316227 Z M3.14080735,9.73826807 L3.14080735,8.52268622 C3.14080735,8.4628093 3.18934719,8.41426946 3.24922411,8.41426946 L9.77065647,8.41426946 C9.83053339,8.41426946 9.87907323,8.4628093 9.87907323,8.52268622 L9.87907323,9.73826807 L3.14080735,9.73826807 Z M11.564461,14.337767 C11.3367841,14.4335934 11.129408,14.5718442 10.9533848,14.7451512 C10.8135726,14.9042519 10.6056403,14.9862017 10.3948742,14.96527 C10.2186172,14.9081849 10.0523488,14.8239423 9.90207073,14.7155829 C9.4846833,14.4202641 8.99314745,14.2473163 8.48279678,14.2162088 C8.00924833,14.2509989 7.55449622,14.4158465 7.16865424,14.6925855 C6.98450868,14.8229758 6.77873784,14.9197437 6.56086331,14.9784115 C6.34290975,14.9183485 6.13719113,14.8204931 5.95307239,14.6893001 C5.5670252,14.4124464 5.11255091,14.2465633 4.63892985,14.2096381 C4.12925119,14.2494512 3.64042709,14.4290656 3.22622662,14.7287244 C3.0733858,14.8259238 2.91168104,14.9084262 2.74327923,14.9751261 C2.28906728,14.9612231 1.84723344,14.823789 1.46527561,14.577598 L1.46527561,12.1595757 C1.46527561,11.635199 1.89036691,11.2101077 2.4147436,11.2101077 L10.6281345,11.2101077 C11.1525112,11.2101077 11.5776025,11.635199 11.5776025,12.1595757 L11.564461,14.337767 Z M2.73999388,16.4371097 C3.18222209,16.3983661 3.60569714,16.2405563 3.96543179,15.9804451 C4.17011016,15.8325613 4.40253797,15.7275218 4.64878592,15.6716216 C4.84363566,15.731684 5.02852351,15.820253 5.19744043,15.9344502 C5.59575991,16.2204454 6.06527792,16.3909725 6.5542926,16.4272536 C7.04447992,16.3917359 7.51525622,16.2211648 7.91443013,15.9344502 C8.08589007,15.8160918 8.27416236,15.7241706 8.47294071,15.6617656 C8.71929472,15.7190876 8.95165753,15.8252148 9.15629483,15.9738744 C9.51762759,16.2379211 9.94539044,16.3960568 10.3915888,16.430539 C10.8059236,16.4454958 11.2153416,16.3368514 11.5677464,16.1184301 L11.5677464,22.2456197 L1.45541954,22.2456197 L1.45541954,16.1939933 C1.86320733,16.3516717 2.29622301,16.4340449 2.73342316,16.4371097 L2.73999388,16.4371097 Z" id="Shape"></path>
            </g>
        </g>
    </g>
</svg>