<?xml version="1.0" encoding="UTF-8"?>
<svg width="24px" height="24px" viewBox="0 0 24 24" version="1.1" xmlns="http://www.w3.org/2000/svg" xmlns:xlink="http://www.w3.org/1999/xlink">
    <title>Icon/Outline/center-map-outline</title>
    <g id="Icon/Outline/center-map-outline" stroke="none" stroke-width="1" fill="none" fill-rule="evenodd">
        <g id="Group" transform="translate(-0.000000, -0.000000)" fill="#474747" fill-rule="nonzero">
            <g id="center-map">
                <path d="M24,11.9960001 L24,12 L24,12.004 C24,12.256 23.9780001,12.502 23.9620001,12.7500001 C23.5890001,18.7770001 18.7770001,23.5890001 12.7500001,23.9620001 C12.5010001,23.9780001 12.253,24 12,24 C11.7470001,24 11.499,23.9780001 11.25,23.9620001 C5.22300002,23.5880001 0.412000001,18.7770001 0.0380000002,12.7500001 C0.0230000001,12.5010001 0,12.253 0,12 C0,11.7470001 0.0230000001,11.499 0.0380000002,11.25 C0.412000001,5.22300002 5.22300002,0.412000001 11.25,0.0380000002 C11.499,0.0220000001 11.7470001,0 12,0 C12.253,0 12.5010001,0.0220000001 12.7500001,0.0380000002 C18.7770001,0.411000002 23.5890001,5.22300002 23.9620001,11.25 C23.9780001,11.4980001 24,11.7440001 24,11.9960001 Z M22.4620001,11.25 C22.0930001,6.05900003 17.941,1.90800001 12.7500001,1.53800001 L12.7500001,6.05200002 C15.463,6.39100002 17.6090001,8.53700006 17.9480001,11.25 L22.4620001,11.25 Z M11.25,11.25 L11.25,7.57600001 C9.37200004,7.89400001 7.89400001,9.37200004 7.57600001,11.25 L11.25,11.25 Z M11.25,12.7500001 L7.57600001,12.7500001 C7.89400001,14.6280001 9.37200004,16.1060001 11.25,16.4240001 L11.25,12.7500001 Z M12.7500001,12.7500001 L12.7500001,16.4240001 C14.629,16.1060001 16.1060001,14.629 16.4240001,12.7500001 L12.7500001,12.7500001 Z M12.7500001,11.25 L16.4240001,11.25 C16.1060001,9.37100006 14.629,7.89400001 12.7500001,7.57600001 L12.7500001,11.25 Z M11.25,1.53800001 C6.05900003,1.90800001 1.90800001,6.05900003 1.53800001,11.25 L6.05200002,11.25 C6.39100002,8.53700006 8.53700006,6.39100002 11.25,6.05200002 L11.25,1.53800001 Z M1.53800001,12.7500001 C1.90800001,17.941 6.05900003,22.0920001 11.25,22.4620001 L11.25,17.9480001 C8.53700006,17.6090001 6.39100002,15.463 6.05200002,12.7500001 L1.53800001,12.7500001 Z M12.7500001,22.4620001 C17.941,22.0920001 22.0930001,17.941 22.4620001,12.7500001 L17.9480001,12.7500001 C17.6090001,15.463 15.463,17.6090001 12.7500001,17.9480001 L12.7500001,22.4620001 Z" id="Combined-Shape"></path>
            </g>
        </g>
    </g>
</svg>