<?xml version="1.0" encoding="UTF-8"?>
<svg width="24px" height="24px" viewBox="0 0 24 24" version="1.1" xmlns="http://www.w3.org/2000/svg" xmlns:xlink="http://www.w3.org/1999/xlink">
    <title>Icon/Outline/change-outline</title>
    <g id="Icon/Outline/change-outline" stroke="none" stroke-width="1" fill="none" fill-rule="evenodd">
        <g id="Group" transform="translate(-0.000000, -0.000000)" fill="#474747" fill-rule="nonzero">
            <g id="Change-outline" transform="translate(0.000000, 0.000000)">
                <path d="M2,0 C0.895430501,0 0,0.895430501 0,2 L0,22 C0,23.1045696 0.895430501,24 2,24 L22,24 C23.1045696,24 24,23.1045696 24,22 L24,0 L2,0 Z M22.0000001,22.5 L2.00000001,22.5 C1.72385763,22.5 1.4999555,22.2761425 1.4999555,22 L1.4999555,16.6966667 L16.5000001,16.6700001 L12.9433334,20.2133334 C12.6800777,20.4775097 12.6808239,20.9050777 12.9450001,21.1683334 C13.2091763,21.4315891 13.6367443,21.4308429 13.9,21.1666667 L19.0733334,15.9966667 L13.9,10.8333333 C13.6358239,10.5691572 13.2075096,10.5691572 12.9433334,10.8333333 C12.6791572,11.0975096 12.6791572,11.5258239 12.9433334,11.79 L16.4833334,15.3166667 L1.4999555,15.34 L1.4999555,2.00666668 C1.49821639,1.87290713 1.55010635,1.74401077 1.64406856,1.64879573 C1.73803077,1.5535807 1.86622856,1.5 2.00000001,1.5 L22.5000001,1.5 L22.5000001,7.35000003 L7.51666668,7.3266667 L11.0566667,3.78666668 C11.2269633,3.61577464 11.2931541,3.36701173 11.2303055,3.13408453 C11.1674569,2.90115732 10.9851173,2.71945302 10.7519721,2.65741786 C10.518827,2.5953827 10.2702966,2.6624413 10.1000001,2.83333335 L4.92666669,8.00666673 L10.1000001,13.1666668 C10.3641762,13.4308429 10.7924905,13.4308429 11.0566667,13.1666668 C11.3208429,12.9024905 11.3208429,12.4741762 11.0566667,12.2100001 L7.51666668,8.68333339 L22.5166668,8.70666671 L22.5166668,22 C22.5166668,22.1355472 22.461782,22.2653166 22.3643775,22.359579 C22.2669731,22.4538414 22.1354719,22.5045183 22.0000001,22.5 Z" id="Shape"></path>
            </g>
        </g>
    </g>
</svg>