<svg width="24" height="24" viewBox="0 0 24 24" fill="none" xmlns="http://www.w3.org/2000/svg">
<g clip-path="url(#clip0_15805_64021)">
<path d="M24 11.18V22C24 23.1067 23.1067 24 22 24H2C0.896667 24 0 23.1067 0 22V2C0 0.896667 0.896667 0 2 0H17.12V1.5H2C1.72333 1.5 1.5 1.72333 1.5 2V22C1.5 22.2767 1.72333 22.5 2 22.5H22C22.2767 22.5 22.5 22.2767 22.5 22V11.18H24ZM23.5367 4.39667L22.4767 3.33667L10.5767 15.2367L6.48333 11.1433L5.42333 12.2033L10.5767 17.3567L23.5367 4.4V4.39667Z" fill="black"/>
</g>
<defs>
<clipPath id="clip0_15805_64021">
<rect width="24" height="24" fill="white"/>
</clipPath>
</defs>
</svg>
