<svg width="24" height="24" viewBox="0 0 24 24" fill="none" xmlns="http://www.w3.org/2000/svg">
<g clip-path="url(#clip0_15805_64023)">
<path d="M23.78 22.72L13.06 12L23.78 1.28C24.0733 0.986667 24.0733 0.513333 23.78 0.22C23.4867 -0.0733333 23.0133 -0.0733333 22.72 0.22L10.94 12L22.72 23.78C23.0133 24.0733 23.4867 24.0733 23.78 23.78C24.0733 23.4867 24.0733 23.0133 23.78 22.72Z" fill="black"/>
<path d="M12.84 22.72L2.12 12L12.84 1.28C13.1333 0.986667 13.1333 0.513333 12.84 0.22C12.5467 -0.0733334 12.0733 -0.0733334 11.78 0.22L0 12L11.78 23.78C12.0733 24.0733 12.5467 24.0733 12.84 23.78C13.1333 23.4867 13.1333 23.0133 12.84 22.72Z" fill="black"/>
</g>
<defs>
<clipPath id="clip0_15805_64023">
<rect width="24" height="24" fill="white"/>
</clipPath>
</defs>
</svg>
