<?xml version="1.0" encoding="UTF-8"?>
<svg width="24px" height="24px" viewBox="0 0 24 24" version="1.1" xmlns="http://www.w3.org/2000/svg" xmlns:xlink="http://www.w3.org/1999/xlink">
    <title>Icon/Outline/chevron-double-down-outline</title>
    <g id="Icon/Outline/chevron-double-down-outline" stroke="none" stroke-width="1" fill="none" fill-rule="evenodd">
        <g id="Group" fill="#474747" fill-rule="nonzero">
            <g id="Outline">
                <g id="Down-Chevron" transform="translate(0.037378, 0.000000)">
                    <path d="M22.6659176,0.238356448 L11.9626223,10.9416518 L1.25932694,0.238356448 C0.964277673,-0.0365733279 0.50449529,-0.0284610043 0.219328274,0.256706011 C-0.0658387411,0.541873027 -0.0739510647,1.00165541 0.200978712,1.29670468 L11.9626223,13.0583482 L23.7242658,1.29670468 C23.9246063,1.11002545 24.0070736,0.828879275 23.9393157,0.563559993 C23.8715578,0.298240712 23.6643816,0.0910644255 23.3990623,0.0233065359 C23.133743,-0.0444513537 22.8525968,0.0380159431 22.6659176,0.238356448" id="Fill-1"></path>
                </g>
                <g id="Down-Chevron-2" transform="translate(0.000000, 10.922953)">
                    <path d="M22.7032953,0.238356448 L12,10.9416518 L1.29670468,0.238356448 C1.11002545,0.0380159431 0.828879275,-0.0444513537 0.563559993,0.0233065359 C0.298240712,0.0910644255 0.0910644255,0.298240712 0.0233065359,0.563559993 C-0.0444513537,0.828879275 0.0380159431,1.11002545 0.238356448,1.29670468 L12,13.0583482 L23.7616436,1.29670468 C23.9619841,1.11002545 24.0444514,0.828879275 23.9766935,0.563559993 C23.9089356,0.298240712 23.7017593,0.0910644255 23.43644,0.0233065359 C23.1711207,-0.0444513537 22.8899745,0.0380159431 22.7032953,0.238356448" id="Fill-1-2"></path>
                </g>
            </g>
        </g>
    </g>
</svg>