<svg width="24" height="24" viewBox="0 0 24 24" fill="none" xmlns="http://www.w3.org/2000/svg">
<g clip-path="url(#clip0_15805_64032)">
<path d="M0.22 1.28L10.94 12L0.22 22.72C-0.0733334 23.0133 -0.0733334 23.4867 0.22 23.78C0.513333 24.0733 0.986667 24.0733 1.28 23.78L13.06 12L1.28 0.22C0.986667 -0.0733334 0.513333 -0.0733334 0.22 0.22C-0.0733334 0.513333 -0.0733334 0.986667 0.22 1.28Z" fill="black"/>
<path d="M11.16 1.28L21.88 12L11.16 22.72C10.8667 23.0133 10.8667 23.4867 11.16 23.78C11.4533 24.0733 11.9267 24.0733 12.22 23.78L24 12L12.22 0.22C11.9267 -0.0733333 11.4533 -0.0733333 11.16 0.22C10.8667 0.513333 10.8667 0.986667 11.16 1.28Z" fill="black"/>
</g>
<defs>
<clipPath id="clip0_15805_64032">
<rect width="24" height="24" fill="white"/>
</clipPath>
</defs>
</svg>
