<?xml version="1.0" encoding="UTF-8"?>
<svg width="24px" height="24px" viewBox="0 0 24 24" version="1.1" xmlns="http://www.w3.org/2000/svg" xmlns:xlink="http://www.w3.org/1999/xlink">
    <title>Icon/Outline/circuit-board-box-outline</title>
    <g id="Icon/Outline/circuit-board-box-outline" stroke="none" stroke-width="1" fill="none" fill-rule="evenodd">
        <g id="Group" transform="translate(3.000000, 0.000000)" fill="#474747" fill-rule="nonzero">
            <g id="Outline">
                <path d="M17.1666667,1.5 L17.1666667,22.5 L1.5,22.5 L1.5,1.5 L17.1666667,1.5 M17.5933333,0 L1.07333333,0 C0.480547702,0 0,0.480547702 0,1.07333333 L0,22.9266667 C0,23.5194523 0.480547702,24 1.07333333,24 L17.5933333,24 C18.186119,24 18.6666667,23.5194523 18.6666667,22.9266667 L18.6666667,1.07333333 C18.6666667,0.480547702 18.186119,0 17.5933333,0 Z M15.8333333,3.62666667 L15.8333333,6.41333333 L2.69333333,6.41333333 L2.69333333,3.62666667 L15.8333333,3.62666667 Z M15.0566667,4.33333333 L5.66666667,4.33333333 L5.66666667,5.72666667 L15.0566667,5.72666667 L15.0566667,4.33333333 Z M2.69333333,11.1133333 L15.8333333,11.1133333 L15.8333333,11.0733333 L2.69333333,11.0733333 L2.69333333,11.1133333 Z M2.69333333,15.7566667 L15.8333333,15.7566667 L15.8333333,15.7333333 L2.69333333,15.7333333 L2.69333333,15.7566667 Z M2.69333333,20.4 L15.8333333,20.4 L15.8333333,20.4 L2.69333333,20.4 Z M2.69333333,8.28666667 L2.69333333,8.33333333 L15.8333333,8.33333333 L15.8333333,8.29666667 L2.69333333,8.28666667 Z M2.69333333,11.0733333 L15.8333333,11.0733333 L15.8333333,8.33333333 L2.69333333,8.33333333 L2.69333333,11.0733333 Z M5.66666667,9 L15.0566667,9 L15.0566667,10.3933333 L5.66666667,10.3933333 L5.66666667,9 Z M2.66666667,12.9833333 L15.8333333,12.9833333 L15.8333333,12.9633333 L2.69333333,12.9633333 L2.66666667,12.9833333 Z M2.66666667,15.75 L15.8333333,15.75 L15.8333333,12.9666667 L2.69333333,12.9666667 L2.66666667,15.75 Z M3.33333333,13.66 L12.7433333,13.66 L12.7433333,15.0533333 L3.36666667,15.0533333 L3.33333333,13.66 Z M2.66666667,17.6266667 L15.8333333,17.6266667 L15.8333333,17.6266667 L2.69333333,17.6266667 L2.66666667,17.6266667 Z M2.66666667,20.41 L15.8333333,20.41 L15.8333333,17.61 L2.69333333,17.61 L2.66666667,20.41 Z M5.66666667,18.32 L15.0566667,18.32 L15.0566667,19.7133333 L5.66666667,19.7133333 L5.66666667,18.32 Z" id="Shape"></path>
            </g>
        </g>
    </g>
</svg>