<?xml version="1.0" encoding="UTF-8"?>
<svg width="24px" height="24px" viewBox="0 0 24 24" version="1.1" xmlns="http://www.w3.org/2000/svg" xmlns:xlink="http://www.w3.org/1999/xlink">
    <title>Icon/Outline/circle-more-outline</title>
    <g id="Icon/Outline/circle-more-outline" stroke="none" stroke-width="1" fill="none" fill-rule="evenodd">
        <g id="Group" transform="translate(-0.000000, -0.000000)" fill="#474747" fill-rule="nonzero">
            <g id="circle-more">
                <path d="M12,0 C18.6270001,0 24,5.37300002 24,12 C24,18.6270001 18.6270001,24 12,24 C5.37300002,24 0,18.6270001 0,12 C0,5.37300002 5.37300002,0 12,0 Z M12,22.5 C17.7900001,22.5 22.5,17.7900001 22.5,12 C22.5,6.21000003 17.7900001,1.50000001 12,1.50000001 C6.21000003,1.50000001 1.50000001,6.21000003 1.50000001,12 C1.50000001,17.7900001 6.21000003,22.5 12,22.5 Z M18.0000001,10.5 C18.8286668,10.5 19.5000001,11.1713334 19.5000001,12 C19.5000001,12.8286667 18.8286668,13.5 18.0000001,13.5 C17.1713334,13.5 16.5000001,12.8286667 16.5000001,12 C16.5000001,11.1713334 17.1713334,10.5 18.0000001,10.5 Z M6.00000002,10.5 C6.8286667,10.5 7.50000002,11.1713334 7.50000002,12 C7.50000002,12.8286667 6.8286667,13.5 6.00000002,13.5 C5.17133335,13.5 4.50000002,12.8286667 4.50000002,12 C4.50000002,11.1713334 5.17133335,10.5 6.00000002,10.5 Z M12,10.5 C12.8286667,10.5 13.5,11.1713334 13.5,12 C13.5,12.8286667 12.8286667,13.5 12,13.5 C11.1713334,13.5 10.5,12.8286667 10.5,12 C10.5,11.1713334 11.1713334,10.5 12,10.5 Z" id="Combined-Shape"></path>
            </g>
        </g>
    </g>
</svg>