<svg width="24" height="24" viewBox="0 0 24 24" fill="none" xmlns="http://www.w3.org/2000/svg">
<g clip-path="url(#clip0_15805_64030)">
<path d="M12 7.77667L12.6933 9.64333L13.04 10.5767L14.0367 10.62L16.0267 10.7033L14.4667 11.94L13.6867 12.56L13.9533 13.52L14.4867 15.4367L12.83 14.3367L12 13.7867L11.17 14.3367L9.51333 15.4367L10.0467 13.52L10.3133 12.56L9.53333 11.94L7.97333 10.7033L9.96333 10.62L10.96 10.5767L11.3067 9.64333L12 7.77667ZM12 0C5.37333 0 0 5.37333 0 12C0 18.6267 5.37333 24 12 24C18.6267 24 24 18.6267 24 12C24 5.37333 18.6267 0 12 0ZM12 22.5C6.21 22.5 1.5 17.79 1.5 12C1.5 6.21 6.21 1.5 12 1.5C17.79 1.5 22.5 6.21 22.5 12C22.5 17.79 17.79 22.5 12 22.5ZM12 4.53C11.7567 4.53 11.5133 4.77667 11.33 5.27667L9.9 9.12L5.80333 9.29333C4.74333 9.33667 4.55667 9.91 5.39 10.5667L8.60333 13.1133L7.5 17.0633C7.31 17.75 7.46667 18.1333 7.85667 18.1333C8.04667 18.1333 8.29333 18.0433 8.58333 17.85L12 15.58L15.4167 17.85C15.7067 18.0433 15.9533 18.1333 16.1433 18.1333C16.5367 18.1333 16.6933 17.75 16.5 17.0633L15.3967 13.1133L18.61 10.5667C19.44 9.91 19.2567 9.33667 18.1967 9.29333L14.1 9.12L12.67 5.27667C12.4867 4.78 12.2433 4.53 12 4.53Z" fill="black"/>
</g>
<defs>
<clipPath id="clip0_15805_64030">
<rect width="24" height="24" fill="white"/>
</clipPath>
</defs>
</svg>
