<?xml version="1.0" encoding="UTF-8"?>
<svg width="24px" height="24px" viewBox="0 0 24 24" version="1.1" xmlns="http://www.w3.org/2000/svg" xmlns:xlink="http://www.w3.org/1999/xlink">
    <title>Icon/Outline/circle-percent-outline</title>
    <g id="Icon/Outline/circle-percent-outline" stroke="none" stroke-width="1" fill="none" fill-rule="evenodd">
        <g id="Group" fill="#474747" fill-rule="nonzero">
            <g id="Outline">
                <path d="M12,-5.92118946e-16 C5.372583,-5.92118946e-16 -5.92118946e-16,5.372583 -5.92118946e-16,12 C-5.92118946e-16,18.627417 5.372583,24 12,24 C18.627417,24 24,18.627417 24,12 C24,8.81740212 22.7357179,5.76515517 20.4852814,3.51471863 C18.2348448,1.26428208 15.1825979,-5.92118946e-16 12,-5.92118946e-16 Z M12,22.5 C6.20101013,22.5 1.5,17.7989899 1.5,12 C1.5,6.20101013 6.20101013,1.5 12,1.5 C17.7989899,1.5 22.5,6.20101013 22.5,12 C22.4944872,17.7967049 17.7967049,22.4944872 12,22.5 Z M15.5333333,7.19 L6.97333333,15.75 L8.03333333,16.81 L16.5966667,8.25 L15.5333333,7.19 Z M8.10333333,7.80333333 C8.75512549,7.80337471 9.28416288,8.33048455 9.28659172,8.98227221 C9.2890039,9.63405988 8.76389604,10.1650844 8.11212217,10.1699668 C7.4603483,10.1748492 6.92734414,9.65175078 6.92,9 C6.92183729,8.34776517 7.45109592,7.81999741 8.10333333,7.82 M8.10333333,6.32 C6.630574,6.32 5.43666667,7.51390733 5.43666667,8.98666667 C5.43666667,10.459426 6.630574,11.6533333 8.10333333,11.6533333 C9.57609267,11.6533333 10.77,10.459426 10.77,8.98666667 C10.77,7.51390733 9.57609267,6.32 8.10333333,6.32 Z M15.4133333,13.86 C15.8922499,13.86 16.3239456,14.1486738 16.5069061,14.5912645 C16.6898665,15.0338553 16.5880131,15.5430885 16.2488907,15.8812557 C15.9097682,16.2194229 15.4002497,16.3198394 14.9581768,16.1356312 C14.5161039,15.9514229 14.2286509,15.5189147 14.2299953,15.04 C14.2318373,14.3877652 14.7610959,13.86 15.4133333,13.86 M15.4133333,12.36 C13.940574,12.36 12.7466667,13.5539073 12.7466667,15.0266667 C12.7466667,16.499426 13.940574,17.6933333 15.4133333,17.6933333 C16.8860927,17.6933333 18.08,16.499426 18.08,15.0266667 C18.08,13.5539073 16.8860927,12.36 15.4133333,12.36 L15.4133333,12.36 Z" id="Shape"></path>
            </g>
        </g>
    </g>
</svg>