<?xml version="1.0" encoding="UTF-8"?>
<svg width="24px" height="24px" viewBox="0 0 24 24" version="1.1" xmlns="http://www.w3.org/2000/svg" xmlns:xlink="http://www.w3.org/1999/xlink">
    <title>Icon/Outline/circle-save-outline</title>
    <g id="Icon/Outline/circle-save-outline" stroke="none" stroke-width="1" fill="none" fill-rule="evenodd">
        <g id="Group" transform="translate(-0.000000, -0.000000)" fill="#474747" fill-rule="nonzero">
            <g id="circle-save">
                <path d="M12,0 C18.6170001,0 24,5.38300002 24,12 C24,18.6170001 18.6170001,24 12,24 C5.38300002,24 0,18.6170001 0,12 C0,5.38300002 5.38300002,0 12,0 Z M10.758,22.5170001 C17.1500001,23.2480001 22.5880001,18.2480001 22.5880001,12 C22.5880001,6.41500002 18.2380001,1.84000001 12.7500001,1.453 L12.7500001,1.53800001 L12.7500001,13.939 L16.1420001,10.548 C16.435,10.255 16.9100001,10.255 17.203,10.548 C17.4950001,10.84 17.4950001,11.3150001 17.203,11.608 L12.0000001,16.8110001 L6.79700003,11.608 C6.50400003,11.3150001 6.50400003,10.84 6.79700003,10.548 C7.09000003,10.255 7.56500006,10.255 7.85800001,10.548 L11.25,13.9400001 L11.25,1.53800001 L11.25,1.453 C5.31300002,1.87200001 0.708000003,7.19100003 1.501,13.39 C2.11000001,18.1440001 5.99600003,21.9720001 10.758,22.5170001 Z" id="Combined-Shape"></path>
            </g>
        </g>
    </g>
</svg>