<?xml version="1.0" encoding="UTF-8"?>
<svg width="24px" height="24px" viewBox="0 0 24 24" version="1.1" xmlns="http://www.w3.org/2000/svg" xmlns:xlink="http://www.w3.org/1999/xlink">
    <title>Icon/Outline/circle-radio-outline</title>
    <g id="Icon/Outline/circle-radio-outline" stroke="none" stroke-width="1" fill="none" fill-rule="evenodd">
        <path d="M12.0030526,5.30829508 C8.30545919,5.30829508 5.30796749,8.30419829 5.30796749,11.9998323 C5.30796749,15.6954662 8.30545919,18.6913694 12.0030526,18.6913694 C15.7006459,18.6913694 18.6981376,15.6954662 18.6981376,11.9998323 C18.6926291,8.30648124 15.6983618,5.31380071 12.0030526,5.30829508 Z M12.0030526,0.00305245468 C7.28771991,0.00556230462 3.01065572,2.76721826 1.07000268,7.06240926 C-0.870650358,11.3576003 -0.11535295,16.3905685 3.00069715,19.9277043 L4.06097456,20.9874198 C8.58698264,25.0001235 15.3991173,25.0001235 19.9251253,20.9874198 L21.005408,19.9277043 C24.121458,16.3905685 24.8767555,11.3576003 22.9361024,7.06240926 C20.9954494,2.76721826 16.7183852,0.00556230462 12.0030526,0.00305245468 Z M12.0030526,22.4970146 C6.20254501,22.4970146 1.50030458,17.797266 1.50030458,11.9998323 C1.50030458,6.20239854 6.20254501,1.50264993 12.0030526,1.50264993 C17.8035601,1.50264993 22.5058005,6.20239854 22.5058005,11.9998323 C22.5002863,17.7949815 17.8012745,22.4915032 12.0030526,22.4970146 Z" id="Shape" fill="#474747" fill-rule="nonzero"></path>
    </g>
</svg>