<?xml version="1.0" encoding="UTF-8"?>
<svg width="24px" height="24px" viewBox="0 0 24 24" version="1.1" xmlns="http://www.w3.org/2000/svg" xmlns:xlink="http://www.w3.org/1999/xlink">
    <title>Icon/Outline/circle-warning</title>
    <g id="Icon/Outline/circle-warning" stroke="none" stroke-width="1" fill="none" fill-rule="evenodd">
        <path d="M12.0030526,0.00305245468 C7.28771991,0.00556230462 3.01065572,2.76721826 1.07000268,7.06240926 C-0.870650358,11.3576003 -0.11535295,16.3905685 3.00069715,19.9277043 L4.06097456,20.9874198 C8.58698264,25.0001235 15.3991173,25.0001235 19.9251253,20.9874198 L21.005408,19.9277043 C24.121458,16.3905685 24.8767555,11.3576003 22.9361024,7.06240926 C20.9954494,2.76721826 16.7183852,0.00556230462 12.0030526,0.00305245468 Z M12.0030526,1.50264993 C17.8035601,1.50264993 22.5058005,6.20239854 22.5058005,11.9998323 C22.5002863,17.7949815 17.8012745,22.4915032 12.0030526,22.4970146 C6.20254501,22.4970146 1.50030458,17.797266 1.50030458,11.9998323 C1.50030458,6.20239854 6.20254501,1.50264993 12.0030526,1.50264993 Z M12,15.5 C11.4481675,15.5 11,15.9481675 11,16.5 C11,17.0528795 11.4481675,17.5 12,17.5 C12.5518325,17.5 13,17.0528795 13,16.5 C13,15.9481675 12.5518325,15.5 12,15.5 Z M12,5.5 C11.4477153,5.5 11,5.9530363 11,6.4970301 L11,6.4970301 L11,12.5029699 C11,13.0536144 11.4438648,13.5 12,13.5 C12.5522847,13.5 13,13.0469637 13,12.5029699 L13,12.5029699 L13,6.4970301 C13,5.9463856 12.5561352,5.5 12,5.5 Z" id="Shape" fill="#474747" fill-rule="nonzero"></path>
    </g>
</svg>