<svg width="24" height="24" viewBox="0 0 24 24" fill="none" xmlns="http://www.w3.org/2000/svg">
<g clip-path="url(#clip0_15805_64039)">
<path d="M20.6204 2.74087V5.18087C20.6204 5.5842 20.2904 5.9142 19.8871 5.9142C19.4838 5.9142 19.1538 5.5842 19.1538 5.18087V2.74087C19.1538 2.33753 19.4838 2.00753 19.8871 2.00753C20.2904 2.00753 20.6204 2.33753 20.6204 2.74087ZM17.1738 3.0742C17.0038 2.70753 16.5638 2.54753 16.2005 2.71753C16.0238 2.80087 15.8871 2.94753 15.8205 3.13087C15.7538 3.3142 15.7638 3.5142 15.8438 3.69087L16.8738 5.90087C16.9571 6.07753 17.1038 6.2142 17.2871 6.28087C17.3704 6.31087 17.4538 6.3242 17.5371 6.3242C17.6438 6.3242 17.7471 6.30087 17.8471 6.2542C18.0238 6.17087 18.1604 6.0242 18.2271 5.84087C18.2938 5.65753 18.2838 5.45753 18.2038 5.28087L17.1738 3.07087V3.0742ZM23.5738 2.71753C23.2071 2.54753 22.7704 2.7042 22.6004 3.0742L21.5705 5.2842C21.4871 5.46087 21.4805 5.66087 21.5471 5.8442C21.6138 6.02753 21.7505 6.1742 21.9271 6.25753C22.0271 6.3042 22.1305 6.32753 22.2371 6.32753C22.3205 6.32753 22.4071 6.3142 22.4871 6.2842C22.6705 6.21753 22.8171 6.08087 22.9004 5.9042L23.9305 3.6942C24.1005 3.32753 23.9438 2.89087 23.5771 2.72087L23.5738 2.71753ZM3.18378 2.7842C2.90712 2.50753 2.42378 2.50753 2.14712 2.7842C2.00712 2.9242 1.93378 3.10753 1.93378 3.3042C1.93378 3.50087 2.01045 3.6842 2.14712 3.8242L3.87378 5.54753C4.01378 5.68753 4.19712 5.7642 4.39378 5.7642C4.59045 5.7642 4.77378 5.68753 4.91378 5.55087C5.20045 5.2642 5.20045 4.80087 4.91378 4.5142L3.18712 2.78753L3.18378 2.7842ZM3.27712 6.29087L0.983782 5.45753C0.603782 5.32087 0.180449 5.5142 0.0437825 5.89753C-0.0928842 6.27753 0.100449 6.70087 0.483782 6.83753L2.77712 7.67087C2.86045 7.70087 2.94378 7.7142 3.02712 7.7142C3.13378 7.7142 3.23712 7.69087 3.33712 7.6442C3.51378 7.56087 3.65045 7.4142 3.71712 7.23087C3.78378 7.04753 3.77378 6.84753 3.69378 6.67087C3.61045 6.4942 3.46378 6.35753 3.28045 6.29087H3.27712ZM6.19712 1.12087C6.13045 0.937533 5.99378 0.790866 5.81712 0.707533C5.64045 0.6242 5.44045 0.617533 5.25712 0.6842C5.07378 0.750866 4.92712 0.887533 4.84378 1.0642C4.76045 1.24087 4.75378 1.44087 4.82045 1.6242L5.65378 3.91753C5.76378 4.2142 6.04378 4.40087 6.34378 4.40087C6.42712 4.40087 6.51045 4.38753 6.59378 4.35753C6.77712 4.29087 6.92378 4.1542 7.00712 3.97753C7.09045 3.80087 7.09712 3.60087 7.03045 3.41753L6.19712 1.1242V1.12087ZM17.2071 8.4442C17.2671 8.0642 17.4171 7.70087 17.6571 7.3842C17.7038 7.3242 17.7504 7.26753 17.8004 7.21087C17.6071 7.17087 17.4071 7.16087 17.2005 7.19087L16.9871 7.22087C16.9871 7.22087 16.9805 7.22087 16.9738 7.22087C16.7105 7.25753 16.4671 7.35087 16.2538 7.48753L17.2071 8.44087V8.4442ZM7.51712 5.82753L7.56712 5.77753C7.96378 5.38087 8.49045 5.16087 9.05045 5.16087C9.16045 5.16087 9.27045 5.17087 9.38045 5.18753C9.44378 5.05753 9.52045 4.93753 9.60712 4.8242C9.04045 4.58753 8.36378 4.70087 7.90378 5.16087L7.85045 5.2142C7.66045 5.4042 7.52712 5.64087 7.45378 5.89753C7.47712 5.8742 7.49378 5.84753 7.51712 5.8242V5.82753ZM11.7804 21.0709L5.57712 14.8675L5.55378 14.8442C4.77712 13.9709 4.82378 12.1242 5.65378 11.3075L5.73378 11.2275C5.84045 11.1209 5.96045 11.0242 6.08712 10.9442C5.76045 10.1775 5.90712 9.25087 6.52712 8.63087L6.57712 8.58087C6.71378 8.4442 6.87045 8.32753 7.03378 8.23087C6.73712 7.51753 6.84045 6.6842 7.32045 6.05753C6.74378 5.81753 6.07378 5.9442 5.62712 6.39087L5.57712 6.44087C4.95045 7.05753 4.91712 8.05753 5.50378 8.71753L5.51712 8.73087C5.18378 8.7942 4.87378 8.9542 4.63378 9.1942L4.58712 9.24087C3.98712 9.84087 3.98045 10.8109 4.57045 11.4209C4.27712 11.4842 4.00712 11.6275 3.79378 11.8409L3.71378 11.9209C3.08712 12.5375 3.05378 14.0575 3.63712 14.7142L9.84045 20.9175C10.8971 21.9742 12.0938 23.1709 13.8938 23.3375C14.2171 23.3675 14.5404 23.3675 14.8604 23.3442C13.5604 22.8509 12.5938 21.8875 11.7804 21.0742V21.0709ZM22.9771 14.1342C22.8171 13.6575 22.6838 13.1675 22.5771 12.6775L22.4804 12.1975C22.2771 11.1775 22.0538 10.0309 21.8738 9.07087C21.7238 7.9842 20.7204 7.22087 19.6271 7.36087L19.4004 7.3942C18.8704 7.47087 18.4038 7.7442 18.0838 8.17087C17.7638 8.59753 17.6271 9.1242 17.7071 9.6642L17.7804 9.98087L13.0071 5.21087C12.3338 4.54087 11.2404 4.54087 10.5704 5.2142L10.5171 5.26753C10.3071 5.47753 10.1538 5.7442 10.0738 6.03087C9.45712 5.81753 8.76378 5.96753 8.29378 6.44087L8.24378 6.49087C7.61712 7.10753 7.53045 8.07087 8.01712 8.80087C7.74712 8.89087 7.50378 9.04087 7.29712 9.2442L7.25045 9.29087C6.65712 9.88753 6.59378 10.8275 7.06378 11.4975C6.83712 11.5842 6.63045 11.7142 6.45712 11.8875L6.38045 11.9642C5.69045 12.6442 5.65712 13.7442 6.30378 14.4742L12.5105 20.6775C13.5871 21.7542 14.8038 22.9709 16.6671 23.1475C16.8471 23.1642 17.0304 23.1742 17.2104 23.1742C18.7438 23.1742 20.2171 22.5742 21.3205 21.4875L21.7605 21.0475C22.6171 20.1575 23.2005 19.0475 23.4405 17.8375C23.7338 16.4575 23.3204 15.1709 22.9838 14.1342H22.9771ZM7.18045 13.5942C7.00378 13.3475 7.03712 13.0075 7.25378 12.7975L7.31045 12.7409C7.51045 12.5509 7.82712 12.5542 8.02378 12.7509L11.6671 16.3942C11.9571 16.6842 12.4304 16.6842 12.7204 16.3942C12.8438 16.2775 12.9138 16.1142 12.9138 15.9442C12.9038 15.7375 12.8071 15.5442 12.6438 15.4142L8.10712 10.8775C7.91045 10.6809 7.90712 10.3675 8.09712 10.1675L8.15378 10.1109C8.36378 9.89087 8.70378 9.86087 8.95045 10.0375L13.5038 14.5909C13.6304 14.7442 13.8171 14.8375 14.0171 14.8442C14.1905 14.8442 14.3538 14.7742 14.4704 14.6475C14.7604 14.3575 14.7604 13.8842 14.4704 13.5942L9.02045 8.1442C8.84378 7.89753 8.87378 7.55753 9.09378 7.34753L9.14712 7.2942C9.14712 7.2942 9.14712 7.2942 9.15045 7.29087C9.35045 7.09087 9.67378 7.09087 9.87045 7.29087L15.3371 12.7575C15.4671 12.9075 15.6538 13.0009 15.8538 13.0075C16.0238 13.0075 16.1838 12.9409 16.3004 12.8175C16.5904 12.5275 16.5904 12.0542 16.3004 11.7642L11.3805 6.8442C11.1838 6.64753 11.1805 6.33087 11.3738 6.13087L11.4271 6.07753C11.6271 5.87753 11.9505 5.87753 12.1471 6.07753L18.1938 12.1242C18.3738 12.3375 18.6671 12.4209 18.9304 12.3342C19.2938 12.2175 19.4938 11.8275 19.3771 11.4642L18.9004 9.4542C18.8538 9.0342 19.1505 8.65087 19.5705 8.59087L19.7838 8.56087C19.7838 8.56087 19.7938 8.56087 19.8004 8.56087C20.2338 8.5142 20.6271 8.82753 20.6738 9.26087C20.8504 10.2509 21.0838 11.4142 21.2905 12.4409L21.3871 12.9209C21.5038 13.4575 21.6504 13.9875 21.8271 14.5109C22.1538 15.5775 22.4738 16.5642 22.2538 17.5942C22.0571 18.5709 21.5838 19.4742 20.8905 20.1909L20.4638 20.6175C19.4905 21.5742 18.1438 22.0509 16.7871 21.9242C15.3604 21.7909 14.3505 20.7809 13.3738 19.8042L7.18378 13.5975L7.18045 13.5942Z" fill="black"/>
</g>
<defs>
<clipPath id="clip0_15805_64039">
<rect width="23.999" height="24" fill="white"/>
</clipPath>
</defs>
</svg>
