<?xml version="1.0" encoding="UTF-8"?>
<svg width="24px" height="24px" viewBox="0 0 24 24" version="1.1" xmlns="http://www.w3.org/2000/svg" xmlns:xlink="http://www.w3.org/1999/xlink">
    <title>Icon/Outline/clinic-outline</title>
    <g id="Icon/Outline/clinic-outline" stroke="none" stroke-width="1" fill="none" fill-rule="evenodd">
        <g id="Group" transform="translate(-0.000000, 0.000056)" fill="#474747" fill-rule="nonzero">
            <g id="clinic" transform="translate(0.000112, 1.500330)">
                <path d="M11.9999438,0 L23.9998876,11.9999438 L20.2497927,11.9999438 L20.2497927,20.9995642 L3.74986994,20.9995642 L3.74986994,11.9999438 L1.77635684e-15,11.9999438 L11.9999438,0 Z M11.9991938,2.24965196 L3.74986994,10.4984508 L5.24986994,10.4984508 L5.24986994,19.4995712 L18.7497997,19.4995712 L18.7497997,10.4984508 L20.2497927,10.4984508 L11.9991938,2.24965196 Z M11.2499473,7.49981488 L12.7499403,7.49981488 L12.7499403,11.2497973 L16.4999227,11.2497973 L16.4999227,12.7497903 L12.7499403,12.7497903 L12.7499403,16.4997727 L11.2499473,16.4997727 L11.2499473,12.7497903 L7.49996488,12.7497903 L7.49996488,11.2497973 L11.2499473,11.2497973 L11.2499473,7.49981488 Z" id="Combined-Shape"></path>
            </g>
        </g>
    </g>
</svg>