<svg width="24" height="24" viewBox="0 0 24 24" fill="none" xmlns="http://www.w3.org/2000/svg">
<path d="M14.25 3.375C11.7467 3.375 9.58333 4.755 8.41667 6.78167C7.91333 6.52833 7.35 6.375 6.75 6.375C4.68 6.375 3 8.055 3 10.125C3 10.295 3.03 10.4583 3.05 10.6217C1.25333 11.455 0 13.2617 0 15.375C0 18.275 2.35 20.625 5.25 20.625H18.75C21.65 20.625 24 18.275 24 15.375C24 13.265 22.7467 11.455 20.95 10.6217C20.9633 10.455 21 10.295 21 10.125C21 6.39833 17.9767 3.375 14.25 3.375ZM14.25 4.875C17.1433 4.875 19.5 7.23167 19.5 10.1117C19.5 10.1483 19.4933 10.1817 19.4867 10.2183C19.4733 10.315 19.46 10.4117 19.4533 10.5083L19.3767 11.5417L20.32 11.9783C21.6433 12.5917 22.5 13.925 22.5 15.3683C22.5 17.4383 20.82 19.1183 18.75 19.1183H5.25C3.18 19.1183 1.5 17.4383 1.5 15.3683C1.5 13.9217 2.35667 12.5917 3.68 11.9783L4.68333 11.515L4.53667 10.4217L4.52333 10.3217C4.51333 10.255 4.5 10.1917 4.5 10.1217C4.5 8.88167 5.51 7.87167 6.75 7.87167C7.08 7.87167 7.41667 7.955 7.74667 8.12167L9.01333 8.755L9.72 7.525C10.6767 5.86167 12.37 4.86833 14.25 4.86833M14.8467 14.7117L13.1067 12.9883L14.8133 11.265L13.7067 10.1483L11.99 11.8817L10.2733 10.1817L9.15667 11.2883L10.8833 12.9983L9.19 14.7083L10.2867 15.8383L12.0033 14.105L13.72 15.805L14.85 14.7083L14.8467 14.7117Z" fill="black"/>
</svg>
