<?xml version="1.0" encoding="UTF-8"?>
<svg width="24px" height="24px" viewBox="0 0 24 24" version="1.1" xmlns="http://www.w3.org/2000/svg" xmlns:xlink="http://www.w3.org/1999/xlink">
    <title>Icon/Outline/cloud-outline</title>
    <g id="Icon/Outline/cloud-outline" stroke="none" stroke-width="1" fill="none" fill-rule="evenodd">
        <g id="Group" transform="translate(-0.000000, -0.000000)" fill="#474747" fill-rule="nonzero">
            <g id="cloud" transform="translate(0.000000, 3.750000)">
                <path d="M5.25000002,16.5 C2.35050507,16.5 0,14.149495 0,11.25 C0,9.15251239 1.23002889,7.34231336 3.00811064,6.501379 C3.13608289,4.54621907 4.76247206,3 6.75000003,3 C7.34183224,3 7.90164273,3.13710136 8.39940371,3.3812763 C9.56561456,1.360236 11.7489573,0 14.2500001,0 C17.8952738,0 20.8656537,2.88956391 20.9955692,6.50312103 C22.771668,7.34481146 24,9.15395959 24,11.25 C24,14.149495 21.649495,16.5 18.7500001,16.5 L5.25000002,16.5 Z M5.25000002,15 L18.7500001,15 C20.8210679,15 22.5,13.3210678 22.5,11.25 C22.5,9.78566427 21.6537644,8.47494964 20.3532025,7.85861546 L19.5292956,7.46816726 L19.4965376,6.5570146 C19.3952727,3.74036195 17.0778052,1.50000001 14.2500001,1.50000001 C12.3511869,1.50000001 10.6309358,2.51526683 9.69861919,4.13096904 L8.99776031,5.34555565 L7.73878736,4.72797077 C7.43430028,4.57860572 7.09929973,4.50000001 6.75000003,4.50000001 C5.56314857,4.50000001 4.58193003,5.42260427 4.5049078,6.59934978 L4.44726359,7.48003803 L3.64942105,7.85737346 C2.3474503,8.47313366 1.50000001,9.78462282 1.50000001,11.25 C1.50000001,13.3210678 3.1789322,15 5.25000002,15 Z" id="Combined-Shape-Copy"></path>
            </g>
        </g>
    </g>
</svg>