<svg width="24" height="24" viewBox="0 0 24 24" fill="none" xmlns="http://www.w3.org/2000/svg">
<g clip-path="url(#clip0_15805_64050)">
<path d="M5.24951 20.4972C2.35285 20.5006 0.00284505 18.1939 -0.000488281 15.3406C-0.000488281 13.3206 1.18618 11.4872 3.04951 10.6439C3.02285 10.4806 3.00618 10.3172 2.99951 10.1539C2.99951 8.1139 4.67618 6.46057 6.74951 6.45723C7.32951 6.46057 7.89951 6.59723 8.41618 6.86057C10.2495 3.6739 14.3562 2.55723 17.5895 4.3639C19.7028 5.5439 21.0062 7.75723 20.9995 10.1539C20.9995 10.3239 20.9628 10.4806 20.9495 10.6439C23.5795 11.8372 24.7295 14.9039 23.5195 17.4939C22.6628 19.3272 20.7995 20.5039 18.7495 20.5006H5.24951V20.4972ZM4.49951 10.1506C4.49951 10.2172 4.50951 10.2839 4.52285 10.3472L4.53618 10.4472L4.68285 11.5272L3.67951 11.9872C1.80285 12.8406 0.982845 15.0306 1.84951 16.8806C2.46285 18.1872 3.78951 19.0239 5.24618 19.0239H18.7462C20.8128 19.0272 22.4895 17.3839 22.4962 15.3472C22.4995 13.9039 21.6462 12.5906 20.3162 11.9872L19.3728 11.5572L19.4495 10.5372C19.4562 10.4406 19.4695 10.3439 19.4828 10.2506C19.4895 10.2172 19.4928 10.1806 19.4962 10.1472C19.4895 7.2939 17.1395 4.98723 14.2462 4.98723C12.3662 4.98723 10.6328 5.98723 9.71285 7.6039L9.00951 8.8139L7.74285 8.19057C7.43618 8.0339 7.09285 7.94723 6.74618 7.9439C5.50285 7.9439 4.49618 8.93723 4.49618 10.1606L4.49951 10.1506ZM8.12618 13.7839L7.68618 14.2172C7.44951 14.4439 7.07285 14.4372 6.84285 14.2039C6.61951 13.9772 6.61951 13.6139 6.84285 13.3872L8.71285 11.5439L10.5962 13.4039C10.8295 13.6339 10.8295 14.0072 10.5962 14.2372C10.4828 14.3472 10.3328 14.4106 10.1728 14.4106C10.0128 14.4106 9.86285 14.3472 9.74951 14.2372L9.33285 13.8239C9.54951 15.6306 11.2095 16.9206 13.0428 16.7072C14.0128 16.5939 14.8862 16.0672 15.4295 15.2672L16.4562 15.8672C15.0962 17.9372 12.2895 18.5306 10.1862 17.1906C8.99951 16.4339 8.23951 15.1739 8.12951 13.7839H8.12618ZM14.7395 13.2172C14.5062 12.9872 14.5062 12.6139 14.7395 12.3839C14.8528 12.2739 15.0028 12.2106 15.1628 12.2106C15.3228 12.2106 15.4728 12.2739 15.5862 12.3839L16.0028 12.7972C15.7862 10.9906 14.1262 9.70057 12.2962 9.9139C11.3262 10.0272 10.4528 10.5539 9.90951 11.3539L8.88285 10.7539C10.2428 8.6839 13.0495 8.09057 15.1528 9.43057C16.3395 10.1872 17.0995 11.4472 17.2095 12.8372L17.6495 12.4039C17.8862 12.1772 18.2628 12.1839 18.4928 12.4172C18.7162 12.6439 18.7162 13.0072 18.4928 13.2339L16.6228 15.0772L14.7395 13.2172Z" fill="black"/>
</g>
<defs>
<clipPath id="clip0_15805_64050">
<rect width="24" height="24" fill="white"/>
</clipPath>
</defs>
</svg>
