<svg width="24" height="24" viewBox="0 0 24 24" fill="none" xmlns="http://www.w3.org/2000/svg">
<g clip-path="url(#clip0_15805_64041)">
<path d="M5.24951 20.4972C2.35285 20.5006 0.00284505 18.1939 -0.000488281 15.3406C-0.000488281 13.3206 1.18618 11.4872 3.04951 10.6439C3.02285 10.4806 3.00618 10.3172 2.99951 10.1539C2.99951 8.1139 4.67618 6.46057 6.74951 6.45723C7.32951 6.46057 7.89951 6.59723 8.41618 6.86057C10.2495 3.6739 14.3562 2.55723 17.5895 4.3639C19.7028 5.5439 21.0062 7.75723 20.9995 10.1539C20.9995 10.3239 20.9628 10.4806 20.9495 10.6439C23.5795 11.8372 24.7295 14.9039 23.5195 17.4939C22.6628 19.3272 20.7995 20.5039 18.7495 20.5006H5.24951V20.4972ZM4.49951 10.1506C4.49951 10.2172 4.50951 10.2839 4.52285 10.3472L4.53618 10.4472L4.68285 11.5272L3.67951 11.9872C1.80285 12.8406 0.982845 15.0306 1.84951 16.8806C2.46285 18.1872 3.78951 19.0239 5.24618 19.0239H18.7462C20.8128 19.0272 22.4895 17.3839 22.4962 15.3472C22.4995 13.9039 21.6462 12.5906 20.3162 11.9872L19.3728 11.5572L19.4495 10.5372C19.4562 10.4406 19.4695 10.3439 19.4828 10.2506C19.4895 10.2172 19.4928 10.1806 19.4962 10.1472C19.4895 7.2939 17.1395 4.98723 14.2462 4.98723C12.3662 4.98723 10.6328 5.98723 9.71285 7.6039L9.00951 8.8139L7.74285 8.19057C7.43618 8.0339 7.09285 7.94723 6.74618 7.9439C5.50285 7.9439 4.49618 8.93723 4.49618 10.1606L4.49951 10.1506ZM11.6662 17.2572V15.6139H13.3328V17.2572H11.6662ZM11.6662 14.6306V9.04723H13.3328V14.6306H11.6662Z" fill="black"/>
</g>
<defs>
<clipPath id="clip0_15805_64041">
<rect width="24" height="24" fill="white"/>
</clipPath>
</defs>
</svg>
