<svg width="24" height="24" viewBox="0 0 24 24" fill="none" xmlns="http://www.w3.org/2000/svg">
<path d="M17.3301 18.82H5.10342C3.71342 18.82 2.44342 18.0067 1.86342 16.7467C1.04008 14.9633 1.82675 12.8433 3.61342 12.02L4.60675 11.5567L4.46342 10.4733L4.44342 10.3433C4.43342 10.2933 4.42675 10.24 4.42675 10.19C4.42342 9.04 5.32008 8.10667 6.47008 8.06667H6.56342L5.26675 6.77L5.24008 6.78C3.83675 7.31667 2.89342 8.69 2.89342 10.1933C2.89342 10.3233 2.90675 10.4533 2.92675 10.58L2.93675 10.6467C2.07675 11.05 1.35008 11.6833 0.826751 12.4767C0.286751 13.3067 0.00341797 14.2733 0.00341797 15.2667C0.00341797 16.6267 0.536751 17.9033 1.50342 18.8633C2.46675 19.82 3.74342 20.3467 5.10008 20.3467H18.1267C18.3267 20.3467 18.5301 20.3333 18.7301 20.31L18.8134 20.3L17.3401 18.83L17.3267 18.8167L17.3301 18.82Z" fill="black"/>
<path d="M22.2101 18.3067C23.4901 16.6 23.5701 14.2633 22.4001 12.4767C21.8801 11.6833 21.1501 11.05 20.2901 10.6467C20.2934 10.5933 20.3034 10.54 20.3101 10.4833C20.3267 10.3867 20.3334 10.29 20.3368 10.1933C20.3368 6.58667 17.4001 3.65 13.7868 3.65H13.7701C12.8334 3.65 11.8901 3.86 11.0434 4.25667C10.4101 4.55334 9.83008 4.95 9.32008 5.43334L6.55008 2.66667L5.34342 3.87L5.31342 3.9L22.7634 21.3333L23.9968 20.1L22.2034 18.3067H22.2101ZM21.1134 17.21L10.4034 6.50667C11.3234 5.64667 12.5201 5.17334 13.7834 5.17334H13.7868C16.5501 5.17334 18.8001 7.42 18.8068 10.1767C18.8068 10.2067 18.8001 10.2367 18.7934 10.2767C18.7768 10.3867 18.7668 10.4733 18.7601 10.56L18.6834 11.5833L19.6168 12.0167C19.7968 12.1 19.9734 12.1967 20.1368 12.31C21.7468 13.4033 22.1768 15.59 21.1101 17.2067L21.1134 17.21Z" fill="black"/>
</svg>
