<?xml version="1.0" encoding="UTF-8"?>
<svg width="24px" height="24px" viewBox="0 0 24 24" version="1.1" xmlns="http://www.w3.org/2000/svg" xmlns:xlink="http://www.w3.org/1999/xlink">
    <title>Icon/Outline/cogs-outline</title>
    <g id="Icon/Outline/cogs-outline" stroke="none" stroke-width="1" fill="none" fill-rule="evenodd">
        <g id="Group" fill="#474747" fill-rule="nonzero">
            <g id="Outline">
                <path d="M7.42333333,12.7433333 C6.78605046,12.8818708 6.23059967,13.2694326 5.88062913,13.819744 C5.53065858,14.3700555 5.41521604,15.0374405 5.56,15.6733333 C5.80826056,16.7985898 6.80435219,17.6007276 7.95666667,17.6033333 C8.13503242,17.5977726 8.31248013,17.5754521 8.48666667,17.5366667 C9.12430711,17.3996589 9.68055883,17.0130804 10.0312727,16.4632112 C10.3819866,15.9133419 10.4979688,15.2459536 10.3533333,14.61 C10.0484353,13.2933653 8.74547194,12.4632635 7.42333333,12.7433333 M8.95333333,15.7733333 C8.78364225,16.0490701 8.50727773,16.2421633 8.19,16.3066667 C7.86897667,16.3673343 7.5368518,16.3080263 7.25666667,16.14 C6.98017811,15.9695526 6.78698675,15.69184 6.72333333,15.3733333 C6.58680334,14.7100533 7.00618686,14.0594901 7.66666667,13.91 C7.986601,13.8472822 8.31842336,13.9067486 8.59666667,14.0766667 C8.87315523,14.2471141 9.06634659,14.5248267 9.13,14.8433333 C9.19507498,15.1632443 9.1354538,15.4959305 8.96333333,15.7733333" id="Shape"></path>
                <path d="M14.08,16.4066667 L15.8433333,15.53 L14.98,11.4466667 L12.98,11.4133333 C12.7265231,11.0711232 12.4358556,10.7580966 12.1133333,10.48 L12.2466667,8.48 L8.29,7.22 L7.22333333,8.91666667 C6.99,8.95 6.79,8.98333333 6.59,9.01666667 C6.37702304,9.06028873 6.1666865,9.11593332 5.96,9.18333333 L4.29333333,8.08333333 L1.23,10.88 L2.16333333,12.6466667 C1.99543083,13.0400291 1.86160621,13.447079 1.76333333,13.8633333 L0,14.71 L0.9,18.8033333 L2.9,18.87 C3.15325866,19.2113502 3.44272238,19.524284 3.76333333,19.8033333 L3.63,21.8033333 L7.63,23.0666667 L8.66666667,21.3666667 C8.9,21.3333333 9.1,21.3 9.3,21.2666667 C9.50399931,21.2266695 9.70459802,21.1709476 9.9,21.1 L11.5666667,22.2 L14.6633333,19.37 L13.6666667,17.6366667 C13.834987,17.2375714 13.973152,16.8264193 14.08,16.4066667 Z M12.6833333,15.34 L12.5833333,15.94 C12.5117952,16.3323373 12.3884962,16.7134432 12.2166667,17.0733333 L11.95,17.67 L12.6833333,19.0366667 L11.4166667,20.1966667 L10.12,19.3333333 L9.52,19.5333333 C9.28666667,19.6 9.12,19.6666667 8.95333333,19.7 C8.78666667,19.7333333 8.58666667,19.7666667 8.35666667,19.8 L7.72333333,19.8666667 L6.92333333,21.2 L5.25666667,20.6666667 L5.35666667,19.1033333 L4.89,18.7033333 C4.57013329,18.4452404 4.28942831,18.1420791 4.05666667,17.8033333 L3.69,17.34 L2.16,17.3066667 L1.79333333,15.6066667 L3.19333333,14.91 L3.29333333,14.31 C3.37338616,13.9190174 3.49867353,13.5386807 3.66666667,13.1766667 L3.93333333,12.6133333 L3.20333333,11.2466667 L4.46666667,10.0833333 L5.76666667,10.9466667 L6.33,10.68 C6.56333333,10.6133333 6.73,10.5466667 6.89666667,10.5133333 C7.06333333,10.48 7.26333333,10.4466667 7.49666667,10.4133333 L8.13,10.3466667 L8.92666667,9.01333333 L10.5933333,9.54666667 L10.4933333,11.11 L10.95,11.53 C11.2698667,11.7880929 11.5505717,12.0912543 11.7833333,12.43 L12.15,12.9266667 L13.68,12.96 L14.0466667,14.66 L12.6833333,15.34 Z" id="Shape"></path>
                <path d="M22.7366667,5.15666667 C22.7033333,5.02333333 22.7033333,4.89 22.67,4.75666667 C22.6366667,4.62333333 22.6033333,4.52333333 22.57,4.39 L23.3666667,3.19666667 L21.2033333,0.833333333 L19.94,1.53 C19.7006059,1.43716053 19.4556929,1.35923364 19.2066667,1.29666667 L18.5733333,0 L15.4133333,0.7 L15.38,2.16333333 C15.1753561,2.32359106 14.9856883,2.5021019 14.8133333,2.69666667 L13.3466667,2.59666667 L12.3833333,5.65666667 L13.6133333,6.39 C13.6466667,6.52333333 13.6466667,6.65666667 13.68,6.79 C13.7133333,6.92333333 13.7466667,7.02333333 13.78,7.15666667 L13,8.35 L15.1633333,10.7133333 L16.46,10.0166667 C16.6993941,10.1095061 16.9443071,10.187433 17.1933333,10.25 L17.86,11.5466667 L20.97,10.8633333 L21.0033333,9.4 C21.2079773,9.23974227 21.397645,9.06123143 21.57,8.86666667 L23.0333333,8.96666667 L24,5.88666667 L22.7366667,5.15666667 Z M19.9733333,8.35 L19.5733333,8.68333333 L19.54,9.71666667 L18.5733333,9.91666667 L18.1066667,8.98333333 L17.61,8.88333333 C17.3449543,8.84107746 17.0869809,8.76256381 16.8433333,8.65 L16.3766667,8.41666667 L15.4466667,8.91666667 L14.78,8.18333333 L15.38,7.32 L15.2133333,6.82 C15.1525761,6.69506071 15.118519,6.55883219 15.1133333,6.42 C15.08,6.28666667 15.08,6.18666667 15.0466667,6.02 L15,5.49 L14.1,4.92333333 L14.4,3.99 L15.4666667,4.05666667 L15.8,3.65666667 C15.9743617,3.44332514 16.1761016,3.25391385 16.4,3.09333333 L16.8333333,2.79333333 L16.8666667,1.72666667 L17.8333333,1.52666667 L18.2966667,2.46 L18.7966667,2.56 C19.0606007,2.60697619 19.3179792,2.68530877 19.5633333,2.79333333 L20.03,3.02666667 L20.97,2.53 L21.6366667,3.26 L20.97,4.19333333 L21.1366667,4.69333333 C21.2009684,4.81695641 21.2352279,4.95399451 21.2366667,5.09333333 C21.27,5.19333333 21.27,5.32666667 21.3033333,5.49333333 L21.3366667,6.02333333 L22.2366667,6.59 L21.97,7.49 L20.9033333,7.42333333 L20.57,7.82333333 C20.402739,8.03176247 20.200915,8.20990878 19.9733333,8.35 L19.9733333,8.35 Z" id="Shape"></path>
                <path d="M17.1433333,7.38666667 C17.4499978,7.58511755 17.8080686,7.68941004 18.1733333,7.68666667 C18.3075322,7.69214586 18.4418924,7.68094918 18.5733333,7.65333333 C19.2455881,7.50506812 19.7876786,7.00942177 19.9954045,6.35309946 C20.2031304,5.69677715 20.0449333,4.97948986 19.5804045,4.47143278 C19.1158757,3.96337569 18.4155881,3.74173477 17.7433333,3.89 C17.2446665,3.98837782 16.8096975,4.29043964 16.5433333,4.72333333 C16.2743784,5.16052427 16.1792201,5.68270553 16.2766667,6.18666667 C16.4014521,6.68278634 16.7116046,7.11222828 17.1433333,7.38666667 M17.61,5.38666667 C17.6981888,5.22461742 17.8574688,5.11349182 18.04,5.08666667 L18.1733333,5.08666667 C18.4941483,5.07986674 18.7742902,5.30257961 18.84,5.61666667 C18.8742396,5.78999975 18.8382723,5.96983596 18.74,6.11666667 C18.6511316,6.27957286 18.4904285,6.39082882 18.3066667,6.41666667 C17.9487598,6.49766113 17.5926891,6.27418585 17.51,5.91666667 C17.4744542,5.73371208 17.5102319,5.54409034 17.61,5.38666667" id="Shape"></path>
            </g>
        </g>
    </g>
</svg>