<svg width="24" height="24" viewBox="0 0 24 24" fill="none" xmlns="http://www.w3.org/2000/svg">
<g id="Fill=false">
<g id="Vector">
<path d="M12.0008 10.2865L0.220015 1.00924C-0.0733383 0.775886 -0.0733383 0.402528 0.220015 0.172512C0.513368 -0.0575039 0.986734 -0.0575039 1.28009 0.172512L12.0008 8.61642L22.7216 0.172512C23.0149 -0.0575039 23.4883 -0.0575039 23.7816 0.172512C24.075 0.405861 24.075 0.77922 23.7816 1.00924L12.0008 10.2865Z" fill="#474747"/>
<path d="M12.0008 13.7135L23.7816 22.9908C24.075 23.2242 24.075 23.5975 23.7816 23.8275C23.4883 24.0575 23.0149 24.0575 22.7216 23.8275L12.0008 15.3836L1.28009 23.8275C0.986734 24.0575 0.513368 24.0575 0.220015 23.8275C-0.0733383 23.5942 -0.0733383 23.2208 0.220015 22.9908L12.0008 13.7135Z" fill="#474747"/>
</g>
</g>
</svg>
