<svg width="24" height="24" viewBox="0 0 24 24" fill="none" xmlns="http://www.w3.org/2000/svg">
<g clip-path="url(#clip0_15805_64056)">
<path d="M2.90667 24L7.75667 20.8367C8.63333 21.0767 9.55 21.2133 10.5 21.2133H13.5C19.3 21.2133 24 16.4633 24 10.6067C24 4.75 19.3 0 13.5 0H10.5C4.7 0 0 4.75 0 10.6067C0 13.4533 1.11667 16.0333 2.92333 17.9367L2.91 23.9967L2.90667 24ZM1.5 10.6067C1.5 5.59333 5.53667 1.51333 10.5 1.51333H13.5C18.4633 1.51333 22.5 5.59333 22.5 10.6067C22.5 15.62 18.4633 19.7 13.5 19.7H10.5C9.73 19.7 8.94 19.59 8.15 19.3733L7.50667 19.1967L6.94667 19.5633L4.41667 21.2133L4.42333 17.9433V17.3333L4.00667 16.8933C2.39 15.19 1.50333 12.9567 1.50333 10.61L1.5 10.6067ZM19.23 10.1267C19.23 10.5167 18.92 10.8367 18.5333 10.8367C18.1467 10.8367 17.8333 10.5233 17.83 10.1333L17.8033 7.87L14.3133 11.6367C14.2567 11.6833 14.1933 11.7133 14.13 11.74L14.1067 11.81L13.96 11.7833C13.84 11.7933 13.72 11.77 13.61 11.7167L10.9267 11.2033L7.15 14.9367C6.86667 15.17 6.44667 15.1233 6.22 14.8333C5.99333 14.5467 6.03667 14.13 6.32 13.9L10.1267 10.02L10.14 10.0333C10.3333 9.83 10.64 9.76333 10.9033 9.89333L13.7133 10.3467L16.81 6.88333L14.2333 6.91333C13.8467 6.91333 13.5333 6.6 13.53 6.21C13.53 5.82 13.84 5.5 14.2267 5.5L19.19 5.46L19.23 10.1367V10.1267Z" fill="black"/>
</g>
<defs>
<clipPath id="clip0_15805_64056">
<rect width="24" height="24" fill="white"/>
</clipPath>
</defs>
</svg>
