<?xml version="1.0" encoding="UTF-8"?>
<svg width="24px" height="24px" viewBox="0 0 24 24" version="1.1" xmlns="http://www.w3.org/2000/svg" xmlns:xlink="http://www.w3.org/1999/xlink">
    <title>Icon/Outline/community-outline</title>
    <g id="Icon/Outline/community-outline" stroke="none" stroke-width="1" fill="none" fill-rule="evenodd">
        <g id="Group" transform="translate(-0.000000, 0.000022)" fill="#474747" fill-rule="nonzero">
            <g id="community-outline" transform="translate(0.000000, 0.000000)">
                <path d="M11.9999582,8.99997817 C9.52432589,8.99623913 7.51517243,6.99631605 7.49998596,4.52072718 C7.4916635,2.69881969 8.58271203,1.05164972 10.2635386,0.348628414 C11.9443652,-0.354392896 13.883244,0.0254818744 15.1745034,1.31080906 C16.4657629,2.59613624 16.8545616,4.53324525 16.1592876,6.21729124 C15.4640135,7.90133726 13.821885,8.99997817 11.9999582,8.99997817 Z M11.9999582,1.6229943 L11.9999582,1.62988749 C11.2348043,1.63079783 10.5014526,1.9361008 9.96170092,2.478438 C9.42194936,3.02077521 9.12015457,3.75557762 9.12288226,4.52072718 C9.13240587,6.10975582 10.4269284,7.39093344 12.0159702,7.38400085 C13.6050121,7.37701179 14.8882607,6.0845422 14.8838555,4.49549128 C14.8794275,2.90644035 13.5890142,1.62112398 11.9999582,1.6229943 Z M3.73620288,11.1124738 C1.67131978,11.1030033 0.00186760631,9.4274134 -1.33226763e-15,7.36250954 C-1.33226763e-15,5.84455302 0.915146836,4.47632824 2.31809008,3.89672298 C3.72103332,3.31711774 5.33502095,3.64047225 6.40640702,4.71579724 C7.4777931,5.79112225 7.79522258,7.40628562 7.21047282,8.80709241 C6.62572307,10.2078992 5.25414921,11.1180088 3.73620288,11.1124738 Z M3.73620288,5.22655532 C3.1697126,5.22655532 2.62642429,5.45159271 2.22585516,5.85216183 C1.82528604,6.25273095 1.60024866,6.79601926 1.60024866,7.36250954 C1.60024866,8.54216448 2.55654794,9.49846376 3.73620288,9.49846376 C4.91585782,9.49846376 5.8721571,8.54216448 5.8721571,7.36250954 C5.8721571,6.1828546 4.91585782,5.22655532 3.73620288,5.22655532 Z M20.277434,11.1125521 C19.2783998,11.1189508 18.3180366,10.7268 17.6090248,10.0229446 C16.9000129,9.31908915 16.5008626,8.36161387 16.4999691,7.36255962 C16.4999691,5.2950844 18.1734019,3.61769061 20.2408711,3.61266753 C22.3083402,3.60766695 23.9898304,5.27692807 23.999955,7.34437872 C24.0099886,9.4118294 22.3448537,11.0974058 20.277434,11.1125521 Z M20.277434,5.23000617 C19.1004429,5.2318997 18.1467741,6.18556848 18.1448806,7.36255962 C18.1434945,8.22710822 18.6634008,9.00723598 19.4618745,9.33872629 C20.2603484,9.67021659 21.1799056,9.48768921 21.7912346,8.87636018 C22.4025636,8.26503123 22.585091,7.34547396 22.2536007,6.54700016 C21.9221104,5.74852637 21.1419826,5.22862011 20.277434,5.23000617 Z M19.2999638,12.8637538 C20.7771601,12.8429745 22.2389439,13.1678454 23.5699558,13.8127284 L23.999955,14.0306909 L23.999955,23.999955 L-1.77635684e-15,23.999955 L-1.77635684e-15,14.0306909 L0.433332521,13.8127284 C1.76434441,13.1678454 3.22612821,12.8429745 4.70332451,12.8637538 C5.23126321,12.8644009 5.75837112,12.9058801 6.27998822,12.9878247 L6.27998822,12.6323783 L6.70998742,12.4110627 C8.34825819,11.6275292 10.1427602,11.2306982 11.9566442,11.2508322 C13.8037507,11.2285755 15.6303452,11.6420178 17.2899676,12.4580085 L17.7133001,12.679324 L17.7133001,12.991178 C18.238191,12.9081209 18.7686221,12.8655223 19.2999638,12.8637538 Z M1.56666373,22.420566 L6.2766549,22.420566 L6.2766549,14.5772735 C4.6954605,14.2945812 3.06765003,14.4487171 1.56666373,15.0232581 L1.56666373,22.420566 Z M7.85665197,22.420566 L16.143303,22.420566 L16.143303,13.6551249 C14.8176933,13.093517 13.3915998,12.8116139 11.9533109,12.8268678 C10.5493402,12.8138367 9.1568004,13.0817004 7.85665197,13.6148857 L7.85665197,22.420566 Z M22.4332913,22.420566 L22.4332913,15.0232581 C20.9291707,14.447212 19.2977414,14.2930608 17.7133001,14.5772735 L17.7133001,22.420566 L22.4332913,22.420566 Z" id="Combined-Shape"></path>
            </g>
        </g>
    </g>
</svg>