<?xml version="1.0" encoding="UTF-8"?>
<svg width="24px" height="24px" viewBox="0 0 24 24" version="1.1" xmlns="http://www.w3.org/2000/svg" xmlns:xlink="http://www.w3.org/1999/xlink">
    <title>Icon/Outline/comment-outline</title>
    <g id="Icon/Outline/comment-outline" stroke="none" stroke-width="1" fill="none" fill-rule="evenodd">
        <g id="Group" transform="translate(-0.000000, -0.000000)" fill="#474747" fill-rule="nonzero">
            <g id="comment">
                <path d="M3,24 L3,17.8484742 C1.14421947,15.9546685 0,13.3609576 0,10.5 C0,4.70101014 4.70101014,0 10.5,0 L13.5,0 C19.29899,0 24,4.70101014 24,10.5 C24,16.2989899 19.29899,21 13.5,21 L10.5,21 C9.71103807,21 8.94239974,20.9129842 8.20315863,20.748026 L3,24 Z M4.50000001,21.2936286 L7.92964451,19.1501009 L8.52984206,19.2840321 C9.17097499,19.427098 9.83022732,19.5 10.5,19.5 L13.5,19.5 C18.4705628,19.5 22.5,15.4705628 22.5,10.5 C22.5,5.52943727 18.4705628,1.50000001 13.5,1.50000001 L10.5,1.50000001 C5.52943727,1.50000001 1.50000001,5.52943727 1.50000001,10.5 C1.50000001,12.888735 2.4327426,15.12643 4.07136141,16.7986243 L4.50000001,17.2360457 L4.50000001,21.2936286 Z" id="Combined-Shape"></path>
            </g>
        </g>
    </g>
</svg>