<?xml version="1.0" encoding="UTF-8"?>
<svg width="24px" height="24px" viewBox="0 0 24 24" version="1.1" xmlns="http://www.w3.org/2000/svg" xmlns:xlink="http://www.w3.org/1999/xlink">
    <title>Icon/Outline/compass-outline</title>
    <g id="Icon/Outline/compass-outline" stroke="none" stroke-width="1" fill="none" fill-rule="evenodd">
        <g id="Group" transform="translate(-0.000000, -0.000000)" fill="#474747" fill-rule="nonzero">
            <g id="compass">
                <path d="M13.0965208,14.1995563 L9.84281922,10.9458547 L8.75825201,15.2841235 L13.0965208,14.1995563 Z M10.9034793,9.88519452 L14.1571809,13.1388961 L15.2417481,8.80062739 L10.9034793,9.88519452 Z M12,0 C18.6000001,0 24,5.40000002 24,12 C24,18.6000001 18.6000001,24 12,24 C5.40000002,24 0,18.6000001 0,12 C0,5.40000002 5.40000002,0 12,0 Z M12.7500001,22.4250001 C17.9250001,22.1250001 22.1250001,17.9250001 22.4250001,12.7500001 L20.2500001,12.7500001 C19.8000001,12.7500001 19.5000001,12.4500001 19.5000001,12.0000001 C19.5000001,11.55 19.8000001,11.25 20.2500001,11.25 L22.4250001,11.25 C22.1250001,6.07500001 17.9250001,1.95000001 12.7500001,1.57500001 L12.7500001,3.75000002 C12.7500001,4.20000002 12.4500001,4.50000002 12.0000001,4.50000002 C11.55,4.50000002 11.25,4.20000002 11.25,3.75000002 L11.25,1.57500001 C6.07500001,1.87500001 1.87500001,6.07500001 1.57500001,11.25 L3.75000002,11.25 C4.20000002,11.25 4.50000002,11.55 4.50000002,12.0000001 C4.50000002,12.4500001 4.20000002,12.7500001 3.75000002,12.7500001 L1.57500001,12.7500001 C1.87500001,17.9250001 6.07500001,22.1250001 11.25,22.4250001 L11.25,20.2500001 C11.25,19.8000001 11.55,19.5000001 12.0000001,19.5000001 C12.4500001,19.5000001 12.7500001,19.8000001 12.7500001,20.2500001 L12.7500001,22.4250001 Z M14.3088523,15.442638 L7.90937733,17.0425068 C7.50753108,17.1429683 7.10033025,16.8986478 6.9998687,16.4968016 C6.9700112,16.3773716 6.9700112,16.2524281 6.9998687,16.1329981 L8.59973749,9.73352314 C8.73409444,9.19609534 9.15371996,8.77646981 9.69114777,8.64211286 L16.0906228,7.04224408 C16.492469,6.94178253 16.8996698,7.18610305 17.0001314,7.58794923 C17.0299889,7.70737923 17.0299889,7.83232271 17.0001314,7.95175271 L15.4002626,14.3512277 C15.2659057,14.8886555 14.8462801,15.308281 14.3088523,15.442638 Z" id="Combined-Shape"></path>
            </g>
        </g>
    </g>
</svg>