<svg width="24" height="24" viewBox="0 0 24 24" fill="none" xmlns="http://www.w3.org/2000/svg">
<g clip-path="url(#clip0_15805_64054)">
<path d="M21.534 21.9117C21.1873 22.5917 20.2173 23.715 18.8107 23.715C18.5973 23.715 18.374 23.6883 18.1407 23.6317C17.004 23.355 16.5773 22.5283 16.264 21.925C15.9607 21.3417 15.7807 21.0283 15.254 20.9117C14.0207 20.635 12.7873 22.1017 12.774 22.1183C12.544 22.4017 12.1273 22.4417 11.844 22.2117C11.5607 21.9817 11.5173 21.565 11.7507 21.2817C11.8207 21.195 13.504 19.1683 15.5407 19.6217C16.694 19.8783 17.124 20.7083 17.4373 21.3183C17.7407 21.9083 17.9273 22.2217 18.454 22.3483C19.6407 22.6383 20.3273 21.3617 20.3573 21.3083C20.5273 20.985 20.924 20.8583 21.2473 21.0283C21.5707 21.195 21.6973 21.5917 21.534 21.915V21.9117ZM23.8673 11.5217C23.6407 11.8083 23.2273 11.8583 22.9407 11.6317C22.9373 11.6317 21.894 10.8717 19.524 10.8717C19.194 10.8717 18.8907 10.8983 18.6073 10.9383C19.7307 12.6683 20.2407 14.3017 19.3907 15.1517C19.2207 15.3217 19.014 15.4317 18.7873 15.4983L3.99732 23.1617C3.92066 23.2017 3.83732 23.225 3.75066 23.2317C3.73066 23.2317 3.69066 23.235 3.63066 23.235C3.30066 23.235 2.40732 23.1483 1.56066 22.3017C0.557324 21.2983 0.620658 20.2283 0.630658 20.1083C0.637324 20.0217 0.663991 19.9383 0.700658 19.8617L8.34399 5.10167C8.41066 4.86167 8.52732 4.65167 8.70399 4.475C9.85066 3.32834 12.424 4.655 14.7407 6.63167C14.9007 6.42167 15.0107 6.19834 15.034 5.97167C15.0873 5.45167 14.8773 5.15167 14.5907 4.735C14.2407 4.22834 13.804 3.59834 13.9707 2.585C14.2673 0.778337 16.254 0.29167 17.3807 0.285004C17.744 0.285004 18.0407 0.578337 18.0407 0.945004C18.0407 1.31167 17.7473 1.60834 17.3807 1.60834C17.364 1.60834 15.4607 1.63834 15.2673 2.79834C15.1907 3.265 15.3507 3.525 15.6673 3.98167C16.0107 4.47834 16.4407 5.09834 16.3373 6.105C16.284 6.64167 16.0373 7.11167 15.7107 7.51834C15.814 7.61834 15.9207 7.72167 16.0207 7.82167C16.6307 8.43167 17.2173 9.09167 17.7407 9.755C18.2573 9.63167 18.8473 9.54834 19.5073 9.54834C22.3307 9.54834 23.604 10.485 23.7407 10.5917C24.0273 10.8183 24.0773 11.2317 23.8507 11.5183L23.8673 11.5217ZM16.584 15.1483C15.144 14.5083 13.4773 13.2217 12.0573 11.8017C10.6373 10.3817 9.35066 8.715 8.71066 7.275L1.94732 20.3283C1.96732 20.515 2.06066 20.9417 2.49066 21.3717C2.91732 21.7983 3.34066 21.8917 3.53399 21.9117L16.5873 15.1483H16.584ZM17.2507 11.2983C16.544 11.585 16.1607 11.9117 16.134 11.935C16.0073 12.045 15.8507 12.0983 15.6973 12.0983C15.514 12.0983 15.334 12.025 15.204 11.8783C14.964 11.605 14.984 11.1917 15.254 10.9483C15.2873 10.9183 15.694 10.5617 16.4307 10.215C16.0473 9.75167 15.6073 9.26167 15.1007 8.755C14.984 8.63834 14.8707 8.53167 14.7573 8.42167C14.1107 8.895 13.4873 9.175 13.354 9.23167C13.2707 9.26834 13.1807 9.285 13.094 9.285C12.8373 9.285 12.594 9.135 12.4873 8.885C12.344 8.54834 12.5007 8.16167 12.834 8.01834C13.0373 7.93167 13.3873 7.75167 13.7473 7.51167C11.704 5.795 10.3007 5.36834 9.81732 5.36834C9.76066 5.36834 9.72066 5.375 9.69066 5.385L9.60732 5.54834C9.58399 6.08834 10.1673 8.03834 12.9973 10.865C15.8273 13.695 17.774 14.2783 18.314 14.255L18.4807 14.1683C18.6207 13.8783 18.2973 12.7983 17.254 11.2983H17.2507ZM2.42732 4.865C3.02399 7.15834 2.55399 8.36167 2.55399 8.365C2.40732 8.69834 2.56066 9.08834 2.89732 9.235C2.98399 9.27167 3.07399 9.29167 3.16066 9.29167C3.41732 9.29167 3.65732 9.14167 3.76732 8.895C3.83732 8.735 4.42066 7.26834 3.70732 4.535C3.03066 1.935 1.34732 0.80167 1.27732 0.75167C0.973991 0.55167 0.567324 0.635004 0.363991 0.938337C0.160658 1.24167 0.243991 1.65167 0.543991 1.855C0.597324 1.89167 1.88399 2.785 2.42399 4.865H2.42732ZM20.944 3.89834C20.444 3.89834 20.0373 4.305 20.0373 4.805C20.0373 5.305 20.444 5.71167 20.944 5.71167C21.444 5.71167 21.8507 5.305 21.8507 4.805C21.8507 4.305 21.444 3.89834 20.944 3.89834ZM0.913991 11.605C0.413991 11.605 0.00732422 12.0117 0.00732422 12.5117C0.00732422 13.0117 0.413991 13.4183 0.913991 13.4183C1.41399 13.4183 1.82066 13.0117 1.82066 12.5117C1.82066 12.0117 1.41399 11.605 0.913991 11.605ZM22.2173 15.845L21.0207 17.0417L22.2173 18.2383L23.414 17.0417L22.2173 15.845ZM6.83732 0.948337L5.64066 2.145L6.83732 3.34167L8.03399 2.145L6.83732 0.948337Z" fill="black"/>
</g>
<defs>
<clipPath id="clip0_15805_64054">
<rect width="24" height="24" fill="white"/>
</clipPath>
</defs>
</svg>
