<?xml version="1.0" encoding="UTF-8"?>
<svg width="24px" height="24px" viewBox="0 0 24 24" version="1.1" xmlns="http://www.w3.org/2000/svg" xmlns:xlink="http://www.w3.org/1999/xlink">
    <title>Icon/Outline/confirmed-outline</title>
    <g id="Icon/Outline/confirmed-outline" stroke="none" stroke-width="1" fill="none" fill-rule="evenodd">
        <g id="Group" transform="translate(-0.000000, -0.000000)" fill="#474747" fill-rule="nonzero">
            <g id="confirmed">
                <path d="M22.3150001,10.074 L23.5620001,8.82300004 C23.8420001,9.83500002 24,10.8980001 24,12 C24,18.6280001 18.6280001,24 12,24 C5.37300002,24 0,18.6280001 0,12 C0,5.37300002 5.37300002,0 12,0 C14.1980001,0 16.2480001,0.604000002 18.0180001,1.63700001 L16.9260001,2.73200001 C15.424,1.93000001 13.7420001,1.5 12,1.5 C6.21100002,1.5 1.5,6.21100002 1.5,12 C1.5,17.7900001 6.21100002,22.5 12,22.5 C17.7900001,22.5 22.5,17.7900001 22.5,12 C22.5,11.3480001 22.4330001,10.705 22.3150001,10.074 Z M8.69960006,10.4168001 L11.6346,13.3518001 L21.6126001,3.34280002 L22.6746001,4.40180002 L11.6356,15.4738 L7.63860003,11.4778 L8.69960006,10.4168001 Z" id="Combined-Shape"></path>
            </g>
        </g>
    </g>
</svg>