<?xml version="1.0" encoding="UTF-8"?>
<svg width="24px" height="24px" viewBox="0 0 24 24" version="1.1" xmlns="http://www.w3.org/2000/svg" xmlns:xlink="http://www.w3.org/1999/xlink">
    <title>Icon/Outline/configuration-outline</title>
    <g id="Icon/Outline/configuration-outline" stroke="none" stroke-width="1" fill="none" fill-rule="evenodd">
        <g id="Group" fill="#474747" fill-rule="nonzero">
            <g id="Outline">
                <path d="M7.82296739,0.003332722 L7.82296739,7.6186025 C5.78923454,7.7396675 3.86435312,8.57811279 2.39063052,9.98483512 C0.057440258,12.314992 -0.641390497,15.8216503 0.620289619,18.8682174 C1.88196974,21.9147845 4.85542224,23.9006338 8.15290687,23.8989495 C10.3080951,23.9218096 12.3829168,23.0818008 13.9151832,21.5660441 C15.3118791,20.105712 16.1496311,18.2001211 16.2814158,16.1836981 L18.7342992,16.1836981 L23.9633401,10.3714309 L24,10.3314382 L24,0 L7.82296739,0.003332722 Z M22.153672,10.4580816 L18.9109335,14.4240208 L18.9109335,10.4580816 L22.153672,10.4580816 Z M22.7668929,1.23977259 L22.7668929,9.5415831 L17.6678282,9.5415831 L17.6678282,14.9505909 L16.268085,14.9505909 C16.0951463,13.0771073 15.296909,11.3162897 14.001834,9.9515079 C12.6490618,8.66087946 10.908294,7.85258215 9.04940909,7.65192972 L9.04940909,1.23977259 L22.7668929,1.23977259 Z M13.0020174,20.6162183 C11.0381999,22.5823193 8.08320635,23.171443 5.5155541,22.1087605 C2.94790186,21.046078 1.27352324,18.5409812 1.27352324,15.7621087 C1.27352324,12.9832363 2.94790186,10.4781394 5.5155541,9.41545694 C8.08320635,8.35277445 11.0381999,8.9418981 13.0020174,10.9079991 C14.3007967,12.1893139 15.0319295,13.9376649 15.0319295,15.7621087 C15.0319295,17.5865526 14.3007967,19.3349035 13.0020174,20.6162183 Z" id="Shape"></path>
                <path d="M11.555616,18.2066603 C11.6189378,18.0966805 11.7022558,18.0100297 11.7622448,17.9000499 C11.8222338,17.7900701 11.8655592,17.7034193 11.9288809,17.5967722 L13.2119789,17.3068254 L13.2686351,14.3806954 L11.9922026,14.0474232 C11.8943839,13.8350035 11.7830655,13.6290644 11.6589304,13.4308697 L12.0588571,12.1744335 L9.52932106,10.6447141 L8.58282801,11.5945399 C8.3478128,11.5728988 8.11130616,11.5728988 7.87629094,11.5945399 L6.96979056,10.5947233 L4.40359462,12.0077974 L4.75353043,13.2842299 C4.69020871,13.3942097 4.60689066,13.4841932 4.54356894,13.5908403 L4.38026556,13.8974508 L3.09716759,14.1840649 L3.03717859,17.1101948 L4.33694018,17.4567979 C4.43405216,17.668498 4.54539795,17.8733742 4.67021238,18.0700187 L4.29694751,19.349784 L6.80315446,20.8561743 L7.74964751,19.9096813 C7.98577519,19.9313392 8.22338962,19.9313392 8.45951729,19.9096813 L9.36268496,20.9094979 L11.9322136,19.493091 L11.555616,18.2066603 Z M7.71632029,18.5799252 L7.24307376,18.546598 L6.57652936,19.2131424 L5.81333602,18.7398958 L6.09328467,17.8300627 L5.82666691,17.4467997 C5.67711639,17.2539649 5.55591147,17.040734 5.46673293,16.8135825 L5.30676228,16.363665 L4.37360012,16.1070454 L4.39692917,15.2038778 L5.33675678,15.0039145 L5.54338554,14.5673279 C5.58121889,14.444942 5.6435868,14.3315458 5.72668525,14.2340557 C5.79000697,14.1240759 5.85332869,14.0607541 5.93664674,13.9274453 L6.24992261,13.5541804 L6.00330118,12.6176855 L6.78982357,12.1910971 L7.45636797,12.9076323 L7.92628177,12.850976 C8.17634949,12.8193282 8.42940923,12.8193282 8.67947695,12.850976 L9.15272347,12.9276287 L9.84592965,12.2444206 L10.609123,12.7209999 L10.3358398,13.6374984 L10.6024575,14.0174287 C10.7464686,14.2150946 10.8672419,14.4286844 10.9623915,14.6539787 L11.1223622,15.1005634 L12.0521916,15.357183 L12.0321953,16.2603507 L11.0023842,16.4569813 L10.7957554,16.8935678 C10.7613954,17.0173979 10.6986338,17.1315099 10.6124557,17.22684 C10.5691303,17.3134908 10.4858123,17.4001416 10.4024942,17.5334505 L10.0892184,17.9033826 L10.3358398,18.8398775 L9.59264278,19.2631332 L8.92609837,18.5499307 L8.44951913,18.6165851 C8.20480915,18.6460369 7.95687193,18.6336401 7.71632029,18.5799252 L7.71632029,18.5799252 Z M6.45655137,16.1570363 C6.5318078,16.4834556 6.70369685,16.7796158 6.94979423,17.0068804 C7.0343266,17.0949765 7.12948349,17.1722215 7.2330756,17.2368382 C7.77010242,17.6240766 8.4790363,17.6771033 9.06769439,17.3740637 C9.65635249,17.0710241 10.0250899,16.4632151 10.0219539,15.8011415 C10.0187777,15.139068 9.64426228,14.5348021 9.05274181,14.2373884 C8.66127754,13.9895592 8.18430569,13.9159003 7.73631662,14.0340924 C7.28231369,14.1532085 6.88972169,14.43873 6.63651836,14.8339456 C6.40713686,15.2385661 6.34267329,15.716074 6.45655137,16.1670344 M8.01959799,15.1405561 C8.18170902,15.0902483 8.35801691,15.1186055 8.49617724,15.2172087 L8.58282801,15.3005267 C8.79722334,15.4989799 8.84184943,15.8211244 8.68947511,16.0703855 C8.60306161,16.2080966 8.46498176,16.3053528 8.30621208,16.340336 C8.14518429,16.3905966 7.96989488,16.3622046 7.83296556,16.2636834 C7.69317253,16.1824164 7.59185922,16.0484277 7.55175759,15.8917807 C7.51165597,15.7351337 7.53612386,15.568945 7.61967135,15.4305029 C7.7109253,15.2862004 7.85407427,15.1824174 8.01959799,15.1405561" id="Shape"></path>
            </g>
        </g>
    </g>
</svg>