<svg width="24" height="24" viewBox="0 0 24 24" fill="none" xmlns="http://www.w3.org/2000/svg">
<g clip-path="url(#clip0_15805_64058)">
<path d="M8.83667 20.25H7.50333V18.7233H8.83667V20.25ZM8.83667 17.3H7.50333V15.7733H8.83667V17.3ZM8.83667 14.35H7.50333V12.8233H8.83667V14.35ZM8.83667 11.4H7.50333V9.87333H8.83667V11.4ZM8.83667 8.45H7.50333V6.92333H8.83667V8.45ZM8.83667 5.5H7.50333V3.97333H8.83667V5.5ZM16.4333 20.25H15.1V18.7233H16.4333V20.25ZM16.4333 17.3H15.1V15.7733H16.4333V17.3ZM16.4333 14.35H15.1V12.8233H16.4333V14.35ZM16.4333 11.4H15.1V9.87333H16.4333V11.4ZM16.4333 8.45H15.1V6.92333H16.4333V8.45ZM16.4333 5.5H15.1V3.97333H16.4333V5.5ZM0 0V22.5C0 23.33 0.67 24 1.5 24H22.5C23.33 24 24 23.33 24 22.5V0H0ZM22.5 22.5H16.4333V21.67H15.1V22.5H8.83667V21.67H7.50333V22.5H1.5V1.44667H7.50333V2.55H8.83667V1.44667H15.1V2.55H16.4333V1.44667H22.5V22.5Z" fill="black"/>
</g>
<defs>
<clipPath id="clip0_15805_64058">
<rect width="24" height="24" fill="white"/>
</clipPath>
</defs>
</svg>
