<?xml version="1.0" encoding="UTF-8"?>
<svg width="24px" height="24px" viewBox="0 0 24 24" version="1.1" xmlns="http://www.w3.org/2000/svg" xmlns:xlink="http://www.w3.org/1999/xlink">
    <title>Icon/Outline/contacts-outline</title>
    <g id="Icon/Outline/contacts-outline" stroke="none" stroke-width="1" fill="none" fill-rule="evenodd">
        <g id="Group" fill="#474747" fill-rule="nonzero">
            <g id="Outline">
                <path d="M3,3.25 L0,3.25 L0,4.75 L3,4.75 L3,11.1933333 L0,11.1933333 L0,12.71 L3,12.71 L3,19.23 L0,19.23 L0,20.73 L3,20.73 L3,24 L22.5,24 C23.3276666,23.9981668 23.9981668,23.3276666 24,22.5 L24,1.5 C23.9981668,0.672333382 23.3276666,0.00183315539 22.5,0 L3,0 L3,3.25 Z M22.5,1.5 L22.5,22.5 L4.5,22.5 L4.5,1.5 L22.5,1.5 Z" id="Shape"></path>
                <path d="M13.5,5.23333333 C14.7352612,5.23333333 15.8488277,5.97761604 16.3212297,7.11897779 C16.7936317,8.26033955 16.5317899,9.57389378 15.6578514,10.4468782 C14.7839129,11.3198626 13.4700734,11.5802694 12.3292284,11.106621 C11.1883833,10.6329726 10.4453181,9.51859383 10.4466648,8.28333333 C10.4503391,6.59908733 11.815751,5.23516603 13.5,5.23333333 M13.5,4.06666534 C11.7925634,4.06531851 10.2525648,5.09299407 9.59853421,6.6702022 C8.9445036,8.24741034 9.30533699,10.0633156 10.5126774,11.270656 C11.7200177,12.4779963 13.535923,12.8388297 15.1131311,12.1847991 C16.6903393,11.5307685 17.7180148,9.99076993 17.716668,8.28333333 C17.7129959,5.95605483 15.8272785,4.07033746 13.5,4.06666534 Z" id="Shape"></path>
                <path d="M13.5,14.85 C15.347279,14.8339009 17.1819202,15.1558669 18.9133333,15.8 L18.9133333,18.7666667 L8.08333333,18.7666667 L8.08333333,15.8 C9.81589332,15.1558297 11.6516333,14.8338691 13.5,14.85 M13.5,13.6833333 C11.3390437,13.6590927 9.19569102,14.0741547 7.2,14.9033333 C7.02907276,14.9800958 6.91843783,15.1493022 6.91666667,15.3366667 L6.91666667,19.46 C6.91666667,19.5855358 6.96653557,19.70593 7.05530279,19.7946972 C7.14407001,19.8834644 7.26446419,19.9333333 7.39,19.9333333 L19.6066667,19.9333333 C19.8680814,19.9333333 20.08,19.7214148 20.08,19.46 L20.08,15.3333333 C20.08,15.1454594 19.9687403,14.9754142 19.7966667,14.9 C17.801825,14.0722282 15.6596233,13.6583036 13.5,13.6833333 Z" id="Shape"></path>
            </g>
        </g>
    </g>
</svg>