<svg width="24" height="24" viewBox="0 0 24 24" fill="none" xmlns="http://www.w3.org/2000/svg">
<g clip-path="url(#clip0_15805_64060)">
<path d="M4.44667 12.67C3.89333 12.67 3.44667 13.1167 3.44667 13.67C3.44667 14.2233 3.89333 14.67 4.44667 14.67C5 14.67 5.44667 14.2233 5.44667 13.67C5.44667 13.1167 5 12.67 4.44667 12.67Z" fill="black"/>
<path d="M8.25 9.00334C7.69667 9.00334 7.25 9.45001 7.25 10.0033C7.25 10.5567 7.69667 11.0033 8.25 11.0033C8.80333 11.0033 9.25 10.5567 9.25 10.0033C9.25 9.45001 8.80333 9.00334 8.25 9.00334Z" fill="black"/>
<path d="M8.25 15.0033C7.69667 15.0033 7.25 15.45 7.25 16.0033C7.25 16.5567 7.69667 17.0033 8.25 17.0033C8.80333 17.0033 9.25 16.5567 9.25 16.0033C9.25 15.45 8.80333 15.0033 8.25 15.0033Z" fill="black"/>
<path d="M23.9 12.0933C23.47 12.3067 22.9867 12.4267 22.4767 12.4267C20.7033 12.4267 19.2667 10.99 19.2667 9.21334C19.2667 8.78334 19.35 8.37667 19.5033 8.00001C19.34 8.02334 19.1733 8.03667 19 8.03667C17.1367 8.03667 15.6233 6.52334 15.6233 4.65667C15.6233 4.65667 15.6233 4.65334 15.6233 4.65001C13.2233 4.53667 11.31 2.55001 11.31 0.120007C11.31 0.0800069 11.31 0.0366736 11.31 -0.00332642C5.00667 0.360007 0 5.59001 0 11.9933C0 18.3967 5.37333 24.0033 12 24.0033C18.6267 24.0033 23.92 18.7033 24 12.1367C23.9667 12.1233 23.9333 12.1067 23.9 12.0933ZM12 22.5033C11.5 22.5033 11.0067 22.4667 10.5233 22.3967C10.7633 22.1067 10.9133 21.74 10.9133 21.3367C10.9133 20.4167 10.1667 19.67 9.24667 19.67C8.32667 19.67 7.58 20.4167 7.58 21.3367C7.58 21.4033 7.59333 21.47 7.6 21.5333C4 19.8633 1.49667 16.2167 1.49667 11.9933C1.49667 9.12667 2.64667 6.51334 4.52333 4.61334C4.47333 4.73334 4.44333 4.86667 4.44333 5.00334C4.44333 5.55667 4.89 6.00334 5.44333 6.00334C5.99667 6.00334 6.44333 5.55667 6.44333 5.00334C6.44333 4.45001 5.99667 4.00334 5.44333 4.00334C5.32333 4.00334 5.21333 4.02667 5.10667 4.06667C6.47333 2.87334 8.15333 2.02667 10.0133 1.67334C10.2667 2.63334 10.75 3.50001 11.4033 4.21001C11.16 4.39334 11.0033 4.68001 11.0033 5.00667C11.0033 5.56001 11.45 6.00667 12.0033 6.00667C12.4133 6.00667 12.7633 5.76001 12.92 5.40667C13.3533 5.64667 13.8167 5.83667 14.3067 5.96667C14.77 7.63667 16.0967 8.94667 17.7733 9.38667C17.86 11.8567 19.8567 13.85 22.3267 13.9267C22.3133 13.99 22.3 14.0533 22.2867 14.1167C22.15 14.0467 22 14.0067 21.84 14.0067C21.2867 14.0067 20.84 14.4533 20.84 15.0067C20.84 15.5133 21.22 15.93 21.71 15.9933C20.1267 19.8067 16.36 22.5067 12.0067 22.5067L12 22.5033Z" fill="black"/>
<path d="M16.5633 16.0033C16.01 16.0033 15.5633 16.45 15.5633 17.0033C15.5633 17.5567 16.01 18.0033 16.5633 18.0033C17.1167 18.0033 17.5633 17.5567 17.5633 17.0033C17.5633 16.45 17.1167 16.0033 16.5633 16.0033Z" fill="black"/>
<path d="M13.4767 13.67C14.3971 13.67 15.1433 12.9238 15.1433 12.0033C15.1433 11.0829 14.3971 10.3367 13.4767 10.3367C12.5562 10.3367 11.81 11.0829 11.81 12.0033C11.81 12.9238 12.5562 13.67 13.4767 13.67Z" fill="black"/>
</g>
<defs>
<clipPath id="clip0_15805_64060">
<rect width="24" height="24" fill="white"/>
</clipPath>
</defs>
</svg>
