<?xml version="1.0" encoding="UTF-8"?>
<svg width="24px" height="24px" viewBox="0 0 24 24" version="1.1" xmlns="http://www.w3.org/2000/svg" xmlns:xlink="http://www.w3.org/1999/xlink">
    <title>Icon/Outline/cost-dollar-outline</title>
    <g id="Icon/Outline/cost-dollar-outline" stroke="none" stroke-width="1" fill="none" fill-rule="evenodd">
        <g id="Group" fill="#474747" fill-rule="nonzero">
            <g id="Outline">
                <path d="M12.0333803,23.999954 C18.6607336,23.9814727 24.0183254,18.5940059 23.9999549,11.9666525 C23.9814897,5.33929911 18.5940367,-0.0183065207 11.9666833,4.70146993e-05 C5.33932984,0.0184950636 -0.0182896494,5.4059343 4.69278672e-05,12.0332878 C0.00892234409,15.215877 1.28167398,18.2646072 3.53835556,20.5087864 C5.79503714,22.7529656 8.85079114,24.0087604 12.0333803,23.999954 Z M11.9700472,1.49995205 C17.7689796,1.48345101 22.4833597,6.17099402 22.4999639,11.9699264 C22.5164806,17.7688587 17.8289504,22.4832515 12.0300181,22.4998716 C6.23108584,22.5164041 1.51668027,17.8288867 1.50006863,12.0299545 C1.48901541,6.23324683 6.17337094,1.52204687 11.9700472,1.49995205 L11.9700472,1.49995205 Z M15.0600351,11.9999546 C14.5667037,11.546623 13.7600402,11.1932911 12.6533779,10.9399587 L12.6533779,8.60663454 C12.9015391,8.63164073 13.1306312,8.75095953 13.2933753,8.93996656 C13.5070283,9.19394609 13.6249675,9.51474093 13.6267074,9.84662968 L15.4933667,9.84662968 C15.4875114,9.11658179 15.1898409,8.41921642 14.6667033,7.9099706 C14.1058831,7.42461619 13.4057316,7.12938567 12.6667111,7.06664057 L12.6667111,5.99997808 L11.5967153,5.99997808 L11.5967153,7.06997389 C10.8355751,7.11878957 10.1121822,7.41893312 9.54005672,7.92330388 C8.99959526,8.42135004 8.70065262,9.12860456 8.72005993,9.86329628 C8.70382845,10.3033582 8.81245757,10.7390303 9.03339203,11.119958 C9.22257778,11.4358947 9.49008993,11.6976663 9.81005566,11.879955 C10.0499855,12.0208351 10.3007815,12.1423319 10.5600527,12.243287 C10.7333854,12.30662 11.0800507,12.409953 11.5967153,12.5499524 L11.5967153,15.2966083 C11.2658707,15.2087902 10.9687534,15.0242525 10.7433853,14.7666104 C10.4886593,14.4575171 10.3537633,14.0670288 10.3633868,13.6666147 L10.3633868,13.6266149 L8.49672747,13.6266149 C8.52947818,14.5112336 8.88523472,15.3531908 9.49672747,15.9932723 C10.0776227,16.5224368 10.8223198,16.8365507 11.6067153,16.8832688 L11.6067153,17.9999311 L11.7800479,17.9999311 L11.7800479,17.9999311 L12.5533782,17.9999311 L12.5533782,17.9999311 L12.6667111,17.9999311 L12.6667111,16.8699355 C13.2391616,16.8408781 13.7985818,16.6885157 14.3067047,16.4232706 C14.7756927,16.178461 15.1704984,15.8124313 15.4500336,15.3632747 C15.6999384,14.9726968 15.8361366,14.5202416 15.8433654,14.0566132 C15.8940763,13.2897198 15.6080698,12.5388006 15.0600351,11.9999546 Z M10.8667182,10.3332944 C10.6768147,10.165249 10.5737591,9.91987859 10.5867193,9.66663038 C10.5735694,9.36660502 10.6959536,9.07655438 10.9200513,8.87663348 C11.1064591,8.71259954 11.3396264,8.61117177 11.5867154,8.58663462 L11.5867154,10.6699598 C11.3266096,10.6070377 11.0817766,10.4925555 10.8667182,10.3332944 Z M13.5633743,14.9199431 C13.3095423,15.1396717 12.998648,15.2829835 12.6667111,15.3332748 L12.6667111,12.8499512 C13.0265964,12.9285747 13.3667897,13.0793937 13.6667111,13.2932828 C13.881148,13.4870624 13.995317,13.7681882 13.976706,14.0566132 C13.9799958,14.395672 13.8276676,14.7175267 13.5633743,14.9299431 L13.5633743,14.9199431 Z" id="Shape"></path>
            </g>
        </g>
    </g>
</svg>