<?xml version="1.0" encoding="UTF-8"?>
<svg width="24px" height="24px" viewBox="0 0 24 24" version="1.1" xmlns="http://www.w3.org/2000/svg" xmlns:xlink="http://www.w3.org/1999/xlink">
    <title>Icon/Outline/credit-card-payment-outline</title>
    <g id="Icon/Outline/credit-card-payment-outline" stroke="none" stroke-width="1" fill="none" fill-rule="evenodd">
        <g id="Group" transform="translate(0.000000, 1.000000)" fill="#474747" fill-rule="nonzero">
            <g id="Outline">
                <path d="M3.73009989,0 L21.3972397,0.0466679164 L21.3972397,9.15024504 C21.3954016,9.97739227 20.7243488,10.6469555 19.8971995,10.6469555 L19.8971995,10.6469555 L5.23014006,10.6469555 C4.83261151,10.6478372 4.45106137,10.4905398 4.16965303,10.2097568 C3.8882447,9.92897384 3.73009989,9.54777458 3.73009989,9.15024504 L3.73009989,9.15024504 L3.73009989,0 Z M19.8971995,4.83012935 L5.23014006,4.83012935 L5.23014006,9.16357873 L19.8971995,9.16357873 L19.8971995,4.83012935 Z M15.9604274,7.17352544 C16.3949031,7.17352544 16.7471152,7.52424511 16.7471152,7.95687975 C16.7471152,8.38951439 16.3949031,8.74023406 15.9604274,8.74023406 C15.5259518,8.74023406 15.1737397,8.38951439 15.1737397,7.95687975 C15.1737397,7.52424511 15.5259518,7.17352544 15.9604274,7.17352544 Z M18.5804976,7.17352544 C19.0149732,7.17352544 19.3671853,7.52424511 19.3671853,7.95687975 C19.3671853,8.38951439 19.0149732,8.74023406 18.5804976,8.74023406 C18.1460219,8.74023406 17.7938098,8.38951439 17.7938098,7.95687975 C17.7938098,7.52424511 18.1460219,7.17352544 18.5804976,7.17352544 Z M19.8971995,1.49670675 L5.23014006,1.49670675 L5.23014006,2.68340519 L19.8971995,2.68340519 L19.8971995,1.49670675 Z M23.9706419,17.0371229 C23.8675048,16.459291 23.7215429,15.8899283 23.5339636,15.333744 L23.5072962,15.2637421 L23.450628,15.2104073 C23.1172857,14.9203996 23.1172857,14.9137327 16.493775,15.5970844 C16.47079,14.9043519 15.9398489,14.3349781 15.2504084,14.2637153 L8.45355972,13.4870278 L7.4035316,12.6670059 L0,10.6902863 L0,19.9005329 L0.596682646,20.0805378 C2.45673246,20.6338859 5.46681307,21.5405769 6.29683529,21.8272512 C6.51017434,21.9872555 6.82684949,22.0005892 7.29686207,22.0005892 L7.88354445,22.0005892 C8.50356106,22.0005892 9.33358328,21.9772552 10.1602721,21.9605881 C11.8269834,21.9272539 13.4670273,21.8872528 13.4670273,21.8872528 L13.5903639,21.8872528 L23.000616,18.7238348 C23.7020186,18.485417 24.117323,17.7632726 23.9706419,17.0371229 Z M1.6667113,12.8603444 L6.6668452,14.1937134 L7.80687573,15.097071 L14.8303972,15.9137595 L14.8303972,16.9804547 L7.35353026,16.9804547 L7.35353026,18.647166 L14.8703982,18.647166 C15.6590232,18.6414242 16.3289328,18.0686234 16.4571074,17.290463 C18.4404938,17.0971245 21.0005624,16.8237839 22.2139282,16.7171143 C22.2405956,16.8537847 22.2705964,17.0104555 22.3105975,17.2004606 L13.3103564,20.2205415 C11.0702965,20.2738763 7.64353803,20.3472116 7.00685431,20.3338779 C6.39017113,20.0672041 5.09013631,19.6671933 1.67337815,18.6671666 L1.6667113,12.8603444 Z" id="Combined-Shape"></path>
            </g>
        </g>
    </g>
</svg>