<?xml version="1.0" encoding="UTF-8"?>
<svg width="24px" height="24px" viewBox="0 0 24 24" version="1.1" xmlns="http://www.w3.org/2000/svg" xmlns:xlink="http://www.w3.org/1999/xlink">
    <title>Icon/Outline/credit-card-outline</title>
    <g id="Icon/Outline/credit-card-outline" stroke="none" stroke-width="1" fill="none" fill-rule="evenodd">
        <g id="Group" transform="translate(0.000000, 4.000000)" fill="#474747" fill-rule="nonzero">
            <g id="Outline">
                <path d="M3.6944869e-06,8.8817842e-16 L24.0000037,0.0466666378 L24.0000037,14.5 C24.0008802,14.898087 23.8431301,15.2801335 23.5616331,15.5616306 C23.280136,15.8431276 22.8980894,16.0008777 22.4999935,16 L22.4999935,16 L1.50000369,16 C1.10191056,16.0008777 0.719863982,15.8431276 0.438366946,15.5616306 C0.156869911,15.2801335 -0.000880199569,14.898087 3.6944869e-06,14.5 L3.6944869e-06,14.5 L3.6944869e-06,8.8817842e-16 Z M22.4999935,5.4999966 L1.50000649,5.4999966 L1.50000649,14.4999966 L22.4999935,14.4999966 L22.4999935,5.4999966 Z M17.1633308,11.7366594 C17.7156145,11.7366594 18.1633308,12.1843744 18.1633308,12.7366594 C18.1633308,13.2889432 17.7156145,13.7366594 17.1633308,13.7366594 C16.6110457,13.7366594 16.1633308,13.2889432 16.1633308,12.7366594 C16.1633308,12.1843744 16.6110457,11.7366594 17.1633308,11.7366594 Z M20.496662,11.7366594 C21.0489458,11.7366594 21.496662,12.1843744 21.496662,12.7366594 C21.496662,13.2889432 21.0489458,13.7366594 20.496662,13.7366594 C19.944377,13.7366594 19.496662,13.2889432 19.496662,12.7366594 C19.496662,12.1843744 19.944377,11.7366594 20.496662,11.7366594 Z M22.4999935,1.49999907 L1.50000649,1.49999907 L1.50000649,2.68999834 L22.4999935,2.68999834 L22.4999935,1.49999907 Z" id="Combined-Shape"></path>
            </g>
        </g>
    </g>
</svg>