<svg width="24" height="24" viewBox="0 0 24 24" fill="none" xmlns="http://www.w3.org/2000/svg">
<path d="M4.29333 2.00166C4.92667 2.00166 5.61333 2.19166 6.35333 2.56833L5.66333 3.98166C5.12667 3.64166 4.63333 3.47166 4.18 3.47166C3.38667 3.47166 2.86 3.98833 2.59333 5.02166H5.35667L5.00667 5.835H2.47L2.46 6.19833V6.31166H4.87333L4.52333 7.125H2.55333C2.79667 8.31833 3.35333 8.91166 4.23 8.91166C4.79 8.91166 5.37 8.675 5.97333 8.19833L5.96333 9.90833C5.46333 10.2083 4.88 10.3617 4.20667 10.3617C3.31667 10.3617 2.58 10.0817 2.00333 9.525C1.42667 8.96833 1.05333 8.16833 0.886667 7.125H0.01L0.36 6.31166H0.813333V6.01833L0.823333 5.83833H0L0.35 5.025H0.926667C1.11667 4.08833 1.50667 3.35166 2.1 2.81166C2.69333 2.27166 3.42333 2.00166 4.29 2.00166H4.29333ZM20.5 11.705H21.1667V12.575C21.9433 12.6583 22.5533 12.905 22.9967 13.315C23.4367 13.725 23.6767 14.2817 23.7167 14.985H22.1067C22.0933 14.6683 21.9933 14.4083 21.8133 14.205C21.6333 14.0017 21.4167 13.8983 21.1667 13.8983V15.9017C22.17 16.1217 22.8933 16.4317 23.3367 16.835C23.78 17.2383 24 17.8283 24 18.605C24 18.9817 23.8867 19.3583 23.66 19.7317C23.4333 20.105 23.1067 20.4083 22.6733 20.6417C22.2433 20.875 21.74 21.0083 21.1667 21.0383V21.9983H20.5V21.0383C19.6767 20.985 19.0233 20.725 18.5333 20.2583C18.0433 19.7917 17.76 19.1117 17.6767 18.2217H19.2867V18.255C19.2867 18.6383 19.3967 18.9617 19.6167 19.215C19.8367 19.4717 20.13 19.6383 20.5 19.7117V17.3483C19.97 17.205 19.6233 17.1017 19.4567 17.0417C19.29 16.9817 19.0767 16.8783 18.81 16.7317C18.5467 16.585 18.3233 16.365 18.1433 16.075C17.9633 15.785 17.87 15.425 17.87 14.995C17.87 14.325 18.1067 13.7683 18.5767 13.325C19.05 12.885 19.69 12.6317 20.4967 12.5717V11.7017L20.5 11.705ZM19.48 14.8383C19.48 15.0783 19.56 15.2717 19.7233 15.4083C19.8867 15.5483 20.1433 15.6583 20.5 15.7417V13.8983C20.2133 13.8983 19.97 13.985 19.7733 14.1583C19.5767 14.3317 19.48 14.5583 19.48 14.8383ZM21.1667 19.715C21.52 19.6783 21.8133 19.5583 22.0433 19.3583C22.2733 19.1583 22.39 18.9083 22.39 18.605C22.39 18.3183 22.3 18.0983 22.1233 17.9483C21.9467 17.7983 21.6267 17.6617 21.1667 17.5417V19.715ZM15.5933 18.5683C11.8267 20.365 7.3 18.765 5.5 15.005L5.23333 14.4483L7.77333 15.355C7.95 15.4183 8.13333 15.4017 8.29 15.3283C8.44667 15.255 8.57333 15.1183 8.63667 14.9417C8.76 14.5883 8.57667 14.205 8.22333 14.0783L3.50333 12.4017L1.85 17.075C1.72667 17.4283 1.91 17.8117 2.26333 17.9383C2.61667 18.0617 3.00333 17.8783 3.12667 17.525L4.01 15.0283L4.27667 15.585C6.39667 20.0217 11.7367 21.905 16.1767 19.7883M8.91 4.40833C12.6767 2.61166 17.2033 4.21166 19.0033 7.97166L19.27 8.52833L16.73 7.62166C16.5533 7.55833 16.37 7.575 16.2133 7.64833C16.0567 7.72166 15.93 7.85833 15.8667 8.035C15.7433 8.38833 15.9267 8.77166 16.28 8.89833L21 10.575L22.6533 5.90166C22.7767 5.54833 22.5933 5.165 22.24 5.03833C21.8867 4.915 21.5 5.09833 21.3767 5.45166L20.4933 7.94833L20.2267 7.39166C18.1067 2.955 12.7667 1.07166 8.32667 3.18833" fill="black"/>
</svg>
