<svg width="24" height="24" viewBox="0 0 24 24" fill="none" xmlns="http://www.w3.org/2000/svg">
<path fill-rule="evenodd" clip-rule="evenodd" d="M24 19.5333C24 20.8667 23.01 21.9567 21.7767 22H21.7L2.3 21.98C1.06 21.98 0.0433333 20.9167 0 19.5933V2H24V19.5333ZM1.50333 3.50333V19.1233C1.50333 19.58 1.50333 20.5033 2.76667 20.52L21.1833 20.4867C22.5033 20.52 22.4733 19.6267 22.5033 19.15V3.50333H1.50333ZM19 15.0033V17.0033H13V15.0033H19ZM7 7.00333V11.0033H11C11 13.3367 9.33333 15.0033 7.03 15.0033C4.72667 15.0033 3 13.3367 3 10.9733C3 8.61 4.33333 7.00333 7 7.00333ZM21 11.0033V13.0033H13V11.0033H21ZM8 7.00333C9.43333 7.21333 10.93 8.21333 11 10.0033H8V7.00333ZM21 7.00333V9.00333H13V7.00333H21Z" fill="black"/>
</svg>
