<svg width="24" height="24" viewBox="0 0 24 24" fill="none" xmlns="http://www.w3.org/2000/svg">
<path fill-rule="evenodd" clip-rule="evenodd" d="M20.17 10.1017C21.26 10.1017 22.15 9.76838 22.81 9.10505C23.47 8.44505 23.8667 7.48171 23.99 6.23505V6.18838H22.7467V6.22838C22.6967 7.02505 22.45 7.68838 22.01 8.19171C21.5733 8.69171 20.9867 8.94838 20.2667 8.94838C19.3633 8.94838 18.6433 8.59505 18.1233 7.90171C17.6 7.20171 17.3367 6.22505 17.3367 4.98838C17.3367 3.75172 17.61 2.87505 18.1467 2.19172C18.6833 1.50838 19.39 1.16505 20.2533 1.16505C20.8833 1.16505 21.4167 1.33838 21.8367 1.67838C22.2567 2.01838 22.5333 2.51838 22.66 3.16505L22.6667 3.19838H23.91L23.9033 3.15172C23.7733 2.19172 23.3733 1.41838 22.72 0.858385C22.0667 0.298385 21.24 0.0117188 20.2667 0.0117188C18.9867 0.0217187 17.96 0.498385 17.2133 1.43172C16.47 2.36172 16.09 3.59172 16.09 5.08505C16.09 6.57838 16.46 7.85505 17.1867 8.75171C17.9167 9.64838 18.92 10.105 20.1667 10.105L20.17 10.1017ZM4.77665 0.234375L4.78665 0.261041L4.78332 0.264375L8.21332 9.87437H6.83999L5.88665 6.9977H2.25332L1.27666 9.87437H-0.0100098L0.00999036 9.8177L3.43332 0.234375H4.77665ZM2.65332 5.84104H5.49665L4.08665 1.52104L2.65332 5.84104ZM14.8766 3.95828C14.6633 4.31161 14.3566 4.58161 13.97 4.76495H13.9733C14.48 4.89828 14.8766 5.16828 15.1533 5.56494C15.4433 5.98161 15.59 6.49495 15.59 7.08828C15.59 7.88161 15.3333 8.55161 14.8266 9.07828C14.32 9.60828 13.6866 9.87494 12.9433 9.87494H8.6333V0.238281H12.4033C13.4866 0.238281 14.2333 0.484948 14.6233 0.974947C15.01 1.46161 15.21 2.01495 15.22 2.61828C15.22 3.13161 15.1033 3.58161 14.8766 3.95828ZM12.22 4.34495C12.7933 4.34495 13.2366 4.22828 13.5333 3.99828H13.53C13.8233 3.77161 13.9733 3.38828 13.9733 2.86161C13.9733 2.37828 13.8466 2.00495 13.6 1.76161C13.3533 1.51495 12.8933 1.39161 12.23 1.39161H9.87663V4.34495H12.22ZM12.44 5.49828H9.87663V8.72161H12.7933C13.2533 8.72161 13.63 8.57161 13.9133 8.27828C14.2 7.98494 14.3433 7.57161 14.3433 7.04828C14.3433 6.00494 13.72 5.49828 12.44 5.49828ZM2.00001 15.3214C2.44001 15.0348 2.72334 14.5714 2.84001 13.9481V13.9448L2.84668 13.9114H3.82334V23.8381H2.56334V16.7848H0.0133463V15.7581H0.0966796C0.916679 15.7581 1.55668 15.6114 2.00001 15.3214ZM11.7567 20.5441C12.9867 19.8307 13.8 19.1907 14.18 18.6441C14.5633 18.0941 14.7567 17.4707 14.7567 16.7874C14.7567 15.9474 14.47 15.2507 13.9067 14.7174C13.3433 14.1841 12.58 13.9141 11.64 13.9141C10.6533 13.9141 9.86332 14.2174 9.28999 14.8141C8.71665 15.4107 8.42665 16.2107 8.42665 17.1907L8.44332 17.4807H9.70332V17.3407C9.70332 16.6607 9.87665 16.0974 10.2133 15.6741C10.55 15.2507 11.0067 15.0374 11.5733 15.0374C12.14 15.0374 12.5633 15.2074 12.91 15.5474C13.2567 15.8841 13.43 16.3007 13.43 16.7874C13.43 17.4041 13.23 17.9241 12.8367 18.3341C12.44 18.7507 11.7533 19.2507 10.8 19.8207C9.82665 20.4041 9.15332 21.004 8.79665 21.604C8.43999 22.204 8.22332 22.9407 8.15999 23.794V23.8374H14.66V22.714H9.62332C9.70999 22.3174 9.90999 21.9607 10.22 21.6474C10.5433 21.3174 11.06 20.9474 11.7567 20.5441ZM23.22 17.7313C22.9967 18.0613 22.6733 18.338 22.2567 18.558H22.2533C22.8067 18.6946 23.2333 18.968 23.5267 19.3746C23.8333 19.798 23.9867 20.3346 23.9867 20.968C23.9867 21.8646 23.67 22.6013 23.0433 23.158C22.42 23.7113 21.59 23.998 20.5767 24.008C19.5633 24.008 18.75 23.7213 18.1567 23.158C17.5633 22.5913 17.26 21.798 17.25 20.8013V20.718H18.5267V20.758C18.5533 21.438 18.75 21.968 19.1167 22.3346C19.48 22.698 19.9733 22.8846 20.5767 22.8846C20.9933 22.8846 21.3633 22.7946 21.68 22.6246C21.9967 22.4513 22.24 22.2246 22.4067 21.9446C22.5733 21.6646 22.6567 21.3546 22.6567 21.0213C22.6567 20.4546 22.47 20.0013 22.1033 19.678C21.7333 19.3546 21.2167 19.1846 20.5633 19.1746C20.3667 19.1946 20.1433 19.208 19.9 19.218H19.8567V18.1346H19.9C20.0267 18.1446 20.1733 18.148 20.34 18.148C20.91 18.148 21.3733 18.0046 21.72 17.7146C22.0633 17.4313 22.2433 17.048 22.2533 16.5813C22.2533 16.1146 22.1033 15.7413 21.81 15.468C21.5167 15.1946 21.09 15.0513 20.55 15.0413C19.9833 15.0413 19.5367 15.2246 19.2233 15.588C18.9067 15.9546 18.74 16.4746 18.72 17.138V17.178H17.46V17.1346C17.5167 16.0913 17.8133 15.2913 18.3467 14.748C18.88 14.208 19.6233 13.928 20.5533 13.918C21.5 13.918 22.2467 14.158 22.77 14.6313C23.2933 15.1046 23.5633 15.7613 23.5733 16.5846C23.5733 16.998 23.4533 17.3846 23.22 17.7313Z" fill="#474747"/>
</svg>
