<svg width="24" height="24" viewBox="0 0 24 24" fill="none" xmlns="http://www.w3.org/2000/svg">
  <path fill-rule="evenodd" clip-rule="evenodd"
    d="M18.1516 16.1457C18.7448 16.7056 19.5579 16.9888 20.5743 16.9888H20.5776C21.5907 16.9788 22.4238 16.6956 23.0469 16.1457C23.6734 15.5959 23.99 14.8661 23.99 13.9763C23.99 13.3465 23.8334 12.8167 23.5301 12.3968C23.2369 11.9969 22.807 11.7236 22.2538 11.587C22.6704 11.3704 22.9936 11.0938 23.2169 10.7672C23.4501 10.424 23.5701 10.0408 23.5701 9.63088C23.5634 8.81444 23.2902 8.16462 22.767 7.69475C22.2438 7.22488 21.4974 6.98828 20.5476 6.98828C19.6145 6.99828 18.8747 7.27487 18.3416 7.81138C17.8084 8.35123 17.5085 9.14435 17.4518 10.1774V10.2207H18.7148V10.1807C18.7315 9.52424 18.9014 9.00772 19.218 8.64449C19.5312 8.28459 19.9778 8.10131 20.5443 8.10131C21.0875 8.1113 21.5107 8.25459 21.8073 8.52452C22.1005 8.79444 22.2505 9.16767 22.2505 9.62755C22.2405 10.0874 22.0605 10.4673 21.7173 10.7506C21.3707 11.0372 20.9075 11.1804 20.3377 11.1804C20.1744 11.1804 20.0244 11.1771 19.8978 11.1638H19.8545V12.2402H19.8978C20.1377 12.2335 20.3643 12.2168 20.5609 12.2002C21.2141 12.2102 21.7306 12.3768 22.1005 12.7C22.4671 13.0199 22.6537 13.4665 22.6537 14.0297C22.6537 14.3596 22.5704 14.6661 22.4038 14.9427C22.2371 15.2193 21.9939 15.4459 21.6773 15.6159C21.3607 15.7858 20.9908 15.8725 20.5743 15.8725C19.9678 15.8725 19.4746 15.6892 19.1113 15.3293C18.7448 14.9694 18.5482 14.4429 18.5182 13.7697V13.7297H17.2452V13.813C17.2519 14.7994 17.5584 15.5859 18.1516 16.1457ZM2.54261 16.8228H3.8056V6.99219H2.8292L2.82254 7.02551C2.70257 7.64534 2.41931 8.10188 1.97944 8.38846C1.53623 8.67505 0.893072 8.82168 0.0733004 8.82168H-0.0100098V9.83806H2.54261V16.8228ZM8.14438 16.8228H14.6526L14.6559 16.8261V15.7131H9.6173C9.70394 15.3232 9.90722 14.9666 10.2138 14.6567C10.537 14.3301 11.0536 13.9636 11.75 13.5637C12.9797 12.8572 13.7961 12.2241 14.176 11.6809C14.5593 11.1344 14.7525 10.5179 14.7525 9.84139C14.7525 9.00829 14.466 8.31515 13.8994 7.78863C13.3329 7.25878 12.6165 6.99219 11.6301 6.99219C10.6437 6.99219 9.85057 7.2921 9.2774 7.88527C8.70422 8.47844 8.4143 9.26822 8.4143 10.2413L8.43096 10.5279H9.69061V10.3912C9.69061 9.71476 9.86057 9.16158 10.2005 8.73837C10.537 8.32182 11.0236 8.10854 11.5634 8.10854C12.1033 8.10854 12.5532 8.2785 12.8997 8.61174C13.243 8.94831 13.4196 9.36153 13.4196 9.84139C13.4196 10.4512 13.2196 10.9677 12.8264 11.3743C12.4299 11.7842 11.7434 12.2807 10.7903 12.8439C9.81725 13.4204 9.14077 14.0169 8.7842 14.6101C8.42763 15.2032 8.21103 15.933 8.14438 16.7795V16.8228Z"
    fill="#474747" />
</svg>