<svg width="24" height="24" viewBox="0 0 24 24" fill="none" xmlns="http://www.w3.org/2000/svg">
  <path fill-rule="evenodd" clip-rule="evenodd"
    d="M17.201 15.6588C17.9309 16.5487 18.934 16.9986 20.1805 16.9986L20.1872 17.0053C21.2771 17.0053 22.1669 16.672 22.8268 16.0187C23.4867 15.3655 23.8834 14.409 24.01 13.1758V13.1291H22.7602V13.1691C22.7102 13.959 22.4636 14.6123 22.0236 15.1122C21.5837 15.6088 20.9971 15.8621 20.2805 15.8621C19.3773 15.8621 18.6574 15.5155 18.1375 14.8256C17.6142 14.1323 17.3509 13.1625 17.3509 11.9393C17.3509 10.7761 17.6242 9.84627 18.1608 9.16636C18.6941 8.48979 19.404 8.14651 20.2672 8.14651C20.9004 8.14651 21.4304 8.31648 21.8503 8.6531C22.2703 8.98972 22.5469 9.48632 22.6735 10.1262L22.6802 10.1596H23.9234L23.9167 10.1129C23.7834 9.1597 23.3868 8.39647 22.7335 7.83988C22.0836 7.28329 21.2571 7 20.2805 7C19.0007 7.00667 17.9742 7.47993 17.2276 8.40647C16.4811 9.32968 16.1044 10.5028 16.1044 12.026C16.1044 13.5491 16.4711 14.7722 17.201 15.6588ZM6.85906 16.7739H8.2322H8.23553L4.80267 7.25186L4.79268 7.2252H3.44953L0.0300068 16.7172L0.0100098 16.7739H1.2965L2.27303 13.9243H5.90585L6.85906 16.7739ZM5.50924 12.7811H2.66631L4.09944 8.50169L5.50924 12.7811ZM8.64212 16.7739H12.9515L12.9482 16.7705C13.6914 16.7705 14.3247 16.5072 14.8313 15.984C15.3379 15.464 15.5945 14.8008 15.5945 14.0143C15.5945 13.4243 15.4478 12.9144 15.1579 12.5045C14.8813 12.1112 14.4846 11.8446 13.978 11.7112C14.3647 11.5313 14.6713 11.2613 14.8846 10.9114C15.1112 10.5414 15.2279 10.0948 15.2279 9.58487C15.2179 8.98495 15.0179 8.43836 14.6313 7.9551C14.2413 7.47183 13.4948 7.2252 12.4116 7.2252H8.64212V16.7739ZM12.8049 15.6307H9.88862V12.4411H12.4516C13.7314 12.4411 14.3547 12.9444 14.3547 13.9776C14.3547 14.4942 14.208 14.9041 13.9247 15.1941C13.6414 15.484 13.2648 15.6307 12.8049 15.6307ZM12.2316 11.298H9.89195V8.37171H12.245C12.9049 8.37171 13.3681 8.49502 13.6148 8.73832C13.8614 8.98162 13.988 9.34824 13.988 9.82817C13.988 10.3514 13.8381 10.7314 13.5448 10.9547C13.2481 11.1813 12.8049 11.298 12.2316 11.298Z"
    fill="#474747" />
</svg>
  