<svg width="24" height="24" viewBox="0 0 24 24" fill="none" xmlns="http://www.w3.org/2000/svg">
<g clip-path="url(#clip0_15805_64073)">
<path d="M17.3715 19.88L16.9681 19.5L16.8915 19.54L16.8248 19.5567L16.4581 19.7667C15.6915 20.2167 14.8215 20.4567 13.9415 20.46C11.1948 20.46 8.95813 18.23 8.95813 15.4933C8.95813 12.7567 11.1915 10.53 13.9415 10.5267C16.6881 10.53 18.9248 12.76 18.9248 15.4933C18.9248 16.3733 18.6848 17.2433 18.2281 18.0133L17.9415 18.4933L22.4981 23.0233L21.5148 24.0033L17.3715 19.8833V19.88ZM13.9348 11.9267C11.9548 11.9267 10.3415 13.5267 10.3415 15.4933C10.3415 17.46 11.9515 19.06 13.9315 19.06C14.8681 19.06 15.7581 18.7033 16.4381 18.06L16.5415 17.9567C17.1881 17.2833 17.5415 16.41 17.5415 15.4967C17.5415 13.53 15.9315 11.93 13.9515 11.93H13.9348V11.9267ZM10.2381 20.5267C8.19813 20.5067 6.29813 20.1467 4.87146 19.5C3.58813 18.92 2.85146 18.18 2.85146 17.47V15.3333C3.2548 15.65 3.7448 15.94 4.30813 16.1933C5.32146 16.65 6.5348 16.98 7.8548 17.1667C7.72813 16.7233 7.6548 16.26 7.6348 15.78C6.60813 15.6067 5.6648 15.3367 4.87146 14.98C3.58813 14.4 2.85146 13.66 2.85146 12.95V10.8133C3.25813 11.13 3.7448 11.42 4.30813 11.6733C5.4348 12.1833 6.8148 12.53 8.31147 12.7033C8.54813 12.2467 8.84146 11.8267 9.18146 11.4467C7.55146 11.3333 6.05146 10.9933 4.8748 10.4633C3.59146 9.88333 2.8548 9.14333 2.8548 8.43333V6.77667C3.26146 7.09333 3.74813 7.38333 4.31146 7.63667C5.9548 8.38 8.12813 8.79 10.4248 8.79C12.7215 8.79 14.8948 8.38 16.5381 7.63667C17.1015 7.38333 17.5881 7.09333 17.9948 6.77667V8.43333C17.9948 8.98333 17.5481 9.55 16.7548 10.0467C17.1848 10.2667 17.5848 10.5367 17.9481 10.8467C17.9615 10.8367 17.9781 10.8233 17.9948 10.8133V10.8867C18.5348 11.3567 18.9981 11.9133 19.3481 12.5433V4.39333C19.3481 3.12333 18.3515 1.97 16.5381 1.15C14.8948 0.406666 12.7248 -0.00333405 10.4248 -0.00333405C8.1248 -0.00333405 5.9548 0.406666 4.31146 1.15C2.49813 1.97 1.50146 3.12 1.50146 4.39333V17.4667C1.50146 18.7367 2.49813 19.89 4.31146 20.7067C5.9548 21.45 8.1248 21.86 10.4248 21.86C11.3948 21.86 12.3381 21.7833 13.2315 21.6433C12.1248 21.5333 11.1048 21.13 10.2448 20.5233L10.2381 20.5267ZM4.87146 2.36333C6.34146 1.7 8.31147 1.33333 10.4215 1.33333C12.5315 1.33333 14.4981 1.7 15.9715 2.36333C17.2548 2.94333 17.9915 3.68333 17.9915 4.39333C17.9915 5.10333 17.2548 5.84333 15.9715 6.42333C14.5015 7.08667 12.5315 7.45333 10.4215 7.45333C8.31147 7.45333 6.3448 7.08667 4.87146 6.42333C3.58813 5.84333 2.85146 5.10333 2.85146 4.39333C2.85146 3.68333 3.58813 2.94333 4.87146 2.36333Z" fill="black"/>
</g>
<defs>
<clipPath id="clip0_15805_64073">
<rect width="24" height="24" fill="white"/>
</clipPath>
</defs>
</svg>
