<svg width="24" height="24" viewBox="0 0 24 24" fill="none" xmlns="http://www.w3.org/2000/svg">
  <path fill-rule="evenodd" clip-rule="evenodd"
    d="M9.88313 15.8571C9.88313 16.4531 10.1493 16.7418 10.6966 16.7418L10.7004 16.753C10.8766 16.753 11.0265 16.7193 11.1427 16.6593L11.2102 16.6218V18.0351L11.1727 18.0426C10.8916 18.1101 10.5767 18.1438 10.2318 18.1438C9.53449 18.1438 9.05464 17.9527 8.80722 17.5815C8.5673 17.2179 8.43984 16.6781 8.43984 15.977C7.89251 16.8767 7.28145 17.529 6.62541 17.9152C5.95437 18.3125 5.09214 18.5112 4.06496 18.5112C2.80161 18.5112 1.80067 18.1776 1.0884 17.5178C0.376119 16.858 0.00498553 15.9283 -0.0100098 14.7587C-0.0100098 13.9152 0.173683 13.2216 0.53357 12.6931C0.893457 12.1645 1.44828 11.7446 2.18305 11.4484C2.91032 11.156 4.15118 10.9049 5.87189 10.7099C6.77911 10.6125 7.36767 10.5075 7.6151 10.395C7.85877 10.2863 8.04246 10.1139 8.15118 9.88894C8.26364 9.66026 8.31987 9.34911 8.31987 8.96298C8.31987 8.06326 8.06121 7.40722 7.54762 7.00984C7.03028 6.60872 6.25052 6.40628 5.2271 6.40628C3.23272 6.42128 2.16806 7.39972 2.05934 9.30787V9.35286H0.503579V9.30412C0.582305 7.89082 1.05091 6.80741 1.89439 6.09138C2.73413 5.37536 3.92625 5.01172 5.43703 5.01172C8.38735 5.01172 9.88313 6.39504 9.88313 9.13168V15.8571ZM8.32362 13.2029V11.2535H8.31987C8.12119 11.5309 7.62634 11.7184 6.81285 11.8271L5.34706 12.0483C3.91876 12.2619 2.91407 12.5768 2.36674 12.9855C1.82691 13.3903 1.5495 13.9827 1.5495 14.6537C1.5495 15.3247 1.79692 15.9021 2.28052 16.3744C2.76787 16.8468 3.40517 17.0942 4.18117 17.1092C5.3583 17.1092 6.34799 16.7418 7.12775 16.0183C7.9075 15.291 8.30863 14.3463 8.32362 13.2029ZM23.4764 16.7418C23.6526 16.7418 23.8025 16.708 23.9188 16.6481L23.9225 16.6593L23.99 16.6218V18.0351L23.9525 18.0426C23.6713 18.1101 23.3564 18.1438 23.0115 18.1438C22.3143 18.1438 21.8344 17.9527 21.587 17.5815C21.3471 17.2179 21.2196 16.6781 21.2196 15.977C20.6723 16.8767 20.0612 17.529 19.4052 17.9152C18.7341 18.3125 17.8719 18.5112 16.8447 18.5112C15.5814 18.5112 14.5804 18.1776 13.8682 17.5178C13.1559 16.858 12.7848 15.9283 12.7698 14.7587C12.7698 13.9152 12.9535 13.2216 13.3133 12.6931C13.6732 12.1645 14.2281 11.7446 14.9628 11.4484C15.6901 11.156 16.931 10.9049 18.6517 10.7099C19.5589 10.6125 20.1474 10.5075 20.3949 10.395C20.6385 10.2863 20.8222 10.1139 20.931 9.88894C21.0434 9.66026 21.0996 9.34911 21.0996 8.96298C21.0996 8.06326 20.841 7.40722 20.3274 7.00984C19.8101 6.60872 19.0303 6.40628 18.0069 6.40628C16.0125 6.42128 14.9478 7.39972 14.8391 9.30787V9.35286H13.2833V9.30412C13.3621 7.88707 13.8307 6.80741 14.6742 6.09138C15.5139 5.37536 16.706 5.01172 18.2168 5.01172C21.1671 5.01172 22.6629 6.39504 22.6629 9.13168V15.8571C22.6629 16.4531 22.9291 16.7418 23.4764 16.7418ZM21.0996 13.2029V11.2535H21.0959C20.8972 11.5309 20.4024 11.7184 19.5889 11.8271L18.1231 12.0483C16.6948 12.2619 15.6938 12.5768 15.1428 12.9855C14.6029 13.3903 14.3255 13.9827 14.3255 14.6537C14.3255 15.3247 14.5729 15.9021 15.0565 16.3744C15.5439 16.8468 16.1812 17.0942 16.9572 17.1092C18.1343 17.1092 19.124 16.7418 19.9038 16.0183C20.6835 15.291 21.0847 14.3463 21.0996 13.2029Z"
    fill="#474747" />
</svg>
  