<?xml version="1.0" encoding="UTF-8"?>
<svg width="24px" height="24px" viewBox="0 0 24 24" version="1.1" xmlns="http://www.w3.org/2000/svg" xmlns:xlink="http://www.w3.org/1999/xlink">
    <title>Icon/Outline/database-outline</title>
    <g id="Icon/Outline/database-outline" stroke="none" stroke-width="1" fill="none" fill-rule="evenodd">
        <g id="Group" transform="translate(2.000000, 0.000000)" fill="#474747" fill-rule="nonzero">
            <g id="Outline">
                <path d="M16.29,1.26666667 C14.5066667,0.45 12.1566667,0 9.66666667,0 C7.17666667,0 4.82666667,0.45 3.04333333,1.26666667 C1.08,2.16333333 0,3.42666667 0,4.82333333 L0,19.1766667 C0,20.5733333 1.08,21.8433333 3.04333333,22.7333333 C4.82333333,23.55 7.17666667,24 9.66666667,24 C12.1566667,24 14.51,23.55 16.29,22.7333333 C18.2533333,21.8366667 19.3333333,20.5733333 19.3333333,19.1766667 L19.3333333,4.82333333 C19.3333333,3.42666667 18.2533333,2.16333333 16.29,1.26666667 Z M17.8666667,16.83 L17.8666667,19.1633333 C17.8666667,19.9433333 17.07,20.7533333 15.6766667,21.39 C14.0833333,22.12 11.95,22.5233333 9.67666667,22.5233333 C7.40333333,22.5233333 5.26,22.12 3.67666667,21.39 C2.28333333,20.7533333 1.48666667,19.9433333 1.48666667,19.1633333 L1.48666667,16.83 C1.97111129,17.2085498 2.50072603,17.5254229 3.06333333,17.7733333 C4.84666667,18.59 7.19666667,19.04 9.68666667,19.04 C12.1766667,19.04 14.5266667,18.59 16.31,17.7733333 C16.8652472,17.5232243 17.3879813,17.2064496 17.8666667,16.83 L17.8666667,16.83 Z M15.6666667,16.4433333 C14.0733333,17.1733333 11.94,17.5766667 9.66666667,17.5766667 C7.39333333,17.5766667 5.25,17.1733333 3.66666667,16.4433333 C2.26333333,15.8066667 1.46666667,15 1.46666667,14.2166667 L1.46666667,11.8833333 C1.95233455,12.2610078 2.48169758,12.5788495 3.04333333,12.83 C4.82333333,13.6433333 7.17666667,14.0933333 9.66666667,14.0933333 C12.1566667,14.0933333 14.51,13.6433333 16.29,12.83 C16.8516358,12.5788495 17.3809988,12.2610078 17.8666667,11.8833333 L17.8666667,14.2166667 C17.8666667,15 17.07,15.8066667 15.6666667,16.4433333 Z M15.6666667,11.4833333 C14.0733333,12.2133333 11.94,12.6166667 9.66666667,12.6166667 C7.39333333,12.6166667 5.25,12.2133333 3.66666667,11.4833333 C2.27333333,10.8466667 1.47666667,10.0366667 1.47666667,9.25666667 L1.47666667,7.43666667 C1.96233455,7.81434115 2.49169758,8.1321828 3.05333333,8.38333333 C4.83666667,9.2 7.18666667,9.64666667 9.67666667,9.64666667 C12.1666667,9.64666667 14.5166667,9.2 16.3,8.38333333 C16.8616358,8.1321828 17.3909988,7.81434115 17.8766667,7.43666667 L17.8766667,9.25666667 C17.8666667,10.0366667 17.07,10.8466667 15.6666667,11.4833333 L15.6666667,11.4833333 Z M15.6666667,7.05333333 C14.0733333,7.78333333 11.94,8.18333333 9.66666667,8.18333333 C7.39333333,8.18333333 5.25,7.78333333 3.66666667,7.05333333 C2.27333333,6.41666667 1.47666667,5.60333333 1.47666667,4.82333333 C1.47666667,4.04333333 2.26333333,3.23333333 3.66666667,2.59666667 C5.26,1.86666667 7.39333333,1.46333333 9.66666667,1.46333333 C11.94,1.46333333 14.0833333,1.86666667 15.6666667,2.59666667 C17.06,3.23333333 17.8566667,4.04333333 17.8566667,4.82333333 C17.8566667,5.60333333 17.07,6.41333333 15.6666667,7.05333333 Z" id="Shape"></path>
            </g>
        </g>
    </g>
</svg>