<?xml version="1.0" encoding="UTF-8"?>
<svg width="24px" height="24px" viewBox="0 0 24 24" version="1.1" xmlns="http://www.w3.org/2000/svg" xmlns:xlink="http://www.w3.org/1999/xlink">
    <title>Icon/Outline/data-outline</title>
    <g id="Icon/Outline/data-outline" stroke="none" stroke-width="1" fill="none" fill-rule="evenodd">
        <g id="Group" transform="translate(0.000000, 4.000000)" fill="#474747" fill-rule="nonzero">
            <g id="Outline">
                <path d="M0,9.24666667 L0,15.4133333 C0,16.2417605 0.671572875,16.9133333 1.5,16.9133333 L22.5,16.9133333 C23.3284271,16.9133333 24,16.2417605 24,15.4133333 L24,9.24666667 L0,9.24666667 Z M22.5,15.4133333 L1.5,15.4133333 L1.5,10.9133333 L22.5,10.9133333 L22.5,15.4133333 Z M5.81333333,13.7466667 L2.81333333,13.7466667 L2.81333333,12.4 L5.81333333,12.4 L5.81333333,13.7466667 Z M10.3633333,13.7466667 L7.36333333,13.7466667 L7.36333333,12.4 L10.3633333,12.4 L10.3633333,13.7466667 Z" id="Shape"></path>
                <path d="M0,0 L0,6.16666667 C0.00183315539,6.99433328 0.672333382,7.66483351 1.5,7.66666667 L22.5,7.66666667 C23.3276666,7.66483351 23.9981668,6.99433328 24,6.16666667 L24,0 L0,0 Z M22.5,6.16666667 L1.5,6.16666667 L1.5,1.66666667 L22.5,1.66666667 L22.5,6.16666667 Z M5.81333333,4.5 L2.81333333,4.5 L2.81333333,3.15 L5.81333333,3.15 L5.81333333,4.5 Z M10.3633333,4.5 L7.36333333,4.5 L7.36333333,3.15 L10.3633333,3.15 L10.3633333,4.5 Z" id="Shape"></path>
            </g>
        </g>
    </g>
</svg>