<svg width="24" height="24" viewBox="0 0 24 24" fill="none" xmlns="http://www.w3.org/2000/svg">
<path fill-rule="evenodd" clip-rule="evenodd" d="M5.90332 17.4779C6.62345 18.0424 7.58363 18.3314 8.75274 18.3314L8.7483 18.3403C10.3175 18.3403 11.5088 17.7624 12.2912 16.6199C13.0691 15.482 13.4647 13.6861 13.4647 11.2767C13.4647 9.16967 13.0824 7.5827 12.3267 6.55585C11.5666 5.52454 10.3842 5 8.80608 5C7.49473 5 6.41008 5.40897 5.58326 6.20911C4.752 7.00926 4.33414 8.04946 4.33414 9.29413C4.33414 10.6099 4.71643 11.6857 5.46768 12.4858C6.21894 13.286 7.27691 13.695 8.61494 13.695C9.30396 13.695 9.93518 13.5305 10.482 13.2104C10.9932 12.9126 11.411 12.4992 11.7222 11.988C11.6511 13.6238 11.3755 14.8552 10.9087 15.6464C10.4331 16.4421 9.70847 16.8467 8.7483 16.8467C8.10818 16.8467 7.56141 16.6777 7.12577 16.3443C6.69013 16.0109 6.42786 15.5309 6.33451 14.913V14.8641H4.61419L4.62308 14.9263C4.74755 16.0509 5.17874 16.9089 5.90332 17.4779ZM6.83238 7.29376C7.28135 6.75588 7.91258 6.48028 8.71273 6.48028V6.48472C9.52622 6.48472 10.193 6.75588 10.6909 7.28487C11.1887 7.81386 11.4421 8.5251 11.4421 9.40082C11.4421 10.2099 11.1754 10.89 10.6509 11.4145C10.1263 11.9391 9.46398 12.2058 8.7483 12.2058C8.03261 12.2058 7.41916 11.9346 6.9124 11.3967C6.41008 10.8589 6.15226 10.2232 6.15226 9.50751C6.15226 8.58289 6.38341 7.83608 6.83238 7.29376ZM0 18.1092H2.21375V15.9621H0V18.1092ZM16.4386 17.4779C17.1587 18.0424 18.1189 18.3314 19.288 18.3314L19.2836 18.3403C20.8483 18.3403 22.0441 17.7624 22.8264 16.6199C23.6044 15.482 24 13.6861 24 11.2767C24 9.16967 23.6177 7.5827 22.862 6.55585C22.1019 5.52454 20.9194 5 19.3414 5C18.03 5 16.9454 5.40897 16.1185 6.20911C15.2873 7.01371 14.8694 8.04946 14.8694 9.29413C14.8694 10.6099 15.2517 11.6857 16.003 12.4858C16.7542 13.286 17.8122 13.695 19.1502 13.695C19.8392 13.695 20.466 13.5305 21.0172 13.2104C21.5284 12.9126 21.9463 12.4992 22.2575 11.988C22.1863 13.6283 21.9107 14.8552 21.444 15.6464C20.9683 16.4421 20.2437 16.8467 19.2836 16.8467C18.6434 16.8467 18.0967 16.6777 17.661 16.3443C17.2254 16.0109 16.9631 15.5309 16.8698 14.913V14.8641H15.1495L15.1584 14.9263C15.2828 16.0509 15.714 16.9089 16.4386 17.4779ZM17.3677 7.29376C17.8166 6.75588 18.4479 6.48028 19.248 6.48028L19.2436 6.48472C20.057 6.48472 20.7238 6.75588 21.2217 7.28487C21.7196 7.81386 21.973 8.5251 21.973 9.40082C21.973 10.2099 21.7107 10.89 21.1861 11.4145C20.6616 11.9391 19.9948 12.2058 19.2836 12.2058C18.5723 12.2058 17.9544 11.9346 17.4477 11.3967C16.9454 10.8589 16.6875 10.2232 16.6875 9.50751C16.6875 8.58289 16.9187 7.83608 17.3677 7.29376Z" fill="#474747"/>
</svg>
