<?xml version="1.0" encoding="UTF-8"?>
<svg width="24px" height="24px" viewBox="0 0 24 24" version="1.1" xmlns="http://www.w3.org/2000/svg" xmlns:xlink="http://www.w3.org/1999/xlink">
    <title>Icon/Outline/debt-free-outline</title>
    <g id="Icon/Outline/debt-free-outline" stroke="none" stroke-width="1" fill="none" fill-rule="evenodd">
        <g id="Group" fill="#474747" fill-rule="nonzero">
            <g id="Outline">
                <path d="M12,-5.92118946e-16 C15.1825979,-5.92118946e-16 18.2348448,1.26428208 20.4852814,3.51471863 C22.7357179,5.76515517 24,8.81740212 24,12 C24,18.627417 18.627417,24 12,24 C5.372583,24 -5.92118946e-16,18.627417 -5.92118946e-16,12 C-5.92118946e-16,5.372583 5.372583,-5.92118946e-16 12,-5.92118946e-16 Z M19.9266667,5.13333333 L18.283,6.776 L20.8533333,6.78333333 L20.8533333,15.9033333 C20.8533333,16.7317605 20.1817605,17.4033333 19.3533333,17.4033333 L19.3533333,17.4033333 L7.656,17.403 L5.13333333,19.9266667 C6.95003982,21.5098187 9.25490448,22.4145984 11.6563253,22.4942566 L12,22.5000074 C16.1108373,22.5048594 19.8454055,20.1073601 21.5523219,16.3676484 C23.2592383,12.6279367 22.6236734,8.2357778 19.9266667,5.13333333 L19.9266667,5.13333333 Z M18.8666667,4.07333333 C15.7642222,1.37632661 11.3720633,0.740761731 7.63235161,2.44767812 C3.89263993,4.1545945 1.49514061,7.88916269 1.49999263,12 C1.50077032,14.5244777 2.4147931,16.9634504 4.07333333,18.8666667 L4.07333333,18.8666667 L5.536,17.403 L4.68666667,17.4033333 C3.90768632,17.401608 3.26792603,16.8075686 3.19382723,16.0476566 L3.18666667,15.9033333 L3.18666667,6.73666667 L16.168,6.771 Z M11.37,11.569 L4.68666667,11.57 L4.68666667,15.9033333 L7.036,15.903 L11.37,11.569 Z M19.3533333,11.57 L13.49,11.569 L9.156,15.903 L19.3533333,15.9033333 L19.3533333,11.57 Z M15.4166667,13.9233333 C15.8511307,13.9233333 16.2033333,14.275536 16.2033333,14.71 C16.2033333,15.144464 15.8511307,15.4966667 15.4166667,15.4966667 C14.9822027,15.4966667 14.63,15.144464 14.63,14.71 C14.63,14.275536 14.9822027,13.9233333 15.4166667,13.9233333 Z M18.0366667,13.9233333 C18.4711307,13.9233333 18.8233333,14.275536 18.8233333,14.71 C18.8233333,15.144464 18.4711307,15.4966667 18.0366667,15.4966667 C17.6022027,15.4966667 17.25,15.144464 17.25,14.71 C17.25,14.275536 17.6022027,13.9233333 18.0366667,13.9233333 Z M14.703,8.236 L4.68666667,8.23666667 L4.68666667,9.42666667 L13.513,9.426 L14.703,8.236 Z M19.3533333,8.23666667 L16.823,8.236 L15.633,9.426 L19.3533333,9.42666667 L19.3533333,8.23666667 Z" id="Combined-Shape"></path>
            </g>
        </g>
    </g>
</svg>