<?xml version="1.0" encoding="UTF-8"?>
<svg width="24px" height="24px" viewBox="0 0 24 24" version="1.1" xmlns="http://www.w3.org/2000/svg" xmlns:xlink="http://www.w3.org/1999/xlink">
    <title>Icon/Outline/desktop-outline</title>
    <g id="Icon/Outline/desktop-outline" stroke="none" stroke-width="1" fill="none" fill-rule="evenodd">
        <g id="Group" transform="translate(-0.000000, 0.000004)" fill="#474747" fill-rule="nonzero">
            <g id="desktop-outline" transform="translate(0.000000, 2.999999)">
                <path d="M19.2833274,2.45333258 C19.6944017,2.45333258 20.0281587,2.78559554 20.0299939,3.19666568 L20.0299939,12.7533294 C20.0299939,13.1657019 19.6956999,13.4999958 19.2833274,13.4999958 L4.71666522,13.4999958 C4.30429273,13.4999958 3.96999878,13.1657019 3.96999878,12.7533294 L3.96999878,3.19666568 C3.97183393,2.78559554 4.30559098,2.45333258 4.71666522,2.45333258 L19.2833274,2.45333258 Z M18.5399943,11.9999963 L18.5399943,3.74999885 L5.45999832,3.74999885 L5.45999832,11.9999963 L18.5399943,11.9999963 Z M23.2566595,14.2499956 C23.4543826,14.2499936 23.6439592,14.3287663 23.7834574,14.46889 C23.9229556,14.6090138 24.0008793,14.7989409 24,14.9966621 L24,17.263328 C23.996334,17.6712537 23.6646016,18 23.2566595,18 L0.743333105,18 C0.335391031,18 0.00365867297,17.6712537 0,17.263328 L0,14.9899954 C0.00183512691,14.5807662 0.334099798,14.2499915 0.743333105,14.2499956 L1.58999951,14.2499956 L1.58999951,0.743333104 C1.58999951,0.546188907 1.66831474,0.357119223 1.80771673,0.217717223 C1.94711873,0.0783152309 2.13618842,0 2.33333261,0 L21.66666,0 C22.0733022,0.00180720694 22.4030168,0.330036611 22.4066598,0.736666438 L22.4066598,14.2499956 L23.2566595,14.2499956 Z M3.08333238,1.47999954 L3.08333238,14.2299956 L20.9166602,14.2299956 L20.9166602,1.47999954 L3.08333238,1.47999954 Z M22.509993,16.7699948 L22.509993,15.6099952 L1.48999954,15.6099952 L1.48999954,16.7699948 L22.509993,16.7699948 Z" id="Combined-Shape"></path>
            </g>
        </g>
    </g>
</svg>