<?xml version="1.0" encoding="UTF-8"?>
<svg width="24px" height="24px" viewBox="0 0 24 24" version="1.1" xmlns="http://www.w3.org/2000/svg" xmlns:xlink="http://www.w3.org/1999/xlink">
    <title>Icon/Outline/desk-chair-outline</title>
    <g id="Icon/Outline/desk-chair-outline" stroke="none" stroke-width="1" fill="none" fill-rule="evenodd">
        <g id="Group" transform="translate(6.000000, 0.000000)" fill="#474747" fill-rule="nonzero">
            <g id="Outline">
                <path d="M13.9061192,20.3510027 C13.7943807,20.3522589 13.6829725,20.3633997 13.573198,20.3842949 L9.65471526,17.5844274 L9.65471526,14.8877656 L14.2357112,14.8877656 C14.498719,14.8877656 14.6152414,14.8012061 14.6152414,14.5548444 L14.6152414,12.2243959 C14.6152414,11.6484421 14.0559337,11.1690356 13.2835565,11.1690356 L4.59764199,11.1690356 C3.83525241,11.1690356 3.26595713,11.6484421 3.26595713,12.2243959 L3.26595713,12.6305597 C1.93427226,11.7050388 0.965471526,8.90517133 0.965471526,7.45696404 L0.965471526,5.75240742 L2.2172553,5.75240742 L2.93969434,10.0337743 C2.98630331,10.2934528 3.08950888,10.39 3.34918743,10.3467202 L5.63302697,9.96053159 C6.19899304,9.86398443 6.57852323,9.23143412 6.45201316,8.47903217 L5.21021703,1.15476543 C5.0936946,0.395705053 4.53105775,-0.073713861 3.95843326,0.00951644301 L1.67792293,0.409021902 C1.41824438,0.45230166 1.34500171,0.578811722 1.39493989,0.838490271 L2.06078233,4.77694825 L-8.8817842e-16,4.77694825 L-8.8817842e-16,7.44031798 C-8.8817842e-16,9.43784528 1.40825674,13.0999787 3.27594476,13.7658211 L3.27594476,14.5315399 C3.27594476,14.7945476 3.38913798,14.8644611 3.65214574,14.8644611 L8.74916955,14.8644611 L8.74916955,17.6543409 L4.92057557,20.3842949 C4.810801,20.3633997 4.69939282,20.3522589 4.58765435,20.3510027 C3.7117248,20.3466818 2.95634708,20.9654903 2.78818306,21.8251368 C2.62001905,22.6847833 3.08653576,23.5426187 3.89952565,23.8686841 C4.71251555,24.1947496 5.64249901,23.8970079 6.11494518,23.1593997 C6.58739134,22.4217915 6.4689446,21.4525187 5.8327797,20.8503846 L8.75582798,18.7563101 L8.75582798,19.5719671 C7.87089216,19.8000094 7.29365379,20.6505957 7.40858759,21.5571854 C7.52352138,22.4637751 8.29475473,23.1434076 9.20860083,23.1434076 C10.1224469,23.1434076 10.8936803,22.4637751 11.0086141,21.5571854 C11.1235479,20.6505957 10.5463095,19.8000094 9.66137368,19.5719671 L9.66137368,18.6997135 L12.6576646,20.8503846 C12.0270507,21.4498671 11.9107679,22.4126151 12.3805157,23.1450018 C12.8502636,23.8773885 13.7737858,24.1732125 14.5816424,23.8500699 C15.3894989,23.5269272 15.8542399,22.6757979 15.6893079,21.8214849 C15.5243758,20.9671719 14.7762069,20.3502046 13.9061192,20.3510027 L13.9061192,20.3510027 Z M4.11823544,0.955012696 C4.1348815,0.955012696 4.2447455,1.04823064 4.28802526,1.30790918 L5.5298214,8.63217593 C5.57310115,8.89185448 5.49985849,9.01836454 5.48321243,9.02169376 L3.93179956,9.28470152 L2.56682257,1.21469124 L4.11823544,0.955012696 Z M4.22144102,12.2243959 C4.22144102,12.2243959 4.33130502,12.1145319 4.59764199,12.1145319 L13.2902149,12.1145319 C13.5565519,12.1145319 13.6697451,12.2077498 13.6697451,12.2243959 L13.6697451,13.795784 L4.22144102,13.795784 L4.22144102,12.2243959 Z M4.58099593,23.0343477 C4.10110225,23.0343477 3.71207156,22.645317 3.71207156,22.1654234 C3.71207156,21.6855297 4.10110225,21.296499 4.58099593,21.296499 C5.06088961,21.296499 5.4499203,21.6855297 5.4499203,22.1654234 C5.4499203,22.3958764 5.35837318,22.6168907 5.19541825,22.7798457 C5.03246332,22.9428006 4.811449,23.0343477 4.58099593,23.0343477 Z M10.0708668,21.3164743 C10.0763506,21.7963217 9.69181415,22.1897661 9.21196699,22.195271 C8.73211983,22.200776 8.33865843,21.8162569 8.33313238,21.3364099 C8.32760634,20.856563 8.7121081,20.4630847 9.19195477,20.4575375 C9.42241233,20.4548734 9.6444877,20.5438751 9.80931902,20.7049602 C9.97415033,20.8660454 10.0682331,21.0860163 10.0708668,21.3164743 L10.0708668,21.3164743 Z M13.9061192,23.0243601 C13.4262255,23.0243601 13.0371948,22.6353294 13.0371948,22.1554357 C13.0371948,21.675542 13.4262255,21.2865113 13.9061192,21.2865113 C14.3860129,21.2865113 14.7750436,21.675542 14.7750436,22.1554357 C14.7777125,22.3876144 14.6873449,22.6112032 14.5240998,22.7763247 C14.3608547,22.9414462 14.1383132,23.0343477 13.9061192,23.0343477 L13.9061192,23.0243601 Z" id="Shape"></path>
            </g>
        </g>
    </g>
</svg>