<?xml version="1.0" encoding="UTF-8"?>
<svg width="24px" height="24px" viewBox="0 0 24 24" version="1.1" xmlns="http://www.w3.org/2000/svg" xmlns:xlink="http://www.w3.org/1999/xlink">
    <title>Icon/Outline/dial-low-outline</title>
    <g id="Icon/Outline/dial-low-outline" stroke="none" stroke-width="1" fill="none" fill-rule="evenodd">
        <g id="Group" fill="#474747" fill-rule="nonzero">
            <g id="Outline">
                <path d="M12,1.5 C17.7989899,1.5 22.5,6.20101013 22.5,12 C22.5,17.7989899 17.7989899,22.5 12,22.5 C6.20101013,22.5 1.5,17.7989899 1.5,12 C1.5055128,6.20329514 6.20329514,1.5055128 12,1.5 M12,-5.92118946e-16 C5.372583,-5.92118946e-16 -5.92118946e-16,5.372583 -5.92118946e-16,12 C-5.92118946e-16,18.627417 5.372583,24 12,24 C18.627417,24 24,18.627417 24,12 C24,8.81740212 22.7357179,5.76515517 20.4852814,3.51471863 C18.2348448,1.26428208 15.1825979,-5.92118946e-16 12,-5.92118946e-16 Z M12,4.56333333 C16.1048737,4.56884201 19.431158,7.89512634 19.4366667,12 L20.9366667,12 C20.9366667,7.06441529 16.9355847,3.06333333 12,3.06333333 C7.06441529,3.06333333 3.06333333,7.06441529 3.06333333,12 L4.56333333,12 C4.56884201,7.89512634 7.89512634,4.56884201 12,4.56333333 Z M12,9.2299702 C10.7565735,9.23879059 9.66905066,10.0693862 9.33333333,11.2666667 L5.66666667,11.2666667 L5.66666667,12.7666667 L9.33333333,12.7666667 C9.72321376,14.1533302 11.1066683,15.0134314 12.5227176,14.749524 C13.9387669,14.4856166 14.9195128,13.1849022 14.7837067,11.7508871 C14.6479007,10.316872 13.4404162,9.22339046 12,9.2299702 L12,9.2299702 Z M12,13.3000042 C11.2907069,13.3017994 10.7137367,12.7292455 10.7100688,12.0199595 C10.7064357,11.3106735 11.2774819,10.732211 11.986756,10.7267095 C12.6960301,10.721208 13.2759808,11.2907427 13.2833333,12 C13.2833333,12.7087654 12.7087654,13.2833333 12,13.2833333 L12,13.3000042 Z" id="Shape"></path>
            </g>
        </g>
    </g>
</svg>