<?xml version="1.0" encoding="UTF-8"?>
<svg width="24px" height="24px" viewBox="0 0 24 24" version="1.1" xmlns="http://www.w3.org/2000/svg" xmlns:xlink="http://www.w3.org/1999/xlink">
    <title>Icon/Outline/dial-high-outline</title>
    <g id="Icon/Outline/dial-high-outline" stroke="none" stroke-width="1" fill="none" fill-rule="evenodd">
        <g id="Group" fill="#474747" fill-rule="nonzero">
            <g id="Outline">
                <path d="M12,1.5 C17.7989899,1.5 22.5,6.20101013 22.5,12 C22.5,17.7989899 17.7989899,22.5 12,22.5 C6.20101013,22.5 1.5,17.7989899 1.5,12 C1.5055128,6.20329514 6.20329514,1.5055128 12,1.5 M12,-5.92118946e-16 C5.372583,-5.92118946e-16 -5.92118946e-16,5.372583 -5.92118946e-16,12 C-5.92118946e-16,18.627417 5.372583,24 12,24 C18.627417,24 24,18.627417 24,12 C24,8.81740212 22.7357179,5.76515517 20.4852814,3.51471863 C18.2348448,1.26428208 15.1825979,-5.92118946e-16 12,-5.92118946e-16 Z M12,4.56333333 C16.1048737,4.56884201 19.431158,7.89512634 19.4366667,12 L20.9366667,12 C20.9366667,7.06441529 16.9355847,3.06333333 12,3.06333333 C7.06441529,3.06333333 3.06333333,7.06441529 3.06333333,12 L4.56333333,12 C4.56884201,7.89512634 7.89512634,4.56884201 12,4.56333333 Z M18.4733333,11.25 L14.6666667,11.25 C14.2918671,9.91052572 12.9857693,9.05336766 11.6077687,9.24252477 C10.2297681,9.43168187 9.20295193,10.6090773 9.20295193,12 C9.20295193,13.3909227 10.2297681,14.5683181 11.6077687,14.7574752 C12.9857693,14.9466323 14.2918671,14.0894743 14.6666667,12.75 L18.4733333,12.75 L18.4733333,11.25 Z M12,13.2833377 C11.4789877,13.2846814 11.0085899,12.9716903 10.808584,12.4905944 C10.608578,12.0094985 10.7184477,11.4552728 11.0868602,11.0868602 C11.4552728,10.7184477 12.0094985,10.608578 12.4905944,10.808584 C12.9716903,11.0085899 13.2846814,11.4789877 13.2833377,12 C13.2833377,12.7087654 12.7087654,13.2833377 12,13.2833377 L12,13.2833377 Z" id="Shape"></path>
            </g>
        </g>
    </g>
</svg>