<svg width="24" height="24" viewBox="0 0 24 24" fill="none" xmlns="http://www.w3.org/2000/svg">
<path d="M9.84667 17.8333C9.76667 17.85 0 19.4267 0 19.4267V2.95667L9.32 1.5C9.79333 1.5 10.8867 2.01333 11.6433 2.68667C12.4 2.01667 13.4933 1.5 13.9667 1.5L14.09 1.51L23.2867 2.95667V18.96L21.71 17.2367V4.31333L13.96 3.09333C13.6 3.19333 12.67 3.79333 12.4333 4.11333V7.15333C11.85 7.41333 11.41 7.74667 10.8567 8.2V3.76C10.6167 3.79 9.69 3.19 9.33 3.09L1.58 4.31V17.5867C1.58 17.5867 8.75 16.4533 8.77667 16.45C9.06333 16.9667 9.42667 17.43 9.85 17.8333H9.84667ZM22.9667 22.5L24 21.4667L19.2133 16.6833L19.5133 16.1767C19.9933 15.3667 20.2467 14.4467 20.2467 13.5167C20.2467 10.63 17.9 8.27667 15.0133 8.27333C12.1267 8.27667 9.78 10.63 9.78 13.5167C9.78 16.4033 12.13 18.7567 15.0167 18.76C15.94 18.76 16.8533 18.5067 17.66 18.03L18.0433 17.81L18.1133 17.79L18.1933 17.7467L18.6167 18.15L22.97 22.5H22.9667ZM15.0267 9.75333C17.1067 9.75333 18.7967 11.4433 18.7967 13.5167C18.7967 14.4833 18.4233 15.4067 17.7467 16.1133L17.6367 16.2233C16.9233 16.9033 15.9867 17.28 15.0033 17.28C12.9233 17.28 11.2333 15.59 11.2333 13.5133C11.2333 11.4367 12.9267 9.75 15.0067 9.75H15.0267V9.75333Z" fill="black"/>
</svg>
