<svg width="24" height="24" viewBox="0 0 24 24" fill="none" xmlns="http://www.w3.org/2000/svg">
<g id="Fill=false">
<path id="Vector" d="M12 12.7443C11.376 12.7443 10.84 12.5283 10.392 12.0963C9.96 11.6483 9.744 11.1203 9.744 10.5123C9.744 9.88828 9.96 9.36028 10.392 8.92828C10.84 8.48028 11.376 8.25628 12 8.25628C12.624 8.25628 13.152 8.48028 13.584 8.92828C14.032 9.36028 14.256 9.88828 14.256 10.5123C14.256 11.1203 14.032 11.6483 13.584 12.0963C13.152 12.5283 12.624 12.7443 12 12.7443ZM12 9.48028C11.712 9.48028 11.464 9.58428 11.256 9.79228C11.064 9.98428 10.968 10.2163 10.968 10.4883C10.968 10.6963 11.024 10.8883 11.136 11.0643C11.264 11.2403 11.424 11.3683 11.616 11.4483C11.808 11.5283 12 11.5523 12.192 11.5203C12.4 11.4723 12.576 11.3763 12.72 11.2323C12.88 11.0883 12.976 10.9123 13.008 10.7043C13.056 10.4963 13.04 10.2963 12.96 10.1043C12.88 9.91228 12.752 9.76028 12.576 9.64828C12.4 9.53628 12.208 9.48028 12 9.48028ZM5.808 12.4083C5.648 12.3763 5.512 12.2883 5.4 12.1443C5.304 12.0003 5.256 11.8483 5.256 11.6883V9.26428C5.256 9.08828 5.312 8.93628 5.424 8.80828C5.536 8.66428 5.672 8.57628 5.832 8.54428L6.96 8.25628C7.104 7.90428 7.304 7.56028 7.56 7.22428L7.224 6.09628C7.176 5.93628 7.184 5.77628 7.248 5.61628C7.312 5.45628 7.424 5.32828 7.584 5.23228L9.672 4.03228C9.832 3.95228 9.992 3.92028 10.152 3.93628C10.312 3.95228 10.456 4.02428 10.584 4.15228L11.4 4.99228C11.816 4.94428 12.216 4.94428 12.6 4.99228L13.416 4.15228C13.528 4.04028 13.672 3.97628 13.848 3.96028C14.024 3.92828 14.184 3.95228 14.328 4.03228L16.416 5.23228C16.576 5.32828 16.688 5.45628 16.752 5.61628C16.816 5.77628 16.824 5.93628 16.776 6.09628L16.44 7.22428C16.68 7.54428 16.888 7.88828 17.064 8.25628L18.192 8.54428C18.352 8.57628 18.48 8.66428 18.576 8.80828C18.688 8.93628 18.744 9.08828 18.744 9.26428V11.6883C18.744 11.8643 18.696 12.0243 18.6 12.1683C18.504 12.2963 18.368 12.3843 18.192 12.4323L17.064 12.6963C16.92 13.0163 16.712 13.3683 16.44 13.7523L16.776 14.8803C16.824 15.0403 16.816 15.2003 16.752 15.3603C16.688 15.5203 16.576 15.6403 16.416 15.7203L14.328 16.9443C14.168 17.0083 14.04 17.0403 13.944 17.0403C13.752 17.0403 13.576 16.9603 13.416 16.8003L12.6 15.9603C12.216 16.0403 11.816 16.0403 11.4 15.9603L10.584 16.8003C10.472 16.9123 10.328 16.9843 10.152 17.0163C9.976 17.0323 9.816 17.0003 9.672 16.9203L7.584 15.7203C7.424 15.6403 7.312 15.5203 7.248 15.3603C7.184 15.2003 7.176 15.0323 7.224 14.8563L7.56 13.7283C7.32 13.4083 7.112 13.0643 6.936 12.6963L5.808 12.4083ZM8.904 7.46428L8.592 7.87228C8.352 8.19228 8.168 8.50428 8.04 8.80828L7.848 9.31228L6.48 9.62428V11.3283L7.848 11.6643L8.016 12.1203C8.16 12.4723 8.344 12.7923 8.568 13.0803L8.88 13.4883L8.496 14.8323L9.984 15.6723L10.944 14.6643L11.448 14.7363C11.816 14.7843 12.184 14.7843 12.552 14.7363L13.056 14.6643L14.016 15.6723L15.48 14.8323L15.096 13.4883L15.432 13.0803C15.656 12.7923 15.84 12.4723 15.984 12.1203L16.176 11.6163L17.544 11.3043V9.62428L16.176 9.28828L15.984 8.80828C15.84 8.47228 15.648 8.16028 15.408 7.87228L15.096 7.46428L15.48 6.12028L14.016 5.25628L13.032 6.28828L12.528 6.21628C12.176 6.16828 11.816 6.16828 11.448 6.21628L10.92 6.28828L9.96 5.25628L8.496 6.12028L8.904 7.46428ZM22.512 1.48828V19.4883H1.512V1.48828H22.512ZM21 18.0003V3.00028H3V18.0003H21ZM0 21.0003H24V22.5123H0V21.0003Z" fill="#474747"/>
</g>
</svg>
