<?xml version="1.0" encoding="UTF-8"?>
<svg width="24px" height="24px" viewBox="0 0 24 24" version="1.1" xmlns="http://www.w3.org/2000/svg" xmlns:xlink="http://www.w3.org/1999/xlink">
    <title>Icon/Outline/dining-outline</title>
    <g id="Icon/Outline/dining-outline" stroke="none" stroke-width="1" fill="none" fill-rule="evenodd">
        <g id="Group" transform="translate(5.000000, 0.000000)" fill="#474747" fill-rule="nonzero">
            <g id="Outline">
                <path d="M11.8046303,21.0965608 L11.8046303,20.8532186 L11.6112899,20.7065466 C11.339398,20.4988026 11.0922196,20.2605718 10.8745964,19.9965207 C10.3845785,19.3664978 10.1479033,17.9964478 10.1645705,15.8830375 C10.1645705,14.5029872 10.2912418,13.3596121 10.2912418,13.3462783 C10.4912491,11.3828734 10.7379248,8.93611757 11.3279463,5.34598671 C11.7112936,3.0359025 12.0713067,1.24917071 12.9613391,1.01249541 C13.0448542,0.989120866 13.1313,0.977894142 13.2180152,0.979160863 C13.3596789,0.980968537 13.5002197,1.00457938 13.634697,1.04916341 C13.6860864,1.12753004 13.7285729,1.21138499 13.7613683,1.29917253 C13.8163333,1.44947701 13.8401503,1.60939132 13.8313709,1.76918966 C13.8313709,1.87252676 13.8313709,1.97919732 13.8313709,2.08253442 L13.8313709,21.449907 L13.8847061,23.9966665 L14.8414077,23.9966665 L14.7880724,21.413239 L14.7880724,2.03253259 C14.7880724,1.94252931 14.7880724,1.85252603 14.7880724,1.75585584 C14.8023173,1.23896185 14.6334879,0.733654408 14.3113883,0.329137169 L14.2313854,0.225800069 L14.1080476,0.179131701 C13.6633158,-0.0132167387 13.1671776,-0.0519225546 12.6979962,0.0691276913 C11.2646106,0.479142637 10.8512622,2.35921117 10.387912,5.18264742 C9.79122358,8.79611247 9.54121447,11.2595356 9.34120718,13.2396078 C9.34120718,13.2862761 9.22120281,14.4363181 9.21120244,15.8597033 C9.18786826,18.2464569 9.47787883,19.7431782 10.1212356,20.569875 C10.335857,20.8411293 10.5782996,21.0891581 10.8445953,21.3099019 C10.8179277,22.1988232 10.7934823,23.0955226 10.7712593,24 L11.7279608,24 C11.7546285,23.0266312 11.7779627,22.0565958 11.8046303,21.0965608 Z M8.08782816,0.0291262332 L8.63784821,10.2228311 C8.75118567,12.2062368 7.97782415,14.0863053 6.61777457,15.1296767 C6.40244038,15.2887845 6.27707748,15.5419927 6.28109564,15.8097015 L6.28109564,15.8097015 L6.44110147,23.9966665 L5.48773338,23.9966665 L5.3243941,15.8297022 C5.31754768,15.2575111 5.58216879,14.7159034 6.03775343,14.369649 C7.14779389,13.519618 7.78115031,11.9428938 7.68114667,10.2761664 L7.68114667,10.2761664 L7.12112626,0.0291262332 L8.08782816,0.0291262332 Z M5.97775124,0.0291262332 L5.97775124,9.63280963 L5.02104971,9.63280963 L5.02104971,0.0291262332 L5.97775124,0.0291262332 Z M1.52758903,0.0291262332 L0.964235163,10.272833 C0.867564973,11.9495607 1.49758794,13.519618 2.61096185,14.369649 C3.06699417,14.7152048 3.33077115,15.2576195 3.32098774,15.8297022 L3.32098774,15.8297022 L3.1609819,23.9966665 L2.20761382,23.9966665 L2.3642862,15.7963676 C2.36324729,15.5343067 2.23996615,15.2877444 2.03094071,15.1296767 C0.677558047,14.0863053 -0.102470386,12.2195706 0.0108670782,10.2194977 L0.0108670782,10.2194977 L0.570887492,0.0291262332 L1.52758903,0.0291262332 Z M3.74100305,0.0291262332 L3.74100305,9.63280963 L2.78430151,9.63280963 L2.78430151,0.0291262332 L3.74100305,0.0291262332 Z" id="Combined-Shape"></path>
            </g>
        </g>
    </g>
</svg>