<?xml version="1.0" encoding="UTF-8"?>
<svg width="24px" height="24px" viewBox="0 0 24 24" version="1.1" xmlns="http://www.w3.org/2000/svg" xmlns:xlink="http://www.w3.org/1999/xlink">
    <title>Icon/Outline/disability-insurance-outline</title>
    <g id="Icon/Outline/disability-insurance-outline" stroke="none" stroke-width="1" fill="none" fill-rule="evenodd">
        <g id="Group" transform="translate(0.000000, 2.000000)" fill="#474747" fill-rule="nonzero">
            <g id="Outline">
                <path d="M0,8.05358762 L7.4035671,10.0303167 L8.45360025,10.8436757 L15.2504815,11.6203669 C15.9413161,11.6888272 16.473762,12.2598148 16.4938541,12.9537423 C22.3039791,12.3572323 23.0175032,12.2891066 23.3301266,12.4748682 L23.3660176,12.4983607 C23.3833015,12.5106987 23.3998183,12.5239112 23.4165823,12.5379388 L23.4507405,12.5670635 L23.5074089,12.6203985 L23.5340764,12.6904007 C23.720924,13.2434031 23.8668772,13.8093898 23.9707569,14.3837875 C24.1171356,15.109075 23.7016381,15.8301273 23.0007262,16.067174 L23.0007262,16.067174 L13.5904291,19.2206069 L13.4586667,19.2208119 C13.3303746,19.2239288 11.7575935,19.2619971 10.1603208,19.2939425 C9.33362804,19.3106097 8.50360183,19.3339438 7.88358226,19.3339438 L7.88358226,19.3339438 L7.12773157,19.3330584 C6.74932769,19.3283186 6.48353805,19.3006094 6.29686549,19.160605 C5.46683928,18.8772627 2.45674424,17.9705674 0.596685507,17.4205501 L0.596685507,17.4205501 L0,17.2405444 L0,8.05358762 Z M1.66671929,10.2203227 L1.67338617,16.0038387 C5.09016072,17.0038702 6.39020177,17.4072163 7.00688791,17.6705579 C7.64357468,17.6838917 11.0703495,17.610556 13.3104203,17.557221 L13.3104203,17.557221 L22.3107045,14.5571263 C22.2707032,14.3671203 22.2407022,14.2104487 22.2140347,14.0737777 C21.0006631,14.1804477 18.4405823,14.4537897 16.4571863,14.6471291 C16.3263042,15.423257 15.6575261,15.9936854 14.8704695,16.0005052 L14.8704695,16.0005052 L7.35356552,16.0005052 L7.35356552,14.3337859 L14.8304683,14.3337859 L14.8304683,13.2670856 L7.80691317,12.45706 L6.66687717,11.5536981 L1.66671929,10.2203227 Z M14.0171093,0 L14.0171093,3.73345122 L17.7672277,3.73345122 L17.7672277,5.2268317 L14.0171093,5.2268317 L14.0171093,8.96028292 L12.5170619,8.96028292 L12.5170619,5.2268317 L8.76694348,5.2268317 L8.76694348,3.73345122 L12.5170619,3.73345122 L12.5170619,0 L14.0171093,0 Z" id="Combined-Shape"></path>
            </g>
        </g>
    </g>
</svg>