<?xml version="1.0" encoding="UTF-8"?>
<svg width="24px" height="24px" viewBox="0 0 24 24" version="1.1" xmlns="http://www.w3.org/2000/svg" xmlns:xlink="http://www.w3.org/1999/xlink">
    <title>Icon/Outline/display-power-outline</title>
    <g id="Icon/Outline/display-power-outline" stroke="none" stroke-width="1" fill="none" fill-rule="evenodd">
        <g id="Group" transform="translate(0.000000, 1.000000)" fill="#474747" fill-rule="nonzero">
            <g id="Outline">
                <path d="M23.24,0 C23.4415645,0 23.6348735,0.0800711987 23.7774012,0.222598846 C23.9199288,0.365126494 24,0.558435468 24,0.76 L24,0.76 L24,18.0666667 C24,18.2682312 23.9199288,18.4615402 23.7774012,18.6040678 C23.6348735,18.7465955 23.4415645,18.8266667 23.24,18.8266667 L23.24,18.8266667 L12.7633333,18.8266667 L12.7633333,20.3866667 L16.63,20.3866667 L16.63,21.9066667 L7.37,21.9066667 L7.37,20.3866667 L11.2433333,20.3866667 L11.2433333,18.8266667 L0.76,18.8266667 C0.34026359,18.8266667 0,18.4864031 0,18.0666667 L0,18.0666667 L0,0.76 C0,0.558435468 0.0800711987,0.365126494 0.222598846,0.222598846 C0.365126494,0.0800711987 0.558435468,0 0.76,0 L0.76,0 Z M22.48,1.52 L1.52,1.52 L1.52,17.3066667 L22.48,17.3066667 L22.48,1.52 Z M20.4733333,2.86333333 C20.8917714,2.86333333 21.2314981,3.20156592 21.2333333,3.62 L21.2333333,3.62 L21.2333333,15.1933333 C21.2333333,15.6130697 20.8930697,15.9533333 20.4733333,15.9533333 L20.4733333,15.9533333 L3.52666667,15.9533333 C3.11080469,15.9533333 2.77213853,15.6191593 2.76666667,15.2033333 L2.76666667,15.2033333 L2.76666667,3.62 C2.76850192,3.20156592 3.10822857,2.86333333 3.52666667,2.86333333 L3.52666667,2.86333333 Z M19.7133333,4.37 L4.28666667,4.37 L4.28666667,14.4433333 L19.7133333,14.4433333 L19.7133333,4.37 Z M14.0633333,6.02 C15.5550209,6.94734309 16.2510729,8.75130737 15.7688744,10.4402661 C15.286676,12.1292248 13.743111,13.2937774 11.9866667,13.2937774 C10.2302223,13.2937774 8.68665736,12.1292248 8.2044589,10.4402661 C7.72226044,8.75130737 8.41831248,6.94734309 9.91,6.02 L9.91,6.02 L10.5766667,7.40333333 C9.72526706,8.0160754 9.36636892,9.10809322 9.68827192,10.1064482 C10.0101749,11.1048031 10.9393652,11.7814982 11.9883333,11.7814982 C13.0373015,11.7814982 13.9664917,11.1048031 14.2883947,10.1064482 C14.6102977,9.10809322 14.2513996,8.0160754 13.4,7.40333333 L13.4,7.40333333 L14.0666667,6.02333333 Z M12.76,5.44333333 L12.76,9.21666667 L11.24,9.21666667 L11.24,5.44333333 L12.76,5.44333333 Z" id="Combined-Shape"></path>
            </g>
        </g>
    </g>
</svg>