<?xml version="1.0" encoding="UTF-8"?>
<svg width="24px" height="24px" viewBox="0 0 24 24" version="1.1" xmlns="http://www.w3.org/2000/svg" xmlns:xlink="http://www.w3.org/1999/xlink">
    <title>Icon/Outline/doc-outline</title>
    <g id="Icon/Outline/doc-outline" stroke="none" stroke-width="1" fill="none" fill-rule="evenodd">
        <g id="Group" transform="translate(-0.000000, -0.000000)" fill="#474747" fill-rule="nonzero">
            <g id="doc" transform="translate(0.000000, 3.000000)">
                <path d="M22.5,0 C23.3280001,0 24,0.672000003 24,1.5 L24,18 L0,18 L0,0 L22.5,0 Z M1.50000001,16.5 L22.5,16.5 L22.5,1.50000001 L1.50000001,1.50000001 L1.50000001,16.5 Z M3.75000002,11.9152332 L3.75000002,6.08410285 L5.95994942,6.08410285 C6.6703432,6.08410285 7.2646326,6.3077074 7.74283541,6.75492318 C8.22103826,7.20213888 8.46013609,7.77550098 8.46013609,8.47502651 L8.46013609,9.52430959 C8.46013609,10.226505 8.22103826,10.8005346 7.74283541,11.2464153 C7.2646326,11.6922962 6.6703432,11.9152332 5.95994942,11.9152332 L3.75000002,11.9152332 Z M5.15143134,7.12537615 L5.15143134,10.8739599 L5.95994942,10.8739599 C6.27782991,10.8739599 6.53973186,10.7484744 6.74566313,10.4974996 C6.9515944,10.2465248 7.0545585,9.92213134 7.0545585,9.52430959 L7.0545585,8.46701674 C7.0545585,8.07453483 6.9515944,7.75281131 6.74566313,7.50183648 C6.53973186,7.25086166 6.27782991,7.12537615 5.95994942,7.12537615 L5.15143134,7.12537615 Z M14.526924,9.52430959 C14.526924,10.2425247 14.2912813,10.8345761 13.819989,11.3004815 C13.3486966,11.7663869 12.7329851,11.9993361 11.9728361,11.9993361 C11.2071588,11.9993361 10.5866101,11.7663869 10.1111715,11.3004815 C9.63573282,10.8345761 9.39801701,10.2425247 9.39801701,9.52430959 L9.39801701,8.47502651 C9.39801701,7.75948128 9.63504177,7.16809735 10.1090983,6.70085703 C10.5831549,6.2336167 11.2016304,6.00000003 11.9645436,6.00000003 C12.7219285,6.00000003 13.338331,6.2336167 13.8137696,6.70085703 C14.2892083,7.16809735 14.526924,7.75948128 14.526924,8.47502651 L14.526924,9.52430959 Z M13.1296389,8.46701674 C13.1296389,8.05050528 13.0280569,7.70875751 12.8248898,7.44176306 C12.6217227,7.17476853 12.3349435,7.04127333 11.9645436,7.04127333 C11.5858512,7.04127333 11.2963079,7.17410103 11.095905,7.43976056 C10.895502,7.70542008 10.7953021,8.04783536 10.7953021,8.46701674 L10.7953021,9.52430959 C10.7953021,9.94616089 10.8968841,10.2905786 11.1000513,10.557573 C11.3032183,10.8245676 11.5941437,10.9580628 11.9728361,10.9580628 C12.3404719,10.9580628 12.6251779,10.8245676 12.826963,10.557573 C13.0287479,10.2905786 13.1296389,9.94616089 13.1296389,9.52430959 L13.1296389,8.46701674 Z M20.2288422,9.94882872 L20.2371347,9.97285804 C20.2481915,10.6376743 20.0540108,11.1416188 19.6545871,11.4847068 C19.2551633,11.8277946 18.6892064,11.9993361 17.9566991,11.9993361 C17.210371,11.9993361 16.6112444,11.7790689 16.1593012,11.338528 C15.7073581,10.8979871 15.48139,10.3212877 15.48139,9.60841242 L15.48139,8.39092368 C15.48139,7.68071831 15.6990657,7.10468635 16.1344237,6.6628105 C16.5697819,6.22093465 17.1454133,6.00000003 17.8613354,6.00000003 C18.6270128,6.00000003 19.2192291,6.17220888 19.6380021,6.51663175 C20.0567751,6.86105463 20.2606301,7.36166178 20.2495735,8.01846821 L20.2371347,8.04249761 L18.8730196,8.04249761 C18.8730196,7.68472503 18.7942417,7.42841411 18.6366836,7.27355733 C18.4791254,7.11870055 18.2206787,7.04127333 17.8613354,7.04127333 C17.5462192,7.04127333 17.3043571,7.16342148 17.1357423,7.40772138 C16.9671274,7.65202136 16.8828213,7.97708223 16.8828213,8.38291383 L16.8828213,9.60841242 C16.8828213,10.0169139 16.9754198,10.3439773 17.1606198,10.5896122 C17.3458197,10.8352472 17.6111768,10.9580628 17.9566991,10.9580628 C18.2773438,10.9580628 18.5088403,10.8806355 18.6511955,10.7257788 C18.7935506,10.5709219 18.8647271,10.3119411 18.8647271,9.94882872 L20.2288422,9.94882872 Z" id="Combined-Shape"></path>
            </g>
        </g>
    </g>
</svg>