<?xml version="1.0" encoding="UTF-8"?>
<svg width="24px" height="24px" viewBox="0 0 24 24" version="1.1" xmlns="http://www.w3.org/2000/svg" xmlns:xlink="http://www.w3.org/1999/xlink">
    <title>Icon/Outline/document-text-outline</title>
    <g id="Icon/Outline/document-text-outline" stroke="none" stroke-width="1" fill="none" fill-rule="evenodd">
        <g id="Icon" transform="translate(3.000000, 0.000000)" fill="#474747" fill-rule="nonzero">
            <path d="M12.5932865,0 L18.6720888,6.76085214 L18.6720888,24 L1.46957616e-15,24 L-1.46957616e-15,0 L12.5932865,0 Z M11.3899741,1.403 L1.403,1.403 L1.403,22.597 L17.2690888,22.597 L17.2690888,7.64777636 L11.3899741,7.64777636 L11.3899741,1.403 Z M15,16.5 L15,18 L4.5,18 L4.5,16.5 L15,16.5 Z M15,12 L15,13.5 L4.5,13.5 L4.5,12 L15,12 Z M12.7929742,1.99168947 L12.7929742,6.61303144 L16.5792588,6.61303144 L12.7929742,1.99168947 Z" id="Combined-Shape"></path>
        </g>
    </g>
</svg>