<svg width="24" height="24" viewBox="0 0 24 24" fill="none" xmlns="http://www.w3.org/2000/svg">
<path d="M21.5385 6.43333L15.3552 0.213333C15.2219 0.0766667 15.0385 0 14.8485 0H2.96854C2.57187 0 2.24854 0.323333 2.24854 0.723333V23.2767C2.24854 23.6767 2.57187 24 2.96854 24H21.0319C21.4285 24 21.7519 23.6767 21.7519 23.2767V6.94667C21.7519 6.75333 21.6752 6.57 21.5419 6.43667L21.5385 6.43333ZM15.5652 2.47L19.2919 6.22H15.5652V2.47ZM3.6852 22.5533V1.44667H14.1252V7.67H20.3085V22.5533H3.6852ZM12.7252 16.5133H11.2252V10.46H12.7252V16.5133ZM12.8385 19C12.8385 19.4767 12.4519 19.8633 11.9752 19.8633C11.4985 19.8633 11.1119 19.4767 11.1119 19C11.1119 18.5233 11.4985 18.1367 11.9752 18.1367C12.4519 18.1367 12.8385 18.5233 12.8385 19Z" fill="black"/>
</svg>
