<svg width="24" height="24" viewBox="0 0 24 24" fill="none" xmlns="http://www.w3.org/2000/svg">
<path d="M21.5385 6.43333L15.3552 0.213333C15.2219 0.0766667 15.0385 0 14.8485 0H2.96854C2.57187 0 2.24854 0.323333 2.24854 0.723333V23.2767C2.24854 23.6767 2.57187 24 2.96854 24H21.0319C21.4285 24 21.7519 23.6767 21.7519 23.2767V6.94667C21.7519 6.75333 21.6752 6.57 21.5419 6.43667L21.5385 6.43333ZM15.5652 2.47L19.2919 6.22H15.5652V2.47ZM3.6852 22.5533V1.44667H14.1252V7.67H20.3085V22.5533H3.6852ZM11.9985 20.3133L11.7119 20.1933C10.2719 19.5967 7.29854 17.7 7.29854 15.6533V9.92L11.9985 8.37333L16.6985 9.92V15.6533C16.6985 17.6967 13.7252 19.5933 12.2852 20.1933L11.9985 20.3133ZM8.79854 11.0067V15.6567C8.79854 16.5433 10.4852 17.97 11.9985 18.6833C13.5119 17.97 15.1985 16.5467 15.1985 15.6567V11.0067L11.9985 9.95333L8.79854 11.0067Z" fill="black"/>
</svg>
