<svg width="24" height="24" viewBox="0 0 24 24" fill="none" xmlns="http://www.w3.org/2000/svg">
<path d="M12.0015 14H6.00146V15.5H12.0015V14Z" fill="black"/>
<path d="M18.0015 9.5H6.00146V11H18.0015V9.5Z" fill="black"/>
<path d="M18.0015 5H6.00146V6.5H18.0015V5Z" fill="black"/>
<path d="M20.1881 0H3.8148C2.95146 0 2.25146 0.716667 2.25146 1.6V22.4C2.25146 23.2833 2.95146 24 3.8148 24H20.1848C21.0481 24 21.7481 23.2833 21.7481 22.4V1.6C21.7481 0.716667 21.0481 0 20.1848 0H20.1881ZM20.2515 22.4C20.2515 22.4633 20.2081 22.5 20.1881 22.5H3.8148C3.79146 22.5 3.75146 22.4667 3.75146 22.4V1.6C3.75146 1.53333 3.7948 1.5 3.8148 1.5H20.1848C20.2081 1.5 20.2481 1.53333 20.2481 1.6V22.4H20.2515Z" fill="black"/>
</svg>
