<svg width="24" height="24" viewBox="0 0 24 24" fill="none" xmlns="http://www.w3.org/2000/svg">
<path d="M16.5233 11.6267L13.87 8.97333C13.4467 8.55 12.76 8.55 12.34 8.97333L9.57333 11.6967L10.57 12.6967L13.1 10.21L15.2833 12.3933L12.7867 14.9167L13.79 15.92L16.52 13.1567C16.9433 12.7333 16.9433 12.0467 16.52 11.6233L16.5233 11.6267Z" fill="black"/>
<path d="M10.8933 19.9467L8.71333 17.7667L11.2 15.3033L10.1967 14.3033L7.47333 17C7.05 17.4233 7.05 18.11 7.47333 18.5333L10.1267 21.1867C10.3367 21.3967 10.6167 21.5033 10.8933 21.5033C11.17 21.5033 11.45 21.3967 11.66 21.1867L14.3633 18.4667L13.36 17.4633L10.89 19.95L10.8933 19.9467Z" fill="black"/>
<path d="M13.1033 11.39L11.0833 13.43L12.0833 14.4333L14.1067 12.39L13.1033 11.39Z" fill="black"/>
<path d="M10.8967 18.7667L12.9033 16.7433L11.9033 15.74L9.89333 17.7667L10.8967 18.7667Z" fill="black"/>
<path d="M21.5367 6.43L15.36 0.216667C15.2233 0.08 15.0367 0 14.84 0H2.98667C2.58 0 2.25 0.33 2.25 0.736667V23.2633C2.25 23.6667 2.58 24 2.98667 24H21.02C21.4233 24 21.75 23.6733 21.75 23.27V6.95C21.75 6.75667 21.6733 6.57 21.5367 6.43ZM15.59 2.49333L19.2733 6.2C19.2733 6.2 19.2733 6.22333 19.2633 6.22333H15.58C15.58 6.22333 15.5667 6.21667 15.5667 6.21V2.5C15.5667 2.5 15.58 2.48333 15.59 2.49V2.49333ZM3.68667 1.46C3.68667 1.46 3.69333 1.44667 3.7 1.44667H14.1167C14.1167 1.44667 14.13 1.45333 14.13 1.46V7.65667C14.13 7.65667 14.1367 7.67 14.1433 7.67H20.3C20.3 7.67 20.3133 7.67667 20.3133 7.68333V22.5433C20.3133 22.5433 20.3067 22.5567 20.3 22.5567H3.7C3.7 22.5567 3.68667 22.55 3.68667 22.5433V1.46Z" fill="black"/>
</svg>
