<svg width="24" height="24" viewBox="0 0 24 24" fill="none" xmlns="http://www.w3.org/2000/svg">
<path d="M21.5385 6.43333L15.3552 0.213333C15.2219 0.0766667 15.0385 0 14.8485 0H2.96854C2.57187 0 2.24854 0.323333 2.24854 0.723333V23.2767C2.24854 23.6767 2.57187 24 2.96854 24H21.0319C21.4285 24 21.7519 23.6767 21.7519 23.2767V6.94667C21.7519 6.75333 21.6752 6.57 21.5419 6.43667L21.5385 6.43333ZM15.5652 2.47L19.2919 6.22H15.5652V2.47ZM3.6852 22.5533V1.44667H14.1252V7.67H20.3085V22.5533H3.6852ZM11.3085 10.4133V17.7533L9.3252 15.77C9.18854 15.6333 9.0152 15.57 8.83854 15.57C8.66187 15.57 8.4852 15.6367 8.35187 15.77C8.08187 16.04 8.08187 16.4767 8.35187 16.7433L11.9985 20.39L15.6452 16.7433C15.9152 16.4733 15.9152 16.0367 15.6452 15.77C15.3752 15.5033 14.9385 15.5 14.6719 15.77L12.6885 17.7533V10.4167H11.3119L11.3085 10.4133Z" fill="black"/>
</svg>
