<svg width="24" height="24" viewBox="0 0 24 24" fill="none" xmlns="http://www.w3.org/2000/svg">
<path d="M21.5385 6.43333L15.3552 0.213333C15.2219 0.0766667 15.0385 0 14.8485 0H2.96854C2.57187 0 2.24854 0.323333 2.24854 0.723333V23.2767C2.24854 23.6767 2.57187 24 2.96854 24H21.0319C21.4285 24 21.7519 23.6767 21.7519 23.2767V6.94667C21.7519 6.75333 21.6752 6.57 21.5419 6.43667L21.5385 6.43333ZM15.5652 2.47L19.2919 6.22H15.5652V2.47ZM3.6852 22.5533V1.44667H14.1252V7.67H20.3085V22.5533H3.6852ZM9.20187 19.1867L14.3919 13.9967V16.8033C14.3919 16.9933 14.4685 17.1633 14.5919 17.29C14.7152 17.4167 14.8885 17.4933 15.0785 17.4933C15.4585 17.4933 15.7685 17.1833 15.7685 16.8033V11.6433H10.6119C10.2319 11.6433 9.92187 11.9533 9.92187 12.3333C9.92187 12.7133 10.2319 13.0233 10.6119 13.0233H13.4152L8.2252 18.2133L9.19854 19.1867H9.20187Z" fill="black"/>
</svg>
