<svg width="24" height="24" viewBox="0 0 24 24" fill="none" xmlns="http://www.w3.org/2000/svg">
<path d="M14.335 14.1567H8.33496V15.6733H14.335V14.1567Z" fill="black"/>
<path d="M8.33496 9.60667V11.1233H18.6683V9.60667H8.33496Z" fill="black"/>
<path d="M8.33496 5.05667V6.57333H18.6683V5.05667H8.33496Z" fill="black"/>
<path d="M20.855 0H6.14829C5.28496 0 4.58496 0.726667 4.58496 1.62V2.76667H3.14829C2.28496 2.76667 1.58496 3.49333 1.58496 4.39V22.38C1.58496 23.2767 2.28496 24 3.14829 24H17.8516C18.715 24 19.415 23.2733 19.415 22.38V20.9H20.8516C21.715 20.9 22.415 20.1767 22.415 19.2833V1.62C22.4183 0.726667 21.7183 0 20.855 0ZM17.9183 22.38C17.9183 22.4467 17.875 22.48 17.855 22.48H3.14829C3.12496 22.48 3.08496 22.4467 3.08496 22.38V4.38667C3.08496 4.32 3.12829 4.28333 3.14829 4.28333H4.58496V19.2767C4.58496 20.17 5.28496 20.8933 6.14829 20.8933H17.9183V22.38ZM20.9183 19.2833C20.9183 19.35 20.875 19.3833 20.855 19.3833H6.14829C6.12496 19.3833 6.08496 19.35 6.08496 19.2833V1.62C6.08496 1.55333 6.12829 1.52 6.14829 1.52H20.8516C20.875 1.52 20.915 1.55333 20.915 1.62V19.2833H20.9183Z" fill="black"/>
</svg>
