<?xml version="1.0" encoding="UTF-8"?>
<svg width="24px" height="24px" viewBox="0 0 24 24" version="1.1" xmlns="http://www.w3.org/2000/svg" xmlns:xlink="http://www.w3.org/1999/xlink">
    <title>Icon/Outline/door-opened-outline</title>
    <g id="Icon/Outline/door-opened-outline" stroke="none" stroke-width="1" fill="none" fill-rule="evenodd">
        <g id="Group" transform="translate(-0.000000, -0.000000)" fill="#474747" fill-rule="nonzero">
            <g id="door-opened" transform="translate(3.000000, 0.000000)">
                <path d="M3.24649679,21.7494366 L0.750000003,21.7494366 C0.335786439,21.7494366 0,21.4136589 0,20.999456 C0,20.5852532 0.335786439,20.2494755 0.750000003,20.2494755 L1.5,20.2494755 L1.5,1.49996115 C1.5,0.67155548 2.17157288,0 3,0 L15,0 C15.8284272,0 16.5,0.67155548 16.5,1.49996115 L16.5,20.2494755 L17.2500001,20.2494755 C17.6642136,20.2494755 18,20.5852532 18,20.999456 C18,21.4136589 17.6642136,21.7494366 17.2500001,21.7494366 L12.7500001,21.7494366 L12.7500001,23.2500195 C12.7500001,23.6642223 12.4142136,24 12,24 C11.9363319,24 11.8729228,23.9918932 11.8113027,23.9758749 L3.24649679,21.7494366 Z M4.3631845,1.49996115 L11.6273947,3.38830698 C12.2884982,3.56016214 12.7500001,4.15695888 12.7500001,4.84001773 L12.7500001,20.2494755 L15.0000001,20.2494755 L15.0000001,1.49996115 L4.3631845,1.49996115 Z M11.25,4.84001773 L3.00000001,2.69541387 L3.00000001,20.1355441 L11.25,22.2801479 L11.25,4.84001773 Z M9.00000004,11.2497086 C9.41421356,11.2497086 9.75000003,11.5854864 9.75000003,11.9996892 L9.75000003,14.9996115 C9.75000003,15.4138143 9.41421356,15.7495921 9.00000004,15.7495921 C8.58578651,15.7495921 8.25000003,15.4138143 8.25000003,14.9996115 L8.25000003,11.9996892 C8.25000003,11.5854864 8.58578651,11.2497086 9.00000004,11.2497086 Z" id="ic_ol_door_opened_32"></path>
            </g>
        </g>
    </g>
</svg>