<?xml version="1.0" encoding="UTF-8"?>
<svg width="24px" height="24px" viewBox="0 0 24 24" version="1.1" xmlns="http://www.w3.org/2000/svg" xmlns:xlink="http://www.w3.org/1999/xlink">
    <title>Icon/Outline/download-cloud-outline</title>
    <g id="Icon/Outline/download-cloud-outline" stroke="none" stroke-width="1" fill="none" fill-rule="evenodd">
        <g id="cloud-outline" transform="translate(1.000000, 0.000000)" fill="#474747">
            <path d="M13.6469199,0 C17.1379205,0 19.9825897,2.76727347 20.1070069,6.22789974 C21.8079388,7.03396864 22.9842861,8.76655106 22.9842861,10.7738841 C22.9842861,13.5506683 20.7332577,15.8016967 17.9564735,15.8016967 L14.365,15.801 L14.365,14.365 L17.9564735,14.3651788 C19.9398908,14.3651788 21.5477682,12.7573014 21.5477682,10.7738841 C21.5477682,9.3715211 20.7373464,8.11627777 19.4918261,7.52602772 L18.7027882,7.15210384 L18.6714166,6.27951246 C18.5744373,3.58206454 16.3550483,1.43651788 13.6469199,1.43651788 C11.8284672,1.43651788 10.1810195,2.40881717 9.28815989,3.95614058 L8.61696236,5.11932416 L7.41127092,4.52787635 C7.11967016,4.38483264 6.79884732,4.30955365 6.46433047,4.30955365 C5.32770824,4.30955365 4.38801626,5.19311198 4.31425372,6.32005595 L4.2590491,7.16347223 L3.49497238,7.52483829 C2.24810288,8.11453865 1.43651788,9.37052372 1.43651788,10.7738841 C1.43651788,12.7573014 3.04439529,14.3651788 5.02781259,14.3651788 L8.619,14.365 L8.619,15.801 L5.02781259,15.8016967 C2.25102837,15.8016967 0,13.5506683 0,10.7738841 C0,8.7651651 1.17797232,7.03157626 2.88080314,6.22623144 C3.00335942,4.35381664 4.5609175,2.87303576 6.46433047,2.87303576 C7.0311155,2.87303576 7.56723402,3.00433478 8.04392905,3.2381759 C9.16078421,1.30266888 11.2517248,0 13.6469199,0 Z" id="Combined-Shape" fill-rule="nonzero"></path>
            <path d="M12.210402,21.2502482 L15.9672793,17.4935317 C16.2469215,17.2129319 16.7018188,17.2129319 16.9824187,17.4935317 C17.2630184,17.7741315 17.2630184,18.2290289 16.9824187,18.5096287 L11.4920473,24 L6.00167595,18.5096287 C5.72107612,18.2290289 5.72107612,17.7741315 6.00167595,17.4935317 C6.28227577,17.2129319 6.7371731,17.2129319 7.01777292,17.4935317 L10.7738841,21.2496429 L10.7738841,10.1071803 L12.210402,10.1071803 L12.210402,21.2502482 Z" id="Combined-Shape-path"></path>
        </g>
    </g>
</svg>