<?xml version="1.0" encoding="UTF-8"?>
<svg width="24px" height="24px" viewBox="0 0 24 24" version="1.1" xmlns="http://www.w3.org/2000/svg" xmlns:xlink="http://www.w3.org/1999/xlink">
    <title>Icon/Outline/download-outline</title>
    <g id="Icon/Outline/download-outline" stroke="none" stroke-width="1" fill="none" fill-rule="evenodd">
        <g id="Group" transform="translate(-0.000000, -0.000000)" fill="#474747" fill-rule="nonzero">
            <g id="download">
                <path d="M12.7500001,16.1893321 L16.6729,12.2666001 C16.9649001,11.9736 17.4399001,11.9736 17.7329001,12.2666001 C18.0259001,12.5596 18.0259001,13.0346001 17.7329001,13.3276 L11.9999001,19.0606001 L6.26690003,13.3276 C5.97390002,13.0346001 5.97390002,12.5596 6.26690003,12.2666001 C6.55990002,11.9736 7.03490003,11.9736 7.32790003,12.2666001 L11.25,16.1887 L11.25,7.50000003 L1.50000001,7.50000003 L1.50000001,22.5 L22.5,22.5 L22.5,7.50000003 L12.7500001,7.50000003 L12.7500001,16.1893321 Z M11.25,6 L11.25,0 L12.7500001,0 L12.7500001,6 L24,6 L24,22.5 C24,23.3280001 23.3280001,24 22.5,24 L1.5,24 C0.672000003,24 0,23.3280001 0,22.5 L0,6 L11.25,6 Z" id="Combined-Shape"></path>
            </g>
        </g>
    </g>
</svg>