<?xml version="1.0" encoding="UTF-8"?>
<svg width="24px" height="24px" viewBox="0 0 24 24" version="1.1" xmlns="http://www.w3.org/2000/svg" xmlns:xlink="http://www.w3.org/1999/xlink">
    <title>Icon/Outline/down-chevron-circle-outline</title>
    <g id="Icon/Outline/down-chevron-circle-outline" stroke="none" stroke-width="1" fill="none" fill-rule="evenodd">
        <g id="Group" transform="translate(-0.000000, -0.000000)" fill="#474747" fill-rule="nonzero">
            <g id="down-chevron-circle">
                <path d="M23.8130001,9.95300007 C23.7200001,9.41300006 23.6000001,8.88200006 23.4380001,8.37000003 C22.1900001,4.43400002 18.9640001,1.38900001 14.929,0.375000002 C13.9910001,0.139 13.015,0.001 12.004,0 L12,0 L11.9960001,0 C10.9850001,0.001 10.009,0.139 9.07100006,0.375000002 C4.51200002,1.52100001 0.996000004,5.26500002 0.188000001,9.94800004 C0.0730000003,10.6160001 0,11.299 0,12 C0,12.7010001 0.0730000003,13.384 0.188000001,14.0520001 C0.997000002,18.7360001 4.51300002,22.4800001 9.07200004,23.6250001 C10.011,23.8610001 10.9880001,24 12,24 C13.012,24 13.9890001,23.8610001 14.9280001,23.6250001 C18.9630001,22.6120001 22.1890001,19.5670001 23.4380001,15.6300001 C23.6000001,15.118 23.7200001,14.587 23.8130001,14.047 C23.9280001,13.381 24,12.6990001 24,12 C24,11.301 23.9280001,10.6190001 23.8130001,9.95300007 L23.8130001,9.95300007 Z M12,22.5 C6.21000003,22.5 1.50000001,17.7900001 1.50000001,12 C1.50000001,6.21000003 6.21000003,1.50000001 12,1.50000001 C17.7900001,1.50000001 22.5,6.21000003 22.5,12 C22.5,17.7900001 17.7900001,22.5 12,22.5 L12,22.5 Z M12.0002001,12.7734001 L8.33320001,9.10540001 L7.27320003,10.1664 L12.0002001,14.8944001 L16.7272,10.1664 L15.6672001,9.10540001 L12.0002001,12.7734001 L12.0002001,12.7734001 Z" id="Combined-Shape"></path>
            </g>
        </g>
    </g>
</svg>