<svg width="24" height="24" viewBox="0 0 24 24" fill="none" xmlns="http://www.w3.org/2000/svg">
<path d="M1.19056 5.69056C1.48427 5.39685 1.83392 5.25 2.23951 5.25C2.65909 5.25 3.01573 5.39685 3.30944 5.69056C3.60315 5.98427 3.75 6.34091 3.75 6.76049C3.75 7.16608 3.60315 7.51573 3.30944 7.80944C3.01573 8.10315 2.65909 8.25 2.23951 8.25C1.83392 8.25 1.48427 8.10315 1.19056 7.80944C0.896853 7.51573 0.75 7.16608 0.75 6.76049C0.75 6.34091 0.896853 5.98427 1.19056 5.69056Z" fill="#474747"/>
<path d="M1.19056 16.1906C1.48427 15.8969 1.83392 15.75 2.23951 15.75C2.65909 15.75 3.01573 15.8969 3.30944 16.1906C3.60315 16.4843 3.75 16.8409 3.75 17.2605C3.75 17.6661 3.60315 18.0157 3.30944 18.3094C3.01573 18.6031 2.65909 18.75 2.23951 18.75C1.83392 18.75 1.48427 18.6031 1.19056 18.3094C0.896853 18.0157 0.75 17.6661 0.75 17.2605C0.75 16.8409 0.896853 16.4843 1.19056 16.1906Z" fill="#474747"/>
<path d="M10.9406 5.69056C11.2343 5.39685 11.5839 5.25 11.9895 5.25C12.4091 5.25 12.7657 5.39685 13.0594 5.69056C13.3531 5.98427 13.5 6.34091 13.5 6.76049C13.5 7.16608 13.3531 7.51573 13.0594 7.80944C12.7657 8.10315 12.4091 8.25 11.9895 8.25C11.5839 8.25 11.2343 8.10315 10.9406 7.80944C10.6469 7.51573 10.5 7.16608 10.5 6.76049C10.5 6.34091 10.6469 5.98427 10.9406 5.69056Z" fill="#474747"/>
<path d="M10.9406 16.1906C11.2343 15.8969 11.5839 15.75 11.9895 15.75C12.4091 15.75 12.7657 15.8969 13.0594 16.1906C13.3531 16.4843 13.5 16.8409 13.5 17.2605C13.5 17.6661 13.3531 18.0157 13.0594 18.3094C12.7657 18.6031 12.4091 18.75 11.9895 18.75C11.5839 18.75 11.2343 18.6031 10.9406 18.3094C10.6469 18.0157 10.5 17.6661 10.5 17.2605C10.5 16.8409 10.6469 16.4843 10.9406 16.1906Z" fill="#474747"/>
<path d="M20.6906 5.69056C20.9843 5.39685 21.3339 5.25 21.7395 5.25C22.1591 5.25 22.5157 5.39685 22.8094 5.69056C23.1031 5.98427 23.25 6.34091 23.25 6.76049C23.25 7.16608 23.1031 7.51573 22.8094 7.80944C22.5157 8.10315 22.1591 8.25 21.7395 8.25C21.3339 8.25 20.9843 8.10315 20.6906 7.80944C20.3969 7.51573 20.25 7.16608 20.25 6.76049C20.25 6.34091 20.3969 5.98427 20.6906 5.69056Z" fill="#474747"/>
<path d="M20.6906 16.1906C20.9843 15.8969 21.3339 15.75 21.7395 15.75C22.1591 15.75 22.5157 15.8969 22.8094 16.1906C23.1031 16.4843 23.25 16.8409 23.25 17.2605C23.25 17.6661 23.1031 18.0157 22.8094 18.3094C22.5157 18.6031 22.1591 18.75 21.7395 18.75C21.3339 18.75 20.9843 18.6031 20.6906 18.3094C20.3969 18.0157 20.25 17.6661 20.25 17.2605C20.25 16.8409 20.3969 16.4843 20.6906 16.1906Z" fill="#474747"/>
</svg>
