<?xml version="1.0" encoding="UTF-8"?>
<svg width="24px" height="24px" viewBox="0 0 24 24" version="1.1" xmlns="http://www.w3.org/2000/svg" xmlns:xlink="http://www.w3.org/1999/xlink">
    <title>Icon/Outline/duplicate-outline</title>
    <g id="Icon/Outline/duplicate-outline" stroke="none" stroke-width="1" fill="none" fill-rule="evenodd">
        <g id="Group" transform="translate(-0.000000, -0.000000)" fill="#474747" fill-rule="nonzero">
            <g id="duplicate">
                <path d="M18,6 L21.7500001,6 C22.9905001,6 24,7.00950003 24,8.25000003 L24,21.7500001 C24,22.9905001 22.9905001,24 21.7500001,24 L8.25000003,24 C7.00950003,24 6,22.9905001 6,21.7500001 L6,18 L2.25000001,18 C1.0095,18 0,16.9905001 0,15.7500001 L0,0 L15.7500001,0 C16.9905001,0 18,1.0095 18,2.25000001 L18,6 Z M22.5,21.7500001 L22.5,8.25000003 C22.5,7.83600003 22.1640001,7.50000003 21.7500001,7.50000003 L7.50000003,7.50000003 L7.50000003,16.5 L11.595,16.5 L9.65250004,14.5560001 L10.713,13.4955001 L14.4675001,17.2500001 L10.713,21.0045001 L9.65250004,19.9440001 L11.5965,18 L7.50000003,18 L7.50000003,21.7500001 C7.50000003,22.1640001 7.83600003,22.5 8.25000003,22.5 L21.7500001,22.5 C22.1640001,22.5 22.5,22.1640001 22.5,21.7500001 Z M2.25000001,16.5 L6.00000001,16.5 L6.00000001,6.00000001 L16.5,6.00000001 L16.5,2.25000001 C16.5,1.83600001 16.1640001,1.50000001 15.7500001,1.50000001 L1.50000001,1.50000001 L1.50000001,15.7500001 C1.50000001,16.1640001 1.83600001,16.5 2.25000001,16.5 Z" id="Page-1"></path>
            </g>
        </g>
    </g>
</svg>