<?xml version="1.0" encoding="UTF-8"?>
<svg width="24px" height="24px" viewBox="0 0 24 24" version="1.1" xmlns="http://www.w3.org/2000/svg" xmlns:xlink="http://www.w3.org/1999/xlink">
    <title>Icon/Outline/education-outline</title>
    <g id="Icon/Outline/education-outline" stroke="none" stroke-width="1" fill="none" fill-rule="evenodd">
        <g id="Group" transform="translate(0.000000, 4.000000)" fill="#474747" fill-rule="nonzero">
            <g id="Outline">
                <path d="M23.4522248,3.09699128 L11.897036,0 L11.8669356,0 L0.539171621,3.2307706 C0.22055306,3.31912376 0,3.6091591 0,3.939801 C0,4.27044291 0.22055306,4.56047825 0.539171621,4.6488314 L4.12445742,5.69565459 L4.12445742,10.2876298 L4.39870503,10.5083657 C6.54726907,12.223757 9.21458173,13.1588493 11.9639256,13.1605407 C14.1945989,13.153689 16.3795141,12.5272772 18.2749651,11.3511754 L18.2749651,12.9264269 L16.910416,15.2909764 L18.1846641,16.0334516 L19.0241293,14.5919794 L19.8368387,16.0334516 L21.1110867,15.2976654 L19.7465376,12.9331159 L19.7465376,5.5953201 L23.4689472,4.51505208 C23.7865907,4.42300863 24.0037976,4.13034929 23.9999497,3.79966187 C23.9959984,3.46897445 23.7719505,3.18151859 23.4522248,3.09699128 L23.4522248,3.09699128 Z M11.2181059,3.49498476 C11.1765588,3.68535205 11.2129387,3.8844291 11.3191288,4.04779844 C11.4253188,4.21116778 11.5924828,4.3252352 11.7833235,4.36455035 L15.7967032,5.21404904 L11.8602467,6.35451775 L4.30840399,4.21404861 L4.16124674,4.1772593 L3.35857081,3.94983445 L11.883658,1.54515116 L20.5057353,3.84949996 L18.7900155,4.34782793 L12.1010494,2.92976713 C11.9088164,2.885132 11.7067053,2.91995794 11.540497,3.02635644 C11.3742887,3.13275493 11.2580484,3.30172214 11.2181059,3.49498476 Z M5.61609685,6.11705945 L11.6662666,7.82274579 L11.8635911,7.87960201 L18.2582427,6.107026 L18.2582427,9.56522145 C14.5160882,12.3818592 9.3615958,12.3818592 5.61944134,9.56522145 L5.61609685,6.11705945 Z" id="Shape"></path>
            </g>
        </g>
    </g>
</svg>