<?xml version="1.0" encoding="UTF-8"?>
<svg width="24px" height="24px" viewBox="0 0 24 24" version="1.1" xmlns="http://www.w3.org/2000/svg" xmlns:xlink="http://www.w3.org/1999/xlink">
    <title>Icon/Outline/elevator-outline</title>
    <g id="Icon/Outline/elevator-outline" stroke="none" stroke-width="1" fill="none" fill-rule="evenodd">
        <g id="Group" transform="translate(5.000000, 0.000000)" fill="#474747" fill-rule="nonzero">
            <g id="Outline">
                <path d="M6.72666667,3.1 C6.48149686,3.09601433 6.25280628,3.22306465 6.12666667,3.43333333 L2.79333333,9.20666667 C2.66678559,9.42164858 2.66678559,9.68835142 2.79333333,9.90333333 C2.92105482,10.1136245 3.15065722,10.2404767 3.39666667,10.2366667 L10.0633333,10.2366667 C10.30816,10.2392903 10.5362186,10.1125911 10.6633333,9.90333333 C10.7864219,9.68742177 10.7864219,9.42257823 10.6633333,9.20666667 L7.33,3.43333333 C7.20240759,3.22457279 6.97465683,3.09804459 6.73,3.1 L6.72666667,3.1 Z M4.59666667,8.87333333 L6.72666667,5.18333333 L8.85333333,8.87333333 L4.59666667,8.87333333 Z" id="Shape"></path>
                <path d="M10.0566667,13.7133333 L3.39,13.7133333 C3.14399056,13.7095233 2.91438816,13.8363755 2.78666667,14.0466667 C2.66011893,14.2616486 2.66011893,14.5283514 2.78666667,14.7433333 L6.12,20.5133333 C6.24352803,20.7290486 6.4730862,20.8621259 6.72166667,20.8621259 C6.97024714,20.8621259 7.1998053,20.7290486 7.32333333,20.5133333 L10.6566667,14.7433333 C10.7797552,14.5274218 10.7797552,14.2625782 10.6566667,14.0466667 C10.5295519,13.8374089 10.3014933,13.7107097 10.0566667,13.7133333 L10.0566667,13.7133333 Z M6.72333333,18.79 L4.59666667,15.1 L8.85333333,15.1 L6.72333333,18.79 Z" id="Shape"></path>
                <path d="M2.87333333,-5.92118946e-16 C1.28719663,0.00183687122 0.00183687122,1.28719663 0,2.87333333 L0,21.1266667 C0.00183687122,22.7128034 1.28719663,23.9981631 2.87333333,24 L10.54,24 C12.1261367,23.9981631 13.4114965,22.7128034 13.4133333,21.1266667 L13.4133333,2.87333333 C13.4114965,1.28719663 12.1261367,0.00183687122 10.54,-5.92118946e-16 L2.87333333,-5.92118946e-16 Z M12.04,2.87333333 L12.04,21.1266667 C12.038162,21.9464279 11.3730967,22.6100021 10.5533333,22.61 L2.88666667,22.61 C2.48835563,22.6171466 2.10384044,22.4641352 1.81934086,22.1852755 C1.53484128,21.9064157 1.37416244,21.5250409 1.37333333,21.1266667 L1.37333333,2.87333333 C1.37333333,2.05227001 2.03893667,1.38666667 2.86,1.38666667 L10.5266667,1.38666667 C10.9255551,1.37951056 11.3105816,1.53297621 11.59518,1.81255968 C11.8797784,2.09214316 12.04,2.47438073 12.04,2.87333333 Z" id="Shape"></path>
            </g>
        </g>
    </g>
</svg>