<?xml version="1.0" encoding="UTF-8"?>
<svg width="24px" height="24px" viewBox="0 0 24 24" version="1.1" xmlns="http://www.w3.org/2000/svg" xmlns:xlink="http://www.w3.org/1999/xlink">
    <title>Icon/Outline/email-outline</title>
    <g id="Icon/Outline/email-outline" stroke="none" stroke-width="1" fill="none" fill-rule="evenodd">
        <g id="Group" transform="translate(-0.000000, 3.000225)" fill="#474747" fill-rule="nonzero">
            <g id="email">
                <path d="M22.5,0 C23.3280001,0 24,0.671000005 24,1.5 L24,16.5 C24,17.3280001 23.3280001,18 22.5,18 L1.5,18 C0.672000003,18 0,17.3280001 0,16.5 L0,1.5 C0,0.671000005 0.672000003,0 1.5,0 L22.5,0 Z M22.5,16.5000001 L22.5,5.03000005 L12,10.075 L1.50000001,5.03000005 L1.50000001,16.5000001 L22.5,16.5000001 Z M22.5,3.36600001 L22.5,1.50000001 L1.50000001,1.50000001 L1.50000001,3.36500002 L12,8.41100006 L22.5,3.36600001 Z" id="Combined-Shape"></path>
            </g>
        </g>
    </g>
</svg>