<?xml version="1.0" encoding="UTF-8"?>
<svg width="24px" height="24px" viewBox="0 0 24 24" version="1.1" xmlns="http://www.w3.org/2000/svg" xmlns:xlink="http://www.w3.org/1999/xlink">
    <title>Icon/Outline/end-process-outline</title>
    <g id="Icon/Outline/end-process-outline" stroke="none" stroke-width="1" fill="none" fill-rule="evenodd">
        <g id="Group" transform="translate(-0.000000, -0.000000)" fill="#474747" fill-rule="nonzero">
            <g id="end-process">
                <path d="M12.0000001,22.5000001 C9.37500004,22.5000001 6.97800003,21.5250001 5.13450002,19.9260001 L19.9260001,5.13450002 C21.5250001,6.97800003 22.5000001,9.37500004 22.5000001,12.0000001 C22.5000001,17.7900001 17.7900001,22.5000001 12.0000001,22.5000001 M1.50000001,12 C1.50000001,6.21000003 6.21000003,1.50000001 12,1.50000001 C14.6250001,1.50000001 17.0220001,2.47500001 18.8655001,4.07400002 L4.07400002,18.8655001 C2.47500001,17.0220001 1.50000001,14.6250001 1.50000001,12 M12,0 C5.37300002,0 0,5.37300002 0,12 C0,18.6270001 5.37300002,24 12,24 C18.6270001,24 24,18.6270001 24,12 C24,5.37300002 18.6270001,0 12,0" id="Page-1"></path>
            </g>
        </g>
    </g>
</svg>