<?xml version="1.0" encoding="UTF-8"?>
<svg width="24px" height="24px" viewBox="0 0 24 24" version="1.1" xmlns="http://www.w3.org/2000/svg" xmlns:xlink="http://www.w3.org/1999/xlink">
    <title>Icon/Outline/engagement-outline</title>
    <g id="Icon/Outline/engagement-outline" stroke="none" stroke-width="1" fill="none" fill-rule="evenodd">
        <g id="Group" transform="translate(0.000000, 1.000000)" fill="#474747" fill-rule="nonzero">
            <g id="Outline">
                <path d="M22.931863,15.8613167 L17.9575409,15.8613167 C17.5618414,15.8623354 17.200206,15.6376048 17.0258953,15.2823655 C16.8499979,14.931514 16.8914221,14.5107995 17.1323691,14.2009911 C17.7612299,13.372492 19.0322607,12.8700688 20.4596749,12.8700688 C21.887089,12.8700688 23.1414833,13.3824739 23.7869806,14.2009911 C24.026647,14.5141784 24.067461,14.9363646 23.8922256,15.2896617 C23.7169903,15.6429588 23.3561748,15.8659368 22.9618088,15.8646496 L22.931863,15.8613167 Z M20.4430383,13.8649332 C19.3550093,13.8649332 18.3667995,14.2375915 17.9275952,14.8132154 C17.9275952,14.8132154 17.9275952,14.8132154 17.9275952,14.8431611 C17.9378899,14.8491048 17.9505735,14.8491048 17.9608682,14.8431611 L22.931863,14.8431611 C22.9411283,14.8485104 22.9525435,14.8485104 22.9618088,14.8431611 C22.969076,14.8345019 22.969076,14.8218746 22.9618088,14.8132154 C22.5226044,14.220955 21.5343946,13.8616059 20.4430383,13.8616059 L20.4430383,13.8649332 Z" id="Shape"></path>
                <path d="M20.4430383,12.3443545 C19.4874758,12.3443545 18.7128393,11.569718 18.7128393,10.6141555 C18.7128393,9.65859302 19.4874758,8.88395654 20.4430383,8.88395654 C21.3986008,8.88395654 22.1732373,9.65859302 22.1732373,10.6141555 C22.1714064,11.5689586 21.3978414,12.3425236 20.4430383,12.3443545 Z M20.4430383,9.88880288 C20.1480127,9.88880288 19.8821014,10.0667053 19.7695134,10.339403 C19.6569253,10.6121008 19.7198803,10.9257784 19.9289718,11.1339151 C20.1380633,11.3420518 20.4520257,11.4035706 20.7242053,11.2897357 C20.9963849,11.1759007 21.1730654,10.9091781 21.1717259,10.6141555 C21.1662584,10.2156203 20.841611,9.89542009 20.4430383,9.89545749 L20.4430383,9.88880288 Z" id="Shape"></path>
                <path d="M6.02914984,15.8613223 L1.03819123,15.8613223 C0.64382516,15.8626095 0.283009738,15.6396315 0.107774381,15.2863344 C-0.0674609771,14.9330373 -0.0266469838,14.5108511 0.213019402,14.1976638 C0.845207494,13.3691647 2.11291098,12.8667415 3.54032515,12.8667415 C4.96773931,12.8667415 6.20216974,13.3791466 6.85099436,14.1976638 C7.09029289,14.5103748 7.13137361,14.9318005 6.95697256,15.2848391 C6.78257151,15.6378776 6.42291621,15.8613223 6.02914984,15.8613223 L6.02914984,15.8613223 Z M3.54032515,13.8649332 C2.44896886,13.8649332 1.46075906,14.2375915 1.0215547,14.8132154 C1.01428743,14.8218746 1.01428743,14.8345019 1.0215547,14.8431611 C1.03081995,14.8485104 1.0422352,14.8485104 1.05150045,14.8431611 L6.04245907,14.8431611 C6.05172431,14.8485104 6.06313957,14.8485104 6.07240482,14.8431611 C6.07240482,14.8431611 6.07240482,14.81987 6.07240482,14.8132154 C5.61656393,14.220955 4.62835412,13.8616059 3.54032515,13.8616059 L3.54032515,13.8649332 Z" id="Shape"></path>
                <path d="M3.54032515,12.3443545 C2.58476263,12.3443545 1.81012616,11.569718 1.81012616,10.6141555 C1.81012616,9.65859302 2.58476263,8.88395654 3.54032515,8.88395654 C4.49588766,8.88395654 5.27052413,9.65859302 5.27052413,10.6141555 C5.27052413,11.569718 4.49588766,12.3443545 3.54032515,12.3443545 Z M3.54032515,9.88879526 C3.24500037,9.88745741 2.97806816,10.0644995 2.86442986,10.3370887 C2.75079155,10.6096779 2.81292254,10.9239015 3.02175086,11.1327298 C3.23057918,11.3415581 3.54480276,11.4036891 3.81739195,11.2900508 C4.08998115,11.1764125 4.26702326,10.9094803 4.26568541,10.6141555 C4.26023958,10.2169125 3.93760147,9.89723433 3.54032515,9.89545749 L3.54032515,9.88879526 Z" id="Shape"></path>
                <path d="M14.3374323,6.97741594 L9.34647367,6.97741594 C8.9521076,6.97870314 8.59129218,6.75572515 8.41605682,6.40242806 C8.24082147,6.04913097 8.28163546,5.62694479 8.52130184,5.31375748 C9.15348994,4.48525835 10.4245207,3.98283518 11.8486076,3.98283518 C13.2726944,3.98283518 14.530416,4.49524027 15.1759133,5.31375748 C15.4155797,5.62694479 15.4563937,6.04913097 15.2811584,6.40242806 C15.105923,6.75572515 14.7451076,6.97870314 14.3507415,6.97741594 L14.3374323,6.97741594 Z M11.8486076,4.98102691 C10.7605786,4.98102691 9.7723688,5.35368515 9.33316445,5.92930904 C9.33316445,5.92930904 9.33316445,5.92930904 9.33316445,5.9592548 C9.33758801,5.9718346 9.3497967,5.97997372 9.3631102,5.97921863 L14.3540688,5.97921863 C14.3673823,5.97997372 14.379591,5.9718346 14.3840146,5.9592548 C14.3840146,5.9592548 14.3840146,5.93596365 14.3840146,5.92930904 C13.9248464,5.35035784 12.9366366,4.9776996 11.8486076,4.9776996 L11.8486076,4.98102691 Z" id="Shape"></path>
                <path d="M11.8486076,3.46044818 C11.1485049,3.46044818 10.5174021,3.03853652 10.2497963,2.39159688 C9.9821905,1.74465724 10.1308298,1.00020747 10.6263534,0.505636813 C11.121877,0.0110661573 11.8666115,-0.136139903 12.5130348,0.132710712 C13.1594582,0.401561328 13.5801529,1.03347512 13.5788098,1.7335765 C13.5769715,2.68783936 12.8028722,3.46044818 11.8486076,3.46044818 L11.8486076,3.46044818 Z M11.8486076,1.00488889 C11.553585,1.00354939 11.2868624,1.18022989 11.1730274,1.45240951 C11.0591925,1.72458914 11.1207113,2.03855155 11.328848,2.24764303 C11.5369847,2.4567345 11.8506623,2.51968954 12.1233601,2.40710147 C12.3960578,2.29451339 12.5739602,2.02860216 12.5739602,1.7335765 C12.5739602,1.33243349 12.2497464,1.00672825 11.8486076,1.00488889 Z" id="Shape"></path>
                <path d="M14.6235806,22.4493877 L9.66256771,22.4493877 C9.26820165,22.4506749 8.90738623,22.2276969 8.73215087,21.8743998 C8.55691551,21.5211027 8.5977295,21.0989165 8.83739589,20.7857292 C9.46958398,19.9605574 10.7406148,19.4548069 12.1647016,19.4548069 C13.5887885,19.4548069 14.8465101,19.9705393 15.4920074,20.7857292 C15.7316738,21.0989165 15.7724878,21.5211027 15.5972524,21.8743998 C15.422017,22.2276969 15.0612016,22.4506749 14.6668356,22.4493877 L14.6235806,22.4493877 Z M12.1347559,20.4529986 C11.0467269,20.4529986 10.0585171,20.8223296 9.61931274,21.3979534 C9.61931274,21.3979534 9.61931274,21.3979534 9.61931274,21.4278992 C9.62373631,21.440479 9.63594499,21.4486181 9.64925849,21.447863 L14.6402171,21.447863 C14.6535306,21.4486181 14.6657393,21.440479 14.6701629,21.4278992 C14.6701629,21.4278992 14.6701629,21.4046081 14.6701629,21.3979534 C14.2109947,20.8223296 13.2227849,20.4529986 12.1347559,20.4529986 L12.1347559,20.4529986 Z" id="Shape"></path>
                <path d="M12.1347559,18.9357472 C11.1791934,18.9357472 10.4045569,18.1611107 10.4045569,17.2055482 C10.4045569,16.2499857 11.1791934,15.4753492 12.1347559,15.4753492 C13.0903184,15.4753492 13.8649549,16.2499857 13.8649549,17.2055482 C13.863124,18.1603513 13.089559,18.9339163 12.1347559,18.9357472 Z M12.1347559,16.4768682 C11.7336248,16.4769059 11.4079583,16.8011393 11.4061441,17.2022664 C11.4043451,17.6033934 11.7270778,17.9305472 12.1281923,17.934198 C12.5293068,17.9378488 12.8579409,17.6166236 12.8634358,17.2155301 C12.8661071,17.0205485 12.7905165,16.8326312 12.6535719,16.6938106 C12.5166273,16.5549901 12.3297558,16.47685 12.1347559,16.4768682 L12.1347559,16.4768682 Z" id="Shape"></path>
                <path d="M4.0926579,7.85914637 C4.00657708,7.85908973 3.92189773,7.83734773 3.84643727,7.79592757 C3.61620207,7.65992248 3.53283675,7.3674126 3.65678085,7.13046642 C4.28436145,6.00676935 5.13329471,5.02200677 6.15226016,4.23571042 C6.29250696,4.11235779 6.4896051,4.07698404 6.66399421,4.14386809 C6.83838331,4.21075215 6.96127726,4.36885355 6.98306886,4.55435332 C7.00486045,4.73985309 6.92195258,4.92213107 6.76781172,5.02760919 C5.85484362,5.73239832 5.09325997,6.61393423 4.52853495,7.61958036 C4.4367068,7.77181263 4.27039499,7.86322065 4.0926579,7.85914637 Z" id="Path"></path>
                <path d="M19.8940329,7.85914944 C19.7122231,7.85889728 19.5445372,7.76108055 19.4548285,7.60294383 C18.8913035,6.59744966 18.1308351,5.71589481 17.2188791,5.01097266 C17.0002023,4.8419116 16.9599807,4.52758795 17.1290418,4.30891115 C17.2981029,4.09023434 17.6124265,4.05001283 17.8311033,4.21907389 C18.8510791,5.00523768 19.7011275,5.98998084 20.3299099,7.11382989 C20.4176935,7.26860638 20.4164351,7.45841272 20.3266071,7.6120117 C20.2367791,7.76561068 20.0719692,7.85976853 19.8940329,7.85914944 L19.8940329,7.85914944 Z" id="Path"></path>
                <path d="M6.45837228,20.5894182 C6.34746031,20.5882226 6.23997351,20.5508359 6.15226016,20.4829444 C5.13329471,19.696648 4.28436145,18.7118854 3.65678085,17.5881884 C3.56940904,17.4324645 3.57175187,17.2419574 3.66292681,17.0884293 C3.75410174,16.9349011 3.92025714,16.8416765 4.09880387,16.8438723 C4.2773506,16.846068 4.44116317,16.9433505 4.52853495,17.0990744 C5.09415394,18.1040926 5.85559472,18.9854632 6.76781172,19.6910456 C6.93683571,19.8230712 7.00341438,20.047834 6.93356671,20.2506176 C6.86371904,20.4534012 6.67284808,20.5894869 6.45837228,20.5894182 L6.45837228,20.5894182 Z" id="Path"></path>
                <path d="M17.5249912,20.5894245 C17.3694069,20.5902054 17.2226018,20.5174197 17.1290418,20.3931071 C17.0474949,20.2882313 17.0111251,20.1551718 17.0279872,20.0233973 C17.0448493,19.8916229 17.1135518,19.7720086 17.2188791,19.6910456 C18.1309612,18.9862565 18.8914536,18.1046738 19.4548285,17.0990744 C19.5349985,16.9293472 19.7030952,16.8184649 19.8906773,16.8115737 C20.0782595,16.8046826 20.254039,16.902932 20.3464465,17.0663193 C20.438854,17.2297065 20.4324763,17.4309793 20.3299099,17.5881884 C19.7011275,18.7120374 18.8510791,19.6967806 17.8311033,20.4829444 C17.743629,20.5512757 17.6359886,20.5887158 17.5249912,20.5894245 L17.5249912,20.5894245 Z" id="Path"></path>
            </g>
        </g>
    </g>
</svg>