<svg width="24" height="24" viewBox="0 0 24 24" fill="none" xmlns="http://www.w3.org/2000/svg">
<path d="M12.184 11.032L16.24 7L17.368 8.128L13.336 12.184L17.368 16.24L16.24 17.368L12.184 13.336L8.128 17.368L7 16.24L11.032 12.184L7 8.128L8.128 7L12.184 11.032Z" fill="#474747"/>
<path fill-rule="evenodd" clip-rule="evenodd" d="M7.776 0L16.44 0.0719991C16.84 0.0719991 17.192 0.223999 17.496 0.527999L23.568 6.696C23.856 6.984 24 7.344 24 7.776L23.928 16.44C23.928 16.84 23.776 17.192 23.472 17.496L17.304 23.568C17.016 23.856 16.656 24 16.224 24L7.56 23.928C7.16 23.928 6.808 23.776 6.504 23.472L0.432 17.304C0.144 17.016 0 16.656 0 16.224L0.072 7.56C0.072 7.16 0.224 6.808 0.528 6.504L6.696 0.432C6.984 0.144 7.344 0 7.776 0ZM16.4326 1.58592C16.4268 1.5802 16.4217 1.57556 16.4175 1.57186L7.77199 1.50002C7.76214 1.50011 7.75427 1.50053 7.74822 1.50103L1.58597 7.56737C1.58022 7.57322 1.57557 7.57828 1.57186 7.58252L1.50002 16.228C1.50011 16.2379 1.50053 16.2457 1.50103 16.2518L7.56739 22.414C7.57323 22.4198 7.57828 22.4244 7.58252 22.4281L16.228 22.5C16.2379 22.4999 16.2457 22.4995 16.2518 22.499L22.4141 16.4326C22.4198 16.4267 22.4244 16.4217 22.4281 16.4175L22.5 7.77197C22.4999 7.76213 22.4995 7.75427 22.499 7.74822L16.4326 1.58592Z" fill="#474747"/>
</svg>
