<?xml version="1.0" encoding="UTF-8"?>
<svg width="24px" height="24px" viewBox="0 0 24 24" version="1.1" xmlns="http://www.w3.org/2000/svg" xmlns:xlink="http://www.w3.org/1999/xlink">
    <title>Icon/Outline/exit-outline</title>
    <g id="Icon/Outline/exit-outline" stroke="none" stroke-width="1" fill="none" fill-rule="evenodd">
        <g id="Group" transform="translate(2.000000, 0.000000)" fill="#474747" fill-rule="nonzero">
            <g id="Outline">
                <path d="M13.9366667,16.2466667 L12.94,17.2433333 L15.1166667,19.42 L0,19.42 L0,20.8266667 L15.1166667,20.8266667 L12.94,23.0033333 L13.9366667,24 L17.8133333,20.1233333 L13.9366667,16.2466667 L13.9366667,16.2466667 Z M0,15.19 L4.09,15.19 L4.09,13.72 L1.78666667,13.72 L1.78666667,8.04333333 L3.98333333,8.04333333 L3.98333333,6.57 L1.78666667,6.57 L1.78666667,1.47 L4.09,1.47 L4.09,0 L0,0 L0,15.19 L0,15.19 Z M10.3833333,0 L8.58333333,0 L7.52666667,5.30333333 L6.46666667,0 L4.66666667,0 L6.54333333,7.55333333 L4.51666667,15.19 L6.31666667,15.19 L7.52666667,9.59333333 L8.73333333,15.19 L10.5333333,15.19 L8.55,7.55333333 L10.3833333,0 L10.3833333,0 Z M11.3433333,0 L13.13,0 L13.13,15.19 L11.3433333,15.19 L11.3433333,0 Z M14.3,0 L14.3,1.47 L15.8633333,1.47 L15.8633333,15.19 L17.65,15.19 L17.65,1.47 L19.2133333,1.47 L19.2133333,0 L14.3,0 L14.3,0 Z" id="Combined-Shape"></path>
            </g>
        </g>
    </g>
</svg>