<svg width="24" height="24" viewBox="0 0 24 24" fill="none" xmlns="http://www.w3.org/2000/svg">
<g clip-path="url(#clip0_15805_64088)">
<path d="M24 0H18.8133C18.3967 0 18.06 0.336667 18.06 0.753333C18.06 1.17 18.3967 1.50667 18.8133 1.50667H21.43L1.50667 21.4267V18.81C1.50667 18.3933 1.17 18.0567 0.753333 18.0567C0.336667 18.0567 0 18.3967 0 18.81V24H5.19C5.39 24 5.58 23.9233 5.72333 23.78C5.86667 23.6367 5.94333 23.4467 5.94333 23.2467C5.94333 22.83 5.60667 22.4933 5.19 22.4933H2.57333L22.4933 2.57333V5.19C22.4933 5.60667 22.8333 5.94333 23.2467 5.94333C23.4467 5.94333 23.6367 5.86667 23.78 5.72333C23.9233 5.58 24 5.39 24 5.19V0Z" fill="black"/>
</g>
<defs>
<clipPath id="clip0_15805_64088">
<rect width="24" height="24" fill="white"/>
</clipPath>
</defs>
</svg>
