<?xml version="1.0" encoding="UTF-8"?>
<svg width="24px" height="24px" viewBox="0 0 24 24" version="1.1" xmlns="http://www.w3.org/2000/svg" xmlns:xlink="http://www.w3.org/1999/xlink">
    <title>Icon/Outline/extension-outline</title>
    <g id="Icon/Outline/extension-outline" stroke="none" stroke-width="1" fill="none" fill-rule="evenodd">
        <g id="Group" transform="translate(2.000000, 0.000000)" fill="#474747" fill-rule="nonzero">
            <g id="Outline">
                <path d="M2.6880531,1.5630531 L5.09734513,1.54646018 C5.28145555,1.54850974 5.45814434,1.47398794 5.58517699,1.34070796 C5.78237275,1.14330258 5.84132754,0.846590415 5.73457762,0.588792999 C5.6278277,0.330995583 5.37637024,0.162820319 5.09734513,0.162610619 L5.09734513,0.162610619 L0.0398230088,0.129424779 L0.0398230088,0.129424779 L0,5.33628319 C0.00182662031,5.71804247 0.31182042,6.02655304 0.693584071,6.02654867 L0.693584071,6.02654867 C0.876782327,6.02410107 1.0517993,5.95028438 1.18141593,5.82079646 C1.31081151,5.6903036 1.38252687,5.5134057 1.38053097,5.32964602 L1.44690265,2.46902655 L8.81415929,9.82300885 L9.42809735,10.4634956 L9.42809735,24 L10.9347345,24 L10.9347345,9.83960177 L2.6880531,1.5630531 Z" id="Path"></path>
                <path d="M19.8683628,0 L19.8683628,0 L14.8108407,0.0331858407 L14.8108407,0.0331858407 C14.628228,0.0320772122 14.4526893,0.103725648 14.3230088,0.232300885 C14.1897289,0.359333535 14.1152071,0.536022328 14.1172566,0.720132743 C14.1145083,0.904034117 14.1863374,1.08121261 14.3163717,1.21128319 C14.4434043,1.34456316 14.6200931,1.41908496 14.8042035,1.4170354 L17.2168142,1.43362832 L11.2533186,7.38716814 L12.3185841,8.45243363 L18.4314159,2.33628319 L18.5243363,5.20022124 C18.5232277,5.38283393 18.5948761,5.5583726 18.7234513,5.6880531 C18.8525309,5.81875911 19.0276136,5.89379458 19.2112832,5.89712389 L19.2112832,5.89712389 C19.394353,5.89712389 19.5699247,5.8243997 19.6993746,5.69494981 C19.8288245,5.56549992 19.9015487,5.3899282 19.9015487,5.20685841 L19.8683628,0 Z" id="Path"></path>
            </g>
        </g>
    </g>
</svg>