<?xml version="1.0" encoding="UTF-8"?>
<svg width="24px" height="24px" viewBox="0 0 24 24" version="1.1" xmlns="http://www.w3.org/2000/svg" xmlns:xlink="http://www.w3.org/1999/xlink">
    <title>Icon/Outline/family-outline</title>
    <g id="Icon/Outline/family-outline" stroke="none" stroke-width="1" fill="none" fill-rule="evenodd">
        <g id="Group" transform="translate(-0.000000, -0.000000)" fill="#474747" fill-rule="nonzero">
            <g id="family-outline">
                <path d="M12.000003,12 C11.0046562,11.9992195 10.0503878,11.6030675 9.34712591,10.8986964 C8.64386411,10.1943254 8.24921651,9.23943371 8.25000007,8.24408696 C8.25326666,6.17379132 9.93364287,4.49782602 12.00394,4.50000002 C14.0742371,4.50217824 15.7510863,6.18167235 15.7500001,8.25197036 C15.7489128,10.3222683 14.0703012,12 12.000003,12 Z M12.000003,5.85153855 C10.6776747,5.85153855 9.60480064,6.92176278 9.60153237,8.24408696 C9.59914601,9.21470951 10.1819928,10.0910899 11.0780449,10.4641908 C11.9740971,10.8372918 13.0066876,10.6335519 13.6938703,9.94806394 C14.3810529,9.26257594 14.5873417,8.23049171 14.2164544,7.33352105 C13.8455671,6.43655037 12.9706285,5.85153855 12.000003,5.85153855 Z M4.49995736,13.5 C2.84423202,13.5 1.50156336,12.1585982 1.5,10.5028736 C1.49885642,9.28924774 2.22904588,8.19448661 3.3499615,7.72925861 C4.47087713,7.26403052 5.76167561,7.51999496 6.62024394,8.37775331 C7.47881227,9.23551166 7.73599488,10.526068 7.27182504,11.6474223 C6.80765517,12.7687765 5.71358373,13.5 4.49995736,13.5 Z M4.49995736,8.79346466 C4.04959634,8.79346466 3.61768094,8.97236989 3.2992276,9.29082319 C2.98077427,9.60927657 2.80186905,10.041192 2.80186905,10.4915529 C2.80186905,11.4293812 3.56212908,12.1896413 4.49995736,12.1896413 C5.43778563,12.1896413 6.19804566,11.4293812 6.19804566,10.4915529 C6.19804566,9.55372466 5.43778563,8.79346466 4.49995736,8.79346466 Z M19.4971274,13.5000012 C17.8431523,13.4968851 16.5031162,12.156849 16.5000001,10.5028739 C16.4988568,9.28899056 17.2293528,8.19405048 18.3506161,7.72898853 C19.4718794,7.2639266 20.7629,7.52041023 21.6212456,8.37875576 C22.4795911,9.23710121 22.7360747,10.5281219 22.2710128,11.6493852 C21.8059508,12.7706485 20.7110108,13.5011446 19.4971274,13.5000012 Z M19.4971274,8.79629501 C18.5592991,8.79629501 17.799039,9.55655509 17.799039,10.4943834 C17.799039,11.4322118 18.5592991,12.1924718 19.4971274,12.1924718 C20.4349558,12.1924718 21.1952158,11.4322118 21.1952158,10.4943834 C21.1952158,9.55655509 20.4349558,8.79629501 19.4971274,8.79629501 Z M18.8453063,15.7166835 C20.228606,15.6979159 21.597505,15.9923212 22.8443046,16.5767371 L23.25,16.7776255 L23.25,23.25 L0.750000003,23.25 L0.750000003,16.76507 L1.15569548,16.5673204 C2.40249512,15.9829046 3.77139403,15.6884992 5.15469378,15.7072668 C5.64940952,15.7087895 6.14335167,15.7455073 6.63258446,15.8171277 L6.63258446,15.5032395 L7.03827994,15.3054899 C8.57310896,14.5927177 10.2549514,14.2319473 11.9549228,14.2508256 C13.6876603,14.2299533 15.4013133,14.6051359 16.9585003,15.3462954 L17.3545364,15.5471839 L17.3545364,15.8296832 C17.8478445,15.7555801 18.3461775,15.7178066 18.8453063,15.7166835 Z M2.22145107,21.8186699 L6.63258446,21.8186699 L6.63258446,17.2767078 C5.15203677,17.0182441 3.62726092,17.1571245 2.22145107,17.6784847 L2.22145107,21.8186699 Z M8.11369496,21.8186699 L15.8863051,21.8186699 L15.8863051,16.4354874 C14.6423083,15.9254706 13.304386,15.6690979 11.9549228,15.6821557 C10.6386326,15.6714544 9.33317074,15.914677 8.11369496,16.3978208 L8.11369496,21.8186699 Z M21.7785491,21.8186699 L21.7785491,17.6784847 C20.3686534,17.1554493 18.8392739,17.0165552 17.3545364,17.2767078 L17.3545364,21.8186699 L21.7785491,21.8186699 Z M12.010031,1.80099858 L0.65666667,7.4964337 L0,6.02710416 L12.000031,0 L24,6.0199715 L23.3633334,7.5 L12.010031,1.80099858 Z" id="Combined-Shape"></path>
            </g>
        </g>
    </g>
</svg>