<?xml version="1.0" encoding="UTF-8"?>
<svg width="24px" height="24px" viewBox="0 0 24 24" version="1.1" xmlns="http://www.w3.org/2000/svg" xmlns:xlink="http://www.w3.org/1999/xlink">
    <title>Icon/Outline/female-symbol-outline</title>
    <g id="Icon/Outline/female-symbol-outline" stroke="none" stroke-width="1" fill="none" fill-rule="evenodd">
        <g id="Group" transform="translate(4.000000, 0.000000)" fill="#474747" fill-rule="nonzero">
            <g id="Outline">
                <path d="M15.7354739,7.8749789 C15.7394021,3.64321707 12.3952764,0.166410575 8.16656292,0.00576912022 C3.93784941,-0.154872334 0.339586687,3.05820493 0.0224559009,7.27806887 C-0.294674886,11.4979328 2.78294602,15.2127154 6.98817128,15.6859005 L6.98817128,18.8449251 L2.60285866,18.8449251 L2.60285866,20.6010495 L6.98817128,20.6010495 L6.98817128,24 L8.74762802,24 L8.74762802,20.6010495 L13.1196114,20.6010495 L13.1196114,18.8449251 L8.74762802,18.8449251 L8.74762802,15.6859005 C12.7237232,15.2369793 15.7302399,11.8763331 15.7354739,7.8749789 Z M1.75978564,7.8749789 C1.75978564,4.50156069 4.49448143,1.7668649 7.86789965,1.7668649 C11.2413179,1.7668649 13.9760137,4.50156069 13.9760137,7.8749789 C13.9760137,11.2483971 11.2413179,13.9830929 7.86789965,13.9830929 C4.49600405,13.9794198 1.76345874,11.2468745 1.75978564,7.8749789 Z" id="Shape"></path>
            </g>
        </g>
    </g>
</svg>