<svg width="24" height="24" viewBox="0 0 24 24" fill="none" xmlns="http://www.w3.org/2000/svg">
<g clip-path="url(#clip0_15805_64092)">
<path d="M0 0V6L7.5 10.5L8.08333 15.75L8.25 17.25L9 24H15L15.75 17.25L15.9167 15.75L16.5 10.5L24 6V0H0ZM1.5 5.15V1.5H22.5V5.15L22.3367 5.25H1.66667L1.5 5.15ZM8.99 10.3333L8.90667 9.59667L8.27 9.21667L4.16333 6.75333H19.8333L15.7267 9.21667L15.09 9.59667L15.0067 10.3333L14.4067 15.75H9.59333L8.99333 10.3333H8.99ZM9.75667 17.25H14.24L13.6567 22.5H10.3433L9.76 17.25H9.75667ZM22.9067 22.88L21.25 21.24L19.5933 22.91L18.5367 21.82L20.17 20.17L18.5033 18.52L19.5833 17.45L21.24 19.09L22.8967 17.42L23.9667 18.5L22.32 20.16L23.9967 21.8233L22.9067 22.88Z" fill="black"/>
</g>
<defs>
<clipPath id="clip0_15805_64092">
<rect width="24" height="24" fill="white"/>
</clipPath>
</defs>
</svg>
