<?xml version="1.0" encoding="UTF-8"?>
<svg width="24px" height="24px" viewBox="0 0 24 24" version="1.1" xmlns="http://www.w3.org/2000/svg" xmlns:xlink="http://www.w3.org/1999/xlink">
    <title>Icon/Outline/firehose-outline</title>
    <g id="Icon/Outline/firehose-outline" stroke="none" stroke-width="1" fill="none" fill-rule="evenodd">
        <g id="Group" transform="translate(4.000000, 0.000000)" fill="#474747" fill-rule="nonzero">
            <g id="Outline">
                <path d="M14.6640276,16.8513397 L13.8975046,16.8513397 L13.8975046,1.93413538 C13.9034937,1.05321023 13.307107,0.282092437 12.452978,0.0663873415 C11.5988491,-0.149317754 10.7078436,0.246168158 10.2948465,1.02430589 C9.96815246,0.39836178 9.32223912,0.00425719057 8.61618144,3.31994224e-05 C7.91012375,-0.00412331605 7.25957828,0.382287156 6.92547793,1.00430964 C6.59070385,0.397296727 5.9523323,0.0203451288 5.25912356,0.0203451288 C4.56591482,0.0203451288 3.92754327,0.397296727 3.59276918,1.00430964 C3.17297433,0.233990475 2.28301627,-0.152058666 1.43372036,0.067749831 C0.584424444,0.287558328 -0.00650885561,1.05688084 5.41227804e-05,1.93413538 L5.41227804e-05,12.4921567 C-0.00550124404,13.3664327 0.582336913,14.1332601 1.42806791,14.3549108 C2.2737989,14.5765614 3.16218298,14.196625 3.58610377,13.4319806 C3.92087785,14.0389935 4.5592494,14.4159451 5.25245814,14.4159451 C5.94566688,14.4159451 6.58403843,14.0389935 6.91881251,13.4319806 C7.22206562,13.9848133 7.77906613,14.3519267 8.40668282,14.4126207 C9.03429952,14.4733148 9.65132443,14.2197363 10.0548914,13.7352571 L10.0548914,16.8513397 L9.3883497,16.8513397 C9.02022885,16.8513397 8.72180795,17.1497606 8.72180795,17.5178815 L8.72180795,17.9378028 C8.72180795,18.3059236 9.02022885,18.6043445 9.3883497,18.6043445 L10.1015494,18.6043445 L10.998048,24 L13.0276677,24 L13.927499,18.6310062 L14.6640276,18.6310062 C15.0321485,18.6310062 15.3307029,18.3325853 15.3307029,17.9644645 L15.3307029,17.5312123 C15.3341516,17.3521361 15.2655115,17.1791537 15.1401203,17.0512546 C15.0147291,16.9233556 14.8431397,16.8513039 14.6640276,16.8513397 L14.6640276,16.8513397 Z M2.52296967,12.4921567 C2.53986173,12.7201997 2.42777116,12.9385317 2.23261686,13.0577111 C2.03746256,13.1768905 1.7920381,13.1768905 1.5968838,13.0577111 C1.4017295,12.9385317 1.28963893,12.7201997 1.30653098,12.4921567 L1.30653098,1.93413538 C1.28963893,1.70609241 1.4017295,1.48776041 1.5968838,1.36858099 C1.7920381,1.24940158 2.03746256,1.24940158 2.23261686,1.36858099 C2.42777116,1.48776041 2.53986173,1.70609241 2.52296967,1.93413538 L2.52296967,12.4921567 Z M5.85567842,12.4921567 C5.85567842,12.8289873 5.58262329,13.1020424 5.24579272,13.1020424 C4.90896215,13.1020424 4.63590702,12.8289873 4.63590702,12.4921567 L4.63590702,1.93413538 C4.63590702,1.71624419 4.75215056,1.51490443 4.94084986,1.40595884 C5.12954916,1.29701324 5.36203629,1.29701324 5.55073558,1.40595884 C5.73943488,1.51490443 5.85567842,1.71624419 5.85567842,1.93413538 L5.85567842,12.4921567 Z M9.18838717,12.4921567 C9.20527923,12.7201997 9.09318866,12.9385317 8.89803435,13.0577111 C8.70288005,13.1768905 8.4574556,13.1768905 8.2623013,13.0577111 C8.067147,12.9385317 7.95505642,12.7201997 7.97194848,12.4921567 L7.97194848,1.93413538 C7.95505642,1.70609241 8.067147,1.48776041 8.2623013,1.36858099 C8.4574556,1.24940158 8.70288005,1.24940158 8.89803435,1.36858099 C9.09318866,1.48776041 9.20527923,1.70609241 9.18838717,1.93413538 L9.18838717,12.4921567 Z M11.3713114,1.93413538 C11.3713114,1.61018903 11.6339218,1.34757864 11.9578681,1.34757864 C12.2818145,1.34757864 12.5444249,1.61018903 12.5444249,1.93413538 L12.5444249,16.8513397 L11.3879749,16.8513397 L11.3713114,1.93413538 Z M12.0245223,22.3003185 L11.3579806,18.3877185 L12.6910641,18.3877185 L12.0245223,22.3003185 Z" id="Shape"></path>
            </g>
        </g>
    </g>
</svg>