<?xml version="1.0" encoding="UTF-8"?>
<svg width="24px" height="24px" viewBox="0 0 24 24" version="1.1" xmlns="http://www.w3.org/2000/svg" xmlns:xlink="http://www.w3.org/1999/xlink">
    <title>Icon/Outline/fire-exit-outline</title>
    <g id="Icon/Outline/fire-exit-outline" stroke="none" stroke-width="1" fill="none" fill-rule="evenodd">
        <g id="Group" transform="translate(0.000000, 3.000000)" fill="#474747" fill-rule="nonzero">
            <g id="Outline">
                <path d="M24,3.84342131 L24,18.740429 L3.68953506,18.740429 L3.68953506,13.9369857 L4.88622913,13.280304 L4.88622913,17.5470683 L22.8066393,17.5470683 L22.8066393,5.04011538 L7.96296622,5.04011538 L7.4029534,3.84342131 L24,3.84342131 Z M3.04952041,0 L3.88620623,0.850019458 C6.47293211,3.47674625 7.6429589,5.92013552 7.3662859,8.11351906 C7.13961404,9.90689345 5.94625339,11.4702626 3.81620463,12.7536253 L1.9028275,13.9103184 L3.19952385,12.0869434 C3.21952431,12.0569427 5.05289961,9.43688269 4.19954674,7.34350144 C3.92212573,7.68346141 3.61047935,7.99399078 3.26952545,8.27018932 C2.56284261,8.88020328 2.05283093,9.32021335 2.08949844,11.010252 L2.12616594,12.5569541 L1.2461458,11.286925 C-0.978711333,8.07359567 0.217907009,6.26643514 1.42629511,4.71250058 L1.60282063,4.48676938 L1.60282063,4.48676938 C2.39283871,3.48674648 3.13952247,2.52672451 3.09285474,1.19336065 L3.04952041,0 Z M12.3764006,8.70353257 L12.93308,9.77022365 C13.0605829,10.0202294 13.1618352,10.2177339 13.26215,10.4232074 L13.3630898,10.6335768 C13.4997596,10.3002358 13.6064287,10.0835642 13.7664324,9.77022365 L14.333112,8.70353257 L15.4131368,8.70353257 L13.9031022,11.2235903 L15.4731381,13.8669841 L14.38978,13.8636507 L13.8297672,12.8369605 C13.6097622,12.4369514 13.4630921,12.1702786 13.3164221,11.8636049 L13.2930882,11.8636049 C13.1730855,12.1636118 13.0330823,12.4369514 12.8264109,12.8369605 L12.3130658,13.8636507 L11.2363745,13.8636507 L12.7664095,11.2502575 L11.2963759,8.70353257 L12.3764006,8.70353257 Z M10.6830285,8.70353257 L10.6830285,9.47688361 L8.62298133,9.47688361 L8.62298133,10.8102475 L10.5696926,10.8102475 L10.5696926,11.5735983 L8.62298133,11.5735983 L8.62298133,13.0902997 L10.7996978,13.0902997 L10.7996978,13.8636507 L7.68295981,13.8636507 L7.68295981,8.70353257 L10.6830285,8.70353257 Z M17.1165091,8.70353257 L17.1165091,13.8636507 L16.1731542,13.8636507 L16.1731542,8.70353257 L17.1165091,8.70353257 Z M21.6099453,8.70353257 L21.6099453,9.49355065 L20.1232446,9.49355065 L20.1232446,13.8636507 L19.1832231,13.8636507 L19.1832231,9.49021724 L17.7131894,9.49021724 L17.7131894,8.70353257 L21.6099453,8.70353257 Z M3.93287397,2.22671764 C3.6662012,3.37007715 2.96285176,4.25676411 2.33283734,5.06011583 C1.26614626,6.42348038 0.386126112,7.54350601 1.30281376,9.5435518 C1.5561529,8.52352845 2.11616571,8.04018405 2.6628449,7.56683988 C3.13259106,7.20303943 3.52570552,6.74988156 3.81953804,6.23347603 L4.16621264,5.57679433 L4.60288931,6.16680783 C5.70958131,7.66684217 5.41624126,9.45021633 4.93623027,10.7602463 C5.75486403,10.0427005 6.29427697,9.05948172 6.45959848,7.98351609 C6.6762701,6.28347717 5.82625064,4.35009958 3.93287397,2.22671764 Z" id="Combined-Shape"></path>
            </g>
        </g>
    </g>
</svg>