<?xml version="1.0" encoding="UTF-8"?>
<svg width="24px" height="24px" viewBox="0 0 24 24" version="1.1" xmlns="http://www.w3.org/2000/svg" xmlns:xlink="http://www.w3.org/1999/xlink">
    <title>Icon/Outline/fire-extinguisher-outline</title>
    <g id="Icon/Outline/fire-extinguisher-outline" stroke="none" stroke-width="1" fill="none" fill-rule="evenodd">
        <g id="Group" transform="translate(7.000000, 0.000000)" fill="#474747" fill-rule="nonzero">
            <g id="Outline">
                <path d="M5.28331997,2.40338797 L9.9999747,3.19005265 L9.9999747,0.36339313 L5.28331997,1.15005781 L5.28331997,0.666725696 C5.28331997,0.298536794 4.98484389,3.00140737e-05 4.61665499,3.00140737e-05 L4.17332278,3.00140737e-05 C3.89019607,-0.00264554692 3.63624559,0.173783213 3.53999104,0.440059603 C2.06251021,0.547451905 0.827980744,1.60619952 0.49666541,3.050053 C0.451941008,3.24328925 0.48629913,3.44638571 0.592095884,3.61415807 C0.697892637,3.78193044 0.866352609,3.90046268 1.05999732,3.94338407 C1.11494863,3.95387058 1.17072386,3.9594481 1.22666356,3.9600507 C1.57538532,3.95915539 1.87704641,3.71699626 1.95332839,3.37671884 C2.12862383,2.63215638 2.73755827,2.0680353 3.4933245,1.95005578 L3.4933245,3.77005118 C3.49303476,3.90661589 3.53367096,4.04013481 3.60999087,4.15338354 C1.52609436,4.54316921 0.0117878536,6.35670156 0,8.47670594 L0,24 L8.94664403,24 L8.94664403,8.47670594 C8.92648744,6.3029347 7.32977732,4.46601155 5.1799869,4.14338357 C5.2469637,4.03520611 5.28272563,3.91061616 5.28331997,3.78338448 L5.28331997,2.40338797 Z M7.44998115,8.47670594 L7.44998115,22.5033371 L1.49666288,22.5033371 L1.49666288,8.47670594 C1.49666288,6.83274249 2.82935857,5.5000468 4.47332202,5.5000468 C6.11728546,5.5000468 7.44998115,6.83274249 7.44998115,8.47670594 Z" id="Shape"></path>
                <path d="M4.1499895,10.5767006 C4.17332278,11.1933657 3.81665701,11.6300313 3.4533246,12.0966968 C2.86332609,12.8400282 2.19332778,13.6800261 3.28665835,15.2333555 L3.69999064,15.823354 L3.68332402,15.1066892 C3.68332402,14.3266911 3.90332346,14.1066917 4.23665595,13.843359 C4.39222165,13.71402 4.53610912,13.5712479 4.66665486,13.4166934 C5.06665385,14.3800243 4.20665602,15.5900213 4.19665605,15.6033546 L3.58999092,16.4433525 L4.48665532,15.9100205 C5.48665279,15.320022 6.04331804,14.6000238 6.15331777,13.7700259 C6.28331744,12.7700284 5.73331883,11.6300313 4.52332189,10.4200344 L4.13332288,10.026702 L4.1499895,10.5767006 Z" id="Path"></path>
            </g>
        </g>
    </g>
</svg>