<?xml version="1.0" encoding="UTF-8"?>
<svg width="24px" height="24px" viewBox="0 0 24 24" version="1.1" xmlns="http://www.w3.org/2000/svg" xmlns:xlink="http://www.w3.org/1999/xlink">
    <title>Icon/Outline/firstaid-outline</title>
    <g id="Icon/Outline/firstaid-outline" stroke="none" stroke-width="1" fill="none" fill-rule="evenodd">
        <g id="Group" fill="#474747" fill-rule="nonzero">
            <g id="Outline">
                <path d="M14.0709853,23.7551509 C18.7418092,22.977759 22.5004153,19.4924823 23.6275788,14.893522 C23.8706466,13.9381122 23.9957191,12.9565162 24,11.9706808 L24,11.9706808 C23.9777552,6.15982094 19.799808,1.19780865 14.0776357,0.18621059 C12.7233769,-0.0620701965 11.3352616,-0.0620701965 9.98100276,0.18621059 C4.22114709,1.14732209 -5.9067224e-16,6.13118826 -5.9067224e-16,11.9706808 C-5.9067224e-16,17.8101733 4.22114709,22.7940394 9.98100276,23.7551509 C11.330791,24.0034344 12.7145467,24.0034344 14.064335,23.7551509 L14.0709853,23.7551509 Z M1.55497358,11.9706808 C1.55497358,6.18585938 6.24449787,1.49633509 12.0293192,1.49633509 C17.8141406,1.49633509 22.5036649,6.18585938 22.5036649,11.9706808 C22.5036649,17.7555021 17.8141406,22.4450264 12.0293192,22.4450264 C6.2467773,22.4395271 1.56047291,17.7532227 1.55497358,11.9706808 Z" id="Outline-v2"></path>
                <path d="M15.0951436,19.8380782 L8.86041403,19.8380782 L8.86041403,15.1562119 L4.17854778,15.1562119 L4.17854778,8.92148235 L8.86041403,8.92148235 L8.86041403,4.2396161 L15.0951436,4.2396161 L15.0951436,8.92148235 L19.7770098,8.92148235 L19.7770098,15.1562119 L15.0951436,15.1562119 L15.0951436,19.8380782 Z M10.3667247,18.3417431 L13.6087841,18.3417431 L13.6087841,13.6598768 L18.2806747,13.6598768 L18.2806747,10.4178174 L13.5988085,10.4178174 L13.5988085,5.7359512 L10.3667247,5.7359512 L10.3667247,10.4178174 L5.67488287,10.4178174 L5.67488287,13.6598768 L10.3667247,13.6598768 L10.3667247,18.3417431 Z" id="Shape"></path>
            </g>
        </g>
    </g>
</svg>