<svg width="24" height="24" viewBox="0 0 24 24" fill="none" xmlns="http://www.w3.org/2000/svg">
<g clip-path="url(#clip0_15805_64112)">
<path d="M23.8759 8.55L18.6726 0.540001L11.9992 10.74L5.46589 0.753334L5.32923 0.543334L0.122562 8.55C-0.0307717 8.78333 -0.0407717 9.07667 0.0892283 9.32333C0.232562 9.58667 0.455895 9.72 0.752562 9.72L9.48256 9.70333L11.0826 12.14L4.42589 22.3133L4.34256 22.4433L4.35923 22.4533C4.26256 22.7133 4.32256 23 4.52923 23.2533L4.55923 23.2833C4.71923 23.4 4.89256 23.46 5.06923 23.46C5.10923 23.46 5.15256 23.46 5.19256 23.45C5.33923 23.4267 5.47256 23.36 5.58256 23.26L5.60256 23.2733L11.9959 13.53L18.3026 23.1367L18.3926 23.27L18.4126 23.2567C18.5192 23.3567 18.6559 23.4233 18.8026 23.4467C18.8426 23.4533 18.8859 23.4567 18.9259 23.4567C19.0992 23.4567 19.2726 23.3967 19.4359 23.28L19.4659 23.25C19.6726 22.9967 19.7326 22.7167 19.6392 22.4567L19.6592 22.4433L12.9159 12.1333L14.5159 9.69667L23.2459 9.71333C23.5426 9.71333 23.7659 9.58 23.9092 9.32C24.0426 9.07667 24.0292 8.78 23.8759 8.54667V8.55ZM2.20256 8.20333L5.33589 3.31667L8.52256 8.19L2.20256 8.20333ZM15.4759 8.19L18.6626 3.31667L21.7959 8.20333L15.4759 8.19Z" fill="black"/>
</g>
<defs>
<clipPath id="clip0_15805_64112">
<rect width="24" height="24" fill="white"/>
</clipPath>
</defs>
</svg>
