<svg width="24" height="24" viewBox="0 0 24 24" fill="none" xmlns="http://www.w3.org/2000/svg">
<g clip-path="url(#clip0_15805_64114)">
<path d="M23.5815 4.87667L19.1248 0.420001C18.5648 -0.139999 17.6515 -0.139999 17.0915 0.420001L14.1815 3.34L15.3015 4.46L18.1081 1.64333L22.3548 5.89L19.5481 8.70667L20.6681 9.82667L23.5781 6.90667C24.1381 6.34667 24.1381 5.43333 23.5781 4.87333L23.5815 4.87667Z" fill="black"/>
<path d="M9.24146 23.58L20.5681 12.2733L14.2448 5.93333L11.7548 3.44333L0.421465 14.76M1.64813 15.7767L11.7581 5.68333L18.3348 12.26L8.2248 22.3533M14.2448 5.93L11.7548 3.44L0.421465 14.76C0.151465 15.0333 0.00146484 15.3933 0.00146484 15.7767C0.00146484 16.16 0.151465 16.5233 0.421465 16.7933L7.20813 23.58C7.48813 23.86 7.8548 24 8.2248 24C8.5948 24 8.96146 23.86 9.24146 23.58L20.5681 12.2733L14.2448 5.93333V5.93ZM18.3348 12.2633L8.2248 22.3567L1.64813 15.7767L11.7581 5.68333L18.3348 12.26V12.2633Z" fill="black"/>
<path d="M18.1281 3.19L17.0981 4.22L18.0981 5.21667L18.1281 5.24667L19.1248 4.24667L19.1548 4.22L18.1548 3.22L18.1281 3.19Z" fill="black"/>
<path d="M18.7548 5.87333L19.7548 6.87333L19.7815 6.90333L20.8115 5.87333L19.8115 4.87667L19.7815 4.84667L18.7848 5.84667L18.7548 5.87333Z" fill="black"/>
</g>
<defs>
<clipPath id="clip0_15805_64114">
<rect width="24" height="24" fill="white"/>
</clipPath>
</defs>
</svg>
