<svg width="24" height="24" viewBox="0 0 24 24" fill="none" xmlns="http://www.w3.org/2000/svg">
<path d="M12.7611 22.5017V21.8317C13.9144 22.1517 15.4277 21.9117 16.7344 21.2117C18.5011 20.265 19.3544 18.805 19.3211 17.3417L19.3111 16.965L19.0044 16.7483C17.8144 15.905 16.1411 15.815 14.3744 16.765C13.7577 17.095 13.2111 17.5083 12.7544 17.9817V14.075C13.8044 13.825 14.6444 13.0483 14.9644 12.045C15.1911 12.095 15.4211 12.125 15.6477 12.125C16.7077 12.125 17.7377 11.5883 18.3077 10.6317C18.7177 9.93833 18.8311 9.13167 18.6244 8.355C18.4944 7.87167 18.2511 7.43833 17.9177 7.08167C18.2511 6.725 18.4944 6.29167 18.6244 5.80833C18.8311 5.03167 18.7177 4.225 18.3077 3.53167C17.6177 2.36833 16.2411 1.825 14.9644 2.115C14.5744 0.891667 13.4077 0.00166702 12.0344 0.00166702C10.6611 0.00166702 9.4944 0.891667 9.1044 2.115C7.82773 1.82833 6.45107 2.36833 5.76107 3.53167C5.35107 4.225 5.23773 5.03167 5.4444 5.80833C5.5744 6.29167 5.81773 6.725 6.15107 7.08167C5.81773 7.43833 5.5744 7.87167 5.4444 8.355C5.23773 9.13167 5.35107 9.93833 5.76107 10.6317C6.33107 11.5883 7.36107 12.125 8.42107 12.125C8.64773 12.125 8.87773 12.095 9.1044 12.045C9.41773 13.035 10.2444 13.805 11.2744 14.065V16.4683C10.9611 16.095 10.6011 15.7483 10.2044 15.4483C8.61107 14.2317 6.4744 13.7783 5.16773 14.4183L4.83107 14.585L4.7644 14.955C4.50107 16.395 5.25107 18.2483 6.84773 19.465C8.12773 20.4417 10.0111 20.915 11.2777 20.6683V22.505H4.67773V23.9983H19.3177V22.505H12.7611V22.5017ZM10.9944 19.205C10.1777 19.3583 8.7044 19.0017 7.74773 18.2717C6.79107 17.5417 6.2844 16.465 6.21107 15.6317C7.03107 15.475 8.35773 15.905 9.3144 16.635C10.2711 17.365 10.9244 18.3717 10.9944 19.2083V19.205ZM15.0777 18.0783C16.1377 17.5083 17.1511 17.505 17.9344 17.7883C17.7344 18.6017 17.1077 19.455 16.0477 20.0217C14.9877 20.5917 13.7977 20.6317 13.0144 20.3483C13.2144 19.535 14.0177 18.645 15.0777 18.075V18.0783ZM17.0344 9.85833C16.5977 10.595 15.6244 10.845 14.8644 10.415C14.8511 10.4083 14.8344 10.395 14.8177 10.385C14.8111 10.3783 14.8044 10.3717 14.7944 10.365C14.3311 10.0117 13.7277 8.955 13.2544 7.97167C13.7311 8.015 14.2844 8.04833 14.8311 8.04833C15.3044 8.04833 15.7744 8.02167 16.1911 7.955C16.2177 7.95167 16.2411 7.945 16.2644 7.94167C16.3544 7.925 16.4411 7.90833 16.5244 7.88833C16.5411 7.885 16.5611 7.88167 16.5777 7.87833C16.8811 8.085 17.0977 8.385 17.1911 8.735C17.2911 9.115 17.2377 9.515 17.0344 9.855V9.85833ZM17.0344 4.295C17.2377 4.63833 17.2944 5.035 17.1911 5.415C17.0877 5.80833 16.8277 6.14167 16.4611 6.345C16.4477 6.35167 16.4277 6.36167 16.4111 6.36833C16.4011 6.37167 16.3877 6.375 16.3777 6.37833C15.8211 6.595 14.5644 6.575 13.4411 6.48167C14.0344 5.665 14.7144 4.595 14.9844 3.70167C14.9844 3.69167 14.9911 3.68167 14.9944 3.67167C15.7311 3.34167 16.6211 3.605 17.0311 4.295H17.0344ZM12.0411 1.495C12.9111 1.495 13.6177 2.175 13.6177 3.00833C13.6177 3.02833 13.6111 3.05833 13.6077 3.08167C13.5211 3.65833 12.8644 4.71833 12.2144 5.62167C11.8944 4.94833 11.4611 4.12833 10.9844 3.46833C10.9744 3.455 10.9644 3.43833 10.9511 3.425C10.8911 3.345 10.8311 3.26833 10.7711 3.19167C10.7444 3.15833 10.7211 3.12833 10.6944 3.09833C10.6444 3.03833 10.5944 2.985 10.5411 2.92833C10.5177 2.90167 10.4944 2.87167 10.4677 2.84833C10.5511 2.08833 11.2211 1.495 12.0377 1.495H12.0411ZM7.04773 4.295C7.33773 3.805 7.87107 3.52833 8.42107 3.52833C8.69107 3.52833 8.96773 3.595 9.21773 3.73833C9.23107 3.745 9.24773 3.75833 9.26107 3.76833C9.26773 3.775 9.2744 3.785 9.2844 3.79167C9.74773 4.145 10.3511 5.20167 10.8244 6.185C10.0644 6.11833 9.1244 6.075 8.3044 6.15167C8.2844 6.15167 8.26773 6.15167 8.24773 6.155C8.14773 6.165 8.0544 6.17833 7.96107 6.19167C7.92107 6.19833 7.87773 6.20167 7.83773 6.20833C7.76107 6.22167 7.69107 6.23833 7.61773 6.25167C7.58107 6.25833 7.53773 6.265 7.50107 6.275C7.19773 6.06833 6.98107 5.76833 6.88773 5.41833C6.78773 5.03833 6.84107 4.64167 7.0444 4.29833L7.04773 4.295ZM7.04773 9.85833C6.8444 9.51833 6.78773 9.11833 6.89107 8.73833C6.99773 8.345 7.2544 8.01167 7.62107 7.80833C7.63773 7.79833 7.65773 7.79167 7.67773 7.785C7.6844 7.785 7.6944 7.78167 7.7044 7.77833C8.26107 7.56167 9.51773 7.58167 10.6411 7.675C10.0511 8.49167 9.36773 9.55833 9.09773 10.4517C9.0944 10.4617 9.08773 10.475 9.0844 10.485C8.34773 10.815 7.45773 10.5517 7.04773 9.86167V9.85833ZM10.4611 11.1483C10.4611 11.1283 10.4677 11.0983 10.4711 11.075C10.5577 10.4983 11.2144 9.43833 11.8644 8.53833C12.1844 9.215 12.6177 10.035 13.0977 10.695C13.1077 10.7083 13.1177 10.7217 13.1244 10.735C13.1877 10.8183 13.2477 10.8983 13.3111 10.975C13.3344 11.0017 13.3577 11.0317 13.3811 11.0583C13.4377 11.125 13.4911 11.185 13.5477 11.2417C13.5677 11.265 13.5877 11.2883 13.6077 11.3083C13.5244 12.0683 12.8511 12.6617 12.0377 12.6617C11.1677 12.6617 10.4611 11.985 10.4611 11.1483Z" fill="black"/>
</svg>
