<?xml version="1.0" encoding="UTF-8"?>
<svg width="24px" height="24px" viewBox="0 0 24 24" version="1.1" xmlns="http://www.w3.org/2000/svg" xmlns:xlink="http://www.w3.org/1999/xlink">
    <title>Icon/Outline/fnb-outline</title>
    <g id="Icon/Outline/fnb-outline" stroke="none" stroke-width="1" fill="none" fill-rule="evenodd">
        <g id="Group" transform="translate(-0.000000, -0.000000)" fill="#474747" fill-rule="nonzero">
            <g id="f&amp;b-outline">
                <path d="M19.391242,0.00167346303 C17.2054874,0.00643542268 15.3407452,1.58677913 14.9745667,3.7447458 L5.54544767,3.7447458 L4.34725393,0.57163372 C4.23685301,0.281002841 3.95881065,0.0887452083 3.64830758,0.0883340868 L0.746016073,0.0883340868 L0.746016073,1.5815633 L3.13574692,1.5815633 L3.95118433,3.7447458 L0.746016073,3.7447458 C0.459288867,3.74456622 0.197864902,3.90907115 0.0736275746,4.1678563 C-0.0506097524,4.42664145 -0.0156438126,4.73384639 0.163560782,4.95799453 L9.32308623,16.500523 L9.32308623,22.5001047 L6.08130653,22.5001047 L6.08130653,24 L14.0492949,24 L14.0492949,22.5001047 L10.8141718,22.5001047 L10.8141718,16.500523 L17.2278367,8.4244195 C17.8893459,8.7931315 18.6341749,8.98591796 19.391242,8.98438046 C21.0226753,9.02889161 22.5495686,8.18271295 23.3783866,6.77477166 C24.2072046,5.3668304 24.2072046,3.6192235 23.3783866,2.21128224 C22.5495686,0.803340978 21.0226753,-0.0428377214 19.391242,0.00167346303 L19.391242,0.00167346303 Z M15.6535432,5.23797501 L17.8469034,5.23797501 L16.4856222,6.95785508 L16.4856222,6.95785508 L14.934627,8.92438466 L7.50582573,8.92438466 L6.11126138,5.23797501 L15.6535432,5.23797501 Z M13.7430898,10.4176138 L10.0819423,15.047291 L6.42079476,10.4176138 L13.7430898,10.4176138 Z M4.51699804,5.23797501 L5.91156242,8.92438466 L5.21261607,8.92438466 L2.28702635,5.23797501 L4.51699804,5.23797501 Z M19.391242,7.50115168 C18.9714199,7.50152065 18.5562716,7.41291919 18.1730784,7.24116866 L19.9770256,4.96799383 C20.1537874,4.74267998 20.1869,4.43619336 20.0623507,4.17823245 C19.9378014,3.92027155 19.6773609,3.75592671 19.391242,3.7547451 L16.4922788,3.7547451 C16.8798982,2.2441871 18.3587151,1.28307713 19.8942019,1.54377331 C21.4296889,1.80446947 22.5095426,3.19999256 22.3783362,4.75408455 C22.2471299,6.30817655 20.9486392,7.50232683 19.391242,7.50115168 L19.391242,7.50115168 Z" id="Shape"></path>
            </g>
        </g>
    </g>
</svg>