<?xml version="1.0" encoding="UTF-8"?>
<svg width="24px" height="24px" viewBox="0 0 24 24" version="1.1" xmlns="http://www.w3.org/2000/svg" xmlns:xlink="http://www.w3.org/1999/xlink">
    <title>Icon/Outline/folder-opened-outline</title>
    <g id="Icon/Outline/folder-opened-outline" stroke="none" stroke-width="1" fill="none" fill-rule="evenodd">
        <g id="Group" transform="translate(-0.000000, 0.750000)" fill="#474747" fill-rule="nonzero">
            <g id="folder-opened">
                <path d="M1.5048524,9.75000004 L2.70782865,20.25 L21.2970239,20.25 L22.5000001,9.75000004 L1.5048524,9.75000004 Z M0.755288726,8.25000003 L23.2447726,8.25000003 C23.6618732,8.25000003 24,8.56811351 24,8.96052634 C24,8.98537129 23.998615,9.01019921 23.9958505,9.03490766 L22.7155662,20.4777101 C22.6346461,21.2009501 21.9863988,21.75 21.2134105,21.75 L2.78665082,21.75 C2.01366251,21.75 1.36541525,21.2009501 1.28449513,20.4777101 L0.0042108795,9.03490766 C-0.0394532087,8.64465094 0.261419058,8.29498368 0.676227897,8.25390408 C0.702490831,8.25130316 0.728880689,8.25000003 0.755288726,8.25000003 Z M21.0000001,4.5 L9.00000004,4.5 L9.00000004,1.5 L3.0048524,1.5 L3.0048524,6.75000003 L1.5048524,6.75000003 L1.5048524,1.5 C1.5048524,0.671572878 2.17642528,0 3.0048524,0 L9.00000004,0 C9.82842717,0 10.5,0.671572878 10.5,1.5 L10.5,3 L21.0000001,3 C21.8284272,3 22.5000001,3.67157289 22.5000001,4.5 L22.5000001,6.75000003 L21.0000001,6.75000003 L21.0000001,4.5 Z" id="Combined-Shape"></path>
            </g>
        </g>
    </g>
</svg>