<svg width="24" height="24" viewBox="0 0 24 24" fill="none" xmlns="http://www.w3.org/2000/svg">
<path d="M23.94 11.8867C23.8267 11.63 23.5767 11.4667 23.3033 11.4667H20.9733V7.37333C20.9733 6.53667 20.3 5.86 19.47 5.86H8.94V4.34667C8.94 3.51 8.26667 2.83333 7.43667 2.83333H1.50333C0.673333 2.83333 0 3.51 0 4.34667V20.67H0.0566667C0.0633333 20.6967 0.0666667 20.72 0.0766667 20.7467C0.19 21.0033 0.44 21.1667 0.713333 21.1667H16.0667C16.2667 21.1667 16.4567 21.08 16.59 20.9267L23.8233 12.6533C24.0067 12.4433 24.05 12.1433 23.94 11.89V11.8867ZM1.50333 4.34333H7.43333V7.37H19.4667V11.4633H7.95C7.75 11.4633 7.56 11.55 7.42667 11.7033L1.50333 18.4767V4.34333ZM15.7533 19.74H2.27333L8.26333 12.89H21.7433L15.7533 19.74Z" fill="black"/>
</svg>
