<?xml version="1.0" encoding="UTF-8"?>
<svg width="24px" height="24px" viewBox="0 0 24 24" version="1.1" xmlns="http://www.w3.org/2000/svg" xmlns:xlink="http://www.w3.org/1999/xlink">
    <title>Icon/Outline/folder-add-outline</title>
    <g id="Icon/Outline/folder-add-outline" stroke="none" stroke-width="1" fill="none" fill-rule="evenodd">
        <g id="Group" transform="translate(0.000000, 1.000000)" fill="#474747" fill-rule="nonzero">
            <g id="Outline">
                <path d="M6.60666667,19.0066667 L16.7466667,10.8166667 L16.7766667,15.3633333 C16.7766667,15.7775469 17.1124531,16.1133333 17.5266667,16.1133333 C17.9408802,16.1133333 18.2766667,15.7775469 18.2766667,15.3633333 L18.2333333,8.25 L11.1233333,8.29666667 C10.7091198,8.29666667 10.3733333,8.6324531 10.3733333,9.04666667 C10.3733333,9.46088023 10.7091198,9.79666667 11.1233333,9.79666667 L15.6666667,9.76333333 L5.72333333,17.9166667 L6.60666667,19.0066667 Z" id="Outline-v2"></path>
                <path d="M1.5,3 L0,3 L0,1.5 C0.00183315539,0.672333382 0.672333382,0.00183315539 1.5,0 L7.5,0 C8.32842712,0 9,0.671572875 9,1.5 L9,3 L7.5,3 L7.5,1.5 L1.5,1.5 L1.5,3 Z M24,6 L24,21 C24,21.8284271 23.3284271,22.5 22.5,22.5 L1.5,22.5 C0.672333382,22.4981668 0.00183315539,21.8276666 0,21 L0,4.5 L22.5,4.5 C23.3284271,4.5 24,5.17157288 24,6 Z M22.5,6 L1.5,6 L1.5,21 L22.5,21 L22.5,6 Z" id="Shape"></path>
            </g>
        </g>
    </g>
</svg>