<?xml version="1.0" encoding="UTF-8"?>
<svg width="24px" height="24px" viewBox="0 0 24 24" version="1.1" xmlns="http://www.w3.org/2000/svg" xmlns:xlink="http://www.w3.org/1999/xlink">
    <title>Icon/Outline/folder-delete-outline</title>
    <g id="Icon/Outline/folder-delete-outline" stroke="none" stroke-width="1" fill="none" fill-rule="evenodd">
        <g id="Group" transform="translate(0.000000, 1.000000)" fill="#474747" fill-rule="nonzero">
            <g id="Outline">
                <path d="M5.69333333,9.31 L15.6666667,17.45 L11.1166667,17.42 C10.7024531,17.42 10.3666667,17.7557865 10.3666667,18.17 C10.3666667,18.5842135 10.7024531,18.92 11.1166667,18.92 L18.2233333,18.9633333 L18.2666667,11.8566667 C18.2666667,11.4424531 17.9308802,11.1066667 17.5166667,11.1066667 C17.1024531,11.1066667 16.7666667,11.4424531 16.7666667,11.8566667 L16.7366667,16.4033333 L6.57666667,8.20666667 L5.69333333,9.31 Z" id="Outline-v2"></path>
                <path d="M1.5,3 L0,3 L0,1.5 C0.00183315539,0.672333382 0.672333382,0.00183315539 1.5,0 L7.5,0 C8.32842712,0 9,0.671572875 9,1.5 L9,3 L7.5,3 L7.5,1.5 L1.5,1.5 L1.5,3 Z M24,6 L24,21 C24,21.8284271 23.3284271,22.5 22.5,22.5 L1.5,22.5 C0.672333382,22.4981668 0.00183315539,21.8276666 0,21 L0,4.5 L22.5,4.5 C23.3284271,4.5 24,5.17157288 24,6 Z M22.5,6 L1.5,6 L1.5,21 L22.5,21 L22.5,6 Z" id="Shape"></path>
            </g>
        </g>
    </g>
</svg>