<svg width="24" height="24" viewBox="0 0 24 24" fill="none" xmlns="http://www.w3.org/2000/svg">
<g clip-path="url(#clip0_15805_64125)">
<path d="M1.5 23.25C0.673333 23.25 0 22.58 0 21.75V5.25H22.5C23.3267 5.25 24 5.92 24 6.75V21.75C24 22.5767 23.33 23.25 22.5 23.25H1.5ZM1.5 21.75H22.5V6.75H1.5V21.75ZM11.0067 18.6267V14.9833H7.36333V13.41H11.0067V9.76667H12.58V13.41H16.2233V14.9833H12.58V18.6267H11.0067ZM7.5 3.75V2.25H1.5V3.75H0V2.25C0 1.42333 0.673333 0.75 1.5 0.75H7.5C8.32667 0.75 9 1.42 9 2.25V3.75H7.5Z" fill="black"/>
</g>
<defs>
<clipPath id="clip0_15805_64125">
<rect width="24" height="24" fill="white"/>
</clipPath>
</defs>
</svg>
