<svg width="24" height="24" viewBox="0 0 24 24" fill="none" xmlns="http://www.w3.org/2000/svg">
<g clip-path="url(#clip0_15805_64121)">
<path d="M1.5 23.25C0.673333 23.25 0 22.58 0 21.75V5.25H13V2.60333H15.18V5.25H22.5C23.3267 5.25 24 5.92 24 6.75V21.75C24 22.5767 23.33 23.25 22.5 23.25H1.5ZM1.5 21.75H22.5V6.75H15.18V12.3567L17.1267 10.4067C17.55 9.97667 18.24 9.97 18.67 10.3933C19.1 10.8167 19.1067 11.5067 18.6833 11.9367C18.68 11.94 18.6733 11.9467 18.67 11.95L14.09 16.53L9.51 11.95C9.07667 11.5333 9.06333 10.8433 9.48333 10.41C9.9 9.97667 10.59 9.96333 11.0233 10.3833C11.0333 10.3933 11.0433 10.4033 11.05 10.41L13 12.36V6.75333H1.5V21.7533V21.75ZM7.5 3.75V2.25H1.5V3.75H0V2.25C0 1.42333 0.673333 0.75 1.5 0.75H7.5C8.32667 0.75 9 1.42 9 2.25V3.75H7.5Z" fill="black"/>
</g>
<defs>
<clipPath id="clip0_15805_64121">
<rect width="24" height="24" fill="white"/>
</clipPath>
</defs>
</svg>
