<svg width="24" height="24" viewBox="0 0 24 24" fill="none" xmlns="http://www.w3.org/2000/svg">
<g id="Fill=false">
<path id="Vector" d="M19.3944 0.000625979C18.6744 0.000625979 17.9944 0.160626 17.3544 0.480626C16.7304 0.800625 16.2024 1.24863 15.7704 1.82463C15.3544 2.40063 15.0904 3.04063 14.9784 3.74463H5.54636L4.34636 0.576626C4.29836 0.432626 4.21036 0.320626 4.08236 0.240626C3.95436 0.144626 3.81036 0.0966262 3.65036 0.0966262H0.746359V1.58463H3.14636L3.96236 3.74463H0.746359C0.602359 3.74463 0.466359 3.78463 0.338359 3.86463C0.226359 3.94463 0.138359 4.04863 0.0743586 4.17663C0.0103586 4.30463 -0.0136414 4.44063 0.00235859 4.58463C0.0183586 4.72863 0.0743586 4.85663 0.170359 4.96863L9.33836 16.4886V22.5126H6.07436V24.0006H14.0424V22.5126H10.8264V16.4886L17.2344 8.42463C17.8904 8.79263 18.6104 8.97663 19.3944 8.97663C20.2104 9.00863 20.9784 8.82463 21.6984 8.42463C22.4184 8.02463 22.9784 7.47263 23.3784 6.76863C23.7944 6.06463 24.0024 5.30463 24.0024 4.48863C24.0024 3.67263 23.7944 2.91263 23.3784 2.20863C22.9784 1.50463 22.4184 0.952626 21.6984 0.552626C20.9784 0.152625 20.2104 -0.0313746 19.3944 0.000625979ZM17.8584 5.23263L14.9304 8.92863H7.51436L6.12236 5.23263H17.8584ZM13.7544 10.4166L10.0824 15.0486L6.43436 10.4166H13.7544ZM4.51436 5.23263L5.90636 8.92863H5.21036L2.28236 5.23263H4.51436ZM19.3944 7.48863C18.9944 7.50463 18.5864 7.42463 18.1704 7.24863L19.9704 4.96863C20.0664 4.85663 20.1224 4.72863 20.1384 4.58463C20.1544 4.44063 20.1304 4.30463 20.0664 4.17663C20.0024 4.04863 19.9064 3.94463 19.7784 3.86463C19.6664 3.78463 19.5384 3.74463 19.3944 3.74463H16.4904C16.6184 3.24863 16.8504 2.81663 17.1864 2.44863C17.5384 2.08063 17.9464 1.81663 18.4104 1.65663C18.8904 1.49663 19.3864 1.45663 19.8984 1.53663C20.4104 1.61663 20.8584 1.81663 21.2424 2.13663C21.6424 2.44063 21.9384 2.82463 22.1304 3.28863C22.3384 3.75263 22.4184 4.24063 22.3704 4.75263C22.3384 5.26463 22.1784 5.73663 21.8904 6.16863C21.6184 6.58463 21.2584 6.91263 20.8104 7.15263C20.3784 7.37663 19.9064 7.48863 19.3944 7.48863Z" fill="#474747"/>
</g>
</svg>
