<svg width="24" height="24" viewBox="0 0 24 24" fill="none" xmlns="http://www.w3.org/2000/svg">
<g clip-path="url(#clip0_15805_64131)">
<path fill-rule="evenodd" clip-rule="evenodd" d="M0 16.0067V22.5033C0 23.33 0.67 24 1.5 24H22.5C23.33 24 24 23.33 24 22.5033V16.0067H0ZM1.5 22.5033V17.45H22.5V22.5033H1.5ZM3.14333 0H4.47667V1.33H3.14333V0ZM5.88333 0H7.21667V1.33H5.88333V0ZM8.62333 0H9.95667V1.33H8.62333V0ZM11.3633 0H12.6967V1.33H11.3633V0ZM14.1033 0H15.4367V1.33H14.1033V0ZM16.8433 0H18.1767V1.33H16.8433V0ZM19.5833 0H20.9167V1.33H19.5833V0ZM0.0733333 0.05H1.40667V1.36H0.0733333V0.05ZM0.0733333 2.76333H1.40667V4.07333H0.0733333V2.76333ZM0.0733333 5.47667H1.40667V6.78667H0.0733333V5.47667ZM0.0733333 8.19H1.40667V9.5H0.0733333V8.19ZM0.0733333 10.9033H1.40667V12.2133H0.0733333V10.9033ZM0.0733333 13.6167H1.40667V14.9267H0.0733333V13.6167ZM22.6467 0.05H23.98V1.36H22.6467V0.05ZM22.6467 2.76333H23.98V4.07333H22.6467V2.76333ZM22.6467 5.47667H23.98V6.78667H22.6467V5.47667ZM22.6467 8.19H23.98V9.5H22.6467V8.19ZM22.6467 10.9033H23.98V12.2133H22.6467V10.9033ZM22.6467 13.6167H23.98V14.9267H22.6467V13.6167Z" fill="black"/>
</g>
<defs>
<clipPath id="clip0_15805_64131">
<rect width="24" height="24" fill="white"/>
</clipPath>
</defs>
</svg>
