<?xml version="1.0" encoding="UTF-8"?>
<svg width="24px" height="24px" viewBox="0 0 24 24" version="1.1" xmlns="http://www.w3.org/2000/svg" xmlns:xlink="http://www.w3.org/1999/xlink">
    <title>Icon/Outline/gameroom-outline</title>
    <g id="Icon/Outline/gameroom-outline" stroke="none" stroke-width="1" fill="none" fill-rule="evenodd">
        <g id="Group" transform="translate(1.000000, 0.000000)" fill="#474747" fill-rule="nonzero">
            <g id="Outline">
                <path d="M13.2092223,18.0693286 L13.5823879,18.0693286 C16.3678025,18.0026919 18.6401144,16.0269134 20.0994584,14.5575738 C23.1614154,11.4956169 24.2342665,6.37125361 20.3660053,2.50299241 C18.7635763,0.800644358 16.4935309,-0.110785579 14.1587955,0.0107793371 C11.9424859,0.18294066 9.8659474,1.16076273 8.32141939,2.75954376 C6.8554117,4.22555145 4.89296049,6.5011952 4.82299194,9.28660981 L4.82299194,9.65977541 L5.5293411,13.1515392 C5.4961366,13.6069791 5.30800761,14.0373241 4.9962474,14.370991 L0.514928437,18.6357407 C0.190972669,18.9421947 0.00522933516,19.3669823 0.000100367772,19.8128928 C-0.00481935162,20.2588033 0.17130536,20.6876683 0.488273752,21.001344 L1.89097656,22.4040468 C2.19893603,22.7128718 2.61765808,22.8856396 3.05378721,22.8838452 L3.07377822,22.8838452 C3.51693642,22.8810992 3.93960976,22.696857 4.24325254,22.3740603 L8.4813475,17.9094005 C8.81618069,17.5873773 9.25393079,17.3938705 9.71745853,17.3629795 L13.2092223,18.0693286 Z M9.59751244,15.6237612 C8.70528455,15.6904202 7.86573653,16.0718183 7.22857729,16.6999442 L3.05045537,21.0913036 L1.77436232,19.8285378 L6.10574867,15.7003935 L6.16572172,15.6404204 C6.78998165,15.0056766 7.16793266,14.16946 7.23190913,13.2814808 C7.26115142,12.860633 7.23086638,12.4377642 7.14194956,12.0253787 L10.8536145,15.7137208 C10.4410332,15.6261823 10.0183576,15.5959111 9.59751244,15.6237612 L9.59751244,15.6237612 Z M18.8766748,13.338122 C17.0241741,15.1906226 15.4315567,16.1401958 13.8955804,16.3034557 L6.58553301,8.98341277 C6.74879296,7.45076836 7.70169795,5.85481908 9.55419858,4.00231846 C10.7972145,2.70583303 12.4719328,1.90936404 14.2620824,1.76332489 C16.1003263,1.67102654 17.8862961,2.39101847 19.1465534,3.73243977 C21.3922107,5.978097 22.2651516,9.9396496 18.8766748,13.338122 Z" id="Shape"></path>
                <path d="M20.0194944,23.999998 C18.8656451,24.001344 17.8246615,23.3073193 17.3821682,22.2416882 C16.9396748,21.1760571 17.1828611,19.9487928 17.9982794,19.1324209 C18.8136976,18.3160489 20.0406767,18.0714282 21.1068244,18.5126757 C22.172972,18.9539231 22.8682139,19.9940946 22.8682139,21.1479448 C22.8663826,22.72103 21.5925764,23.996326 20.0194944,23.999998 Z M20.0194944,20.0384435 C19.570743,20.0384435 19.1661786,20.3087648 18.9944489,20.723357 C18.8227192,21.1379492 18.9176434,21.6151655 19.2349585,21.9324806 C19.5522737,22.2497958 20.0294899,22.34472 20.4440821,22.1729903 C20.8586744,22.0012606 21.1289957,21.5966961 21.1289957,21.1479448 C21.1271661,20.5359436 20.6314956,20.0402731 20.0194944,20.0384435 L20.0194944,20.0384435 Z" id="Shape"></path>
            </g>
        </g>
    </g>
</svg>