<?xml version="1.0" encoding="UTF-8"?>
<svg width="24px" height="24px" viewBox="0 0 24 24" version="1.1" xmlns="http://www.w3.org/2000/svg" xmlns:xlink="http://www.w3.org/1999/xlink">
    <title>Icon/Outline/gantt-chart-outline</title>
    <g id="Icon/Outline/gantt-chart-outline" stroke="none" stroke-width="1" fill="none" fill-rule="evenodd">
        <g id="Shape-" transform="translate(-0.002216, 0.000000)" fill="#474747" fill-rule="nonzero">
            <path d="M23.2657777,0 C23.6725014,0 24.002216,0.329714684 24.002216,0.736438359 L24.002216,23.2635617 C24.002216,23.6702854 23.6725014,24 23.2657777,24 L0.736438361,24 C0.329714686,24 0,23.6702854 0,23.2635617 L0,0.736438359 C0,0.329714684 0.329714686,0 0.736438361,0 L23.2657777,0 Z M22.4718051,1.47945206 L1.46958904,1.47945206 L1.46958904,22.4794521 L22.4718051,22.4794521 L22.4718051,1.47945206 Z M12.3755494,4.15 C12.6977155,4.15 12.9588827,4.41116723 12.9588827,4.73333333 L12.9588827,5.9 C12.9588827,6.2221661 12.6977155,6.48333333 12.3755494,6.48333333 L3.30554938,6.48333333 C2.9841406,6.48151228 2.7240371,6.22140878 2.72221605,5.9 L2.72221605,4.73333333 C2.72221605,4.41116723 2.98338328,4.15 3.30554938,4.15 L12.3755494,4.15 Z M9.04221605,10.94 C8.72080727,10.9381789 8.46070377,10.6780754 8.45888271,10.3566667 L8.45888271,9.19 C8.45888271,8.8678339 8.72004994,8.60666667 9.04221605,8.60666667 L13.7988827,8.60666667 C14.1210488,8.60666667 14.382216,8.8678339 14.382216,9.19 L14.382216,10.3566667 C14.380395,10.6780754 14.1202915,10.9381789 13.7988827,10.94 L9.04221605,10.94 Z M17.932216,15.3933333 L9.52888271,15.3933333 C9.20671661,15.3933333 8.94554938,15.1321661 8.94554938,14.81 L8.94554938,13.6433333 C8.94554938,13.3211672 9.20671661,13.06 9.52888271,13.06 L17.932216,13.06 C18.2536248,13.0618211 18.5137283,13.3219246 18.5155494,13.6433333 L18.5155494,14.81 C18.5155494,15.1321661 18.2543822,15.3933333 17.932216,15.3933333 L17.932216,15.3933333 Z M21.5822161,18.1 L21.5822161,19.2666667 C21.5822161,19.5836968 21.3291634,19.8427536 21.012216,19.85 L13.262216,19.85 C12.9400499,19.85 12.6788827,19.5888328 12.6788827,19.2666667 L12.6788827,18.1 C12.6788827,17.7778339 12.9400499,17.5166667 13.262216,17.5166667 L21.012216,17.5166667 C21.3284064,17.5256486 21.5805463,17.7836865 21.5822161,18.1 L21.5822161,18.1 Z" id="Shape"></path>
        </g>
    </g>
</svg>