<?xml version="1.0" encoding="UTF-8"?>
<svg width="24px" height="24px" viewBox="0 0 24 24" version="1.1" xmlns="http://www.w3.org/2000/svg" xmlns:xlink="http://www.w3.org/1999/xlink">
    <title>Icon/Outline/gender-neutral-outline</title>
    <g id="Icon/Outline/gender-neutral-outline" stroke="none" stroke-width="1" fill="none" fill-rule="evenodd">
        <g id="Group" transform="translate(4.000000, 0.000000)" fill="#474747" fill-rule="nonzero">
            <g id="Outline">
                <path d="M10.2358924,0 L10.2358924,1.51666667 L14.1558924,1.51666667 L10.9225591,4.75 C8.65472563,2.99266009 5.52573185,2.85474574 3.11207927,4.40574324 C0.698426689,5.95674075 -0.476230231,8.86015315 0.179943643,11.653135 C0.836117518,14.4461169 3.18076186,16.5227164 6.03255906,16.8366667 L6.03255906,19.5566667 L2.23922573,19.5566667 L2.23922573,21.07 L6.03255906,21.07 L6.03255906,24 L7.53255906,24 L7.53255906,21.07 L11.3025591,21.07 L11.3025591,19.5566667 L7.53255906,19.5566667 L7.53255906,16.8366667 C10.0029878,16.5616797 12.124325,14.955627 13.0592272,12.6524566 C13.9941294,10.3492861 13.5923799,7.71906287 12.0125591,5.8 L15.2192257,2.59333333 L15.2192257,6.5 L16.7358924,6.5 L16.7358924,0 L10.2358924,0 Z M6.77589239,15.3633376 C4.64646818,15.3660305 2.72522075,14.085372 1.9084558,12.1188142 C1.09169085,10.1522563 1.54035226,7.8873102 3.04512927,6.38062479 C4.54990627,4.87393938 6.81428191,4.42240768 8.78187336,5.23667951 C10.7494648,6.05095134 12.0325591,7.97057408 12.0325591,10.1 C12.0307266,13.0034976 9.67938533,15.3578209 6.77589239,15.3633376 L6.77589239,15.3633376 Z" id="Shape"></path>
            </g>
        </g>
    </g>
</svg>