<svg width="24" height="24" viewBox="0 0 24 24" fill="none" xmlns="http://www.w3.org/2000/svg">
<path d="M14.96 5.79833C16.68 4.89833 17.05 4.50167 17.1767 4.365C17.6767 3.825 17.9767 3.14833 18.02 2.46167C18.0667 1.72167 17.8133 1.05833 17.31 0.591667C16.9 0.211667 16.3467 0.00166702 15.7533 0.00166702C14.9533 0.00166702 14.1533 0.368334 13.56 1.01167C13.4133 1.16833 12.97 1.64833 11.9933 4.05833C11.96 4.145 11.9233 4.23167 11.89 4.315C11.8767 4.285 11.8633 4.255 11.85 4.225C10.92 2.04833 10.48 1.64167 10.3333 1.505C9.84333 1.05167 9.21 0.801667 8.55 0.801667C7.84333 0.801667 7.19667 1.08167 6.72333 1.59167C6.26333 2.08833 6.03 2.74167 6.07 3.42833C6.11 4.105 6.40667 4.735 6.91 5.19833C7.00667 5.28833 7.21333 5.47833 7.91 5.79833H1.5V10.895H2.67V23.9983H21.1533V10.895H22.5V5.79833H14.96ZM11.3167 10.895V22.5483H4.12V10.895H11.3167ZM2.95 9.44167V7.24833H11.3167V9.44167H2.95ZM10.19 5.145C8.34 4.515 7.94 4.20167 7.88 4.145C7.65 3.93167 7.51 3.645 7.49333 3.33833C7.47667 3.045 7.57333 2.765 7.76667 2.55833C8.16 2.13167 8.90333 2.12833 9.35667 2.54833C9.41667 2.605 9.75667 2.97167 10.5267 4.775C10.6033 4.95167 10.68 5.13833 10.76 5.33167C10.56 5.26833 10.37 5.205 10.1867 5.14167L10.19 5.145ZM12.7667 22.545V10.8917H19.6967V22.545H12.7667ZM13.0967 5.12833C13.74 3.48833 14.31 2.29167 14.6 1.97833C14.92 1.63167 15.3467 1.42833 15.7467 1.42833C15.91 1.42833 16.1433 1.465 16.3333 1.63833C16.5167 1.80833 16.6067 2.06833 16.59 2.37167C16.5667 2.72833 16.4033 3.09167 16.1267 3.38833C15.8333 3.705 14.6867 4.36167 13.1 5.12833H13.0967ZM21.0433 7.24833V9.44167H12.7667V7.24833H21.0433Z" fill="black"/>
</svg>
