<?xml version="1.0" encoding="UTF-8"?>
<svg width="24px" height="24px" viewBox="0 0 24 24" version="1.1" xmlns="http://www.w3.org/2000/svg" xmlns:xlink="http://www.w3.org/1999/xlink">
    <title>Icon/Outline/globe-map-outline</title>
    <g id="Icon/Outline/globe-map-outline" stroke="none" stroke-width="1" fill="none" fill-rule="evenodd">
        <g id="Group" transform="translate(-0.000000, -0.000000)" fill="#474747" fill-rule="nonzero">
            <g id="globe-map">
                <path d="M6.64698523,2.96508892 L7.42500003,3.82500002 C7.72500003,4.20000002 7.72500003,4.72500002 7.57500003,5.70000002 C7.50000003,6.15000003 7.42500003,6.60000003 7.50000003,6.82500003 C7.57500003,7.27500003 8.10000003,8.17500003 8.47500004,8.62500004 C8.92500004,9.22500004 9.90000004,9.90000004 10.95,10.575 C12.9750001,12 14.4000001,13.0500001 14.5500001,14.3250001 L14.6250001,14.7750001 L14.3250001,15.0000001 C14.2500001,15.0750001 14.1000001,15.1500001 14.0250001,15.2250001 C13.8750001,15.3000001 13.6500001,15.4500001 13.6500001,15.5250001 C13.6500001,15.9000001 14.4750001,16.4250001 15.0750001,16.8750001 C15.9000001,17.4000001 16.4250001,17.7750001 16.5750001,18.2250001 C16.8000001,18.7500001 16.7250001,19.8750001 16.5750001,20.3250001 C16.531042,20.3250001 16.2809713,20.9948663 15.915391,21.7456791 C17.7254093,21.0178131 19.285857,19.8003236 20.4327591,18.2571851 C20.7215828,17.1066348 20.9115344,14.5371784 20.5992641,14.1000001 C20.4492641,13.8750001 19.6992641,13.7250001 19.1742641,13.6500001 C18.5742641,13.5750001 18.1992641,13.4250001 17.8992641,13.2750001 C17.7492641,13.2000001 17.6742641,13.0500001 17.4492641,12.8250001 C17.2992641,12.6750001 17.1492641,12.4500001 17.0742641,12.4500001 C16.8492641,12.3750001 16.3242641,12.3750001 15.7992641,12.4500001 C15.1242641,12.5250001 14.5992641,12.6000001 14.2992641,12.4500001 C13.3242641,12.0750001 11.6742641,10.875 11.3742641,9.97500004 C11.2992641,9.75000004 11.3742641,9.45000004 11.5242641,9.30000004 C11.6742641,9.15000004 11.8992641,9.00000004 12.1992641,9.07500004 C12.3492641,9.07500004 12.5742641,9.15000004 12.6492641,9.15000004 C12.8742641,9.22500004 13.2492641,9.30000004 13.3242641,9.22500004 C13.7742641,8.92500004 14.0742641,8.02500003 14.3742641,7.20000003 C14.5992641,6.60000003 14.8242641,6.00000003 15.0492641,5.62500002 C15.1992641,5.47500002 15.2742641,5.40000002 15.4992641,5.25000002 C15.6492641,5.17500002 15.8742641,4.95000002 15.9492641,4.87500002 C15.9492641,4.80000002 15.2742641,4.57500002 15.0492641,4.50000002 C14.6742641,4.35000002 14.3742641,4.27500002 14.2242641,4.20000002 C14.0742641,4.12500002 13.9992641,3.97500002 13.8492641,3.75000002 C13.7742641,3.60000002 13.5492641,3.37500001 13.4742641,3.30000001 C13.3992641,3.30000001 13.3242641,3.52500001 13.2492641,3.60000002 C13.1742641,3.67500002 13.1742641,3.75000002 13.0992641,3.82500002 C12.9492641,3.97500002 12.7992641,4.12500002 12.5742641,4.12500002 C12.3492641,4.12500002 12.1992641,4.12500002 12.0492641,3.97500002 C11.8242641,3.82500002 11.5242641,3.45000001 11.3742641,3.15000001 C11.2242641,2.85000001 11.2242641,2.47500001 11.2992641,1.72500001 L11.2992641,1.52301166 C9.60775429,1.63446581 8.02567196,2.1464809 6.64698523,2.96508892 Z M4.77341417,4.38245889 C2.75724594,6.29577798 1.50000001,9.00106624 1.50000001,12 C1.50000001,17.7989899 6.20101015,22.5000001 12,22.5000001 C12.7525037,22.5000001 13.4865187,22.4208404 14.1941719,22.2703942 C14.5585201,21.4606426 14.9283198,20.4128276 15.0750001,19.8750001 C15.1500001,19.6500001 15.1500001,18.9750001 15.0750001,18.8250001 C15,18.7500001 14.4000001,18.3000001 14.1000001,18.1500001 C13.1250001,17.4750001 12,16.7250001 12,15.5250001 C12,14.8500001 12.4500001,14.4750001 12.8250001,14.1750001 C12.3000001,13.5000001 10.875,12.4500001 10.05,11.925 C8.92500004,11.1 7.87500003,10.425 7.27500003,9.60000004 C6.82500003,9.00000004 6.22500003,7.87500003 6.00000001,7.20000003 C5.92500002,6.67500003 6.00000001,6.07500003 6.07500003,5.47500002 C6.07500003,5.40000002 6.15000003,5.17500002 6.15000003,4.95000002 C5.48919189,4.90594615 5.03539645,4.70663275 4.77341417,4.38245889 Z M12.8320542,1.53248472 C12.8347374,1.62730816 12.8280461,1.71365409 12.7992641,1.80000001 C12.7992641,1.87500001 12.7992641,1.95000001 12.7992641,2.02500001 C13.0242641,1.87500001 13.2492641,1.80000001 13.4742641,1.80000001 C14.2992641,1.80000001 14.7492641,2.40000001 15.0492641,2.77500001 C15.0492641,2.85000001 15.1242641,2.85000001 15.1242641,2.92500001 C15.1992641,3.00000001 15.3492641,3.00000001 15.4242641,3.07500001 C16.0992641,3.30000001 17.2242641,3.60000002 17.3742641,4.65000002 C17.5242641,5.55000002 16.7742641,6.15000003 16.3242641,6.37500003 C16.2492641,6.45000003 16.1742641,6.45000003 16.1742641,6.52500003 C16.0242641,6.75000003 15.8742641,7.27500003 15.7242641,7.65000003 C15.3492641,8.77500004 14.8992641,9.90000004 13.9992641,10.425 C13.9242641,10.425 13.8492641,10.5 13.8492641,10.5 C14.1492641,10.725 14.4492641,10.875 14.8242641,11.025 C14.8992641,11.025 15.3492641,10.95 15.5742641,10.95 C16.3242641,10.875 16.9992641,10.8 17.5992641,11.025 C18.0492641,11.175 18.3492641,11.55 18.5742641,11.85 C18.6492641,11.925 18.7242641,12.0000001 18.7242641,12.0750001 C18.8742641,12.1500001 19.2492641,12.2250001 19.4742641,12.2250001 C20.2992641,12.3750001 21.2742641,12.5250001 21.7992641,13.2750001 C22.0105838,13.5439523 22.1382503,13.9851315 22.1986494,14.5077867 C22.3955736,13.7042005 22.5000001,12.8642953 22.5000001,12.0000001 C22.5000001,6.48105745 18.2420729,1.95660706 12.8320542,1.53248472 Z M12,24 C5.37258302,24 0,18.6274171 0,12 C0,5.37258302 5.37258302,0 12,0 C18.6274171,0 24,5.37258302 24,12 C24,18.6274171 18.6274171,24 12,24 Z" id="Combined-Shape"></path>
            </g>
        </g>
    </g>
</svg>