<?xml version="1.0" encoding="UTF-8"?>
<svg width="24px" height="24px" viewBox="0 0 24 24" version="1.1" xmlns="http://www.w3.org/2000/svg" xmlns:xlink="http://www.w3.org/1999/xlink">
    <title>Icon/Outline/globe-outline</title>
    <g id="Icon/Outline/globe-outline" stroke="none" stroke-width="1" fill="none" fill-rule="evenodd">
        <g id="Group" transform="translate(-0.000000, 0.000056)" fill="#474747" fill-rule="nonzero">
            <g id="globe">
                <path d="M21.0794013,17.2499192 L18.6824125,17.2499192 C19.0979106,15.8759256 19.3544094,14.3564328 19.4159091,12.7499403 L22.4623948,12.7499403 C22.3453953,14.3804327 21.8578976,15.9074255 21.0794013,17.2499192 L21.0794013,17.2499192 Z M16.5944223,21.4273996 C17.1929195,20.6669032 17.720917,19.7684074 18.149915,18.7499122 L20.0309062,18.7499122 C19.0904106,19.867407 17.9189161,20.7794027 16.5944223,21.4273996 L16.5944223,21.4273996 Z M3.96898141,18.7499122 L5.8499726,18.7499122 C6.28047059,19.7684074 6.80696812,20.6669032 7.40696531,21.4273996 C6.08097152,20.7794027 4.90947701,19.867407 3.96898141,18.7499122 L3.96898141,18.7499122 Z M4.58397853,12.7499403 C4.64547824,14.3564328 4.90197704,15.8759256 5.3174751,17.2499192 L2.92048632,17.2499192 C2.14198997,15.9074255 1.65449225,14.3804327 1.5374928,12.7499403 L4.58397853,12.7499403 Z M2.92048632,6.74996839 L5.3174751,6.74996839 C4.90197704,8.12396195 4.64547824,9.64345484 4.58397853,11.2499473 L1.5374928,11.2499473 C1.65449225,9.61945495 2.14198997,8.0924621 2.92048632,6.74996839 L2.92048632,6.74996839 Z M7.40696531,2.57248795 C6.80696812,3.33298439 6.28047059,4.23148018 5.8499726,5.24997541 L3.96898141,5.24997541 C4.90947701,4.13248065 6.08097152,3.22048492 7.40696531,2.57248795 L7.40696531,2.57248795 Z M20.0309062,5.24997541 L18.149915,5.24997541 C17.720917,4.23148018 17.1929195,3.33298439 16.5944223,2.57248795 C17.9189161,3.22048492 19.0904106,4.13248065 20.0309062,5.24997541 L20.0309062,5.24997541 Z M12.7499403,11.2499473 L12.7499403,6.74996839 L17.1089199,6.74996839 C17.5619178,8.09996207 17.8499164,9.62845491 17.9174161,11.2499473 L12.7499403,11.2499473 Z M12.7499403,22.4023951 L12.7499403,18.7499122 L16.5044227,18.7499122 C15.5624271,20.701403 14.2319333,22.0543967 12.7499403,22.4023951 L12.7499403,22.4023951 Z M11.2499473,18.7499122 L11.2499473,22.4023951 C9.76795425,22.0543967 8.43896048,20.701403 7.4954649,18.7499122 L11.2499473,18.7499122 Z M11.2499473,1.59749252 L11.2499473,5.24997541 L7.4954649,5.24997541 C8.43896048,3.29848455 9.76795425,1.94549089 11.2499473,1.59749252 L11.2499473,1.59749252 Z M12.7499403,1.59749252 C14.2319333,1.94549089 15.5624271,3.29848455 16.5044227,5.24997541 L12.7499403,5.24997541 L12.7499403,1.59749252 Z M6.89096773,6.74996839 L11.2499473,6.74996839 L11.2499473,11.2499473 L6.08247151,11.2499473 C6.15147119,9.62845491 6.43796985,8.09996207 6.89096773,6.74996839 L6.89096773,6.74996839 Z M6.08247151,12.7499403 L11.2499473,12.7499403 L11.2499473,17.2499192 L6.89096773,17.2499192 C6.43796985,15.8999255 6.15147119,14.3714327 6.08247151,12.7499403 L6.08247151,12.7499403 Z M17.1089199,17.2499192 L12.7499403,17.2499192 L12.7499403,12.7499403 L17.9174161,12.7499403 C17.8499164,14.3714327 17.5619178,15.8999255 17.1089199,17.2499192 L17.1089199,17.2499192 Z M19.4159091,11.2499473 C19.3544094,9.64345484 19.0979106,8.12396195 18.6824125,6.74996839 L21.0794013,6.74996839 C21.8578976,8.0924621 22.3453953,9.61945495 22.4623948,11.2499473 L19.4159091,11.2499473 Z M11.9999438,0 C5.37297484,0 -2.62179186e-16,5.37297484 -2.62179186e-16,11.9999438 C-2.62179186e-16,18.6269128 5.37297484,23.9998876 11.9999438,23.9998876 C18.6269128,23.9998876 23.9998876,18.6269128 23.9998876,11.9999438 C23.9998876,5.37297484 18.6269128,0 11.9999438,0 L11.9999438,0 Z" id="Fill-1"></path>
            </g>
        </g>
    </g>
</svg>