<?xml version="1.0" encoding="UTF-8"?>
<svg width="24px" height="24px" viewBox="0 0 24 24" version="1.1" xmlns="http://www.w3.org/2000/svg" xmlns:xlink="http://www.w3.org/1999/xlink">
    <title>Icon/Outline/governance-outline</title>
    <g id="Icon/Outline/governance-outline" stroke="none" stroke-width="1" fill="none" fill-rule="evenodd">
        <g id="Group" transform="translate(-0.000000, 0.750000)" fill="#474747" fill-rule="nonzero">
            <g id="governance-outline">
                <path d="M23.9900042,11.452076 L19.5985007,2.90856891 L12.7047064,2.90856891 L12.7047064,0 L11.3286131,0 L11.3286131,2.90856891 L4.39816745,2.90856891 L0,11.452076 L0,12.1411219 C0,14.7848437 2.15559696,16.9280036 4.81466058,16.9280036 C7.47372419,16.9280036 9.62932114,14.7848437 9.62932114,12.1411219 L9.62932114,11.452076 L5.96418161,4.28997351 L11.3286131,4.28997351 L11.3286131,21.1219082 L6.23740111,21.1219082 L6.23740111,22.5 L17.7825907,22.5 L17.7825907,21.1219082 L12.7047064,21.1219082 L12.7047064,4.28997351 L18.0358185,4.28997351 L14.370679,11.4553887 L14.370679,12.1411219 C14.370679,14.7848437 16.5262759,16.9280036 19.1853395,16.9280036 C21.8444031,16.9280036 24,14.7848437 24,12.1411219 L23.9900042,11.452076 Z M4.81466058,15.546599 C3.19066585,15.5444589 1.79049651,14.4108795 1.45939192,12.8301679 L8.16992921,12.8301679 C7.83998741,14.4115822 6.43911187,15.5457334 4.81466058,15.546599 Z M1.57267806,11.452076 L4.82132447,5.12146645 L8.06663891,11.4487633 L1.57267806,11.452076 Z M19.1720117,5.12146645 L22.4239901,11.452076 L15.9200334,11.452076 L19.1720117,5.12146645 Z M19.1720117,15.5532244 C17.5475605,15.5523588 16.1466849,14.4182076 15.8167431,12.8367934 L22.5306123,12.8367934 C22.1967719,14.4148716 20.7973071,15.5451171 19.1753437,15.546599 L19.1720117,15.5532244 Z" id="Shape"></path>
            </g>
        </g>
    </g>
</svg>