<?xml version="1.0" encoding="UTF-8"?>
<svg width="24px" height="24px" viewBox="0 0 24 24" version="1.1" xmlns="http://www.w3.org/2000/svg" xmlns:xlink="http://www.w3.org/1999/xlink">
    <title>Icon/Outline/grid-view-outline</title>
    <g id="Icon/Outline/grid-view-outline" stroke="none" stroke-width="1" fill="none" fill-rule="evenodd">
        <g id="Group" transform="translate(-0.000000, -0.000000)" fill="#474747" fill-rule="nonzero">
            <g id="grid-view">
                <path d="M0,10.5 L0,0 L10.5,0 L10.5,10.5 L0,10.5 Z M1.50000001,9.00000001 L9.00000001,9.00000001 L9.00000001,1.50000001 L1.50000001,1.50000001 L1.50000001,9.00000001 Z M13.5000001,10.5 L13.5000001,0 L24.0000001,0 L24.0000001,10.5 L13.5000001,10.5 Z M15.0000001,9.00000001 L22.5000001,9.00000001 L22.5000001,1.50000001 L15.0000001,1.50000001 L15.0000001,9.00000001 Z M0,24.0000001 L0,13.5000001 L10.5,13.5000001 L10.5,24.0000001 L0,24.0000001 Z M1.50000001,22.5000001 L9.00000001,22.5000001 L9.00000001,15.0000001 L1.50000001,15.0000001 L1.50000001,22.5000001 Z M13.5000001,24.0000001 L13.5000001,13.5000001 L24.0000001,13.5000001 L24.0000001,24.0000001 L13.5000001,24.0000001 Z M15.0000001,22.5000001 L22.5000001,22.5000001 L22.5000001,15.0000001 L15.0000001,15.0000001 L15.0000001,22.5000001 Z" id="Combined-Shape"></path>
            </g>
        </g>
    </g>
</svg>