<svg width="24" height="24" viewBox="0 0 24 24" fill="none" xmlns="http://www.w3.org/2000/svg">
<g clip-path="url(#clip0_15805_64129)">
<path d="M22 7.33333H16.6667V2C16.6667 0.896667 15.77 0 14.6667 0H0V14.6667C0 15.77 0.893333 16.6667 2 16.6667H7.33333V22C7.33333 23.1033 8.22667 24 9.33333 24H22C23.1033 24 24 23.1033 24 22V9.33333C24 8.23 23.1033 7.33333 22 7.33333ZM2 15.1667C1.72333 15.1667 1.5 14.9433 1.5 14.6667V1.5H14.6667C14.9433 1.5 15.1667 1.72333 15.1667 2V7.33333H7.33333V15.1667H2ZM8.83333 8.83333H15.1667V14.6667C15.1667 14.9433 14.9433 15.1667 14.6667 15.1667H8.83333V8.83333ZM22.5 22C22.5 22.2767 22.2767 22.5 22 22.5H9.33333C9.05667 22.5 8.83333 22.2767 8.83333 22V16.6667H14.6667C15.77 16.6667 16.6667 15.77 16.6667 14.6667V8.83333H22C22.2767 8.83333 22.5 9.05667 22.5 9.33333V22Z" fill="black"/>
</g>
<defs>
<clipPath id="clip0_15805_64129">
<rect width="24" height="24" fill="white"/>
</clipPath>
</defs>
</svg>
