<?xml version="1.0" encoding="UTF-8"?>
<svg width="24px" height="24px" viewBox="0 0 24 24" version="1.1" xmlns="http://www.w3.org/2000/svg" xmlns:xlink="http://www.w3.org/1999/xlink">
    <title>Icon/Outline/growth-outline</title>
    <g id="Icon/Outline/growth-outline" stroke="none" stroke-width="1" fill="none" fill-rule="evenodd">
        <g id="Group" transform="translate(-0.000000, -0.000000)" fill="#474747" fill-rule="nonzero">
            <g id="growth-outline" transform="translate(0.750000, 0.000000)">
                <path d="M11.3774739,22.5 L11.3774739,20.9866667 C12.0607352,21.2513261 12.7878202,21.3825535 13.5198599,21.3733334 C15.0133173,21.3439064 16.4776016,20.9516663 17.7880755,20.2300001 C20.4039718,18.8266667 22.1291388,16.4533334 22.092715,14.3266667 L22.092715,13.9500001 L21.7847677,13.7333334 C20.0596007,12.5066668 17.1490021,12.6266668 14.523172,14.0333334 C13.2982094,14.6786708 12.2306415,15.5894201 11.3973414,16.7000001 L11.3973414,13.1333334 C13.0728397,12.0300001 14.1688671,9.53666674 14.1622445,6.75333336 C14.1622445,3.77000002 12.8807865,1.12333334 10.9900563,0.170000001 L10.6589302,0 L10.3278042,0.170000001 C8.44369653,1.13333334 7.18210608,3.78666668 7.19203983,6.77000003 C7.19203983,9.51333334 8.27813351,11.97 9.91720774,13.1033334 L9.91720774,14.4666667 C9.30116321,13.4914768 8.51606066,12.6356559 7.59932493,11.94 C5.23839576,10.14 2.37415487,9.55333339 0.476802233,10.4866667 L0.145676114,10.6533333 L0.0794508963,11.0233334 C-0.347701793,13.1166667 0.976802665,15.7333334 3.34766564,17.5366667 C4.96024982,18.7700001 6.8046223,19.4300001 8.41720646,19.4300001 C8.91615259,19.4326114 9.41272489,19.3607182 9.89071766,19.2166667 L9.89071766,22.5 L0.533093671,22.5 L0.533093671,24 L22.5,24 L22.5,22.5 L11.3774739,22.5 Z M15.2152226,15.3500001 C17.1423796,14.3166667 19.2748317,14.0933334 20.5894024,14.7533334 C20.4006605,16.2166667 19.0264871,17.8766668 17.1026444,18.9100001 C15.1788017,19.9433334 13.0297933,20.1666668 11.7152226,19.5000001 C11.9039644,18.0433334 13.2748266,16.3833334 15.2152226,15.3500001 Z M4.25826245,16.3500001 C2.51985035,15.0166667 1.42382292,13.1666668 1.46686931,11.6833334 C2.87084404,11.2400001 4.94038225,11.8 6.67879435,13.1300001 C8.41720646,14.4600001 9.51323389,16.3133334 9.47018749,17.7966667 C8.05627901,18.2366668 5.98342951,17.6733334 4.24501741,16.3466668 L4.25826245,16.3500001 Z M8.64899471,6.76666669 C8.64899471,4.57000002 9.44700866,2.56666668 10.6357514,1.70666668 C11.8344279,2.56333335 12.6489947,4.56000002 12.6523197,6.7566667 C12.6556207,8.95333339 11.8542955,10.9566667 10.6655528,11.8166667 C9.46687624,10.9633334 8.65561728,8.96333336 8.64899471,6.76666669 Z" id="Shape"></path>
            </g>
        </g>
    </g>
</svg>