<?xml version="1.0" encoding="UTF-8"?>
<svg width="24px" height="24px" viewBox="0 0 24 24" version="1.1" xmlns="http://www.w3.org/2000/svg" xmlns:xlink="http://www.w3.org/1999/xlink">
    <title>Icon/Outline/grow-revenue-outline</title>
    <g id="Icon/Outline/grow-revenue-outline" stroke="none" stroke-width="1" fill="none" fill-rule="evenodd">
        <g id="Group" transform="translate(-0.000000, -0.000000)" fill="#474747" fill-rule="nonzero">
            <g id="grow-revenue-outline">
                <path d="M3.82520549,14.2553425 L3.00000001,13.2295891 L17.580822,1.39397261 L13.3989042,1.42027398 C13.0176007,1.42027398 12.7084932,1.11116646 12.7084932,0.729863017 C12.7084932,0.348559571 13.0176007,0.0394520549 13.3989042,0.0394520549 L19.9347946,2.73011267e-23 L20.0005481,6.54575345 C20.0005481,6.92705689 19.6914405,7.23616442 19.3101371,7.23616442 C18.9288336,7.23616442 18.6197261,6.92705689 18.6197261,6.54575345 L18.580274,2.36383562 L3.82520549,14.2553425 Z M15,9.00000004 L24,9.00000004 L24,24 L0,24 L0,18 L7.5,18 L7.5,12.7500001 L15,12.7500001 L15,9.00000004 Z M1.50000001,19.5000001 L1.50000001,22.5000001 L7.50000001,22.5000001 L7.50000001,19.5000001 L1.50000001,19.5000001 Z M9.00000004,22.5000001 L15,22.5000001 L15,14.2500001 L9.00000004,14.2500001 L9.00000004,22.5000001 Z M22.5000001,22.5 L22.5000001,10.5 L16.5000001,10.5 L16.5000001,22.5 L22.5000001,22.5 Z" id="Combined-Shape"></path>
            </g>
        </g>
    </g>
</svg>