<?xml version="1.0" encoding="UTF-8"?>
<svg width="24px" height="24px" viewBox="0 0 24 24" version="1.1" xmlns="http://www.w3.org/2000/svg" xmlns:xlink="http://www.w3.org/1999/xlink">
    <title>Icon/Outline/hand-outline</title>
    <g id="Icon/Outline/hand-outline" stroke="none" stroke-width="1" fill="none" fill-rule="evenodd">
        <g id="Group" transform="translate(3.000000, 0.000000)" fill="#474747" fill-rule="nonzero">
            <g id="Outline">
                <path d="M0.45884012,13.7734855 C1.14549657,14.7734706 1.94881795,15.9667862 2.65880738,17.0301037 L2.99213576,17.5300963 C3.33243996,18.0578555 3.64292146,18.6042585 3.92212192,19.1667386 C4.58877866,20.4667192 5.30543467,21.8133659 6.67541428,22.7033526 C7.90758908,23.5259574 9.35068067,23.9761279 10.8320191,24 L11.5920078,24 C13.6552525,23.98497 15.6067699,23.0604386 16.9252618,21.4733709 C18.3319075,19.7600631 18.3319075,17.6667609 18.3319075,15.8434547 L18.3319075,5.05361526 C18.2680993,3.97389846 17.3701812,3.13310726 16.2886046,3.1403104 L16.1652731,3.1403104 C15.7957046,3.13936347 15.4340252,3.24717176 15.1252885,3.45030579 C15.1053644,2.40870999 14.2570976,1.57376683 13.215317,1.57033376 L13.1319849,1.57033376 C12.7140723,1.57263225 12.3064786,1.70036818 11.9620023,1.93699497 L11.9620023,1.91366199 C11.8979579,0.828746353 10.9920757,-0.0140030794 9.90536622,0.000176317013 L9.83203398,0.000176317013 C9.01400234,-0.000622653276 8.28617195,0.51944768 8.02206091,1.29367121 C7.69053514,1.05006351 7.29014796,0.918157534 6.87874459,0.917010152 L6.78541264,0.917010152 C6.27681856,0.915238037 5.78844758,1.1160352 5.42819016,1.47504172 C5.06793275,1.83404824 4.86543813,2.32171784 4.86544121,2.83031501 L4.86544121,2.83031501 L4.86544121,11.8301811 L4.26545014,10.8968616 C3.90674722,10.4182958 3.37250349,10.1019657 2.78041499,10.0175603 C2.18832648,9.93315487 1.58697132,10.0875991 1.10883045,10.4468683 L1.10883045,10.4468683 L0.895500289,10.606866 C0.417594661,10.9688226 0.103087693,11.5058347 0.0211940249,12.0997201 C-0.0606996427,12.6936054 0.0967311711,13.2956953 0.45884012,13.7734855 Z M17.0185937,15.8334549 C17.0185937,17.5300963 17.0185937,19.2867421 15.8952771,20.6433833 C14.8234248,21.9330362 13.2388451,22.686321 11.5620082,22.7033526 L10.8320191,22.7033526 C9.60108556,22.6853049 8.40126624,22.3139047 7.37540386,21.6333685 C6.28875337,20.9300457 5.708762,19.7900626 5.06543824,18.5800807 C4.76290187,17.9753744 4.42912276,17.3868106 4.06545312,16.8167736 L3.73212474,16.316781 C3.01880203,15.2467969 2.20881408,14.0334816 1.50215793,13.0168301 C1.34025573,12.8159356 1.2650635,12.5588156 1.293213,12.3023424 C1.3213625,12.0458691 1.45053387,11.8111793 1.6521557,11.6501838 L1.66882211,11.6501838 L1.88215227,11.4901862 C2.29971489,11.1780345 2.88958739,11.2532432 3.21546577,11.6601836 L4.54877926,13.8201515 C4.72238915,14.2069001 5.15443252,14.4065989 5.56150658,14.2882537 C5.96858063,14.1699084 6.22621918,13.7697041 6.16542187,13.3501585 L6.16542187,2.8336483 C6.16542187,2.66744844 6.23144451,2.50805569 6.34896556,2.39053464 C6.4664866,2.27301359 6.62587935,2.20699096 6.79207921,2.20699096 L6.88541116,2.20699096 C7.22628653,2.21424526 7.49881254,2.49269576 7.49873536,2.8336483 L7.49873536,11.3901876 C7.49873536,11.8964411 7.9091349,12.3068407 8.41538839,12.3068407 C8.62270743,12.3117311 8.82287339,12.2309412 8.96871349,12.0835107 C9.13253767,11.9016326 9.21553645,11.6610564 9.19871007,11.4168539 L9.19871007,1.91366199 C9.19871007,1.56756869 9.47927411,1.28700465 9.82536741,1.28700465 L9.92536592,1.28700465 C10.298845,1.27716549 10.6221067,1.54488882 10.6820213,1.91366199 L10.6820213,11.3901876 C10.6820213,11.8964411 11.0924209,12.3068407 11.5986744,12.3068407 C11.810227,12.3134433 12.0151693,12.2326719 12.1653326,12.0835107 C12.3307327,11.9027331 12.4129273,11.6609842 12.3919959,11.4168539 L12.3919959,3.50030504 C12.4532506,3.13230101 12.7756782,2.86526842 13.1486513,2.8736477 L13.2453165,2.8736477 C13.575698,2.89477828 13.8326495,3.1692492 13.8319745,3.50030504 L13.8319745,11.3901876 C13.8036776,11.6432026 13.8863467,11.8960726 14.0586377,12.0835107 C14.2052784,12.2317968 14.4068293,12.3126586 14.6152961,12.3068407 C15.1215496,12.3068407 15.5319492,11.8964411 15.5319492,11.3901876 L15.5319492,5.05694855 C15.5310463,4.88901008 15.5975894,4.72773684 15.7166545,4.60929843 C15.8357196,4.49086003 15.9973417,4.42516889 16.1652731,4.42695792 L16.2619383,4.42695792 C16.6349113,4.41857864 16.957339,4.68561123 17.0185937,5.05361526 L17.0185937,15.8334549 Z" id="Shape"></path>
            </g>
        </g>
    </g>
</svg>