<?xml version="1.0" encoding="UTF-8"?>
<svg width="24px" height="24px" viewBox="0 0 24 24" version="1.1" xmlns="http://www.w3.org/2000/svg" xmlns:xlink="http://www.w3.org/1999/xlink">
    <title>Icon/Outline/hand-wave-outline</title>
    <g id="Icon/Outline/hand-wave-outline" stroke="none" stroke-width="1" fill="none" fill-rule="evenodd">
        <g id="Icon" transform="translate(-2.000000, -2.000000)" fill="#474747" fill-rule="nonzero">
            <g id="hand-outline">
                <path d="M5.85521916,15.6589482 C6.49752918,16.5943512 7.24896953,17.7105987 7.91310562,18.7052438 L8.2249066,19.1729453 C8.54323289,19.6666202 8.83366252,20.1777347 9.09483133,20.7038881 C9.71843328,21.9199119 10.3888054,23.1795878 11.6703074,24.0120964 C12.8229045,24.7815748 14.1727967,25.2026719 15.5584656,25.2250023 L16.2693718,25.2250023 C18.1993657,25.2109429 20.024848,24.3461207 21.2581875,22.8615508 C22.5739876,21.2588938 22.5739876,19.3007837 22.5739876,17.5952323 L22.5739876,7.50223464 C22.5143004,6.49224934 21.6743726,5.70575908 20.6626476,5.71249703 L20.5472813,5.71249703 C20.2015807,5.71161125 19.8632597,5.81245694 19.5744622,6.00247194 C19.5558248,5.02814567 18.7623418,4.24712576 17.7878426,4.24391442 L17.7098924,4.24391442 C17.3189699,4.24606446 16.9376999,4.3655508 16.6154709,4.58689549 L16.6154709,4.56506943 C16.5555627,3.55022105 15.7081852,2.76189903 14.6916589,2.77516268 L14.6230627,2.77516268 C13.8578621,2.77441531 13.1770373,3.26089786 12.9299834,3.98511961 C12.6198686,3.75724486 12.2453396,3.63385778 11.860506,3.6327845 L11.7732017,3.6327845 C11.2974543,3.63112683 10.8406238,3.81895588 10.5036329,4.15477663 C10.1666421,4.49059738 9.97722521,4.94677175 9.97722809,5.42252212 L9.97722809,5.42252212 L9.97722809,13.8411485 L9.41598633,12.9681058 C9.08044957,12.5204472 8.58070898,12.2245468 8.02685942,12.1455925 C7.47300985,12.0666382 6.9104921,12.211108 6.46323107,12.5471745 L6.46323107,12.5471745 L6.26367844,12.6968389 C5.81663746,13.0354193 5.52244234,13.5377494 5.44583763,14.0932798 C5.36923291,14.6488102 5.51649635,15.2120152 5.85521916,15.6589482 Z M21.3454918,17.5858783 C21.3454918,19.1729453 21.3454918,20.8161364 20.2947225,22.0851664 C19.2920938,23.2915295 17.8098512,23.9961648 16.2413098,24.0120964 L15.5584656,24.0120964 C14.4070296,23.9952143 13.2846984,23.6478003 12.3250895,23.0112153 C11.3086183,22.3533152 10.7660846,21.2869559 10.1643087,20.1551183 C9.88131107,19.589466 9.56908846,19.0389134 9.22890575,18.5056912 L8.91710477,18.0379897 C8.24985067,17.0371086 7.4921743,15.902153 6.83115622,14.95116 C6.67971018,14.7632399 6.6093741,14.5227255 6.63570562,14.2828162 C6.66203714,14.0429068 6.78286621,13.8233739 6.97146666,13.672776 L6.98705671,13.672776 L7.18660934,13.5231115 C7.57720444,13.2311196 8.12898112,13.3014711 8.43381325,13.68213 L9.68101717,15.7026004 C9.84341478,16.0643715 10.2475554,16.2511732 10.6283394,16.1404711 C11.0091233,16.0297689 11.2501227,15.6554111 11.1932519,15.262961 L11.1932519,5.42564013 C11.1932519,5.27017397 11.2550106,5.12107531 11.3649418,5.01114414 C11.4748729,4.90121297 11.6239716,4.83945429 11.7794377,4.83945429 L11.866742,4.83945429 C12.1856026,4.84624008 12.440528,5.10670737 12.4404558,5.42564013 L12.4404558,13.4295712 C12.4404558,13.9031293 12.8243505,14.2870239 13.2979085,14.2870239 C13.4918382,14.2915985 13.6790768,14.2160263 13.8154981,14.0781173 C13.968742,13.9079855 14.0463805,13.6829465 14.0306408,13.4545153 L14.0306408,4.56506943 C14.0306408,4.24132793 14.2930852,3.97888359 14.6168267,3.97888359 L14.7103669,3.97888359 C15.0597256,3.96967987 15.36211,4.22011279 15.4181552,4.56506943 L15.4181552,13.4295712 C15.4181552,13.9031293 15.8020498,14.2870239 16.2756079,14.2870239 C16.4734977,14.2932001 16.6652042,14.2176452 16.8056695,14.0781173 C16.9603876,13.9090149 17.0372738,13.6828789 17.0176942,13.4545153 L17.0176942,6.04924208 C17.0749929,5.7050049 17.3765971,5.45521812 17.7254824,5.46305624 L17.8159047,5.46305624 C18.1249491,5.48282214 18.3653059,5.73956687 18.3646744,6.04924208 L18.3646744,13.4295712 C18.3382051,13.6662457 18.4155351,13.9027845 18.5766991,14.0781173 C18.7138692,14.2168266 18.9024034,14.2924661 19.0974067,14.2870239 C19.5709648,14.2870239 19.9548594,13.9031293 19.9548594,13.4295712 L19.9548594,7.50535265 C19.9540149,7.34826018 20.0162604,7.19740247 20.1276359,7.08661319 C20.2390114,6.97582391 20.3901954,6.91437531 20.5472813,6.9160488 L20.6377035,6.9160488 C20.9865888,6.90821068 21.2881931,7.15799746 21.3454918,7.50223464 L21.3454918,17.5858783 Z" id="Shape" transform="translate(14.000000, 14.000000) scale(-1, 1) rotate(-315.000000) translate(-14.000000, -14.000000) "></path>
            </g>
        </g>
    </g>
</svg>