<svg width="24" height="24" viewBox="0 0 24 24" fill="none" xmlns="http://www.w3.org/2000/svg">
<g clip-path="url(#clip0_15805_64135)">
<path fill-rule="evenodd" clip-rule="evenodd" d="M24 7.99333V1.49667C24 0.67 23.33 0 22.5 0H1.5C0.67 0 0 0.67 0 1.49667V7.99333H24ZM22.5 1.49667V6.55H1.5V1.49667H22.5ZM20.8567 24H19.5233V22.67H20.8567V24ZM18.1167 24H16.7833V22.67H18.1167V24ZM15.3767 24H14.0433V22.67H15.3767V24ZM12.6367 24H11.3033V22.67H12.6367V24ZM9.89667 24H8.56333V22.67H9.89667V24ZM7.15667 24H5.82333V22.67H7.15667V24ZM4.41667 24H3.08333V22.67H4.41667V24ZM23.92 23.95H22.5867V22.64H23.92V23.95ZM23.92 21.2367H22.5867V19.9267H23.92V21.2367ZM23.92 18.5233H22.5867V17.2133H23.92V18.5233ZM23.92 15.81H22.5867V14.5H23.92V15.81ZM23.92 13.0967H22.5867V11.7867H23.92V13.0967ZM23.92 10.3833H22.5867V9.07333H23.92V10.3833ZM1.35333 23.95H0.02V22.64H1.35333V23.95ZM1.35333 21.2367H0.02V19.9267H1.35333V21.2367ZM1.35333 18.5233H0.02V17.2133H1.35333V18.5233ZM1.35333 15.81H0.02V14.5H1.35333V15.81ZM1.35333 13.0967H0.02V11.7867H1.35333V13.0967ZM1.35333 10.3833H0.02V9.07333H1.35333V10.3833Z" fill="black"/>
</g>
<defs>
<clipPath id="clip0_15805_64135">
<rect width="24" height="24" fill="white"/>
</clipPath>
</defs>
</svg>
