<?xml version="1.0" encoding="UTF-8"?>
<svg width="24px" height="24px" viewBox="0 0 24 24" version="1.1" xmlns="http://www.w3.org/2000/svg" xmlns:xlink="http://www.w3.org/1999/xlink">
    <title>Icon/Outline/help-question-outline</title>
    <g id="Icon/Outline/help-question-outline" stroke="none" stroke-width="1" fill="none" fill-rule="evenodd">
        <g id="Group" transform="translate(-0.000000, -0.000000)" fill="#474747" fill-rule="nonzero">
            <g id="help-question">
                <path d="M12,0 C18.6270001,0 24,5.37300002 24,12 C24,18.6270001 18.6270001,24 12,24 C5.37300002,24 0,18.6270001 0,12 C0,5.37300002 5.37300002,0 12,0 Z M12,22.5 C17.7900001,22.5 22.5,17.7900001 22.5,12 C22.5,6.21000003 17.7900001,1.50000001 12,1.50000001 C6.21000003,1.50000001 1.50000001,6.21000003 1.50000001,12 C1.50000001,17.7900001 6.21000003,22.5 12,22.5 Z M11.8370001,17.2520001 L11.8370001,15.5030001 L13.2230001,15.5030001 L13.2230001,17.2520001 L11.8370001,17.2520001 Z M14.5963,6.84370003 C14.9293,7.13070003 15.1943001,7.47970003 15.3843001,7.88170001 C15.5773,8.29070006 15.6743001,8.75470001 15.6743001,9.26270006 C15.6743001,9.91270002 15.5233,10.4817 15.2253001,10.9537 C14.9703001,11.3597001 14.6443,11.7527001 14.2563001,12.1197001 C13.9843,12.3917001 13.7543001,12.6167001 13.5823,12.7797001 C13.4493001,12.9057001 13.3843,13.0007001 13.3523001,13.0597 C13.3313001,13.1007001 13.2943,13.1967001 13.2743001,13.3617001 C13.2513001,13.5627001 13.2343,13.8577 13.2263001,14.2437001 L11.7263001,14.2107001 C11.7363,13.7607001 11.7563001,13.4187001 11.7853,13.1797 C11.8253001,12.8647 11.9063001,12.5897001 12.0273001,12.3567001 C12.1553001,12.1197001 12.3303001,11.8987 12.5523001,11.6897001 C12.7163001,11.5337001 12.9353001,11.3197 13.2103,11.0437 C13.5213001,10.7487 13.7673001,10.4547 13.9563001,10.1547 C14.1013,9.92470002 14.1743001,9.62470002 14.1743001,9.26270006 C14.1743001,8.97770006 14.1253,8.72770001 14.0283001,8.52170006 C13.9273,8.30970003 13.7933001,8.13170006 13.6183,7.98070001 C13.4383,7.82670003 13.2313,7.70970003 12.9873001,7.62670001 C12.4043001,7.42770003 11.6473,7.46770003 11.1403,7.67370003 C10.8533001,7.78970006 10.6193001,7.94370003 10.4233,8.14570001 C10.2323001,8.34370001 10.0903,8.58370001 9.98830002,8.87670004 C9.88130007,9.19070006 9.82630001,9.54970001 9.82630001,9.94370007 L8.32630001,9.94370007 C8.32630001,9.38470001 8.40830006,8.86170004 8.57030006,8.38870001 C8.74330001,7.88770001 9.00430001,7.45670003 9.34530004,7.10370003 C9.68530002,6.75170003 10.0993,6.47670003 10.5763,6.28370003 C11.4083001,5.94470003 12.5453001,5.88970002 13.4723001,6.20770002 C13.8953001,6.35270003 14.2723,6.56570003 14.5963,6.84370003 Z" id="Combined-Shape"></path>
            </g>
        </g>
    </g>
</svg>