<svg width="24" height="24" viewBox="0 0 24 24" fill="none" xmlns="http://www.w3.org/2000/svg">
<g clip-path="url(#clip0_15805_64137)">
<path d="M0 12.6467V21.8933L0.596667 22.0733C2.45667 22.6267 5.46667 23.54 6.29667 23.8267C6.51 23.9867 6.82667 24 7.29667 24H7.88333C8.50333 24 9.33333 23.9767 10.16 23.96C11.8267 23.9267 13.4667 23.8867 13.4667 23.8867H13.59L23 20.71C23.7033 20.47 24.1167 19.7467 23.97 19.0167C23.8667 18.44 23.72 17.87 23.5333 17.3133L23.5067 17.2433L23.45 17.19C23.26 17.0233 23.1767 16.95 21.8933 17.0467C21.7167 16.9567 21.5233 16.8667 21.3067 16.7667C20.2933 16.3033 18.91 15.6667 18.7233 14.4933V12.0533L21.67 10.0867C21.7333 10.0467 21.79 9.99667 21.84 9.94667C22.56 9.2 22.36 7.97667 22.2433 7.24333L21.2167 0.853333C21.1367 0.36 20.7133 0 20.21 0H15.7633C15.7633 0 15.7467 0 15.74 0H15.5767V0.0133333C14.8767 0.0833333 14.73 0.58 14.7033 0.743333L13.6733 7.13333C13.5567 7.86667 13.36 9.09333 14.0733 9.83333C14.1267 9.88667 14.1833 9.93667 14.2467 9.97667L17.19 11.9433V14.3833C17.0633 15.1767 16.3667 15.8567 15.6867 16.37C15.55 16.3067 15.4033 16.26 15.2467 16.2433L8.45 15.4567L7.4 14.64L0 12.6467ZM20.29 4.54667H15.61L16.1 1.5H19.8L20.29 4.54667ZM18.0433 10.7033L15.1333 8.76C15.0267 8.59667 15.0367 8.13 15.1567 7.37L15.37 6.04667H20.5333L20.7633 7.48C20.8867 8.23667 20.8933 8.70333 20.7867 8.86667L18.0433 10.7V10.7033ZM19.1167 17.3067C18.41 17.38 17.5767 17.4633 16.5967 17.5667C17.0667 17.21 17.55 16.78 17.9367 16.27C18.27 16.6867 18.6867 17.0267 19.1167 17.3067ZM1.66667 14.8233L6.66667 16.16L7.80667 17.0667L14.83 17.8833V18.9567H7.35333V20.6267H14.87C15.66 20.62 16.33 20.0433 16.4567 19.2633C18.44 19.07 21 18.7967 22.2133 18.69C22.24 18.8267 22.27 18.9833 22.31 19.1733L13.31 22.2067C11.07 22.26 7.64333 22.3333 7.00667 22.32C6.39 22.0533 5.09 21.6533 1.67333 20.65L1.66667 14.8233Z" fill="black"/>
</g>
<defs>
<clipPath id="clip0_15805_64137">
<rect width="23.9994" height="24" fill="white"/>
</clipPath>
</defs>
</svg>
