<svg width="24" height="24" viewBox="0 0 24 24" fill="none" xmlns="http://www.w3.org/2000/svg">
<g clip-path="url(#clip0_15805_64145)">
<path d="M11.18 20.49H3.51333V12.0033H0L12 0L24 12.0033H20.4833V12.0867C20.08 11.4733 19.5733 11.2733 18.9833 10.8367V10.5033H20.3767L12 2.12L3.62 10.5H5.01333V18.99H9.93333C10.2667 19.5533 10.6867 20.06 11.1767 20.49H11.18ZM22.52 24L23.5033 23.02L19.28 18.82L19.5667 18.34C20.0233 17.5733 20.2633 16.7033 20.2633 15.82C20.2633 13.0833 18.0267 10.8567 15.28 10.8533C12.5333 10.8567 10.2967 13.0867 10.2967 15.82C10.2967 18.5533 12.5333 20.7867 15.28 20.79C16.16 20.79 17.03 20.55 17.7967 20.0967L18.1633 19.8867L18.23 19.87L18.3067 19.83L18.71 20.21L22.52 24ZM15.2933 12.2567C17.2733 12.2567 18.8833 13.86 18.8833 15.8233C18.8833 16.74 18.53 17.6133 17.8833 18.2867L17.78 18.39C17.1 19.0367 16.21 19.3933 15.2733 19.3933C13.2933 19.3933 11.6833 17.79 11.6833 15.8267C11.6833 13.8633 13.2933 12.26 15.2767 12.26H15.2933V12.2567Z" fill="black"/>
</g>
<defs>
<clipPath id="clip0_15805_64145">
<rect width="24" height="24" fill="white"/>
</clipPath>
</defs>
</svg>
