<?xml version="1.0" encoding="UTF-8"?>
<svg width="24px" height="24px" viewBox="0 0 24 24" version="1.1" xmlns="http://www.w3.org/2000/svg" xmlns:xlink="http://www.w3.org/1999/xlink">
    <title>Icon/Outline/horizontal-more-outline</title>
    <g id="Icon/Outline/horizontal-more-outline" stroke="none" stroke-width="1" fill="none" fill-rule="evenodd">
        <g id="Group" transform="translate(0.000000, 10.000000)" fill="#474747" fill-rule="nonzero">
            <g id="horizontal-more">
                <path d="M22.2857143,0 C21.3386667,0 20.5714286,0.767238171 20.5714286,1.71428571 C20.5714286,2.66133326 21.3386667,3.42857143 22.2857143,3.42857143 C23.2327618,3.42857143 24,2.66133326 24,1.71428571 C24,0.767238171 23.2327618,0 22.2857143,0 Z M1.71428571,0 C0.767238103,0 0,0.767718 0,1.71535783 C0,2.66299766 0.767238103,3.43071566 1.71428571,3.43071566 C2.66133333,3.43071566 3.42857143,2.66299766 3.42857143,1.71535783 C3.42857143,0.767718 2.66133333,0 1.71428571,0 Z M12,0 C11.0529525,0 10.2857143,0.767238171 10.2857143,1.71428571 C10.2857143,2.66133326 11.0529525,3.42857143 12,3.42857143 C12.9470475,3.42857143 13.7142857,2.66133326 13.7142857,1.71428571 C13.7142857,0.767238171 12.9470475,0 12,0 Z" id="Combined-Shape"></path>
            </g>
        </g>
    </g>
</svg>