<?xml version="1.0" encoding="UTF-8"?>
<svg width="24px" height="24px" viewBox="0 0 24 24" version="1.1" xmlns="http://www.w3.org/2000/svg" xmlns:xlink="http://www.w3.org/1999/xlink">
    <title>Icon/Outline/hospital-outline</title>
    <g id="Icon/Outline/hospital-outline" stroke="none" stroke-width="1" fill="none" fill-rule="evenodd">
        <g id="Group" transform="translate(-0.000000, -0.000000)" fill="#474747" fill-rule="nonzero">
            <g id="hospital" transform="translate(0.000000, 0.000000)">
                <path d="M24,22.5 L24,24 L22.5,24 L18.5625001,24 L15.7500001,24 L14.2500001,24 L9.75000004,24 L8.25000003,24 L5.43750002,24 L1.5,24 L0,24 L0,22.5 L1.5,22.5 L1.5,7.5 C1.5,6.67200003 2.17200001,6 3,6 L3.93750002,6 L3.93750002,1.5 C3.93750002,0.672000003 4.60950002,0 5.43750002,0 L18.5625001,0 C19.3905001,0 20.0625001,0.672000003 20.0625001,1.5 L20.0625001,6 L21,6 C21.8280001,6 22.5,6.67200003 22.5,7.5 L22.5,22.5 L24,22.5 Z M3.00000001,7.50000001 L3.00000001,22.5 L8.25000003,22.5 L8.25000003,14.2500001 L15.7500001,14.2500001 L15.7500001,22.5 L21,22.5 L21,7.50000001 L18.7500001,7.50000001 L18.7500001,1.50000001 L5.25000002,1.50000001 L5.25000002,7.50000001 L3.00000001,7.50000001 Z M9.75000004,22.5000001 L14.25,22.5000001 L14.25,15.7500001 L9.75000004,15.7500001 L9.75000004,22.5000001 Z M11.25,11.99985 L11.25,8.24985003 L7.50000003,8.24985003 L7.50000003,6.74985003 L11.25,6.74985003 L11.25,2.99985001 L12.7500001,2.99985001 L12.7500001,6.74985003 L16.5,6.74985003 L16.5,8.24985003 L12.7500001,8.24985003 L12.7500001,11.99985 L11.25,11.99985 Z" id="Combined-Shape"></path>
            </g>
        </g>
    </g>
</svg>