<?xml version="1.0" encoding="UTF-8"?>
<svg width="24px" height="24px" viewBox="0 0 24 24" version="1.1" xmlns="http://www.w3.org/2000/svg" xmlns:xlink="http://www.w3.org/1999/xlink">
    <title>Icon/Outline/hub-outline</title>
    <g id="Icon/Outline/hub-outline" stroke="none" stroke-width="1" fill="none" fill-rule="evenodd">
        <g id="Group" transform="translate(1.000000, 0.000000)" fill="#474747" fill-rule="nonzero">
            <g id="Outline">
                <path d="M19.3445989,14.9251847 C18.8283029,14.927271 18.3328375,15.1290389 17.961966,15.4882328 L14.4170952,13.4426025 C14.8063059,12.4518091 14.7810962,11.3461809 14.3471307,10.374157 L17.9086597,8.33518996 C18.5597012,9.02412502 19.6082871,9.15359651 20.4073501,8.64370941 C21.2064131,8.13382232 21.5307427,7.12828479 21.1801998,6.24759974 C20.8296568,5.36691469 19.9030394,4.85929711 18.97215,5.03799059 C18.0412606,5.21668407 17.3684638,6.03132508 17.3689331,6.97921025 C17.3696423,7.13286617 17.387522,7.28596152 17.4222394,7.43564568 L13.8107357,9.50459753 C13.1657718,8.70215956 12.2361179,8.179453 11.2153839,8.04533681 L11.2153839,3.89077488 C12.1749246,3.63409419 12.795541,2.70590255 12.6660968,1.72109422 C12.5366525,0.736285893 11.6972554,0 10.7039763,0 C9.71069727,0 8.8713001,0.736285893 8.74185585,1.72109422 C8.6124116,2.70590255 9.23302807,3.63409419 10.1925687,3.89077488 L10.1925687,8.04533681 C9.17063603,8.17863415 8.2396528,8.70141704 7.59388525,9.50459753 L3.94573344,7.39566594 C3.97935214,7.25375981 3.9961261,7.10838546 3.99570813,6.96255202 C4.00007717,6.00816877 3.32376351,5.18615103 2.38641953,5.00656053 C1.44907555,4.82697002 0.51682117,5.34079401 0.168119896,6.2292049 C-0.180581379,7.11761579 0.153269706,8.12838618 0.962518675,8.6343334 C1.77176764,9.14028063 2.82666183,8.99776198 3.47263979,8.29521022 L7.06415362,10.3674937 C6.62458436,11.3380392 6.59813006,12.4455126 6.99085742,13.4359392 L3.41600181,15.5048911 C3.04718169,15.1323747 2.54425027,14.9235201 2.02004235,14.9251847 C1.16029864,14.9161822 0.391107005,15.4579412 0.109991205,16.2704769 C-0.171124595,17.0830125 0.0988167389,17.984284 0.780307589,18.5085077 C1.46179844,19.0327315 2.40215731,19.0624601 3.1154,18.5823298 C3.82864269,18.1021994 4.154974,17.2197786 3.92574357,16.3911088 L7.48060931,14.3321518 C8.12348846,15.2201473 9.10510254,15.8026038 10.1925687,15.9413366 L10.1925687,20.1092251 C9.23302807,20.3659058 8.6124116,21.2940974 8.74185585,22.2789058 C8.8713001,23.2637141 9.71069727,24 10.7039763,24 C11.6972554,24 12.5366525,23.2637141 12.6660968,22.2789058 C12.795541,21.2940974 12.1749246,20.3659058 11.2153839,20.1092251 L11.2153839,15.9479999 C12.3039419,15.8076368 13.2857388,15.2226595 13.9273433,14.3321518 L17.4422293,16.3611239 C17.3941228,16.5347455 17.3694719,16.7140251 17.3689331,16.8941872 C17.3648855,17.6958171 17.844839,18.4207048 18.5844201,18.7299727 C19.3240012,19.0392406 20.1771002,18.8717905 20.744902,18.3059037 C21.3127039,17.7400169 21.4830351,16.8874884 21.1762675,16.1468667 C20.8694999,15.406245 20.1462379,14.9238454 19.3445989,14.9251847 Z M19.3445989,5.92973651 C19.7626321,5.92839342 20.1402535,6.17917274 20.3011631,6.56499872 C20.4620728,6.9508247 20.3745342,7.39560008 20.0794164,7.69167291 C19.7842987,7.98774573 19.3398084,8.07672093 18.9534646,7.91705873 C18.5671207,7.75739653 18.3151204,7.38058743 18.3151204,6.96255202 C18.3151204,6.39344531 18.7754951,5.93157775 19.3445989,5.92973651 Z M2.02004235,8.00203083 C1.60200912,8.00337392 1.22438778,7.7525946 1.06347813,7.36676862 C0.90256848,6.98094264 0.99010707,6.53616725 1.28522482,6.24009443 C1.58034257,5.94402161 2.02483279,5.8550464 2.41117666,6.0147086 C2.79752052,6.1743708 3.04952081,6.55117991 3.04952081,6.96921531 C3.04952081,7.53832202 2.5891461,8.00018959 2.02004235,8.00203083 Z M2.02004235,17.9403293 C1.60200912,17.9416724 1.22438778,17.6908931 1.06347813,17.3050671 C0.90256848,16.9192411 0.99010707,16.4744657 1.28522482,16.1783929 C1.58034257,15.8823201 2.02483279,15.7933449 2.41117666,15.9530071 C2.79752052,16.1126693 3.04952081,16.4894784 3.04952081,16.9075138 C3.04586877,17.4740183 2.58655576,17.9318449 2.02004235,17.9336606 L2.02004235,17.9403293 Z M9.68282697,1.98174202 C9.67879867,1.56191751 9.92931165,1.18143214 10.316554,1.01922166 C10.7037963,0.857011177 11.1506972,0.945359433 11.447087,1.24271776 C11.7434767,1.54007609 11.8303664,1.9872629 11.6668933,2.37397392 C11.5034203,2.76068494 11.1221196,3.0099552 10.7023105,3.00455718 C10.1409866,2.99733954 9.68821319,2.54308644 9.68282697,1.98174202 L9.68282697,1.98174202 Z M11.7451155,22.018258 C11.7451155,22.4359907 11.4934794,22.8125907 11.1075447,22.9724501 C10.7216101,23.1323095 10.27738,23.0439466 9.9819984,22.748565 C9.68661678,22.4531834 9.59825394,22.0089534 9.75811332,21.6230187 C9.9179727,21.237084 10.2945727,20.9854479 10.7123054,20.9854479 C11.2788036,20.9909304 11.7351471,21.4517333 11.7351206,22.018258 L11.7451155,22.018258 Z M13.1777231,12.7196354 C13.0766548,13.0527645 12.9076269,13.3613255 12.6813079,13.625843 C12.3060792,14.0830435 11.7849136,14.3971546 11.205389,14.5153923 C10.8681581,14.5864987 10.5198047,14.5864987 10.1825738,14.5153923 C9.60264673,14.398188 9.08115782,14.0838821 8.70665485,13.625843 C8.48748105,13.359576 8.32532315,13.0511358 8.23022954,12.7196354 C8.06884085,12.1847412 8.09112492,11.6112198 8.29353081,11.0904608 C8.60688849,10.2658876 9.31903556,9.65798783 10.1825738,9.47794437 C11.4168157,9.23174304 12.6482134,9.9136612 13.094432,11.0904608 C13.2968378,11.6112198 13.3191219,12.1847412 13.1577332,12.7196354 L13.1777231,12.7196354 Z M19.3445989,17.9336606 C18.7741936,17.9336606 18.3117888,17.4712558 18.3117888,16.9008505 C18.3117888,16.3304452 18.7741936,15.8680404 19.3445989,15.8680404 C19.9150042,15.8680404 20.377409,16.3304452 20.377409,16.9008505 C20.377409,17.4712558 19.9150042,17.9336606 19.3445989,17.9336606 Z" id="Shape"></path>
            </g>
        </g>
    </g>
</svg>