<?xml version="1.0" encoding="UTF-8"?>
<svg width="24px" height="24px" viewBox="0 0 24 24" version="1.1" xmlns="http://www.w3.org/2000/svg" xmlns:xlink="http://www.w3.org/1999/xlink">
    <title>Icon/Outline/image-outline</title>
    <g id="Icon/Outline/image-outline" stroke="none" stroke-width="1" fill="none" fill-rule="evenodd">
        <g id="Group" transform="translate(-0.000000, 3.000150)" fill="#474747" fill-rule="nonzero">
            <g id="image">
                <path d="M22.5,0 C23.3280001,0 24,0.672000003 24,1.5 L24,16.5 C24,17.0505001 23.6880001,17.5125001 23.2455001,17.7735001 C23.0220001,17.9040001 22.7775001,18 22.5,18 L1.5,18 C1.23000001,18 0.990000004,17.9085001 0.769500003,17.7840001 C0.318000001,17.5245001 0,17.0580001 0,16.5 L0,1.5 C0,0.672000003 0.672000003,0 1.5,0 L22.5,0 Z M14.2500001,6.66300003 L22.2135001,16.5 L22.5,16.5 L22.5,1.50000001 L1.50000001,1.50000001 L1.50000001,16.5 L1.80600001,16.5 L7.50000001,9.44250004 L9.75000004,12.2205001 L14.2500001,6.66300003 Z M3.73350002,16.5000001 L20.2845001,16.5000001 L14.2500001,9.04650004 L10.9155,13.1640001 L9.75000004,14.6040001 L8.58450004,13.1640001 L7.50150003,11.8275 L3.73350002,16.5000001 Z" id="Fill-1"></path>
                <path d="M6.00000002,7.49985002 C5.17350002,7.49985002 4.50000002,6.82635003 4.50000002,5.99985002 C4.50000002,5.17335002 5.17350002,4.49985002 6.00000002,4.49985002 C6.82650003,4.49985002 7.50000002,5.17335002 7.50000002,5.99985002 C7.50000002,6.82635003 6.82650003,7.49985002 6.00000002,7.49985002 M6.00000001,2.99985001 C4.34250002,2.99985001 3.00000001,4.34235002 3.00000001,5.99985001 C3.00000001,7.65735003 4.34250002,8.99985001 6.00000001,8.99985001 C7.65750003,8.99985001 9.00000001,7.65735003 9.00000001,5.99985001 C9.00000001,4.34235002 7.65750003,2.99985001 6.00000001,2.99985001" id="Fill-4"></path>
            </g>
        </g>
    </g>
</svg>