<?xml version="1.0" encoding="UTF-8"?>
<svg width="24px" height="24px" viewBox="0 0 24 24" version="1.1" xmlns="http://www.w3.org/2000/svg" xmlns:xlink="http://www.w3.org/1999/xlink">
    <title>Icon/Outline/immersive-technology-outline</title>
    <g id="Icon/Outline/immersive-technology-outline" stroke="none" stroke-width="1" fill="none" fill-rule="evenodd">
        <g id="Group" transform="translate(0.000000, 1.000000)" fill="#474747" fill-rule="nonzero">
            <g id="Outline">
                <path d="M23.5466512,2.00137754 C16.076381,-0.708913267 7.88424144,-0.665180882 0.443333042,2.12471079 C0.177208312,2.22556025 0.000873313536,2.48011904 0,2.76471037 L0,11.4313713 C0,11.7178096 0.176163595,11.9747545 0.443333042,12.0780376 C1.37333243,12.4280374 3.44333107,12.9147037 4.93333009,13.2713701 L5.90332945,13.50137 C5.99197439,13.5430391 6.08871239,13.5647033 6.1866626,13.5647033 C6.56589788,13.5647033 6.87332881,13.2572723 6.87332881,12.8780371 L6.87332881,10.2113721 C7.62666165,10.0847056 8.3699945,9.98470562 9.08999402,9.91470567 C9.2715195,9.89624098 9.43823198,9.8062882 9.55332705,9.66470583 C9.67009355,9.52452131 9.7243063,9.34260744 9.70332695,9.16137283 C9.69016138,8.97855302 9.60230528,8.80921857 9.46041603,8.6931847 C9.31852679,8.57715083 9.13512281,8.52465481 8.95332745,8.5480399 C8.28666122,8.61470652 7.57666169,8.71137313 6.87332881,8.82470639 L6.87332881,4.40804262 C6.87149417,4.03010974 6.56459994,3.72470529 6.1866626,3.72470974 L6.10332932,3.72470974 L6.07666267,3.72470974 C4.83790523,3.58911966 3.6188118,3.31174794 2.44333173,2.89804362 C8.71887828,0.891893203 15.460057,0.867451775 21.7499857,2.82804366 C20.5155782,3.28122589 19.2305571,3.58233277 17.9233215,3.72470974 L17.8966549,3.72470974 L17.8133216,3.72470974 C17.4353843,3.72470529 17.1284901,4.03010974 17.1266554,4.40804262 L17.1266554,8.90470633 C16.4599892,8.79803974 15.7933229,8.70470646 15.1266567,8.64137317 C14.9436604,8.62383777 14.7613174,8.6807752 14.6208142,8.79932474 C14.480311,8.91787428 14.3935004,9.08803532 14.3799905,9.27137276 C14.3546574,9.6437903 14.6287153,9.96941823 15,10.0080389 C15.6899897,10.0747056 16.4066559,10.1713722 17.1299887,10.2913721 L17.1299887,12.8713704 C17.1299887,13.2506057 17.4374197,13.5580366 17.816655,13.5580366 C17.9146052,13.5579963 18.0113432,13.5363725 18.0999881,13.4947033 L19.0666541,13.2713701 C20.5699865,12.9147037 22.6266518,12.4280374 23.5566512,12.0780376 C23.82496,11.9743178 24.0013552,11.7156933 24,11.428038 L24,2.64804378 C24.0003467,2.35846247 23.8190014,2.09977881 23.5466512,2.00137754 Z M18.4999878,5.03470888 C19.9183785,4.8609269 21.3072756,4.49884962 22.6299851,3.95804292 L22.6299851,10.9380383 C21.6899857,11.2713714 19.7433204,11.7580378 18.4999878,12.0680376 L18.4999878,5.03470888 Z M5.49999638,12.0780376 C4.25666387,11.7680378 2.3333318,11.2713714 1.37333243,10.9380429 L1.37333243,3.93804293 C2.69428675,4.48463009 4.08196686,4.85340776 5.49999638,5.03470888 L5.49999638,12.0780376 Z" id="Shape"></path>
                <path d="M11.9999921,12.9813719 C13.450965,12.9827188 14.7598156,12.1097116 15.3160135,10.7695743 C15.8722114,9.42943699 15.566175,7.88620231 14.5406589,6.85973224 C13.5151428,5.83326216 11.9721933,5.52579095 10.6315394,6.08074256 C9.29088557,6.63569417 8.41666113,7.94373251 8.41666113,9.39470601 C8.42032332,11.3727467 10.0219557,12.9758689 11.9999921,12.9813719 L11.9999921,12.9813719 Z M11.9999921,7.17137414 C13.2279044,7.17137414 14.223324,8.16679372 14.223324,9.39470601 C14.223324,10.6226183 13.2279044,11.6180379 11.9999921,11.6180379 C10.7720798,11.6180379 9.77666024,10.6226183 9.77666024,9.39470601 C9.77666024,8.80504174 10.0109035,8.23952858 10.4278591,7.82257297 C10.8448147,7.40561736 11.4103278,7.17137414 11.9999921,7.17137414 Z" id="Shape"></path>
                <path d="M20.27332,18.5713666 L20.27332,18.5713666 C18.7599877,16.6047013 15.5133231,15.3147021 11.9999921,15.3147021 C8.48666109,15.3147021 5.24666322,16.6047013 3.73333088,18.5713666 C3.35798526,19.0702467 3.29704766,19.7384895 3.57596604,20.2970324 C3.85488442,20.8555752 4.42568465,21.2083485 5.04999668,21.2080347 L18.9599875,21.2080347 C19.5877158,21.2092434 20.1610658,20.8520321 20.4366532,20.2880322 C20.7165837,19.7319614 20.6530938,19.0646694 20.27332,18.5713666 Z M19.2133207,19.6846992 C19.1696541,19.7849169 19.0692448,19.8483333 18.9599875,19.8446991 L5.04999668,19.8446991 C4.94028075,19.8469892 4.83958211,19.784216 4.79333018,19.6846992 C4.74142539,19.5945934 4.75071701,19.4817666 4.8166635,19.4013661 C6.079996,17.7347005 8.90332748,16.6780346 12.0033254,16.6780346 C15.1033234,16.6780346 17.9266549,17.7480339 19.1899874,19.4013661 C19.2559339,19.4817666 19.2652255,19.5945934 19.2133207,19.6846992 L19.2133207,19.6846992 Z" id="Shape"></path>
            </g>
        </g>
    </g>
</svg>