<?xml version="1.0" encoding="UTF-8"?>
<svg width="24px" height="24px" viewBox="0 0 24 24" version="1.1" xmlns="http://www.w3.org/2000/svg" xmlns:xlink="http://www.w3.org/1999/xlink">
    <title>Icon/Outline/infinity-outline</title>
    <g id="Icon/Outline/infinity-outline" stroke="none" stroke-width="1" fill="none" fill-rule="evenodd">
        <g id="Group" transform="translate(-0.000000, 6.000000)" fill="#474747" fill-rule="nonzero">
            <g id="Infinity-outline">
                <path d="M18.386903,11.2550831 C16.7783119,11.2542148 15.2469892,10.5649983 14.1796776,9.36149823 L14.1596749,9.33816183 L12.0060556,6.6478045 L9.83243358,9.36149823 C8.28511533,11.1123147 5.81600527,11.7232683 3.63077595,10.896029 C1.44554662,10.0687897 0,7.9759057 0,5.63933724 C0,3.30276879 1.44554662,1.20988479 3.63077595,0.382645503 C5.81600527,-0.44459379 8.28511533,0.166359849 9.83243358,1.91717626 L9.85243623,1.94051266 L11.9960543,4.60753359 L14.1596749,1.90717493 C15.8700444,-0.0358649162 18.686269,-0.559529558 20.9807666,0.638822816 C23.2752642,1.83717518 24.454628,4.44762474 23.8372677,6.96151292 C23.2199074,9.47540111 20.9654856,11.2425821 18.3769017,11.2417479 L18.386903,11.2550831 Z M15.1398051,8.53138803 C16.340253,9.88048368 18.2493225,10.3477212 19.9371337,9.70551611 C21.624945,9.06331098 22.7405474,7.44519835 22.7405474,5.63933724 C22.7405474,3.83347614 21.624945,2.21536358 19.9371337,1.57315838 C18.2493225,0.930953269 16.340253,1.39819082 15.1398051,2.74728654 L12.819497,5.63433662 L15.1398051,8.53138803 Z M5.62520818,1.28371277 C3.62566969,1.28439772 1.88402358,2.64789774 1.40351092,4.58884134 C0.922998266,6.52978495 1.82735891,8.54834763 3.59565363,9.48177588 C5.36394836,10.4152041 7.54081247,10.023125 8.87230608,8.53138803 L11.2059493,5.63433662 L8.89230873,2.74728654 C8.06505775,1.81143668 6.87425818,1.27800709 5.62520818,1.28371277 Z" id="Shape"></path>
            </g>
        </g>
    </g>
</svg>