<?xml version="1.0" encoding="UTF-8"?>
<svg width="24px" height="24px" viewBox="0 0 24 24" version="1.1" xmlns="http://www.w3.org/2000/svg" xmlns:xlink="http://www.w3.org/1999/xlink">
    <title>Icon/Outline/jewelry-outline</title>
    <g id="Icon/Outline/jewelry-outline" stroke="none" stroke-width="1" fill="none" fill-rule="evenodd">
        <g id="Group" transform="translate(0.000000, 2.000000)" fill="#474747" fill-rule="nonzero">
            <g id="Outline">
                <path d="M22.9266667,4.92333333 L17.6866667,0.333333333 L17.3,0 L6.70333333,0 L1.07666667,4.92333333 L0,5.82333333 L12.0233333,19.9366667 L23.0933333,6.89 L24,5.82333333 L22.9266667,4.92333333 Z M21.23,6.76666667 L13.6233333,15.7333333 L16.5666667,6.76666667 L21.23,6.76666667 Z M16.6466667,5.26666667 L17.39,2.04666667 L21,5.26666667 L16.6466667,5.26666667 Z M12.8666667,1.51 L15.9766667,1.51 L15.3566667,4.22333333 L12.8666667,1.51 Z M15,6.76666667 L12,15.91 L9,6.76666667 L15,6.76666667 Z M9.70333333,5.26666667 L12,2.75 L14.2966667,5.26666667 L9.70333333,5.26666667 Z M8,1.51 L11.11,1.51 L8.61666667,4.22333333 L8,1.51 Z M10.31,15.61 L2.77333333,6.76666667 L7.40333333,6.76666667 L10.31,15.61 Z M2.97666667,5.27666667 L6.57666667,2.07666667 L7.33333333,5.26666667 L2.97666667,5.27666667 Z" id="Shape"></path>
            </g>
        </g>
    </g>
</svg>