<svg width="24" height="24" viewBox="0 0 24 24" fill="none" xmlns="http://www.w3.org/2000/svg">
<path d="M12.7051 4.75999C12.3384 2.08999 9.9651 0.0133264 7.22843 0.00332642C5.72176 0.0199931 4.32843 0.583326 3.30176 1.58999C2.26843 2.60333 1.67176 4.01333 1.6651 5.45999C1.65843 6.92666 2.23176 8.30666 3.28176 9.34999C4.32843 10.3933 5.7251 10.97 7.2051 10.9733C7.2351 10.9733 7.2651 10.9733 7.2951 10.9733C8.70843 10.9733 10.1051 10.3967 11.1351 9.38333C11.9784 8.55666 12.5284 7.45666 12.6951 6.27333H19.1251L19.1151 8.57333L20.6518 8.57999L20.6618 6.27999H22.3184V4.78666L12.6951 4.75333L12.7051 4.75999ZM7.23176 9.45666H7.21843C6.14176 9.45333 5.13176 9.03666 4.3751 8.28333C3.61843 7.52999 3.2051 6.52999 3.20843 5.46333C3.1951 4.43333 3.6251 3.41666 4.38843 2.66666C5.14176 1.92999 6.1451 1.52333 7.2151 1.52333H7.22843C8.3051 1.52666 9.3151 1.94333 10.0718 2.69666C10.8284 3.44999 11.2418 4.44999 11.2384 5.51333C11.2118 7.68999 9.4151 9.45999 7.23176 9.45999V9.45666ZM22.3351 21.6167L22.3251 17.8167L12.7018 17.7833C12.3351 15.1133 9.96176 13.0367 7.22843 13.0267C5.72176 13.0433 4.32843 13.6067 3.30176 14.6133C2.26843 15.6267 1.67176 17.0367 1.6651 18.4833C1.65843 19.95 2.23176 21.33 3.28176 22.3733C4.32843 23.4167 5.7251 23.9933 7.2051 23.9967C7.2351 23.9967 7.2651 23.9967 7.2951 23.9967C8.70843 23.9967 10.1051 23.42 11.1351 22.4067C11.9784 21.58 12.5284 20.48 12.6951 19.2967H16.7984L16.7884 21.5967L18.3251 21.6033L18.3351 19.3033H20.8018L20.7918 21.6033H22.3318L22.3351 21.6167ZM7.23176 22.4833H7.21843C6.14176 22.48 5.13176 22.0633 4.3751 21.31C3.61843 20.5567 3.2051 19.5567 3.20843 18.49C3.1951 17.46 3.6251 16.4433 4.38843 15.6933C5.14176 14.9567 6.1451 14.55 7.2151 14.55H7.22843C8.3051 14.5533 9.3151 14.97 10.0718 15.7233C10.8284 16.4767 11.2418 17.4767 11.2384 18.54C11.2118 20.7167 9.4151 22.4867 7.23176 22.4867V22.4833Z" fill="black"/>
</svg>
