<?xml version="1.0" encoding="UTF-8"?>
<svg width="24px" height="24px" viewBox="0 0 24 24" version="1.1" xmlns="http://www.w3.org/2000/svg" xmlns:xlink="http://www.w3.org/1999/xlink">
    <title>Icon/Outline/keyboard-outline</title>
    <g id="Icon/Outline/keyboard-outline" stroke="none" stroke-width="1" fill="none" fill-rule="evenodd">
        <g id="Group" transform="translate(0.000000, 4.000000)" fill="#474747" fill-rule="nonzero">
            <g id="Outline">
                <path d="M24.0000037,8.8817842e-16 L24.0000037,13.8333248 C24.0008802,14.2314207 23.8431301,14.6134673 23.5616331,14.8949643 C23.280136,15.1764614 22.8980894,15.3342115 22.4999935,15.3333276 L22.4999935,15.3333276 L1.50000369,15.3333276 C1.10191056,15.3342115 0.719863982,15.1764614 0.438366946,14.8949643 C0.156869911,14.6134673 -0.000880199569,14.2314207 3.6944869e-06,13.8333248 L3.6944869e-06,13.8333248 L3.6944869e-06,8.8817842e-16 L24.0000037,8.8817842e-16 Z M22.4999935,1.49999907 L1.50000649,1.49999907 L1.50000649,13.8333248 L22.4999935,13.8333248 L22.4999935,1.49999907 Z M15.7699977,10.6266601 L15.7699977,12.1266601 L8.23000233,12.1266601 L8.23000233,10.6266601 L15.7699977,10.6266601 Z M14.4999991,6.66666254 C15.0522829,6.66666254 15.4999991,7.11437752 15.4999991,7.66666254 C15.4999991,8.21894633 15.0522829,8.66666254 14.4999991,8.66666254 C13.947714,8.66666254 13.4999991,8.21894633 13.4999991,7.66666254 C13.4999991,7.11437752 13.947714,6.66666254 14.4999991,6.66666254 Z M4.50000526,6.66666254 C5.05228905,6.66666254 5.50000526,7.11437752 5.50000526,7.66666254 C5.50000526,8.21894633 5.05228905,8.66666254 4.50000526,8.66666254 C3.94772023,8.66666254 3.50000526,8.21894633 3.50000526,7.66666254 C3.50000526,7.11437752 3.94772023,6.66666254 4.50000526,6.66666254 Z M9.50000216,6.66666254 C10.052286,6.66666254 10.5000022,7.11437752 10.5000022,7.66666254 C10.5000022,8.21894633 10.052286,8.66666254 9.50000216,8.66666254 C8.94771714,8.66666254 8.50000216,8.21894633 8.50000216,7.66666254 C8.50000216,7.11437752 8.94771714,6.66666254 9.50000216,6.66666254 Z M19.499996,6.66666254 C20.0522798,6.66666254 20.499996,7.11437752 20.499996,7.66666254 C20.499996,8.21894633 20.0522798,8.66666254 19.499996,8.66666254 C18.947711,8.66666254 18.499996,8.21894633 18.499996,7.66666254 C18.499996,7.11437752 18.947711,6.66666254 19.499996,6.66666254 Z M14.4999991,2.98999815 C15.0522829,2.98999815 15.4999991,3.43771312 15.4999991,3.98999815 C15.4999991,4.54228194 15.0522829,4.98999815 14.4999991,4.98999815 C13.947714,4.98999815 13.4999991,4.54228194 13.4999991,3.98999815 C13.4999991,3.43771312 13.947714,2.98999815 14.4999991,2.98999815 Z M4.50000526,2.98999815 C5.05228905,2.98999815 5.50000526,3.43771312 5.50000526,3.98999815 C5.50000526,4.54228194 5.05228905,4.98999815 4.50000526,4.98999815 C3.94772023,4.98999815 3.50000526,4.54228194 3.50000526,3.98999815 C3.50000526,3.43771312 3.94772023,2.98999815 4.50000526,2.98999815 Z M9.50000216,2.98999815 C10.052286,2.98999815 10.5000022,3.43771312 10.5000022,3.98999815 C10.5000022,4.54228194 10.052286,4.98999815 9.50000216,4.98999815 C8.94771714,4.98999815 8.50000216,4.54228194 8.50000216,3.98999815 C8.50000216,3.43771312 8.94771714,2.98999815 9.50000216,2.98999815 Z M19.499996,2.98999815 C20.0522798,2.98999815 20.499996,3.43771312 20.499996,3.98999815 C20.499996,4.54228194 20.0522798,4.98999815 19.499996,4.98999815 C18.947711,4.98999815 18.499996,4.54228194 18.499996,3.98999815 C18.499996,3.43771312 18.947711,2.98999815 19.499996,2.98999815 Z" id="Combined-Shape"></path>
            </g>
        </g>
    </g>
</svg>