<?xml version="1.0" encoding="UTF-8"?><svg id="Outline" xmlns="http://www.w3.org/2000/svg" viewBox="0 0 72 72"><path d="m55.73,37.83c0,1.17-.93,2.13-2.09,2.13-1.16,0-2.1-.94-2.11-2.11l-.08-6.79-10.47,11.3c-.17.14-.36.23-.55.31l-.07.21-.44-.08c-.36.03-.72-.04-1.05-.2l-8.05-1.54-11.33,11.2c-.85.7-2.11.56-2.79-.31-.68-.86-.55-2.11.3-2.8l11.42-11.64.04.04c.58-.61,1.5-.81,2.29-.42l8.43,1.36,9.29-10.39-7.73.09c-1.16,0-2.1-.94-2.11-2.11,0-1.17.93-2.13,2.09-2.13l14.89-.12.12,14.03Z"/><path d="m60.75,4.5c2.49,0,4.5,2.02,4.5,4.5v58.5c0,2.48-2.01,4.5-4.5,4.5H11.25c-2.48,0-4.5-2.02-4.5-4.5V9c0-2.48,2.02-4.5,4.5-4.5h6.75v4.5h-6.75v58.5h49.5V9h-6.75v-4.5h6.75Zm-38.25,0V0h27v4.5h-27Z"/></svg>