<?xml version="1.0" encoding="UTF-8"?>
<svg width="24px" height="24px" viewBox="0 0 24 24" version="1.1" xmlns="http://www.w3.org/2000/svg" xmlns:xlink="http://www.w3.org/1999/xlink">
    <title>Icon/Outline/labs-outline</title>
    <g id="Icon/Outline/labs-outline" stroke="none" stroke-width="1" fill="none" fill-rule="evenodd">
        <g id="Group" transform="translate(0.000000, 2.000000)" fill="#474747" fill-rule="nonzero">
            <g id="Outline">
                <path d="M6.67148014,20.6780907 L6.63815607,20.6780907 C5.37184116,20.6081101 4.45542905,20.1748971 3.90891419,19.3817841 C3.04915301,18.1287988 3.51902249,16.5492376 3.57567342,16.3826172 C3.58475419,16.3540785 3.59589139,16.3262355 3.6089975,16.299307 L7.8678145,7.03521367 C7.8678145,6.3087488 7.8678145,3.36956524 7.8678145,2.85970687 C7.87246165,2.79106812 7.82534968,2.72967979 7.75784504,2.71641334 C7.42129847,2.69806452 7.10179335,2.56248117 6.85476257,2.33318646 C6.59170169,2.06871386 6.45149628,1.70611367 6.46820328,1.33346416 C6.47341662,0.97167552 6.62332728,0.627049347 6.88444419,0.376577486 C7.14556111,0.126105624 7.49612492,-0.00933964046 7.85781727,0.000501092292 L13.1730075,0.000501092292 C13.5850579,0.00230824165 13.9191567,0.334922106 13.9227992,0.746960409 L13.9561233,6.92191181 C14.3893363,7.86498318 16.7953346,13.086866 18.1416273,15.9760634 C18.1416273,16.0060551 18.1649542,16.0327144 18.1749514,16.062706 C18.6281588,17.4656497 18.5481811,18.6053331 17.9383505,19.4484322 C17.0552624,20.6614286 15.4123854,20.6780907 15.3357401,20.6780907 L6.67148014,20.6780907 Z M6.69147459,19.1785072 L15.3357401,19.1785072 C15.3357401,19.1785072 16.2921411,19.1518479 16.7220217,18.5453497 C17.1019161,18.0188293 16.9552902,17.1790626 16.7586781,16.5459051 C15.2757567,13.3634558 12.5498473,7.44176741 12.523188,7.38178407 C12.4799556,7.28400455 12.456186,7.17873924 12.4532074,7.07187016 L12.4232158,1.4800901 L8.63760067,1.4800901 C9.09408701,1.7691754 9.36978554,2.27273437 9.36739795,2.81305316 C9.36739795,3.40955413 9.36739795,7.0452109 9.36739795,7.19850165 C9.36441935,7.30537073 9.34064976,7.41063604 9.29741738,7.50841556 L5.00527631,16.8658163 C4.91530131,17.199057 4.79200222,18.0088321 5.15856706,18.5320201 C5.41516245,18.9185794 5.93501805,19.1351859 6.69813941,19.1785072 L6.69147459,19.1785072 Z M2.37933907,15.3295763 C2.26936962,15.2396013 2.28603166,14.8430448 2.28603166,14.729743 L2.28603166,6.67864605 L2.28603166,6.57200901 C2.2443509,6.364258 2.11078563,6.18657942 1.92279922,6.0888099 L1.86281588,6.05881823 L4.10219384,6.05881823 L4.10219384,11.7005844 L5.30186059,9.07464716 L5.30186059,5.46231725 L5.30186059,5.3523478 C5.24809725,5.05201351 4.97636283,4.84066452 4.67203555,4.86248387 L1.72285476,4.86248387 L1.33296307,4.86248387 C0.473201888,4.90247277 0,5.25570798 0,6.0054997 L0,6.14212842 C0.0414395559,6.70063605 0.503040276,7.13474331 1.06303804,7.14185072 L1.06303804,14.7364078 C1.06303804,15.3495708 1.22632602,16.3259662 1.81616218,16.5292431 M24,13.1235225 C23.9836571,11.1126906 22.8184194,9.28844621 21.0008331,8.42816008 L21.0008331,4.03937918 C21.0008331,3.62528065 20.6651399,3.28958746 20.2510414,3.28958746 L20.2510414,3.28958746 L20.2510414,3.28958746 L17.5851152,3.28958746 C16.7953346,3.28958746 15.9455707,3.70613842 15.9455707,4.62255052 C15.9475797,5.17185182 16.3089779,5.65506964 16.8353235,5.81222006 L16.8353235,8.44482211 C16.675368,8.51813508 16.5354068,8.59144805 16.4054429,8.66476102 L17.0386004,10.037713 C17.2844735,9.88156124 17.5486019,9.75621218 17.8250486,9.66448332 C18.1373425,9.56027083 18.3444873,9.26376956 18.334907,8.93468604 L18.334907,5.1757302 C18.334907,4.86248387 18.1282977,4.86914869 18.0549847,4.75584683 L19.5079145,4.77917368 L19.5079145,5.16240056 L19.5079145,5.16240056 L19.5079145,8.92802123 C19.5070926,9.24388836 19.7043146,9.5263956 20.0011108,9.63449165 C20.1044154,9.67114813 22.5004166,10.5375741 22.5004166,13.1235225 C22.5004166,15.179618 20.9108581,16.1226894 19.9977784,16.4759246 L20.6276034,17.8455441 C22.1271869,17.2190515 24,15.7594569 24,13.1235225 Z M15.1457928,15.8327699 L14.9325187,15.1662884 L6.93474035,15.1662884 L6.72146626,15.8327699 C6.50152735,16.4992514 6.22826993,17.1257441 6.42154957,17.5589571 C6.61877118,17.9917345 7.06336838,18.2571657 7.53790614,18.2254386 L14.3360178,18.2254386 C14.8096108,18.2567123 15.2530071,17.9912056 15.4490419,17.5589571 C15.645654,17.1257441 15.3723966,16.5125811 15.1524577,15.8327699" id="Shape"></path>
            </g>
        </g>
    </g>
</svg>