<?xml version="1.0" encoding="UTF-8"?>
<svg width="24px" height="24px" viewBox="0 0 24 24" version="1.1" xmlns="http://www.w3.org/2000/svg" xmlns:xlink="http://www.w3.org/1999/xlink">
    <title>Icon/Outline/leader-outline</title>
    <g id="Icon/Outline/leader-outline" stroke="none" stroke-width="1" fill="none" fill-rule="evenodd">
        <g id="Group" transform="translate(1.732157, -0.000000)" fill="#474747" fill-rule="nonzero">
            <g id="leader-outline">
                <path d="M10.2883544,13.1927186 C6.64753385,13.1872967 3.69741693,10.2371797 3.691995,6.59635932 C3.691995,2.95329066 6.64528564,0 10.2883544,0 C13.931423,0 16.8847137,2.95329066 16.8847137,6.59635932 C16.8847137,10.239428 13.931423,13.1927186 10.2883544,13.1927186 Z M10.2883544,1.47679686 C7.46164825,1.47860712 5.17060211,3.76965322 5.16879187,6.59635932 C5.16879187,9.42381557 7.46089802,11.7159218 10.2883544,11.7159218 C13.1158106,11.7159218 15.4079168,9.42381557 15.4079168,6.59635932 C15.4079168,3.76890305 13.1158106,1.47679686 10.2883544,1.47679686 Z M20.1336667,16.1368772 C20.4043853,16.2525295 20.5799876,16.5185345 20.5799876,16.812922 L20.5799876,23.2616017 C20.5799876,23.6694079 20.2493953,24.0000001 19.8415891,24.0000001 L0.738401275,24.0000001 C0.330595079,24.0000001 1.4181878e-06,23.6694079 1.4181878e-06,23.2616017 L1.4181878e-06,16.812922 C-0.000573358118,16.5193199 0.173608466,16.2535314 0.443041901,16.1368772 C6.23536735,13.5869414 14.3380595,13.5869414 20.1336667,16.1368772 Z M10.2883544,17.5250663 L9.5138564,20.1406377 L10.2325642,20.8823179 L11.0562887,20.1111017 L10.2883544,17.5250663 Z M19.1031907,22.5232033 L19.1031907,17.3019059 C16.9878609,16.4658438 14.7585336,15.9535963 12.4904225,15.782446 L11.1974048,16.2222034 L12.6577929,20.2062731 C12.7857026,20.5544768 12.6354189,20.943529 12.3066434,21.1153236 L10.20631,22.6971371 L8.23724754,21.1021965 C7.92368918,20.9238167 7.78492287,20.5449847 7.90907051,20.2062731 L9.37930382,16.2222034 L8.08628611,15.782446 C5.81817506,15.9535963 3.58884776,16.4658438 1.47351793,17.3019059 L1.47351793,22.5232033 L19.1031907,22.5232033 Z" id="Combined-Shape"></path>
            </g>
        </g>
    </g>
</svg>