<?xml version="1.0" encoding="UTF-8"?>
<svg width="24px" height="24px" viewBox="0 0 24 24" version="1.1" xmlns="http://www.w3.org/2000/svg" xmlns:xlink="http://www.w3.org/1999/xlink">
    <title>Icon/Outline/left-chevron-circle-outline</title>
    <g id="Icon/Outline/left-chevron-circle-outline" stroke="none" stroke-width="1" fill="none" fill-rule="evenodd">
        <g id="Group" transform="translate(-0.000000, -0.000000)" fill="#474747" fill-rule="nonzero">
            <g id="left-chevron-circle">
                <path d="M14.047,23.8130001 C14.587,23.7200001 15.118,23.6000001 15.6300001,23.4380001 C19.5660001,22.1900001 22.6110001,18.9640001 23.6250001,14.929 C23.8610001,13.9910001 23.9990001,13.015 24,12.004 L24,12 L24,11.9960001 C23.9990001,10.9850001 23.8610001,10.009 23.6250001,9.07100006 C22.4790001,4.51200002 18.7350001,0.996000004 14.0520001,0.188000001 C13.384,0.0730000003 12.7010001,0 12,0 C11.299,0 10.6160001,0.0730000003 9.94800004,0.188000001 C5.26400002,0.997000002 1.52000001,4.51300002 0.375000002,9.07200004 C0.139,10.011 0,10.9880001 0,12 C0,13.012 0.139,13.9890001 0.375000002,14.9280001 C1.38800001,18.9630001 4.43300002,22.1890001 8.37000003,23.4380001 C8.88200006,23.6000001 9.41300006,23.7200001 9.95300007,23.8130001 C10.6190001,23.9280001 11.301,24 12,24 C12.6990001,24 13.381,23.9280001 14.047,23.8130001 L14.047,23.8130001 Z M1.50000001,12 C1.50000001,6.21000003 6.21000003,1.50000001 12,1.50000001 C17.7900001,1.50000001 22.5,6.21000003 22.5,12 C22.5,17.7900001 17.7900001,22.5 12,22.5 C6.21000003,22.5 1.50000001,17.7900001 1.50000001,12 L1.50000001,12 Z M11.2266,12.0002001 L14.8946001,8.33320001 L13.8336001,7.27320003 L9.10560004,12.0002001 L13.8336001,16.7272 L14.8946001,15.6672001 L11.2266,12.0002001 L11.2266,12.0002001 Z" id="Combined-Shape"></path>
            </g>
        </g>
    </g>
</svg>