<svg width="24" height="24" viewBox="0 0 24 24" fill="none" xmlns="http://www.w3.org/2000/svg">
<g clip-path="url(#clip0_15805_64152)">
<path d="M23.6267 9.02C23.6267 9.02 23.6367 9.00667 23.64 8.99667L23.6167 8.98333C22.28 3.81667 17.5867 0 12 0C5.37333 0 0 5.37333 0 12C0 18.6267 5.37333 24 12 24C18.6267 24 24 18.6267 24 12C24 10.97 23.87 9.97333 23.6267 9.02ZM22 8.80333C20.8 10.7333 19.6967 12.1867 18.54 13.37C18.6067 10.83 18.6067 7.10667 16.1633 2.36333C18.9233 3.56 21.0733 5.91 22 8.80333ZM12.0667 17.75C10.3533 17.1 8.83333 16.2067 7.13 15.0167C6.82333 13.1667 6.83667 11.3367 7.01 9.15667C8.41 7.99333 9.95333 7.09 11.87 6.14C13.5667 6.82333 15.0933 7.76 16.83 9C17.13 10.8333 17.12 12.6467 16.9533 14.81C15.55 15.9267 13.9933 16.81 12.0667 17.7533V17.75ZM14.1667 1.72667C15.1833 3.66667 15.88 5.31 16.3333 6.84C13.3133 4.86 10.5733 3.75667 6.13667 3.29667C7.81333 2.16333 9.83 1.50333 12 1.50333C12.7433 1.50333 13.4667 1.58333 14.1633 1.73L14.1667 1.72667ZM4.5 4.66C6.63667 4.8 8.36333 5.06333 9.88333 5.47333C4.98333 8.06333 2.99667 11.0967 1.57 13.1933C1.52667 12.8 1.5 12.4033 1.5 12C1.5 9.14667 2.64667 6.55667 4.5 4.66ZM2.02667 15.2733C3.21 13.3367 4.29333 11.86 5.41667 10.66C5.33 16.5833 6.38 18.45 7.78333 21.61C5.07333 20.4167 2.96333 18.11 2.02667 15.2733ZM9.78333 22.26C8.77 20.32 8.07333 18.6767 7.62333 17.1467C10.6533 19.0733 13.4767 20.1167 18.1233 20.52C16.4 21.7633 14.2833 22.4967 12 22.4967C11.24 22.4967 10.4967 22.4133 9.78333 22.26ZM19.6667 19.16V19.1233C17.46 19.0033 15.68 18.7667 14.1233 18.3833C15.7233 17.5333 17.0933 16.6633 18.3667 15.5767H18.3967C18.3967 15.5767 18.3967 15.56 18.3967 15.55C19.8 14.3467 21.0867 12.8767 22.44 10.8767C22.48 11.2433 22.5 11.6167 22.5 11.9967C22.5 14.7633 21.4233 17.2833 19.6667 19.16Z" fill="black"/>
</g>
<defs>
<clipPath id="clip0_15805_64152">
<rect width="24" height="24" fill="white"/>
</clipPath>
</defs>
</svg>
