<?xml version="1.0" encoding="UTF-8"?>
<svg width="24px" height="24px" viewBox="0 0 24 24" version="1.1" xmlns="http://www.w3.org/2000/svg" xmlns:xlink="http://www.w3.org/1999/xlink">
    <title>Icon/Outline/library-reports-outline</title>
    <g id="Icon/Outline/library-reports-outline" stroke="none" stroke-width="1" fill="none" fill-rule="evenodd">
        <g id="Group" transform="translate(0.000000, 3.000000)" fill="#474747" fill-rule="nonzero">
            <g id="Outline">
                <path d="M12.72,0.49 L12.72,17.77 L6.74666667,17.77 L6.74666667,0.49 L12.72,0.49 Z M11.64,1.57 L7.82666667,1.57 L7.82666667,16.69 L11.64,16.69 L11.64,1.57 Z M11.1333333,14.3533333 L11.1333333,15.4333333 L8.33333333,15.4333333 L8.33333333,14.3533333 L11.1333333,14.3533333 Z M11.1333333,4.61333333 L11.1333333,5.69333333 L8.33333333,5.69333333 L8.33333333,4.61333333 L11.1333333,4.61333333 Z M11.1333333,2.89333333 L11.1333333,3.97333333 L8.33333333,3.97333333 L8.33333333,2.89333333 L11.1333333,2.89333333 Z M5.97333333,0.49 L5.97333333,17.77 L0,17.77 L0,0.49 L5.97333333,0.49 Z M4.89333333,1.57 L1.08,1.57 L1.08,16.69 L4.89333333,16.69 L4.89333333,1.57 Z M4.38666667,14.3533333 L4.38666667,15.4333333 L1.58666667,15.4333333 L1.58666667,14.3533333 L4.38666667,14.3533333 Z M4.38666667,4.37333333 L4.38666667,5.45333333 L1.58666667,5.45333333 L1.58666667,4.37333333 L4.38666667,4.37333333 Z M4.38666667,2.65333333 L4.38666667,3.73333333 L1.58666667,3.73333333 L1.58666667,2.65333333 L4.38666667,2.65333333 Z M18.41,0 L24,16.3333333 L18.35,18.2733333 L12.7433333,1.94 L18.41,0 Z M17.72,1.36 L14.1133333,2.60666667 L19.02,16.9 L22.6266667,15.6633333 L17.72,1.36 Z M21.4975925,13.60024 L21.8536584,14.6198561 L19.2102091,15.5429899 L18.8541432,14.5233738 L21.4975925,13.60024 Z M18.2072138,4.41837137 L18.5632797,5.43798752 L15.9198305,6.36112132 L15.5637646,5.34150518 L18.2072138,4.41837137 Z M17.7214968,2.78032846 L18.0775627,3.7999446 L15.4341135,4.72307841 L15.0780476,3.70346227 L17.7214968,2.78032846 Z" id="Combined-Shape"></path>
            </g>
        </g>
    </g>
</svg>