<?xml version="1.0" encoding="UTF-8"?>
<svg width="24px" height="24px" viewBox="0 0 24 24" version="1.1" xmlns="http://www.w3.org/2000/svg" xmlns:xlink="http://www.w3.org/1999/xlink">
    <title>Icon/Outline/library-outline</title>
    <g id="Icon/Outline/library-outline" stroke="none" stroke-width="1" fill="none" fill-rule="evenodd">
        <g id="Group" transform="translate(1.000000, 0.000000)" fill="#474747" fill-rule="nonzero">
            <g id="Outline">
                <path d="M3.75,8.25 L3.75,11.25 L3.75,11.3366667 C3.77393234,11.7508802 4.12911977,12.0672657 4.54333333,12.0433333 C4.9575469,12.019401 5.27393234,11.6642136 5.25,11.25 L5.25,8.16333333 C5.21322577,7.76048309 4.86359697,7.45938252 4.45974826,7.48276797 C4.05589954,7.50615341 3.74336243,7.84559767 3.75333333,8.25 M17.25,6.75 L17.25,9.75 L17.25,9.83666667 C17.3018288,10.2258057 17.6449728,10.5091349 18.0368887,10.4863898 C18.4288046,10.4636447 18.7368688,10.1425221 18.7433333,9.75 L18.7433333,6.75 L18.7433333,6.66333333 C18.6915045,6.27419434 18.3483605,5.99086506 17.9564446,6.01361018 C17.5645288,6.03635529 17.2564646,6.3574779 17.25,6.75 M10.5,5.25 L10.5,11.25 L10.5,11.3366667 C10.5518288,11.7258057 10.8949728,12.0091349 11.2868887,11.9863898 C11.6788046,11.9636447 11.9868688,11.6425221 11.9933333,11.25 L11.9933333,5.25 L11.9933333,5.16333333 C11.9415045,4.77419434 11.5983605,4.49086506 11.2064446,4.51361018 C10.8145288,4.53635529 10.5064646,4.8574779 10.5,5.25 M9,19.5 L13.5,19.5 L13.5,22.5 L9,22.5 L9,19.5 Z M1.5,18 L7.5,18 L7.5,22.5 L1.5,22.5 L1.5,18 Z M15,18 L21,18 L21,22.5 L15,22.5 L15,18 Z M9,16.5 L13.5,16.5 L13.5,18 L9,18 L9,16.5 Z M1.5,4.5 L7.5,4.5 L7.5,16.5 L1.5,16.5 L1.5,4.5 Z M15,3 L21,3 L21,16.5 L15,16.5 L15,3 Z M9,1.5 L13.5,1.5 L13.5,15 L9,15 L9,1.5 Z M8.25,0 L8.14666667,0 C7.77576699,0.0515936948 7.49975737,0.368862476 7.5,0.743333333 L7.5,3 L0.75,3 C0.335786438,3 0,3.33578644 0,3.75 L0,23.25 C0,23.6642136 0.335786438,24 0.75,24 L21.75,24 C22.1642136,24 22.5,23.6642136 22.5,23.25 L22.5,2.25 L22.5,2.14666667 C22.4480724,1.77324167 22.127001,1.49640682 21.75,1.5 L15,1.5 L15,0.75 C15,0.335786438 14.6642136,0 14.25,0 L8.25,0 Z" id="Shape"></path>
            </g>
        </g>
    </g>
</svg>