<?xml version="1.0" encoding="UTF-8"?>
<svg width="24px" height="24px" viewBox="0 0 24 24" version="1.1" xmlns="http://www.w3.org/2000/svg" xmlns:xlink="http://www.w3.org/1999/xlink">
    <title>Icon/Outline/life-insurance-outline</title>
    <g id="Icon/Outline/life-insurance-outline" stroke="none" stroke-width="1" fill="none" fill-rule="evenodd">
        <g id="Group" transform="translate(0.000000, 2.000000)" fill="#474747" fill-rule="nonzero">
            <g id="Outline">
                <path d="M23.9672776,15.66489 C23.8634335,15.0872961 23.7175057,14.5180659 23.5306605,13.9617501 L23.5039969,13.8917581 L23.4473367,13.8384308 C23.1140412,13.5451308 23.1140412,13.5384649 16.4914601,14.2250536 C16.4670498,13.5330094 15.9369224,12.9645081 15.248268,12.8918717 L8.45237325,12.1119602 L7.4024925,11.2953863 L0,9.30227939 L0,18.5545618 L0.596598901,18.7345413 C2.45638765,19.2911448 5.46604579,20.2043744 6.29595153,20.4910085 C6.50926063,20.6509903 6.82589133,20.6643221 7.29583795,20.6643221 L7.88243799,20.6643221 C8.50236757,20.6643221 9.3322733,20.6409915 10.1588461,20.6243267 C11.8253235,20.5909971 13.4651372,20.5510017 13.4651372,20.5510017 L13.5884565,20.5510017 L22.9973878,17.3713628 C23.7067098,17.1308698 24.1235966,16.3973782 23.9672776,15.66489 Z M1.66647738,11.4853648 L6.6659095,12.8185467 L7.80578003,13.7284433 L14.8283157,14.5450172 L14.8283157,15.6182286 L7.35249818,15.6182286 L7.35249818,17.284706 L14.8683111,17.284706 C15.658453,17.2770529 16.3282762,16.7015116 16.4547976,15.9215275 C18.4379057,15.7282161 20.9976149,15.4549139 22.2108105,15.3482593 C22.2374741,15.4849105 22.2674707,15.6415593 22.3074662,15.8315377 L13.3084883,18.8678595 C11.0687427,18.9211868 7.64246525,18.9945118 7.00587089,18.98118 C6.38927426,18.7112107 5.08942191,18.314589 1.67314329,17.3147026 L1.66647738,11.4853648 Z" id="Shape"></path>
                <path d="M13.3584826,5.86933599 C15.5715646,5.86933599 17.4846806,6.67591104 18.3579148,7.84244521 C18.5729761,8.11904955 18.6129281,8.49355594 18.4610581,8.80930409 C18.3091882,9.12505223 17.9916718,9.32762193 17.6413295,9.33227598 L9.07230283,9.33227598 C8.71775333,9.33652194 8.39209744,9.13733933 8.23437982,8.81977276 C8.07666219,8.50220619 8.1147523,8.12237121 8.33238688,7.84244521 C9.22895171,6.66591218 11.1420677,5.86933599 13.3584826,5.86933599 Z" id="Path"></path>
                <path d="M15.4715786,2.1197619 C15.4697338,3.28862972 14.5206863,4.23469119 13.3518185,4.23285265 C12.1829507,4.23100875 11.2368884,3.28196207 11.238726,2.11309425 C11.2405689,0.944226429 12.1896148,-0.00183660998 13.3584826,0 C13.919794,0.000885936213 14.4577646,0.224713448 14.8540466,0.622245567 C15.2503286,1.01977769 15.4724606,1.55845054 15.4715786,2.1197619 L15.4715786,2.1197619 Z" id="Path"></path>
                <path d="M23.9672776,15.66489 C23.8634335,15.0872961 23.7175057,14.5180659 23.5306605,13.9617501 L23.5039969,13.8917581 L23.4473367,13.8384308 C23.1140412,13.5451308 23.1140412,13.5384649 16.4914601,14.2250536 C16.4670498,13.5330094 15.9369224,12.9645081 15.248268,12.8918717 L8.45237325,12.1119602 L7.4024925,11.2953863 L0,9.30227939 L0,18.5545618 L0.596598901,18.7345413 C2.45638765,19.2911448 5.46604579,20.2043744 6.29595153,20.4910085 C6.50926063,20.6509903 6.82589133,20.6643221 7.29583795,20.6643221 L7.88243799,20.6643221 C8.50236757,20.6643221 9.3322733,20.6409915 10.1588461,20.6243267 C11.8253235,20.5909971 13.4651372,20.5510017 13.4651372,20.5510017 L13.5884565,20.5510017 L22.9973878,17.3713628 C23.7067098,17.1308698 24.1235966,16.3973782 23.9672776,15.66489 Z M1.66647738,11.4853648 L6.6659095,12.8185467 L7.80578003,13.7284433 L14.8283157,14.5450172 L14.8283157,15.6182286 L7.35249818,15.6182286 L7.35249818,17.284706 L14.8683111,17.284706 C15.658453,17.2770529 16.3282762,16.7015116 16.4547976,15.9215275 C18.4379057,15.7282161 20.9976149,15.4549139 22.2108105,15.3482593 C22.2374741,15.4849105 22.2674707,15.6415593 22.3074662,15.8315377 L13.3084883,18.8678595 C11.0687427,18.9211868 7.64246525,18.9945118 7.00587089,18.98118 C6.38927426,18.7112107 5.08942191,18.314589 1.67314329,17.3147026 L1.66647738,11.4853648 Z" id="Shape"></path>
                <path d="M13.3584826,5.86933599 C15.5715646,5.86933599 17.4846806,6.67591104 18.3579148,7.84244521 C18.5729761,8.11904955 18.6129281,8.49355594 18.4610581,8.80930409 C18.3091882,9.12505223 17.9916718,9.32762193 17.6413295,9.33227598 L9.07230283,9.33227598 C8.71775333,9.33652194 8.39209744,9.13733933 8.23437982,8.81977276 C8.07666219,8.50220619 8.1147523,8.12237121 8.33238688,7.84244521 C9.22895171,6.66591218 11.1420677,5.86933599 13.3584826,5.86933599 Z" id="Path"></path>
                <path d="M15.4715786,2.1197619 C15.4697338,3.28862972 14.5206863,4.23469119 13.3518185,4.23285265 C12.1829507,4.23100875 11.2368884,3.28196207 11.238726,2.11309425 C11.2405689,0.944226429 12.1896148,-0.00183660998 13.3584826,0 C13.919794,0.000885936213 14.4577646,0.224713448 14.8540466,0.622245567 C15.2503286,1.01977769 15.4724606,1.55845054 15.4715786,2.1197619 L15.4715786,2.1197619 Z" id="Path"></path>
            </g>
        </g>
    </g>
</svg>