<?xml version="1.0" encoding="UTF-8"?>
<svg width="24px" height="24px" viewBox="0 0 24 24" version="1.1" xmlns="http://www.w3.org/2000/svg" xmlns:xlink="http://www.w3.org/1999/xlink">
    <title>Icon/Outline/lightbulb-outline</title>
    <g id="Icon/Outline/lightbulb-outline" stroke="none" stroke-width="1" fill="none" fill-rule="evenodd">
        <g id="Group" transform="translate(1.000000, 0.000000)" fill="#474747" fill-rule="nonzero">
            <g id="Outline">
                <path d="M13.7874484,18.5232668 L8.50863524,18.5232668 C8.23845676,18.5049365 7.98057711,18.6386798 7.83991672,18.8700822 C7.69925634,19.1014846 7.69925634,19.3919828 7.83991672,19.6233851 C7.98057711,19.8547875 8.23845676,19.9885308 8.50863524,19.9702005 L13.7874484,19.9702005 C14.1680005,19.9443818 14.4634946,19.6281606 14.4634946,19.2467337 C14.4634946,18.8653067 14.1680005,18.5490855 13.7874484,18.5232668 L13.7874484,18.5232668 Z" id="Path"></path>
                <path d="M12.9592036,20.5356688 L9.19384981,20.5356688 C8.79337158,20.5356688 8.46871983,20.8603206 8.46871983,21.2607988 C8.46871983,21.661277 8.79337158,21.9859288 9.19384981,21.9859288 L12.9592036,21.9859288 C13.3596819,21.9859288 13.6843336,21.661277 13.6843336,21.2607988 C13.6843336,20.8603206 13.3596819,20.5356688 12.9592036,20.5356688 Z" id="Path"></path>
                <path d="M12.1742005,22.5513971 L10.1218831,22.5513971 C9.85170465,22.5330668 9.59382499,22.6668101 9.45316461,22.8982125 C9.31250422,23.1296149 9.31250422,23.420113 9.45316461,23.6515154 C9.59382499,23.8829178 9.85170465,24.0166611 10.1218831,23.9983308 L12.1742005,23.9983308 C12.5547527,23.9725121 12.8502467,23.6562909 12.8502467,23.274864 C12.8502467,22.893437 12.5547527,22.5772158 12.1742005,22.5513971 L12.1742005,22.5513971 Z" id="Path"></path>
                <path d="M15.5171163,7.60307548 C14.7986389,6.72493642 13.4647988,5.68048315 11.1929467,5.68048315 C8.92109449,5.68048315 7.5839282,6.72493642 6.86877708,7.60307548 C6.0006259,8.7050324 5.53160617,10.0687073 5.53819346,11.4715441 C5.53819346,12.8020578 6.13699453,13.7600277 6.71909429,14.6847348 C6.81888282,14.8443964 6.91867134,14.9940792 7.0118073,15.1371094 C7.46085569,15.8023663 7.81344182,16.3345718 7.81344182,17.3291308 C7.79511148,17.5993092 7.92885478,17.8571889 8.16025718,17.9978493 C8.39165957,18.1385097 8.68215774,18.1385097 8.91356014,17.9978493 C9.14496253,17.8571889 9.27870583,17.5993092 9.26037549,17.3291308 C9.26037549,15.9254388 8.74812771,15.1470883 8.20594337,14.3354749 C8.11945998,14.2024235 8.0296503,14.0660459 7.94316691,13.9263419 C7.43091913,13.108076 6.98519703,12.3995774 6.98519703,11.4848493 C6.98519703,8.05545014 9.62626676,7.14072196 11.1862941,7.14072196 C12.7463214,7.14072196 15.3907175,8.03216615 15.3907175,11.4715441 C15.3907175,12.3862723 14.9483216,13.0947709 14.4327476,13.9163631 L14.1699711,14.3221698 C13.6277868,15.1470883 13.115539,15.9254388 13.115539,17.3158256 C13.0720091,17.5947932 13.1943634,17.8736618 13.429118,18.0305313 C13.6638726,18.1874009 13.9683361,18.1937439 14.2094204,18.0467876 C14.4505047,17.8998314 14.5843673,17.6263007 14.5524938,17.3457622 C14.5524938,16.3478769 14.9050799,15.822324 15.350802,15.1537408 L15.6601465,14.6847348 C16.23892,13.7600277 16.8376511,12.8020578 16.8376511,11.4715441 C16.8471514,10.0698985 16.3816917,8.70634784 15.5171163,7.60307548 L15.5171163,7.60307548 Z" id="Path"></path>
                <path d="M11.1463787,4.53956764 C11.5455615,4.53956764 11.8696776,4.21694256 11.8715087,3.81776394 L11.8715087,0.774213808 C11.889839,0.504035329 11.7560957,0.246155674 11.5246933,0.105495289 C11.2932909,-0.0351650963 11.0027927,-0.0351650963 10.7713904,0.105495289 C10.539988,0.246155674 10.4062447,0.504035329 10.424575,0.774213808 L10.424575,3.81776394 C10.424575,4.21640511 10.7477375,4.53956764 11.1463787,4.53956764 L11.1463787,4.53956764 Z" id="Path"></path>
                <path d="M4.9994053,7.09415398 C5.30486118,7.34975009 5.75929456,7.3111381 6.0172483,7.00767059 C6.27428397,6.70083433 6.2340855,6.24376288 5.92743862,5.98650131 L3.59903961,4.03064614 C3.45386872,3.90585281 3.26402171,3.84577464 3.07348669,3.86433192 C2.88085448,3.87784512 2.70177101,3.96833188 2.57661567,4.1153894 C2.45146033,4.26244693 2.3907703,4.45369404 2.40822983,4.64600873 C2.42349097,4.83799724 2.51589667,5.01560818 2.66435372,5.13829881 L4.9994053,7.09415398 Z" id="Path"></path>
                <path d="M4.49381009,11.3584505 C4.49198901,10.958729 4.16840159,10.6351416 3.76868011,10.6333205 L0.725129977,10.6333205 C0.324651749,10.6333205 0,10.9579722 0,11.3584505 C0,11.7589287 0.324651749,12.0835804 0.725129977,12.0835804 L3.76868011,12.0835804 C4.16840159,12.0817593 4.49198901,11.7581719 4.49381009,11.3584505 L4.49381009,11.3584505 Z" id="Path"></path>
                <path d="M5.62807304,15.4065384 C5.43638562,15.3866458 5.24499628,15.4468311 5.09919383,15.5728527 L2.77079482,17.5287078 C2.49495736,17.7931735 2.47169918,18.2263167 2.71763058,18.5187994 C2.96356198,18.8112821 3.39426946,18.8627125 3.70215443,18.6363605 L6.03055344,16.6805053 C6.25572506,16.4929552 6.34515426,16.1878789 6.2568733,15.9084442 C6.16859233,15.6290094 5.92012496,15.4306838 5.62807304,15.4065384 Z" id="Path"></path>
                <path d="M17.4530137,15.4497801 C17.1452483,15.2056837 16.6990789,15.2510327 16.4467202,15.5520605 C16.1943615,15.8530883 16.2275857,16.3003241 16.5216541,16.5607591 L18.8500531,18.5166143 C18.980681,18.6258515 19.14545,18.6858745 19.3157329,18.6862548 C19.5316184,18.6885557 19.7369889,18.5932051 19.8745487,18.4268046 C19.9977969,18.2799983 20.0575898,18.0901975 20.0407421,17.8992568 C20.0238944,17.708316 19.9317898,17.531918 19.784739,17.4089616 L17.4530137,15.4497801 Z" id="Path"></path>
                <path d="M21.727289,10.4703325 L18.6837389,10.4703325 C18.2832607,10.4703325 17.9586089,10.7949843 17.9586089,11.1954625 C17.9586089,11.5959407 18.2832607,11.9205925 18.6837389,11.9205925 L21.727289,11.9205925 C22.1277673,11.9205925 22.452419,11.5959407 22.452419,11.1954625 C22.452419,10.7949843 22.1277673,10.4703325 21.727289,10.4703325 L21.727289,10.4703325 Z" id="Path"></path>
                <path d="M16.8808928,7.1440643 C17.0512762,7.14423616 17.2162333,7.08414465 17.3465726,6.97440774 L19.6749716,5.01855258 C19.8927975,4.85841055 20.0034445,4.59038606 19.9620218,4.32321994 C19.9205991,4.05605381 19.7339863,3.83411789 19.4778946,3.7474543 C19.2218028,3.6607907 18.9387646,3.72379281 18.743612,3.9108999 L16.415213,5.86675507 C16.1804365,6.0615413 16.0934656,6.38289273 16.1979574,6.66949898 C16.3024493,6.95610523 16.5758394,7.14607501 16.8808928,7.1440643 Z" id="Path"></path>
            </g>
        </g>
    </g>
</svg>