<?xml version="1.0" encoding="UTF-8"?>
<svg width="24px" height="24px" viewBox="0 0 24 24" version="1.1" xmlns="http://www.w3.org/2000/svg" xmlns:xlink="http://www.w3.org/1999/xlink">
    <title>Icon/Outline/like-outline</title>
    <g id="Icon/Outline/like-outline" stroke="none" stroke-width="1" fill="none" fill-rule="evenodd">
        <g id="Group" transform="translate(-0.000000, 1.500000)" fill="#474747" fill-rule="nonzero">
            <g id="like">
                <path d="M1.94763722,11.1580573 C-0.539365388,8.72142514 -0.66173155,4.62860037 1.67935326,2.03213889 C2.84471173,0.740675441 4.49182296,0 6.19490137,0 C7.77823758,0 9.28343096,0.620476075 10.4370135,1.74925554 L11.9981741,3.28111776 L13.5606466,1.74925554 C14.7156373,0.620476075 16.2207986,0 17.8040708,0 C19.5071812,0 21.1530125,0.742086033 22.3196189,2.03482568 C23.4524339,3.29072297 24.0500569,4.93197036 23.9967137,6.65657478 C23.9459305,8.37842523 23.2519249,9.97866582 22.046151,11.1580573 L11.996958,21 L1.94763722,11.1580573 Z M11.9969514,18.9004469 L20.997287,10.0857308 C21.9243326,9.17896886 22.4579818,7.94769813 22.4974307,6.61020093 C22.5387964,5.27283253 22.0794386,4.0080793 21.206024,3.03976666 C20.3217501,2.05988532 19.0794831,1.50000001 17.8040708,1.50000001 C16.6148662,1.50000001 15.4853503,1.96561879 14.610763,2.82035574 L11.9977329,5.38219408 L10.9476081,4.35177689 L9.38794189,2.82137895 C8.51334304,1.96558484 7.38416102,1.50000001 6.19490137,1.50000001 C4.91836035,1.50000001 3.67522034,2.05933588 2.79338316,3.03659765 C0.990948042,5.03565097 1.08480535,8.21264763 2.99729397,10.0865067 L11.9969514,18.9004469 Z" id="Shape"></path>
            </g>
        </g>
    </g>
</svg>