<?xml version="1.0" encoding="UTF-8"?>
<svg width="24px" height="24px" viewBox="0 0 24 24" version="1.1" xmlns="http://www.w3.org/2000/svg" xmlns:xlink="http://www.w3.org/1999/xlink">
    <title>Icon/Outline/link-outline</title>
    <g id="Icon/Outline/link-outline" stroke="none" stroke-width="1" fill="none" fill-rule="evenodd">
        <g id="Group" transform="translate(-0.000000, -0.000000)" fill="#474747" fill-rule="nonzero">
            <g id="link">
                <path d="M12.7378506,15.6892528 L22.3299079,15.6892528 L22.3299079,8.31074726 L12.7378506,8.31074726 L12.7378506,6.83504615 L22.3299079,6.83504615 C23.1449151,6.83504615 23.805609,7.49574004 23.805609,8.31074726 L23.805609,15.6892528 C23.805609,16.5042601 23.1449151,17.164954 22.3299079,17.164954 L12.7378506,17.164954 L12.7378506,15.6892528 Z M11.2621495,15.6892528 L11.2621495,17.164954 L1.67009225,17.164954 C0.855085026,17.164954 0.194391132,16.5042601 0.194391132,15.6892528 L0.194391132,8.31074726 C0.194391132,7.49574004 0.855085026,6.83504615 1.67009225,6.83504615 L11.2621495,6.83504615 L11.2621495,8.31074726 L1.67009225,8.31074726 L1.67009225,15.6892528 L11.2621495,15.6892528 Z M4.62149448,11.2621495 L19.3785056,11.2621495 L19.3785056,12.7378506 L4.62149448,12.7378506 L4.62149448,11.2621495 Z" id="Combined-Shape" transform="translate(12.000000, 12.000000) rotate(-45.000000) translate(-12.000000, -12.000000) "></path>
            </g>
        </g>
    </g>
</svg>