<?xml version="1.0" encoding="UTF-8"?>
<svg width="24px" height="24px" viewBox="0 0 24 24" version="1.1" xmlns="http://www.w3.org/2000/svg" xmlns:xlink="http://www.w3.org/1999/xlink">
    <title>Icon/Outline/link-unlinked-outline</title>
    <g id="Icon/Outline/link-unlinked-outline" stroke="none" stroke-width="1" fill="none" fill-rule="evenodd">
        <g id="Group" transform="translate(3.000000, 0.000000)" fill="#474747" fill-rule="nonzero">
            <g id="Outline">
                <path d="M5.55357228,10.8800415 L6.64019867,11.9666679 L1.55372053,17.0164807 L6.98018606,22.4596123 L12.0433317,17.3631345 L13.1332913,18.4497609 L8.06347924,23.5495719 C7.499812,24.112607 6.60844385,24.1477967 6.00381399,23.655141 L5.88689325,23.5495719 L0.450428095,18.1064403 C-0.112607024,17.5427731 -0.147796719,16.6514049 0.34485901,16.0467751 L0.450428095,15.9298543 L5.55357228,10.8800415 Z M9.05010934,13.8332654 L10.1400689,14.923225 L6.98018606,18.1064403 L5.89355967,17.0164807 L9.05010934,13.8332654 Z M11.8800044,0.450428095 L17.323136,5.89355967 C17.9237068,6.49480473 17.9237068,7.46890061 17.323136,8.07014566 L12.2199918,13.2566201 L11.1133662,12.1633273 L16.2365096,7.00018532 L10.7933781,1.54038769 L5.60357042,6.64019867 L4.52027724,5.55690549 L9.70341846,0.450428095 C10.3046635,-0.150142698 11.2787594,-0.150142698 11.8800044,0.450428095 Z M10.7933781,5.89355967 L11.8800044,6.98351927 L8.69345589,10.2000667 L7.6068295,9.11010712 L10.7933781,5.89355967 Z" id="Combined-Shape"></path>
            </g>
        </g>
    </g>
</svg>