<?xml version="1.0" encoding="UTF-8"?>
<svg width="24px" height="24px" viewBox="0 0 24 24" version="1.1" xmlns="http://www.w3.org/2000/svg" xmlns:xlink="http://www.w3.org/1999/xlink">
    <title>Icon/Outline/link-broken-outline</title>
    <g id="Icon/Outline/link-broken-outline" stroke="none" stroke-width="1" fill="none" fill-rule="evenodd">
        <g id="Group" fill="#474747" fill-rule="nonzero">
            <g id="Outline" transform="translate(0.000000, -0.000000)">
                <path d="M16.3328579,13.2265321 L22.4455204,7.05387611 L16.9461239,1.5544796 L10.763469,7.66714214 L9.66692269,6.55393097 L15.8462446,0.457933264 C16.1372119,0.164838773 16.5331271,5.92053976e-16 16.9461239,5.92053976e-16 C17.3591207,5.92053976e-16 17.7550359,0.164838773 18.0460032,0.457933264 L23.5420667,5.95399681 C23.8351612,6.24496409 24,6.64087933 24,7.05387611 C24,7.46687289 23.8351612,7.86278812 23.5420667,8.15375541 L17.4327372,14.3330773 L16.3328579,13.2265321 Z M7.05387611,22.4455204 L1.5544796,16.9461239 L7.66714214,10.9034537 L6.56726284,9.80357436 L0.457933264,15.8462446 C0.164838773,16.1372119 5.92053976e-16,16.5331271 5.92053976e-16,16.9461239 C5.92053976e-16,17.3591207 0.164838773,17.7550359 0.457933264,18.0460032 L5.95399681,23.5420667 C6.24496409,23.8351612 6.64087933,24 7.05387611,24 C7.46687289,24 7.86278812,23.8351612 8.15375541,23.5420667 L14.2164234,17.449402 L13.1165441,16.3528557 L7.05387611,22.4455204 Z M13.8864597,11.2467493 L18.0460032,7.05387611 L16.9461239,5.95399681 L12.7865803,10.14687 L13.8864597,11.2467493 Z M7.05387611,18.0460032 L11.1867559,13.8864597 L10.0868766,12.7865803 L5.95399681,16.9461239 L7.05387611,18.0460032 Z M23.1221128,22.0988918 L1.88111042,0.877887179 L0.817893763,1.93777087 L22.0622291,23.1587755 L23.1221128,22.0988918 Z" id="Shape"></path>
            </g>
        </g>
    </g>
</svg>