<svg width="24" height="24" viewBox="0 0 24 24" fill="none" xmlns="http://www.w3.org/2000/svg">
<path d="M12.5967 7.25L23.99 7.25333V5.75333L12.5967 5.75V7.25Z" fill="black"/>
<path d="M12.6067 18.6833H24V17.1833H12.6067V18.6833Z" fill="black"/>
<path fill-rule="evenodd" clip-rule="evenodd" d="M2.24667 3.5V9.50333H8.24667V3.5H2.24667ZM8.99333 2C9.40667 2 9.74333 2.33667 9.74333 2.75V10.2533C9.74333 10.6667 9.40667 11.0033 8.99333 11.0033H1.49667C1.08333 11.0033 0.746667 10.6667 0.746667 10.2533V2.75C0.746667 2.33667 1.08333 2 1.49667 2H8.99333Z" fill="black"/>
<path d="M3.45667 19.8767L1.06 17.48L0 18.54L3.46 22L10.51 14.9267L9.44667 13.8667L3.46 19.8767H3.45667Z" fill="black"/>
</svg>
