<?xml version="1.0" encoding="UTF-8"?>
<svg width="24px" height="24px" viewBox="0 0 24 24" version="1.1" xmlns="http://www.w3.org/2000/svg" xmlns:xlink="http://www.w3.org/1999/xlink">
    <title>Icon/Outline/list-view-outline</title>
    <g id="Icon/Outline/list-view-outline" stroke="none" stroke-width="1" fill="none" fill-rule="evenodd">
        <g id="Group" transform="translate(-0.000000, 5.250000)" fill="#474747" fill-rule="nonzero">
            <g id="list-view">
                <path d="M3.00000001,7.50000002 L3.00000001,6.00000002 L24,6.00000002 L24,7.50000002 L3.00000001,7.50000002 Z M3.00000001,1.5 L3.00000001,0 L24,0 L24,1.5 L3.00000001,1.5 Z M3.00000001,13.5000001 L3.00000001,12.0000001 L24,12.0000001 L24,13.5000001 L3.00000001,13.5000001 Z M0,7.50000002 L0,6.00000002 L1.5,6.00000002 L1.5,7.50000002 L0,7.50000002 Z M0,1.5 L0,0 L1.5,0 L1.5,1.5 L0,1.5 Z M0,13.5000001 L0,12.0000001 L1.5,12.0000001 L1.5,13.5000001 L0,13.5000001 Z" id="Combined-Shape"></path>
            </g>
        </g>
    </g>
</svg>