<?xml version="1.0" encoding="UTF-8"?>
<svg width="24px" height="24px" viewBox="0 0 24 24" version="1.1" xmlns="http://www.w3.org/2000/svg" xmlns:xlink="http://www.w3.org/1999/xlink">
    <title>Icon/Outline/location-outline</title>
    <g id="Icon/Outline/location-outline" stroke="none" stroke-width="1" fill="none" fill-rule="evenodd">
        <g id="Group" transform="translate(2.250000, -0.000000)" fill="#474747" fill-rule="nonzero">
            <g id="location">
                <path d="M16.6442912,2.85570889 C20.451903,6.66332076 20.451903,12.8366794 16.6442912,16.6442912 L9.75000004,24 L2.85570889,16.6442912 C-0.951902965,12.8366794 -0.951902965,6.66332076 2.85570889,2.85570889 C6.66332073,-0.951902965 12.8366794,-0.951902965 16.6442912,2.85570889 Z M9.75008509,21.8066342 L15.583631,15.583631 C18.8054564,12.3618056 18.8054564,7.1381945 15.583631,3.91636908 C12.3618056,0.694543653 7.13819448,0.694543653 3.91636908,3.91636908 C0.694543655,7.1381945 0.694543655,12.3618056 3.95013987,15.618513 L9.75008509,21.8066342 Z M9.75000004,13.5 C7.67893226,13.5 6.00000003,11.8210678 6.00000003,9.75000004 C6.00000003,7.67893226 7.67893226,6.00000003 9.75000004,6.00000003 C11.8210678,6.00000003 13.5,7.67893226 13.5,9.75000004 C13.5,11.8210678 11.8210678,13.5 9.75000004,13.5 Z M9.75000004,12 C10.9926407,12 12,10.9926407 12,9.75000004 C12,8.50735939 10.9926407,7.50000003 9.75000004,7.50000003 C8.50735939,7.50000003 7.50000003,8.50735939 7.50000003,9.75000004 C7.50000003,10.9926407 8.50735939,12 9.75000004,12 Z" id="Combined-Shape"></path>
            </g>
        </g>
    </g>
</svg>