<?xml version="1.0" encoding="UTF-8"?>
<svg width="24px" height="24px" viewBox="0 0 24 24" version="1.1" xmlns="http://www.w3.org/2000/svg" xmlns:xlink="http://www.w3.org/1999/xlink">
    <title>Icon/Outline/location-locked-outline</title>
    <g id="Icon/Outline/location-locked-outline" stroke="none" stroke-width="1" fill="none" fill-rule="evenodd">
        <g id="Group" transform="translate(-0.000000, -0.000000)" fill="#474747" fill-rule="nonzero">
            <g id="location-outline" transform="translate(0.000000, 0.000000)">
                <path d="M24,11.25 L24,12.7500001 L22.5500001,12.7500001 C22.169792,17.9968442 17.9968442,22.169792 12.7500001,22.5500001 L12.7500001,24 L11.25,24 L11.25,22.5500001 C6.00315589,22.169792 1.8302081,17.9968442 1.45,12.7500001 L0,12.7500001 L0,11.25 L1.45,11.25 C1.8302081,6.00315589 6.00315589,1.8302081 11.25,1.45 L11.25,0 L12.7500001,0 L12.7500001,1.45 C17.9968442,1.8302081 22.169792,6.00315589 22.5500001,11.25 L24,11.25 Z M12.7500001,21.0466667 C17.168515,20.6738832 20.6738832,17.168515 21.0466667,12.7500001 L20.2133334,12.7500001 L20.2133334,11.25 L21.0466667,11.25 C20.6738832,6.83148505 17.168515,3.32611688 12.7500001,2.95333335 L12.7500001,3.78666668 L11.25,3.78666668 L11.25,2.95333335 C6.83148505,3.32611688 3.32611688,6.83148505 2.95333335,11.25 L3.78666668,11.25 L3.78666668,12.7500001 L2.95333335,12.7500001 C3.32611688,17.168515 6.83148505,20.6738832 11.25,21.0466667 L11.25,20.2133334 L12.7500001,20.2133334 L12.7500001,21.0466667 Z M15.7500001,10.1666667 C16.1642136,10.1666667 16.5,10.5024531 16.5,10.9166667 L16.5,16.03 C16.5,16.4442136 16.1642136,16.78 15.7500001,16.78 L8.25000003,16.78 C7.83578651,16.78 7.50000003,16.4442136 7.50000003,16.03 L7.50000003,10.9166667 C7.50000003,10.5024531 7.83578651,10.1666667 8.25000003,10.1666667 L8.87666674,10.1666667 L8.87666674,9.52333339 C8.82997084,7.74980891 10.2266422,6.2726463 12,6.22000002 C13.7733579,6.2726463 15.1700293,7.74980891 15.1233334,9.52333339 L15.1233334,10.1666667 L15.7500001,10.1666667 Z M10.3766667,9.52333339 L10.3766667,10.1666667 L13.6233334,10.1666667 L13.6233334,9.52333339 C13.668771,8.57860159 12.944293,7.77379136 12,7.72000001 C11.0557071,7.77379136 10.3312291,8.57860159 10.3766667,9.52333339 Z M15,15.28 L15,11.6666667 L9.00000004,11.6666667 L9.00000004,15.28 L15,15.28 Z" id="Combined-Shape"></path>
            </g>
        </g>
    </g>
</svg>