<?xml version="1.0" encoding="UTF-8"?>
<svg width="24px" height="24px" viewBox="0 0 24 24" version="1.1" xmlns="http://www.w3.org/2000/svg" xmlns:xlink="http://www.w3.org/1999/xlink">
    <title>Icon/Outline/lockers-outline</title>
    <g id="Icon/Outline/lockers-outline" stroke="none" stroke-width="1" fill="none" fill-rule="evenodd">
        <g id="Group" transform="translate(-0.000000, 0.000000)" fill="#474747" fill-rule="nonzero">
            <g id="Outline">
                <path d="M23.7333333,0 L23.7333333,24 L0,24 L0,0 L23.7333333,0 Z M14.7033333,1.66666667 L9.2,1.66666667 L9.2,22.3333333 L14.7033333,22.3333333 L14.7033333,1.66666667 Z M7.51333333,1.66666667 L1.68,1.66666667 L1.68,22.3333333 L7.51333333,22.3333333 L7.51333333,1.66666667 Z M22.0533333,1.66666667 L16.3866667,1.66666667 L16.3866667,22.3333333 L22.0533333,22.3333333 L22.0533333,1.66666667 Z M4.43,12.3966667 L4.43,14.11 L2.71666667,14.11 L2.71666667,12.3966667 L4.43,12.3966667 Z M11.9766667,12.3966667 L11.9766667,14.11 L10.2633333,14.11 L10.2633333,12.3966667 L11.9766667,12.3966667 Z M19.1866667,12.3966667 L19.1866667,14.11 L17.4733333,14.11 L17.4733333,12.3966667 L19.1866667,12.3966667 Z M5.89333333,5.2 L5.89333333,6.88 L3.05333333,6.88 L3.05333333,5.2 L5.89333333,5.2 Z M13.2866667,5.2 L13.2866667,6.88 L10.4466667,6.88 L10.4466667,5.2 L13.2866667,5.2 Z M20.68,5.2 L20.68,6.88 L17.84,6.88 L17.84,5.2 L20.68,5.2 Z M5.89333333,2.66666667 L5.89333333,4.34666667 L3.05333333,4.34666667 L3.05333333,2.66666667 L5.89333333,2.66666667 Z M13.2866667,2.66666667 L13.2866667,4.34666667 L10.4466667,4.34666667 L10.4466667,2.66666667 L13.2866667,2.66666667 Z M20.68,2.66666667 L20.68,4.34666667 L17.84,4.34666667 L17.84,2.66666667 L20.68,2.66666667 Z" id="Combined-Shape"></path>
            </g>
        </g>
    </g>
</svg>