<?xml version="1.0" encoding="UTF-8"?>
<svg width="24px" height="24px" viewBox="0 0 24 24" version="1.1" xmlns="http://www.w3.org/2000/svg" xmlns:xlink="http://www.w3.org/1999/xlink">
    <title>Icon/Outline/lockclosed-locked-outline</title>
    <g id="Icon/Outline/lockclosed-locked-outline" stroke="none" stroke-width="1" fill="none" fill-rule="evenodd">
        <g id="Group" transform="translate(2.000000, 0.000000)" fill="#474747" fill-rule="nonzero">
            <g id="Outline">
                <path d="M9.97365386,0 C13.2327295,0 15.8747324,2.64200285 15.8747324,5.90107854 L15.8747324,5.90107854 L15.8747324,9.03945495 L19.9473077,9.03945495 L19.9473077,22.4706422 C19.9455504,22.8785799 19.7815815,23.269061 19.4915683,23.5559557 C19.2015551,23.8428505 18.8093242,24.0025885 18.4013914,23.9999683 L18.4013914,23.9999683 L1.54591635,23.9999683 C1.13798349,24.0025885 0.745752592,23.8428505 0.455739407,23.5559557 C0.165726222,23.269061 0.0017573552,22.8785799 0,22.4706422 L0,22.4706422 L0,9.03945495 L4.07257533,9.03945495 L4.07257533,5.90107854 C4.07257533,2.64200285 6.71457818,0 9.97365386,0 Z M18.4013914,10.5753976 L1.54591635,10.5753976 L1.54591635,22.4639931 L18.4013914,22.4639931 L18.4013914,10.5753976 Z M10.9643701,13.9830627 L10.9643701,19.219231 L8.97961303,19.219231 L8.97961303,13.9830627 L10.9643701,13.9830627 Z M9.97697841,1.90832568 C7.74469911,1.90832568 5.91052694,3.67058363 5.8212893,5.90107854 L5.8212893,5.90107854 L5.8212893,9.03945495 L14.1326675,9.03945495 L14.1326675,5.90107854 C14.0434299,3.67058363 12.2092577,1.90832568 9.97697841,1.90832568 Z" id="Combined-Shape"></path>
            </g>
        </g>
    </g>
</svg>