<svg width="24" height="24" viewBox="0 0 24 24" fill="none" xmlns="http://www.w3.org/2000/svg">
<g clip-path="url(#clip0_15805_64172)">
<path d="M0.833496 1.92333L1.89683 0.863333L23.1668 22.0767L22.1035 23.1367L0.833496 1.92333ZM12.9968 19.2067V16.0267L11.0068 14.0367V19.2067H12.9968ZM12.0002 1.72667C14.3002 1.72667 16.1702 3.57667 16.1702 5.85333V9.00667H12.1002L13.6335 10.54H20.4468V17.3533L21.9968 18.9033V9.00667H17.9135V5.85333C17.9168 2.62667 15.2635 0 12.0002 0C9.58683 0 7.51016 1.44 6.59016 3.49333L7.95683 4.86C8.40683 3.06333 10.0468 1.72667 12.0002 1.72667ZM3.55016 22.4667V10.54H7.50683L5.9735 9.00667H2.00016V22.4667C2.00016 23.3133 2.6935 24 3.55016 24H20.4502C20.6068 24 20.7535 23.97 20.8968 23.9267L19.4368 22.4667H3.55016Z" fill="black"/>
</g>
<defs>
<clipPath id="clip0_15805_64172">
<rect width="24" height="24" fill="white"/>
</clipPath>
</defs>
</svg>
