<?xml version="1.0" encoding="UTF-8"?>
<svg width="24px" height="24px" viewBox="0 0 24 24" version="1.1" xmlns="http://www.w3.org/2000/svg" xmlns:xlink="http://www.w3.org/1999/xlink">
    <title>Icon/Outline/lockopen-unlock-outline</title>
    <g id="Icon/Outline/lockopen-unlock-outline" stroke="none" stroke-width="1" fill="none" fill-rule="evenodd">
        <g id="Group" transform="translate(2.000000, 0.000000)" fill="#474747" fill-rule="nonzero">
            <g id="Outline">
                <path d="M4.93939801,2.84156892 C6.31409263,0.587167538 9.01437986,-0.485886674 11.5614936,0.21004605 C14.1086074,0.905978774 15.8881042,3.20301768 15.925473,5.84322875 L15.925473,5.84322875 L15.925473,8.99830675 L19.9977248,8.99830675 L19.9977248,22.4657539 C19.9959618,22.8749954 19.8314689,23.2667247 19.5405287,23.5545364 C19.2495886,23.8423482 18.856104,24.0025968 18.4468672,23.9999682 L18.4468672,23.9999682 L1.55085758,23.9999682 C1.14162084,24.0025968 0.748136249,23.8423482 0.457196092,23.5545364 C0.166255935,23.2667247 0.00176297225,22.8749954 0,22.4657539 L0,22.4657539 L0,8.99830675 L14.1811751,8.99830675 L14.1811751,5.84322875 C14.1587041,3.98191531 12.9078463,2.35986527 11.1133684,1.86505018 C9.31889059,1.37023509 7.41347896,2.12196524 6.44022792,3.70871509 L6.44022792,3.70871509 Z M18.4468672,10.5324884 L1.55085758,10.5324884 L1.55085758,22.4657539 L18.4468672,22.4657539 L18.4468672,10.5324884 Z M10.9994157,13.9510455 L10.9994157,19.2039502 L9.00831467,19.2039502 L9.00831467,13.9510455 L10.9994157,13.9510455 Z" id="Combined-Shape"></path>
            </g>
        </g>
    </g>
</svg>