<?xml version="1.0" encoding="UTF-8"?>
<svg width="24px" height="24px" viewBox="0 0 24 24" version="1.1" xmlns="http://www.w3.org/2000/svg" xmlns:xlink="http://www.w3.org/1999/xlink">
    <title>Icon/Outline/login-outline</title>
    <g id="Icon/Outline/login-outline" stroke="none" stroke-width="1" fill="none" fill-rule="evenodd">
        <g id="Group" transform="translate(-0.000000, 0.000225)" fill="#474747" fill-rule="nonzero">
            <g id="login">
                <path d="M5.97138806,6.93047008 L7.03036821,5.86998996 L13.1592533,11.9988751 L7.03036821,18.1292602 L5.97138806,17.06878 L10.2898071,12.748861 L0,12.748861 L0,11.2488891 L10.2898071,11.2488891 L5.97138806,6.93047008 Z M22.5000282,0 C23.3280127,0 24.0000001,0.671987403 24.0000001,1.49997188 L24.0000001,22.4995782 C24.0000001,23.3275627 23.3280127,23.9995501 22.5000282,23.9995501 L10.5002532,23.9995501 C9.67226869,23.9995501 9.00028128,23.3275627 9.00028128,22.4995782 L9.00028128,20.2496204 L10.5002532,20.2496204 L10.5002532,22.4995782 L22.5000282,22.4995782 L22.5000282,1.49997188 L10.5002532,1.49997188 L10.5002532,3.7499297 L9.00028128,3.7499297 L9.00028128,1.49997188 C9.00028128,0.671987403 9.67226869,0 10.5002532,0 L22.5000282,0 Z" id="Combined-Shape"></path>
            </g>
        </g>
    </g>
</svg>