<svg width="24" height="24" viewBox="0 0 24 24" fill="none" xmlns="http://www.w3.org/2000/svg">
<g clip-path="url(#clip0_15805_64170)">
<path d="M23.71 11.6033C23.71 8.64 21.3 6.23333 18.34 6.23333H14.7867V5.15H19.5767C19.9834 5.15 20.31 4.82 20.31 4.41667V0.733333C20.31 0.326667 19.98 0 19.5767 0H13.3167V6.23H6.16004V6.25667C5.99671 6.24 5.83337 6.23 5.66337 6.23C2.70004 6.23 0.290039 8.64 0.290039 11.6033V21.0767H9.14671V24H10.6167V21.0767H13.3367V24H14.8067V21.0767H23.71V11.6033ZM14.7834 1.47H18.84V3.68333H14.7834V1.47ZM1.76004 19.61V11.6033C1.76004 9.45 3.51004 7.7 5.66337 7.7C7.81671 7.7 9.56671 9.45 9.56671 11.6033V19.61H1.76004ZM22.24 19.61H11.0334V11.6033C11.0334 10.0667 10.38 8.68 9.34004 7.7H13.3134V12.67H14.7834V7.7H18.3367C20.49 7.7 22.24 9.45 22.24 11.6033V19.61Z" fill="black"/>
</g>
<defs>
<clipPath id="clip0_15805_64170">
<rect width="24" height="24" fill="white"/>
</clipPath>
</defs>
</svg>
