<?xml version="1.0" encoding="UTF-8"?>
<svg width="24px" height="24px" viewBox="0 0 24 24" version="1.1" xmlns="http://www.w3.org/2000/svg" xmlns:xlink="http://www.w3.org/1999/xlink">
    <title>Icon/Outline/male-symbol-outline</title>
    <g id="Icon/Outline/male-symbol-outline" stroke="none" stroke-width="1" fill="none" fill-rule="evenodd">
        <g id="Group" transform="translate(0.000000, -0.000000)" fill="#474747" fill-rule="nonzero">
            <g id="Outline">
                <path d="M14.479948,0 L14.479948,2.16168399 L20.070793,2.16168399 L15.4602943,6.77628453 C11.4201589,3.67149569 5.6587727,4.26114404 2.33132734,8.11996701 C-0.996118022,11.97879 -0.731952995,17.7642436 2.93330294,21.3037783 C6.59855887,24.8433131 12.3897067,24.9054703 16.1300901,21.4454213 C19.8704736,17.9853724 20.2587557,12.2069216 17.0149019,8.27756791 L21.5925857,3.69988417 L21.5925857,9.27432163 L23.7542697,9.27432163 L23.7542697,0 L14.479948,0 Z M9.55770745,21.9245081 C6.51647451,21.9327803 3.77008296,20.1071737 2.6004976,17.2998197 C1.43091224,14.4924656 2.06875902,11.2569352 4.21630283,9.1035141 C6.36384664,6.95009305 9.59762179,6.30340601 12.4081618,7.46531455 C15.2187018,8.62722309 17.0518187,11.368615 17.0518187,14.4098593 C17.0473022,18.5565965 13.6880341,21.9176993 9.54129998,21.9245081 L9.55770745,21.9245081 Z" id="Shape"></path>
            </g>
        </g>
    </g>
</svg>