<?xml version="1.0" encoding="UTF-8"?>
<svg width="24px" height="24px" viewBox="0 0 24 24" version="1.1" xmlns="http://www.w3.org/2000/svg" xmlns:xlink="http://www.w3.org/1999/xlink">
    <title>Icon/Outline/man-outline</title>
    <g id="Icon/Outline/man-outline" stroke="none" stroke-width="1" fill="none" fill-rule="evenodd">
        <g id="Group" transform="translate(8.000000, 0.000000)" fill="#474747" fill-rule="nonzero">
            <g id="Outline">
                <path d="M4.49997627,1.50010521 C5.44307495,1.5129636 6.1984315,2.2856393 6.18989721,3.22878684 C6.18136292,4.17193438 5.41214772,4.93081463 4.46897103,4.92660872 C3.52579433,4.92236772 2.76340623,4.1566291 2.76331876,3.21344295 C2.77247897,2.26190604 3.54840251,1.49640758 4.49997627,1.50010521 M4.49997627,6.29164936e-05 C2.73114792,0.0239822303 1.31427156,1.47302439 1.33012199,3.24194259 C1.34597242,5.01086078 2.78858754,6.43428041 4.55755935,6.42646781 C6.32653117,6.41859068 7.7564649,4.98243215 7.75662576,3.21344295 C7.74378255,1.42718154 6.28624946,-0.0109575573 4.49997627,6.29164936e-05 Z M8.99995254,8.30008279 C8.99995254,8.30008279 6.84996388,6.86675702 4.40331011,6.86675702 C2.82902736,6.91564807 1.3014109,7.412904 0,8.30008279 L0,16.2467076 L2.03665593,16.2467076 L2.03665593,24 L3.55664791,24 L3.55664791,16.2467076 L5.44330463,16.2467076 L5.44330463,24 L6.96329661,24 L6.96329661,16.2467076 L8.99995254,16.2467076 L8.99995254,8.30008279 Z M1.43665909,9.09007862 C2.3477355,8.59055892 3.36467087,8.31518653 4.40331011,8.28674953 C5.50590314,8.32614321 6.58566767,8.61203023 7.56329345,9.12341178 L7.56329345,14.826715 L1.43665909,14.826715 L1.43665909,9.09007862 Z" id="Shape"></path>
            </g>
        </g>
    </g>
</svg>