<?xml version="1.0" encoding="UTF-8"?>
<svg width="24px" height="24px" viewBox="0 0 24 24" version="1.1" xmlns="http://www.w3.org/2000/svg" xmlns:xlink="http://www.w3.org/1999/xlink">
    <title>Icon/Outline/man-and-woman-outline</title>
    <g id="Icon/Outline/man-and-woman-outline" stroke="none" stroke-width="1" fill="none" fill-rule="evenodd">
        <g id="Group" fill="#474747" fill-rule="nonzero">
            <g id="Outline">
                <path d="M4.49666667,1.50011977 C5.44023255,1.51113835 6.1972705,2.28303262 6.18994842,3.2266344 C6.18262633,4.17023617 5.41370089,4.93028939 4.47007768,4.92667341 C3.52645448,4.92303154 2.76339763,4.15708672 2.76333333,3.21345654 C2.77248642,2.26321834 3.54638624,1.49824814 4.49666667,1.50011977 M4.49666667,6.08825268e-05 C2.72736604,0.0221494068 1.30880466,1.47041447 1.32344331,3.23979163 C1.33808196,5.0091688 2.78041147,6.43376476 4.54983434,6.42654148 C6.3192572,6.41926308 7.7498629,4.98289426 7.75,3.21345654 C7.74471204,2.35591809 7.39897639,1.53560468 6.78885446,0.932984248 C6.17873253,0.330363818 5.35420491,-0.00519756034 4.49666667,6.08825268e-05 L4.49666667,6.08825268e-05 Z M9,8.30012321 C9,8.30012321 6.85333333,6.86678987 4.40666667,6.86678987 C2.83120045,6.91486647 1.3022837,7.41216919 8.8817842e-16,8.30012321 L8.8817842e-16,16.2467899 L2.03666667,16.2467899 L2.03666667,24.0001232 L3.55666667,24.0001232 L3.55666667,16.2467899 L5.44,16.2467899 L5.44,24.0001232 L6.95666667,24.0001232 L6.95666667,16.2467899 L9,16.2467899 L9,8.30012321 Z M1.43666667,9.09012321 C2.3467033,8.59099146 3.36247041,8.31562602 4.4,8.28678987 C5.50259884,8.32618376 6.58236907,8.61207229 7.56,9.12345654 L7.56,14.8267899 L1.43666667,14.8267899 L1.43666667,9.09012321 Z" id="Shape"></path>
                <path d="M18,1.51012321 C18.9356869,1.53026989 19.6798525,2.30156736 19.6664931,3.23737581 C19.6531337,4.17318427 18.8872541,4.92292463 17.9513733,4.91635319 C17.0154926,4.90978174 16.2602169,4.14936032 16.26,3.21345654 C16.2709864,2.26297403 17.0494991,1.50086681 18,1.51012321 M18,9.49120367e-05 C16.2293244,0.0166551314 14.805733,1.46255138 14.8166654,3.23326998 C14.8277243,5.00398857 16.2691625,6.43209382 18.0399068,6.42665016 C19.8106511,6.42117529 21.2432562,4.98420927 21.2433333,3.21345654 C21.2341504,1.43087452 19.7825904,-0.00725898396 18,9.49120367e-05 Z M24,18.9134565 L22.6666667,8.30012321 C22.6666667,8.30012321 20.5266667,6.86678987 18.0866667,6.86678987 C16.5187179,6.91651316 14.9977391,7.41386744 13.7033333,8.30012321 L12,18.9134565 L15.4866667,18.9134565 L15.4866667,24.0001232 L17,24.0001232 L17,18.9134565 L18.8766667,18.9134565 L18.8766667,24.0001232 L20.3933333,24.0001232 L20.3933333,18.9134565 L24,18.9134565 Z M15,9.16678987 C15.9409693,8.62147344 17.0029153,8.31904222 18.09,8.28678987 C19.2247907,8.33524796 20.3337719,8.64070216 21.3333333,9.18012321 L22.3333333,17.4934565 L13.73,17.4934565 L15,9.16678987 Z" id="Shape"></path>
            </g>
        </g>
    </g>
</svg>