<svg width="24" height="24" viewBox="0 0 24 24" fill="none" xmlns="http://www.w3.org/2000/svg">
<g clip-path="url(#clip0_15805_64179)">
<path d="M12.65 1.33501L7.49 3.59167V10.0817L12.65 12.3383L17.81 10.0817V3.59167L12.65 1.33501ZM15.1867 4.08167L12.65 5.19167L10.1133 4.08167L12.65 2.97167L15.1867 4.08167ZM8.99 5.22834L11.8667 6.48834V10.3617L8.99 9.10167V5.22834ZM13.43 10.3617V6.48834L16.3067 5.22834V9.10167L13.43 10.3617Z" fill="black"/>
<path d="M23.97 17.6817C23.8667 17.105 23.72 16.535 23.5333 15.9783L23.5067 15.9083L23.45 15.855C23.2278 15.6617 20.9089 15.7906 16.4933 16.2417C16.47 15.5483 15.94 14.9783 15.25 14.905L8.45333 14.115L7.40333 13.295L0 11.305V20.5583L0.596667 20.7383C2.45667 21.2917 5.46667 22.205 6.29667 22.4917C6.51 22.6517 6.82667 22.665 7.29667 22.665H7.88333C8.50333 22.665 9.33333 22.6417 10.16 22.625C11.8267 22.5917 13.4667 22.5517 13.4667 22.5517H13.59L23 19.375C23.7033 19.135 24.1167 18.4083 23.97 17.6817ZM1.66667 13.4883L6.66667 14.825L7.80667 15.735L14.83 16.555V17.6283H7.35333V19.2983H14.87C15.66 19.2917 16.33 18.715 16.4567 17.935C18.44 17.7417 21 17.4683 22.2133 17.3617C22.24 17.4983 22.27 17.655 22.31 17.845L13.31 20.8783C11.07 20.9317 7.64333 21.005 7.00667 20.9917C6.39 20.725 5.09 20.3217 1.67333 19.3217L1.66667 13.4917V13.4883Z" fill="black"/>
</g>
<defs>
<clipPath id="clip0_15805_64179">
<rect width="23.9994" height="24" fill="white"/>
</clipPath>
</defs>
</svg>
