<?xml version="1.0" encoding="UTF-8"?>
<svg width="24px" height="24px" viewBox="0 0 24 24" version="1.1" xmlns="http://www.w3.org/2000/svg" xmlns:xlink="http://www.w3.org/1999/xlink">
    <title>Icon/Outline/manufacturer-outline</title>
    <g id="Icon/Outline/manufacturer-outline" stroke="none" stroke-width="1" fill="none" fill-rule="evenodd">
        <g id="Group" fill="#474747" fill-rule="nonzero">
            <g id="Outline">
                <path d="M3.16984658,19.0704221 L7.56250933,19.0704221 L7.56250933,14.7377501 L3.16984658,14.7377501 L3.16984658,19.0704221 Z M6.12272913,16.1608662 L6.12272913,17.6639701 L4.61295961,17.6639701 L4.61295961,16.1608662 L6.12272913,16.1608662 Z" id="Shape"></path>
                <path d="M21.9369816,10.3317561 L21.9369816,4.43598947 C21.9369816,4.39181344 21.9727934,4.35600168 22.0169694,4.35600168 L23.1034702,4.35600168 C23.1476462,4.35600168 23.183458,4.32018993 23.183458,4.27601389 L23.183458,0.0799877891 C23.183458,0.035811753 23.1476462,0 23.1034702,0 L16.6177936,0 C16.5736176,0 16.5378058,0.035811753 16.5378058,0.0799877891 L16.5378058,4.27601389 C16.5378058,4.32018993 16.5736176,4.35600168 16.6177936,4.35600168 L17.3810104,4.35600168 C17.4257564,4.35596587 17.4625412,4.3912793 17.4643311,4.43598947 L17.4643311,10.3317561 C17.46435,10.3535605 17.4554668,10.3744275 17.4397374,10.3895277 C17.424008,10.404628 17.4027959,10.4126524 17.3810104,10.4117439 L15.0247035,10.4117439 C15.0029181,10.4126524 14.9817059,10.404628 14.9659765,10.3895277 C14.9502472,10.3744275 14.9413639,10.3535605 14.9413829,10.3317561 L14.9413829,1.48310692 C14.9429877,1.44882499 14.9216105,1.41765404 14.8890522,1.40680127 C14.8564939,1.3959485 14.8206896,1.40805897 14.8014042,1.43644738 L10.4687323,6.80896055 C10.447697,6.83622719 10.411571,6.84696947 10.3790549,6.83562665 C10.3465388,6.82428383 10.3249327,6.79340242 10.3254209,6.75896818 L10.3254209,3.09286118 C10.3299545,3.06759565 10.3220871,3.04168931 10.3042693,3.02321158 C10.2864515,3.00473386 10.2608483,2.99592993 10.2354346,2.99954209 L1.5167656,2.99954209 C1.10856228,2.96637176 0.70624162,3.1132057 0.415368337,3.40151622 C0.124495053,3.68982675 -0.0258934246,4.09083226 0.00366325783,4.49931314 L0.00366325783,23.9963367 L23.9200122,23.9963367 C23.9641882,23.9963367 24,23.960525 24,23.916349 L24,10.4784004 C24,10.4342243 23.9641882,10.3984126 23.9200122,10.3984126 L22.0169694,10.3984126 C21.9769921,10.400488 21.9421492,10.3714523 21.9369816,10.3317561 Z M22.4669007,11.9981684 L22.4669007,22.4032466 C22.4669007,22.4474226 22.431089,22.4832344 22.3869129,22.4832344 L1.59342057,22.4832344 C1.54924453,22.4832344 1.51343274,22.4474226 1.51343274,22.4032466 L1.51343274,4.59929788 C1.51343274,4.57837687 1.521945,4.55835677 1.53704973,4.54388141 C1.55215445,4.52940604 1.57251934,4.52173329 1.59342057,4.52264291 L8.70233533,4.52264291 C8.72323656,4.52173329 8.74360144,4.52940604 8.75870617,4.54388141 C8.77381089,4.55835677 8.7823429,4.57837687 8.78232312,4.59929788 L8.78232312,11.4649164 C8.78324152,11.4987408 8.80534387,11.5283281 8.83751833,11.5388035 C8.86969279,11.5492789 8.90497802,11.5383759 8.92563457,11.511576 L13.2583065,5.84577426 C13.278963,5.81897431 13.3142483,5.80807134 13.3464227,5.81854674 C13.3785972,5.82902215 13.4006995,5.85860945 13.4016179,5.8924338 L13.4016179,11.8315271 C13.4016179,11.8757032 13.4374297,11.9115149 13.4816057,11.9115149 L18.9174426,11.9115149 C18.939228,11.9124235 18.9604401,11.904399 18.9761695,11.8892988 C18.9918989,11.8741986 19.0007821,11.8533315 19.0007632,11.8315271 L19.0007632,4.43598947 C19.0007632,4.39181344 19.0365749,4.35600168 19.080751,4.35600168 L20.333893,4.35600168 C20.378069,4.35600168 20.4138808,4.39181344 20.4138808,4.43598947 L20.4138808,11.8315271 C20.4138808,11.8757032 20.4496925,11.9115149 20.4938686,11.9115149 L22.4002442,11.9115149 C22.4418153,11.9183394 22.4709678,11.9562376 22.4669007,11.9981684 L22.4669007,11.9981684 Z M21.6670422,1.59309013 L21.6670422,2.76291155 C21.6670422,2.80708759 21.6312111,2.84289934 21.587035,2.84289934 L18.1542257,2.84289934 C18.1324403,2.84380786 18.1112282,2.83578341 18.0954988,2.82068319 C18.0797694,2.80558297 18.0709051,2.78471591 18.0709051,2.76291155 L18.0709051,1.59309013 C18.0709051,1.57128577 18.0797694,1.55041871 18.0954988,1.53531849 C18.1112282,1.52021827 18.1324403,1.51219382 18.1542257,1.51310234 L21.5703709,1.51310234 C21.5942836,1.50800258 21.6192155,1.51411994 21.638052,1.52970877 C21.6568885,1.5452976 21.6675606,1.56864558 21.6670422,1.59309013 Z" id="Shape"></path>
                <path d="M9.79216895,19.0704221 L14.1881645,19.0704221 L14.1881645,14.7377501 L9.79216895,14.7377501 L9.79216895,19.0704221 Z M12.7450515,16.1608662 L12.7450515,17.6639701 L11.235282,17.6639701 L11.235282,16.1608662 L12.7450515,16.1608662 Z" id="Shape"></path>
                <path d="M16.4144913,19.0704221 L20.8104869,19.0704221 L20.8104869,14.7377501 L16.4144913,14.7377501 L16.4144913,19.0704221 Z M19.3673739,16.1608662 L19.3673739,17.6639701 L17.8576044,17.6639701 L17.8576044,16.1608662 L19.3673739,16.1608662 Z" id="Shape"></path>
            </g>
        </g>
    </g>
</svg>