<svg width="24" height="24" viewBox="0 0 24 24" fill="none" xmlns="http://www.w3.org/2000/svg">
<path d="M24 21.8333V4.42001L15.6367 2.16667L15.6167 2.23667C15.6167 2.23667 15.6067 2.23667 15.6 2.23334C15.4633 2.19001 15.31 2.19001 15.16 2.23334L8.54 4.27001L0.95 2.22667C0.723333 2.16667 0.483333 2.21334 0.296667 2.35667C0.11 2.50001 0 2.72001 0 2.95667V18.8067C0 19.15 0.23 19.4467 0.556667 19.5367L8.33333 21.63L8.35667 21.6367C8.42 21.6533 8.48667 21.6633 8.55333 21.6633C8.62667 21.6633 8.70333 21.6533 8.77333 21.63L15.45 19.5733C15.49 19.5733 15.53 19.5667 15.5667 19.56L23.9933 21.83L24 21.8333ZM9.24333 5.63667L14.6967 3.95667V18.2233L9.24333 19.9033V5.63667ZM22.49 19.86L16.2067 18.1667V3.88667L22.49 5.58V19.8633V19.86ZM1.50667 3.94334L7.73667 5.62001V19.9033L1.50667 18.2267V3.94334Z" fill="black"/>
</svg>
