<svg width="24" height="24" viewBox="0 0 24 24" fill="none" xmlns="http://www.w3.org/2000/svg">
<g clip-path="url(#clip0_15805_64174)">
<path d="M17.0134 4.18333C16.7668 3.41666 16.3468 2.69666 15.7434 2.08666L15.7234 2.07C14.7234 1.07 13.3934 0.523331 11.9734 0.523331C10.5534 0.523331 9.22008 1.07333 8.20342 2.09C7.28342 3.02 6.78342 4.20666 6.69008 5.42333L0.953418 3.87333C0.726751 3.81333 0.486751 3.86 0.300085 4.00333C0.113418 4.14666 0.00341797 4.36666 0.00341797 4.60333V20.4533C0.00341797 20.7967 0.233418 21.0933 0.560085 21.1833L8.33675 23.2767L8.36008 23.2833C8.42342 23.3 8.49008 23.31 8.55675 23.31C8.63008 23.31 8.70675 23.3 8.77675 23.2767L15.4534 21.22C15.4934 21.22 15.5334 21.2133 15.5701 21.2067L23.9968 23.4767V6.06333L17.0068 4.18L17.0134 4.18333ZM7.74008 21.55L1.51008 19.8733V5.59L6.81342 7.01666C6.97675 7.72333 7.28342 8.40333 7.74008 9.00666V21.55ZM14.7034 19.8733L9.25008 21.5533V10.5967L11.9768 13.3233L14.7034 10.5967V19.8733ZM14.7267 8.57L11.9768 11.32L9.22675 8.57C8.46342 7.80666 8.09008 6.80333 8.09675 5.79666C8.10342 4.81 8.48008 3.82333 9.23008 3.07C9.96008 2.34 10.9368 1.93666 11.9801 1.93666C13.0234 1.93666 14.0034 2.34333 14.7434 3.08333C14.9768 3.32 15.1701 3.58 15.3301 3.85666C16.2001 5.34666 16.0034 7.29666 14.7301 8.57H14.7267ZM22.4968 21.5067L16.2134 19.8133V9.00666C16.9201 8.06666 17.2801 6.94333 17.2801 5.81666L22.5001 7.22333V21.5067H22.4968Z" fill="black"/>
<path d="M11.9768 8.13C11.2101 8.13 10.5034 7.77666 10.0401 7.16C9.72009 6.73666 9.55342 6.23333 9.55342 5.70666C9.55342 5.62666 9.55675 5.54666 9.56675 5.46666C9.69008 4.22 10.7268 3.28 11.9801 3.28C12.7001 3.28 13.3768 3.59666 13.8401 4.15C14.2034 4.58666 14.4034 5.13666 14.4034 5.70333C14.4034 5.73333 14.4034 5.76666 14.4001 5.79666C14.3401 7.11 13.2768 8.12666 11.9801 8.12666L11.9768 8.13ZM11.9768 4.45666C11.3301 4.45666 10.7968 4.94 10.7334 5.58333C10.7301 5.62333 10.7268 5.66333 10.7268 5.70666C10.7268 5.97666 10.8134 6.23666 10.9768 6.45333C11.2168 6.77333 11.5801 6.95666 11.9768 6.95666C12.6468 6.95666 13.1934 6.43333 13.2234 5.76333V5.72C13.2268 5.41666 13.1234 5.13 12.9368 4.90666C12.6968 4.62 12.3468 4.45666 11.9768 4.45666Z" fill="black"/>
</g>
<defs>
<clipPath id="clip0_15805_64174">
<rect width="24" height="24" fill="white"/>
</clipPath>
</defs>
</svg>
