<?xml version="1.0" encoding="UTF-8"?>
<svg width="24px" height="24px" viewBox="0 0 24 24" version="1.1" xmlns="http://www.w3.org/2000/svg" xmlns:xlink="http://www.w3.org/1999/xlink">
    <title>Icon/Outline/marketing-outline</title>
    <g id="Icon/Outline/marketing-outline" stroke="none" stroke-width="1" fill="none" fill-rule="evenodd">
        <g id="Group" transform="translate(0.000000, 2.000000)" fill="#474747" fill-rule="nonzero">
            <g id="Outline">
                <path d="M2.48191321,10.7923945 L2.48191321,20.2173965 L6.95762191,20.2173965 L6.95762191,12.6133609 L7.48123314,12.6133609 L7.48123314,12.6300364 L14.5483171,14.6310984 L14.5483171,16.1519055 L18.5937975,16.1519055 L18.5937975,0 L14.544982,0 L14.544982,1.61419002 L7.71469037,3.56856059 L2.48191321,3.56856059 L2.48191321,5.38285681 C1.07803887,5.50372018 0,6.67855816 0,8.08762563 C0,9.4966931 1.07803887,10.6715311 2.48191321,10.7923945 Z M15.995752,1.43742955 L17.156368,1.43742955 L17.156368,14.7211462 L15.995752,14.7211462 L15.995752,1.43742955 Z M8.35169511,4.89593172 L14.544982,3.10498122 L14.544982,13.1536476 L8.35169511,11.3660322 L8.35169511,4.89593172 Z M3.92601296,10.5089107 L3.92601296,5.01266034 L6.92760598,5.01266034 L6.92760598,11.1725962 L3.92601296,11.1725962 L3.92601296,10.5089107 Z M3.92601296,12.616696 L5.51352216,12.616696 L5.51352216,18.779967 L3.92601296,18.779967 L3.92601296,12.616696 Z M2.48191321,6.83362677 L2.48191321,9.33828939 C1.87207819,9.23353114 1.42636593,8.70472544 1.42636593,8.08595808 C1.42636593,7.46719072 1.87207819,6.93838502 2.48191321,6.83362677 Z" id="Shape"></path>
                <path d="M20.2079875,7.33389227 L23.2429316,7.33389227 C23.642475,7.36039629 23.9530038,7.69220676 23.9530038,8.09262829 C23.9530038,8.49304982 23.642475,8.82486028 23.2429316,8.8513643 L20.2079875,8.8513643 C19.924911,8.8701424 19.654921,8.72977489 19.5076819,8.48727625 C19.3604429,8.24477762 19.3604429,7.94047896 19.5076819,7.69798032 C19.654921,7.45548169 19.924911,7.31511417 20.2079875,7.33389227 Z" id="Path"></path>
                <path d="M20.2079875,2.77147089 L23.2429316,2.77147089 C23.642475,2.79797491 23.9530038,3.12978537 23.9530038,3.5302069 C23.9530038,3.93062843 23.642475,4.26243889 23.2429316,4.28894291 L20.2079875,4.28894291 C19.924911,4.30772101 19.654921,4.1673535 19.5076819,3.92485486 C19.3604429,3.68235623 19.3604429,3.37805757 19.5076819,3.13555893 C19.654921,2.8930603 19.924911,2.75269279 20.2079875,2.77147089 L20.2079875,2.77147089 Z" id="Path"></path>
                <path d="M20.2079875,11.9963668 L23.2429316,11.9963668 C23.6610489,11.9963668 24,12.3353179 24,12.7534352 C24,13.1715526 23.6610489,13.5105037 23.2429316,13.5105037 L20.2079875,13.5105037 C19.937513,13.5105037 19.6875842,13.3662073 19.552347,13.1319695 C19.4171097,12.8977317 19.4171097,12.6091388 19.552347,12.374901 C19.6875842,12.1406632 19.937513,11.9963668 20.2079875,11.9963668 L20.2079875,11.9963668 Z" id="Path"></path>
            </g>
        </g>
    </g>
</svg>