<?xml version="1.0" encoding="UTF-8"?>
<svg width="24px" height="24px" viewBox="0 0 24 24" version="1.1" xmlns="http://www.w3.org/2000/svg" xmlns:xlink="http://www.w3.org/1999/xlink">
    <title>Icon/Outline/meeting-room-outline</title>
    <g id="Icon/Outline/meeting-room-outline" stroke="none" stroke-width="1" fill="none" fill-rule="evenodd">
        <g id="Group" transform="translate(0.000000, 7.000000)" fill="#474747" fill-rule="nonzero">
            <g id="Outline">
                <path d="M6.82666667,3.12004523 C7.4579308,3.12004523 8.02697315,2.73960032 8.26823489,2.15625893 C8.50949664,1.57291755 8.37541758,0.901673002 7.92856928,0.455779513 C7.48172099,0.00988602427 6.81019118,-0.122756918 6.2273672,0.119752063 C5.64454321,0.362261044 5.26531781,0.932115878 5.26666308,1.56337857 C5.26850484,2.42364074 5.96640253,3.12004523 6.82666667,3.12004523 L6.82666667,3.12004523 Z M5.99999318,1.56337857 C5.99865056,1.23141952 6.1975793,0.931396257 6.503883,0.803424899 C6.81018671,0.675453541 7.16342866,0.74478409 7.39863867,0.979037965 C7.63384869,1.21329184 7.70461752,1.56624846 7.57789489,1.87307089 C7.45117226,2.17989332 7.15196179,2.38004523 6.82,2.38004523 C6.36842507,2.38004523 6.00183567,2.01494977 5.99999318,1.56337857 Z" id="Shape"></path>
                <path d="M12,3.12004523 C12.6312641,3.12004523 13.2003065,2.73960032 13.4415682,2.15625893 C13.68283,1.57291755 13.5487509,0.901673002 13.1019026,0.455779513 C12.6550543,0.00988602427 11.9835245,-0.122756918 11.4007005,0.119752063 C10.8178765,0.362261044 10.4386511,0.932115878 10.4399964,1.56337857 C10.4418382,2.42364074 11.1397359,3.12004523 12,3.12004523 L12,3.12004523 Z M11.1799932,1.56337857 C11.1786506,1.23141952 11.3775793,0.931396257 11.683883,0.803424899 C11.9901867,0.675453541 12.3434287,0.74478409 12.5786387,0.979037965 C12.8138487,1.21329184 12.8846175,1.56624846 12.7578949,1.87307089 C12.6311723,2.17989332 12.3319618,2.38004523 12,2.38004523 C11.5484251,2.38004523 11.1818357,2.01494977 11.1799932,1.56337857 Z" id="Shape"></path>
                <path d="M17.1766667,3.12004523 C17.8079308,3.12004523 18.3769731,2.73960032 18.6182349,2.15625893 C18.8594966,1.57291755 18.7254176,0.901673002 18.2785693,0.455779513 C17.831721,0.00988602427 17.1601912,-0.122756918 16.5773672,0.119752063 C15.9945432,0.362261044 15.6153178,0.932115878 15.6166631,1.56337857 C15.6185048,2.42364074 16.3164025,3.12004523 17.1766667,3.12004523 L17.1766667,3.12004523 Z M16.3566598,1.56337857 C16.3553172,1.23141952 16.554246,0.931396257 16.8605497,0.803424899 C17.1668534,0.675453541 17.5200953,0.74478409 17.7553053,0.979037965 C17.9905154,1.21329184 18.0612842,1.56624846 17.9345616,1.87307089 C17.8078389,2.17989332 17.5086285,2.38004523 17.1766667,2.38004523 C16.7250917,2.38004523 16.3585023,2.01494977 16.3566598,1.56337857 L16.3566598,1.56337857 Z" id="Shape"></path>
                <path d="M20.7633333,5.5467119 C20.6733333,5.33004523 20.3966667,5.13337857 19.6933333,5.13337857 L19.5066667,5.13337857 L19.5066667,3.8667119 C19.505807,3.7349602 19.4274229,3.61607756 19.3066667,3.56337857 C17.9397371,3.00840817 16.4102629,3.00840817 15.0433333,3.56337857 C14.9225771,3.61607756 14.844193,3.7349602 14.8433333,3.8667119 L14.8433333,5.13337857 L14.3333333,5.13337857 L14.3333333,3.8667119 C14.3330601,3.73574542 14.2561197,3.61707465 14.1366667,3.56337857 C12.7687599,3.00750554 11.2379067,3.00750554 9.87,3.56337857 C9.75054699,3.61707465 9.6736066,3.73574542 9.67333333,3.8667119 L9.67333333,5.13337857 L9.15666667,5.13337857 L9.15666667,3.8667119 C9.15580704,3.7349602 9.07742288,3.61607756 8.95666667,3.56337857 C8.28301051,3.27904633 7.55780732,3.13718342 6.82666667,3.1467119 C6.09442336,3.13691526 5.36807751,3.27877969 4.69333333,3.56337857 C4.57257712,3.61607756 4.49419296,3.7349602 4.49333333,3.8667119 L4.49333333,5.13337857 L4.30666667,5.13337857 C3.60333333,5.13337857 3.32666667,5.33004523 3.23666667,5.5467119 L0,10.0867119 L0,10.2300452 C0,10.5067119 0.193333333,10.8367119 1.10666667,10.8367119 L22.8933333,10.8367119 C23.8066667,10.8367119 24,10.5033786 24,10.2300452 L24,10.0867119 L20.7633333,5.5467119 Z M1.20333333,9.94004523 L3.97333333,6.0567119 C4.08338352,6.03755615 4.19497073,6.02862917 4.30666667,6.03004523 L19.6933333,6.03004523 C19.8050293,6.02862917 19.9166165,6.03755615 20.0266667,6.0567119 L22.7966667,9.94004523 L1.20333333,9.94004523 Z M15.5833333,4.14337857 C16.6188038,3.81348412 17.7311962,3.81348412 18.7666667,4.14337857 L18.7666667,5.14337857 L15.5833333,5.14337857 L15.5833333,4.14337857 Z M10.41,4.14337857 C10.9207816,3.96498318 11.45903,3.87809612 12,3.8867119 C12.5405815,3.88330322 13.0779487,3.97004802 13.59,4.14337857 L13.59,5.14337857 L10.41,5.14337857 L10.41,4.14337857 Z M5.23333333,4.14337857 C6.26880379,3.81348412 7.38119621,3.81348412 8.41666667,4.14337857 L8.41666667,5.14337857 L5.23333333,5.14337857 L5.23333333,4.14337857 Z" id="Shape"></path>
            </g>
        </g>
    </g>
</svg>