<?xml version="1.0" encoding="UTF-8"?>
<svg width="24px" height="24px" viewBox="0 0 24 24" version="1.1" xmlns="http://www.w3.org/2000/svg" xmlns:xlink="http://www.w3.org/1999/xlink">
    <title>Icon/Outline/meeting-outline</title>
    <g id="Icon/Outline/meeting-outline" stroke="none" stroke-width="1" fill="none" fill-rule="evenodd">
        <g id="Group" transform="translate(0.000000, 1.000000)" fill="#474747" fill-rule="nonzero">
            <g id="Outline">
                <path d="M16.5134493,17.7247789 L16.82,17.8666667 L17.12,18.01 L17.12,18.4533333 C19.0850794,17.7739683 21.5550718,17.8323205 23.4242652,18.6427873 L23.7,18.77 L24,18.9133333 L24,22.4933333 L0,22.4933333 L0,18.9133333 L0.3,18.77 C2.12222222,17.8842857 4.57029478,17.7514059 6.58169744,18.3569633 L6.88,18.4533333 L6.88,18.01 L7.18,17.8666667 C9.89928571,16.542381 13.7157908,16.495085 16.5134493,17.7247789 Z M1.3832027,19.4653913 L1.07,19.58 L1.07,21.4366667 L6.88,21.4366667 L6.88,19.58 C5.1155577,18.8923481 3.16799204,18.8541452 1.3832027,19.4653913 Z M8.29054194,18.5556469 L7.95,18.6866667 L7.95,21.42 L16.05,21.42 L16.05,18.6866667 C13.5650629,17.6821816 10.7998508,17.6385083 8.29054194,18.5556469 Z M17.4332027,19.4653913 L17.12,19.58 L17.12,21.42 L22.93,21.42 L22.93,19.58 C21.1655577,18.8923481 19.217992,18.8541452 17.4332027,19.4653913 Z M22.3177445,12.2879492 C23.1182761,13.0894349 23.3570087,14.2943112 22.9225714,15.340492 C22.4881342,16.3866728 21.46613,17.0680152 20.3333333,17.0666687 C18.7889994,17.0629951 17.5384986,15.8110039 17.5366667,14.2666667 C17.5366667,13.1338692 18.2192268,12.1126774 19.2659244,11.6794866 C20.312622,11.2462958 21.517213,11.4864635 22.3177445,12.2879492 Z M3.66666667,11.4666667 C5.21306397,11.4666667 6.46666667,12.7202694 6.46666667,14.2666667 C6.46666667,15.813064 5.21306397,17.0666667 3.66666667,17.0666667 C2.12026937,17.0666667 0.866666667,15.813064 0.866666667,14.2666667 C0.866666667,12.7202694 2.12026937,11.4666667 3.66666667,11.4666667 Z M20.3333333,12.5399968 C19.3797217,12.5399968 18.6066634,13.313055 18.6066634,14.2666667 C18.6053186,14.9669912 19.0263247,15.5990448 19.6730831,15.8676705 C20.3198416,16.1362961 21.0647531,15.9884967 21.5599582,15.4932915 C22.0551633,14.9980864 22.2029628,14.2531749 21.9343371,13.6064164 C21.6657114,12.959658 21.0336579,12.5386519 20.3333333,12.5399968 Z M3.66666667,12.5399968 C3.20814893,12.5391148 2.76810768,12.7206401 2.44357357,13.0445489 C2.11903946,13.3684577 1.93666343,13.8081481 1.93666343,14.2666667 C1.93531788,14.9666881 2.35596261,15.5985312 3.00231137,15.8673529 C3.64866013,16.1361746 4.39331004,15.9889871 4.88877797,15.4944738 C5.3842459,14.9999605 5.53286933,14.2555959 5.26529468,13.6087299 C4.99772004,12.9618638 4.36668941,12.5399968 3.66666667,12.5399968 Z M14.2847051,9.17151708 C15.3044094,10.1883516 15.6103311,11.7197257 15.0595657,13.050292 C14.5088004,14.3808584 13.2100512,15.2480062 11.77,15.2466682 C9.81295816,15.2430232 8.22582547,13.6603571 8.2166415,11.7033333 C8.21126878,10.2632916 9.074753,8.96210381 10.4037619,8.40759081 C11.7327707,7.85307781 13.2650009,8.15468256 14.2847051,9.17151708 Z M11.77,9.20666442 L11.77,9.22 C10.4044345,9.22179985 9.29581807,10.324464 9.28666442,11.69 C9.28531855,12.6963682 9.89068077,13.6043302 10.8201864,13.9900736 C11.7496921,14.3758171 12.8200596,14.1632804 13.53167,13.45167 C14.2432804,12.7400596 14.4558171,11.6696921 14.0700736,10.7401864 C13.6843302,9.81068077 12.7763682,9.20531855 11.77,9.20666442 Z M18.9466667,0 C21.4926994,0 23.5566667,2.0639673 23.5566667,4.61 C23.5548283,7.15527082 21.4919375,9.21816159 18.9466667,9.22 C16.400634,9.22 14.3366667,7.1560327 14.3366667,4.61 C14.3366667,2.0639673 16.400634,0 18.9466667,0 Z M18.9466667,0.996666667 C16.9510778,0.996666667 15.3333333,2.6144111 15.3333333,4.61 C15.3333333,6.6055889 16.9510778,8.22333333 18.9466667,8.22333333 C20.9422556,8.22333333 22.56,6.6055889 22.56,4.61 C22.5581623,2.6151728 20.9414939,0.998504371 18.9466667,0.996666667 Z M19.3833333,1.70666667 L19.3833333,4.25 L21.6766667,4.25 L21.6766667,5.26333333 L18.3866667,5.26333333 L18.3866667,1.70666667 L19.3833333,1.70666667 Z" id="Combined-Shape"></path>
            </g>
        </g>
    </g>
</svg>