<svg width="24" height="24" viewBox="0 0 24 24" fill="none" xmlns="http://www.w3.org/2000/svg">
<g clip-path="url(#clip0_15805_64182)">
<path d="M18.0598 5.60667H16.3398L15.9165 7.38333C15.5332 6.49667 14.5965 5.32333 12.3265 5.32333C8.90317 5.32333 6.32317 8.70667 6.32317 13.1967C6.32317 16.9633 8.45984 18.3067 10.4598 18.3067C12.1765 18.3067 13.4632 17.6467 14.4732 16.2367C14.5265 16.7767 14.7098 17.2167 15.0232 17.5567C15.4865 18.0567 16.2165 18.31 17.1865 18.31C20.8032 18.31 23.3332 14.8633 23.3332 9.93C23.3332 4.08333 19.0398 0 12.8898 0C5.69317 0 0.666504 5.18333 0.666504 12.6067C0.666504 19.53 4.94317 24 11.5632 24C15.3132 24 17.5198 22.9533 18.7098 22.0767L18.8198 21.9967L18.2098 20.39L18.0232 20.5133C16.3098 21.6333 14.1632 22.2033 11.6465 22.2033C9.12984 22.2033 6.8565 21.3367 5.2365 19.6933C3.52984 17.9633 2.5965 15.4467 2.60984 12.61C2.63984 6.11 6.7265 1.74667 12.7798 1.74667C18.0298 1.74667 21.4232 5.00333 21.4232 10.0467C21.4232 13.95 19.8032 16.57 17.3898 16.57C16.9232 16.57 16.5965 16.4467 16.3932 16.1933C16.0832 15.8033 16.0398 15.0767 16.2632 14.0267L18.0632 5.61L18.0598 5.60667ZM12.2965 7.04C13.3132 7.04 14.0632 7.33667 14.5265 7.92333C15.1632 8.72667 15.2765 10.05 14.8632 11.86C14.1465 15.07 12.8198 16.5667 10.6832 16.5667C9.0665 16.5667 8.1765 15.32 8.1765 13.0567C8.1765 8.92333 10.3098 7.04 12.2965 7.04Z" fill="black"/>
</g>
<defs>
<clipPath id="clip0_15805_64182">
<rect width="24" height="24" fill="white"/>
</clipPath>
</defs>
</svg>
