<?xml version="1.0" encoding="UTF-8"?>
<svg width="24px" height="24px" viewBox="0 0 24 24" version="1.1" xmlns="http://www.w3.org/2000/svg" xmlns:xlink="http://www.w3.org/1999/xlink">
    <title>Icon/Outline/microphone-outline</title>
    <g id="Icon/Outline/microphone-outline" stroke="none" stroke-width="1" fill="none" fill-rule="evenodd">
        <g id="Group" transform="translate(4.000000, 0.000000)" fill="#474747" fill-rule="nonzero">
            <g id="Outline">
                <path d="M16.5666667,12.0566667 L15.07,12.0566667 C15.07,15.8048392 12.0315058,18.8433333 8.28333333,18.8433333 C4.53516083,18.8433333 1.49666667,15.8048392 1.49666667,12.0566667 L0,12.0566667 C0.0046675573,16.3397416 3.27131009,19.9141218 7.53666667,20.3033333 L7.53666667,22.5033333 L4.28333333,22.5033333 L4.28333333,24 L12.2833333,24 L12.2833333,22.5033333 L9.03333333,22.5033333 L9.03333333,20.3033333 C13.2966225,19.9109995 16.5605901,16.3379659 16.5666667,12.0566667 Z" id="Path"></path>
                <path d="M8.28333333,17.1233333 C10.8606622,17.1233333 12.95,15.0339955 12.95,12.4566667 L12.95,4.66666667 C12.95,2.08933783 10.8606622,0 8.28333333,0 C5.7060045,0 3.61666667,2.08933783 3.61666667,4.66666667 L3.61666667,12.4666667 C3.62218116,15.0400894 5.7099047,17.1233333 8.28333333,17.1233333 L8.28333333,17.1233333 Z M8.28333333,15.6266667 C6.5388751,15.6248294 5.12517057,14.2111249 5.12333333,12.4666667 L5.12333333,6.66666667 L11.4433333,6.66666667 L11.4433333,12.4666667 C11.4414961,14.2111249 10.0277916,15.6248294 8.28333333,15.6266667 L8.28333333,15.6266667 Z M8.28333333,1.49666667 C9.12315293,1.49666667 9.92843049,1.83096244 10.5213337,2.42574197 C11.114237,3.0205215 11.445991,3.82685127 11.4433492,4.66666667 L11.4433492,5.18666667 L5.12665962,5.18666667 L5.12665962,4.66666667 C5.12489669,3.82769794 5.4564792,3.02238827 6.04846944,2.42789754 C6.64045968,1.83340682 7.4443646,1.49843291 8.28333333,1.49666667 L8.28333333,1.49666667 Z" id="Shape"></path>
            </g>
        </g>
    </g>
</svg>