<?xml version="1.0" encoding="UTF-8"?>
<svg width="24px" height="24px" viewBox="0 0 24 24" version="1.1" xmlns="http://www.w3.org/2000/svg" xmlns:xlink="http://www.w3.org/1999/xlink">
    <title>Icon/Outline/minimize-outline</title>
    <g id="Icon/Outline/minimize-outline" stroke="none" stroke-width="1" fill="none" fill-rule="evenodd">
        <g id="Group" transform="translate(-0.000000, -0.000000)" fill="#474747" fill-rule="nonzero">
            <g id="minimize">
                <path d="M7.5,0 L9,0 L9,9 L-3.62973703e-23,9 L-3.62973703e-23,7.5 L7.5,7.5 L7.5,0 Z M15.0000001,0 L16.5000001,0 L16.5000001,7.5 L24.0000001,7.5 L24.0000001,9 L15.0000001,9 L15.0000001,0 Z M15.0000001,15.0000001 L24.0000001,15.0000001 L24.0000001,16.5000001 L16.5000001,16.5000001 L16.5000001,24.0000001 L15.0000001,24.0000001 L15.0000001,15.0000001 Z M1.86517468e-14,15.0000001 L9,15.0000001 L9,24.0000001 L7.5,24.0000001 L7.5,16.5000001 L1.86517468e-14,16.5000001 L1.86517468e-14,15.0000001 Z" id="Combined-Shape"></path>
            </g>
        </g>
    </g>
</svg>