<?xml version="1.0" encoding="UTF-8"?>
<svg width="24px" height="24px" viewBox="0 0 24 24" version="1.1" xmlns="http://www.w3.org/2000/svg" xmlns:xlink="http://www.w3.org/1999/xlink">
    <title>Icon/Outline/moon-outline</title>
    <g id="Icon/Outline/moon-outline" stroke="none" stroke-width="1" fill="none" fill-rule="evenodd">
        <g id="Icon" fill="#474747" fill-rule="nonzero">
            <path d="M2.1125,11.5 C2.1125,10.3333333 2.3,9.20208333 2.675,8.10625 C3.05,7.01041667 3.5875,6.00208333 4.2875,5.08125 C4.9875,4.16041667 5.8125,3.3875 6.7625,2.7625 C6.59583333,3.27916667 6.46666667,3.81875 6.375,4.38125 C6.28333333,4.94375 6.2375,5.53333333 6.2375,6.15 C6.2375,8.6 6.71666667,10.6979167 7.675,12.44375 C8.63333333,14.1895833 10.00625,15.5291667 11.79375,16.4625 C13.58125,17.3958333 15.7208333,17.8625 18.2125,17.8625 C18.7541667,17.8625 19.2666667,17.8291667 19.75,17.7625 C20.2333333,17.6958333 20.6958333,17.5875 21.1375,17.4375 C20.5541667,18.3625 19.8166667,19.1583333 18.925,19.825 C18.0333333,20.4916667 17.0375,21.0041667 15.9375,21.3625 C14.8375,21.7208333 13.6875,21.9 12.4875,21.9 C10.9875,21.9 9.60416667,21.64375 8.3375,21.13125 C7.07083333,20.61875 5.97291667,19.8958333 5.04375,18.9625 C4.11458333,18.0291667 3.39375,16.9291667 2.88125,15.6625 C2.36875,14.3958333 2.1125,13.0083333 2.1125,11.5 Z M18.55,15.925 C16.425,15.925 14.5895833,15.5208333 13.04375,14.7125 C11.4979167,13.9041667 10.30625,12.7520833 9.46875,11.25625 C8.63125,9.76041667 8.2125,7.98333333 8.2125,5.925 C8.2125,5.05 8.27916667,4.24583333 8.4125,3.5125 C8.54583333,2.77916667 8.72083333,2.2 8.9375,1.775 C9.0375,1.59166667 9.10208333,1.43958333 9.13125,1.31875 C9.16041667,1.19791667 9.175,1.07083333 9.175,0.9375 C9.175,0.7125 9.08541667,0.5 8.90625,0.3 C8.72708333,0.1 8.49583333,0 8.2125,0 C8.1625,0 8.075,0.0125 7.95,0.0375 C7.825,0.0625 7.67083333,0.108333333 7.4875,0.175 C6.02083333,0.775 4.72291667,1.65208333 3.59375,2.80625 C2.46458333,3.96041667 1.58333333,5.29583333 0.95,6.8125 C0.316666667,8.32916667 0,9.9125 0,11.5625 C0,13.3708333 0.30625,15.0291667 0.91875,16.5375 C1.53125,18.0458333 2.39583333,19.3583333 3.5125,20.475 C4.62916667,21.5916667 5.94375,22.4583333 7.45625,23.075 C8.96875,23.6916667 10.6208333,24 12.4125,24 C14.1208333,24 15.7104167,23.7104167 17.18125,23.13125 C18.6520833,22.5520833 19.9416667,21.7270833 21.05,20.65625 C22.1583333,19.5854167 23.0375,18.3125 23.6875,16.8375 C23.7625,16.6625 23.8125,16.5083333 23.8375,16.375 C23.8625,16.2416667 23.875,16.1375 23.875,16.0625 C23.875,15.7791667 23.7833333,15.55625 23.6,15.39375 C23.4166667,15.23125 23.2208333,15.15 23.0125,15.15 C22.8958333,15.15 22.7854167,15.1583333 22.68125,15.175 C22.5770833,15.1916667 22.4458333,15.2375 22.2875,15.3125 C21.9791667,15.4291667 21.6208333,15.5354167 21.2125,15.63125 C20.8041667,15.7270833 20.3729167,15.8 19.91875,15.85 C19.4645833,15.9 19.0083333,15.925 18.55,15.925 Z" id="Shape"></path>
        </g>
    </g>
</svg>