<?xml version="1.0" encoding="UTF-8"?>
<svg width="24px" height="24px" viewBox="0 0 24 24" version="1.1" xmlns="http://www.w3.org/2000/svg" xmlns:xlink="http://www.w3.org/1999/xlink">
    <title>Icon/Outline/mortgage-outline</title>
    <g id="Icon/Outline/mortgage-outline" stroke="none" stroke-width="1" fill="none" fill-rule="evenodd">
        <g id="Group" transform="translate(2.000000, 0.000000)" fill="#474747" fill-rule="nonzero">
            <g id="Group-3">
                <path d="M17.7836877,0 C18.6531878,0.0146111491 19.3466801,0.730474139 19.3338673,1.6 L19.3338673,1.6 L19.3338673,22.4 C19.3466801,23.2695259 18.6531878,23.9853889 17.7836877,24 L17.7836877,24 L1.55035434,24 C0.68085417,23.9853889 -0.012638101,23.2695259 0.000174722322,22.4 L0.000174722322,22.4 L0.000174722322,1.6 C-0.012638101,0.730474139 0.68085417,0.0146111491 1.55035434,0 L1.55035434,0 Z M17.7836877,1.5 L1.55035434,1.5 C1.53035434,1.5 1.487021,1.53333333 1.487021,1.6 L1.487021,1.6 L1.487021,22.4 C1.487021,22.4666667 1.53035434,22.5 1.55035434,22.5 L1.55035434,22.5 L17.7836877,22.5 C17.8036877,22.5 17.847021,22.4666667 17.847021,22.4 L17.847021,22.4 L17.847021,1.6 C17.847021,1.53333333 17.8036877,1.5 17.7836877,1.5 L17.7836877,1.5 Z M15.667021,19.3266667 L15.667021,20.8266667 L3.667021,20.8266667 L3.667021,19.3266667 L15.667021,19.3266667 Z M15.667021,16.16 L15.667021,17.66 L3.667021,17.66 L3.667021,16.16 L15.667021,16.16 Z M9.667021,2.56 L16.1503543,9.42 L14.7503543,9.42 L14.7503543,14.1766667 L4.58368767,14.1766667 L4.58368767,9.42 L3.18368767,9.42 L9.667021,2.56 Z M9.667021,4.79333333 L6.07368767,8.71 L6.07368767,12.6866667 L13.2603543,12.6866667 L13.2603543,8.71 L9.667021,4.79333333 Z" id="Combined-Shape"></path>
            </g>
        </g>
    </g>
</svg>