<?xml version="1.0" encoding="UTF-8"?>
<svg width="24px" height="24px" viewBox="0 0 24 24" version="1.1" xmlns="http://www.w3.org/2000/svg" xmlns:xlink="http://www.w3.org/1999/xlink">
    <title>Icon/Outline/mortgage-payment-outline</title>
    <g id="Icon/Outline/mortgage-payment-outline" stroke="none" stroke-width="1" fill="none" fill-rule="evenodd">
        <g id="Group" transform="translate(0.000000, 1.000000)" fill="#474747" fill-rule="nonzero">
            <g id="Outline">
                <path d="M12,0 L0,12.0933333 L3.51333333,12.0933333 L3.49666667,21.3333333 L20.4666667,21.3333333 L20.4666667,12.0933333 L24,12.0933333 L12,0 Z M12,2.47 L20.4166667,10.58 L19,10.58 L19,12.0933333 L19,19.82 L5,19.82 L5,12.0933333 L5,10.58 L3.57666667,10.5633333 L12,2.47 Z" id="Fill-1"></path>
                <path d="M15.1233333,13.98 C15.1447753,13.395762 14.9461147,12.8247616 14.5666667,12.38 C14.2066667,12 13.54,11.6666667 12.5866667,11.4 L12.5866667,9.30666667 C12.8832972,9.47837842 13.0866083,9.77477177 13.14,10.1133333 L13.14,10.18 L14.87,9.97 L14.87,9.89333333 C14.7827473,9.34034184 14.5114453,8.83297182 14.1,8.45333333 C13.6699714,8.09554025 13.143142,7.87390056 12.5866667,7.81666667 L12.5866667,6.69333333 L11.42,6.69333333 L11.42,7.82 C10.8100166,7.8794791 10.23856,8.14521818 9.8,8.57333333 C9.35923035,9.01435902 9.11831096,9.61665751 9.13333333,10.24 C9.11608332,10.848406 9.32377481,11.4418103 9.71666667,11.9066667 C10.178717,12.3875289 10.7685272,12.7263806 11.4166667,12.8833333 L11.4166667,15.1166667 C11.2666006,15.0192603 11.1327501,14.8989073 11.02,14.76 C10.839785,14.5267733 10.7185701,14.2534681 10.6666667,13.9633333 L10.6666667,13.8966667 L8.89,14.0766667 L8.89,14.1533333 C8.97197429,14.8412154 9.28175169,15.4818914 9.77,15.9733333 C10.2335988,16.3918044 10.8162406,16.6551585 11.4366667,16.7266667 L11.4366667,17.81 L12.6033333,17.81 L12.6033333,16.7 C13.2991895,16.6192668 13.9468872,16.3042342 14.44,15.8066667 C14.8989381,15.3112129 15.1444111,14.6550217 15.1233333,13.98 L15.1233333,13.98 Z M11.0333333,10.6933333 C10.9137506,10.5424252 10.8480466,10.3558727 10.8466667,10.1633333 C10.8475087,9.95368729 10.9191613,9.75047575 11.05,9.58666667 C11.1501526,9.46360599 11.2765752,9.36451801 11.42,9.29666667 L11.42,11 C11.2705505,10.9267847 11.1386599,10.8221818 11.0333333,10.6933333 Z M13.17,14.9033333 C13.0117261,15.0683181 12.8091618,15.1840691 12.5866667,15.2366667 L12.5866667,13.1933333 C12.8247556,13.2592224 13.0417735,13.3855291 13.2166667,13.56 C13.3680977,13.7344119 13.4489342,13.9590899 13.4433333,14.19 C13.4450173,14.4536625 13.3474428,14.7083082 13.17,14.9033333 L13.17,14.9033333 Z" id="Shape"></path>
            </g>
        </g>
    </g>
</svg>