<?xml version="1.0" encoding="UTF-8"?>
<svg width="24px" height="24px" viewBox="0 0 24 24" version="1.1" xmlns="http://www.w3.org/2000/svg" xmlns:xlink="http://www.w3.org/1999/xlink">
    <title>Icon/Outline/move-outline</title>
    <g id="Icon/Outline/move-outline" stroke="none" stroke-width="1" fill="none" fill-rule="evenodd">
        <g id="Group" transform="translate(0.000689, -0.000000)" fill="#474747" fill-rule="nonzero">
            <g id="move">
                <path d="M20.3521103,8.35279935 C20.0833765,8.08406548 19.6465117,8.08406548 19.3777778,8.35279935 C19.109044,8.62153322 19.109044,9.05839798 19.3777778,9.32713185 L21.3608959,11.3102498 L12.6883722,11.3102498 L12.6883722,2.63772611 L14.6728682,4.62222224 C14.8079242,4.75727823 14.9829458,4.8234281 15.1593454,4.8234281 C15.3357451,4.8234281 15.5121448,4.75727823 15.6472007,4.62222224 C15.9159346,4.35348839 15.9159346,3.91662361 15.6472007,3.64788977 L11.999311,0 L8.35279935,3.64788977 C8.08406548,3.91662361 8.08406548,4.35348839 8.35279935,4.62222224 C8.62153322,4.89095609 9.05839798,4.89095609 9.32713185,4.62222224 L11.3102498,2.63910423 L11.3102498,11.3102498 L2.63772611,11.3102498 L4.62222224,9.32713185 C4.89095609,9.05839798 4.89095609,8.62153322 4.62222224,8.35279935 C4.35348839,8.08406548 3.91662361,8.08406548 3.64788977,8.35279935 L0,11.999311 L3.64788977,15.6472007 C3.78294576,15.7822567 3.95796729,15.8484066 4.13436694,15.8484066 C4.3107666,15.8484066 4.48716625,15.7822567 4.62222224,15.6472007 C4.89095609,15.3784669 4.89095609,14.9416021 4.62222224,14.6728682 L2.63772611,12.6883722 L11.3102498,12.6883722 L11.3102498,21.3608959 L9.32713185,19.3777778 C9.05839798,19.109044 8.62153322,19.109044 8.35279935,19.3777778 C8.08406548,19.6465117 8.08406548,20.0833765 8.35279935,20.3521103 L11.999311,24 L15.6472007,20.3521103 C15.9159346,20.0833765 15.9159346,19.6465117 15.6472007,19.3777778 C15.3784669,19.109044 14.9416021,19.109044 14.6728682,19.3777778 L12.6883722,21.362274 L12.6883722,12.6883722 L21.3608959,12.6883722 L19.3777778,14.6728682 C19.109044,14.9416021 19.109044,15.3784669 19.3777778,15.6472007 C19.5128338,15.7822567 19.6892335,15.8484066 19.864255,15.8484066 C20.0406547,15.8484066 20.2170543,15.7822567 20.3521103,15.6472007 L23.998622,11.999311 L20.3521103,8.35279935 Z" id="Fill-1"></path>
            </g>
        </g>
    </g>
</svg>