<svg width="24" height="24" viewBox="0 0 24 24" fill="none" xmlns="http://www.w3.org/2000/svg">
<g clip-path="url(#clip0_15805_64186)">
<path d="M1.06667 -0.00166321L0 1.065L22.9333 23.9983L24 22.9317L1.06667 -0.00166321Z" fill="black"/>
<path d="M20.3033 12.055H18.8067C18.8067 12.8717 18.6533 13.6483 18.39 14.375L19.54 15.525C20.03 14.4683 20.3033 13.295 20.3033 12.055Z" fill="black"/>
<path d="M15.5367 19.5483L14.3933 18.405C13.65 18.685 12.85 18.845 12.0133 18.845C8.26667 18.845 5.22 15.7983 5.22 12.055H3.72333C3.72333 16.3717 7.04333 19.925 11.2667 20.305V22.505H8.01V24.0017H16.01V22.505H12.76V20.305C13.7433 20.215 14.68 19.9517 15.5367 19.5483Z" fill="black"/>
<path d="M7.35333 11.365V12.4683C7.35333 15.035 9.44333 17.1217 12.0133 17.1217C12.3533 17.1217 12.6833 17.0817 13.0033 17.015L11.5833 15.595C10.1833 15.4017 9.07667 14.295 8.88667 12.8983L7.35333 11.365Z" fill="black"/>
<path d="M8.85 4.65167C8.85 2.90834 10.2667 1.49167 12.01 1.49167C13.7533 1.49167 15.17 2.90834 15.17 4.65167V5.16834H9.18L10.6767 6.665H15.17V11.1583L16.66 12.6483C16.66 12.5883 16.67 12.5283 16.67 12.465V4.65167C16.67 2.085 14.58 -0.00166321 12.01 -0.00166321C9.84333 -0.00166321 8.02333 1.485 7.50333 3.49167L8.84667 4.835V4.65167H8.85Z" fill="black"/>
</g>
<defs>
<clipPath id="clip0_15805_64186">
<rect width="24" height="24" fill="white"/>
</clipPath>
</defs>
</svg>
