<?xml version="1.0" encoding="UTF-8"?>
<svg width="24px" height="24px" viewBox="0 0 24 24" version="1.1" xmlns="http://www.w3.org/2000/svg" xmlns:xlink="http://www.w3.org/1999/xlink">
    <title>Icon/Outline/neighborhood-outline</title>
    <g id="Icon/Outline/neighborhood-outline" stroke="none" stroke-width="1" fill="none" fill-rule="evenodd">
        <g id="Group" transform="translate(0.000000, 3.000000)" fill="#474747" fill-rule="nonzero">
            <g id="Outline">
                <path d="M20.6666667,0 C21.258237,0.00171470373 21.7444191,0.449871801 21.806612,1.02494409 L21.8133333,1.15 L21.6866667,17.2233333 L24,17.2233333 L24,18.3733333 L0,18.3733333 L0,17.2233333 L2.29666667,17.2233333 L2.29666667,3.7 C2.29666667,3.39588509 2.41747584,3.10422594 2.63251756,2.88918422 C2.81683903,2.70486276 3.05745086,2.58977335 3.31394803,2.56065233 L3.44333333,2.55333333 L11.48,2.55333333 L11.48,1.15 C11.4817087,0.557923598 11.929401,0.0708735305 12.50485,0.00707646554 L12.63,0 L20.6666667,0 Z M11.48,3.7 L3.44333333,3.7 L3.44333333,17.2233333 L14.9266667,17.2233333 L14.9266667,10.7166667 L11.48,10.7166667 L11.48,3.7 Z M20.6666667,1.15 L12.63,1.15 L12.63,9.57 L14.9266667,9.57 C15.5177341,9.57 16.0043497,10.0172112 16.0666048,10.5917247 L16.0733333,10.7166667 L16.0733333,17.2233333 L20.54,17.2233333 L20.6666667,1.15 Z M9.76,13.3333333 L9.76,15.63 L8.61,15.63 L8.61,13.3333333 L9.76,13.3333333 Z M18.7266667,13.3333333 L18.7266667,15.63 L17.58,15.63 L17.58,13.3333333 L18.7266667,13.3333333 Z M6.31333333,13.3333333 L6.31333333,14.48 L5.16666667,14.48 L5.16666667,13.3333333 L6.31333333,13.3333333 Z M12.9266667,13.3333333 L12.9266667,14.48 L11.78,14.48 L11.78,13.3333333 L12.9266667,13.3333333 Z M9.76,9.25 L9.76,10.4 L8.61,10.4 L8.61,10.396 L8.61,10.3966667 L8.61,9.25 L9.76,9.25 Z M6.31333333,9.25 L6.31333333,10.4 L5.16666667,10.4 L5.16666667,9.25 L6.31333333,9.25 Z M18.9433333,7.46333333 L18.9433333,8.61 L17.7966667,8.61 L17.7966667,7.46333333 L18.9433333,7.46333333 Z M15.5,7.46333333 L15.5,8.61 L14.3533333,8.61 L14.3533333,7.46333333 L15.5,7.46333333 Z M6.31333333,5.42333333 L6.31333333,6.57 L5.16666667,6.57 L5.16666667,5.42333333 L6.31333333,5.42333333 Z M9.76,5.42333333 L9.76,6.57 L8.61,6.57 L8.61,5.42333333 L9.76,5.42333333 Z M18.9433333,2.87333333 L18.9433333,4.02 L17.7966667,4.02 L17.7966667,2.87333333 L18.9433333,2.87333333 Z M15.5,2.87333333 L15.5,4.02 L14.3533333,4.02 L14.3533333,2.87333333 L15.5,2.87333333 Z" id="Combined-Shape"></path>
            </g>
        </g>
    </g>
</svg>