<?xml version="1.0" encoding="UTF-8"?>
<svg width="24px" height="24px" viewBox="0 0 24 24" version="1.1" xmlns="http://www.w3.org/2000/svg" xmlns:xlink="http://www.w3.org/1999/xlink">
    <title>Icon/Outline/network-port-outline</title>
    <g id="Icon/Outline/network-port-outline" stroke="none" stroke-width="1" fill="none" fill-rule="evenodd">
        <g id="Group" transform="translate(0.000000, 1.000000)" fill="#474747" fill-rule="nonzero">
            <g id="Outline">
                <path d="M3.08996766,0 C-1.02998922,4.29250176 -1.02998922,11.0708873 3.08996766,15.3633891 L3.9733042,14.4833859 C0.353381861,10.6726716 0.353381861,4.69405084 3.9733042,0.88333654 L3.08996766,0 Z" id="Path"></path>
                <path d="M5.60664346,1.84667337 C2.53799591,5.13022586 2.53799591,10.2298299 5.60664346,13.5133824 L6.48664665,12.6500459 C3.87706353,9.863366 3.87706353,5.53002321 6.48664665,2.74334329 L5.60664346,1.84667337 Z" id="Path"></path>
                <path d="M8.11998592,3.80001379 C6.08655442,5.98962605 6.08655442,9.37709639 8.11998592,11.5667087 L8.99998911,10.6833721 C7.45675636,8.98105969 7.45675636,6.38566276 8.99998911,4.68335033 L8.11998592,3.80001379 Z" id="Path"></path>
                <path d="M20.0266958,14.4833859 L20.9100323,15.3633891 C25.0299892,11.0708873 25.0299892,4.29250176 20.9100323,0 L20.0266958,0.88333654 C23.6466181,4.69405084 23.6466181,10.6726716 20.0266958,14.4833859 L20.0266958,14.4833859 Z" id="Path"></path>
                <path d="M17.5133533,12.6500459 L18.3933565,13.5300491 C21.4620041,10.2464966 21.4620041,5.14689259 18.3933565,1.8633401 L17.5133533,2.74667664 C20.1208561,5.53289385 20.1208561,9.8638287 17.5133533,12.6500459 Z" id="Path"></path>
                <path d="M15.0000109,10.6833721 L15.8833474,11.5667087 C17.9135432,9.37582665 17.9135432,5.9908958 15.8833474,3.80001379 L15.0000109,4.68335033 C16.5432436,6.38566276 16.5432436,8.98105969 15.0000109,10.6833721 Z" id="Path"></path>
                <path d="M2.24663126,21.316744 L22.7433723,21.316744 L22.7433723,20.2500735 L16.6866837,20.2500735 L16.6866837,19.8834055 L12.6666691,19.8834055 L12.6666691,9.16003325 L12.7366693,9.1200331 C13.2886004,8.80036994 13.5572111,8.15000321 13.391711,7.5340307 C13.2262109,6.91805819 12.6678186,6.48989151 12.0300001,6.48989151 C11.3921816,6.48989151 10.8337894,6.91805819 10.6682892,7.5340307 C10.5027891,8.15000321 10.7713998,8.80036994 11.3233309,9.1200331 L11.3933311,9.16003325 L11.3933311,19.8834055 L7.6933177,19.8834055 L7.6933177,20.2500735 L2.24663126,20.2500735 L2.24663126,21.316744 Z" id="Path"></path>
            </g>
        </g>
    </g>
</svg>