<?xml version="1.0" encoding="UTF-8"?>
<svg width="24px" height="24px" viewBox="0 0 24 24" version="1.1" xmlns="http://www.w3.org/2000/svg" xmlns:xlink="http://www.w3.org/1999/xlink">
    <title>Icon/Outline/network-outline</title>
    <g id="Icon/Outline/network-outline" stroke="none" stroke-width="1" fill="none" fill-rule="evenodd">
        <g id="Group" transform="translate(-0.000000, -0.000000)" fill="#474747" fill-rule="nonzero">
            <g id="network-outline">
                <path d="M17.2955257,6.05972268 L7.36680215,11.0058531 C7.45363214,11.3224686 7.5,11.6558194 7.5,12 C7.5,12.3287113 7.45770655,12.6475442 7.37826441,12.9513542 L17.302331,17.9316107 C17.9890279,17.0597602 19.0541445,16.5 20.2500001,16.5 C22.3210679,16.5 24,18.1789323 24,20.2500001 C24,22.3210679 22.3210679,24 20.2500001,24 C18.1789323,24 16.5,22.3210679 16.5,20.2500001 C16.5,19.9116324 16.544815,19.5837319 16.628833,19.27191 L6.71467936,14.2966282 C6.02863229,15.1809156 4.95577455,15.7500001 3.75000002,15.7500001 C1.67893219,15.7500001 0,14.0710678 0,12 C0,9.92893227 1.67893219,8.25000003 3.75000002,8.25000003 C4.93986343,8.25000003 6.00029477,8.80416461 6.68727808,9.66847767 L16.6259815,4.7174443 C16.5438013,4.40880786 16.5,4.0845191 16.5,3.75000002 C16.5,1.67893219 18.1789323,0 20.2500001,0 C22.3210679,0 24,1.67893219 24,3.75000002 C24,5.82106784 22.3210679,7.5 20.2500001,7.5 C19.0501871,7.5 17.9819799,6.93652897 17.295567,6.05977549 L17.2955257,6.05972268 Z M20.2500001,6.00000001 C21.4926407,6.00000001 22.5000001,4.99264071 22.5000001,3.75000002 C22.5000001,2.50735932 21.4926407,1.50000001 20.2500001,1.50000001 C19.0073594,1.50000001 18.0000001,2.50735932 18.0000001,3.75000002 C18.0000001,4.99264071 19.0073594,6.00000001 20.2500001,6.00000001 Z M3.75000002,14.25 C4.99264071,14.25 6.00000001,13.2426407 6.00000001,12.0000001 C6.00000001,10.7573594 4.99264071,9.75000004 3.75000002,9.75000004 C2.50735932,9.75000004 1.50000001,10.7573594 1.50000001,12.0000001 C1.50000001,13.2426407 2.50735932,14.25 3.75000002,14.25 Z M20.2500001,22.5000001 C21.4926407,22.5000001 22.5000001,21.4926407 22.5000001,20.2500001 C22.5000001,19.0073594 21.4926407,18.0000001 20.2500001,18.0000001 C19.0073594,18.0000001 18.0000001,19.0073594 18.0000001,20.2500001 C18.0000001,21.4926407 19.0073594,22.5000001 20.2500001,22.5000001 Z" id="Icon/Network/Outline"></path>
            </g>
        </g>
    </g>
</svg>