<?xml version="1.0" encoding="UTF-8"?>
<svg width="24px" height="24px" viewBox="0 0 24 24" version="1.1" xmlns="http://www.w3.org/2000/svg" xmlns:xlink="http://www.w3.org/1999/xlink">
    <title>Icon/Outline/news-report-outline</title>
    <g id="Icon/Outline/news-report-outline" stroke="none" stroke-width="1" fill="none" fill-rule="evenodd">
        <g id="Group" fill="#474747" fill-rule="nonzero">
            <g id="Outline">
                <path d="M20.81,0 L20.81,4.04666667 L24,4.04666667 L24,21.69 C23.9981641,22.9650166 22.9650166,23.9981641 21.69,24 L21.69,24 L2.31,24 C1.03498345,23.9981641 0.00183587982,22.9650166 0,21.69 L0,21.69 L0,0 L20.81,0 Z M19.3833333,1.43 L1.43,1.43 L1.43,21.69 C1.43,22.1760106 1.82398942,22.57 2.31,22.57 L2.31,22.57 L19.5566667,22.57 C19.442525,22.2906358 19.3836599,21.9917823 19.3833333,21.69 L19.3833333,21.69 L19.3833333,1.43 Z M22.57,5.47666667 L20.81,5.47666667 L20.81,21.69 C20.81,22.1760106 21.2039894,22.57 21.69,22.57 C22.1760106,22.57 22.57,22.1760106 22.57,21.69 L22.57,21.69 L22.57,5.47666667 Z M11.7233333,8.22333333 L18,8.24 L18,19.5733333 L11.7233333,19.5733333 L11.7233333,8.22333333 Z M9.75333333,18.08 L9.75333333,19.41 L2.89,19.41 L2.89,18.08 L9.75333333,18.08 Z M16.8433333,9.24666667 L12.8866667,9.24666667 L12.8866667,18.5566667 L16.8433333,18.5566667 L16.8433333,9.24666667 Z M9.75333333,14.81 L9.75333333,16.14 L2.89,16.14 L2.89,14.81 L9.75333333,14.81 Z M9.75333333,11.54 L9.75333333,12.87 L2.89,12.87 L2.89,11.54 L9.75333333,11.54 Z M9.75333333,8.27333333 L9.75333333,9.60333333 L2.89,9.60333333 L2.89,8.27333333 L9.75333333,8.27333333 Z M17.92,5.00333333 L17.92,6.33333333 L2.89,6.33333333 L2.89,5.00333333 L17.92,5.00333333 Z" id="Combined-Shape"></path>
            </g>
        </g>
    </g>
</svg>