<?xml version="1.0" encoding="UTF-8"?>
<svg width="24px" height="24px" viewBox="0 0 24 24" version="1.1" xmlns="http://www.w3.org/2000/svg" xmlns:xlink="http://www.w3.org/1999/xlink">
    <title>Icon/Outline/news-outline</title>
    <g id="Icon/Outline/news-outline" stroke="none" stroke-width="1" fill="none" fill-rule="evenodd">
        <g id="Group" transform="translate(-0.000000, -0.000000)" fill="#474747" fill-rule="nonzero">
            <g id="news" transform="translate(2.250000, 0.000000)">
                <path d="M17.9355001,0 C18.7995001,0 19.5,0.715500003 19.5,1.59900001 L19.5,22.3995001 C19.5,23.2830001 18.7995001,24 17.9355001,24 L1.56450001,24 C0.700500003,24 0,23.2830001 0,22.3995001 L0,1.59900001 C0,0.715500003 0.700500003,0 1.56450001,0 L17.9355001,0 Z M18,22.3995001 L18,1.59900001 C18,1.53450001 17.9580001,1.50000001 17.9355001,1.50000001 L1.56450001,1.50000001 C1.54200001,1.50000001 1.50000001,1.53450001 1.50000001,1.59900001 L1.50000001,22.3995001 C1.50000001,22.4655001 1.54200001,22.5 1.56450001,22.5 L17.9355001,22.5 C17.9580001,22.5 18,22.4655001 18,22.3995001 Z M3.75000002,10.49955 L3.75000002,8.99955004 L15.75,8.99955004 L15.75,10.49955 L3.75000002,10.49955 Z M3.75000002,14.9995501 L3.75000002,13.4995501 L15.75,13.4995501 L15.75,14.9995501 L3.75000002,14.9995501 Z M3.75000002,5.99955002 L3.75000002,4.49955002 L9.75000002,4.49955002 L9.75000002,5.99955002 L3.75000002,5.99955002 Z" id="Combined-Shape"></path>
            </g>
        </g>
    </g>
</svg>