<?xml version="1.0" encoding="UTF-8"?>
<svg width="24px" height="24px" viewBox="0 0 24 24" version="1.1" xmlns="http://www.w3.org/2000/svg" xmlns:xlink="http://www.w3.org/1999/xlink">
    <title>Icon/Outline/noteplus-outline</title>
    <g id="Icon/Outline/noteplus-outline" stroke="none" stroke-width="1" fill="none" fill-rule="evenodd">
        <g id="Group" fill="#474747" fill-rule="nonzero">
            <g id="Outline">
                <path d="M24,0 L24,10.3314382 L23.9633401,10.3714309 L18.7342992,16.1836981 L16.2814158,16.1836981 C16.1496311,18.2001211 15.3118791,20.105712 13.9151832,21.5660441 C12.3829168,23.0818008 10.3080951,23.9218096 8.15290687,23.8989495 C4.85542224,23.9006338 1.88196974,21.9147845 0.620289619,18.8682174 C-0.641390497,15.8216503 0.057440258,12.314992 2.39063052,9.98483512 C3.86435312,8.57811279 5.78923454,7.7396675 7.82296739,7.6186025 L7.82296739,7.6186025 L7.82296739,0.003332722 L24,0 Z M13.0020174,10.9079991 C11.0381999,8.9418981 8.08320635,8.35277445 5.5155541,9.41545694 C2.94790186,10.4781394 1.27352324,12.9832363 1.27352324,15.7621087 C1.27352324,18.5409812 2.94790186,21.046078 5.5155541,22.1087605 C8.08320635,23.171443 11.0381999,22.5823193 13.0020174,20.6162183 C14.3007967,19.3349035 15.0319295,17.5865526 15.0319295,15.7621087 C15.0319295,13.9376649 14.3007967,12.1893139 13.0020174,10.9079991 Z M8.73946594,11.1312915 L8.73946594,15.2638668 L12.5554326,15.2638668 L12.5554326,16.4969739 L8.73946594,16.4969739 L8.73946594,20.3129406 L7.5063588,20.3129406 L7.5063588,16.4969739 L3.37378352,16.4969739 L3.37378352,15.2638668 L7.5063588,15.2638668 L7.5063588,11.1312915 L8.73946594,11.1312915 Z M22.7668929,1.23977259 L9.04940909,1.23977259 L9.04940909,7.65192972 C10.908294,7.85258215 12.6490618,8.66087946 14.001834,9.9515079 C15.296909,11.3162897 16.0951463,13.0771073 16.268085,14.9505909 L16.268085,14.9505909 L17.6678282,14.9505909 L17.6678282,9.5415831 L22.7668929,9.5415831 L22.7668929,1.23977259 Z M22.153672,10.4580816 L18.9109335,10.4580816 L18.9109335,14.4240208 L22.153672,10.4580816 Z" id="Combined-Shape"></path>
            </g>
        </g>
    </g>
</svg>