<svg width="24" height="24" viewBox="0 0 24 24" fill="none" xmlns="http://www.w3.org/2000/svg">
<g clip-path="url(#clip0_15805_64200)">
<path d="M9.41187 3.48C9.93187 2.58667 10.8985 1.98333 12.0019 1.98333C13.1052 1.98333 14.0719 2.58667 14.5919 3.48H16.2252C15.6052 1.73 13.9552 0.466667 12.0019 0.466667C10.0485 0.466667 8.43854 1.70333 7.80187 3.42333L7.85854 3.48H9.41187ZM12.0019 23.5667C13.2852 23.5667 14.4452 23.09 15.3485 22.31H8.6552C9.55854 23.0867 10.7185 23.5667 12.0019 23.5667ZM16.0952 6.49333C16.7552 6.49333 17.3319 6.92 17.5285 7.55333L19.8752 15.15L20.0319 15.6633L20.2419 15.8733L20.6852 16.0767L22.5019 16.9067V19.81H24.0019V15.9367L21.3052 14.7067L18.9585 7.11C18.5719 5.85 17.4119 4.99 16.0985 4.99H9.36187L10.8685 6.49667H16.0952V6.49333ZM1.50187 18.5433V16.9033L3.31854 16.0733L3.93187 15.7933L4.13187 15.1467L5.75854 9.88L4.55854 8.68L2.69854 14.7L0.00186849 15.93V20.0467H15.9152L14.4085 18.54H1.50187V18.5433ZM7.85854 3.48L7.80187 3.42333C7.7952 3.44333 7.7852 3.46333 7.77854 3.48H7.85854ZM20.2419 15.8733L20.0319 15.6633L20.0719 15.7967L20.2419 15.8733ZM1.0652 0L0.531869 0.533333L-0.00146484 1.06667L22.9119 24L23.4452 23.4667L23.9785 22.9333L1.0652 0Z" fill="black"/>
</g>
<defs>
<clipPath id="clip0_15805_64200">
<rect width="24" height="24" fill="white"/>
</clipPath>
</defs>
</svg>
