<svg width="24" height="24" viewBox="0 0 24 24" fill="none" xmlns="http://www.w3.org/2000/svg">
<g clip-path="url(#clip0_15805_64196)">
<path d="M12.6219 8.5V16.8333H11.2585V10.7467H9.3852V9.76667C10.0319 9.76667 10.5452 9.65333 10.9285 9.43C11.3085 9.20667 11.5385 8.89667 11.6085 8.50333H12.6219V8.5ZM24.0019 15.9033L21.3052 14.6767L18.9585 7.11333C18.5719 5.86 17.4119 5.00333 16.0985 5.00333H7.90187C6.58854 5.00333 5.42854 5.86 5.04187 7.11333L2.6952 14.6767L-0.00146484 15.9033V20H23.9985V15.9033H24.0019ZM22.5019 18.5H1.50187V16.8667L3.31854 16.04L3.93187 15.7633L4.13187 15.12L6.47854 7.55667C6.6752 6.92333 7.25187 6.5 7.91187 6.5H16.0985C16.7585 6.5 17.3352 6.92333 17.5319 7.55667L19.8752 15.12L20.0752 15.7633L20.6885 16.04L22.5052 16.8667V18.5H22.5019ZM15.3485 22.25H8.6552C9.55854 23.0233 10.7185 23.5 12.0019 23.5C13.2852 23.5 14.4452 23.0233 15.3485 22.25ZM7.77854 3.5H9.41187C9.93187 2.61 10.8985 2.01 12.0019 2.01C13.1052 2.01 14.0719 2.61 14.5919 3.5H16.2252C15.6052 1.75667 13.9552 0.5 12.0019 0.5C10.0485 0.5 8.39854 1.76 7.77854 3.5Z" fill="black"/>
</g>
<defs>
<clipPath id="clip0_15805_64196">
<rect width="24" height="24" fill="white"/>
</clipPath>
</defs>
</svg>
