<svg width="24" height="24" viewBox="0 0 24 24" fill="none" xmlns="http://www.w3.org/2000/svg">
<g clip-path="url(#clip0_15805_64184)">
<path d="M12.69 13.7567H11.31V8.5H12.69V13.7567ZM12 15.2467C11.56 15.2467 11.2067 15.6033 11.2067 16.04C11.2067 16.4767 11.5633 16.8333 12 16.8333C12.4367 16.8333 12.7933 16.4767 12.7933 16.04C12.7933 15.6033 12.4367 15.2467 12 15.2467ZM24 15.9033L21.3033 14.6767L18.9567 7.11333C18.57 5.86 17.41 5.00333 16.0967 5.00333H7.90333C6.59 5.00333 5.43 5.86 5.04333 7.11333L2.69667 14.6767L0 15.9033V20H24V15.9033ZM22.5 18.5H1.5V16.8667L3.31667 16.04L3.93 15.7633L4.13 15.12L6.47333 7.55667C6.67 6.92333 7.24667 6.5 7.90667 6.5H16.0933C16.7533 6.5 17.33 6.92333 17.5267 7.55667L19.87 15.12L20.07 15.7633L20.6833 16.04L22.5 16.8667V18.5ZM15.3467 22.25H8.65333C9.55667 23.0233 10.7167 23.5 12 23.5C13.2833 23.5 14.4433 23.0233 15.3467 22.25ZM7.77667 3.5H9.41C9.93 2.61 10.8967 2.01 12 2.01C13.1033 2.01 14.07 2.61 14.59 3.5H16.2233C15.6033 1.75667 13.9533 0.5 12 0.5C10.0467 0.5 8.39667 1.76 7.77667 3.5Z" fill="black"/>
</g>
<defs>
<clipPath id="clip0_15805_64184">
<rect width="24" height="24" fill="white"/>
</clipPath>
</defs>
</svg>
