<?xml version="1.0" encoding="UTF-8"?>
<svg width="24px" height="24px" viewBox="0 0 24 24" version="1.1" xmlns="http://www.w3.org/2000/svg" xmlns:xlink="http://www.w3.org/1999/xlink">
    <title>Icon/Outline/notpublished-outline</title>
    <g id="Icon/Outline/notpublished-outline" stroke="none" stroke-width="1" fill="none" fill-rule="evenodd">
        <g id="Group" transform="translate(0.000000, -0.000007)" fill="#474747" fill-rule="nonzero">
            <g id="Outline">
                <path d="M2.52333333,6.08001478 L4.02,7.57334811 L4.02,22.5066814 L19,22.5066814 L20.5066667,24.0000222 L3.27333333,24.0000222 C3.07472811,24.0009014 2.88395306,23.9226266 2.74320413,23.7825032 C2.63060499,23.6704045 2.55744716,23.5261131 2.532688,23.3711936 L2.52333333,23.2533481 L2.52333333,6.08001478 Z M1.06333333,0.0366814448 L23.9766667,22.8700148 L23.4466667,23.4000148 L22.9133333,23.9300148 L0,1.09668144 L0.533333333,0.566681445 L1.06333333,0.0366814448 Z M20.75,7.32702762e-06 C20.9486052,-0.000871861218 21.1393803,0.0774029892 21.2801292,0.217526367 C21.3927283,0.329625069 21.4658862,0.473916487 21.4906453,0.628835994 L21.5,0.746681445 L21.5,17.9200148 L20,16.4266814 L20,1.49334811 L5,1.49334811 L3.51666667,7.32702762e-06 L20.75,7.32702762e-06 Z" id="Combined-Shape"></path>
            </g>
        </g>
    </g>
</svg>