<svg width="24" height="24" viewBox="0 0 24 24" fill="none" xmlns="http://www.w3.org/2000/svg">
<g clip-path="url(#clip0_15805_64192)">
<path d="M16 12.8733L18.64 18.4833H13.3633L16.0033 12.8733M16.0033 9.34667L11.0033 19.9867H21.0033L16.0033 9.34667Z" fill="black"/>
<path d="M22 0H2C0.896667 0 0 0.896667 0 2V22C0 23.1033 0.896667 24 2 24H22C23.1033 24 24 23.1033 24 22V2C24 0.896667 23.1033 0 22 0ZM22.5 22.5H1.5V1.5H22.5V22.5Z" fill="black"/>
<path d="M8 5.5C9.93 5.5 11.5 7.07 11.5 9C11.5 10.93 9.93 12.5 8 12.5C6.07 12.5 4.5 10.93 4.5 9C4.5 7.07 6.07 5.5 8 5.5ZM8 4C5.24 4 3 6.24 3 9C3 11.76 5.24 14 8 14C10.76 14 13 11.76 13 9C13 6.24 10.76 4 8 4Z" fill="black"/>
</g>
<defs>
<clipPath id="clip0_15805_64192">
<rect width="24" height="24" fill="white"/>
</clipPath>
</defs>
</svg>
