<svg width="24" height="24" viewBox="0 0 24 24" fill="none" xmlns="http://www.w3.org/2000/svg">
<g clip-path="url(#clip0_15805_64198)">
<path d="M7.78333 1.82L11.5367 3.03667L12 3.18667L12.4633 3.03667L16.2167 1.82L18.0133 5.33333L18.2333 5.76667L18.6667 5.98667L22.18 7.78333L20.9633 11.5367L20.8133 12L20.9633 12.4633L22.18 16.2167L18.6667 18.0133L18.2333 18.2333L18.0133 18.6667L16.2167 22.18L12.4633 20.9633L12 20.8133L11.5367 20.9633L7.78333 22.18L5.98667 18.6667L5.76667 18.2333L5.33333 18.0133L1.82 16.2167L3.03667 12.4633L3.18667 12L3.03667 11.5367L1.82 7.78333L5.33333 5.98667L5.76667 5.76667L5.98667 5.33333L7.78333 1.82ZM16.97 0L12 1.61L7.03 0L4.65333 4.65333L0 7.03L1.61 12L0 16.97L4.65333 19.3467L7.03 24L12 22.39L16.97 24L19.3467 19.3467L24 16.97L22.39 12L24 7.03L19.3467 4.65333L16.97 0Z" fill="black"/>
</g>
<defs>
<clipPath id="clip0_15805_64198">
<rect width="24" height="24" fill="white"/>
</clipPath>
</defs>
</svg>
