<?xml version="1.0" encoding="UTF-8"?>
<svg width="24px" height="24px" viewBox="0 0 24 24" version="1.1" xmlns="http://www.w3.org/2000/svg" xmlns:xlink="http://www.w3.org/1999/xlink">
    <title>Icon/Outline/office-outline</title>
    <g id="Icon/Outline/office-outline" stroke="none" stroke-width="1" fill="none" fill-rule="evenodd">
        <g id="Group" transform="translate(1.000000, 0.000000)" fill="#474747" fill-rule="nonzero">
            <g id="Outline">
                <path d="M21.5733333,0 L21.5733333,23 L22.7466667,23 L22.7466667,24 L0,24 L0,23 L1.17333333,23 L1.17333333,0 L21.5733333,0 Z M20.3966667,1.17333333 L16.1933333,1.17333333 L16.1933333,22.79 L20.3966667,22.79 L20.3966667,1.17333333 Z M15.35,1.17333333 L2.35,1.17333333 L2.35,22.7733333 L15.35,22.7733333 L15.35,1.17333333 Z M14.26,9.94 L14.26,16.84 L11.1566667,16.84 L11.156,12.006 L9.73666667,12.0066667 L9.73666667,11.24 L11.156,11.24 L11.1566667,9.94 L14.26,9.94 Z M13.5566667,10.6433333 L11.86,10.6433333 L11.859,11.24 L12.71,11.24 L12.71,12.0066667 L11.859,12.006 L11.86,16.1366667 L13.5566667,16.1366667 L13.5566667,10.6433333 Z M13.0933333,13.61 L13.0933333,15.6366667 L12.3266667,15.6366667 L12.3266667,13.61 L13.0933333,13.61 Z" id="Combined-Shape"></path>
            </g>
        </g>
    </g>
</svg>