<?xml version="1.0" encoding="UTF-8"?>
<svg width="24px" height="24px" viewBox="0 0 24 24" version="1.1" xmlns="http://www.w3.org/2000/svg" xmlns:xlink="http://www.w3.org/1999/xlink">
    <title>Icon/Outline/oilpipeline-outline</title>
    <g id="Icon/Outline/oilpipeline-outline" stroke="none" stroke-width="1" fill="none" fill-rule="evenodd">
        <g id="Group" transform="translate(0.000000, 1.000000)" fill="#474747" fill-rule="nonzero">
            <g id="Outline">
                <path d="M17.9985098,5.64473499 C17.718125,5.643378 17.4606026,5.79917906 17.3316775,6.0481685 L12.9972679,14.4235816 C12.2239404,11.5313466 9.60618089,9.51779066 6.6123491,9.51236204 L6.57233916,9.51236204 L16.5748229,1.51037504 L24,1.51037504 L24,0 L16.2980875,0 C16.1270465,0.000851605093 15.9613371,0.0596137794 15.8279708,0.166708062 C15.8279708,0.166708062 2.66136802,10.7660067 2.62135808,10.8626973 C0.281199659,12.6352473 -0.610767321,15.7380717 0.430820546,18.4827701 C1.47240841,21.2274686 4.19833712,22.9573348 7.12529387,22.7310629 C10.0522506,22.504791 12.4799214,20.3765196 13.0872902,17.5043465 L18.4652923,7.14177339 L24,7.14177339 L24,5.64473499 L17.9985098,5.64473499 Z M6.6123491,21.2619463 C3.77842463,21.2619463 1.48107494,18.9645966 1.48107494,16.1306721 C1.48107494,13.2967476 3.77842463,10.999398 6.6123491,10.999398 C9.44627356,10.999398 11.7436233,13.2967476 11.7436233,16.1306721 C11.7436233,17.4915706 11.2030084,18.7967303 10.2407079,19.7590309 C9.27840728,20.7213314 7.97324762,21.2619463 6.6123491,21.2619463 L6.6123491,21.2619463 Z" id="Shape"></path>
                <path d="M6.6123491,13.3233083 C5.06232026,13.3251492 3.80709347,14.5828628 3.80831947,16.1328922 C3.80954726,17.6829217 5.06676351,18.9386466 6.61679333,18.9380339 C8.16682314,18.9374208 9.42304703,17.680702 9.42304703,16.1306721 C9.42120717,14.5796687 8.16335356,13.3233083 6.6123491,13.3233083 Z" id="Path"></path>
                <path d="M6.67903232,12.8698624 C6.87469096,12.8507795 7.05524778,12.756316 7.18249067,12.6064637 C7.31142634,12.4563609 7.37292099,12.2598191 7.35253289,12.0629954 C7.31482531,11.6843642 6.99618741,11.3960041 6.61568326,11.3961631 L6.54900003,11.3961631 C6.14530457,11.4383077 5.84916976,11.7951502 5.88216778,12.199696 C5.92294423,12.5781034 6.24175546,12.8653207 6.62235158,12.8665283 L6.67903232,12.8698624 Z" id="Path"></path>
                <path d="M6.6123491,19.3781376 C6.20171547,19.3781376 5.86883114,19.7110295 5.86883114,20.1216631 C5.86883114,20.5322968 6.20171547,20.8651811 6.6123491,20.8651811 C7.02298273,20.8651811 7.35587461,20.5322968 7.35587461,20.1216631 C7.35675856,19.924198 7.27871017,19.7345628 7.13907978,19.5949324 C6.9994494,19.4553021 6.80981427,19.3772537 6.6123491,19.3781376 Z" id="Path"></path>
                <path d="M2.6113556,15.3771441 C2.31033092,15.3758018 2.03819569,15.5560957 1.92206197,15.8338198 C1.80592825,16.1115438 1.86871487,16.4318894 2.08109473,16.645226 C2.29347459,16.8585625 2.61353482,16.9227882 2.89177799,16.8079039 C3.17002116,16.6930195 3.3515394,16.4216973 3.3515394,16.1206696 C3.3515394,15.7113346 3.02068656,15.3789873 2.6113556,15.3771441 Z" id="Path"></path>
                <path d="M10.6166768,16.8741901 C10.9174017,16.8741901 11.1885153,16.6930377 11.3035978,16.4152041 C11.4186802,16.1373705 11.355068,15.8175702 11.1424233,15.6049255 C10.9297787,15.3922809 10.6099784,15.3286686 10.3321448,15.4437511 C10.0543111,15.5588335 9.8731588,15.8299472 9.8731588,16.1306721 C9.8731588,16.5413057 10.2060431,16.8741901 10.6166768,16.8741901 Z" id="Path"></path>
                <path d="M4.30844368,13.8267667 C4.59798487,13.5365464 4.59798487,13.0667262 4.30844368,12.7765059 C4.16921041,12.6362479 3.9792706,12.5581081 3.7816462,12.5597854 C3.58502765,12.558249 3.39617484,12.6364365 3.25818288,12.7765059 C3.05511707,12.9608009 2.96998009,13.2419099 3.03667093,13.5079037 C3.10336176,13.7738975 3.31105211,13.9815878 3.57704591,14.0482786 C3.84303971,14.1149695 4.12414868,14.0298325 4.30844368,13.8267667 L4.30844368,13.8267667 Z" id="Path"></path>
                <path d="M9.443052,18.2211912 C9.24643345,18.2196548 9.05758064,18.2978423 8.91958868,18.4379117 C8.70658288,18.6504191 8.64265124,18.9703559 8.75763153,19.2484034 C8.87261182,19.5264509 9.14383562,19.7077917 9.44471908,19.7077917 C9.74560254,19.7077917 10.0168263,19.5264509 10.1318066,19.2484034 C10.2467869,18.9703559 10.1828553,18.6504191 9.96984947,18.4379117 C9.83105086,18.2970054 9.64082375,18.2187474 9.443052,18.2211912 L9.443052,18.2211912 Z" id="Path"></path>
                <path d="M3.7816462,18.2211912 C3.58502765,18.2196548 3.39617484,18.2978423 3.25818288,18.4379117 C3.04517708,18.6504191 2.98124544,18.9703559 3.09622573,19.2484034 C3.21120602,19.5264509 3.48242982,19.7077917 3.78331328,19.7077917 C4.08419674,19.7077917 4.35542054,19.5264509 4.47040083,19.2484034 C4.58538112,18.9703559 4.52144948,18.6504191 4.30844368,18.4379117 C4.16921041,18.2976537 3.9792706,18.2195139 3.7816462,18.2211912 L3.7816462,18.2211912 Z" id="Path"></path>
                <path d="M9.96984947,13.8267667 C10.2593907,13.5365464 10.2593907,13.0667262 9.96984947,12.7765059 C9.67962917,12.4869647 9.20980898,12.4869647 8.91958868,12.7765059 C8.71652287,12.9608009 8.63138589,13.2419099 8.69807673,13.5079037 C8.76476756,13.7738975 8.97245791,13.9815878 9.23845171,14.0482786 C9.5044455,14.1149695 9.78555448,14.0298325 9.96984947,13.8267667 L9.96984947,13.8267667 Z" id="Path"></path>
            </g>
        </g>
    </g>
</svg>