<?xml version="1.0" encoding="UTF-8"?>
<svg width="24px" height="24px" viewBox="0 0 24 24" version="1.1" xmlns="http://www.w3.org/2000/svg" xmlns:xlink="http://www.w3.org/1999/xlink">
    <title>Icon/Outline/oilplatform-outline</title>
    <g id="Icon/Outline/oilplatform-outline" stroke="none" stroke-width="1" fill="none" fill-rule="evenodd">
        <g id="Group" transform="translate(0.000000, 1.000000)" fill="#474747" fill-rule="nonzero">
            <g id="Outline">
                <path d="M20.1533333,0 L20.1533333,5.89 L21.0733333,5.89 L21.0733333,8.4 L22,8.4 L22,13.18 L23.3666667,13.18 L23.3666667,17.82 L20.6133333,17.82 L20.6133333,19.71 C20.8255608,19.6826687 21.0393543,19.6693066 21.2533333,19.67 C22.0274434,19.7107777 22.7820917,19.9273686 23.46,20.3033333 C23.6333333,20.3866667 23.7933333,20.4633333 23.95,20.5266667 L23.95,20.5266667 L24,20.5466667 L24,22.1366667 L0.02,22.1366667 L0,20.7333333 L0.0733333333,20.7333333 C0.505860438,20.6526692 0.91958121,20.4921546 1.29333333,20.26 C1.99945334,19.8430661 2.80672243,19.6285632 3.62666667,19.64 C4.51040463,19.6503919 5.38101499,19.8552414 6.17666667,20.24 C6.80804242,20.5506024 7.49983935,20.7190004 8.20333333,20.7333333 L8.20333333,20.7333333 L8.57666667,20.7333333 L8.57666667,17.82 L5.82,17.82 L5.82,13.18 L8.88333333,13.18 L4.14333333,9.13666667 L4.14333333,16.3666667 L2.66,16.3666667 L2.66,7.66 L2.50333333,7.50333333 C2.09692569,7.07305405 2.0416217,6.41908429 2.37,5.92666667 C2.55729747,5.65068939 2.84662339,5.46049015 3.17424312,5.3979673 C3.50186286,5.33544445 3.84089909,5.40572725 4.11666667,5.59333333 L4.11666667,5.59333333 L4.39333333,5.78333333 L9.78666667,5.83666667 L9.78666667,7.33333333 L7.57666667,7.33333333 L10,8.4 L10.1333333,8.4 L11.97,1.96333333 L14,1.96333333 L14.05,2.11333333 L15.84,8.4 L15.9166667,8.4 L15.9166667,5.89 L16.8366667,5.89 L16.8366667,3.22333333 L18.3333333,3.22333333 L18.3333333,5.89 L18.6666667,5.89 L18.6666667,0 L20.1533333,0 Z M17.85,17.82 L17.85,20.7133333 C18.2195288,20.629751 18.5745389,20.4915667 18.9033333,20.3033333 L18.9033333,20.3033333 L18.9466667,20.28 L19.12,20.19 L19.12,17.8333333 L17.85,17.82 Z M12.8,17.82 L12.8,19.6966667 C13.7841149,19.679903 14.7568499,19.9090514 15.63,20.3633333 C15.8679531,20.4820027 16.1141458,20.5833762 16.3666667,20.6666667 L16.3666667,20.6666667 L16.3666667,17.8333333 L12.8,17.82 Z M11.3333333,17.82 L10.06,17.82 L10.06,20.2766667 C10.4675458,20.0809055 10.8942654,19.9278673 11.3333333,19.82 L11.3333333,19.82 L11.3333333,17.82 Z M21.8833333,14.67 L7.30333333,14.67 L7.30333333,16.3366667 L21.8833333,16.3366667 L21.8833333,14.67 Z M20.5166667,9.87 L10.5166667,9.87 L10.5166667,13.18 L20.5166667,13.18 L20.5166667,9.87 Z M15.48,11.3033333 L15.48,12.7866667 L13.69,12.7866667 L13.69,11.3033333 L15.48,11.3033333 Z M17.7766667,11.3033333 L17.7766667,12.7866667 L15.9866667,12.7866667 L15.9866667,11.3033333 L17.7766667,11.3033333 Z M20.07,11.3033333 L20.07,12.7866667 L18.28,12.7866667 L18.28,11.3033333 L20.07,11.3033333 Z M4.95666667,7.84 L9.03333333,11.5333333 L9.03333333,9.53333333 L4.95666667,7.84 Z M13,3.79333333 L11.6666667,8.4 L14.3,8.4 L13,3.79333333 Z M19.59,7.4 L17.4,7.4 L17.4,8.4 L19.59,8.4 L19.59,7.4 Z" id="Combined-Shape"></path>
            </g>
        </g>
    </g>
</svg>