<?xml version="1.0" encoding="UTF-8"?>
<svg width="24px" height="24px" viewBox="0 0 24 24" version="1.1" xmlns="http://www.w3.org/2000/svg" xmlns:xlink="http://www.w3.org/1999/xlink">
    <title>Icon/Outline/oiltank-outline</title>
    <g id="Icon/Outline/oiltank-outline" stroke="none" stroke-width="1" fill="none" fill-rule="evenodd">
        <g id="Group" transform="translate(3.000000, 0.000000)" fill="#474747" fill-rule="nonzero">
            <g id="Outline">
                <path d="M16.27,3 L16.27,1.39666667 C16.2681676,0.63895593 15.6543774,0.0251657736 14.8966667,0.0233333333 L10.6866667,0 C9.92895593,0.00183244028 9.31516577,0.615622596 9.31333333,1.37333333 L9.31333333,2.76333333 L4,2.76333333 C1.83,2.76333333 0.03,4.43 0,6.48666667 L0.0666666667,23.9766667 L18.92,24 L18.9833333,6.49 C18.9112578,4.86870245 17.8234836,3.46956289 16.27,3 Z M10.82,1.50333333 L14.7666667,1.52666667 L14.7666667,2.79 L10.82,2.76333333 L10.82,1.50333333 Z M9.39333333,6.3 L5.45333333,6.3 L5.45333333,4.39666667 L9.39333333,4.39666667 L9.39333333,6.3 Z M5.45333333,22.4833333 L5.45333333,20.6666667 L9.39333333,20.6666667 L9.39333333,22.49 L5.45333333,22.4833333 Z M5.45333333,19.2833333 L5.45333333,17.4166667 L9.39333333,17.4166667 L9.39333333,19.2833333 L5.45333333,19.2833333 Z M5.45333333,16.0366667 L5.45333333,14.17 L9.39333333,14.17 L9.39333333,16.0366667 L5.45333333,16.0366667 Z M5.45333333,12.79 L5.45333333,10.9233333 L9.39333333,10.9233333 L9.39333333,12.79 L5.45333333,12.79 Z M5.45333333,9.54666667 L5.45333333,7.66666667 L9.39333333,7.66666667 L9.39333333,9.53666667 L5.45333333,9.54666667 Z M1.49333333,6.49333333 C1.52,5.26333333 2.64333333,4.26 4,4.26 L4.11,4.26 L4.11,22.4833333 L1.55,22.4833333 L1.49333333,6.49333333 Z M17.42,22.4933333 L10.7533333,22.47 L10.7533333,4.26666667 L14.96,4.29 C16.3166667,4.29 17.4433333,5.29 17.47,6.50666667 L17.42,22.4933333 Z" id="Shape"></path>
            </g>
        </g>
    </g>
</svg>