<?xml version="1.0" encoding="UTF-8"?>
<svg width="24px" height="24px" viewBox="0 0 24 24" version="1.1" xmlns="http://www.w3.org/2000/svg" xmlns:xlink="http://www.w3.org/1999/xlink">
    <title>Icon/Outline/open-in-new-window-outline</title>
    <g id="Icon/Outline/open-in-new-window-outline" stroke="none" stroke-width="1" fill="none" fill-rule="evenodd">
        <g id="Group" fill="#474747" fill-rule="nonzero">
            <g id="Outline">
                <path d="M12.3133333,12.75 L18.75,6.29666667 L18.75,9.85666667 C18.75,10.2708802 19.0857864,10.6066667 19.5,10.6066667 C19.9142136,10.6066667 20.25,10.2708802 20.25,9.85666667 L20.25,3.75 L14.1433333,3.75 C13.7291198,3.75 13.3933333,4.08578644 13.3933333,4.5 C13.3933333,4.91421356 13.7291198,5.25 14.1433333,5.25 L17.69,5.25 L11.25,11.7 L12.3133333,12.75 Z" id="Path"></path>
                <path d="M6,0 C4.8954305,0 4,0.8954305 4,2 L4,4 L2,4 C0.8954305,4 0,4.8954305 0,6 L0,22 C0,23.1045695 0.8954305,24 2,24 L18,24 C19.1045695,24 20,23.1045695 20,22 L20,20 L22,20 C23.1045695,20 24,19.1045695 24,18 L24,0 L6,0 Z M18.5,22 C18.5,22.2761424 18.2761424,22.5 18,22.5 L2,22.5 C1.72385763,22.5 1.5,22.2761424 1.5,22 L1.5,6 C1.5,5.72385763 1.72385763,5.5 2,5.5 L4,5.5 L4,18 C4,19.1045695 4.8954305,20 6,20 L18.5,20 L18.5,22 Z M22.5,18 C22.5,18.2761424 22.2761424,18.5 22,18.5 L6,18.5 C5.72385763,18.5 5.5,18.2761424 5.5,18 L5.5,2 C5.5,1.72385763 5.72385763,1.5 6,1.5 L22.5,1.5 L22.5,18 Z" id="Shape"></path>
            </g>
        </g>
    </g>
</svg>