<svg width="24" height="24" viewBox="0 0 24 24" fill="none" xmlns="http://www.w3.org/2000/svg">
<g clip-path="url(#clip0_15805_64202)">
<path fill-rule="evenodd" clip-rule="evenodd" d="M23.2552 14.4583H19.9685V11.495H12.7519V9.54835H16.0452C16.4552 9.54835 16.7885 9.21835 16.7885 8.80835V0.741678C16.7885 0.331678 16.4552 0.00167847 16.0452 0.00167847H7.94854C7.53854 0.00167847 7.2052 0.331678 7.2052 0.741678V8.80501C7.2052 9.21501 7.53854 9.54501 7.94854 9.54501H11.2619V11.4917H4.02854V14.455H0.741869C0.331868 14.455 -0.00146484 14.785 -0.00146484 15.195V23.2583C-0.00146484 23.6683 0.331868 23.9983 0.741869 23.9983H8.83854C9.24854 23.9983 9.58187 23.6683 9.58187 23.2583V15.195C9.58187 14.785 9.24854 14.455 8.83854 14.455H5.51854V12.9717H18.4819V14.455H15.1619C14.7519 14.455 14.4185 14.785 14.4185 15.195V23.2583C14.4185 23.6683 14.7519 23.9983 15.1619 23.9983H23.2585C23.6685 23.9983 24.0019 23.6683 24.0019 23.2583V15.195C24.0019 14.785 23.6685 14.455 23.2585 14.455L23.2552 14.4583ZM8.6952 1.48168H15.3052V8.06501H8.6952V1.48168ZM8.0952 22.5183H1.4852V15.935H8.0952V22.5183ZM22.5119 22.5183H15.9019V15.935H22.5119V22.5183Z" fill="black"/>
</g>
<defs>
<clipPath id="clip0_15805_64202">
<rect width="24" height="24" fill="white"/>
</clipPath>
</defs>
</svg>
