<svg width="24" height="24" viewBox="0 0 24 24" fill="none" xmlns="http://www.w3.org/2000/svg">
<g clip-path="url(#clip0_15805_64230)">
<path d="M23.9417 12.4265C23.9117 12.2232 23.135 7.46653 19.445 5.86653C18.3317 5.38319 17.1883 5.19986 16.1317 5.17986L21.675 2.06653C21.9217 1.92986 22.0683 1.66319 22.055 1.38319C22.0417 1.10319 21.8717 0.84986 21.615 0.736526C21.455 0.666526 17.6783 -0.993473 14.8017 0.913193C13.4017 1.83986 12.5317 3.18653 12.005 4.32653C11.4783 3.18653 10.605 1.84319 9.20832 0.913193C6.33166 -0.996807 2.55832 0.65986 2.39832 0.733193C2.14166 0.84986 1.97166 1.09986 1.95832 1.37986C1.94499 1.65986 2.09166 1.92653 2.33832 2.06319L7.88166 5.17653C6.82499 5.19653 5.67499 5.37986 4.55832 5.86319C0.868323 7.46653 0.0916559 12.2232 0.0616559 12.4265C0.0183226 12.7065 0.134989 12.9865 0.364989 13.1499C0.494989 13.2432 0.644989 13.2899 0.798323 13.2899C0.918323 13.2899 1.03499 13.2632 1.14499 13.2032L10.6417 8.21653C10.6583 9.38653 10.6117 11.4765 10.2683 14.5332C9.71499 19.4265 7.30832 22.7799 7.28499 22.8132C7.11832 23.0399 7.09499 23.3399 7.22166 23.5932C7.34832 23.8432 7.60499 24.0032 7.88832 24.0032H12.6483C12.9483 24.0032 13.2183 23.8232 13.335 23.5499C13.3717 23.4599 14.2817 21.2899 14.5083 16.7899C14.655 13.8899 14.1583 10.5199 13.775 8.43986L22.855 13.2099C22.965 13.2665 23.0817 13.2965 23.2017 13.2965C23.355 13.2965 23.5083 13.2499 23.635 13.1565C23.865 12.9932 23.9817 12.7132 23.9383 12.4332L23.9417 12.4265ZM15.6317 2.15653C16.385 1.65653 17.2517 1.49319 18.0683 1.49319C18.545 1.49319 19.0017 1.54986 19.4083 1.62653L13.3183 5.04319C13.7483 4.07986 14.4717 2.92319 15.6283 2.15653H15.6317ZM8.38499 2.15653C9.53499 2.91986 10.2583 4.07653 10.6917 5.04319L4.60832 1.62653C5.71499 1.41653 7.19499 1.36653 8.38499 2.15653ZM1.97166 11.0799C2.44832 9.76986 3.39499 7.99986 5.15166 7.23653C6.11499 6.81653 7.12832 6.67319 8.05832 6.67319C8.76832 6.67319 9.43499 6.75653 9.99499 6.86653L1.96832 11.0832L1.97166 11.0799ZM13.0183 16.7065C12.8617 19.7765 12.375 21.6865 12.1183 22.4999H9.23499C10.0683 21.0199 11.3517 18.2532 11.755 14.6932C12.1483 11.1965 12.1683 8.92986 12.1317 7.79319C12.4917 9.58986 13.1783 13.5165 13.0183 16.7032V16.7065ZM14.005 6.86319C15.3017 6.61319 17.1417 6.49319 18.855 7.23653C20.6017 7.99653 21.5517 9.76653 22.0317 11.0799L14.005 6.86319Z" fill="black"/>
</g>
<defs>
<clipPath id="clip0_15805_64230">
<rect width="24" height="24" fill="white"/>
</clipPath>
</defs>
</svg>
