<?xml version="1.0" encoding="UTF-8"?>
<svg width="24px" height="24px" viewBox="0 0 24 24" version="1.1" xmlns="http://www.w3.org/2000/svg" xmlns:xlink="http://www.w3.org/1999/xlink">
    <title>Icon/Outline/paper-airplane-outline</title>
    <g id="Icon/Outline/paper-airplane-outline" stroke="none" stroke-width="1" fill="none" fill-rule="evenodd">
        <g id="Group" transform="translate(0.000000, 4.000000)" fill="#474747" fill-rule="nonzero">
            <g id="Outline">
                <path d="M23.8694795,0.287370648 C23.7110469,0.0842735001 23.4591058,-0.0228014539 23.2029294,0.00408682939 L21.5965435,0.33736191 L18.3871045,1.00391207 L13.7779101,2.00373731 L7.21572376,3.3801634 C4.75282091,3.90007253 2.68651541,4.33666288 0.59688065,4.80658075 L0.553554889,4.80658075 C0.251357642,4.89650197 0.033035217,5.15954104 0.000155140055,5.47313091 C-0.00617164443,5.81228735 0.181444674,6.12541252 0.483567122,6.2796566 C2.37323683,7.27948185 4.2995668,8.34262935 6.36920505,9.47909738 C6.48296467,9.53900568 6.57591682,9.63195782 6.63582512,9.74571744 L6.77580065,10.4989191 C7.88560667,16.4812068 7.93559793,16.4978706 8.16889049,16.6045186 C8.40218304,16.7111666 8.4188468,16.7111666 10.2585252,15.5213746 C11.1417042,14.9514742 12.2315137,14.2216018 12.9080621,13.7516839 C13.0647014,13.6417031 13.0913634,13.6417031 13.2413372,13.7516839 C14.2944865,14.4748908 15.3776305,15.1880995 16.4241142,15.8779789 L17.1806487,16.3778916 C17.3784213,16.5342509 17.6164784,16.6313228 17.8671953,16.6578426 C17.9294779,16.6573674 17.9913111,16.6472493 18.0504966,16.6278479 C18.3437787,16.5278653 18.4837542,16.2045885 18.5870695,15.9146392 L23.2762499,2.91691104 L23.4395547,2.46365693 C23.6061922,2.01373557 23.7728298,1.56381421 23.9228036,1.10722735 C24.0421412,0.842018426 24.0221652,0.534886996 23.8694795,0.287370648 Z M9.73195062,14.1816088 L10.3985008,11.8853435 L11.7582631,12.7918517 L9.73195062,14.1816088 Z M18.3037857,2.51698094 L15.7775606,3.85008126 C13.0091556,5.30538245 10.2396397,6.76068364 7.46901282,8.21598482 C7.35476792,8.29524 7.20332412,8.29524 7.08907923,8.21598482 C5.91261819,7.56943117 4.7328244,6.93287576 3.54969787,6.29632036 L2.6665189,5.83640075 L18.3037857,2.51698094 Z M8.22554725,9.46576638 C9.95857767,8.54592715 11.6960518,7.63164251 13.4379695,6.72291246 L14.8110629,6.00303829 L15.7309021,5.52312217 L14.4911188,6.4562924 C12.9358351,7.62719885 11.3805514,8.80143805 9.82526764,9.97901 C9.55789658,10.195704 9.35693112,10.4832925 9.245369,10.808865 C9.02540745,11.4754151 8.8254424,12.1419653 8.63214285,12.7918517 C8.4388433,11.6920439 8.25554201,10.6455602 8.09223722,9.59907641 C8.12728348,9.54614875 8.1726196,9.50081264 8.22554725,9.46576638 Z M17.4672652,14.8314952 L11.2583505,10.7022169 L21.8065068,2.76027175 L17.4672652,14.8314952 Z" id="Shape"></path>
            </g>
        </g>
    </g>
</svg>