<?xml version="1.0" encoding="UTF-8"?>
<svg width="24px" height="24px" viewBox="0 0 24 24" version="1.1" xmlns="http://www.w3.org/2000/svg" xmlns:xlink="http://www.w3.org/1999/xlink">
    <title>Icon/Outline/paperclip-outline</title>
    <g id="Icon/Outline/paperclip-outline" stroke="none" stroke-width="1" fill="none" fill-rule="evenodd">
        <g id="Icon" transform="translate(-0.000000, 0.000000)" fill="#474747" fill-rule="nonzero">
            <path d="M10.6171091,0.686291501 C12.8932522,0.686291501 14.7538224,2.35699227 14.8838171,4.46363781 L14.8910724,4.69944082 L14.8910724,18.2668481 C14.8910724,19.7314204 13.6266414,20.9186909 12.0668868,20.9186909 C10.57803,20.9186909 9.35825956,19.836901 9.25044749,18.4647582 L9.24270112,18.2668481 L9.24270112,8.63113886 C9.24270112,8.26358659 9.56002548,7.9656266 9.95146493,7.9656266 C10.2994111,7.9656266 10.5887972,8.20105177 10.6488096,8.51151219 L10.6602287,8.63113886 L10.6602287,18.2668481 C10.6602287,18.9963159 11.290011,19.5876663 12.0668868,19.5876663 C12.7882714,19.5876663 13.3828254,19.0777774 13.4640811,18.4208834 L13.4735448,18.2668481 L13.4735448,4.69944082 C13.4735448,3.2181442 12.1946749,2.01731603 10.6171091,2.01731603 C9.11125073,2.01731603 7.87755141,3.11145905 7.7685082,4.4992707 L7.76067337,4.69944082 L7.76067337,18.0020577 C7.76067337,20.2004969 9.65868455,21.982684 12,21.982684 C14.257697,21.982684 16.103189,20.3255228 16.2321301,18.2359497 L16.2393266,18.0020577 L16.2393266,8.63113886 C16.2393266,8.26358659 16.556651,7.9656266 16.9480904,7.9656266 C17.2960366,7.9656266 17.5854227,8.20105177 17.6454351,8.51151219 L17.6568542,8.63113886 L17.6568542,18.0020577 C17.6568542,20.9356014 15.1241943,23.3137085 12,23.3137085 C8.97047822,23.3137085 6.49718348,21.0775454 6.35006876,18.2671626 L6.34314575,18.0020577 L6.34314575,4.69944082 C6.34314575,2.48303965 8.25666431,0.686291501 10.6171091,0.686291501 Z" id="Path-2" transform="translate(12.000000, 12.000000) rotate(-315.000000) translate(-12.000000, -12.000000) "></path>
        </g>
    </g>
</svg>