<?xml version="1.0" encoding="UTF-8"?>
<svg width="24px" height="24px" viewBox="0 0 24 24" version="1.1" xmlns="http://www.w3.org/2000/svg" xmlns:xlink="http://www.w3.org/1999/xlink">
    <title>Icon/Outline/parks-outdoors-outline</title>
    <g id="Icon/Outline/parks-outdoors-outline" stroke="none" stroke-width="1" fill="none" fill-rule="evenodd">
        <g id="Group" transform="translate(0.000000, 1.000000)" fill="#474747" fill-rule="nonzero">
            <g id="Outline">
                <path d="M8.04435674,22.7859268 L8.04435674,18.9382593 L10.2616001,18.9382593 C11.6453197,18.9367664 12.9494028,18.2908878 13.7891843,17.1911382 L13.7891843,22.8359398 L15.1028594,22.8359398 L15.1028594,17.037765 L18.1036399,17.037765 L18.3670417,17.037765 C21.1348115,17.0203394 23.4852422,15.006512 23.9268781,12.2741484 C24.3685139,9.54178474 22.7721867,6.89003726 20.150839,6.00156104 C20.150839,5.88819822 20.150839,5.7770582 20.150839,5.66814098 C20.150839,2.53771316 17.6131259,0 14.4826981,0 C11.3522702,0 8.81455707,2.53771316 8.81455707,5.66814098 C8.81554659,5.78006162 8.82670649,5.89166071 8.84789908,6.00156104 C8.37126375,5.8339774 7.86941353,5.7493959 7.36417982,5.751496 C4.90759997,5.75330598 2.91402661,7.73942951 2.90301945,10.1959854 C2.90301945,10.2326616 2.90301945,10.2693378 2.90301945,10.3026798 C0.920257979,11.0419172 -0.270379278,13.0723843 0.0526000751,15.1636756 C0.375579429,17.2549669 2.12330291,18.8316332 4.23669968,18.9382593 L4.28004429,18.9382593 C4.40665621,18.9449261 4.53353123,18.9449261 4.66014315,18.9382593 L6.63065569,18.9382593 L6.63065569,22.7859268 L8.04435674,22.7859268 Z M10.2616001,17.5278924 L4.59345914,17.5278924 C4.50010152,17.5278924 4.42341491,17.5278924 4.29338109,17.5278924 C2.7886339,17.4286942 1.58331405,16.2427552 1.45973885,14.7398135 C1.33616365,13.2368719 2.33158432,11.8699831 3.7999194,11.5263314 L4.46675952,11.3829608 L4.3567309,10.7161207 C4.32742513,10.5499109 4.31292009,10.3814293 4.31338629,10.2126564 C4.31338633,8.53143251 5.67628756,7.16853131 7.35751142,7.16853131 C9.03873528,7.16853131 10.4016365,8.53143251 10.4016365,10.2126564 C10.4015674,10.3812691 10.3881891,10.5496134 10.3616261,10.7161207 L10.2515975,11.3829608 L10.9184376,11.5263314 C12.435142,11.8652565 13.4538413,13.2912017 13.2827817,14.8358702 C13.111722,16.3805388 11.8057085,17.5490407 10.2515975,17.5478985 L10.2616001,17.5278924 Z M18.3437023,15.7307583 L18.1103083,15.7307583 L14.5427137,15.7307583 C14.6624067,15.3270616 14.7230507,14.9081685 14.7227605,14.4871015 C14.714015,12.6292777 13.562281,10.9686072 11.8253402,10.3093482 L11.8253402,10.2026538 C11.8242161,8.9018243 11.2541045,7.66658256 10.2649343,6.82177438 L10.1949161,6.39166251 C9.94591655,4.70875106 10.7044281,3.03577912 12.1343399,2.11407207 C13.5642517,1.19236502 15.4011444,1.19236502 16.8310562,2.11407207 C18.2609681,3.03577912 19.0194796,4.70875106 18.77048,6.39166251 L18.6771224,7.00182121 L19.2906153,7.13518924 C21.5297492,7.54246225 23.0725581,9.61212107 22.8233491,11.8743074 C22.57414,14.1364937 20.6177971,15.8206758 18.3437023,15.7307583 L18.3437023,15.7307583 Z" id="Shape"></path>
            </g>
        </g>
    </g>
</svg>