<?xml version="1.0" encoding="UTF-8"?>
<svg width="24px" height="24px" viewBox="0 0 24 24" version="1.1" xmlns="http://www.w3.org/2000/svg" xmlns:xlink="http://www.w3.org/1999/xlink">
    <title>Icon/Outline/partnership-outline</title>
    <g id="Icon/Outline/partership-outline" stroke="none" stroke-width="1" fill="none" fill-rule="evenodd">
        <g id="Group" transform="translate(-0.000000, -0.000000)" fill="#474747" fill-rule="nonzero">
            <g id="partership-outline" transform="translate(0.000000, 1.500000)">
                <path d="M17.5400001,9.75085857 C19.6382406,9.72662059 21.7102517,10.2159291 23.5733334,11.1756394 L24,11.4075804 L24,21.0000001 L0,21.0000001 L0,11.3413116 L0.433333335,11.1226243 C2.27191197,10.1992448 4.30686714,9.72877039 6.36666669,9.75085857 C8.29559771,9.73480557 10.2039476,10.1456633 11.9533334,10.9536387 C13.7028975,10.146191 15.6111263,9.73535937 17.5400001,9.75085857 Z M1.58000001,19.3598454 L11.17,19.3598454 L11.17,12.4016136 C9.65856559,11.7334317 8.02078398,11.3944985 6.36666669,11.4075804 C4.7181702,11.3969628 3.0863409,11.73584 1.58000001,12.4016136 L1.58000001,19.3598454 Z M22.4200001,19.3598454 L22.4200001,12.4281211 C19.3696304,11.0930306 15.9005529,11.0666613 12.8300001,12.3552253 L12.8300001,19.3598454 L22.4200001,19.3598454 Z M17.9984563,9 C15.519211,9 13.5000001,6.97983085 13.5000001,4.5 C13.5000001,2.02016917 15.5006862,0 17.9984563,0 C20.4962265,0 22.5000001,2.01724139 22.5000001,4.5 C22.5000001,6.98275863 20.4684392,9 17.9984563,9 Z M17.9984563,1.4638907 C16.2782146,1.51174651 14.9219513,2.86850929 14.9634649,4.50000002 C14.901315,5.56668515 15.4660991,6.57855678 16.431221,7.1296432 C17.3963428,7.68072963 18.6036573,7.68072963 19.5687791,7.1296432 C20.533901,6.57855678 21.0986852,5.56668515 21.0365353,4.50000002 C21.0780281,2.86739949 19.7199161,1.51016803 17.9984563,1.4638907 Z M6.00000001,9 C3.51851853,9 1.50000001,6.97983085 1.50000001,4.5 C1.50000001,2.02016917 3.51851853,0 6.00000001,0 C8.48148154,0 10.5,2.01724139 10.5,4.5 C10.5,6.98275863 8.46913586,9 6.00000001,9 Z M6.00000002,1.4638907 C4.28034816,1.51174651 2.92455003,2.86850929 2.96604939,4.50000002 C2.92284099,6.13211403 4.27960075,7.48983911 6.00000002,7.53610931 C7.72039931,7.48983911 9.07715906,6.13211403 9.03395066,4.50000002 C9.07545004,2.86850929 7.71965193,1.51174651 6.00000002,1.4638907 Z" id="Combined-Shape"></path>
            </g>
        </g>
    </g>
</svg>