<?xml version="1.0" encoding="UTF-8"?>
<svg width="24px" height="24px" viewBox="0 0 24 24" version="1.1" xmlns="http://www.w3.org/2000/svg" xmlns:xlink="http://www.w3.org/1999/xlink">
    <title>Icon/Outline/particulates-outline</title>
    <g id="Icon/Outline/particulates-outline" stroke="none" stroke-width="1" fill="none" fill-rule="evenodd">
        <g id="Group" transform="translate(0.000000, 1.000000)" fill="#474747" fill-rule="nonzero">
            <g id="Outline">
                <path d="M5.87922594,11.1584526 C5.88057239,9.96920524 5.16522471,8.89630897 4.06689017,8.44026911 C2.96855562,7.98422925 1.70364797,8.23490304 0.8622457,9.07535134 C0.0208434292,9.91579964 -0.231265148,11.1804221 0.223528433,12.2792733 C0.678322014,13.3781245 1.75040608,14.0946896 2.93965422,14.0946896 C4.56107382,14.0928575 5.87555254,12.7798691 5.87922594,11.1584526 L5.87922594,11.1584526 Z M4.33278368,11.1584526 C4.33278368,11.9278568 3.70905837,12.5515821 2.93965422,12.5515821 C2.17025006,12.5515821 1.54652476,11.9278568 1.54652476,11.1584526 C1.54652476,10.3890485 2.17025006,9.76531916 2.93965422,9.76531916 C3.30971224,9.76443784 3.66491699,9.91082264 3.92690072,10.1721811 C4.18888445,10.4335396 4.33611652,10.7883935 4.33611652,11.1584526 L4.33278368,11.1584526 Z" id="Shape"></path>
                <path d="M14.9378984,11.1584526 C14.9378984,9.53681371 13.6233003,8.22221564 12.0016614,8.22221564 C10.3800225,8.22221564 9.06542442,9.53681371 9.06542442,11.1584526 C9.06542442,12.7800915 10.3800225,14.0946896 12.0016614,14.0946896 C13.6217796,14.0910241 14.9342329,12.7785708 14.9378984,11.1584526 L14.9378984,11.1584526 Z M13.3947909,11.1584526 C13.3947909,11.9278568 12.7710655,12.5515821 12.0016614,12.5515821 C11.2322572,12.5515821 10.6085319,11.9278568 10.6085319,11.1584526 C10.6085319,10.3890485 11.2322572,9.76532315 12.0016614,9.76532315 C12.7710655,9.76532315 13.3947909,10.3890485 13.3947909,11.1584526 Z" id="Shape"></path>
                <path d="M21.0603357,8.23554702 C19.8698784,8.23554702 18.7969653,8.95358581 18.3429695,10.054075 C17.8889736,11.1545642 18.1435402,12.4202223 18.98771,13.2596066 C19.8318799,14.0989909 21.0989647,14.3463581 22.1968552,13.8861133 C23.2947456,13.4258685 24.0066542,12.3488908 23.9999531,11.1584526 C23.9889241,9.54224597 22.6765787,8.23734012 21.0603357,8.23554702 Z M22.4534652,11.1751168 C22.4534652,11.944521 21.8297399,12.5682463 21.0603357,12.5682463 C20.2909316,12.5682463 19.6672063,11.944521 19.6672063,11.1751168 C19.6672063,10.4057127 20.2909316,9.78198738 21.0603357,9.78198738 C21.8232788,9.7819328 22.4443391,10.3955641 22.4534652,11.1584526 L22.4534652,11.1751168 Z" id="Shape"></path>
                <path d="M7.0390543,16.5909909 C5.84980617,16.5909909 4.7777221,17.307556 4.32292852,18.4064072 C3.86813493,19.5052584 4.12024351,20.7698809 4.96164578,21.6103292 C5.80304805,22.4507775 7.0679557,22.7014513 8.16629025,22.2454114 C9.26462479,21.7893715 9.97997247,20.7164753 9.97862602,19.5272279 C9.97495262,17.9058114 8.6604739,16.592823 7.0390543,16.5909909 Z M8.42885091,19.5272279 C8.42885091,20.2947914 7.80661778,20.9170245 7.0390543,20.9170245 C6.27149083,20.9170245 5.64925769,20.2947914 5.64925769,19.5272279 C5.64925769,18.7596644 6.27149083,18.1374313 7.0390543,18.1374313 C7.80585754,18.1392636 8.42701864,18.7604247 8.42885091,19.5272279 Z" id="Shape"></path>
                <path d="M16.0977286,16.5909909 C14.9084805,16.5909909 13.8363964,17.307556 13.3816028,18.4064072 C12.9268093,19.5052584 13.1789178,20.7698809 14.0203201,21.6103292 C14.8617224,22.4507775 16.12663,22.7014513 17.2249646,22.2454114 C18.3232991,21.7893715 19.0386468,20.7164753 19.0373003,19.5272279 C19.0354592,17.90505 17.7199075,16.5909909 16.0977286,16.5909909 L16.0977286,16.5909909 Z M17.4908621,19.5272279 C17.4922068,20.0909975 17.1536382,20.600005 16.6331696,20.8166855 C16.112701,21.033366 15.5129454,20.9149998 15.1138218,20.5168311 C14.7146982,20.1186623 14.5948958,19.5191919 14.8103291,18.9982058 C15.0257623,18.4772197 15.5339574,18.1374313 16.0977286,18.1374313 C16.8658331,18.1374313 17.4890205,18.7591256 17.4908621,19.5272279 Z" id="Shape"></path>
                <path d="M7.0390543,5.87922519 C8.22830244,5.87922519 9.30038651,5.16266008 9.75518009,4.0638089 C10.2099737,2.96495771 9.95786509,1.70033525 9.11646282,0.85988695 C8.27506055,0.0194386501 7.0101529,-0.23123514 5.91181836,0.224804718 C4.81348381,0.680844576 4.09813613,1.75374085 4.09948258,2.94298822 C4.10315598,4.5644047 5.4176347,5.87739308 7.0390543,5.87922519 Z M5.64925769,2.94298822 C5.64925769,2.17542474 6.27149083,1.55319161 7.0390543,1.55319161 C7.80661778,1.55319161 8.42885091,2.17542474 8.42885091,2.94298822 C8.42885091,3.71055169 7.80661778,4.33278483 7.0390543,4.33278483 C6.27225106,4.33095256 5.65108996,3.70979146 5.64925769,2.94298822 L5.64925769,2.94298822 Z" id="Shape"></path>
                <path d="M16.0977286,5.87922709 C17.2872791,5.88057312 18.360386,5.16486443 18.8162302,4.06612045 C19.2720743,2.96737646 19.0207891,1.70220728 18.1796493,0.86106751 C17.3385096,0.0199277353 16.0733404,-0.231357496 14.9745964,0.224486661 C13.8758524,0.680330818 13.1601437,1.7534377 13.1614898,2.94298822 C13.1633284,4.56386573 14.4768511,5.8773885 16.0977286,5.87922709 L16.0977286,5.87922709 Z M14.707928,2.94298822 C14.7065842,2.37891564 15.0455143,1.86969775 15.5663926,1.65321343 C16.0872709,1.43672911 16.6872881,1.55570738 17.0861488,1.95456806 C17.4850095,2.35342875 17.6039877,2.95344594 17.3875034,3.47432427 C17.1710191,3.9952026 16.6618012,4.33413268 16.0977286,4.33278884 C15.3309254,4.33095256 14.7097643,3.70979146 14.707928,2.94298822 L14.707928,2.94298822 Z" id="Shape"></path>
            </g>
        </g>
    </g>
</svg>