<?xml version="1.0" encoding="UTF-8"?>
<svg width="24px" height="24px" viewBox="0 0 24 24" version="1.1" xmlns="http://www.w3.org/2000/svg" xmlns:xlink="http://www.w3.org/1999/xlink">
    <title>Icon/Outline/payment-outline</title>
    <g id="Icon/Outline/payment-outline" stroke="none" stroke-width="1" fill="none" fill-rule="evenodd">
        <g id="Group" transform="translate(2.000000, 0.000000)" fill="#474747" fill-rule="nonzero">
            <g id="Outline">
                <path d="M17.25,3 L17.25,0 L15.75,0 L15.75,3 L5.25,3 L5.25,0 L3.75,0 L3.75,3 L0,3 L0,22.5 C0.00183315539,23.3276666 0.672333382,23.9981668 1.5,24 L19.5,24 C20.3276666,23.9981668 20.9981668,23.3276666 21,22.5 L21,3 L17.25,3 Z M19.5,22.5 L1.5,22.5 L1.5,9 L19.5,9 L19.5,22.5 Z M19.5,7.5 L1.5,7.5 L1.5,4.5 L19.5,4.5 L19.5,7.5 Z" id="Shape"></path>
                <path d="M13.6233333,17.4766667 C13.6439328,16.8935648 13.4453244,16.3239037 13.0666667,15.88 C12.7066667,15.48 12.04,15.15 11.0866667,14.88 L11.0866667,12.8066667 C11.3838179,12.9762128 11.5875089,13.2719328 11.64,13.61 L11.64,13.68 L13.37,13.4666667 L13.37,13.39 C13.2835482,12.8376927 13.0120504,12.3311318 12.6,11.9533333 C12.1710175,11.5932838 11.6438144,11.3703257 11.0866667,11.3133333 L11.0866667,10.19 L9.92,10.19 L9.92,11.3333333 C9.31001663,11.3928124 8.73856002,11.6585515 8.3,12.0866667 C7.85889711,12.5274726 7.6179181,13.1299201 7.63333333,13.7533333 C7.61608332,14.3617394 7.82377481,14.9551436 8.21666667,15.42 C8.67695861,15.9031071 9.26747355,16.2423637 9.91666667,16.3966667 L9.91666667,18.6333333 C9.51501025,18.3644341 9.24330667,17.9405765 9.16666667,17.4633333 L9.16666667,17.3966667 L7.39,17.5733333 L7.39,17.6533333 C7.47271996,18.3409972 7.78238585,18.9814425 8.27,19.4733333 C8.73499839,19.8891031 9.31709992,20.1510488 9.93666667,20.2233333 L9.93666667,21.31 L11.1033333,21.31 L11.1033333,20.2 C11.7987394,20.1177286 12.445955,19.8029305 12.94,19.3066667 C13.3994491,18.81019 13.6449337,18.1527702 13.6233333,17.4766667 L13.6233333,17.4766667 Z M9.53333333,14.1933333 C9.41372913,14.0411529 9.34806854,13.8535512 9.34666667,13.66 C9.3474726,13.4513614 9.41917195,13.2491928 9.55,13.0866667 C9.64904185,12.9616438 9.77568093,12.8612452 9.92,12.7933333 L9.92,14.5033333 C9.7701126,14.4293305 9.63816006,14.3235409 9.53333333,14.1933333 Z M11.67,18.4 C11.5117261,18.5649847 11.3091618,18.6807358 11.0866667,18.7333333 L11.0866667,16.69 C11.3256518,16.7555451 11.5430188,16.8832051 11.7166667,17.06 C11.8681647,17.2330554 11.9490714,17.4567387 11.9433333,17.6866667 C11.9463458,17.9505689 11.8485913,18.2056842 11.67,18.4 L11.67,18.4 Z" id="Shape"></path>
            </g>
        </g>
    </g>
</svg>