<?xml version="1.0" encoding="UTF-8"?>
<svg width="24px" height="24px" viewBox="0 0 24 24" version="1.1" xmlns="http://www.w3.org/2000/svg" xmlns:xlink="http://www.w3.org/1999/xlink">
    <title>Icon/Outline/pdf-outline</title>
    <g id="Icon/Outline/pdf-outline" stroke="none" stroke-width="1" fill="none" fill-rule="evenodd">
        <g id="Group" transform="translate(-0.000000, -0.000000)" fill="#474747" fill-rule="nonzero">
            <g id="pdf" transform="translate(0.000000, 3.000000)">
                <path d="M22.5,0 C23.3280001,0 24,0.672000003 24,1.5 L24,18 L0,18 L0,0 L22.5,0 Z M1.50000001,16.5 L22.5,16.5 L22.5,1.50000001 L1.50000001,1.50000001 L1.50000001,16.5 Z M5.90171415,9.94368139 L5.90171415,12 L4.50000002,12 L4.50000002,6.00000003 L6.8057783,6.00000003 C7.52184491,6.00000003 8.08998963,6.18131688 8.51022949,6.54395605 C8.93046941,6.90659523 9.14058619,7.38323883 9.14058619,7.97390111 C9.14058619,8.56456346 8.93046941,9.04052021 8.51022949,9.40178576 C8.08998963,9.76305132 7.52184491,9.94368139 6.8057783,9.94368139 L5.90171415,9.94368139 Z M5.90171415,8.87225276 L6.8057783,8.87225276 C7.10989925,8.87225276 7.3421336,8.78914924 7.50248831,8.62293956 C7.66284296,8.45672996 7.74301908,8.24313318 7.74301908,7.98214286 C7.74301908,7.71565803 7.66353416,7.49725361 7.50456183,7.32692313 C7.34558951,7.15659258 7.11266399,7.07142858 6.8057783,7.07142858 L5.90171415,7.07142858 L5.90171415,8.87225276 Z M9.91609069,12 L9.91609069,6.00000003 L12.1264861,6.00000003 C12.8370232,6.00000003 13.4314326,6.23008015 13.9097319,6.6902473 C14.3880312,7.15041445 14.6271773,7.74038103 14.6271773,8.46016489 L14.6271773,9.53983519 C14.6271773,10.2623663 14.3880312,10.8530197 13.9097319,11.3118132 C13.4314326,11.7706068 12.8370232,12 12.1264861,12 L9.91609069,12 Z M11.3178048,7.07142858 L11.3178048,10.9285715 L12.1264861,10.9285715 C12.4444307,10.9285715 12.7063855,10.7994519 12.9123583,10.5412089 C13.1183312,10.2829658 13.221316,9.94917792 13.221316,9.53983519 L13.221316,8.45192314 C13.221316,8.04807491 13.1183312,7.71703428 12.9123583,7.45879121 C12.7063855,7.20054821 12.4444307,7.07142858 12.1264861,7.07142858 L11.3178048,7.07142858 Z M19.0769976,9.58516489 L16.8666022,9.58516489 L16.8666022,12 L15.4648881,12 L15.4648881,6.00000003 L19.5000001,6.00000003 L19.5000001,7.07142858 L16.8666022,7.07142858 L16.8666022,8.51373634 L19.0769976,8.51373634 L19.0769976,9.58516489 Z" id="Combined-Shape"></path>
            </g>
        </g>
    </g>
</svg>