<svg width="24" height="24" viewBox="0 0 24 24" fill="none" xmlns="http://www.w3.org/2000/svg">
<g clip-path="url(#clip0_15805_64236)">
<path d="M12 0C18.6267 0 24 5.37333 24 12C24 18.6267 18.6267 24 12 24C5.37333 24 0 18.6267 0 12C0 5.37333 5.37333 0 12 0ZM12 22.5C17.79 22.5 22.5 17.79 22.5 12C22.5 6.21 17.79 1.5 12 1.5C6.21 1.5 1.5 6.21 1.5 12C1.5 17.79 6.21 22.5 12 22.5ZM7.18667 13.7933L4.79 11.3967L3.73 12.4567L7.19 15.9167L14.24 8.84333L13.1767 7.78333L7.19 13.7933H7.18667ZM18.3767 6.82333H16.8767V13.85H18.3767V6.82333ZM17.6267 15.14C17.0067 15.14 16.5 15.6433 16.5 16.2633C16.5 16.8833 17.0033 17.3867 17.6267 17.3867C18.25 17.3867 18.7533 16.8833 18.7533 16.2633C18.7533 15.6433 18.25 15.14 17.6267 15.14Z" fill="black"/>
</g>
<defs>
<clipPath id="clip0_15805_64236">
<rect width="24" height="24" fill="white"/>
</clipPath>
</defs>
</svg>
