<?xml version="1.0" encoding="UTF-8"?>
<svg width="24px" height="24px" viewBox="0 0 24 24" version="1.1" xmlns="http://www.w3.org/2000/svg" xmlns:xlink="http://www.w3.org/1999/xlink">
    <title>Icon/Outline/physician-outline</title>
    <g id="Icon/Outline/physician-outline" stroke="none" stroke-width="1" fill="none" fill-rule="evenodd">
        <g id="Group" transform="translate(-0.000000, -0.000000)" fill="#474747" fill-rule="nonzero">
            <g id="physician">
                <path d="M15,16.5 L10.4468334,16.5 C10.0829112,19.0442207 7.89485396,21 5.25000002,21 C2.35050507,21 0,18.649495 0,15.7500001 C0,12.8505052 2.35050507,10.5 5.25000002,10.5 C7.89485396,10.5 10.0829112,12.4557795 10.4468334,15 L15,15 L15,11.2088034 C11.6250372,10.8357202 9,7.97441531 9,4.5 L9,0 L14.2500001,0 L14.2500001,1.5 L10.5,1.5 L10.5,4.5 C10.5,7.39949497 12.8505052,9.75000004 15.7500001,9.75000004 C18.649495,9.75000004 21,7.39949497 21,4.5 L21,1.5 L17.2500001,1.5 L17.2500001,0 L22.5,0 L22.5,4.5 C22.5,7.97441531 19.874963,10.8357202 16.5,11.2088034 L16.5,15 L19.5,15 C21.9852815,15 24,17.0147187 24,19.5 C24,21.9852815 21.9852815,24 19.5,24 C17.0147187,24 15,21.9852815 15,19.5 L15,16.5 Z M16.5000001,16.5000001 L16.5000001,19.5000001 C16.5000001,21.1568543 17.8431458,22.5000001 19.5000001,22.5000001 C21.1568543,22.5000001 22.5000001,21.1568543 22.5000001,19.5000001 C22.5000001,17.8431458 21.1568543,16.5000001 19.5000001,16.5000001 L16.5000001,16.5000001 Z M5.25000002,19.5000001 C7.32106784,19.5000001 9.00000001,17.8210678 9.00000001,15.7500001 C9.00000001,13.6789323 7.32106784,12.0000001 5.25000002,12.0000001 C3.1789322,12.0000001 1.50000001,13.6789323 1.50000001,15.7500001 C1.50000001,17.8210678 3.1789322,19.5000001 5.25000002,19.5000001 Z M5.25000002,17.2500001 C4.42157289,17.2500001 3.75000002,16.5784272 3.75000002,15.7500001 C3.75000002,14.9215729 4.42157289,14.2500001 5.25000002,14.2500001 C6.07842715,14.2500001 6.75000002,14.9215729 6.75000002,15.7500001 C6.75000002,16.5784272 6.07842715,17.2500001 5.25000002,17.2500001 Z" id="Combined-Shape"></path>
            </g>
        </g>
    </g>
</svg>