<?xml version="1.0" encoding="UTF-8"?>
<svg width="24px" height="24px" viewBox="0 0 24 24" version="1.1" xmlns="http://www.w3.org/2000/svg" xmlns:xlink="http://www.w3.org/1999/xlink">
    <title>Icon/Outline/pie-chart-outline</title>
    <g id="Icon/Outline/pie-chart-outline" stroke="none" stroke-width="1" fill="none" fill-rule="evenodd">
        <g id="Group" transform="translate(0.002500, -0.000000)" fill="#474747" fill-rule="nonzero">
            <g id="pie-chart">
                <path d="M23.962,11.2500001 C23.9760001,11.4670001 23.9930001,11.684 23.9950001,11.9040001 L23.9950001,12.096 C23.9930001,12.3160001 23.9760001,12.5320001 23.962,12.75 C23.5730001,19.0260001 18.374,24 12,24 C10.057,24 8.22800002,23.5280001 6.60500002,22.708 C6.15700002,22.4820001 5.71900002,22.2380001 5.30500001,21.9590001 C2.10500001,19.8040001 0,16.1480001 0,12 C0,7.85200002 2.10500001,4.19600002 5.30500001,2.04100001 C5.51200001,1.901 5.73000002,1.77800001 5.94600002,1.651 C6.16200001,1.525 6.38100002,1.405 6.60500002,1.292 C8.22900002,0.472000001 10.057,0 12,0 C18.374,0 23.5730001,4.97400001 23.962,11.2500001 Z M12,1.5 C10.335,1.5 8.76600002,1.9 7.36600002,2.59200001 L12.431,11.2500001 L22.4620001,11.2500001 C22.0750001,5.81000001 17.5360001,1.5 12,1.5 Z M1.5,12 C1.5,15.589 3.31200001,18.761 6.06800001,20.6550001 L11.131,12 L6.06800001,3.34500001 C3.31200001,5.23900001 1.5,8.41099999 1.5,12 Z M12,22.5000001 C17.5370001,22.5000001 22.0750001,18.1900001 22.4620001,12.75 L12.431,12.75 L7.36600002,21.4080001 C8.76600002,22.1 10.335,22.5000001 12,22.5000001 Z" id="Combined-Shape"></path>
            </g>
        </g>
    </g>
</svg>