<?xml version="1.0" encoding="UTF-8"?>
<svg width="12px" height="18px" viewBox="0 0 12 18" version="1.1" xmlns="http://www.w3.org/2000/svg" xmlns:xlink="http://www.w3.org/1999/xlink">
    <title>Pin</title>
    <g id="Feedback-module" stroke="none" stroke-width="1" fill="none" fill-rule="evenodd">
        <g id="Pin" transform="translate(0.213252, 0.180908)" fill="#474747" fill-rule="nonzero">
            <path d="M5.78710938,17.3988037 C5.83650716,17.3988037 5.89980062,17.3416138 5.97698975,17.2272339 C6.05417887,17.112854 6.13161214,16.9570312 6.20928955,16.7597656 C6.28696696,16.5625 6.35207113,16.3404338 6.40460205,16.0935669 C6.45713298,15.8467 6.48339844,15.5860596 6.48339844,15.3116455 L6.48339844,11.2056885 L5.09716797,11.2056885 L5.09716797,15.3116455 C5.09716797,15.5860596 5.1235555,15.8467 5.17633057,16.0935669 C5.22910563,16.3404338 5.2942098,16.5625 5.37164307,16.7597656 C5.44907633,16.9570312 5.52520752,17.112854 5.60003662,17.2272339 C5.67486572,17.3416138 5.73722331,17.3988037 5.78710938,17.3988037 Z M1.12133789,11.8444824 L10.4592285,11.8444824 C10.7973633,11.8444824 11.0687866,11.7447306 11.2734985,11.5452271 C11.4782104,11.3457235 11.5805664,11.0841878 11.5805664,10.7606201 C11.5805664,10.2104085 11.4365031,9.67380778 11.1483765,9.15081787 C10.8602498,8.62782796 10.455363,8.15686035 9.93371582,7.73791504 C9.41206868,7.31896973 8.79821777,6.98555501 8.09216309,6.7376709 C7.3861084,6.48978678 6.61775716,6.36584473 5.78710938,6.36584473 C4.95597331,6.36584473 4.18868001,6.48978678 3.48522949,6.7376709 C2.78177897,6.98555501 2.16910807,7.31896973 1.6472168,7.73791504 C1.12532552,8.15686035 0.720316569,8.62782796 0.432189941,9.15081787 C0.144063314,9.67380778 0,10.2104085 0,10.7606201 C0,11.0841878 0.101175944,11.3457235 0.303527832,11.5452271 C0.50587972,11.7447306 0.778483073,11.8444824 1.12133789,11.8444824 Z M1.43457031,10.6556396 C1.27319336,10.6556396 1.20739746,10.5629476 1.23718262,10.3775635 C1.28088379,10.0452881 1.41725667,9.71120199 1.64630127,9.37530518 C1.87534587,9.03940837 2.18674723,8.73020426 2.58050537,8.44769287 C2.97426351,8.16518148 3.44087728,7.9389445 3.98034668,7.76898193 C4.51981608,7.59901937 5.12207031,7.51403809 5.78710937,7.51403809 C6.45166016,7.51403809 7.05379232,7.59901937 7.59350586,7.76898193 C8.1332194,7.9389445 8.60099284,8.16518148 8.99682617,8.44769287 C9.39265951,8.73020426 9.70511882,9.03940837 9.9342041,9.37530518 C10.1632894,9.71120199 10.2996826,10.0452881 10.3433838,10.3775635 C10.3684489,10.5629476 10.3005778,10.6556396 10.1397705,10.6556396 L1.43457031,10.6556396 Z M0.930419922,0.814453125 C0.930419922,1.06306966 1.02929688,1.31046549 1.22705078,1.55664062 C1.35205078,1.72176107 1.52720133,1.90551758 1.75250244,2.10791016 C1.97780355,2.31030273 2.23498535,2.51969401 2.52404785,2.73608398 C2.81311035,2.95247396 3.11539714,3.16349284 3.4309082,3.36914062 L3.15515137,7.33422852 L4.40881348,7.33422852 L4.68371582,2.79882812 C4.68941243,2.69873047 4.65836589,2.63028971 4.59057617,2.59350586 C4.23933919,2.41455078 3.92102051,2.23256429 3.63562012,2.04754639 C3.35021973,1.86252848 3.118632,1.69895426 2.94085693,1.55682373 C2.76308187,1.4146932 2.65877279,1.31656901 2.62792969,1.26245117 C2.60139974,1.21809896 2.59779867,1.18147786 2.61712646,1.15258789 C2.63645426,1.12369792 2.66642253,1.10925293 2.70703125,1.10925293 L8.86645508,1.10925293 C8.90714518,1.10925293 8.9383138,1.12369792 8.95996094,1.15258789 C8.98160807,1.18147786 8.97680664,1.21809896 8.94555664,1.26245117 C8.91471354,1.31656901 8.81158447,1.4146932 8.63616943,1.55682373 C8.46075439,1.69895426 8.23034668,1.86252848 7.94494629,2.04754639 C7.6595459,2.23256429 7.34122721,2.41455078 6.98999023,2.59350586 C6.91748047,2.63028971 6.88643392,2.69873047 6.89685059,2.79882812 L7.16467285,7.33422852 L8.42541504,7.33422852 L8.15039062,3.36914062 C8.46541341,3.16349284 8.76745605,2.95247396 9.05651855,2.73608398 C9.34558105,2.51969401 9.60276286,2.31030273 9.82806396,2.10791016 C10.0533651,1.90551758 10.2285156,1.72176107 10.3535156,1.55664062 C10.5465495,1.31046549 10.6430664,1.06306966 10.6430664,0.814453125 C10.6430664,0.580973307 10.5603841,0.386861165 10.3950195,0.232116699 C10.2296549,0.0773722331 10.012207,0 9.74267578,0 L1.83081055,0 C1.5612793,0 1.34383138,0.0773722331 1.1784668,0.232116699 C1.01310221,0.386861165 0.930419922,0.580973307 0.930419922,0.814453125 Z" id="Shape"></path>
        </g>
    </g>
</svg>