<svg width="24" height="24" viewBox="0 0 24 24" fill="none" xmlns="http://www.w3.org/2000/svg">
<g clip-path="url(#clip0_15805_64204)">
<path d="M14.81 15.7467L18.85 19.7867L19.91 18.7267L15.87 14.6867L17.9067 12.65L10.5567 10.43L12.7733 17.7833L14.81 15.7467Z" fill="black"/>
<path d="M9.5 0H8V1.5H9.5V0Z" fill="black"/>
<path d="M13.5 0H12V1.5H13.5V0Z" fill="black"/>
<path d="M17.5 0H16V1.5H17.5V0Z" fill="black"/>
<path d="M5.5 0H4V1.5H5.5V0Z" fill="black"/>
<path d="M1.5 0H0V1.5H1.5V0Z" fill="black"/>
<path d="M1.5 4H0V5.5H1.5V4Z" fill="black"/>
<path d="M17.5 4H16V5.5H17.5V4Z" fill="black"/>
<path d="M1.5 8H0V9.5H1.5V8Z" fill="black"/>
<path d="M1.5 12H0V13.5H1.5V12Z" fill="black"/>
<path d="M1.5 16H0V17.5H1.5V16Z" fill="black"/>
<path d="M5.5 16H4V17.5H5.5V16Z" fill="black"/>
<path d="M22 6H6V22C6 23.1033 6.89667 24 8 24H22C23.1033 24 24 23.1033 24 22V8C24 6.89667 23.1033 6 22 6ZM22.5 22.5H7.5V7.5H22.5V22.5Z" fill="black"/>
</g>
<defs>
<clipPath id="clip0_15805_64204">
<rect width="24" height="24" fill="white"/>
</clipPath>
</defs>
</svg>
