<svg width="24" height="24" viewBox="0 0 24 24" fill="none" xmlns="http://www.w3.org/2000/svg">
<g clip-path="url(#clip0_15805_64218)">
<path d="M0.00341797 14.7533V24L7.40675 22.01L8.45675 21.1933L9.26675 21.1L8.67675 21.3167C8.62009 21.3367 8.56675 21.3633 8.51675 21.39C7.55009 21.9433 7.88008 23.08 7.99008 23.4533L8.14675 23.9933H16.3368L16.4934 23.4567C16.5968 23.1 16.9134 22.01 15.9468 21.4567C15.8934 21.4267 15.8401 21.4 15.7801 21.38L13.6501 20.5933L15.2468 20.4067C15.9368 20.3333 16.4668 19.7633 16.4901 19.07C20.9056 19.5256 23.2245 19.6544 23.4468 19.4567L23.5034 19.4033L23.5301 19.3333C23.7168 18.7767 23.8634 18.2067 23.9668 17.63C24.1134 16.9 23.7001 16.1767 22.9968 15.9367L13.5868 12.76H13.4634C13.4634 12.76 13.2834 12.7567 12.9868 12.75V12.09L15.9234 10.13C15.9901 10.0833 16.0468 10.0367 16.1001 9.98333C16.8234 9.23333 16.6234 8 16.5068 7.26667L15.4768 0.876667C15.4001 0.366667 14.9701 0 14.4568 0H9.82009V0.01C9.10342 0.07 8.95675 0.593333 8.92675 0.76L7.89675 7.15C7.77675 7.88667 7.58008 9.12 8.30342 9.86667C8.35342 9.92 8.41008 9.96667 8.47342 10.01L11.4168 11.9733V12.7067C11.0168 12.6967 10.5901 12.69 10.1601 12.68C9.33342 12.6633 8.50342 12.64 7.88342 12.64H7.29675C6.82675 12.64 6.51008 12.6533 6.29675 12.8133C5.46675 13.1 2.45675 14.0133 0.596751 14.5667L0.00341797 14.7533ZM9.83342 22.49L12.1501 21.6333L14.4734 22.4933H9.83342V22.49ZM14.5134 4.55H9.88342L10.3668 1.54667H14.0301L14.5134 4.55ZM12.2901 10.7033L9.39342 8.77C9.32008 8.65 9.27675 8.31 9.42342 7.4L9.63342 6.09667H14.7634L14.9901 7.51333C15.1368 8.42333 15.0934 8.76333 15.0201 8.88333L12.2901 10.7067V10.7033ZM14.8734 16.0167H12.9934V14.43C13.1034 14.43 13.2101 14.4367 13.3134 14.4367L22.3134 17.47C22.2734 17.66 22.2434 17.8167 22.2168 17.9533C21.0034 17.8467 18.4434 17.5733 16.4601 17.38C16.3334 16.6 15.6634 16.0233 14.8734 16.0167ZM1.67008 21.82L1.67675 15.9933C5.09342 14.99 6.39342 14.59 7.01008 14.3233C7.48342 14.3133 9.49675 14.35 11.4201 14.3933V16.0167H7.35675V17.6867H14.8334V18.76L7.81008 19.5767L6.67008 20.4867L1.67008 21.8233V21.82Z" fill="black"/>
</g>
<defs>
<clipPath id="clip0_15805_64218">
<rect width="24" height="24" fill="white"/>
</clipPath>
</defs>
</svg>
