<?xml version="1.0" encoding="UTF-8"?>
<svg width="24px" height="24px" viewBox="0 0 24 24" version="1.1" xmlns="http://www.w3.org/2000/svg" xmlns:xlink="http://www.w3.org/1999/xlink">
    <title>Icon/Outline/placeholder-outline</title>
    <g id="Icon/Outline/placeholder-outline" stroke="none" stroke-width="1" fill="none" fill-rule="evenodd">
        <g id="Icon" fill="#474747" fill-rule="nonzero">
            <g id="expand-outline">
                <path d="M0,0 L7.5,0 L7.5,1.5 L1.5,1.5 L1.5,7.5 L0,7.5 L0,0 Z M16.5,0 L24,0 L24,7.5 L22.5,7.5 L22.5,1.5 L16.5,1.5 L16.5,0 Z M22.5,16.5 L24,16.5 L24,24 L16.5,24 L16.5,22.5 L22.5,22.5 L22.5,16.5 Z M0,16.5 L1.5,16.5 L1.5,22.5 L7.5,22.5 L7.5,24 L0,24 L0,16.5 Z M9,0 L15,0 L15,1.5 L9,1.5 L9,0 Z M0,9 L1.5,9 L1.5,15 L0,15 L0,9 Z M22.5,9 L24,9 L24,15 L22.5,15 L22.5,9 Z M9,22.5 L15,22.5 L15,24 L9,24 L9,22.5 Z" id="Combined-Shape"></path>
            </g>
        </g>
    </g>
</svg>