<?xml version="1.0" encoding="UTF-8"?>
<svg width="24px" height="24px" viewBox="0 0 24 24" version="1.1" xmlns="http://www.w3.org/2000/svg" xmlns:xlink="http://www.w3.org/1999/xlink">
    <title>Icon/Outline/platform-outline</title>
    <g id="Icon/Outline/platform-outline" stroke="none" stroke-width="1" fill="none" fill-rule="evenodd">
        <g id="Group" transform="translate(0.000000, 1.000000)" fill="#474747" fill-rule="nonzero">
            <g id="Outline">
                <path d="M24,10.5066667 L21.2066667,8.84 L24,7.17333333 L12.0833333,0.0466666667 L12,0 L0,7.17333333 L2.79333333,8.84 L0,10.5066667 L2.79333333,12.1733333 L0,13.84 L11.9166667,20.9666667 L12,21.0133333 L24,13.84 L21.2066667,12.1733333 L24,10.5066667 Z M4.15666667,9.66 L11.9166667,14.29 L12,14.34 L19.8433333,9.64666667 L21.2733333,10.5066667 L12,16.0466667 L2.72666667,10.5066667 L4.15666667,9.66 Z M21.2733333,7.17333333 L12,12.71 L2.72666667,7.17333333 L12,1.62666667 L21.2733333,7.17333333 Z M2.72666667,13.84 L4.15666667,12.9833333 L11.9166667,17.6266667 L12,17.6766667 L19.8433333,12.9833333 L21.2733333,13.84 L12,19.3866667 L2.72666667,13.84 Z" id="Shape"></path>
            </g>
        </g>
    </g>
</svg>