<?xml version="1.0" encoding="UTF-8"?>
<svg width="24px" height="24px" viewBox="0 0 24 24" version="1.1" xmlns="http://www.w3.org/2000/svg" xmlns:xlink="http://www.w3.org/1999/xlink">
    <title>Icon/Outline/play-outline</title>
    <g id="Icon/Outline/play-outline" stroke="none" stroke-width="1" fill="none" fill-rule="evenodd">
        <g id="Group" transform="translate(-0.000000, -0.000000)" fill="#474747" fill-rule="nonzero">
            <g id="play-outline" transform="translate(0.000000, 0.000000)">
                <path d="M12,1.50000001 C6.20329516,1.50551281 1.50551281,6.20329516 1.50000001,12 C1.50000001,17.7989899 6.20101015,22.5 12,22.5 C17.7989899,22.5 22.5,17.7989899 22.5,12 C22.5,6.20101015 17.7989899,1.50000001 12,1.50000001 Z M12,0 C18.6274171,0 24,5.37258302 24,12 C24,18.6274171 18.6274171,24 12,24 C5.37258302,24 0,18.6274171 0,12 C0,5.37258302 5.37258302,0 12,0 Z M7.91666673,19.7833334 L7.91666673,4.55000002 L19.3533334,12.1666667 L7.91666673,19.7833334 Z M9.41666674,7.35000003 L9.41666674,17.0000001 L16.6466668,12.1666667 L9.41666674,7.35000003 Z" id="Combined-Shape"></path>
            </g>
        </g>
    </g>
</svg>