<?xml version="1.0" encoding="UTF-8"?>
<svg width="24px" height="24px" viewBox="0 0 24 24" version="1.1" xmlns="http://www.w3.org/2000/svg" xmlns:xlink="http://www.w3.org/1999/xlink">
    <title>Icon/Outline/power-button-outline</title>
    <g id="Icon/Outline/power-button-outline" stroke="none" stroke-width="1" fill="none" fill-rule="evenodd">
        <g id="Group" fill="#474747" fill-rule="nonzero">
            <g id="Outline">
                <path d="M14.9973437,1.13727582 C20.5555152,2.78808984 24.0594883,8.26843343 23.225406,14.0062696 C22.3913238,19.7441058 17.4720395,24 11.6738969,24 C5.87575433,24 0.956470017,19.7441058 0.12238773,14.0062696 C-0.711694556,8.26843343 2.79227861,2.78808984 8.35045009,1.13727582 L8.35045009,1.13727582 L8.35045009,2.72145769 C3.64770142,4.34478028 0.805773795,9.12789179 1.62877421,14.0343866 C2.45177462,18.9408815 6.69885706,22.5349041 11.6738969,22.5349041 C16.6489367,22.5349041 20.8960192,18.9408815 21.7190196,14.0343866 C22.54202,9.12789179 19.7000924,4.34478028 14.9973437,2.72145769 L14.9973437,2.72145769 Z M12.4126259,0 L12.4126259,11.8363399 L10.9151572,11.8363399 L10.9151572,0 L12.4126259,0 Z" id="Combined-Shape"></path>
            </g>
        </g>
    </g>
</svg>