<?xml version="1.0" encoding="UTF-8"?>
<svg width="24px" height="24px" viewBox="0 0 24 24" version="1.1" xmlns="http://www.w3.org/2000/svg" xmlns:xlink="http://www.w3.org/1999/xlink">
    <title>Icon/Outline/power-plant-outline</title>
    <g id="Icon/Outline/power-plant-outline" stroke="none" stroke-width="1" fill="none" fill-rule="evenodd">
        <g id="Group" fill="#474747" fill-rule="nonzero">
            <g id="Outline">
                <path d="M22.1333333,22.44 C21.63,19.85 21.2066667,17.2833333 20.8733333,14.81 L20.6033333,12.69 C20.3533333,10.7333333 20.17,9.30666667 20.05,7.26333333 L20.57,7.26333333 L20.57,3.93 L11.95,3.93 L11.95,7.26333333 L12.4233333,7.26333333 C12.29,9.55333333 12.09,11.1866667 11.7833333,13.4233333 L11.6666667,14.3266667 C11.4433333,16.06 11.17,17.8433333 10.86,19.6333333 L10.2266667,19.6333333 L9.81,0 L6.90666667,0 L6.18666667,17.1766667 L5.75333333,4.30666667 L2.86,4.30666667 L2.16,19.64 L0.966666667,19.64 L0.966666667,22.4466667 L0,22.4466667 L0,24 L24,24 L24,22.44 L22.1333333,22.44 Z M4.49333333,5.87333333 L4.87333333,19.7533333 L3.46333333,19.7533333 L4.16666667,5.87333333 L4.49333333,5.87333333 Z M8.20333333,1.27 L8.35,1.27 L8.35,1.23333333 L8.37,1.23333333 L8.37,1.27333333 L8.53,1.27333333 L8.80333333,19.84 L7.39,19.84 L8.20333333,1.27 Z M2.44666667,22.3533333 L2.44666667,21.12 L10.5666667,21.12 L10.3333333,22.3533333 L2.44666667,22.3533333 Z M13.3333333,6.06333333 L13.3333333,5.23333333 L19.1733333,5.23333333 L19.1733333,6.05666667 L13.3333333,6.06333333 Z M12.2,20.36 L12.3333333,19.7433333 L12.3633333,19.55 L12.3633333,19.55 C12.6566667,17.8533333 12.9166667,16.16 13.1333333,14.5133333 L13.24,13.7 C13.5466667,11.3666667 13.77,9.7 13.9066667,7.31333333 L18.5733333,7.31333333 C18.6933333,9.40666667 18.88,10.86 19.1366667,12.8533333 L19.4,14.9 C19.7333333,17.3033333 20.1333333,19.7933333 20.6266667,22.3133333 L11.8466667,22.3133333 C11.9733333,21.6633333 12.0966667,21.0033333 12.2133333,20.36 L12.2,20.36 Z" id="Shape"></path>
            </g>
        </g>
    </g>
</svg>