<?xml version="1.0" encoding="UTF-8"?>
<svg width="24px" height="24px" viewBox="0 0 24 24" version="1.1" xmlns="http://www.w3.org/2000/svg" xmlns:xlink="http://www.w3.org/1999/xlink">
    <title>Icon/Outline/powerbi-outline</title>
    <g id="Icon/Outline/powerbi-outline" stroke="none" stroke-width="1" fill="none" fill-rule="evenodd">
        <g id="Group" fill="#474747" fill-rule="nonzero">
            <g id="Outline">
                <path d="M-5.92118946e-16,1.5 L-5.92118946e-16,22.5 C-5.92118946e-16,23.3284271 0.671572875,24 1.5,24 L22.5,24 C23.3284271,24 24,23.3284271 24,22.5 L24,1.5 C24,0.671572875 23.3284271,-5.92118946e-16 22.5,-5.92118946e-16 L1.5,-5.92118946e-16 C0.671572875,-5.92118946e-16 -5.92118946e-16,0.671572875 -5.92118946e-16,1.5 Z M22.49,1.5 L22.49,22.5 L1.49,22.5 L1.49,1.5 L22.49,1.5 Z M5.24,16.0233333 L5.24,19.6566667 L4.16,19.6566667 L4.16,16.0233333 L5.24,16.0233333 M6.74,14.5233333 L2.66666667,14.5233333 L2.66666667,21.17 L6.74,21.17 L6.74,14.5233333 Z M10.1166667,10.2733333 L10.1166667,19.6566667 L9.04,19.6566667 L9.04,10.2733333 L10.1166667,10.2733333 M11.6166667,8.77333333 L7.54,8.77333333 L7.54,21.17 L11.6166667,21.17 L11.6166667,8.77333333 L11.6166667,8.77333333 Z M15,14.1633333 L15,19.6566667 L13.9166667,19.6566667 L13.9166667,14.1633333 L15,14.1633333 M16.5,12.6633333 L12.4166667,12.6633333 L12.4166667,21.17 L16.4966667,21.17 L16.4966667,12.6566667 L16.5,12.6633333 Z M19.8766667,6.55 L19.8766667,19.6566667 L18.7966667,19.6566667 L18.7966667,6.55 L19.8766667,6.55 M21.3766667,5.05 L17.2966667,5.05 L17.2966667,21.17 L21.3766667,21.17 L21.3766667,5.05 Z" id="Shape"></path>
            </g>
        </g>
    </g>
</svg>