<?xml version="1.0" encoding="UTF-8"?>
<svg width="24px" height="24px" viewBox="0 0 24 24" version="1.1" xmlns="http://www.w3.org/2000/svg" xmlns:xlink="http://www.w3.org/1999/xlink">
    <title>Icon/Outline/powerport-plug-outlet-outline</title>
    <g id="Icon/Outline/powerport-plug-outlet-outline" stroke="none" stroke-width="1" fill="none" fill-rule="evenodd">
        <g id="Group" transform="translate(0.001628, 4.000000)" fill="#474747" fill-rule="nonzero">
            <g id="Outline">
                <path d="M18.0379274,0.00473118704 C18.7672153,-0.0412545698 19.4772858,0.249898886 19.9643575,0.794634197 L19.9643575,0.794634197 L23.2972816,4.27420695 C23.5390866,4.51190561 23.7296459,4.79661021 23.8572129,5.1107709 C23.9590767,5.38101108 24.0066452,5.66868731 23.9971957,5.95733362 L23.9971957,5.95733362 L23.9971957,12.8298231 C23.9935342,14.7855337 22.4100037,16.3705539 20.4542974,16.3760543 L20.4542974,16.3760543 L3.54637346,16.3760543 C1.58936548,16.3723861 0.00381047643,14.7868311 0.000142223135,12.8298231 L0.000142223135,12.8298231 L1.01620969e-13,5.78460764 C0.00885593279,5.55474338 0.0537837618,5.32732803 0.133459187,5.1107709 C0.261026226,4.79661021 0.451585484,4.51190561 0.693390435,4.27420695 L0.693390435,4.27420695 L4.02631453,0.794634197 C4.51338633,0.249898886 5.22345678,-0.0412545698 5.95274466,0.00473118704 L5.95274466,0.00473118704 Z M18.0512591,1.4445544 L18.0445933,1.45455317 L5.95274466,1.45455317 C5.6267585,1.40917115 5.30042308,1.53516938 5.08951732,1.78784558 L1.75659322,5.2774171 C1.64720634,5.37792999 1.55884498,5.49914365 1.49662514,5.63403998 C1.47480043,5.70597339 1.46150898,5.78008907 1.45693349,5.85486458 L1.45663005,12.8298231 C1.46028924,13.9861189 2.39674353,14.9225732 3.55303931,14.9262324 L20.4542974,14.9262324 C21.6092914,14.9207468 22.5437259,13.9848244 22.5473737,12.8298231 L22.5473737,5.95733362 C22.5536529,5.84475156 22.5401157,5.73194132 22.5073786,5.62404121 C22.4451588,5.48914488 22.3567974,5.36793122 22.2474106,5.26741833 L18.9144865,1.77784681 C18.7039671,1.52463202 18.3773211,1.39851385 18.0512591,1.4445544 Z M13.1185315,3.40098084 L13.1185315,8.12040136 L10.8888052,8.12040136 L10.8888052,3.40098084 L13.1185315,3.40098084 Z M19.331102,12.6465123 L16.9980551,12.6465123 L16.9980551,7.92709176 L19.331102,7.92709176 L19.331102,12.6465123 Z M4.66623596,12.6465123 L4.66623596,7.92709176 L6.8026403,7.92709176 L6.8026403,12.6465123 L4.66623596,12.6465123 Z" id="Shape"></path>
            </g>
        </g>
    </g>
</svg>