<?xml version="1.0" encoding="UTF-8"?>
<svg width="24px" height="24px" viewBox="0 0 24 24" version="1.1" xmlns="http://www.w3.org/2000/svg" xmlns:xlink="http://www.w3.org/1999/xlink">
    <title>Icon/Outline/ppt-outline</title>
    <g id="Icon/Outline/ppt-outline" stroke="none" stroke-width="1" fill="none" fill-rule="evenodd">
        <g id="Group" transform="translate(-0.000000, -0.000000)" fill="#474747" fill-rule="nonzero">
            <g id="ppt" transform="translate(0.000000, 3.000000)">
                <path d="M22.5,0 C23.3280001,0 24,0.672000003 24,1.5 L24,18 L0,18 L0,0 L22.5,0 Z M1.50000001,16.5 L22.5,16.5 L22.5,1.50000001 L1.50000001,1.50000001 L1.50000001,16.5 Z M5.89862072,9.94368139 L5.89862072,12 L4.50000002,12 L4.50000002,6.00000003 L6.80068969,6.00000003 C7.51517598,6.00000003 8.08206693,6.18131688 8.50137934,6.54395605 C8.92069181,6.90659523 9.13034486,7.38323883 9.13034486,7.97390111 C9.13034486,8.56456346 8.92069181,9.04052021 8.50137934,9.40178576 C8.08206693,9.76305132 7.51517598,9.94368139 6.80068969,9.94368139 L5.89862072,9.94368139 Z M5.89862072,8.87225276 L6.80068969,8.87225276 C7.10413948,8.87225276 7.3358613,8.78914924 7.4958621,8.62293956 C7.65586293,8.45672996 7.73586213,8.24313318 7.73586213,7.98214286 C7.73586213,7.71565803 7.65655256,7.49725361 7.49793107,7.32692313 C7.33930958,7.15659258 7.10689811,7.07142858 6.80068969,7.07142858 L5.89862072,7.07142858 L5.89862072,8.87225276 Z M11.3027586,9.94368139 L11.3027586,12 L9.90413794,12 L9.90413794,6.00000003 L12.2048276,6.00000003 C12.919314,6.00000003 13.4862049,6.18131688 13.9055173,6.54395605 C14.3248297,6.90659523 14.5344828,7.38323883 14.5344828,7.97390111 C14.5344828,8.56456346 14.3248297,9.04052021 13.9055173,9.40178576 C13.4862049,9.76305132 12.919314,9.94368139 12.2048276,9.94368139 L11.3027586,9.94368139 Z M11.3027586,8.87225276 L12.2048276,8.87225276 C12.5082775,8.87225276 12.7399993,8.78914924 12.9000001,8.62293956 C13.0600009,8.45672996 13.1400001,8.24313318 13.1400001,7.98214286 C13.1400001,7.71565803 13.0606905,7.49725361 12.902069,7.32692313 C12.7434475,7.15659258 12.5110361,7.07142858 12.2048276,7.07142858 L11.3027586,7.07142858 L11.3027586,8.87225276 Z M19.5000001,7.07142858 L17.9068966,7.07142858 L17.9068966,12 L16.5082759,12 L16.5082759,7.07142858 L14.944138,7.07142858 L14.944138,6.00000003 L19.5000001,6.00000003 L19.5000001,7.07142858 Z" id="Combined-Shape"></path>
            </g>
        </g>
    </g>
</svg>