<svg width="24" height="24" viewBox="0 0 24 24" fill="none" xmlns="http://www.w3.org/2000/svg">
<g clip-path="url(#clip0_15805_64224)">
<path d="M12.7485 3.08832V5.43499C12.7485 5.85166 12.4119 6.18832 11.9985 6.18832C11.5852 6.18832 11.2485 5.85166 11.2485 5.43499V3.08832C11.2485 2.67166 11.5852 2.33499 11.9985 2.33499C12.4119 2.33499 12.7485 2.67499 12.7485 3.08832ZM9.4452 3.38832C9.36187 3.20499 9.20854 3.06832 9.02187 2.99832C8.8352 2.92832 8.62854 2.93832 8.44854 3.02499C8.07187 3.20166 7.91187 3.65166 8.0852 4.02832L9.07187 6.15499C9.1552 6.33832 9.30854 6.47499 9.4952 6.54499C9.57854 6.57499 9.6652 6.59166 9.75187 6.59166C9.85854 6.59166 9.96854 6.56832 10.0685 6.52166C10.2519 6.43499 10.3885 6.28499 10.4585 6.09499C10.5285 5.90499 10.5185 5.70166 10.4319 5.51832L9.4452 3.39166V3.38832ZM15.5485 3.02166C15.3652 2.93499 15.1619 2.92832 14.9752 2.99499C14.7852 3.06499 14.6352 3.20166 14.5519 3.38499L13.5652 5.51166C13.4819 5.69499 13.4719 5.89832 13.5385 6.08832C13.6052 6.27832 13.7452 6.42833 13.9252 6.51499C14.0252 6.56166 14.1352 6.58499 14.2419 6.58499C14.3285 6.58499 14.4152 6.56833 14.4985 6.53833C14.6885 6.46833 14.8385 6.33166 14.9219 6.14833L15.9085 4.02166C16.0819 3.64499 15.9219 3.19499 15.5452 3.01832L15.5485 3.02166ZM23.9952 9.73832C23.9452 8.85166 23.2185 8.15499 22.3419 8.15499H22.2619C22.1619 8.15499 22.0619 8.16499 21.9652 8.18499C21.7152 7.59832 21.1419 7.20833 20.5185 7.20833H20.4685C20.3385 7.20833 20.2085 7.22499 20.0819 7.25499C19.8152 6.64832 19.2319 6.25833 18.5685 6.25833H18.5152C18.0252 6.25833 17.5619 6.49499 17.2619 6.89166C17.1019 6.83832 16.9385 6.81166 16.7685 6.81166H16.7119C16.2919 6.81166 15.8952 6.97832 15.5985 7.28166C15.2985 7.58499 15.1352 7.99166 15.1352 8.42499V12.585C14.9219 12.4417 14.6752 12.3483 14.4185 12.3117C13.9485 12.2417 13.4785 12.3683 13.0952 12.6617L12.9652 12.7617C12.1919 13.3683 12.0385 14.5017 12.6185 15.2883C13.0652 15.9517 13.5685 16.7217 13.9152 17.2483L14.1085 17.545C14.2985 17.8483 14.4752 18.1683 14.6385 18.495C15.0152 19.2483 15.4852 20.185 16.4152 20.8017C17.2152 21.345 18.1452 21.645 19.1119 21.6617H19.5652C20.9185 21.6517 22.1919 21.035 23.0585 19.9717C24.0019 18.8117 24.0019 17.465 24.0019 16.2817V9.73832H23.9952ZM22.6585 15.6083V16.275C22.6585 17.2783 22.6585 18.3183 22.0219 19.105C21.4085 19.8617 20.5085 20.2983 19.5485 20.3083H19.1119C18.4085 20.295 17.7252 20.0783 17.1352 19.6817C16.5385 19.2883 16.2019 18.6417 15.8485 17.955L15.8119 17.8817C15.6319 17.515 15.4319 17.1517 15.2152 16.805L15.0185 16.5017C14.5552 15.7883 14.1019 15.1017 13.6952 14.5017C13.5352 14.2983 13.5685 14.0017 13.7719 13.835L13.8985 13.7383C13.9819 13.675 14.0819 13.645 14.1752 13.645C14.3085 13.645 14.4352 13.7017 14.5219 13.8117L15.3052 15.1083C15.3819 15.2583 15.5085 15.3683 15.6652 15.4217C15.8019 15.465 15.9419 15.4583 16.0752 15.4083L16.0619 15.3783C16.2252 15.2917 16.3185 15.1183 16.3052 14.9317V8.57499C16.3052 8.33832 16.4952 8.14166 16.7285 8.14166H16.7852C17.0152 8.14499 17.1985 8.34166 17.1985 8.57499V13.7417C17.1985 14.0217 17.4319 14.2517 17.7019 14.2417C17.8052 14.2417 17.9052 14.1983 17.9785 14.1217C18.0652 14.025 18.1085 13.8917 18.0985 13.7617V8.01832C18.0985 7.78166 18.2885 7.58499 18.5219 7.58499H18.5819C18.8219 7.57499 19.0419 7.75499 19.0819 8.00833V13.7417C19.0819 13.875 19.1352 14.0017 19.2285 14.095C19.3252 14.1917 19.4452 14.235 19.5885 14.2417C19.6952 14.2417 19.7952 14.1983 19.8685 14.1217C19.9552 14.025 19.9985 13.895 19.9885 13.7617V8.97499C20.0285 8.72166 20.2419 8.54832 20.4819 8.54499H20.5452C20.7785 8.55166 20.9585 8.74166 20.9585 8.97833V13.745C20.9452 13.8917 20.9885 14.0283 21.0785 14.1283C21.1519 14.205 21.2619 14.2317 21.3685 14.245C21.6385 14.245 21.8585 14.0217 21.8585 13.745V9.91833C21.8585 9.68499 22.0419 9.49166 22.2685 9.48499H22.3285C22.5719 9.48833 22.7819 9.66166 22.8252 9.89499V9.91166L22.6685 15.6117L22.6585 15.6083ZM-0.00146484 16.285C-0.00146484 17.4717 -0.00146484 18.815 0.941868 19.975C1.80854 21.0383 3.08187 21.655 4.4352 21.665H4.88854C5.8552 21.6483 6.7852 21.3483 7.5852 20.805C8.51187 20.1883 8.9852 19.2517 9.36187 18.4983C9.52187 18.1717 9.69854 17.8517 9.89187 17.5483L10.0852 17.2517C10.4285 16.725 10.9352 15.9583 11.3819 15.2917C11.9619 14.505 11.8085 13.3683 11.0352 12.765L10.9052 12.665C10.5185 12.3683 10.0485 12.245 9.58187 12.315C9.3252 12.3517 9.08187 12.445 8.8652 12.5883V8.42833C8.8652 7.99499 8.69854 7.58833 8.40187 7.28499C8.1052 6.98166 7.70854 6.81499 7.28854 6.81499H7.23187C7.0652 6.81499 6.89854 6.84166 6.73854 6.89499C6.44187 6.49832 5.97854 6.26166 5.4852 6.26166H5.43187C4.77187 6.26166 4.1852 6.64833 3.91854 7.25833C3.79187 7.22833 3.66187 7.21166 3.53187 7.21166H3.48187C2.85854 7.21166 2.2852 7.60166 2.0352 8.18832C1.93854 8.16832 1.83854 8.15832 1.73854 8.15832H1.65854C0.781868 8.15832 0.0585352 8.85499 0.00520182 9.74166V16.285H-0.00146484ZM1.1752 9.91166V9.89499C1.22187 9.66166 1.43187 9.48833 1.6752 9.48499H1.7352C1.96187 9.49166 2.14854 9.68499 2.1452 9.91833V13.745C2.1452 14.0217 2.3652 14.245 2.6352 14.245C2.7452 14.2317 2.85187 14.2017 2.9252 14.1283C3.0152 14.0283 3.05854 13.8917 3.0452 13.745V8.97833C3.0452 8.74166 3.2252 8.55166 3.45854 8.54499H3.52187C3.76187 8.54832 3.9752 8.72166 4.0152 8.97499V13.7617C4.00187 13.895 4.04854 14.0283 4.1352 14.1217C4.20854 14.1983 4.31187 14.2417 4.4152 14.2417C4.55854 14.2317 4.67854 14.1917 4.7752 14.095C4.86854 14.0017 4.92187 13.875 4.92187 13.7417V8.00833C4.96187 7.75499 5.18187 7.57499 5.42187 7.58499H5.48187C5.7152 7.58499 5.9052 7.77832 5.9052 8.01832V13.7617C5.8952 13.895 5.94187 14.0283 6.0252 14.1217C6.09854 14.1983 6.19854 14.2417 6.30187 14.2417C6.57187 14.2517 6.8052 14.0217 6.8052 13.7417V8.57499C6.8052 8.34166 6.98854 8.14832 7.21854 8.14166H7.2752C7.50854 8.14166 7.69854 8.33499 7.69854 8.57499V14.9317C7.6852 15.1183 7.77854 15.2917 7.94187 15.3783L7.92854 15.4083C8.05854 15.4617 8.20187 15.4683 8.33854 15.4217C8.4952 15.3717 8.62187 15.2583 8.69854 15.1083L9.48187 13.8117C9.56854 13.705 9.6952 13.645 9.82854 13.645C9.9252 13.645 10.0219 13.675 10.1052 13.7383L10.2319 13.835C10.4352 14.0017 10.4685 14.2983 10.3085 14.5017C9.89854 15.1017 9.44854 15.7917 8.9852 16.5017L8.78854 16.805C8.56854 17.1517 8.36854 17.515 8.19187 17.8817L8.1552 17.955C7.79854 18.6417 7.46187 19.2883 6.86854 19.6817C6.28187 20.0817 5.59854 20.2983 4.89187 20.3083H4.4552C3.4952 20.2983 2.5952 19.8617 1.98187 19.105C1.3452 18.3183 1.3452 17.2783 1.3452 16.275V15.6083L1.1852 9.90832L1.1752 9.91166Z" fill="black"/>
</g>
<defs>
<clipPath id="clip0_15805_64224">
<rect width="24" height="24" fill="white"/>
</clipPath>
</defs>
</svg>
