<?xml version="1.0" encoding="UTF-8"?>
<svg width="24px" height="24px" viewBox="0 0 24 24" version="1.1" xmlns="http://www.w3.org/2000/svg" xmlns:xlink="http://www.w3.org/1999/xlink">
    <title>Icon/Outline/prescription-outline</title>
    <g id="Icon/Outline/prescription-outline" stroke="none" stroke-width="1" fill="none" fill-rule="evenodd">
        <g id="Group" transform="translate(2.000000, 0.000000)" fill="#474747" fill-rule="nonzero">
            <g id="Outline">
                <path d="M19.48,24 L17.4066667,24 L12.6033333,17.96 L7.81333333,24 L5.78,24 L11.5733333,16.7933333 L7.26333333,11.4366667 L1.74,11.4366667 L1.74,19.2833333 L0,19.2833333 L0,0 L8.12666667,0 C10.4066667,0 12.3433333,0.666666667 13.58,1.91666667 C14.538046,2.88577371 15.0747304,4.19394196 15.0733333,5.55666667 L15.0733333,5.61 C15.0733333,8.61 12.9433333,10.7066667 9.38,11.19 L9.18,11.2233333 L12.6566667,15.6 L17.23,9.85666667 L19.2633333,9.85666667 L13.6866667,16.7666667 L19.48,24 Z M1.74,9.82333333 L7.96666667,9.82333333 C11.2166667,9.82333333 13.3,8.19 13.3,5.66333333 L13.3,5.61 C13.3,3.12333333 11.33,1.64 8.03,1.64 L1.74,1.64 L1.74,9.82333333 Z" id="Shape"></path>
            </g>
        </g>
    </g>
</svg>