<?xml version="1.0" encoding="UTF-8"?>
<svg width="24px" height="24px" viewBox="0 0 24 24" version="1.1" xmlns="http://www.w3.org/2000/svg" xmlns:xlink="http://www.w3.org/1999/xlink">
    <title>Icon/Outline/printer-outline</title>
    <g id="Icon/Outline/printer-outline" stroke="none" stroke-width="1" fill="none" fill-rule="evenodd">
        <g id="Group" transform="translate(-0.000000, 1.500000)" fill="#474747" fill-rule="nonzero">
            <g id="printer">
                <path d="M7.50000003,1.5 L7.50000003,4.5 L6.00000003,4.5 L6.00000003,1.5 C6.00000003,0.672000003 6.67200003,0 7.50000003,0 L16.5,0 C17.3280001,0 18,0.672000003 18,1.5 L18,4.5 L16.5,4.5 L16.5,1.5 L7.50000003,1.5 Z M16.6153847,12.7500001 C17.3796924,12.7500001 18,13.4892001 18,14.4000001 L18,16.0841001 L18,17.7341001 L18,19.9000001 C18,20.5083001 17.5864616,21.0000001 17.0769232,21.0000001 L6.92307695,21.0000001 C6.41353849,21.0000001 6.00000003,20.5083001 6.00000003,19.9000001 L6.00000003,17.7341001 L6.00000003,16.0841001 L6.00000003,13.8500001 C6.00000003,13.2428001 6.41353849,12.7500001 6.92307695,12.7500001 L16.6153847,12.7500001 Z M16.5,17.7861667 L16.5,16.0361668 L16.5,14.2500001 L7.50000003,14.2500001 L7.50000003,16.0361668 L7.50000003,17.7861667 L7.50000003,19.5000001 L16.5,19.5000001 L16.5,17.7861667 Z M1.5,6.00000003 L22.5,6.00000003 C23.3280001,6.00000003 24,6.65520003 24,7.46250003 L24,18 L20,18 L20,16.5375001 L22.5,16.5375001 L22.5,7.46250003 L1.5,7.46250003 L1.5,16.5375001 L4,16.5375001 L4,18 L0,18 L0,7.46250003 C0,6.65520003 0.672000003,6.00000003 1.5,6.00000003 Z" id="Combined-Shape"></path>
            </g>
        </g>
    </g>
</svg>