<?xml version="1.0" encoding="UTF-8"?>
<svg width="24px" height="24px" viewBox="0 0 24 24" version="1.1" xmlns="http://www.w3.org/2000/svg" xmlns:xlink="http://www.w3.org/1999/xlink">
    <title>Icon/Outline/productivity-outline</title>
    <g id="Icon/Outline/productivity-outline" stroke="none" stroke-width="1" fill="none" fill-rule="evenodd">
        <g id="Group" transform="translate(5.000000, 0.000000)" fill="#474747" fill-rule="nonzero">
            <g id="Outline">
                <path d="M7.09333333,0 L7.48,0.366666667 C10.4466667,3.02 11.07,7.32333333 11.07,10.4666667 L11.07,10.4666667 L11.07,12.3333333 L14.1833333,14.6666667 L14.1833333,18.2666667 L0,18.2666667 L0,14.6666667 L3.12333333,12.3333333 L3.12333333,10.44 C3.12333333,7.29333333 3.73666667,3 6.69333333,0.333333333 L6.69333333,0.333333333 L7.09333333,0 Z M3.12333333,13.7733333 L1.16,15.2366667 L1.16,17.1033333 L3.12333333,17.1033333 L3.12333333,13.7733333 Z M7.09333333,1.59 C4.77666667,3.98666667 4.27666667,7.69666667 4.27666667,10.4533333 L4.27666667,10.4533333 L4.27666667,17.1 L6.52666667,17.1 L6.52666667,12.61 L7.68666667,12.61 L7.68666667,17.1033333 L9.91666667,17.1033333 L9.91,10.4533333 C9.91,7.69 9.40666667,3.98333333 7.09333333,1.59 Z M11.07,13.77 L11.07,17.1033333 L13.0333333,17.1033333 L13.0233333,15.2333333 L11.07,13.77 Z M7.09333333,6.39997953 C7.74396058,6.39734074 8.36885192,6.65393937 8.82985601,7.11306692 C9.2908601,7.57219447 9.55,8.19603399 9.55,8.84666667 C9.55,10.1966191 8.45660427,11.291479 7.10665305,11.2933129 C5.75670183,11.2951423 4.66035032,10.2032536 4.65666647,8.8533061 C4.65300114,7.50335864 5.74339215,6.40551752 7.09333333,6.39997953 Z M7.58803343,7.6555677 C7.10734741,7.45536545 6.55338329,7.56462289 6.18470773,7.93234333 C5.81603217,8.30006378 5.7053381,8.85374261 5.90429276,9.33494635 C6.10324742,9.81615009 6.57262228,10.13 7.09333333,10.13 C7.80264,10.13 8.37816242,9.55597095 8.38000435,8.84666667 C8.38134899,8.32595736 8.06871946,7.85576995 7.58803343,7.6555677 Z M3.11666667,19.38 L4.28,19.38 L4.28,22.5333333 L3.11666667,22.5333333 L3.11666667,19.38 Z M6.53666667,19.38 L7.7,19.38 L7.7,24 L6.53666667,24 L6.53666667,19.38 Z M9.92333333,19.38 L11.0866667,19.38 L11.0866667,22.5333333 L9.92333333,22.5333333 L9.92333333,19.38 Z M13.0233333,19.38 L14.1866667,19.38 L14.1866667,21.0466667 L13.0233333,21.0466667 L13.0233333,19.38 Z M0,19.38 L1.16333333,19.38 L1.16333333,21.0466667 L0,21.0466667 L0,19.38 Z" id="Combined-Shape"></path>
            </g>
        </g>
    </g>
</svg>