<?xml version="1.0" encoding="UTF-8"?>
<svg width="24px" height="24px" viewBox="0 0 24 24" version="1.1" xmlns="http://www.w3.org/2000/svg" xmlns:xlink="http://www.w3.org/1999/xlink">
    <title>Icon/Outline/profitability-outline</title>
    <g id="Icon/Outline/profitability-outline" stroke="none" stroke-width="1" fill="none" fill-rule="evenodd">
        <g id="Group" transform="translate(-0.000000, 0.750000)" fill="#474747" fill-rule="nonzero">
            <g id="profitability-outline">
                <path d="M23.9700001,17.2766668 C24.116982,18.0036637 23.7018785,18.7268855 23,18.9666668 L13.5900001,22.1366668 L13.4666668,22.1366668 C13.4666668,22.1366668 11.8266667,22.1766668 10.1600001,22.2100001 C9.33333334,22.2266668 8.50333339,22.2500001 7.88333336,22.2500001 L7.2966667,22.2500001 C6.82666669,22.2500001 6.51000003,22.2366668 6.2966667,22.0766668 C5.46666669,21.7900001 2.45666668,20.8800001 0.596666669,20.3266667 L0,20.1466667 L0,10.9166667 L7.40333336,12.9033334 L8.45333336,13.72 L15.25,14.5066667 C15.9387327,14.5793115 16.4689204,15.1478773 16.4933334,15.8400001 C23.1166667,15.1566667 23.1166667,15.1633334 23.4500001,15.4533334 L23.5066667,15.5066668 L23.5333334,15.5766667 C23.721116,16.1316401 23.8670797,16.6998954 23.9700001,17.2766668 Z M1.66666667,13.0933334 L1.67333334,18.9100001 C5.09000002,19.9100001 6.39000003,20.3100001 7.00666669,20.5766668 C7.64333336,20.5900001 11.07,20.5166668 13.3100001,20.4633334 L22.3100001,17.4366667 C22.2700001,17.2466668 22.2400001,17.0900001 22.2133334,16.9533334 C21.0000001,17.0600001 18.4400001,17.3333334 16.4566667,17.5266667 C16.3286795,18.3054164 15.6591625,18.8792882 14.8700001,18.8866667 L7.35333336,18.8866667 L7.35333336,17.2200001 L14.83,17.2200001 L14.83,16.15 L7.80666671,15.3333334 L6.66666667,14.4266668 L1.66666667,13.0933334 Z M11.9999139,8.25000001 C10.3460256,8.25000001 9.00415009,6.9113938 9.00000003,5.25751072 C8.99586919,3.60362766 10.3310259,2.25836705 11.9848932,2.25000001 C13.6387605,2.24171066 14.9873975,3.57345677 14.9999134,5.22729765 C15.0059574,6.02295381 14.6956688,6.7884205 14.1373125,7.35529211 C13.5789561,7.92216371 12.8182731,8.24400146 12.0226166,8.25000001 L11.9999139,8.25000001 Z M11.9999139,3.79054112 C11.6091028,3.7857011 11.2331857,3.94028384 10.9588329,4.21864916 C10.390761,4.79141056 10.390761,5.71507662 10.9588329,6.28783803 C11.2375827,6.55637739 11.6096115,6.70635147 11.9966706,6.70621643 C12.8032361,6.69908054 13.4517971,6.04036317 13.4464001,5.23378414 C13.4446837,4.84757045 13.2896127,4.47785738 13.0153019,4.20597954 C12.7409911,3.93410168 12.3699113,3.78233048 11.9836977,3.7840401 L11.9999139,3.79054112 Z M3.00000001,10.5 L3.00000001,0 L21.7500001,0 L21.7500001,10.5 L3.00000001,10.5 Z M4.50000002,1.50000001 L4.50000002,9.00000001 L20.2500001,9.00000001 L20.2500001,1.50000001 L4.50000002,1.50000001 Z" id="Combined-Shape"></path>
            </g>
        </g>
    </g>
</svg>