<?xml version="1.0" encoding="UTF-8"?>
<svg width="24px" height="24px" viewBox="0 0 24 24" version="1.1" xmlns="http://www.w3.org/2000/svg" xmlns:xlink="http://www.w3.org/1999/xlink">
    <title>Icon/Outline/projector-outline</title>
    <g id="Icon/Outline/projector-outline" stroke="none" stroke-width="1" fill="none" fill-rule="evenodd">
        <g id="Group" transform="translate(0.000000, 6.000000)" fill="#474747" fill-rule="nonzero">
            <g id="Outline">
                <path d="M21.7629877,12.1767874 L19.8997122,12.1767874 C19.6235783,12.1767874 19.3997277,11.9529367 19.3997277,11.6768029 C19.3997277,11.4006691 19.6235783,11.1768184 19.8997122,11.1768184 L21.7629877,11.1768184 C22.0391216,11.1768184 22.2629722,11.4006691 22.2629722,11.6768029 C22.2629722,11.9529367 22.0391216,12.1767874 21.7629877,12.1767874 L21.7629877,12.1767874 Z M4.09686867,12.1767874 L2.24025956,12.1767874 C1.96412574,12.1767874 1.74027505,11.9529367 1.74027505,11.6768029 C1.74027505,11.4006691 1.96412574,11.1768184 2.24025956,11.1768184 L4.1002019,11.1768184 C4.37633572,11.1768184 4.60018641,11.4006691 4.60018641,11.6768029 C4.60018641,11.9529367 4.37633572,12.1767874 4.1002019,12.1767874 L4.09686867,12.1767874 Z M22.5662962,10.9334926 L1.43028466,10.9334926 C1.04856124,10.9417639 0.680020825,10.7937659 0.410038248,10.5237833 C0.140055672,10.2538008 -0.00794232219,9.88526034 0.000328987631,9.50353693 L0.000328987631,3.28706295 C-0.00794232219,2.90533953 0.140055672,2.53679911 0.410038248,2.26681654 C0.680020825,1.99683396 1.04856124,1.84883597 1.43028466,1.85710728 L13.0165922,1.85710728 C13.7310689,0.702584969 14.992104,0 16.3498222,0 C17.7075404,0 18.9685755,0.702584969 19.6830522,1.85710728 L22.5596297,1.85710728 C22.9433431,1.84508235 23.3150872,1.9915365 23.587491,2.26204853 C23.8598947,2.53256055 24.0089358,2.90327511 23.9995851,3.28706295 L23.9995851,9.50353693 C24.0078564,9.88526034 23.8598584,10.2538008 23.5898758,10.5237833 C23.3198932,10.7937659 22.9513528,10.9417639 22.5696294,10.9334926 L22.5662962,10.9334926 Z M1.43028466,2.85040982 C1.19173521,2.85405222 1.00029799,3.04848569 1.00029799,3.28706295 L1.00029799,9.50353693 C1.00029799,9.61934454 1.04630239,9.73040897 1.12819073,9.81229732 C1.21007908,9.89418566 1.32114351,9.94019006 1.43695112,9.94019006 L22.5696294,9.94019006 C22.8081789,9.93654766 22.9996161,9.74211418 22.9996161,9.50353693 L22.9996161,3.28706295 C22.9996161,3.04590609 22.8041198,2.85040982 22.5629629,2.85040982 L20.1163721,2.85040982 C20.5513871,4.32617209 20.0812753,5.91990069 18.914964,6.92331004 C17.7486528,7.9267194 16.102595,8.1535891 14.7083325,7.5030936 C13.31407,6.85259811 12.4303607,5.44546138 12.4499431,3.90704373 C12.4502154,3.5508609 12.4938688,3.19603708 12.5799391,2.85040982 L1.43028466,2.85040982 Z M8.58006304,8.75022694 L2.666913,8.75022694 C2.39077918,8.75022694 2.1669285,8.52637626 2.1669285,8.25024244 C2.1669285,7.97410863 2.39077918,7.75025794 2.666913,7.75025794 L8.58006304,7.75025794 C8.85619686,7.75025794 9.08004754,7.97410863 9.08004754,8.25024244 C9.08004754,8.52637626 8.85619686,8.75022694 8.58006304,8.75022694 L8.58006304,8.75022694 Z M16.3531554,0.983801014 C14.7386931,0.983801014 13.4299127,2.29258136 13.4299127,3.90704373 C13.4299127,5.52150611 14.7386931,6.83028646 16.3531554,6.83028646 C17.9676178,6.83028646 19.2763982,5.52150611 19.2763982,3.90704373 C19.2845051,3.12929463 18.9791254,2.38103684 18.4291439,1.8310553 C17.8791623,1.28107375 17.1309045,0.975694106 16.3531554,0.983801014 Z M8.58006304,6.8902846 L2.666913,6.8902846 C2.39077918,6.8902846 2.1669285,6.66643391 2.1669285,6.39030009 C2.1669285,6.11416628 2.39077918,5.89031559 2.666913,5.89031559 L8.58006304,5.89031559 C8.85619686,5.89031559 9.08004754,6.11416628 9.08004754,6.39030009 C9.08004754,6.66643391 8.85619686,6.8902846 8.58006304,6.8902846 L8.58006304,6.8902846 Z M16.3531554,5.95698019 C15.2214425,5.95514001 14.3053271,5.03653894 14.3065522,3.90482519 C14.3077797,2.77311145 15.2258837,1.85649789 16.3575979,1.85710998 C17.4893122,1.85772269 18.4064251,2.77532932 18.4064251,3.90704373 C18.4045863,5.03973135 17.4858445,5.95698019 16.3531554,5.95698019 Z M16.3531554,2.85040982 C15.7695926,2.85040982 15.2965215,3.32348094 15.2965215,3.90704373 C15.2965215,4.49060653 15.7695926,4.96367765 16.3531554,4.96367765 C16.9367182,4.96367765 17.4097893,4.49060653 17.4097893,3.90704373 C17.42017,3.62375209 17.3121835,3.34891946 17.1117316,3.14846757 C16.9112797,2.94801569 16.6364471,2.84002917 16.3531554,2.85040982 L16.3531554,2.85040982 Z M8.58006304,5.02700902 L2.666913,5.02700902 C2.39077918,5.02700902 2.1669285,4.80315833 2.1669285,4.52702452 C2.1669285,4.2508907 2.39077918,4.02704002 2.666913,4.02704002 L8.58006304,4.02704002 C8.85619686,4.02704002 9.08004754,4.2508907 9.08004754,4.52702452 C9.08004754,4.80315833 8.85619686,5.02700902 8.58006304,5.02700902 L8.58006304,5.02700902 Z M21.6396596,4.7136854 C21.4384837,4.71503559 21.2563662,4.59489021 21.1784426,4.40941533 C21.1005191,4.22394045 21.1421838,4.00977748 21.2839591,3.86704426 C21.4257344,3.72431103 21.6396119,3.68120514 21.8256073,3.75787792 C22.0116027,3.8345507 22.1329717,4.01585509 22.1329763,4.21703413 C22.1490928,4.35245782 22.1024555,4.48782411 22.006346,4.58458299 C21.9102365,4.68134188 21.7751874,4.72888961 21.6396596,4.7136854 Z" id="Shape"></path>
            </g>
        </g>
    </g>
</svg>