<?xml version="1.0" encoding="UTF-8"?>
<svg width="24px" height="24px" viewBox="0 0 24 24" version="1.1" xmlns="http://www.w3.org/2000/svg" xmlns:xlink="http://www.w3.org/1999/xlink">
    <title>Icon/Outline/purpose-outline</title>
    <g id="Icon/Outline/purpose-outline" stroke="none" stroke-width="1" fill="none" fill-rule="evenodd">
        <g id="Group" transform="translate(0.000016, -0.000000)" fill="#474747" fill-rule="nonzero">
            <g id="purpose-outline">
                <path d="M12.2524381,12.2391851 L14.031947,19.414085 L14.5905523,18.8521348 L15.6609336,17.7850984 L16.7212802,18.8521348 L19.7317277,21.8625823 L21.8557657,19.7318545 L18.8453181,16.7214069 L17.7816267,15.6543706 L18.8453181,14.5873342 L19.4072684,14.0253839 L12.2524381,12.2391851 Z M10.188609,10.1686661 L22.3508171,13.2025283 L19.9090096,15.6543706 L23.9798037,19.7351995 L19.7250378,24.0000001 L15.6609336,19.9191712 L13.1990565,22.3710135 L10.188609,10.1686661 Z M10.7104199,18.5310204 L11.0817085,20.0094846 C10.7340393,20.0481674 10.3845533,20.0682657 10.0347417,20.0696936 C4.49833281,20.0696936 0.00798358212,15.5857036 1.05752465e-05,10.0493004 C-0.00794122474,4.51289729 4.46949194,0.0160619167 10.0058778,4.24590067e-05 C15.5422636,-0.0158916257 20.0455757,4.45502732 20.0695669,9.9913842 C20.068228,10.3500978 20.0481309,10.708496 20.0093579,11.0651105 L18.5409285,10.6971669 C18.5743779,10.4663659 18.5743779,10.2288751 18.5743779,9.9913842 C18.5743514,6.52356236 16.4835784,3.39784828 13.2784272,2.07391681 C10.073276,0.749985334 6.38610689,1.48904145 3.938788,3.9459539 C1.4914691,6.40286636 0.766844142,10.0928988 2.10330515,13.2928457 C3.43976616,16.4927926 6.57363614,18.5713208 10.0414316,18.55778 C10.2588528,18.55778 10.4863088,18.5310204 10.7104199,18.5310204 Z M9.89759911,15.2529776 L10.2655427,16.7682361 L10.0247069,16.7682361 C6.29565526,16.7682361 3.2716389,13.7471737 3.26795436,10.0181239 C3.26427656,6.28907411 6.28232253,3.26206365 10.0113669,3.25467135 C13.7404111,3.24730609 16.7704128,6.26234907 16.7814891,9.9913842 C16.7814891,10.0816977 16.7814891,10.1686661 16.7814891,10.2589796 L15.2796103,9.88434611 C15.2221888,7.00618067 12.863769,4.70776224 9.98507963,4.72451541 C7.10639017,4.74126858 4.77488151,7.06698107 4.75096303,9.94561988 C4.72704456,12.8242586 7.01958551,15.1883922 9.89759911,15.2529776 Z" id="Combined-Shape"></path>
            </g>
        </g>
    </g>
</svg>