<?xml version="1.0" encoding="UTF-8"?>
<svg width="24px" height="24px" viewBox="0 0 24 24" version="1.1" xmlns="http://www.w3.org/2000/svg" xmlns:xlink="http://www.w3.org/1999/xlink">
    <title>Icon/Outline/qrcode-outline</title>
    <g id="Icon/Outline/qrcode-outline" stroke="none" stroke-width="1" fill="none" fill-rule="evenodd">
        <g id="Group" fill="#474747" fill-rule="nonzero">
            <g id="Outline">
                <path d="M22.4933333,5.25666667 L24,5.25666667 L24,0 L18.7466667,0 L18.7466667,1.50666667 L22.4933333,1.50666667 L22.4933333,5.25666667 Z M0,5.25666667 L1.50666667,5.25666667 L1.50666667,1.50666667 L5.25333333,1.50666667 L5.25333333,0 L0,0 L0,5.25666667 Z M0,24 L5.25333333,24 L5.25333333,22.4933333 L1.50666667,22.4933333 L1.50666667,18.7466667 L0,18.7466667 L0,24 Z M18.7466667,24 L24,24 L24,18.7466667 L22.4933333,18.7466667 L22.4933333,22.4933333 L18.7466667,22.4933333 L18.7466667,24 Z M9.95,14.05 L11.4566667,14.05 L11.4566667,12.5433333 L9.95,12.5433333 L9.95,14.05 Z M6.49,14.05 L8,14.05 L8,12.5433333 L6.49,12.5433333 L6.49,14.05 Z M9.95,17.51 L11.4566667,17.51 L11.4566667,16 L9.95,16 L9.95,17.51 Z M6.49,17.51 L8,17.51 L8,16 L6.49,16 L6.49,17.51 Z M8.22,15.78 L9.72333333,15.78 L9.72333333,14.2766667 L8.22,14.2766667 L8.22,15.78 Z M6.49,10.59 L11.4566667,10.59 L11.4566667,5.62333333 L6.49,5.62333333 L6.49,10.59 Z M9.95,9.08333333 L8,9.08333333 L8,7.13 L9.95666667,7.13 L9.95,9.08333333 Z M13.41,10.59 L18.3766667,10.59 L18.3766667,5.62333333 L13.41,5.62333333 L13.41,10.59 Z M16.87,9.08333333 L14.9166667,9.08333333 L14.9166667,7.13 L16.87,7.13 L16.87,9.08333333 Z M13.41,17.51 L18.3766667,17.51 L18.3766667,12.5433333 L13.41,12.5433333 L13.41,17.51 Z M16.87,16 L14.9166667,16 L14.9166667,14.05 L16.87,14.05 L16.87,16 Z" id="Combined-Shape"></path>
            </g>
        </g>
    </g>
</svg>