<?xml version="1.0" encoding="UTF-8"?>
<svg width="24px" height="24px" viewBox="0 0 24 24" version="1.1" xmlns="http://www.w3.org/2000/svg" xmlns:xlink="http://www.w3.org/1999/xlink">
    <title>Icon/Outline/query-outline</title>
    <g id="Icon/Outline/query-outline" stroke="none" stroke-width="1" fill="none" fill-rule="evenodd">
        <g id="Group" transform="translate(0.000000, 3.000000)" fill="#474747" fill-rule="nonzero">
            <g id="Outline">
                <path d="M24.0000037,1.77635684e-15 L24.0000037,16.8333229 C24.0008802,17.2314189 23.8431301,17.6134654 23.5616331,17.8949625 C23.280136,18.1764595 22.8980894,18.3342096 22.4999935,18.3333257 L22.4999935,18.3333257 L1.50000369,18.3333257 C1.10191056,18.3342096 0.719863982,18.1764595 0.438366946,17.8949625 C0.156869911,17.6134654 -0.000880199569,17.2314189 3.6944869e-06,16.8333229 L3.6944869e-06,16.8333229 L3.6944869e-06,1.77635684e-15 L24.0000037,1.77635684e-15 Z M22.4999935,1.49999907 L1.50000649,1.49999907 L1.50000649,16.8333229 L22.4999935,16.8333229 L22.4999935,1.49999907 Z M4.80000445,4.43999725 L9.5266682,9.166661 L4.80000445,13.8933247 L3.73667178,12.8333254 L7.40666951,9.166661 L3.73667178,5.4999966 L4.80000445,4.43999725 Z M18.8566624,11.833326 L18.8566624,13.333326 L11.3166671,13.333326 L11.3166671,11.833326 L18.8566624,11.833326 Z" id="Combined-Shape"></path>
            </g>
        </g>
    </g>
</svg>