<?xml version="1.0" encoding="UTF-8"?>
<svg width="24px" height="24px" viewBox="0 0 24 24" version="1.1" xmlns="http://www.w3.org/2000/svg" xmlns:xlink="http://www.w3.org/1999/xlink">
    <title>Icon/Outline/radio-outline</title>
    <g id="Icon/Outline/radio-outline" stroke="none" stroke-width="1" fill="none" fill-rule="evenodd">
        <g id="Group" transform="translate(-0.000000, 0.003052)" fill="#474747" fill-rule="nonzero">
            <g id="radio-outline" transform="translate(0.006105, 0.000000)">
                <path d="M11.9969476,5.30524262 C8.29935419,5.30524262 5.30186249,8.30114584 5.30186249,11.9967798 C5.30186249,15.6924137 8.29935419,18.6883169 11.9969476,18.6883169 C15.6945409,18.6883169 18.6920326,15.6924137 18.6920326,11.9967798 C18.6865241,8.30342878 15.6922568,5.31074825 11.9969476,5.30524262 Z M11.9969476,16.9321217 C9.26978832,16.9321217 7.0589889,14.7224939 7.0589889,11.9967798 C7.0589889,9.27106576 9.26978832,7.06143789 11.9969476,7.06143789 C14.7241068,7.06143789 16.9349062,9.27106576 16.9349062,11.9967798 C16.9330671,14.7217321 14.7233447,16.9302837 11.9969476,16.9321217 Z M11.9969476,0 C7.2816149,0.00250984993 3.00455071,2.7641658 1.06389767,7.0593568 C-0.876755363,11.3545478 -0.121457955,16.387516 2.99459214,19.9246518 L4.05486956,20.9843674 C8.58087763,24.997071 15.3930123,24.997071 19.9190203,20.9843674 L20.999303,19.9246518 C24.115353,16.387516 24.8706505,11.3545478 22.9299974,7.0593568 C20.9893444,2.7641658 16.7122802,0.00250984993 11.9969476,0 Z M11.9969476,22.4939621 C6.19644001,22.4939621 1.49419957,17.7942135 1.49419957,11.9967798 C1.49419957,6.19934609 6.19644001,1.49959748 11.9969476,1.49959748 C17.7974551,1.49959748 22.4996955,6.19934609 22.4996955,11.9967798 C22.4941813,17.7919291 17.7951695,22.4884508 11.9969476,22.4939621 Z" id="Shape"></path>
            </g>
        </g>
    </g>
</svg>