<?xml version="1.0" encoding="UTF-8"?>
<svg width="24px" height="24px" viewBox="0 0 24 24" version="1.1" xmlns="http://www.w3.org/2000/svg" xmlns:xlink="http://www.w3.org/1999/xlink">
    <title>Icon/Outline/realestate-outline</title>
    <g id="Icon/Outline/realestate-outline" stroke="none" stroke-width="1" fill="none" fill-rule="evenodd">
        <g id="Group" transform="translate(2.000000, 0.000000)" fill="#474747" fill-rule="nonzero">
            <g id="Outline">
                <path d="M21,3.16666667 L21,1.66666667 L2.88666667,1.66666667 L2.88666667,0 L1.38666667,0 L1.38666667,1.66666667 L0,1.66666667 L0,3.16666667 L1.38666667,3.16666667 L1.38666667,24 L2.88666667,24 L2.88666667,3.16666667 L8.5,3.16666667 L8.5,6.79 L4.75,6.79 L4.75,15.15 C4.75183316,15.9776666 5.42233338,16.6481668 6.25,16.65 L19.25,16.65 C20.0776666,16.6481668 20.7481668,15.9776666 20.75,15.15 L20.75,6.79 L16.9933333,6.79 L16.9933333,3.16666667 L21,3.16666667 Z M19.2433333,8.29 L19.2433333,15.15 L6.24333333,15.15 L6.24333333,8.29 L19.2433333,8.29 Z M15.5,6.79 L9.99666667,6.79 L9.99666667,3.16666667 L15.5,3.16666667 L15.5,6.79 Z" id="Shape"></path>
            </g>
        </g>
    </g>
</svg>