<?xml version="1.0" encoding="UTF-8"?>
<svg width="24px" height="24px" viewBox="0 0 24 24" version="1.1" xmlns="http://www.w3.org/2000/svg" xmlns:xlink="http://www.w3.org/1999/xlink">
    <title>Icon/Outline/redo-outline</title>
    <g id="Icon/Outline/redo-outline" stroke="none" stroke-width="1" fill="none" fill-rule="evenodd">
        <g id="Icon" transform="translate(2.000000, 0.000000)" fill="#474747" fill-rule="nonzero">
            <g id="refresh-outline" transform="translate(9.880500, 12.000000) rotate(-270.000000) translate(-9.880500, -12.000000) translate(-2.119500, 2.119500)">
                <path d="M5.739,4.865 L5.739,9.88100002 C5.739,14.501 9.49899997,18.261 14.119,18.261 C18.74,18.261 22.5,14.501 22.5,9.88100002 C22.5,5.25999997 18.74,1.5 14.119,1.5 L14.119,0 C19.567,0 24,4.433 24,9.88100002 C24,15.328 19.567,19.761 14.119,19.761 C8.67200002,19.761 4.239,15.328 4.239,9.88100002 L4.239,4.865 L4.239,4.8649 L1.28,7.82390003 C0.987,8.11689997 0.512,8.11689997 0.219,7.82390003 C-0.073,7.5309 -0.073,7.0569 0.219,6.76389998 L4.989,1.9939 L9.759,6.76389998 C10.051,7.0569 10.051,7.5309 9.759,7.82390003 C9.612,7.97090003 9.42,8.0439 9.228,8.0439 C9.036,8.0439 8.844,7.97090003 8.69799997,7.82390003 L5.739,4.8649 L5.739,4.865 Z M4.239,4.058 L5.739,4.058 L5.739,4.0579 L4.239,4.0579 L4.239,4.058 Z" id="Combined-Shape"></path>
            </g>
        </g>
    </g>
</svg>