<?xml version="1.0" encoding="UTF-8"?>
<svg width="24px" height="24px" viewBox="0 0 24 24" version="1.1" xmlns="http://www.w3.org/2000/svg" xmlns:xlink="http://www.w3.org/1999/xlink">
    <title>Icon/Outline/return-outline</title>
    <g id="Icon/Outline/return-outline" stroke="none" stroke-width="1" fill="none" fill-rule="evenodd">
        <g id="Icon" fill="#474747" fill-rule="nonzero">
            <path d="M23.8020961,0 L23.8020961,16 L2.25,15.999 L9.16885064,23.0263348 C9.36379309,23.2243254 9.38545336,23.5316631 9.23383146,23.753953 L9.16885064,23.8329455 C8.9739082,24.030936 8.67130201,24.052935 8.45243428,23.8989423 L8.37465796,23.8329455 L0,15.3273415 L8.36285886,6.8337212 C8.58216912,6.61098182 8.93774129,6.61098182 9.15705155,6.8337212 C9.35199399,7.03171177 9.37365427,7.3390495 9.22203236,7.56133943 L9.15705155,7.64033187 L2.013,14.8965 L22.7180354,14.8965517 L22.7180354,1.10344828 L11.9010481,1.10344828 C11.5963392,1.10344828 11.3493239,0.856432965 11.3493239,0.551724138 C11.3493239,0.24701531 11.5963392,0 11.9010481,0 L23.8020961,0 Z" id="Path"></path>
        </g>
    </g>
</svg>