<svg width="24" height="24" viewBox="0 0 24 24" fill="none" xmlns="http://www.w3.org/2000/svg">
<g clip-path="url(#clip0_15805_64228)">
<path d="M7.38902 9.39167H2.80569L6.69236 5.50168C10.2724 1.91834 16.0957 1.91834 19.6757 5.50168C23.2557 9.08501 23.2557 14.9183 19.6757 18.5017C16.0957 22.085 10.2724 22.085 6.69236 18.5017L5.52902 19.665C9.74902 23.8917 16.6157 23.8917 20.8357 19.665C25.0557 15.4383 25.0557 8.56167 20.8357 4.33501C16.6157 0.108342 9.74902 0.108342 5.52902 4.33501L1.64236 8.22501V3.63501C1.64236 3.18168 1.27569 2.81168 0.819023 2.81168C0.36569 2.81501 -0.000976562 3.18168 -0.000976562 3.63834V11.0383H7.38902C7.84236 11.0383 8.20902 10.6683 8.20902 10.215C8.20902 9.98834 8.11569 9.78167 7.96902 9.63167C7.81902 9.48167 7.61569 9.39167 7.38902 9.39167ZM13.2424 7.57834L13.209 12.5917L17.5857 15.0917L16.8424 16.395L11.7024 13.4583L11.7424 7.56501L13.2424 7.57501V7.57834Z" fill="black"/>
</g>
<defs>
<clipPath id="clip0_15805_64228">
<rect width="24" height="24" fill="white"/>
</clipPath>
</defs>
</svg>
