<svg width="24" height="24" viewBox="0 0 24 24" fill="none" xmlns="http://www.w3.org/2000/svg">
<g clip-path="url(#clip0_15805_64248)">
<path d="M17.6365 9.14501C17.6365 6.02168 15.1098 3.48168 11.9998 3.48168C8.88984 3.48168 6.36317 6.02168 6.36317 9.14501C6.36317 12.2683 8.88984 14.8083 11.9998 14.8083C15.1098 14.8083 17.6365 12.2683 17.6365 9.14501ZM7.84984 9.14501C7.84984 6.84501 9.71317 4.97501 11.9998 4.97501C14.2865 4.97501 16.1498 6.84501 16.1498 9.14501C16.1498 11.445 14.2865 13.315 11.9998 13.315C9.71317 13.315 7.84984 11.445 7.84984 9.14501Z" fill="black"/>
<path d="M19.7332 14.7017L19.4065 11.5617L21.5698 9.14501L19.4065 6.72835L19.7432 3.49501L16.5765 2.81835L14.9865 0.0516785L14.9598 0.00167847L12.0032 1.32835L9.09317 0.0250118L9.04317 0.00167847L7.4265 2.81835L4.25984 3.49501L4.5965 6.72835L2.43317 9.14501L4.5965 11.5617L4.26984 14.7017L0.716504 20.5017L0.666504 20.585L4.24317 20.965L6.19317 23.9983L9.93317 17.8883L11.9998 16.9617L14.0665 17.8883L17.7565 23.915L17.8065 23.9983L19.7565 20.965L23.3332 20.585L19.7332 14.7017ZM5.1065 19.5583L3.1665 19.3517L5.75984 15.115L7.42984 15.4717L8.5165 17.365L6.1665 21.2017L5.1065 19.555V19.5583ZM17.8365 21.205L15.4865 17.3683L16.5732 15.475L18.2432 15.1183L20.8365 19.355L18.8965 19.5617L17.8365 21.2083V21.205ZM5.87317 13.6183L6.13984 11.0583L4.4265 9.14501L6.13984 7.23168L5.87317 4.67168L8.37984 4.13835L9.65984 1.90835L11.9998 2.95835L14.3398 1.90835L15.6198 4.13501L18.1265 4.66835L17.8598 7.22835L19.5732 9.14168L17.8598 11.055L18.1265 13.615L15.6198 14.1483L14.3398 16.3783L11.9998 15.3283L9.65984 16.3783L8.37984 14.1483L5.87317 13.615V13.6183Z" fill="black"/>
<path d="M10.0765 7.42168C10.1632 7.14834 10.2898 6.90835 10.4598 6.70168C10.6298 6.49501 10.8465 6.33501 11.1032 6.22168C11.3632 6.10835 11.6598 6.04835 11.9965 6.04835C12.2532 6.04835 12.4965 6.08835 12.7298 6.16835C12.9632 6.24835 13.1665 6.36168 13.3432 6.51168C13.5198 6.66168 13.6598 6.84501 13.7632 7.06501C13.8665 7.28501 13.9198 7.52835 13.9198 7.80168C13.9198 8.07501 13.8732 8.32835 13.7832 8.52835C13.6932 8.73168 13.5732 8.91168 13.4232 9.06835C13.2732 9.22501 13.1032 9.36835 12.9165 9.49501C12.7265 9.62168 12.5365 9.74835 12.3432 9.87501C12.1498 10.0017 11.9632 10.135 11.7832 10.2783C11.6032 10.4217 11.4398 10.5917 11.3032 10.7817H13.9498V11.7583H9.8365C9.8365 11.4317 9.88317 11.1517 9.9765 10.9117C10.0698 10.6717 10.1965 10.4583 10.3565 10.2683C10.5165 10.0783 10.7032 9.90501 10.9198 9.74501C11.1365 9.58501 11.3632 9.42168 11.6032 9.25835C11.7265 9.17168 11.8565 9.08501 11.9965 8.99835C12.1332 8.91168 12.2598 8.81168 12.3765 8.70501C12.4932 8.59835 12.5865 8.47835 12.6665 8.34501C12.7432 8.21168 12.7832 8.05834 12.7832 7.88835C12.7832 7.61501 12.7032 7.40501 12.5465 7.25168C12.3898 7.09835 12.1865 7.02501 11.9432 7.02501C11.7765 7.02501 11.6365 7.06501 11.5232 7.14168C11.4098 7.21835 11.3165 7.32168 11.2465 7.44501C11.1765 7.57168 11.1265 7.70835 11.0998 7.86168C11.0732 8.01501 11.0565 8.16501 11.0565 8.31501H9.9665C9.9565 7.99501 9.99317 7.69835 10.0798 7.42168H10.0765Z" fill="black"/>
</g>
<defs>
<clipPath id="clip0_15805_64248">
<rect width="24" height="24" fill="white"/>
</clipPath>
</defs>
</svg>
