<svg width="24" height="24" viewBox="0 0 24 24" fill="none" xmlns="http://www.w3.org/2000/svg">
<g clip-path="url(#clip0_15805_64238)">
<path d="M17.6365 9.14501C17.6365 6.02168 15.1098 3.48168 11.9998 3.48168C8.88984 3.48168 6.36317 6.02168 6.36317 9.14501C6.36317 12.2683 8.88984 14.8083 11.9998 14.8083C15.1098 14.8083 17.6365 12.2683 17.6365 9.14501ZM7.84984 9.14501C7.84984 6.84501 9.71317 4.97501 11.9998 4.97501C14.2865 4.97501 16.1498 6.84501 16.1498 9.14501C16.1498 11.445 14.2865 13.315 11.9998 13.315C9.71317 13.315 7.84984 11.445 7.84984 9.14501Z" fill="black"/>
<path d="M19.7332 14.7017L19.4065 11.5617L21.5698 9.14501L19.4065 6.72835L19.7432 3.49501L16.5765 2.81835L14.9865 0.0516785L14.9598 0.00167847L12.0032 1.32835L9.09317 0.0250118L9.04317 0.00167847L7.4265 2.81835L4.25984 3.49501L4.5965 6.72835L2.43317 9.14501L4.5965 11.5617L4.26984 14.7017L0.716504 20.5017L0.666504 20.585L4.24317 20.965L6.19317 23.9983L9.93317 17.8883L11.9998 16.9617L14.0665 17.8883L17.7565 23.915L17.8065 23.9983L19.7565 20.965L23.3332 20.585L19.7332 14.7017ZM5.1065 19.5583L3.1665 19.3517L5.75984 15.115L7.42984 15.4717L8.5165 17.365L6.1665 21.2017L5.1065 19.555V19.5583ZM17.8365 21.205L15.4865 17.3683L16.5732 15.475L18.2432 15.1183L20.8365 19.355L18.8965 19.5617L17.8365 21.2083V21.205ZM5.87317 13.6183L6.13984 11.0583L4.4265 9.14501L6.13984 7.23168L5.87317 4.67168L8.37984 4.13835L9.65984 1.90835L11.9998 2.95835L14.3398 1.90835L15.6198 4.13501L18.1265 4.66835L17.8598 7.22835L19.5732 9.14168L17.8598 11.055L18.1265 13.615L15.6198 14.1483L14.3398 16.3783L11.9998 15.3283L9.65984 16.3783L8.37984 14.1483L5.87317 13.615V13.6183Z" fill="black"/>
<path d="M11.6698 11.7617V8.12834H10.2632V7.27168C10.4598 7.27835 10.6498 7.26168 10.8365 7.22835C11.0198 7.19501 11.1865 7.13168 11.3332 7.04501C11.4798 6.95834 11.6032 6.84168 11.7065 6.69835C11.8065 6.55501 11.8732 6.37501 11.9065 6.16168H12.8098V11.7617H11.6698Z" fill="black"/>
</g>
<defs>
<clipPath id="clip0_15805_64238">
<rect width="24" height="24" fill="white"/>
</clipPath>
</defs>
</svg>
