<svg width="24" height="24" viewBox="0 0 24 24" fill="none" xmlns="http://www.w3.org/2000/svg">
<g clip-path="url(#clip0_15805_64232)">
<path d="M17.6365 9.14501C17.6365 6.02168 15.1098 3.48168 11.9998 3.48168C8.88984 3.48168 6.36317 6.02168 6.36317 9.14501C6.36317 12.2683 8.88984 14.8083 11.9998 14.8083C15.1098 14.8083 17.6365 12.2683 17.6365 9.14501ZM7.84984 9.14501C7.84984 6.84501 9.71317 4.97501 11.9998 4.97501C14.2865 4.97501 16.1498 6.84501 16.1498 9.14501C16.1498 11.445 14.2865 13.315 11.9998 13.315C9.71317 13.315 7.84984 11.445 7.84984 9.14501Z" fill="black"/>
<path d="M19.7332 14.7017L19.4065 11.5617L21.5698 9.14501L19.4065 6.72835L19.7432 3.49501L16.5765 2.81835L14.9865 0.0516785L14.9598 0.00167847L12.0032 1.32835L9.09317 0.0250118L9.04317 0.00167847L7.4265 2.81835L4.25984 3.49501L4.5965 6.72835L2.43317 9.14501L4.5965 11.5617L4.26984 14.7017L0.716504 20.5017L0.666504 20.585L4.24317 20.965L6.19317 23.9983L9.93317 17.8883L11.9998 16.9617L14.0665 17.8883L17.7565 23.915L17.8065 23.9983L19.7565 20.965L23.3332 20.585L19.7332 14.7017ZM5.1065 19.5583L3.1665 19.3517L5.75984 15.115L7.42984 15.4717L8.5165 17.365L6.1665 21.2017L5.1065 19.555V19.5583ZM17.8365 21.205L15.4865 17.3683L16.5732 15.475L18.2432 15.1183L20.8365 19.355L18.8965 19.5617L17.8365 21.2083V21.205ZM5.87317 13.6183L6.13984 11.0583L4.4265 9.14501L6.13984 7.23168L5.87317 4.67168L8.37984 4.13835L9.65984 1.90835L11.9998 2.95835L14.3398 1.90835L15.6198 4.13501L18.1265 4.66835L17.8598 7.22835L19.5732 9.14168L17.8598 11.055L18.1265 13.615L15.6198 14.1483L14.3398 16.3783L11.9998 15.3283L9.65984 16.3783L8.37984 14.1483L5.87317 13.615V13.6183Z" fill="black"/>
<path d="M12.0298 8.54834C12.1698 8.53834 12.2965 8.50835 12.4165 8.45501C12.5365 8.40501 12.6365 8.32835 12.7132 8.23168C12.7898 8.13501 12.8298 8.00501 12.8298 7.84168C12.8298 7.59835 12.7498 7.41168 12.5898 7.28168C12.4298 7.15168 12.2465 7.08835 12.0365 7.08835C11.7498 7.08835 11.5298 7.18501 11.3832 7.37501C11.2365 7.56835 11.1665 7.80835 11.1698 8.09835H10.0898C10.0998 7.80835 10.1532 7.54168 10.2465 7.30168C10.3398 7.06168 10.4698 6.85501 10.6398 6.68168C10.8098 6.50835 11.0098 6.37501 11.2432 6.28168C11.4765 6.18834 11.7398 6.14168 12.0265 6.14168C12.2498 6.14168 12.4732 6.17501 12.6998 6.24168C12.9265 6.30834 13.1265 6.41168 13.3032 6.54501C13.4798 6.67834 13.6265 6.84501 13.7398 7.03835C13.8532 7.23168 13.9065 7.45501 13.9065 7.71168C13.9065 7.98834 13.8398 8.22834 13.7098 8.44168C13.5798 8.65168 13.3832 8.79501 13.1232 8.87168V8.88834C13.4332 8.95834 13.6765 9.10835 13.8498 9.34168C14.0265 9.57501 14.1132 9.85168 14.1132 10.175C14.1132 10.4717 14.0565 10.735 13.9398 10.9683C13.8265 11.2017 13.6732 11.395 13.4798 11.5517C13.2865 11.7083 13.0665 11.8283 12.8165 11.9083C12.5665 11.9883 12.3032 12.0283 12.0332 12.0283C11.7198 12.0283 11.4332 11.9817 11.1732 11.8917C10.9132 11.8017 10.6932 11.665 10.5132 11.4917C10.3332 11.315 10.1932 11.1017 10.0932 10.8483C9.99317 10.595 9.9465 10.3017 9.95317 9.97501H11.0332C11.0398 10.125 11.0632 10.2717 11.1065 10.4083C11.1498 10.545 11.2098 10.665 11.2898 10.765C11.3698 10.865 11.4698 10.945 11.5898 11.005C11.7098 11.065 11.8532 11.095 12.0165 11.095C12.2732 11.095 12.4898 11.015 12.6632 10.855C12.8398 10.695 12.9265 10.4783 12.9265 10.2017C12.9265 9.98501 12.8865 9.82168 12.8032 9.70835C12.7198 9.59501 12.6165 9.51168 12.4865 9.46168C12.3565 9.41168 12.2198 9.38168 12.0665 9.37168C11.9132 9.36501 11.7698 9.35835 11.6298 9.35835V8.54834C11.7532 8.55834 11.8832 8.55834 12.0232 8.54834H12.0298Z" fill="black"/>
</g>
<defs>
<clipPath id="clip0_15805_64232">
<rect width="24" height="24" fill="white"/>
</clipPath>
</defs>
</svg>
