<?xml version="1.0" encoding="UTF-8"?>
<svg width="24px" height="24px" viewBox="0 0 24 24" version="1.1" xmlns="http://www.w3.org/2000/svg" xmlns:xlink="http://www.w3.org/1999/xlink">
    <title>Icon/Outline/savemoney-outline</title>
    <g id="Icon/Outline/savemoney-outline" stroke="none" stroke-width="1" fill="none" fill-rule="evenodd">
        <g id="Group" transform="translate(3.000000, 0.000000)" fill="#474747" fill-rule="nonzero">
            <g id="Outline">
                <path d="M17.0436019,4.23 L15.3336019,3 L15.3336019,3 L15.3336019,0 L2.00026861,0 L2.00026861,3 C2.00026861,3.02 2.00026861,3.04 2.00026861,3.06 L0.300268606,4.21333333 C0.108263632,4.34624954 -0.0043767113,4.56652399 0.000130320065,4.8 L0.000130320065,23.3033333 C-0.00158376238,23.6849608 0.30532092,23.996335 0.686935272,24 L16.6469353,24 C17.0285496,23.996335 17.3354543,23.6849608 17.3336155,23.3033333 L17.3336155,4.8 C17.3350066,4.57423381 17.2269187,4.36178514 17.0436019,4.23 Z M13.8602686,2.66666667 L12.6269353,2.66666667 L12.6269353,1.49666667 L13.8602686,1.49666667 L13.8602686,2.66666667 Z M6.23693527,2.66666667 L6.23693527,1.49666667 L7.92693527,1.49666667 L7.92693527,2.66666667 L6.23693527,2.66666667 Z M9.40693527,1.49 L11.1436019,1.49 L11.1436019,2.66666667 L9.40693527,2.66666667 L9.40693527,1.49 Z M4.74026861,1.49 L4.74026861,2.66666667 L3.48360194,2.66666667 L3.48360194,1.49666667 L4.74026861,1.49 Z M5.16693527,18.8566667 C5.16693527,18.7066667 5.52693527,18.39 6.22360194,18.15 C7.00026861,18.6666667 8.19026861,19 9.76026861,19 C10.3192471,19.001182 10.8771505,18.9509707 11.4269353,18.85 C11.4283806,18.8565883 11.4283806,18.8634117 11.4269353,18.87 C11.4269353,19.1333333 10.3502686,19.8933333 8.29360194,19.8933333 C6.23693527,19.8933333 5.18026861,19.1266667 5.18026861,18.8633333 L5.16693527,18.8566667 Z M7.72693527,15.1666667 C5.67026861,15.1666667 4.59360194,14.41 4.59360194,14.1466667 C4.59360194,13.8833333 5.67026861,13.1233333 7.72693527,13.1233333 C9.78360194,13.1233333 10.8602686,13.8833333 10.8602686,14.1466667 C10.8602686,14.41 9.79693527,15.1733333 7.74026861,15.1733333 L7.72693527,15.1666667 Z M11.4902686,15.6666667 C12.4136019,15.91 12.8936019,16.3033333 12.8936019,16.4766667 C12.8936019,16.74 11.8136019,17.5 9.76026861,17.5 C7.97360194,17.5 6.92693527,16.9266667 6.68360194,16.6066667 C7.03470626,16.6421618 7.38737465,16.6599621 7.74026861,16.66 C9.47026861,16.6666667 10.7269353,16.2533333 11.4902686,15.6666667 Z M9.03693527,22.3333333 C6.98026861,22.3333333 5.90360194,21.5733333 5.90360194,21.31 C5.92208569,21.2247946 5.97059238,21.1490769 6.04026861,21.0966667 C6.78054061,21.3005704 7.54581772,21.3993159 8.31360194,21.39 C9.40636943,21.4258882 10.4925802,21.2079614 11.4869353,20.7533333 C11.9369353,20.9633333 12.1536019,21.19 12.1536019,21.31 C12.1702686,21.56 11.0936019,22.3333333 9.03693527,22.3333333 Z M15.9602686,22.6166667 L13.0302686,22.6166667 C13.418425,22.2855842 13.6494766,21.8065453 13.6669353,21.2966667 C13.6237256,20.6379654 13.2582713,20.0430108 12.6902686,19.7066667 C12.851765,19.4547079 12.9395193,19.1625784 12.9436019,18.8633333 C12.9428438,18.7036163 12.9169721,18.545012 12.8669353,18.3933333 C13.8669353,17.9066667 14.3869353,17.1933333 14.3869353,16.48 C14.3869353,15.6566667 13.6936019,14.83 12.3536019,14.36 C12.3641162,14.2916011 12.3696862,14.2225332 12.3702686,14.1533333 C12.3702686,12.9033333 10.7802686,11.64 7.74693527,11.64 C4.71360194,11.64 3.12360194,12.9033333 3.12360194,14.1533333 C3.12360194,14.9766667 3.82026861,15.8033333 5.16026861,16.2733333 C5.12724512,16.4971729 5.14780842,16.725654 5.22026861,16.94 C4.22026861,17.4233333 3.69693527,18.14 3.69693527,18.85 C3.73439798,19.5122263 4.097739,20.1128003 4.66693527,20.4533333 C4.50867331,20.7065749 4.42225666,20.998087 4.41693527,21.2966667 C4.4363326,21.8000938 4.66316277,22.2730589 5.04360194,22.6033333 L1.37693527,22.6033333 L1.37693527,5.17333333 L3.00026861,4.07 L14.4336019,4.07 L15.9536019,5.16 L15.9602686,22.6166667 Z" id="Shape"></path>
            </g>
        </g>
    </g>
</svg>