<?xml version="1.0" encoding="UTF-8"?>
<svg width="24px" height="24px" viewBox="0 0 24 24" version="1.1" xmlns="http://www.w3.org/2000/svg" xmlns:xlink="http://www.w3.org/1999/xlink">
    <title>Icon/Outline/savings-outline</title>
    <g id="Icon/Outline/savings-outline" stroke="none" stroke-width="1" fill="none" fill-rule="evenodd">
        <g id="Group" fill="#474747" fill-rule="nonzero">
            <g id="Outline">
                <polygon id="Path" points="21.5835508 14.2000526 21.5668842 14.2067192 21.5835508 14.2000526 21.4602181 14.2333857 21.4602181 14.236719"></polygon>
                <path d="M10.5802765,11.3767344 C12.0661309,10.9136657 13.6648979,10.9665272 15.1169188,11.5267336 L15.1802518,11.5500668 L15.7769152,9.96340864 L15.7135822,9.94007543 C13.8732264,9.21855754 11.8376322,9.1678152 9.9636131,9.79674287 L9.90361342,9.82340939 L10.5202768,11.4000676 L10.5802765,11.3767344 Z" id="Path"></path>
                <path d="M23.2802083,14.1733861 C23.2845306,14.0489704 23.2721992,13.9245354 23.2435418,13.803388 L22.9368768,12.7500604 L22.9368768,12.7100606 C21.6435504,9.19007946 17.5102393,6.73009266 12.8702642,6.73009266 C11.219255,6.73836992 9.57403988,6.92613903 7.96362383,7.29008965 C7.08732331,6.63494653 6.02108303,6.2838246 4.92697345,6.29009502 C4.05874584,6.2785079 3.20450407,6.50938405 2.46032002,6.95675811 C2.16008958,7.15305488 1.95161695,7.46204356 1.8819926,7.81392875 C1.81236826,8.16581394 1.88746582,8.5309101 2.09032201,8.82674807 L3.11698316,10.2867402 C2.69131362,10.7716799 2.32639754,11.3067409 2.03032233,11.880065 L0.920328282,12.2133966 C0.365998425,12.3838979 -0.00897982803,12.9001723 0.000163580142,13.4800564 L0.000163580142,16.55004 C-0.00413666171,17.1253696 0.370104659,17.6352056 0.920328282,17.8033666 L2.03698896,18.1366981 C2.48365323,18.9533604 3.08698332,19.2400255 3.78697957,19.5700238 C4.14437748,19.7301032 4.49069988,19.9138434 4.82364067,20.1200208 L5.82363531,23.0566717 C5.97925849,23.61037 6.48183328,23.9947719 7.05696203,24 L10.100279,24 C10.6700412,23.9947742 11.1699988,23.6191304 11.3336057,23.0733383 L11.6969371,21.8700114 C11.7875356,21.9051562 11.8686043,21.961105 11.9336025,22.0333439 C12.0102688,22.1033435 12.0702685,22.1566766 12.1302681,22.1566766 L12.1302681,22.1566766 C13.1879372,22.2155559 14.2488504,22.1472904 15.2902512,21.9533443 L15.6235827,22.9866721 C15.7621713,23.5710317 16.2830114,23.9843969 16.883576,23.9866667 L19.8602267,23.9866667 C20.4593664,23.9889665 20.9824819,23.5814871 21.1268865,23.0000054 L22.8235441,17.5700345 C23.1585468,16.760367 23.331804,15.8929484 23.3335414,15.0167149 C23.332594,14.7347933 23.3147845,14.4531809 23.2802083,14.1733861 Z M2.90365097,13.0533921 C3.25050848,12.284445 3.74679413,11.5921379 4.36364314,11.0167363 L5.03030623,10.4434061 L4.87697372,9.77674298 L3.75697973,8.16675161 C4.08091879,8.06731877 4.41812564,8.01786177 4.75697436,8.02008573 C5.59989073,8.00781099 6.4151713,8.32055405 7.03362882,8.89341438 L7.45029325,9.28674561 L7.99029035,9.09674662 C9.17361734,8.68341551 11.6569373,8.46008337 12.9902635,8.46008337 C16.9302424,8.46008337 20.550223,10.5300723 21.596884,13.3767237 L21.8235495,14.1100531 L21.8468827,14.2033859 L21.8468827,14.246719 L21.8702159,14.4100515 C21.9060809,14.6483667 21.9239092,14.8890489 21.9235543,15.1300476 C21.9213509,15.8091432 21.7842532,16.4810352 21.5202178,17.1067037 L19.7802271,22.5233413 L17.1669078,22.5233413 L16.4635782,20.0000215 L15.9302478,20.2600201 C14.7402669,20.5722074 13.508308,20.6937156 12.2802673,20.6200181 L10.4036107,20.513352 L10.353611,20.513352 L9.68694791,22.5433411 L7.3536271,22.5433411 L6.35363247,19.5433572 L6.21696653,19.1866925 L5.92030146,19.0000268 C5.53995764,18.7614114 5.14087138,18.5540649 4.72697453,18.3800302 C4.06031144,18.0900317 3.59698059,17.8800328 3.29031557,17.1833699 L3.11698316,16.7867054 L1.54699159,16.3000413 L1.54699159,13.9333873 L2.73031857,13.4500566 L2.90365097,13.0533921 Z" id="Shape"></path>
                <ellipse id="Oval" cx="6.42696541" cy="12.9100595" rx="1.29332639" ry="1.30332634"></ellipse>
                <path d="M12.8402643,0.000128762785 C11.7131984,-0.0106821698 10.691146,0.660103403 10.2526361,1.6984211 C9.81412614,2.7367388 10.0459539,3.93707219 10.8395766,4.73742056 C11.6331994,5.53776893 12.8315337,5.77971763 13.8735149,5.34998534 C14.9154961,4.92025305 15.5948825,3.90389761 15.5936015,2.77678053 C15.5991188,1.25009294 14.3669443,0.00747630507 12.8402643,0.000128762785 L12.8402643,0.000128762785 Z M12.8402643,4.08010687 C12.3119383,4.08551203 11.8326214,3.77141671 11.6266835,3.28484997 C11.4207455,2.79828323 11.5289374,2.23552657 11.9006142,1.86000822 C12.2722909,1.48448986 12.8339053,1.37051715 13.3225639,1.57144106 C13.8112225,1.77236498 14.1302298,2.24842684 14.1302619,2.77678053 C14.1321129,3.49215901 13.5556241,4.07460635 12.8402643,4.08010687 L12.8402643,4.08010687 Z" id="Shape"></path>
            </g>
        </g>
    </g>
</svg>