<?xml version="1.0" encoding="UTF-8"?>
<svg width="24px" height="24px" viewBox="0 0 24 24" version="1.1" xmlns="http://www.w3.org/2000/svg" xmlns:xlink="http://www.w3.org/1999/xlink">
    <title>Icon/Outline/screen-mirroring-outline</title>
    <g id="Icon/Outline/screen-mirroring-outline" stroke="none" stroke-width="1" fill="none" fill-rule="evenodd">
        <g id="Group" transform="translate(0.000000, 3.000000)" fill="#474747" fill-rule="nonzero">
            <g id="Outline">
                <path d="M8.11998978,14.4599818 L8.11998978,15.9333133 L20.4933075,15.9333133 C20.9001568,15.9333133 21.2299733,15.6034968 21.2299733,15.1966475 L21.2299733,3.59999547 C21.2299733,3.4049247 21.1522563,3.2178918 21.014008,3.08026907 C20.8757597,2.94264635 20.6883763,2.86577637 20.4933075,2.86665547 L3.52666223,2.86665547 C3.33159348,2.86577637 3.14421003,2.94264635 3.00596175,3.08026907 C2.86771346,3.2178918 2.78999649,3.4049247 2.78999649,3.59999547 L2.78999649,10.4466535 L4.26332797,10.4466535 L4.26332797,4.33666121 L19.7566418,4.33666121 L19.7566418,14.4599818 L8.11998978,14.4599818 Z" id="Path"></path>
                <path d="M23.2633041,0 L0.756665714,0 C0.560129235,0 0.371737986,0.0785192002 0.233393114,0.218116062 C0.0950482417,0.357712924 0.018221364,0.546803967 0.0199697665,0.743332398 L0.0199697665,9.83332096 L1.49333145,9.83332096 L1.49333145,1.47333148 L22.5266383,1.47333148 L22.5266383,17.3266449 L8.77332229,17.3266449 L8.77332229,18.7999763 L23.2633041,18.7999763 C23.6650027,18.7999763 23.9926992,18.4782768 24,18.0766439 L24,0.743332398 C24.0017484,0.546803967 23.9249215,0.357712924 23.7865767,0.218116062 C23.6482318,0.0785192002 23.4598405,0 23.2633041,0 Z" id="Path"></path>
                <path d="M4,11.8666517 C2.7833889,11.1654237 1.40422466,10.795348 0,10.7933197 L0,12.2666512 C3.60933469,12.2684904 6.53481929,15.193975 6.53665844,18.8033097 L7.99998993,18.8033097 C7.99411841,15.9445492 6.4713008,13.3037297 4,11.8666517 Z" id="Path"></path>
                <path d="M0,13.489983 L0,14.9633145 C2.12921375,14.9651524 3.85482391,16.6907626 3.85666181,18.8199763 L5.3333326,18.8199763 C5.33473418,17.8833167 5.08741997,16.9630778 4.61666086,16.153313 C3.660989,14.5076243 1.903047,13.4934758 0,13.489983 Z" id="Path"></path>
                <path d="M0,16.2033129 L0.0166666457,18.8033097 L2.61666337,18.8033097 C2.60749994,17.3646794 1.43865949,16.2032838 0,16.2033129 Z" id="Path"></path>
            </g>
        </g>
    </g>
</svg>