<svg width="24" height="24" viewBox="0 0 24 24" fill="none" xmlns="http://www.w3.org/2000/svg">
<path d="M17.3577 15.2267C17.1243 14.0333 15.5377 14.0067 15.201 14.0133C15.0377 13.5567 14.231 13.04 13.3743 13.04C13.1243 13.04 12.891 13.0867 12.6843 13.1767C12.181 12.62 11.6143 12.34 10.9943 12.34C10.6977 12.34 10.461 12.4067 10.3277 12.4467L10.291 8.42667C10.261 7.94 10.1843 6.65 9.18433 6.62667C9.14433 6.62667 8.21099 6.59333 7.92433 6.67667C6.80766 6.99333 6.92433 8.52 6.92433 8.52333C6.95099 10.64 6.95433 13.8233 6.87433 14.26C5.76766 14.22 5.54099 14.6967 5.41766 16.1433V17.47C5.39766 18.1967 5.55099 19.29 6.38766 20.36C6.39766 20.37 7.25766 21.45 7.25766 22.7667C7.24099 23.3667 7.73766 23.8733 8.36766 23.9L15.3377 24C15.6177 24 15.8843 23.9 16.091 23.7233C16.331 23.52 16.4643 23.23 16.471 22.9133C16.491 22.2667 16.8577 20.4633 17.1277 19.1467C17.3043 18.2867 17.441 17.6033 17.4543 17.4133C17.5343 16.0633 17.521 15.99 17.4177 15.5167C17.401 15.4367 17.381 15.3433 17.3577 15.23V15.2267ZM16.2577 15.76C16.3343 16.12 16.341 16.15 16.271 17.3267C16.2543 17.49 16.0877 18.31 15.9643 18.91C15.6043 20.6733 15.3277 22.0867 15.2877 22.8133L8.44433 22.7167C8.42433 21.05 7.43099 19.7633 7.31766 19.62C6.70099 18.83 6.59099 18.0333 6.60433 17.5033V16.1933C6.64099 15.7833 6.68099 15.5633 6.71099 15.4433C6.75766 15.4433 6.81099 15.4433 6.87766 15.4433C7.19099 15.4533 7.49766 15.3367 7.71766 15.1133C8.10433 14.7233 8.18433 14.64 8.11099 8.50333V8.48C8.07433 7.83667 8.15766 7.72667 8.16766 7.71667C8.21433 7.66333 8.48099 7.6 8.73099 7.62C8.87766 7.63333 8.98433 7.67333 9.02099 7.72667C9.12766 7.89667 9.11433 8.27667 9.10766 8.42C9.10766 8.46 9.10766 8.48667 9.10766 8.49L9.14433 12.5567C9.14433 12.8733 9.28766 13.1767 9.52766 13.3833C9.76766 13.59 10.0877 13.6833 10.4043 13.64C10.5043 13.6267 10.5843 13.6033 10.6543 13.58C10.7477 13.5533 10.8643 13.5167 11.001 13.5167C11.1043 13.5167 11.4177 13.5167 11.8377 13.9967C12.1577 14.3633 12.711 14.4767 13.1477 14.2633C13.211 14.2333 13.2877 14.22 13.381 14.22C13.6943 14.22 14.001 14.3833 14.111 14.48C14.271 14.91 14.6877 15.1967 15.151 15.1967C15.171 15.1967 15.191 15.1967 15.2077 15.1967C15.2177 15.1967 15.241 15.1967 15.2743 15.1967C15.7677 15.1967 16.1743 15.3333 16.1977 15.4533C16.221 15.5667 16.241 15.66 16.2577 15.7433H16.341L16.261 15.76H16.2577Z" fill="black"/>
<path d="M16.3243 4.52C17.571 4.52 18.5843 3.50667 18.5843 2.26C18.5843 1.01333 17.571 0 16.3243 0C15.0777 0 14.0643 1.01333 14.0643 2.26C14.0643 3.50667 15.0777 4.52 16.3243 4.52ZM15.3643 2.26C15.3643 1.73 15.7943 1.3 16.3243 1.3C16.8543 1.3 17.2843 1.73 17.2843 2.26C17.2843 2.79 16.8543 3.22 16.3243 3.22C15.7943 3.22 15.3643 2.79 15.3643 2.26Z" fill="black"/>
<path d="M8.47099 4.52C9.71766 4.52 10.731 3.50667 10.731 2.26C10.731 1.01333 9.71766 0 8.47099 0C7.22433 0 6.21099 1.01333 6.21099 2.26C6.21099 3.50667 7.22433 4.52 8.47099 4.52ZM7.51099 2.26C7.51099 1.73 7.94099 1.3 8.47099 1.3C9.00099 1.3 9.43099 1.73 9.43099 2.26C9.43099 2.79 9.00099 3.22 8.47099 3.22C7.94099 3.22 7.51099 2.79 7.51099 2.26Z" fill="black"/>
<path d="M16.3243 6.75667C15.0777 6.75667 14.0643 7.77 14.0643 9.01667C14.0643 10.2633 15.0777 11.2767 16.3243 11.2767C17.571 11.2767 18.5843 10.2633 18.5843 9.01667C18.5843 7.77 17.571 6.75667 16.3243 6.75667ZM17.2843 9.01667C17.2843 9.54667 16.8543 9.97667 16.3243 9.97667C15.7943 9.97667 15.3643 9.54667 15.3643 9.01667C15.3643 8.48667 15.7943 8.05667 16.3243 8.05667C16.8543 8.05667 17.2843 8.48667 17.2843 9.01667Z" fill="black"/>
</svg>
