<?xml version="1.0" encoding="UTF-8"?>
<svg width="24px" height="24px" viewBox="0 0 24 24" version="1.1" xmlns="http://www.w3.org/2000/svg" xmlns:xlink="http://www.w3.org/1999/xlink">
    <title>Icon/Outline/serenity-space-outline</title>
    <g id="Icon/Outline/serenity-space-outline" stroke="none" stroke-width="1" fill="none" fill-rule="evenodd">
        <g id="Group" transform="translate(1.000000, 0.000000)" fill="#474747" fill-rule="nonzero">
            <g id="Outline">
                <polygon id="Path" points="1.06635813 20.9608793 1.06635813 20.9608793 1.09968182 20.9808736 1.09968182 20.9808736"></polygon>
                <path d="M9.52057864,0.340179096 C9.06693127,0.035167767 8.50818227,-0.0708018712 7.97435936,0.046930612 C7.45057632,0.158549291 6.98991846,0.467643554 6.68806487,0.91001422 L1.33294766,9.39422605 C1.05906136,9.84413845 0.962815818,10.3800241 1.06302576,10.8971245 L2.3326584,16.6088052 L0,20.2910731 L1.05969339,20.957547 L3.67227079,16.832074 L2.31599655,10.5738847 C2.28481449,10.4001292 2.31175137,10.2209404 2.39264104,10.0640323 L7.79107905,1.61647648 C7.88941108,1.44452158 8.05692072,1.32313778 8.25094599,1.28323956 C8.43856302,1.25001216 8.6311046,1.30397285 8.77412795,1.42986381 C9.09241622,1.67684747 9.15996233,2.13058108 8.92741693,2.45956587 L4.8052763,8.98101228 C4.41538911,9.60083294 4.42205385,10.6471969 4.5353544,11.1703788 L5.86830206,17.0953311 L7.09794627,16.8154121 L5.82164889,10.9171188 C5.76016995,10.7342118 5.78406439,10.5333657 5.88674044,10.3699881 C5.98941649,10.2066105 6.16002338,10.097967 6.35149558,10.0740294 C6.52337219,10.0153219 6.71297604,10.0425852 6.86134806,10.1473415 C7.03465118,10.2425513 7.15672989,10.4097991 7.19458498,10.6038761 L8.56752106,17.0020248 C8.6241671,17.1745225 8.59573496,17.363658 8.49087657,17.5118773 L6.33150137,20.9342204 L4.81860578,23.3335262 L4.81860578,23.3335262 L5.87829917,24 L9.5672318,18.2616603 C9.85984502,17.8177996 9.95742475,17.2732806 9.83715371,16.7554295 L8.40423497,10.3372865 C8.21334465,9.40782242 7.38683418,8.74661405 6.43813718,8.76440829 L9.98711032,3.12937207 C10.5919233,2.2221855 10.3876906,1.00116557 9.52057864,0.340179096 Z" id="Path"></path>
                <polygon id="Path" points="4.74196129 23.2835406 4.77528498 23.3035348 4.74196129 23.2835406"></polygon>
                <path d="M4.81527341,23.3335262 L4.78194972,23.3101996 L4.81527341,23.3335262 Z" id="Path"></path>
                <path d="M3.67227079,16.832074 L1.06635813,20.9608793 L1.09968182,20.9808736 C1.52955744,20.2644142 2.30599945,19.0014463 3.67227079,16.832074 Z" id="Path"></path>
                <polygon id="Path" points="6.33150137 20.9342204 4.74196129 23.2668788 4.77528498 23.286873 4.77528498 23.286873 4.80860867 23.3101996 4.80860867 23.3101996"></polygon>
                <path d="M16.7218284,23.3335262 L16.7451549,23.3335262 L16.7218284,23.3335262 Z" id="Path"></path>
                <polygon id="Path" points="16.7484873 23.313532 16.7984728 23.2835406 16.7984728 23.2835406"></polygon>
                <polygon id="Path" points="20.4340876 20.9808736 20.4674113 20.9608793 20.4674113 20.9608793"></polygon>
                <path d="M13.0495576,17.518542 C12.9425114,17.3686816 12.9139959,17.176512 12.9729131,17.0020248 L14.362511,10.6038761 C14.4003661,10.4097991 14.5224448,10.2425513 14.6957479,10.1473415 C14.8441199,10.0425852 15.0337238,10.0153219 15.2056004,10.0740294 C15.3970726,10.097967 15.5676795,10.2066105 15.6703555,10.3699881 C15.7730316,10.5333657 15.796926,10.7342118 15.7354471,10.9171188 L14.4591497,16.8154121 L15.6887939,17.0953311 L17.0217416,11.1703788 C17.1350421,10.6638587 17.1417069,9.60083294 16.7518197,8.98101228 L12.6130172,2.45956587 C12.3812111,2.12973502 12.4502478,1.67585566 12.7696385,1.42986381 C12.9126619,1.30397285 13.1052035,1.25001216 13.2928205,1.28323956 C13.4868458,1.32313778 13.6543554,1.44452158 13.7526874,1.61647648 L19.1511255,10.0640323 C19.2320151,10.2209404 19.258952,10.4001292 19.2277699,10.5738847 L17.8681633,16.832074 L20.474076,20.9608793 L21.5337694,20.2944055 L19.201111,16.6121376 L20.4707436,10.9004569 C20.5709536,10.3833565 20.474708,9.84747082 20.2008217,9.39755842 L14.8523693,0.920011327 C14.5505157,0.477640661 14.0898578,0.168546398 13.5660748,0.0569277194 C13.0322519,-0.0608047638 12.4735029,0.0451648744 12.0198555,0.350176204 C11.1586485,1.01032124 10.9548796,2.22420164 11.5533238,3.12937207 L15.1022969,8.76440829 C14.1535999,8.74661405 13.3270895,9.40782242 13.1361992,10.3372865 L11.7032804,16.768759 C11.5830094,17.28661 11.6805891,17.8311291 11.9732023,18.2749898 L15.662135,24 L16.7218284,23.3335262 L15.2089328,20.9342204 L13.0495576,17.518542 Z" id="Path"></path>
                <path d="M20.4340876,20.9808736 L20.4674113,20.9608793 L17.8681633,16.832074 C19.2344347,19.0014463 20.0108767,20.2644142 20.4340876,20.9808736 Z" id="Path"></path>
                <polygon id="Path" points="15.2089328 20.9342204 16.7218284 23.3301938 16.7451549 23.313532 16.7484873 23.313532 16.7984728 23.2835406"></polygon>
                <polygon id="Path" points="16.7984728 23.2835406 16.7984728 23.2835406 16.8651202 23.2402198"></polygon>
                <path d="M16.8917792,23.223558 L16.8651202,23.223558 L16.8917792,23.223558 Z" id="Path"></path>
            </g>
        </g>
    </g>
</svg>