<?xml version="1.0" encoding="UTF-8"?>
<svg width="24px" height="24px" viewBox="0 0 24 24" version="1.1" xmlns="http://www.w3.org/2000/svg" xmlns:xlink="http://www.w3.org/1999/xlink">
    <title>Icon/Outline/service-outline</title>
    <g id="Icon/Outline/service-outline" stroke="none" stroke-width="1" fill="none" fill-rule="evenodd">
        <g id="Group" transform="translate(-0.000000, -0.000000)" fill="#474747" fill-rule="nonzero">
            <g id="service-outline">
                <path d="M5.38131134,24 C4.62345408,24 3.87412463,23.8407599 3.18200468,23.5333256 C2.95708734,23.4324197 2.79640091,23.2278074 2.75227158,22.986119 C2.70814224,22.7444307 2.78621637,22.4965904 2.96106976,22.3233053 L5.05660397,20.2266034 L3.58705202,18.7565787 L1.57855279,20.7832794 C1.39819081,20.9607096 1.14028632,21.0358757 0.892315549,20.9832827 C0.644643461,20.9313223 0.441121355,20.7563513 0.35336825,20.5199417 C-0.403114226,18.5301115 0.0771261935,16.2836679 1.58190028,14.7731785 C2.95927419,13.3949997 4.97718672,12.8658728 6.85755828,13.3898218 L13.3851808,6.85971214 C12.8621873,4.98015051 13.389665,2.96561522 14.7676978,1.57962344 C16.2715485,0.0776722383 18.52192,-0.402890817 20.5120056,0.352936166 C20.7488471,0.443121124 20.9238732,0.646389591 20.9772335,0.893233676 C21.0305938,1.14007776 20.9550589,1.39705437 20.776458,1.57629005 L18.7679587,3.60299077 L20.2375107,5.06968207 L22.3330449,2.97298018 C22.506213,2.79889538 22.7546901,2.72145505 22.9966272,2.76616825 C23.2385643,2.81088144 23.4425879,2.9719499 23.5414919,3.19631727 C24.4424403,5.25044911 23.9911272,7.64422285 22.4033424,9.23308534 C20.9507908,10.6750252 18.8052414,11.1768978 16.8598845,10.5297738 L10.5163744,16.8632135 C11.1619816,18.8089696 10.6591406,20.9508739 9.21419741,22.4099734 C8.20025763,23.4272097 6.82062432,23.999534 5.38131134,24 L5.38131134,24 Z M4.91266152,22.4799746 C6.10936583,22.6258457 7.30691031,22.2152334 8.15973528,21.3666225 C9.30447866,20.2147087 9.62573014,18.4830323 8.96983001,16.9998825 C8.84271596,16.717739 8.90253138,16.3868314 9.12046743,16.1665351 L16.1502148,9.13308363 C16.3679008,8.91258213 16.7003158,8.85010158 16.983742,8.97641433 C18.4688246,9.63428224 20.2075001,9.31214036 21.3555753,8.16640076 C22.202354,7.30862929 22.6113245,6.11387566 22.4669449,4.91967955 L20.7396356,6.64304184 C20.4446422,6.92368319 19.9801668,6.92368319 19.6851734,6.64304184 L17.1611594,4.11966611 C16.8696851,3.8272306 16.8696851,3.3554172 17.1611594,3.0629817 L18.7311363,1.4996221 C17.6397355,1.45570539 16.5797902,1.86919155 15.8087699,2.63964125 C14.7208459,3.73389293 14.3741707,5.35965508 14.9216827,6.79971114 C15.0257302,7.07463148 14.958999,7.38473118 14.7509603,7.59305778 L7.57392303,14.769845 C7.3672593,14.976624 7.05788045,15.0431995 6.78391332,14.9398479 C5.33759909,14.3880301 3.70051168,14.738383 2.6095824,15.8331962 C1.83796772,16.6089265 1.42454104,17.6689225 1.46808533,18.7599121 L3.06149472,17.166552 C3.35648809,16.8859106 3.82096346,16.8859106 4.11595682,17.166552 L6.62658087,19.6999279 C6.91766655,19.9912229 6.91766655,20.4619839 6.62658087,20.7532789 L4.91266152,22.4799746 Z" id="Shape"></path>
            </g>
        </g>
    </g>
</svg>