<?xml version="1.0" encoding="UTF-8"?>
<svg width="24px" height="24px" viewBox="0 0 24 24" version="1.1" xmlns="http://www.w3.org/2000/svg" xmlns:xlink="http://www.w3.org/1999/xlink">
    <title>Icon/Outline/setting-outline</title>
    <g id="Icon/Outline/setting-outline" stroke="none" stroke-width="1" fill="none" fill-rule="evenodd">
        <g id="Group" transform="translate(-0.000000, -0.000000)" fill="#474747" fill-rule="nonzero">
            <g id="setting" transform="translate(0.000000, 0.360000)">
                <path d="M15.5775001,3.74700272e-16 C15.7485001,3.74700272e-16 15.9210001,0.0435000002 16.0770001,0.133500001 L19.9215001,2.35350001 C20.3190001,2.58300001 20.5095001,3.05250001 20.3820001,3.49350002 L19.7415001,5.73300002 C20.2440001,6.39150003 20.6715001,7.11000003 20.9955001,7.88550004 L23.2410001,8.44650004 C23.6865001,8.55750004 24,8.95800005 24,9.41700005 L24,13.8555001 C24,14.3145001 23.6865001,14.7135001 23.2410001,14.8245001 L20.9955001,15.3870001 C20.6715001,16.1625001 20.2455001,16.8810001 19.7415001,17.5380001 L20.3820001,19.7775001 C20.5095001,20.2185001 20.3190001,20.6895001 19.9215001,20.9190001 L16.0770001,23.1375001 C15.9210001,23.2275001 15.7485001,23.2725001 15.5775001,23.2725001 C15.3135001,23.2725001 15.0525001,23.1675001 14.8590001,22.9665001 L13.2420001,21.2940001 C12.8340001,21.3465001 12.4215001,21.3825001 12,21.3825001 C11.577,21.3825001 11.1645,21.3465001 10.7565,21.2940001 L9.13950004,22.9665001 C8.94600004,23.1675001 8.68500004,23.2725001 8.42100004,23.2725001 C8.25000003,23.2725001 8.07750003,23.2275001 7.92150003,23.1375001 L4.07700002,20.9190001 C3.67950002,20.6895001 3.48900001,20.2185001 3.61650002,19.7775001 L4.25700002,17.5380001 C3.75300002,16.8810001 3.32700001,16.1625001 3.00300001,15.3870001 L0.756000003,14.8245001 C0.312000001,14.7135001 0,14.3145001 0,13.8555001 L0,9.41700005 C0,8.95800005 0.312000001,8.55750004 0.756000003,8.44650004 L3.00300001,7.88550004 C3.32700001,7.11000003 3.75300002,6.39150003 4.25700002,5.73300002 L3.61650002,3.49350002 C3.48900001,3.05250001 3.67950002,2.58300001 4.07700002,2.35350001 L7.92150003,0.133500001 C8.07750003,0.0435000002 8.25000003,3.74700272e-16 8.42100004,3.74700272e-16 C8.68500004,3.74700272e-16 8.94600004,0.105 9.13950004,0.304500001 L10.7565,1.97700001 C11.1645,1.92450001 11.577,1.89000001 12,1.89000001 C12.4215001,1.89000001 12.8340001,1.92450001 13.2420001,1.97700001 L14.8590001,0.304500001 C15.0525001,0.105 15.3135001,3.74700272e-16 15.5775001,3.74700272e-16 Z M15.6660001,1.62750001 L14.3205001,3.01950001 L13.7970001,3.55950002 L13.0515001,3.46500002 C12.6465001,3.41400001 12.3120001,3.39000001 12,3.39000001 C11.6865,3.39000001 11.352,3.41400001 10.947,3.46500002 L10.2015,3.56100002 L9.67950004,3.01950001 L8.33250003,1.62900001 L5.16600002,3.45750002 L5.69850002,5.32050002 L5.90550002,6.04500003 L5.44800002,6.64350003 C5.00700002,7.22250004 4.65000002,7.83450004 4.38750002,8.46300004 L4.09800002,9.15750005 L3.36750001,9.34050005 L1.50000001,9.80700005 L1.50000001,13.4655001 L3.36600001,13.9320001 L4.09650002,14.1135001 L4.38750002,14.8080001 C4.65000002,15.4380001 5.00700002,16.0500001 5.44800002,16.6275 L5.90550002,17.2275001 L5.69850002,17.9505001 L5.16600002,19.8150001 L8.33250003,21.6435001 L9.67800004,20.2515001 L10.2015,19.7115001 L10.947,19.8060001 C11.352,19.8585001 11.6865,19.8825001 12,19.8825001 C12.3120001,19.8825001 12.6465001,19.8585001 13.0515001,19.8060001 L13.7970001,19.7115001 L14.3205001,20.2515001 L15.6660001,21.6435001 L18.8325001,19.8150001 L18.3000001,17.9505001 L18.0930001,17.2275001 L18.5505001,16.6275 C18.9915001,16.0500001 19.3485001,15.4380001 19.6110001,14.8095001 L19.9005001,14.1150001 L20.6310001,13.9320001 L22.5,13.4640001 L22.5,9.80700005 L20.6310001,9.34050005 L19.9005001,9.15750005 L19.6110001,8.46300004 C19.3485001,7.83450004 18.9915001,7.22250004 18.5490001,6.64350003 L18.0930001,6.04500003 L18.3000001,5.32050002 L18.8325001,3.45750002 L15.6660001,1.62750001 Z M11.99895,15.38595 C9.93045004,15.38595 8.24895003,13.7029501 8.24895003,11.6359501 C8.24895003,9.56895005 9.93045004,7.88595004 11.99895,7.88595004 C14.0674501,7.88595004 15.74895,9.56895005 15.74895,11.6359501 C15.74895,13.7029501 14.0674501,15.38595 11.99895,15.38595 Z M11.99895,9.38595005 C10.75845,9.38595005 9.74895004,10.3954501 9.74895004,11.6359501 C9.74895004,12.8764501 10.75845,13.88595 11.99895,13.88595 C13.2394501,13.88595 14.24895,12.8764501 14.24895,11.6359501 C14.24895,10.3954501 13.2394501,9.38595005 11.99895,9.38595005 Z" id="Combined-Shape"></path>
            </g>
        </g>
    </g>
</svg>