<?xml version="1.0" encoding="UTF-8"?>
<svg width="24px" height="24px" viewBox="0 0 24 24" version="1.1" xmlns="http://www.w3.org/2000/svg" xmlns:xlink="http://www.w3.org/1999/xlink">
    <title>Icon/Outline/share-outline</title>
    <g id="Icon/Outline/share-outline" stroke="none" stroke-width="1" fill="none" fill-rule="evenodd">
        <g id="Group" transform="translate(-0.000000, -0.000000)" fill="#474747" fill-rule="nonzero">
            <g id="share">
                <path d="M2,0 L24,0 L24,22 C24,23.1050001 23.1050001,24 22,24 L2,24 C0.896000006,24 0,23.1050001 0,22 L0,2 C0,0.895000001 0.896000006,0 2,0 Z M22.5,22.5 L22.5,1.50000001 L1.50000001,1.50000001 L1.50000001,22.5 L22.5,22.5 Z M9.88210002,15.1786 L8.82110006,14.1176001 L17.6901001,5.24960002 L12.0000001,5.24960002 C11.586,5.24960002 11.25,4.91460002 11.25,4.49960002 C11.25,4.08560002 11.586,3.74960002 12.0000001,3.74960002 L20.2501001,3.74960002 L20.2501001,12.0000001 C20.2501001,12.415 19.9151001,12.7500001 19.5001001,12.7500001 C19.0861001,12.7500001 18.7501001,12.415 18.7501001,12.0000001 L18.7501001,6.31060002 L9.88210002,15.1786 Z" id="Combined-Shape"></path>
            </g>
        </g>
    </g>
</svg>