<svg width="24" height="24" viewBox="0 0 24 24" fill="none" xmlns="http://www.w3.org/2000/svg">
<g clip-path="url(#clip0_15805_64269)">
<path d="M17.0999 19.4833L18.2833 20.6667C16.3666 22.2167 14.1066 23.4233 12.4466 24C8.94661 22.7833 2.77995 18.7833 2.77995 14.61V5.16333L4.43661 6.82V14.61C4.43661 17.4833 9.13661 20.89 12.4466 22.2333C13.9033 21.6433 15.6266 20.6533 17.0999 19.4867V19.4833ZM12.4466 1.74667L20.4566 4.32333V14.61C20.4566 15.2433 20.2266 15.9033 19.8333 16.5633L21.0299 17.76C21.6999 16.75 22.1099 15.6867 22.1099 14.61V3.13L12.4466 0L5.51995 2.24333L6.82995 3.55333L12.4499 1.74667H12.4466ZM1.92328 0.416667L0.863281 1.47667L22.0766 22.69L23.1366 21.63L1.92328 0.416667Z" fill="black"/>
</g>
<defs>
<clipPath id="clip0_15805_64269">
<rect width="24" height="24" fill="white"/>
</clipPath>
</defs>
</svg>
