<?xml version="1.0" encoding="UTF-8"?>
<svg width="24px" height="24px" viewBox="0 0 24 24" version="1.1" xmlns="http://www.w3.org/2000/svg" xmlns:xlink="http://www.w3.org/1999/xlink">
    <title>Icon/Outline/ship-outline</title>
    <g id="Icon/Outline/ship-outline" stroke="none" stroke-width="1" fill="none" fill-rule="evenodd">
        <g id="Group" transform="translate(0.000000, 5.000000)" fill="#474747" fill-rule="nonzero">
            <g id="Outline">
                <path d="M20.98,7.82333333 L20.9566667,2.69333333 L15.1433333,2.69333333 L15.1433333,0 L8.87666667,0 L8.83333333,6.58 L8.07666667,6.58 L6.51666667,2.56333333 L5.98,2.56333333 L5.98,0.74 L2.37333333,0.74 L2.37333333,2.56333333 L1.42666667,2.56333333 L1.42666667,6.58 L0,6.58 L0.313333333,7.27333333 C0.336666667,7.33 0.576666667,7.98 0.856666667,8.72666667 C1.69,10.9833333 2.45333333,13.0266667 2.6,13.3066667 C2.93333333,13.9366667 3.13,14 3.85666667,14 L20.3933333,14 C21.35,14 21.63,13.79 21.8966667,13.3133333 C21.9266667,13.26 21.96,13.2 22.0033333,13.1333333 C22.31,12.6866667 22.9566667,10.92 23.55,9.25 C23.6333333,9.01 23.69,8.85 23.7133333,8.79666667 L24,7.82333333 L20.98,7.82333333 Z M2.83333333,6.6 L2.83333333,4 L5.42666667,4 L6.42666667,6.59 L2.83333333,6.6 Z M9.98,2.89333333 L9.98,1.42 L14.0166667,1.42 L14.0166667,2.89333333 L9.98,2.89333333 Z M9.98,5.37666667 L9.98,3.90333333 L14.0166667,3.90333333 L14.0166667,5.37666667 L9.98,5.37666667 Z M9.98,7.86333333 L9.98,6.39 L14.0166667,6.39 L14.0166667,7.86333333 L9.98,7.86333333 Z M15.4933333,5.37666667 L15.4933333,3.90333333 L19.53,3.90333333 L19.53,5.37666667 L15.4933333,5.37666667 Z M15.4933333,7.86333333 L15.4933333,6.39 L19.53,6.39 L19.53,7.86333333 L15.4933333,7.86333333 Z M7.99666667,9.50333333 L21.7633333,9.50333333 L20.56,12.39 L4.04333333,12.39 L2.51333333,8.19 L7.20666667,8.19 L7.99666667,9.50333333 Z" id="Shape"></path>
                <path d="M20.98,7.82333333 L20.9566667,2.69333333 L15.1433333,2.69333333 L15.1433333,0 L8.87666667,0 L8.83333333,6.58 L8.07666667,6.58 L6.51666667,2.56333333 L5.98,2.56333333 L5.98,0.74 L2.37333333,0.74 L2.37333333,2.56333333 L1.42666667,2.56333333 L1.42666667,6.58 L0,6.58 L0.313333333,7.27333333 C0.336666667,7.33 0.576666667,7.98 0.856666667,8.72666667 C1.69,10.9833333 2.45333333,13.0266667 2.6,13.3066667 C2.93333333,13.9366667 3.13,14 3.85666667,14 L20.3933333,14 C21.35,14 21.63,13.79 21.8966667,13.3133333 C21.9266667,13.26 21.96,13.2 22.0033333,13.1333333 C22.31,12.6866667 22.9566667,10.92 23.55,9.25 C23.6333333,9.01 23.69,8.85 23.7133333,8.79666667 L24,7.82333333 L20.98,7.82333333 Z M2.83333333,6.6 L2.83333333,4 L5.42666667,4 L6.42666667,6.59 L2.83333333,6.6 Z M9.98,2.89333333 L9.98,1.42 L14.0166667,1.42 L14.0166667,2.89333333 L9.98,2.89333333 Z M9.98,5.37666667 L9.98,3.90333333 L14.0166667,3.90333333 L14.0166667,5.37666667 L9.98,5.37666667 Z M9.98,7.86333333 L9.98,6.39 L14.0166667,6.39 L14.0166667,7.86333333 L9.98,7.86333333 Z M15.4933333,5.37666667 L15.4933333,3.90333333 L19.53,3.90333333 L19.53,5.37666667 L15.4933333,5.37666667 Z M15.4933333,7.86333333 L15.4933333,6.39 L19.53,6.39 L19.53,7.86333333 L15.4933333,7.86333333 Z M7.99666667,9.50333333 L21.7633333,9.50333333 L20.56,12.39 L4.04333333,12.39 L2.51333333,8.19 L7.20666667,8.19 L7.99666667,9.50333333 Z" id="Shape"></path>
            </g>
        </g>
    </g>
</svg>