<?xml version="1.0" encoding="UTF-8"?>
<svg width="24px" height="24px" viewBox="0 0 24 24" version="1.1" xmlns="http://www.w3.org/2000/svg" xmlns:xlink="http://www.w3.org/1999/xlink">
    <title>Icon/Outline/shopping-basket-outline</title>
    <g id="Icon/Outline/shopping-basket-outline" stroke="none" stroke-width="1" fill="none" fill-rule="evenodd">
        <g id="Group" transform="translate(0.000000, 2.000000)" fill="#474747" fill-rule="nonzero">
            <g id="Shape">
                <path d="M12.0000914,0.000133111679 C12.5905421,-0.00707526058 13.146198,0.278868985 13.4834179,0.76359851 L17.7433836,7.12354737 L22.2133477,7.12354737 C23.2006275,7.12538588 24,7.9262515 24,8.91353298 L24,9.00019895 L23.9466671,9.39352912 L21.3533546,18.8601197 C21.005389,20.0712524 19.9001578,20.9076436 18.6400431,20.9134365 L5.36348319,20.9134365 C4.1053785,20.9125638 3.00233257,20.0726673 2.66683821,18.8601197 L0.0735257293,9.41019565 C0.0230433698,9.24954443 -0.00170677301,9.08191846 9.13747602e-05,8.91353298 C9.13747602e-05,7.9262515 0.79956552,7.12538588 1.78684529,7.12354737 L6.27014257,7.12354737 L10.5167751,0.790264962 C10.8454367,0.292629107 11.4037451,-0.00471718036 12.0000914,0.000133111679 Z M1.78684529,8.66020168 C1.64768492,8.66199752 1.53530983,8.77437261 1.53351399,8.91353298 L1.53351399,8.98686572 L4.1401597,18.4567896 C4.29507588,19.004317 4.79446242,19.3825989 5.36348319,19.3834488 L18.6400431,19.3834488 C19.2105349,19.3803871 19.711635,19.0038848 19.8733665,18.4567896 L22.4500125,9.05686516 L22.466679,8.89686644 C22.4515394,8.76820577 22.3428936,8.67099637 22.2133477,8.6702016 L1.78684529,8.66020168 Z M9.17678586,11.0601824 L9.17678586,16.9834681 L7.67679792,16.9834681 L7.67679792,11.0601824 L9.17678586,11.0601824 Z M12.7500905,11.0601824 L12.7500905,16.9834681 L11.2501025,16.9834681 L11.2501025,11.0601824 L12.7500905,11.0601824 Z M16.3233951,11.0601824 L16.3233951,16.9834681 L14.8234071,16.9834681 L14.8234071,11.0601824 L16.3233951,11.0601824 Z M12.0134297,1.53025901 C11.9334764,1.52598417 11.8564222,1.5607828 11.8067647,1.62359159 L8.12012769,7.12688068 L15.8900652,7.12688068 L12.223428,1.62025829 C12.1710657,1.55946227 12.0935664,1.52624826 12.0134297,1.53025901 Z" id="Combined-Shape"></path>
            </g>
        </g>
    </g>
</svg>