<?xml version="1.0" encoding="UTF-8"?>
<svg width="24px" height="24px" viewBox="0 0 24 24" version="1.1" xmlns="http://www.w3.org/2000/svg" xmlns:xlink="http://www.w3.org/1999/xlink">
    <title>Icon/Outline/shopping-bag-outline</title>
    <g id="Icon/Outline/shopping-bag-outline" stroke="none" stroke-width="1" fill="none" fill-rule="evenodd">
        <g id="Group" transform="translate(2.249996, -0.000000)" fill="#474747" fill-rule="nonzero">
            <g id="shopping-bag-outline">
                <path d="M19.6306329,5.7051087 L19.6306329,4.37602107 L14.1913417,4.37602107 C14.1913417,1.95921137 12.2321304,0 9.81532069,0 C7.39851101,0 5.43929965,1.95921137 5.43929965,4.37602107 L1.30915978,4.37602107 C0.961680615,4.37513576 0.628178226,4.5127795 0.382472555,4.75848516 C0.136766884,5.00419084 -0.000876851213,5.33769322 4.20379071e-06,5.68517239 L4.20379071e-06,24 L18.3115134,24 C19.0300591,23.9893004 19.609965,23.4093944 19.6206647,22.6908488 L19.6206647,5.71175414 L19.6306329,5.7051087 Z M9.81532069,1.33573308 C11.4910785,1.33755353 12.8501214,2.69362584 12.8556087,4.36937562 L6.77503271,4.36937562 C6.78233523,2.69438295 8.14031606,1.3393704 9.81532069,1.33573308 Z M1.34238697,22.6675898 L1.30915978,5.7217223 L18.2982226,5.7217223 L18.3214816,22.6675898 L1.34238697,22.6675898 Z" id="Shape"></path>
            </g>
        </g>
    </g>
</svg>