<?xml version="1.0" encoding="UTF-8"?>
<svg width="24px" height="24px" viewBox="0 0 24 24" version="1.1" xmlns="http://www.w3.org/2000/svg" xmlns:xlink="http://www.w3.org/1999/xlink">
    <title>Icon/Outline/shopping-cart-outline</title>
    <g id="Icon/Outline/shopping-cart-outline" stroke="none" stroke-width="1" fill="none" fill-rule="evenodd">
        <g id="Group" transform="translate(-0.000000, 2.250000)" fill="#474747" fill-rule="nonzero">
            <g id="shopping-cart-outline">
                <path d="M11.25,20.2500001 C10.0073594,20.2500001 9.00000004,19.2426407 9.00000004,18.0000001 C9.00000004,16.7573594 10.0073594,15.7500001 11.25,15.7500001 C12.4926407,15.7500001 13.5,16.7573594 13.5,18.0000001 C13.4981199,19.2418611 12.4918611,20.2481199 11.25,20.2500001 Z M11.25,16.9210872 C10.8133146,16.9197107 10.4188592,17.1817001 10.2507885,17.5847488 C10.0827179,17.9877975 10.1741799,18.4524137 10.4824749,18.7616875 C10.7907699,19.0709612 11.2550939,19.1638954 11.6586733,18.997103 C12.0622528,18.8303107 12.3254932,18.4366877 12.3254932,18.0000001 C12.3217672,17.4075718 11.8424283,16.928233 11.25,16.9245069 L11.25,16.9210872 Z M18.7500001,20.2500001 C17.5073594,20.2500001 16.5000001,19.2426407 16.5000001,18.0000001 C16.5000001,16.7573594 17.5073594,15.7500001 18.7500001,15.7500001 C19.9926407,15.7500001 21.0000001,16.7573594 21.0000001,18.0000001 C20.9981199,19.2418611 19.9918611,20.2481199 18.7500001,20.2500001 Z M18.7500001,16.9210927 C18.3136228,16.9210927 17.9202139,17.18396 17.7532195,17.58712 C17.5862252,17.9902801 17.6785319,18.4543375 17.9870973,18.7629029 C18.2956627,19.0714682 18.75972,19.1637749 19.1628801,18.9967806 C19.5660401,18.8297862 19.8289075,18.4363774 19.8289075,18.0000001 C19.8251643,17.4062478 19.3437612,16.9263682 18.7500001,16.9245069 L18.7500001,16.9210927 Z M23.2800001,3.85945948 C23.3929808,3.99309834 23.436259,4.17222236 23.3967569,4.34270272 L21.3729731,12.1264865 L8.40000003,12.1264865 C9.04864871,13.8551352 10.2843243,13.8551352 10.345946,13.8551352 L20.1794595,13.8551352 C20.3883153,13.8391753 20.5885092,13.9415614 20.6978189,14.1202423 C20.8071287,14.2989231 20.8071287,14.5237798 20.6978189,14.7024606 C20.5885092,14.8811414 20.3883153,14.9835276 20.1794595,14.9675677 L10.2972973,14.9675677 C9.39567574,14.9675677 7.70918921,14.3124325 7.12540543,11.772973 C6.35675679,8.42594599 5.05945948,3.03243244 5.05945948,2.97729731 L5.05945948,2.94162163 C5.02702705,2.75675677 4.68972975,1.11243243 2.95783785,1.11243243 L0,1.11243243 L0,0 L2.95783785,0 C5.11135138,0 5.98702705,1.7772973 6.1556757,2.73405407 C6.17513516,2.8118919 6.252973,3.14270272 6.372973,3.64540542 L22.8421622,3.64540542 C23.0135477,3.64437851 23.1755474,3.72357836 23.2800001,3.85945948 Z M20.4972974,10.9945947 L22.1221622,4.75783785 L6.63567571,4.75783785 C7.0475676,6.48648648 7.64108111,9.01621624 8.10162168,10.9945947 L20.4972974,10.9945947 Z" id="Combined-Shape"></path>
            </g>
        </g>
    </g>
</svg>