<?xml version="1.0" encoding="UTF-8"?>
<svg width="24px" height="24px" viewBox="0 0 24 24" version="1.1" xmlns="http://www.w3.org/2000/svg" xmlns:xlink="http://www.w3.org/1999/xlink">
    <title>Icon/Outline/shower-outline</title>
    <g id="Icon/Outline/shower-outline" stroke="none" stroke-width="1" fill="none" fill-rule="evenodd">
        <g id="Group" transform="translate(1.000000, 0.000000)" fill="#474747" fill-rule="nonzero">
            <g id="Outline">
                <path d="M3.5,15.65 L3.5,16.46 C3.5,16.8539631 3.18062979,17.1733333 2.78666667,17.1733333 C2.39270355,17.1733333 2.07333333,16.8539631 2.07333333,16.46 L2.07333333,15.65 C2.07333333,15.2560369 2.39270355,14.9366667 2.78666667,14.9366667 C3.18062979,14.9366667 3.5,15.2560369 3.5,15.65 Z M5.59333333,14.9366667 C5.19937021,14.9366667 4.88,15.2560369 4.88,15.65 L4.88,16.46 C4.88,16.8539631 5.19937022,17.1733333 5.59333333,17.1733333 C5.98729644,17.1733333 6.30666667,16.8539631 6.30666667,16.46 L6.30666667,15.65 C6.30666667,15.2560369 5.98729645,14.9366667 5.59333333,14.9366667 L5.59333333,14.9366667 Z M8.4,14.9366667 C8.00603688,14.9366667 7.68666667,15.2560369 7.68666667,15.65 L7.68666667,16.46 C7.68666667,16.8539631 8.00603688,17.1733333 8.4,17.1733333 C8.79396312,17.1733333 9.11333336,16.8539631 9.11333336,16.46 L9.11333336,15.65 C9.11343913,15.2624549 8.804106,14.9457214 8.41666667,14.9366667 L8.4,14.9366667 Z M11.2066667,14.9366667 C10.8127035,14.9366667 10.4933333,15.2560369 10.4933333,15.65 L10.4933333,16.46 C10.4933333,16.8539631 10.8127035,17.1733333 11.2066667,17.1733333 C11.6006298,17.1733333 11.92,16.8539631 11.92,16.46 L11.92,15.65 C11.92,15.4608122 11.8448455,15.2793731 11.7110695,15.1455972 C11.5772936,15.0118212 11.3958544,14.9366667 11.2066667,14.9366667 L11.2066667,14.9366667 Z M2.78666667,20.1066667 C2.40174816,20.1119967 2.09049186,20.4217778 2.08333333,20.8066667 L2.08333333,21.6133333 C2.08333333,22.0072965 2.40270355,22.3266667 2.79666667,22.3266667 C3.19062979,22.3266667 3.51,22.0072965 3.51,21.6133333 L3.51,20.8066667 C3.50269865,20.4139966 3.17936508,20.1010931 2.78666667,20.1066667 L2.78666667,20.1066667 Z M5.59333333,20.1066667 C5.19937021,20.1066667 4.88,20.4260369 4.88,20.82 L4.88,21.6266667 C4.88,21.8815161 5.01596055,22.1170067 5.23666666,22.2444315 C5.45737276,22.3718562 5.7292939,22.3718562 5.95000001,22.2444315 C6.17070611,22.1170067 6.30666667,21.8815161 6.30666667,21.6266667 L6.30666667,20.8066667 C6.29939911,20.4179203 5.98214766,20.1065987 5.59333333,20.1066667 L5.59333333,20.1066667 Z M8.41666667,20.1066667 C8.02270355,20.1066667 7.70333333,20.4260369 7.70333333,20.82 L7.70333333,21.6266667 C7.70333333,22.0206298 8.02270355,22.34 8.41666667,22.34 C8.81062979,22.34 9.13,22.0206298 9.13,21.6266667 L9.13,20.8066667 C9.12273245,20.4179203 8.805481,20.1065987 8.41666667,20.1066667 L8.41666667,20.1066667 Z M11.2233333,20.1066667 C10.8293702,20.1066667 10.51,20.4260369 10.51,20.82 L10.51,21.6266667 C10.51,22.0206298 10.8293702,22.34 11.2233333,22.34 C11.6172965,22.34 11.9366667,22.0206298 11.9366667,21.6266667 L11.9366667,20.8066667 C11.9331712,20.6168781 11.8541759,20.4363097 11.7171666,20.304931 C11.5801574,20.1735523 11.3964348,20.1021994 11.2066667,20.1066667 L11.2233333,20.1066667 Z M2.78666667,17.8833333 C2.39531261,17.8888157 2.081466,18.208612 2.08332504,18.6 L2.08332504,18.6666667 C2.08332504,19.0606298 2.40270355,19.38 2.79666667,19.38 C3.19062979,19.38 3.51000813,19.0606298 3.51000813,18.6666667 L3.51000813,18.6 C3.51091377,18.4084895 3.43478241,18.2246553 3.29873704,18.0898639 C3.16269168,17.9550724 2.97816045,17.8806464 2.78666667,17.8833333 L2.78666667,17.8833333 Z M5.59333333,17.8833333 C5.40356661,17.8833333 5.2216205,17.9589432 5.08774832,18.093441 C4.95387613,18.2279387 4.87911324,18.4102354 4.8799922,18.6 L4.8799922,18.6666667 C4.8799922,18.9215161 5.01596055,19.1570067 5.23666666,19.2844315 C5.45737276,19.4118562 5.7292939,19.4118562 5.95000001,19.2844315 C6.17070611,19.1570067 6.30667447,18.9215161 6.30667447,18.6666667 L6.30667447,18.6 C6.30755343,18.4102354 6.23279053,18.2279387 6.09891835,18.093441 C5.96504617,17.9589432 5.78310005,17.8833333 5.59333333,17.8833333 Z M8.4,17.8833333 C8.21023328,17.8833333 8.02828717,17.9589432 7.89441498,18.093441 C7.7605428,18.2279387 7.68577991,18.4102354 7.68665887,18.6 L7.68665887,18.6666667 C7.68665887,19.0606298 8.00603688,19.38 8.4,19.38 C8.79396312,19.38 9.11334224,19.0606298 9.11334224,18.6666667 L9.11334224,18.6 C9.1152564,18.2111601 8.80540527,17.8924137 8.41666667,17.8833333 L8.4,17.8833333 Z M11.2066667,17.8833333 C11.0168999,17.8833333 10.8349538,17.9589432 10.7010817,18.093441 C10.5672095,18.2279387 10.4924466,18.4102354 10.4933255,18.6 L10.4933255,18.6666667 C10.4933255,19.0606298 10.8127035,19.38 11.2066667,19.38 C11.6006298,19.38 11.9200078,19.0606298 11.9200078,18.6666667 L11.9200078,18.6 C11.9208868,18.4102354 11.8461239,18.2279387 11.7122517,18.093441 C11.5783795,17.9589432 11.3964334,17.8833333 11.2066667,17.8833333 Z M0,13.9733333 L0,13.26 C0,9.67144301 2.71363326,6.66406655 6.28333333,6.29666667 L6.28333333,5.89333333 C6.28700728,2.64005822 8.92339155,0.00367394492 12.1766667,0 L16.1566667,0 C19.4104835,0.0036698906 22.0478236,2.6395191 22.0533333,5.89333333 L22.0533333,24 L20.6233333,24 L20.6233333,5.89333333 C20.6123368,3.43319238 18.6168295,1.44364184 16.1566667,1.44 L12.1766667,1.44 C9.71131713,1.44367141 7.71367141,3.44131713 7.71,5.90666667 L7.71,6.31 C11.2759515,6.67528228 13.9897225,9.67539499 13.9966667,13.26 L13.9966667,13.9733333 L0,13.9733333 Z M7,7.69 C4.2008019,7.69145082 1.83640891,9.76778145 1.47333333,12.5433333 L12.52,12.5433333 C12.1570902,9.76903817 9.7945958,7.69312274 6.99666667,7.69 L7,7.69 Z" id="Shape"></path>
            </g>
        </g>
    </g>
</svg>