<?xml version="1.0" encoding="UTF-8"?>
<svg width="24px" height="24px" viewBox="0 0 24 24" version="1.1" xmlns="http://www.w3.org/2000/svg" xmlns:xlink="http://www.w3.org/1999/xlink">
    <title>Icon/Outline/shuttlebus-outline</title>
    <g id="Icon/Outline/shuttlebus-outline" stroke="none" stroke-width="1" fill="none" fill-rule="evenodd">
        <g id="Group" transform="translate(0.000000, 4.000000)" fill="#474747" fill-rule="nonzero">
            <g id="Outline">
                <path d="M23.8633333,5.00006323 C23.3872708,2.10890787 20.8834058,-0.00942115394 17.9533333,3.1509939e-05 L2.59333333,3.1509939e-05 C1.16830809,0.00185027257 0.0109746923,1.1517458 0,2.5767299 L0,10.6700632 C0,12.5533966 3.20333333,13.2467299 4.52333333,13.4533966 C4.74785983,14.5002224 5.66591344,15.2530459 6.73643999,15.2681911 C7.80696654,15.2833363 8.74594949,14.5567851 9,13.5167299 L16.5666667,13.5167299 C16.8333541,14.5220661 17.7432262,15.222044 18.7833333,15.222044 C19.8234405,15.222044 20.7333126,14.5220661 21,13.5167299 L22.39,13.5167299 C23.2791784,13.5167299 24,12.7959083 24,11.9067299 L24,6.66006323 C23.9994935,6.10394108 23.9537875,5.54878005 23.8633333,5.00006323 L23.8633333,5.00006323 Z M22.7966667,5.17339656 C22.8777069,5.66482704 22.9189519,6.16199663 22.92,6.66006323 L22.92,8.41006323 L17.1666667,5.53339656 L17.1666667,1.06337877 L17.9533333,1.06337877 C20.3584432,1.05695644 22.4116597,2.79929365 22.7966667,5.17339656 L22.7966667,5.17339656 Z M6.48,5.3267299 L6.48,1.06339656 L10.7433333,1.06339656 L10.7433333,5.3267299 L6.48,5.3267299 Z M11.8133333,1.06339656 L16.0866667,1.06339656 L16.0866667,5.3267299 L11.8233333,5.3267299 L11.8133333,1.06339656 Z M2.58333333,1.06336353 L5.4,1.06336353 L5.4,5.3267299 L1.06666667,5.3267299 L1.06666667,2.5767299 C1.0675445,2.17332429 1.22909857,1.78688929 1.51559843,1.50289161 C1.8020983,1.21889393 2.18993555,1.06073579 2.59333333,1.06336353 L2.58333333,1.06336353 Z M6.76666667,14.1700815 C6.09193447,14.1645451 5.54907831,13.6137448 5.55336242,12.9390037 C5.55764654,12.2642625 6.10745301,11.7203999 6.78220088,11.7234372 C7.45694875,11.7265 8.001816,12.2753109 8.00000453,12.9500632 C7.99823669,13.275397 7.8673048,13.5867048 7.63600888,13.8155003 C7.40471297,14.0442957 7.09200034,14.1718362 6.76666667,14.1700815 Z M18.7666667,14.1700632 C18.0919345,14.1645451 17.5490783,13.6137448 17.5533624,12.9390037 C17.5576465,12.2642625 18.107453,11.7203999 18.7822009,11.7234372 C19.4569487,11.7265 20.001816,12.2753109 20.0000045,12.9500632 C19.9963562,13.6223355 19.4522723,14.1664194 18.78,14.1700632 L18.7666667,14.1700632 Z M22.38,12.4333966 L21.02,12.4333966 C20.7831029,11.3868091 19.8530637,10.6437583 18.78,10.6437583 C17.7069363,10.6437583 16.7768971,11.3868091 16.54,12.4333966 L9,12.4333966 C8.76458364,11.4026509 7.85589141,10.6657996 6.79874654,10.6484175 C5.74160167,10.6310355 4.80917591,11.3376143 4.54,12.3600632 C2.94666667,12.0867299 1.07333333,11.4267299 1.07333333,10.6700632 L1.07333333,6.4067299 L16.5,6.4067299 L22.92,9.6167299 L22.92,11.9067299 C22.92,12.1975999 22.6842033,12.4333966 22.3933333,12.4333966 L22.38,12.4333966 Z" id="Shape"></path>
            </g>
        </g>
    </g>
</svg>