<svg width="24" height="24" viewBox="0 0 24 24" fill="none" xmlns="http://www.w3.org/2000/svg">
<g clip-path="url(#clip0_15805_64271)">
<path d="M5.7532 0C2.5932 0 0.0332031 5.37333 0.0332031 12C0.0332031 18.6267 2.5932 24 5.7532 24C8.9132 24 11.4732 18.6267 11.4732 12C11.4732 5.37333 8.9132 0 5.7532 0ZM5.7532 22.5067C4.55654 22.5067 3.03987 20.6667 2.18654 17.4567C2.67987 17.78 3.26987 17.97 3.9032 17.97C5.63654 17.97 7.0432 16.5633 7.0432 14.83C7.0432 13.0967 5.63654 11.69 3.9032 11.69C2.95654 11.69 2.1132 12.11 1.53654 12.77C1.52987 12.5167 1.5232 12.26 1.5232 12C1.5232 5.49 3.98654 1.49333 5.7532 1.49333C7.51987 1.49333 9.9832 5.49 9.9832 12C9.9832 18.51 7.51987 22.5067 5.7532 22.5067ZM18.2465 0C15.0865 0 12.5265 5.37333 12.5265 12C12.5265 18.6267 15.0865 24 18.2465 24C21.4065 24 23.9665 18.6267 23.9665 12C23.9665 5.37333 21.4065 0 18.2465 0ZM18.2465 22.5067C17.0499 22.5067 15.5332 20.6667 14.6799 17.4567C15.1732 17.78 15.7632 17.97 16.3965 17.97C18.1299 17.97 19.5365 16.5633 19.5365 14.83C19.5365 13.0967 18.1299 11.69 16.3965 11.69C15.4499 11.69 14.6065 12.11 14.0299 12.77C14.0232 12.5167 14.0165 12.26 14.0165 12C14.0165 5.49 16.4799 1.49333 18.2465 1.49333C20.0132 1.49333 22.4765 5.49 22.4765 12C22.4765 18.51 20.0132 22.5067 18.2465 22.5067Z" fill="black"/>
</g>
<defs>
<clipPath id="clip0_15805_64271">
<rect width="24" height="24" fill="white"/>
</clipPath>
</defs>
</svg>
