<svg width="24" height="24" viewBox="0 0 24 24" fill="none" xmlns="http://www.w3.org/2000/svg">
<path d="M22.8332 22.56H1.1665V24H22.8332V22.56Z" fill="black"/>
<path d="M13.2465 0L4.33984 3.92667L2.35317 20.1667L18.3065 18.1067L22.5398 9.36L13.2465 0ZM17.3565 16.7733L5.0465 18.3633L10.0232 13.3533C10.6465 13.7767 11.3832 14.0167 12.1498 14.0167C13.4098 14.0167 14.5898 13.3833 15.3065 12.3233C16.1665 11.05 16.1665 9.33667 15.3065 8.06333C14.5898 7.00333 13.4098 6.37 12.1498 6.37C10.8898 6.37 9.70984 7.00333 8.99317 8.06333C8.13317 9.33667 8.13317 11.05 8.99317 12.3233C8.9965 12.33 9.00317 12.3333 9.0065 12.34L4.15984 17.22L5.6665 4.91667L12.9298 1.71667L20.8098 9.65L17.3598 16.7733H17.3565ZM10.1765 11.51C9.64317 10.7233 9.64317 9.66333 10.1765 8.87333C10.6332 8.19667 11.3532 7.81 12.1498 7.81C12.9465 7.81 13.6665 8.19667 14.1232 8.87333C14.6565 9.66333 14.6565 10.7233 14.1232 11.51C13.6665 12.1867 12.9465 12.5733 12.1498 12.5733C11.3532 12.5733 10.6332 12.1867 10.1765 11.51Z" fill="black"/>
</svg>
