<?xml version="1.0" encoding="UTF-8"?>
<svg width="24px" height="24px" viewBox="0 0 24 24" version="1.1" xmlns="http://www.w3.org/2000/svg" xmlns:xlink="http://www.w3.org/1999/xlink">
    <title>Icon/Outline/signpost-outline</title>
    <g id="Icon/Outline/signpost-outline" stroke="none" stroke-width="1" fill="none" fill-rule="evenodd">
        <g id="Group" transform="translate(2.000000, 0.000000)" fill="#474747" fill-rule="nonzero">
            <g id="Outline">
                <path d="M17.5433333,9.98 L10.64,9.98 L10.64,8.48666667 L17.9033333,8.48666667 L17.9033333,2.84333333 L10.64,2.84333333 L10.64,0.666666667 C10.64,0.298476833 10.3415232,0 9.97333333,0 C9.6051435,0 9.30666667,0.298476833 9.30666667,0.666666667 L9.30666667,2.83666667 L2.40333333,2.83666667 L0,5.68 L2.40666667,8.48 L9.30666667,8.48 L9.30666667,9.97333333 L2.04333333,9.97333333 L2.04333333,15.6266667 L9.30666667,15.6266667 L9.30666667,24 L10.64,24 L10.64,15.6266667 L17.54,15.6266667 L19.9466667,12.8266667 L17.5433333,9.98 Z M6.43333333,11.3333333 L16.9166667,11.3333333 L18.1766667,12.82 L16.92,14.2833333 L6.43333333,14.2833333 L6.43333333,11.3333333 Z M3.02666667,7.14 L1.77,5.66666667 L3.03,4.17666667 L13.5133333,4.17666667 L13.5133333,7.12666667 L3.02666667,7.14 Z M14.86,7.14 L14.86,4.19 L16.5566667,4.19 L16.5566667,7.14 L14.86,7.14 Z M5.08666667,11.3333333 L5.08666667,14.2833333 L3.39,14.2833333 L3.39,11.3333333 L5.08666667,11.3333333 Z" id="Shape"></path>
            </g>
        </g>
    </g>
</svg>