<svg width="24" height="24" viewBox="0 0 24 24" fill="none" xmlns="http://www.w3.org/2000/svg">
<path d="M22.4833 1.26999H1.24V19.7H22.4833V1.26999ZM21.1067 18.3233H2.62V2.64666H21.1067V18.3233Z" fill="black"/>
<path d="M24 21.3533H0V22.73H24V21.3533Z" fill="black"/>
<path d="M16.5233 7.04332L13.87 4.38999C13.4467 3.96666 12.76 3.96666 12.34 4.38999L9.57333 7.11332L10.57 8.11332L13.1 5.62666L15.2833 7.80999L12.7867 10.3333L13.79 11.3367L16.52 8.57332C16.7233 8.36999 16.8367 8.09666 16.8367 7.80666C16.8367 7.51666 16.7233 7.24666 16.52 7.03999L16.5233 7.04332Z" fill="black"/>
<path d="M10.8933 15.3667L8.71333 13.1867L11.2 10.7267L10.1967 9.72332L7.47333 12.42C7.05 12.8433 7.05 13.53 7.47333 13.9533L10.1267 16.6067C10.3367 16.8167 10.6167 16.9233 10.8933 16.9233C11.17 16.9233 11.45 16.8167 11.66 16.6067L14.3633 13.8867L13.36 12.8833L10.89 15.37L10.8933 15.3667Z" fill="black"/>
<path d="M13.1033 6.80666L11.0833 8.84999L12.0833 9.85332L14.1067 7.80999L13.1033 6.80666Z" fill="black"/>
<path d="M10.8967 14.1867L12.9033 12.1633L11.9033 11.16L9.89333 13.1867L10.8967 14.1867Z" fill="black"/>
</svg>
