<svg width="24" height="24" viewBox="0 0 24 24" fill="none" xmlns="http://www.w3.org/2000/svg">
<path d="M18.4183 13.855H16.335V7.77835C16.335 7.56168 16.2416 7.35168 16.075 7.20835C16.0216 7.16168 14.735 6.05501 13.2083 6.05501C11.6816 6.05501 10.465 7.18501 10.415 7.23168C10.2683 7.37501 10.1816 7.57168 10.1816 7.77501V13.8517H10.1716V15.3583H17.6616V23.9983H19.165V14.605C19.165 14.1883 18.8283 13.8517 18.415 13.8517L18.4183 13.855ZM11.6916 8.13501C11.9983 7.91168 12.575 7.56501 13.2116 7.56501C13.8483 7.56501 14.495 7.92168 14.835 8.15501V13.855H11.6916V8.13501ZM13.2616 5.39501C14.745 5.39501 15.9516 4.18501 15.9516 2.69835C15.9516 1.21168 14.7416 0.00167847 13.2616 0.00167847C11.7816 0.00167847 10.5716 1.21168 10.5716 2.69835C10.5716 4.18501 11.7783 5.39501 13.2616 5.39501ZM13.2616 1.50835C13.915 1.50835 14.4483 2.04168 14.4483 2.69835C14.4483 3.35501 13.915 3.88835 13.2616 3.88835C12.6083 3.88835 12.075 3.35501 12.075 2.69835C12.075 2.04168 12.6083 1.50835 13.2616 1.50835ZM14.7216 16.345H14.7183L9.27496 16.375L6.28163 5.79168L4.83496 6.20168L8.11496 17.795L8.10496 23.9983H9.60829V20.465L13.9716 20.4417V23.9983H15.475V17.095C15.475 16.895 15.395 16.7017 15.255 16.5617C15.115 16.4217 14.925 16.3417 14.725 16.3417L14.7216 16.345ZM9.54496 17.8817L13.9716 17.8583V18.9383L9.54496 18.9617V17.8817Z" fill="black"/>
</svg>
