<svg width="24" height="24" viewBox="0 0 24 24" fill="none" xmlns="http://www.w3.org/2000/svg">
<path d="M16.8182 24H7.18154C6.16154 24 5.33154 23.16 5.33154 22.13V1.87C5.33154 0.84 6.16154 0 7.18154 0H16.8182C17.8382 0 18.6682 0.84 18.6682 1.87V22.13C18.6682 23.16 17.8382 24 16.8182 24ZM6.62154 18.8433V22.13C6.62154 22.4433 6.87154 22.6967 7.18154 22.6967H16.8182C17.1282 22.6967 17.3782 22.4433 17.3782 22.13V18.8433H6.62154ZM6.62154 17.54H17.3782V4.98333H6.62154V17.54ZM6.62154 3.68H17.3782V1.86667C17.3782 1.55333 17.1282 1.3 16.8182 1.3H7.18154C6.87154 1.3 6.62154 1.55333 6.62154 1.86667V3.68Z" fill="black"/>
<path d="M12.0015 21.83C12.6238 21.83 13.1282 21.3196 13.1282 20.69C13.1282 20.0604 12.6238 19.55 12.0015 19.55C11.3793 19.55 10.8749 20.0604 10.8749 20.69C10.8749 21.3196 11.3793 21.83 12.0015 21.83Z" fill="black"/>
</svg>
