<?xml version="1.0" encoding="UTF-8"?>
<svg width="24px" height="24px" viewBox="0 0 24 24" version="1.1" xmlns="http://www.w3.org/2000/svg" xmlns:xlink="http://www.w3.org/1999/xlink">
    <title>Icon/Outline/spark-line-outline</title>
    <g id="Icon/Outline/spark-line-outline" stroke="none" stroke-width="1" fill="none" fill-rule="evenodd">
        <g id="Group" transform="translate(-0.000000, 1.499692)" fill="#474747" fill-rule="nonzero">
            <g id="spark-line">
                <path d="M15.6390803,21 C15.1340929,21 14.6891041,20.6684997 14.5401078,20.1697191 L10.9431978,8.1663447 L8.37426206,16.791475 C8.24126538,17.2402755 7.85827496,17.566676 7.39828649,17.617676 C6.94529782,17.6645961 6.49530909,17.4381558 6.26831477,17.0260753 L3.26238997,11.5476488 L1.41843611,15.2359731 C1.22944084,15.6103136 0.777452148,15.7612738 0.409461355,15.5684936 C0.0404705879,15.3777534 -0.106525734,14.9156928 0.0824695374,14.5393123 L2.22241599,10.2604072 C2.41541117,9.87280674 2.80040154,9.62800643 3.2253909,9.61882643 C3.67437967,9.65656643 4.04537039,9.84220666 4.25336518,10.2216471 L7.17729202,15.5480935 L9.84022542,6.60574282 C9.98822172,6.10798222 10.4302107,5.77342181 10.9411978,5.77342181 L10.9411978,5.77342181 C11.452185,5.77342181 11.894174,6.10594222 12.0431703,6.60574282 L15.530083,18.2398767 L18.1530174,0.996756071 C18.2350154,0.458195424 18.6630047,0.0522349349 19.1939914,0.00531488218 C19.7189783,-0.0467051855 20.2129658,0.287855221 20.3839616,0.801935838 L23.9608721,11.6975889 C24.0928688,12.0994694 23.8798741,12.5329699 23.4878839,12.66557 C23.0968937,12.8093903 22.6699044,12.58499 22.5379077,12.1841295 L19.4159858,2.67261808 L16.7790518,20.0065189 C16.6960539,20.5501795 16.2620647,20.9581801 15.7220782,20.9969401 C15.6950789,20.9989801 15.6670796,21 15.6390803,21" id="Fill-1"></path>
            </g>
        </g>
    </g>
</svg>