<svg width="24" height="24" viewBox="0 0 24 24" fill="none" xmlns="http://www.w3.org/2000/svg">
<path d="M14.1582 24H1.33154V12.5467L1.68488 12.3267C1.80488 12.25 4.66154 10.4833 7.74488 10.4833C10.8282 10.4833 13.6849 12.25 13.8049 12.3267L14.1582 12.5467V24ZM2.83488 22.4933H12.6582V13.4C11.8582 12.9667 9.81488 11.9867 7.74488 11.9867C5.67488 11.9867 3.63154 12.9667 2.83488 13.4V22.4933Z" fill="black"/>
<path d="M7.74488 9.44C5.31821 9.44 3.34154 7.46 3.34154 5.02667C3.34154 2.59333 5.31821 0.61 7.74488 0.61C10.1715 0.61 12.1482 2.59 12.1482 5.02667C12.1482 7.46333 10.1749 9.44 7.74488 9.44ZM7.74488 2.11667C6.14488 2.11667 4.84488 3.42333 4.84488 5.02667C4.84488 6.63 6.14488 7.93667 7.74488 7.93667C9.34488 7.93667 10.6449 6.63 10.6449 5.02667C10.6449 3.42333 9.34488 2.11667 7.74488 2.11667Z" fill="black"/>
<path d="M16.7782 5.84667C16.7782 4.75667 16.4515 3.74333 15.9082 2.99667L14.6315 4.02667C14.9149 4.44667 15.1382 5.07 15.1382 5.84333C15.1382 6.47667 14.9782 7.08 14.7149 7.53333L16.0015 8.57333C16.4949 7.84 16.7782 6.87667 16.7782 5.84333V5.84667Z" fill="black"/>
<path d="M18.1382 1.46667L16.8549 2.50333C17.6082 3.19667 18.0915 4.49 18.0915 5.88667C18.0915 7.18333 17.6815 8.38 17.0082 9.11333L18.2882 10.1467C19.2015 9.10667 19.7315 7.56667 19.7315 5.88667C19.7315 4.12333 19.1282 2.49333 18.1382 1.46333V1.46667Z" fill="black"/>
<path d="M21.0249 5.93C21.0249 7.87333 20.3349 9.66667 19.2249 10.6067L19.3082 10.7033L20.5015 11.6667C21.8615 10.3767 22.6682 8.26 22.6682 5.93C22.6682 3.48 21.7515 1.24667 20.2882 0L18.9749 1.06333C20.2082 1.91 21.0282 3.83333 21.0282 5.93H21.0249Z" fill="black"/>
</svg>
