<?xml version="1.0" encoding="UTF-8"?>
<svg width="24px" height="24px" viewBox="0 0 24 24" version="1.1" xmlns="http://www.w3.org/2000/svg" xmlns:xlink="http://www.w3.org/1999/xlink">
    <title>Icon/Outline/speedometer-outline</title>
    <g id="Icon/Outline/speedometer-outline" stroke="none" stroke-width="1" fill="none" fill-rule="evenodd">
        <g id="Group" transform="translate(0.000000, 3.000000)" fill="#474747" fill-rule="nonzero">
            <g id="Outline">
                <path d="M14.251048,7.24888625 L12.8812586,9.34523058 C12.5980772,9.24690088 12.3011118,9.19403204 12.0013939,9.188588 C10.6449633,9.18511333 9.47047448,10.1297914 9.18309452,11.4554341 C8.89571457,12.7810769 9.57356628,14.1273153 10.8096651,14.685863 C12.045764,15.2444108 13.5040829,14.8634297 14.3090421,13.771662 C15.1140014,12.6798944 15.0467769,11.1741316 14.1477306,10.1584389 L15.5175199,8.06209454 L14.251048,7.24888625 Z M13.3611848,12.0614796 C13.3611848,12.8124714 12.7523857,13.4212705 12.0013939,13.4212705 C11.2504021,13.4212705 10.641603,12.8124714 10.641603,12.0614796 C10.641603,11.3104878 11.2504021,10.7016887 12.0013939,10.7016887 C12.7523857,10.7016887 13.3611848,11.3104878 13.3611848,12.0614796 L13.3611848,12.0614796 Z" id="Shape"></path>
                <path d="M12.0013939,4.32532445e-07 C7.88733105,-0.00110212706 4.05957348,2.10574371 1.85959024,5.58217697 C-0.340393005,9.05861023 -0.605795659,13.4198129 1.15639481,17.1373658 L1.4896769,17.8305925 L6.25561074,15.477621 L6.29893741,15.4542912 L5.98898507,14.7877271 C5.58261586,13.9152253 5.37325082,12.9639798 5.37574603,12.0014888 C5.39019269,9.29764916 7.04537024,6.87356857 9.55841405,5.87578684 C12.0714579,4.87800512 14.9386422,5.5065221 16.8038483,7.4640623 C18.6690544,9.4216025 19.1584121,12.3157878 18.0404653,14.7777286 L17.730513,15.4442928 L22.4997797,17.7772674 L22.5464391,17.8005971 L22.8797212,17.1073704 C23.6279878,15.5086604 24.0105374,13.763278 23.9997792,11.998156 C23.9997792,5.37175789 18.627792,4.32532445e-07 12.0013939,4.32532445e-07 Z M19.6668819,14.7210706 C20.4023204,12.6458328 20.2652379,10.3611247 19.2869403,8.38871099 L21.3466236,7.272216 C22.6839779,9.91227076 22.8413855,12.9950367 21.7798903,15.7575779 L19.6668819,14.7210706 Z M12.7579443,3.89606846 L12.7579443,1.54309693 C15.9001734,1.76580141 18.7736372,3.39605728 20.576742,5.9790815 L18.5003946,7.10224214 C17.1216902,5.27421696 15.0375257,4.11056857 12.7579443,3.89606846 Z M5.50239322,7.10224214 L3.42604582,5.9790815 C5.22915067,3.39605728 8.10261444,1.76580141 11.2448436,1.54309693 L11.2448436,3.89606846 C8.9652621,4.11056857 6.88109768,5.27421696 5.50239322,7.10224214 L5.50239322,7.10224214 Z M2.21956467,15.7675764 C1.1508961,12.9999682 1.30592884,9.90900288 2.64616574,7.26221754 L4.70584904,8.37871253 C3.72898529,10.3518435 3.59429088,12.6368379 4.3325731,14.7110722 L2.21956467,15.7675764 Z" id="Shape"></path>
            </g>
        </g>
    </g>
</svg>