<?xml version="1.0" encoding="UTF-8"?>
<svg width="24px" height="24px" viewBox="0 0 24 24" version="1.1" xmlns="http://www.w3.org/2000/svg" xmlns:xlink="http://www.w3.org/1999/xlink">
    <title>Icon/Outline/spider-chart-outline</title>
    <g id="Icon/Outline/spider-chart-outline" stroke="none" stroke-width="1" fill="none" fill-rule="evenodd">
        <g id="Group" transform="translate(-0.000000, -0.000000)" fill="#474747" fill-rule="nonzero">
            <g id="spider-chart" transform="translate(0.000000, 0.585000)">
                <path d="M12,-4.16333636e-16 L24,8.71851036 L19.4164079,22.8253565 L4.58359215,22.8253565 L0,8.71851036 L12,-4.16333636e-16 Z M1.85410198,9.32094464 L5.7294902,21.2481631 L18.2705099,21.2481631 L22.1458981,9.32094464 L12.0000001,1.94951818 L1.85410198,9.32094464 Z M12,4.73158003 L19.5,10.180649 L16.635255,18.9974278 L7.36474511,18.9974278 L4.50000002,10.180649 L12,4.73158003 Z M6.354102,10.7830833 L8.51064319,17.4202345 L15.4893569,17.4202345 L17.6458981,10.7830833 L12.0000001,6.68109822 L6.354102,10.7830833 Z M12.0000001,8.67456336 L15.75,11.3990979 L14.3176275,15.8074873 L9.68237262,15.8074873 L8.25000003,11.3990979 L12.0000001,8.67456336 Z M10.104102,12.0015321 L10.8282706,14.230294 L13.1717295,14.230294 L13.8958981,12.0015321 L12.0000001,10.6240816 L10.104102,12.0015321 Z" id="spiderchart-outline"></path>
            </g>
        </g>
    </g>
</svg>