<?xml version="1.0" encoding="UTF-8"?>
<svg width="24px" height="24px" viewBox="0 0 24 24" version="1.1" xmlns="http://www.w3.org/2000/svg" xmlns:xlink="http://www.w3.org/1999/xlink">
    <title>Icon/Outline/spinner-outline</title>
    <g id="Icon/Outline/spinner-outline" stroke="none" stroke-width="1" fill="none" fill-rule="evenodd">
        <g id="Group" fill="#474747" fill-rule="nonzero">
            <g id="Outline">
                <path d="M19.5724597,2.69850083 L20.3953359,3.43142699 L18.096613,5.79677957 L17.5002776,5.27040533 L19.5724597,2.69850083 Z M21.6546363,4.87062743 L22.2709606,5.78345364 L19.4591893,7.50583009 L19.0094392,6.83953359 L21.6546363,4.87062743 Z M23.1238201,7.4858412 L23.4936147,8.52859522 L20.3220433,9.49805664 L20.0488617,8.74847307 L23.1238201,7.4858412 Z M23.9000555,10.384231 L24,11.4836202 L20.7051638,11.6401999 L20.6285397,10.8473071 L23.9000555,10.384231 Z M23.9300389,13.3825652 L23.7534703,14.47196 L20.5219323,13.8056635 L20.6451971,13.0194336 L23.9300389,13.3825652 Z M23.2137701,16.2976124 L22.770683,17.2970572 L19.8056635,15.8511938 L20.1388118,15.1182676 L23.2137701,16.2976124 Z M21.7978901,18.9428096 L21.1315936,19.8123265 L18.6196557,17.6768462 L19.1060522,17.0438645 L21.7978901,18.9428096 Z M19.7556913,21.1549139 L18.8795114,21.8212104 L16.9905608,19.139367 L17.6035536,18.6563021 L19.7556913,21.1549139 Z M17.240422,22.7940033 L16.2409772,23.233759 L15.0649639,20.1521377 L15.7912271,19.8189895 L17.240422,22.7940033 Z M14.3986674,23.7568018 L13.32593,23.9300389 L12.9328151,20.6551916 L13.719045,20.5252637 L14.3986674,23.7568018 Z M10.9938923,0.0466407551 L12.0999445,0 L12.0999445,3.30149917 L11.3037202,3.33481399 L10.9938923,0.0466407551 Z M13.9922265,0.169905608 L15.0716269,0.403109384 L14.2420877,3.59466963 L13.4591893,3.43142699 L13.9922265,0.169905608 Z M16.8672959,1.03609106 L17.8667407,1.52915047 L16.2676291,4.41421433 L15.5446974,4.06440866 L16.8672959,1.03609106 Z M11.4069961,23.9866741 L10.3076069,23.8833981 L10.757357,20.6152138 L11.5502499,20.6851749 L11.4069961,23.9866741 Z M8.45197113,23.4636313 L7.41254858,23.0905053 L8.66185453,20.0388673 L9.41476957,20.3020544 L8.45197113,23.4636313 Z M5.71682399,22.2243198 L4.80399778,21.6079956 L6.76957246,18.9428096 L7.43586896,19.3858967 L5.71682399,22.2243198 Z M3.38478623,20.3486952 L2.65186008,19.5224875 L5.21043865,17.4436424 L5.74347585,18.0366463 L3.38478623,20.3486952 Z M1.58245419,17.9466963 L1.07940033,16.9672404 L4.07773459,15.5880067 L4.44752915,16.294281 L1.58245419,17.9466963 Z M0.433092726,15.1749028 L0.186563021,14.1021655 L3.43142699,13.5091616 L3.61465852,14.285397 L0.433092726,15.1749028 Z M0,12.2065519 L0.0299833426,11.1038312 L3.33148251,11.3270405 L3.31149361,12.1232649 L0,12.2065519 Z M0.333148251,9.20821766 L0.636313159,8.14880622 L3.76790672,9.18822876 L3.55136036,9.95780122 L0.333148251,9.20821766 Z M1.38922821,6.3997779 L1.94558579,5.4469739 L4.72071072,7.23264853 L4.32093282,7.92226541 L1.38922821,6.3997779 Z M3.10827318,3.94114381 L3.88450861,3.15491394 L6.12659634,5.57357024 L5.57023876,6.14325375 L3.10827318,3.94114381 Z M5.37368129,1.99888951 L6.32981677,1.429206 L7.89228207,4.33092726 L7.22598556,4.74736258 L5.37368129,1.99888951 Z M8.06218767,0.666296502 L9.11826763,0.353137146 L9.9244864,3.54802887 L9.1615769,3.78123265 L8.06218767,0.666296502 Z" id="Page-1"></path>
            </g>
        </g>
    </g>
</svg>