<?xml version="1.0" encoding="UTF-8"?>
<svg width="24px" height="24px" viewBox="0 0 24 24" version="1.1" xmlns="http://www.w3.org/2000/svg" xmlns:xlink="http://www.w3.org/1999/xlink">
    <title>Icon/Outline/star-outline</title>
    <g id="Icon/Outline/star-outline" stroke="none" stroke-width="1" fill="none" fill-rule="evenodd">
        <g id="Group" transform="translate(0.000000, 1.000000)" fill="#474747" fill-rule="nonzero">
            <g id="Page-1">
                <path d="M15.8732718,13.8390929 L21.2495861,9.57603896 L14.3933688,9.28939108 L12.0001924,2.85647943 L9.60701592,9.28939108 L2.75079868,9.57603896 L8.12711293,13.8390929 L6.28390042,20.4419934 L12.0001924,16.6522418 L17.7164844,20.4419934 L15.8732718,13.8390929 Z M12.0001924,18.5921146 L6.25390239,22.4118642 C4.76400005,23.4117987 3.94738691,22.8018387 4.42735545,21.0786183 L6.28390042,14.4423866 L0.874255018,10.1526678 C-0.525653218,9.04274059 -0.209007308,8.08280351 1.57087602,8.00614187 L8.46709065,7.71949399 L10.8735996,1.24991807 C11.496892,-0.416639356 12.5068258,-0.416639356 13.1267852,1.24991807 L15.5332941,7.71949399 L22.4295087,8.00614187 C24.2127252,8.08280351 24.5227049,9.0460737 23.1261298,10.1526678 L17.7164844,14.4423866 L19.5730293,21.0886177 C20.0529979,22.8085049 19.2397178,23.4017994 17.7464824,22.4218636 L12.0001924,18.5921146 Z" id="Star-Copy"></path>
            </g>
        </g>
    </g>
</svg>