<?xml version="1.0" encoding="UTF-8"?>
<svg width="24px" height="24px" viewBox="0 0 24 24" version="1.1" xmlns="http://www.w3.org/2000/svg" xmlns:xlink="http://www.w3.org/1999/xlink">
    <title>Icon/Outline/stewardship-outline</title>
    <g id="Icon/Outline/stewardship-outline" stroke="none" stroke-width="1" fill="none" fill-rule="evenodd">
        <g id="Group" transform="translate(1.805753, -0.000000)" fill="#474747" fill-rule="nonzero">
            <g id="Stewardship-outline">
                <path d="M21.0641097,19.4663015 C21.1887727,20.1079466 20.8232494,20.7437612 20.2060275,20.9589042 L11.9441097,23.7336987 L11.8356165,23.7336987 C11.8323288,23.7336987 10.3824658,23.7698631 8.92931514,23.7994521 L6.92712331,23.8356165 L6.4142466,23.8356165 C6.11199465,23.8764092 5.80450035,23.8236304 5.53315071,23.6843837 C4.79671235,23.4312329 2.16657536,22.6290412 0.522739727,22.1457535 L-1.77635684e-15,21.9879453 L-1.77635684e-15,13.880548 L6.50301375,15.6230137 L7.43013698,16.3430137 L13.400548,17.0268494 C14.0054118,17.0874733 14.4720216,17.5864086 14.4920549,18.1939727 C20.321096,17.6021918 20.3243836,17.6087672 20.6071234,17.8652056 L20.6564384,17.9112329 L20.6794522,17.9736987 C20.8453461,18.4607558 20.9739365,18.9597305 21.0641097,19.4663015 Z M1.45972603,15.780822 L1.45972603,20.8898631 C4.46465756,21.7841097 5.60876715,22.1293151 6.15123293,22.3660275 C6.71671238,22.3758905 9.71506854,22.3134248 11.6876713,22.2641097 L19.601096,19.6076713 C19.5682192,19.4400001 19.5386302,19.3019179 19.5156166,19.1835617 C18.4471234,19.2756165 16.2016439,19.5057535 14.4591781,19.6832878 C14.3485534,20.3687687 13.7595333,20.874437 13.0652055,20.8800001 L6.45369863,20.8800001 L6.45369863,19.410411 L13.0290411,19.410411 L13.0290411,18.4701371 L6.85808221,17.7534247 L5.84547945,16.9578083 L1.45972603,15.780822 Z M10.1942466,6 C8.53810411,5.99828292 7.19596373,4.6561425 7.19424661,3 C7.19424661,1.34314576 8.53739236,0 10.1942466,0 C11.8511009,0 13.1942466,1.34314576 13.1942466,3 C13.1942466,4.65685427 11.8511009,6 10.1942466,6 Z M8.49019674,3.00000001 C8.49019674,3.45194213 8.66973009,3.88537388 8.98930141,4.20494522 C9.30887274,4.52451656 9.74230449,4.70404986 10.1942466,4.70404986 C11.1353674,4.70404986 11.8982965,3.94112076 11.8982965,3.00000001 C11.8982965,2.05887926 11.1353674,1.29595016 10.1942466,1.29595016 C9.25312584,1.29595016 8.49019674,2.05887926 8.49019674,3.00000001 Z M4.94978844,7.14329576 C4.3523163,7.14402425 3.77902301,6.90738437 3.35602676,6.48542743 C2.93303052,6.06347049 2.69498103,5.49076106 2.69424659,4.89328893 C2.69424659,3.65137049 3.7004858,2.64431366 4.94240383,2.64329576 C6.18432188,2.6422794 7.19220548,3.64768668 7.19424659,4.88960344 C7.19628151,6.13152021 6.19170308,7.14022999 4.94978844,7.14329576 Z M3.84141407,4.89328893 L3.85249781,4.89328893 C3.85246742,5.50112471 4.34198304,5.99558495 4.94978844,6.0016633 C5.5619267,6.0016633 6.0581628,5.50542719 6.0581628,4.89328893 C6.0581628,4.28115066 5.5619267,3.78491456 4.94978844,3.78491456 C4.33765017,3.78491456 3.84141407,4.28115066 3.84141407,4.89328893 Z M16.1942466,7.14328768 C14.9522389,7.14176095 13.9457734,6.13529544 13.9442466,4.89328769 C13.9442466,3.650647 14.951606,2.64328768 16.1942466,2.64328768 C17.4368873,2.64328768 18.4442466,3.650647 18.4442466,4.89328769 C18.4442466,6.13592838 17.4368873,7.14328768 16.1942466,7.14328768 Z M16.1942466,3.79599704 C15.5821083,3.79599704 15.0858723,4.29223317 15.0858723,4.90437144 C15.0858723,5.51650971 15.5821083,6.01274583 16.1942466,6.01274583 C16.8063849,6.01274583 17.302621,5.51650971 17.302621,4.90437144 C17.302621,4.29223317 16.8063849,3.79599704 16.1942466,3.79599704 Z M15.1314559,8.58781069 C16.1505983,8.56852129 17.1601615,8.78751551 18.0797118,9.22734559 L18.4442466,9.40961299 L18.4442466,13.6113572 L1.94424659,13.6113572 L1.94424659,9.41281069 L2.30878147,9.22734559 C3.22882786,8.78896624 4.23804454,8.57004724 5.25703729,8.58781069 C5.56820124,8.58785644 5.87903243,8.60815129 6.18756053,8.64856646 L6.18756053,8.48228741 L6.5520954,8.29682231 C7.67928608,7.76034933 8.91398934,7.48803654 10.1622698,7.50060138 C11.4339139,7.48511848 12.6913867,7.76881661 13.8332001,8.32879901 L14.1945373,8.51426419 L14.1945373,8.65176416 C14.5051428,8.61031616 14.8180992,8.58895399 15.1314559,8.58781069 Z M3.27447915,12.2811247 L6.18756053,12.2811247 L6.18756053,9.97879902 C5.20914616,9.82239874 4.20707143,9.91589637 3.27447915,10.2506014 L3.27447915,12.2811247 Z M7.52738611,12.2811247 L12.8611071,12.2811247 L12.8611071,9.32967116 C11.148558,8.65651976 9.24631337,8.64739631 7.52738611,9.30408971 L7.52738611,12.2811247 Z M14.1945373,12.2811247 L17.1140141,12.2811247 L17.1140141,10.253799 C16.1801859,9.91486242 15.1752309,9.82020072 14.1945373,9.97879902 L14.1945373,12.2811247 Z" id="Combined-Shape"></path>
            </g>
        </g>
    </g>
</svg>