<svg width="24" height="24" viewBox="0 0 24 24" fill="none" xmlns="http://www.w3.org/2000/svg">
<path d="M17.3668 19.0316H17.1768C16.8968 18.7516 16.4035 18.175 15.9368 17.2216C15.3435 16.0016 14.6835 13.8916 14.8668 10.7216H17.0435V6.15165H15.0502C15.5635 5.48498 15.8435 4.67498 15.8435 3.83831C15.8435 1.72165 14.1002 0.00164795 11.9568 0.00164795C9.8135 0.00164795 8.07016 1.72498 8.07016 3.83831C8.07016 4.67831 8.35016 5.48498 8.8635 6.15165H6.95683V10.7216H9.1335C9.31683 13.895 8.65683 16.005 8.0635 17.2216C7.60016 18.175 7.1035 18.7516 6.8235 19.0316H6.6335C5.36683 19.0316 4.3335 20.0483 4.3335 21.3016V23.9983H19.6668V21.3016C19.6668 20.0516 18.6368 19.0316 17.3668 19.0316ZM11.9535 6.14831C10.6602 6.14831 9.61016 5.11165 9.61016 3.83498C9.61016 2.55831 10.6602 1.52165 11.9535 1.52165C13.2468 1.52165 14.2968 2.55831 14.2968 3.83498C14.2968 5.11165 13.2468 6.14831 11.9535 6.14831ZM15.4968 7.67165V9.19165H8.49683V7.67165H15.4968ZM10.6735 10.7183H13.3202C13.0935 14.8883 14.1735 17.5083 15.2035 19.0316H8.79016C9.82016 17.5083 10.9035 14.8883 10.6735 10.7183ZM5.8735 22.4716V21.2983C5.8735 20.8883 6.2135 20.5516 6.62683 20.5516H17.3635C17.7802 20.5516 18.1168 20.885 18.1168 21.2983V22.4716H5.87683H5.8735Z" fill="black"/>
</svg>
