<svg width="24" height="25" viewBox="0 0 24 25" fill="none" xmlns="http://www.w3.org/2000/svg">
<path d="M12 0.375C18.628 0.375 24 5.748 24 12.375C24 19.002 18.628 24.375 12 24.375C5.373 24.375 0 19.002 0 12.375C0 5.748 5.373 0.375 12 0.375ZM12 22.875C17.79 22.875 22.5 18.165 22.5 12.375C22.5 6.585 17.79 1.875 12 1.875C6.21 1.875 1.5 6.585 1.5 12.375C1.5 18.165 6.21 22.875 12 22.875ZM10.5101 14.3188L16.4981 8.3088L17.5601 9.3678L10.5111 16.4418L7.0521 12.9818L8.1121 11.9218L10.5101 14.3188Z" fill="#474747"/>
</svg>
