<svg width="24" height="24" viewBox="0 0 24 24" fill="none" xmlns="http://www.w3.org/2000/svg">
<g clip-path="url(#clip0_369517_503)">
<path d="M12 0C13.5759 1.8792e-08 15.1363 0.310389 16.5922 0.913446C18.0481 1.5165 19.371 2.40042 20.4853 3.51472C21.5996 4.62902 22.4835 5.95189 23.0866 7.4078C23.6896 8.86371 24 10.4241 24 12C24 13.5759 23.6896 15.1363 23.0866 16.5922C22.4835 18.0481 21.5996 19.371 20.4853 20.4853C19.371 21.5996 18.0481 22.4835 16.5922 23.0866C15.1363 23.6896 13.5759 24 12 24L12 22.32C13.3552 22.32 14.6972 22.0531 15.9493 21.5344C17.2014 21.0158 18.339 20.2556 19.2973 19.2973C20.2556 18.339 21.0158 17.2014 21.5344 15.9493C22.0531 14.6972 22.32 13.3552 22.32 12C22.32 10.6448 22.0531 9.30279 21.5344 8.05071C21.0158 6.79863 20.2556 5.66096 19.2973 4.70266C18.339 3.74436 17.2014 2.98419 15.9493 2.46556C14.6972 1.94694 13.3552 1.68 12 1.68V0Z" fill="#474747"/>
<path d="M0.0456635 13.0459C-0.0157089 12.3444 -0.0152163 11.6388 0.0471356 10.9374L1.72054 11.0862C1.66691 11.6894 1.66649 12.2962 1.71927 12.8994L0.0456635 13.0459Z" fill="#474747"/>
<path d="M0.723689 7.89576C0.964529 7.23405 1.26315 6.59483 1.61608 5.9855L3.06983 6.82753C2.76631 7.35156 2.5095 7.90129 2.30237 8.47035L0.723689 7.89576Z" fill="#474747"/>
<path d="M3.51472 3.51472C4.01264 3.01679 4.55343 2.56366 5.13082 2.16057L6.0925 3.53809C5.59595 3.88475 5.13087 4.27444 4.70266 4.70266L3.51472 3.51472Z" fill="#474747"/>
<path d="M7.89576 0.723688C8.55746 0.482848 9.23908 0.300719 9.93272 0.179409L10.2221 1.83429C9.62561 1.93862 9.03942 2.09525 8.47035 2.30237L7.89576 0.723688Z" fill="#474747"/>
<path d="M1.6077 18C1.25561 17.3902 0.957886 16.7505 0.71797 16.0885L2.29745 15.5161C2.50378 16.0855 2.75982 16.6355 3.06262 17.16L1.6077 18Z" fill="#474747"/>
<path d="M5.11708 21.8298C4.54026 21.4259 4.00011 20.972 3.50288 20.4734L4.69248 19.2871C5.12009 19.716 5.58462 20.1063 6.08069 20.4536L5.11708 21.8298Z" fill="#474747"/>
<path d="M9.91622 23.8177C9.22275 23.6954 8.54139 23.5123 7.88002 23.2706L8.45682 21.6927C9.02559 21.9006 9.61156 22.0581 10.208 22.1632L9.91622 23.8177Z" fill="#474747"/>
<path d="M16.432 8L10.456 14L8.056 11.6L7 12.656L10.456 16.112L17.512 9.056L16.432 8Z" fill="#474747"/>
<path d="M12 0C13.5759 1.8792e-08 15.1363 0.310389 16.5922 0.913446C18.0481 1.5165 19.371 2.40042 20.4853 3.51472C21.5996 4.62902 22.4835 5.95189 23.0866 7.4078C23.6896 8.86371 24 10.4241 24 12C24 13.5759 23.6896 15.1363 23.0866 16.5922C22.4835 18.0481 21.5996 19.371 20.4853 20.4853C19.371 21.5996 18.0481 22.4835 16.5922 23.0866C15.1363 23.6896 13.5759 24 12 24L12 22.32C13.3552 22.32 14.6972 22.0531 15.9493 21.5344C17.2014 21.0158 18.339 20.2556 19.2973 19.2973C20.2556 18.339 21.0158 17.2014 21.5344 15.9493C22.0531 14.6972 22.32 13.3552 22.32 12C22.32 10.6448 22.0531 9.30279 21.5344 8.05071C21.0158 6.79863 20.2556 5.66096 19.2973 4.70266C18.339 3.74436 17.2014 2.98419 15.9493 2.46556C14.6972 1.94694 13.3552 1.68 12 1.68V0Z" fill="#474747"/>
<path d="M0.0456635 13.0459C-0.0157089 12.3444 -0.0152163 11.6388 0.0471356 10.9374L1.72054 11.0862C1.66691 11.6894 1.66649 12.2962 1.71927 12.8994L0.0456635 13.0459Z" fill="#474747"/>
<path d="M0.723689 7.89576C0.964529 7.23405 1.26315 6.59483 1.61608 5.9855L3.06983 6.82753C2.76631 7.35156 2.5095 7.90129 2.30237 8.47035L0.723689 7.89576Z" fill="#474747"/>
<path d="M3.51472 3.51472C4.01264 3.01679 4.55343 2.56366 5.13082 2.16057L6.0925 3.53809C5.59595 3.88475 5.13087 4.27444 4.70266 4.70266L3.51472 3.51472Z" fill="#474747"/>
<path d="M7.89576 0.723688C8.55746 0.482848 9.23908 0.300719 9.93272 0.179409L10.2221 1.83429C9.62561 1.93862 9.03942 2.09525 8.47035 2.30237L7.89576 0.723688Z" fill="#474747"/>
<path d="M1.6077 18C1.25561 17.3902 0.957886 16.7505 0.71797 16.0885L2.29745 15.5161C2.50378 16.0855 2.75982 16.6355 3.06262 17.16L1.6077 18Z" fill="#474747"/>
<path d="M5.11708 21.8298C4.54026 21.4259 4.00011 20.972 3.50288 20.4734L4.69248 19.2871C5.12009 19.716 5.58462 20.1063 6.08069 20.4536L5.11708 21.8298Z" fill="#474747"/>
<path d="M9.91622 23.8177C9.22275 23.6954 8.54139 23.5123 7.88002 23.2706L8.45682 21.6927C9.02559 21.9006 9.61156 22.0581 10.208 22.1632L9.91622 23.8177Z" fill="#474747"/>
<path d="M16.432 8L10.456 14L8.056 11.6L7 12.656L10.456 16.112L17.512 9.056L16.432 8Z" fill="#474747"/>
</g>
<defs>
<clipPath id="clip0_369517_503">
<rect width="24" height="24" fill="white"/>
</clipPath>
</defs>
</svg>
