<?xml version="1.0" encoding="UTF-8"?>
<svg width="24px" height="24px" viewBox="0 0 24 24" version="1.1" xmlns="http://www.w3.org/2000/svg" xmlns:xlink="http://www.w3.org/1999/xlink">
    <title>Icon/Outline/survey-outline</title>
    <g id="Icon/Outline/survey-outline" stroke="none" stroke-width="1" fill="none" fill-rule="evenodd">
        <g id="Group" transform="translate(-0.000000, -0.000000)" fill="#474747" fill-rule="nonzero">
            <g id="survey" transform="translate(2.250000, 0.000000)">
                <path d="M16.5,1.50000001 L18,1.50000001 C18.8290001,1.50000001 19.5,2.17200001 19.5,3.00000001 L19.5,22.5 C19.5,23.3280001 18.8290001,24 18,24 L1.5,24 C0.672000003,24 0,23.3280001 0,22.5 L0,3.00000001 C0,2.17200001 0.672000003,1.50000001 1.5,1.50000001 L3,1.50000001 L3,3.00000001 L1.5,3.00000001 L1.5,22.5 L18,22.5 L18,3.00000001 L16.5,3.00000001 L16.5,1.50000001 Z M6.00000003,1.5 L6.00000003,0 L13.5,0 L13.5,1.5 L6.00000003,1.5 Z M5.20000002,15.0000001 L14.3000001,15.0000001 C14.6640001,15.0000001 15,15.3360001 15,15.7500001 C15,16.1640001 14.6640001,16.5000001 14.3000001,16.5000001 L5.20000002,16.5000001 C4.83600002,16.5000001 4.50000002,16.1640001 4.50000002,15.7500001 C4.50000002,15.3360001 4.83600002,15.0000001 5.20000002,15.0000001 Z M5.20000002,9.00000004 L14.3000001,9.00000004 C14.6640001,9.00000004 15,9.33600004 15,9.75000004 C15,10.164 14.6640001,10.5 14.3000001,10.5 L5.20000002,10.5 C4.83600002,10.5 4.50000002,10.164 4.50000002,9.75000004 C4.50000002,9.33600004 4.83600002,9.00000004 5.20000002,9.00000004 Z" id="Combined-Shape"></path>
            </g>
        </g>
    </g>
</svg>