<svg width="24" height="24" viewBox="0 0 24 24" fill="none" xmlns="http://www.w3.org/2000/svg">
<g clip-path="url(#clip0_15805_64318)">
<path d="M12 24C5.38333 24 0 18.6167 0 12C0 5.38333 5.38333 0 12 0C18.6167 0 24 5.38333 24 12C24 18.6167 18.6167 24 12 24ZM12 1.51333C6.21667 1.51333 1.51333 6.21667 1.51333 12C1.51333 17.7833 6.21667 22.4867 12 22.4867C17.7833 22.4867 22.4867 17.7833 22.4867 12C22.4867 6.21667 17.7833 1.51333 12 1.51333Z" fill="black"/>
<path d="M12 19.3467C9.48333 19.3467 7.17 18.08 5.81 15.96L7.08333 15.1433C8.16333 16.8267 10.0033 17.8333 12 17.8333C13.9967 17.8333 15.86 16.8167 16.9367 15.11L18.2133 15.9167C16.8567 18.0633 14.5333 19.3433 11.9967 19.3433L12 19.3467Z" fill="black"/>
<path d="M7.73333 10.0433C6.89 10.0433 6.20333 9.35667 6.20333 8.51333C6.20333 7.67 6.89 6.98333 7.73333 6.98333C8.57667 6.98333 9.26333 7.67 9.26333 8.51333C9.26333 9.35667 8.57667 10.0433 7.73333 10.0433ZM7.73333 8.49333V8.53333L7.75333 8.51333C7.75333 8.51333 7.74333 8.49333 7.73333 8.49333Z" fill="black"/>
<path d="M16.2667 10.0433C15.4233 10.0433 14.7367 9.35667 14.7367 8.51333C14.7367 7.67 15.4233 6.98333 16.2667 6.98333C17.11 6.98333 17.7967 7.67 17.7967 8.51333C17.7967 9.35667 17.11 10.0433 16.2667 10.0433ZM16.2667 8.49333V8.53333L16.2867 8.51333C16.2867 8.51333 16.2767 8.49333 16.2667 8.49333Z" fill="black"/>
</g>
<defs>
<clipPath id="clip0_15805_64318">
<rect width="24" height="24" fill="white"/>
</clipPath>
</defs>
</svg>
