<svg width="24" height="24" viewBox="0 0 24 24" fill="none" xmlns="http://www.w3.org/2000/svg">
<g clip-path="url(#clip0_15805_64313)">
<path d="M12 24C5.38333 24 0 18.6167 0 12C0 5.38333 5.38333 0 12 0C18.6167 0 24 5.38333 24 12C24 18.6167 18.6167 24 12 24ZM12 1.51333C6.21667 1.51333 1.51333 6.21667 1.51333 12C1.51333 17.7833 6.21667 22.4867 12 22.4867C17.7833 22.4867 22.4867 17.7833 22.4867 12C22.4867 6.21667 17.7833 1.51333 12 1.51333Z" fill="black"/>
<path d="M12 19.3467C9.6 19.3467 7.74 18.8133 6.47333 17.76L7.44 16.5967C8.41333 17.4067 9.99 17.8333 12 17.8333C13.88 17.8333 15.3967 17.4533 16.38 16.73L17.2733 17.95C16.01 18.8767 14.2367 19.3433 12 19.3433V19.3467Z" fill="black"/>
<path d="M7.73667 10.0433C6.89333 10.0433 6.20667 9.35667 6.20667 8.51333C6.20667 7.67 6.89333 6.98333 7.73667 6.98333C8.58 6.98333 9.26667 7.67 9.26667 8.51333C9.26667 9.35667 8.58 10.0433 7.73667 10.0433ZM7.73667 8.49333V8.53333L7.75667 8.51333C7.75667 8.51333 7.74667 8.49333 7.73667 8.49333Z" fill="black"/>
<path d="M16.2633 10.0433C15.42 10.0433 14.7333 9.35667 14.7333 8.51333C14.7333 7.67 15.42 6.98333 16.2633 6.98333C17.1067 6.98333 17.7933 7.67 17.7933 8.51333C17.7933 9.35667 17.1067 10.0433 16.2633 10.0433ZM16.2633 8.49333V8.53333L16.2833 8.51333C16.2833 8.51333 16.2733 8.49333 16.2633 8.49333Z" fill="black"/>
</g>
<defs>
<clipPath id="clip0_15805_64313">
<rect width="24" height="24" fill="white"/>
</clipPath>
</defs>
</svg>
