<svg width="24" height="24" viewBox="0 0 24 24" fill="none" xmlns="http://www.w3.org/2000/svg">
<g clip-path="url(#clip0_15805_64306)">
<path d="M12 24C5.38333 24 0 18.6167 0 12C0 5.38333 5.38333 0 12 0C18.6167 0 24 5.38333 24 12C24 18.6167 18.6167 24 12 24ZM12 1.51333C6.21667 1.51333 1.51333 6.21667 1.51333 12C1.51333 17.7833 6.21667 22.4867 12 22.4867C17.7833 22.4867 22.4867 17.7833 22.4867 12C22.4867 6.21667 17.7833 1.51333 12 1.51333ZM7.73333 10.0433C6.89 10.0433 6.20333 9.35667 6.20333 8.51333C6.20333 7.67 6.89 6.98333 7.73333 6.98333C8.57667 6.98333 9.26333 7.67 9.26333 8.51333C9.26333 9.35667 8.57667 10.0433 7.73333 10.0433ZM7.73333 8.49333V8.53333L7.75333 8.51333C7.75333 8.51333 7.74333 8.49333 7.73333 8.49333ZM16.2633 10.0433C15.42 10.0433 14.7333 9.35667 14.7333 8.51333C14.7333 7.67 15.42 6.98333 16.2633 6.98333C17.1067 6.98333 17.7933 7.67 17.7933 8.51333C17.7933 9.35667 17.1067 10.0433 16.2633 10.0433ZM16.2633 8.49333V8.53333L16.2833 8.51333C16.2833 8.51333 16.2733 8.49333 16.2633 8.49333ZM12.0767 16.34C13.9433 16.34 15.4467 16.7167 16.4233 17.4333L17.31 16.2233C16.0567 15.3067 14.2967 14.84 12.0767 14.84C9.69667 14.84 7.85 15.37 6.59333 16.4133L7.55333 17.5667C8.52 16.7633 10.0833 16.34 12.0767 16.34Z" fill="black"/>
</g>
<defs>
<clipPath id="clip0_15805_64306">
<rect width="24" height="24" fill="white"/>
</clipPath>
</defs>
</svg>
