<svg width="24" height="24" viewBox="0 0 24 24" fill="none" xmlns="http://www.w3.org/2000/svg">
<g clip-path="url(#clip0_15805_64308)">
<path d="M17.04 15.51H6.96V17.0233H17.04V15.51Z" fill="black"/>
<path d="M12 24C5.38333 24 0 18.6167 0 12C0 5.38333 5.38333 0 12 0C18.6167 0 24 5.38333 24 12C24 18.6167 18.6167 24 12 24ZM12 1.51333C6.21667 1.51333 1.51333 6.21667 1.51333 12.0033C1.51333 17.79 6.21667 22.49 12 22.49C17.7833 22.49 22.4867 17.7867 22.4867 12.0033C22.4867 6.22 17.7833 1.51333 12 1.51333Z" fill="black"/>
<path d="M7.73333 10.0433C6.89 10.0433 6.20333 9.35667 6.20333 8.51333C6.20333 7.67 6.89 6.98333 7.73333 6.98333C8.57667 6.98333 9.26333 7.67 9.26333 8.51333C9.26333 9.35667 8.57667 10.0433 7.73333 10.0433ZM7.73333 8.49333V8.53333L7.75333 8.51333C7.75333 8.51333 7.74333 8.49333 7.73333 8.49333Z" fill="black"/>
<path d="M16.2667 10.0433C15.4233 10.0433 14.7367 9.35667 14.7367 8.51333C14.7367 7.67 15.4233 6.98333 16.2667 6.98333C17.11 6.98333 17.7967 7.67 17.7967 8.51333C17.7967 9.35667 17.11 10.0433 16.2667 10.0433ZM16.2667 8.49333V8.53333L16.2867 8.51333C16.2867 8.51333 16.2767 8.49333 16.2667 8.49333Z" fill="black"/>
</g>
<defs>
<clipPath id="clip0_15805_64308">
<rect width="24" height="24" fill="white"/>
</clipPath>
</defs>
</svg>
