<svg width="24" height="24" viewBox="0 0 24 24" fill="none" xmlns="http://www.w3.org/2000/svg">
<g clip-path="url(#clip0_15805_64301)">
<path d="M12 24C5.38333 24 0 18.6167 0 12C0 5.38333 5.38333 0 12 0C18.6167 0 24 5.38333 24 12C24 18.6167 18.6167 24 12 24ZM12 1.51333C6.21667 1.51333 1.51333 6.21667 1.51333 12C1.51333 17.7833 6.21667 22.4867 12 22.4867C17.7833 22.4867 22.4867 17.7833 22.4867 12C22.4867 6.21667 17.7833 1.51333 12 1.51333Z" fill="black"/>
<path d="M7.08667 18.9933L5.81 18.1867C7.16667 16.04 9.49 14.76 12.0267 14.76C14.5633 14.76 16.8567 16.0267 18.2167 18.1467L16.9433 18.9633C15.8633 17.28 14.0267 16.2733 12.0267 16.2733C10.0267 16.2733 8.16667 17.29 7.09 18.9967L7.08667 18.9933Z" fill="black"/>
<path d="M7.73667 10.0433C6.89333 10.0433 6.20667 9.35667 6.20667 8.51333C6.20667 7.67 6.89333 6.98333 7.73667 6.98333C8.58 6.98333 9.26667 7.67 9.26667 8.51333C9.26667 9.35667 8.58 10.0433 7.73667 10.0433ZM7.73667 8.49333V8.53333L7.75667 8.51333C7.75667 8.51333 7.74667 8.49333 7.73667 8.49333Z" fill="black"/>
<path d="M16.2667 10.0433C15.4233 10.0433 14.7367 9.35667 14.7367 8.51333C14.7367 7.67 15.4233 6.98333 16.2667 6.98333C17.11 6.98333 17.7967 7.67 17.7967 8.51333C17.7967 9.35667 17.11 10.0433 16.2667 10.0433ZM16.2667 8.49333V8.53333L16.2867 8.51333C16.2867 8.51333 16.2767 8.49333 16.2667 8.49333Z" fill="black"/>
</g>
<defs>
<clipPath id="clip0_15805_64301">
<rect width="24" height="24" fill="white"/>
</clipPath>
</defs>
</svg>
