<?xml version="1.0" encoding="UTF-8"?>
<svg width="24px" height="24px" viewBox="0 0 24 24" version="1.1" xmlns="http://www.w3.org/2000/svg" xmlns:xlink="http://www.w3.org/1999/xlink">
    <title>Icon/Outline/survey-checkmark-outline</title>
    <g id="Icon/Outline/survey-checkmark-outline" stroke="none" stroke-width="1" fill="none" fill-rule="evenodd">
        <g id="Group" transform="translate(-0.000000, -0.000000)" fill="#474747" fill-rule="nonzero">
            <g id="survey-checkmark" transform="translate(2.250000, 0.000000)">
                <path d="M14.25,13.5 L15.75,13.5 L15.75,19.5 L3.75000002,19.5 L3.75000002,7.50000003 L9.75000002,7.50000003 L9.75000002,9.00000003 L5.25000002,9.00000003 L5.25000002,18 L14.25,18 L14.25,13.5 Z M15.7971861,7.50000003 L16.8147778,8.55528041 L10.1313649,15 L6.75000003,11.7393982 L7.76759186,10.6841178 L10.1313649,12.9634705 L15.7971861,7.50000003 Z M18,1.50000001 C18.8290001,1.50000001 19.5,2.17200001 19.5,3.00000001 L19.5,22.5 C19.5,23.3280001 18.8290001,24 18,24 L1.5,24 C0.672000003,24 0,23.3280001 0,22.5 L0,3.00000001 C0,2.17200001 0.672000003,1.50000001 1.5,1.50000001 L3.75000002,1.50000001 L3.75000002,3.00000001 L1.5,3.00000001 L1.5,22.5 L18,22.5 L18,3.00000001 L15.7500001,3.00000001 L15.7500001,1.50000001 L18,1.50000001 Z M5.25000002,1.5 L5.25000002,0 L14.25,0 L14.25,1.5 L5.25000002,1.5 Z" id="Combined-Shape"></path>
            </g>
        </g>
    </g>
</svg>