<?xml version="1.0" encoding="UTF-8"?>
<svg width="24px" height="24px" viewBox="0 0 24 24" version="1.1" xmlns="http://www.w3.org/2000/svg" xmlns:xlink="http://www.w3.org/1999/xlink">
    <title>Icon/Outline/table-data-outline</title>
    <g id="Icon/Outline/table-data-outline" stroke="none" stroke-width="1" fill="none" fill-rule="evenodd">
        <g id="Group" transform="translate(-0.000000, -0.000000)" fill="#474747" fill-rule="nonzero">
            <g id="table-data">
                <path d="M24,9 L24,15.7500001 L24,17.2500001 L24,22.5 C24,23.2320001 23.3280001,24 22.5,24 L12.7500001,24 L11.25,24 L1.5,24 C0.672000003,24 0,23.2320001 0,22.5 L0,1.5 C0,0.768000003 0.672000003,0 1.5,0 L11.25,0 L12.7500001,0 L22.5,0 C23.3280001,0 24,0.768000003 24,1.5 L24,6.75000003 L24,9 Z M12.7500001,7.50000001 L22.5000001,7.50000001 L22.5000001,1.50000001 L12.7500001,1.50000001 L12.7500001,7.50000001 Z M1.50000001,7.50000001 L11.25,7.50000001 L11.25,1.50000001 L1.50000001,1.50000001 L1.50000001,7.50000001 Z M1.50000001,15 L11.25,15 L11.25,9.00000004 L1.50000001,9.00000004 L1.50000001,15 Z M1.50000001,22.5000001 L11.25,22.5000001 L11.25,16.5000001 L1.50000001,16.5000001 L1.50000001,22.5000001 Z M12.7500001,22.5000001 L22.5000001,22.5000001 L22.5000001,16.5000001 L12.7500001,16.5000001 L12.7500001,22.5000001 Z M12.7500001,15 L22.5000001,15 L22.5000001,9.00000004 L12.7500001,9.00000004 L12.7500001,15 Z" id="Combined-Shape"></path>
            </g>
        </g>
    </g>
</svg>