<svg width="24" height="24" viewBox="0 0 24 24" fill="none" xmlns="http://www.w3.org/2000/svg">
<path d="M20.75 0H3.25C2.83667 0 2.5 0.333333 2.5 0.746667V23.2533C2.5 23.6667 2.83667 24 3.25 24H20.75C21.1633 24 21.5 23.6667 21.5 23.2533V0.746667C21.5 0.333333 21.1633 0 20.75 0ZM20 22.5067H4V1.49333H20V22.5067ZM18.07 2.48H5.93C5.51667 2.48 5.18 2.81333 5.18 3.22667V18.0667C5.18 18.48 5.51667 18.8133 5.93 18.8133H18.07C18.4833 18.8133 18.82 18.48 18.82 18.0667V3.22667C18.82 2.81333 18.4833 2.48 18.07 2.48ZM17.32 17.32H6.68V3.97333H17.32V17.32ZM13.1433 20.6667C13.1433 21.2967 12.63 21.8067 12 21.8067C11.37 21.8067 10.8567 21.2967 10.8567 20.6667C10.8567 20.0367 11.37 19.5267 12 19.5267C12.63 19.5267 13.1433 20.0367 13.1433 20.6667Z" fill="black"/>
</svg>
