<?xml version="1.0" encoding="UTF-8"?>
<svg width="24px" height="24px" viewBox="0 0 24 24" version="1.1" xmlns="http://www.w3.org/2000/svg" xmlns:xlink="http://www.w3.org/1999/xlink">
    <title>Icon/Outline/tag-outline</title>
    <g id="Icon/Outline/tag-outline" stroke="none" stroke-width="1" fill="none" fill-rule="evenodd">
        <g id="Group" transform="translate(-0.000000, -0.000000)" fill="#474747" fill-rule="nonzero">
            <g id="Tag-outline">
                <path d="M14.012064,0 L24,0 L23.9993752,9.99275613 C23.9993503,10.3907083 23.8412353,10.7723543 23.5598085,11.053749 L11.0516454,23.5604836 C10.4655565,24.1465056 9.51531866,24.1465056 8.92922973,23.5604836 L0.439566695,15.0717901 C-0.146522232,14.4857681 -0.146522232,13.5356387 0.439566695,12.9496167 L12.9508874,0.43972477 C13.2323296,0.158314751 13.6140447,0 14.012064,0 Z M22.4999063,1.50000001 L14.012064,1.50000001 L1.50000001,14.0103375 L9.98982933,22.4999408 L22.4992088,9.99302831 L22.4999063,1.50000001 Z M15.8798416,3.87958443 C17.0514145,2.70801155 18.9509094,2.70801155 20.1224823,3.87958443 C21.2940551,5.05115732 21.2940551,6.95065226 20.1224823,8.12222508 C18.9509094,9.29379798 17.0514145,9.29379798 15.8798416,8.12222508 C14.7082686,6.95065226 14.7082686,5.05115732 15.8798416,3.87958443 Z M19.0618222,4.94024462 C18.4760356,4.35445816 17.5262882,4.35445816 16.9405018,4.94024462 C16.3547153,5.52603106 16.3547153,6.4757785 16.9405018,7.06156497 C17.5262882,7.6473514 18.4760356,7.6473514 19.0618221,7.06156495 C19.6476085,6.47577853 19.6476085,5.52603102 19.0618222,4.94024462 Z" id="Combined-Shape"></path>
            </g>
        </g>
    </g>
</svg>