<?xml version="1.0" encoding="UTF-8"?>
<svg width="24px" height="24px" viewBox="0 0 24 24" version="1.1" xmlns="http://www.w3.org/2000/svg" xmlns:xlink="http://www.w3.org/1999/xlink">
    <title>Icon/Outline/talent-outline</title>
    <g id="Icon/Outline/talent-outline" stroke="none" stroke-width="1" fill="none" fill-rule="evenodd">
        <g id="Group" transform="translate(-0.000000, -0.000000)" fill="#474747" fill-rule="nonzero">
            <g id="talent-outline" transform="translate(0.750000, 0.000000)">
                <path d="M10.1613573,12.4359457 C7.67037926,12.4359457 5.65003134,10.2844936 5.65003134,7.64560331 C5.65003134,5.00671296 7.67037926,2.85526096 10.1613573,2.85526096 C12.6523353,2.85526096 14.6693215,4.99998967 14.6693215,7.64560331 C14.6693215,10.2912169 12.6489736,12.4359457 10.1613573,12.4359457 Z M10.1613573,4.33102257 L10.1613573,4.33438421 C8.44019561,4.33438421 7.03166688,5.8168691 7.03166688,7.64560331 C7.03166688,9.47433747 8.43347239,10.960184 10.154634,10.960184 C11.8757956,10.960184 13.2742393,9.47433747 13.2742393,7.64560331 C13.2742393,5.8168691 11.8825189,4.33438421 10.1613573,4.33102257 Z M17.1401296,18.046529 L21.8397076,23.0150385 L20.797598,24 L15.9971707,18.923918 C14.3201689,20.0365555 12.3520591,20.6294441 10.3395243,20.6282714 C5.35651166,20.640347 1.07749606,17.087998 0.172519128,12.187837 C-0.732457795,7.28767591 1.99544912,2.44126674 6.65406685,0.672696095 C11.3126846,-1.09587456 16.5695365,0.719247052 19.1444257,4.98545224 C21.719315,9.25165744 20.8757613,14.748709 17.1401296,18.046529 Z M10.3395243,1.23831032 L10.3395243,1.22822539 C7.04674998,1.25856723 4.03411533,3.08690899 2.48709241,5.99379799 C0.940069499,8.90068699 1.1063017,12.4207961 2.92037662,15.168962 C5.22449207,14.2999001 7.66857648,13.8612183 10.1311024,13.8747292 C12.7138135,13.8574889 15.2754427,14.3403628 17.674631,15.2967045 C19.5431705,12.5567675 19.7519423,9.01077664 18.2178274,6.07050695 C16.6837125,3.13023723 13.6557706,1.27303389 10.3395243,1.23831032 Z M10.3395243,19.2062961 L10.3395243,19.1962112 C12.6224807,19.1984963 14.8176172,18.3165863 16.4644393,16.735488 C12.4681555,15.3467434 8.12617331,15.3101271 4.10703686,16.631277 C5.76274202,18.2793187 8.00341661,19.2050774 10.3395243,19.2062961 Z" id="Combined-Shape"></path>
            </g>
        </g>
    </g>
</svg>