<?xml version="1.0" encoding="UTF-8"?>
<svg width="24px" height="24px" viewBox="0 0 24 24" version="1.1" xmlns="http://www.w3.org/2000/svg" xmlns:xlink="http://www.w3.org/1999/xlink">
    <title>Icon/Outline/tanker-outline</title>
    <g id="Icon/Outline/tanker-outline" stroke="none" stroke-width="1" fill="none" fill-rule="evenodd">
        <g id="Group" transform="translate(0.000000, 5.000000)" fill="#474747" fill-rule="nonzero">
            <g id="Outline">
                <path d="M20.97,6.42 L20.3033333,7.46333333 L19.6666667,7.46333333 L19.6666667,6.59333333 C19.6648335,5.76566672 18.9943333,5.09516649 18.1666667,5.09333333 L16.4,5.09333333 C15.5723334,5.09516649 14.9018332,5.76566672 14.9,6.59333333 L14.9,7.46666667 L14.0866667,7.46666667 L14.0866667,6.59333333 C14.0866667,5.76490621 13.4150938,5.09333333 12.5866667,5.09333333 L10.8133333,5.09333333 C9.98490621,5.09333333 9.31333333,5.76490621 9.31333333,6.59333333 L9.31333333,7.46666667 L8.84,7.46666667 L6.50666667,2.15666667 L6,2.15666667 L6,0 L2.37666667,0 L2.37666667,2.15666667 L1.42666667,2.15666667 L1.42666667,6.17333333 L0,6.17333333 C0,6.17333333 2.2,12.62 2.33333333,12.9 C2.66666667,13.53 2.87666667,13.5933333 3.6,13.5933333 L20.3966667,13.5933333 C21.3533333,13.5933333 21.6333333,13.3833333 21.9,12.9066667 C21.93,12.8533333 24,6.42 24,6.42 L20.97,6.42 Z M16.4,6.59333333 L18.1766667,6.59333333 L18.1766667,7.46333333 L16.4,7.46333333 L16.4,6.59333333 Z M10.8133333,6.59333333 L12.5866667,6.59333333 L12.5866667,7.46666667 L10.8133333,7.46666667 L10.8133333,6.59333333 Z M2.83666667,6.19333333 L2.83666667,3.59333333 L5.53,3.59333333 L6.66666667,6.19333333 L2.83666667,6.19333333 Z M7.90333333,9.09666667 L21.57,9.09666667 L20.57,12.0966667 L3.58333333,12.0966667 L2.11,7.69333333 L7.28666667,7.69333333 L7.90333333,9.09666667 Z" id="Shape"></path>
            </g>
        </g>
    </g>
</svg>