<?xml version="1.0" encoding="UTF-8"?>
<svg width="24px" height="24px" viewBox="0 0 24 24" version="1.1" xmlns="http://www.w3.org/2000/svg" xmlns:xlink="http://www.w3.org/1999/xlink">
    <title>Icon/Outline/target-outline</title>
    <g id="Icon/Outline/target-outline" stroke="none" stroke-width="1" fill="none" fill-rule="evenodd">
        <g id="Group" transform="translate(-0.000000, -0.000000)" fill="#474747" fill-rule="nonzero">
            <g id="target">
                <path d="M0.970000002,21.9700001 L3.01000001,19.9290001 C1.14200001,17.8140001 0,15.0440001 0,12 C0,5.37300002 5.37300002,0 12,0 C18.6270001,0 24,5.37300002 24,12 C24,15.0440001 22.8580001,17.8140001 20.9900001,19.9300001 L23.0310001,21.9700001 L21.9700001,23.0300001 L19.9300001,20.9900001 C17.8140001,22.8580001 15.0440001,24 12,24 C8.95600001,24 6.18600003,22.8580001 4.07000002,20.9900001 L2.03100001,23.0300001 L0.970000002,21.9700001 Z M1.50000001,12 C1.50000001,17.7900001 6.21000003,22.5 12,22.5 C17.7900001,22.5 22.5,17.7900001 22.5,12 C22.5,6.21000003 17.7900001,1.50000001 12,1.50000001 C6.21000003,1.50000001 1.50000001,6.21000003 1.50000001,12 Z M12,19.5 C7.86468753,19.5 4.50000002,16.1353126 4.50000002,12 C4.50000002,7.86468753 7.86468753,4.50000002 12,4.50000002 C16.1353126,4.50000002 19.5,7.86468753 19.5,12 C19.5,16.1353126 16.1353126,19.5 12,19.5 Z M12,6.00000003 C8.69169236,6.00000003 6.00000003,8.69169236 6.00000003,12 C6.00000003,15.3083077 8.69169236,18 12,18 C15.3083077,18 18,15.3083077 18,12 C18,8.69169236 15.3083077,6.00000003 12,6.00000003 Z M12.0000001,15.75 C9.93187504,15.75 8.25000003,14.0681251 8.25000003,12.0000001 C8.25000003,9.93187504 9.93187504,8.25000003 12.0000001,8.25000003 C14.0681251,8.25000003 15.75,9.93187504 15.75,12.0000001 C15.75,14.0681251 14.0681251,15.75 12.0000001,15.75 Z M12.0000001,9.75000004 C10.7589,9.75000004 9.75000004,10.7598 9.75000004,12.0000001 C9.75000004,13.2411001 10.7589,14.25 12.0000001,14.25 C13.2402001,14.25 14.25,13.2411001 14.25,12.0000001 C14.25,10.7598 13.2402001,9.75000004 12.0000001,9.75000004 Z" id="Combined-Shape"></path>
            </g>
        </g>
    </g>
</svg>