<?xml version="1.0" encoding="UTF-8"?>
<svg width="24px" height="24px" viewBox="0 0 24 24" version="1.1" xmlns="http://www.w3.org/2000/svg" xmlns:xlink="http://www.w3.org/1999/xlink">
    <title>Icon/Outline/telecom-outline</title>
    <g id="Icon/Outline/telecom-outline" stroke="none" stroke-width="1" fill="none" fill-rule="evenodd">
        <g id="Group" transform="translate(3.000000, 0.000000)" fill="#474747" fill-rule="nonzero">
            <g id="Outline">
                <path d="M16.5725139,0.116666667 L16.4558472,0 L15.3658472,1.09333333 L15.4825139,1.21 C17.6729954,3.41904049 17.6729954,6.98095951 15.4825139,9.19 L15.3658472,9.30333333 L16.4558472,10.3966667 L16.5725139,10.28 C19.3679901,7.46890461 19.3679901,2.92776206 16.5725139,0.116666667 L16.5725139,0.116666667 Z" id="Path"></path>
                <path d="M13.0958472,7.03666667 L14.1825139,8.13 L14.2991806,8.01333333 C15.8421802,6.46422944 15.8421802,3.95910389 14.2991806,2.41 L14.1825139,2.29333333 L13.0958472,3.37 L13.2091806,3.48666667 C14.1522704,4.43031736 14.1522704,5.95968264 13.2091806,6.90333333 L13.0958472,7.03666667 Z" id="Path"></path>
                <path d="M3.18251389,9.19 C0.992032403,6.98095951 0.992032403,3.41904049 3.18251389,1.21 L3.29918056,1.09333333 L2.20918056,0 L2.09251389,0.116666667 C-0.69750463,2.9300116 -0.69750463,7.46665507 2.09251389,10.28 L2.20918056,10.3966667 L3.29918056,9.30333333 L3.18251389,9.19 Z" id="Path"></path>
                <path d="M4.36584722,8 L4.48251389,8.11666667 L5.56918056,7.03666667 L5.45584722,6.92 C4.51275739,5.9763493 4.51275739,4.44698403 5.45584722,3.50333333 L5.56918056,3.37 L4.48251389,2.27666667 L4.36584722,2.39333333 C2.82284754,3.94243722 2.82284754,6.44756278 4.36584722,7.99666667 L4.36584722,8 Z" id="Path"></path>
                <path d="M10.3358472,7.23 C11.2777978,6.76523434 11.7753771,5.7127604 11.5367551,4.68985401 C11.298133,3.66694762 10.3862176,2.94327851 9.33584722,2.94327851 C8.28547683,2.94327851 7.37356147,3.66694762 7.13493939,4.68985401 C6.89631732,5.7127604 7.39389667,6.76523434 8.33584722,7.23 L3.50251389,22.4866667 L3.07251389,24 L4.58251389,24 L9.43918056,19.1166667 L14.3091806,24 L15.8458472,24 L15.3625139,22.4666667 L10.3358472,7.23 Z M11.3025139,15.06 L9.43918056,16.93 L7.49584722,14.98 L9.33584722,9.13 L11.3025139,15.06 Z M8.61251389,5.2 C8.61435509,4.80322883 8.93684487,4.48272821 9.33361984,4.48334107 C9.73039481,4.48395568 10.0518915,4.80545242 10.0525062,5.20222739 C10.053119,5.59900236 9.7326184,5.92149214 9.33584722,5.92333333 C9.1440073,5.92333333 8.96002463,5.84712522 8.82437332,5.71147391 C8.68872201,5.57582259 8.61251389,5.39183993 8.61251389,5.2 Z M8.33584722,18.0366667 L5.66918056,20.7033333 L6.96918056,16.6366667 L8.33584722,18.0366667 Z M13.1291806,20.6633333 L10.5291806,18.0366667 L11.8425139,16.7033333 L13.1291806,20.6633333 Z" id="Shape"></path>
            </g>
        </g>
    </g>
</svg>