<svg width="24" height="24" viewBox="0 0 24 24" fill="none" xmlns="http://www.w3.org/2000/svg">
<g clip-path="url(#clip0_15805_64328)">
<path d="M22.32 23.19C22.32 23.6367 21.9567 24 21.51 24H13.7933C13.3467 24 12.9833 23.6367 12.9833 23.19C12.9833 22.7433 13.3467 22.38 13.7933 22.38H16.84V1.62H13.7933C13.3467 1.62 12.9833 1.25667 12.9833 0.81C12.9833 0.363333 13.3467 0 13.7933 0H21.51C21.9567 0 22.32 0.363333 22.32 0.81C22.32 1.25667 21.9567 1.62 21.51 1.62H18.4633V22.3767H21.51C21.9567 22.3767 22.32 22.74 22.32 23.1867V23.19ZM1.5 17.8333V6.16667H15.4667V4.66667H0V17.8333C0 18.6633 0.67 19.3333 1.5 19.3333H15.4667V17.8333H1.5ZM20.1333 4.66667V6.16667H22.5V17.8333H20.1333V19.3333H22.5C23.33 19.3333 24 18.6633 24 17.8333V4.66667H20.1333Z" fill="black"/>
</g>
<defs>
<clipPath id="clip0_15805_64328">
<rect width="24" height="24" fill="white"/>
</clipPath>
</defs>
</svg>
