<?xml version="1.0" encoding="UTF-8"?>
<svg width="24px" height="24px" viewBox="0 0 24 24" version="1.1" xmlns="http://www.w3.org/2000/svg" xmlns:xlink="http://www.w3.org/1999/xlink">
    <title>Icon/Outline/thermometer-outline</title>
    <g id="Icon/Outline/thermometer-outline" stroke="none" stroke-width="1" fill="none" fill-rule="evenodd">
        <g id="Group" transform="translate(6.000000, 0.000000)" fill="#474747" fill-rule="nonzero">
            <g id="Outline">
                <path d="M7.08768578,16.9542836 C8.68725621,18.5769547 8.67478083,21.187212 7.05977317,22.7945194 C5.4447655,24.4018269 2.83447833,24.4018269 1.21947066,22.7945194 C-0.395537004,21.187212 -0.408012375,18.5769547 1.19155805,16.9542836 L1.19155805,2.90223472 C1.19155805,-0.967411575 7.08768578,-0.967411575 7.08768578,2.90223472 L7.08768578,16.9542836 Z M11.6739332,14.6644929 L8.77753133,14.6644929 L8.77753133,13.7112467 L11.6739332,13.7112467 L11.6739332,14.6644929 Z M11.6739332,3.97880299 L8.77753133,3.97880299 L8.77753133,3.03555587 L11.6739332,3.03555587 L11.6739332,3.97880299 Z M11.6739332,7.54181065 L8.77753133,7.54181065 L8.77753133,6.58523142 L11.6739332,6.58523142 L11.6739332,7.54181065 Z M11.6739332,11.1014853 L8.77753133,11.1014853 L8.77753133,10.1549051 L11.6739332,10.1549051 L11.6739332,11.1014853 Z M5.39117419,10.02825 L5.39117419,17.7542105 C6.32604566,18.3190401 6.76995538,19.4376384 6.47678245,20.4898108 C6.18360951,21.5419832 5.22520909,22.2698477 4.13295586,22.2698477 C3.04070262,22.2698477 2.0823022,21.5419832 1.78912927,20.4898108 C1.49595633,19.4376384 1.93986606,18.3190401 2.87473753,17.7542105 L2.87473753,10.02825 L5.39117419,10.02825 Z M6.3110901,17.5308976 C6.19436039,17.4366099 6.1268939,17.294317 6.12777352,17.1442663 L6.12777352,2.90223472 C6.12777352,0.285807209 2.12813911,0.285807209 2.12813911,2.90223472 L2.12813911,17.1442663 L2.12813911,17.1442663 C2.12799007,17.2709817 2.07480804,17.3918499 1.98148584,17.4775691 C0.684520381,18.6650295 0.593223593,20.6781507 1.77738142,21.9781322 C2.96153925,23.2781136 4.97442177,23.3745302 6.27741076,22.1936826 C7.58039975,21.0128349 7.6819356,19.0002041 6.50440576,17.694216 C6.44893374,17.6309658 6.38995761,17.5708769 6.32775524,17.5142325 L6.3110901,17.5308976 Z" id="Shape"></path>
            </g>
        </g>
    </g>
</svg>