<?xml version="1.0" encoding="UTF-8"?>
<svg width="24px" height="24px" viewBox="0 0 24 24" version="1.1" xmlns="http://www.w3.org/2000/svg" xmlns:xlink="http://www.w3.org/1999/xlink">
    <title>Icon/Outline/thumb-down-outline</title>
    <g id="Icon/Outline/thumb-down-outline" stroke="none" stroke-width="1" fill="none" fill-rule="evenodd">
        <g id="Group" transform="translate(-0.000000, -0.000000)" fill="#474747" fill-rule="nonzero">
            <g id="thumb-down">
                <path d="M0,9.00000004 L1.5,9.00000004 L1.5,24 L0,24 L0,9.00000004 Z M15,9 L22.5,9 C23.3284272,9 24,9.67157292 24,10.5 L24,22.5 C24,23.3284272 23.3284272,24 22.5,24 L6.00000003,24 L6.00000003,9 L10.5,4.5 L10.5,2.25000001 C10.5,1.00735932 11.5073594,0 12.7500001,0 C13.9926407,0 15,1.00735932 15,2.25000001 L15,9 Z M7.50000003,22.5 L22.5,22.5 L22.5,10.5 L13.5,10.5 L13.5,2.25000001 C13.5,1.83578645 13.1642136,1.50000001 12.7500001,1.50000001 C12.3357865,1.50000001 12,1.83578645 12,2.25000001 L12,5.12132036 L7.50000003,9.62132037 L7.50000003,22.5 Z" id="icons/ol/thumb-down" transform="translate(12.000000, 12.000000) scale(-1, 1) rotate(-180.000000) translate(-12.000000, -12.000000) "></path>
            </g>
        </g>
    </g>
</svg>