<?xml version="1.0" encoding="UTF-8"?>
<svg width="24px" height="24px" viewBox="0 0 24 24" version="1.1" xmlns="http://www.w3.org/2000/svg" xmlns:xlink="http://www.w3.org/1999/xlink">
    <title>Icon/Outline/ticket-outline</title>
    <g id="Icon/Outline/ticket-outline" stroke="none" stroke-width="1" fill="none" fill-rule="evenodd">
        <g id="Group" transform="translate(-0.000000, -0.000000)" fill="#474747" fill-rule="nonzero">
            <g id="ticket-outline">
                <path d="M24,0 L24,1.5 L21.5533334,1.5 L21.5533334,23.2500001 C21.5533334,23.6642136 21.217547,24 20.8033334,24 L3.19666668,24 C2.78245311,24 2.44666668,23.6642136 2.44666668,23.2500001 L2.44666668,1.5 L0,1.5 L0,0 L24,0 Z M20.0533334,22.5000001 L20.0533334,1.57333334 L3.94666668,1.57333334 L3.94666668,22.5000001 L20.0533334,22.5000001 Z M5.69753427,3.77753426 L13.6241097,3.77753426 L13.6241097,5.25698632 L5.69753427,5.25698632 L5.69753427,3.77753426 Z M15.4290412,3.77753426 L17.8356165,3.77753426 L17.8356165,5.25698632 L15.4290412,5.25698632 L15.4290412,3.77753426 Z M5.69753427,6.7232877 L13.6241097,6.7232877 L13.6241097,8.20273976 L5.69753427,8.20273976 L5.69753427,6.7232877 Z M15.4290412,6.7232877 L17.8356165,6.7232877 L17.8356165,8.20273976 L15.4290412,8.20273976 L15.4290412,6.7232877 Z M5.69753427,9.66575344 L13.6241097,9.66575344 L13.6241097,11.1452055 L5.69753427,11.1452055 L5.69753427,9.66575344 Z M15.4290412,9.66575344 L17.8356165,9.66575344 L17.8356165,11.1452055 L15.4290412,11.1452055 L15.4290412,9.66575344 Z M5.69753427,12.6082192 L13.6241097,12.6082192 L13.6241097,14.0876713 L5.69753427,14.0876713 L5.69753427,12.6082192 Z M15.4290412,12.6082192 L17.8356165,12.6082192 L17.8356165,14.0876713 L15.4290412,14.0876713 L15.4290412,12.6082192 Z M5.69753427,15.550685 L13.6241097,15.550685 L13.6241097,17.030137 L5.69753427,17.030137 L5.69753427,15.550685 Z M15.4290412,15.550685 L17.8356165,15.550685 L17.8356165,17.030137 L15.4290412,17.030137 L15.4290412,15.550685 Z" id="Combined-Shape"></path>
            </g>
        </g>
    </g>
</svg>