<?xml version="1.0" encoding="UTF-8"?>
<svg width="24px" height="24px" viewBox="0 0 24 24" version="1.1" xmlns="http://www.w3.org/2000/svg" xmlns:xlink="http://www.w3.org/1999/xlink">
    <title>Icon/Outline/time-outline</title>
    <g id="Icon/Outline/time-outline" stroke="none" stroke-width="1" fill="none" fill-rule="evenodd">
        <g id="Group" transform="translate(-0.000000, -0.000000)" fill="#474747" fill-rule="nonzero">
            <g id="time">
                <path d="M12,0 C18.6270001,0 24,5.37300002 24,12 C24,18.6270001 18.6270001,24 12,24 C5.37200002,24 0,18.6270001 0,12 C0,5.37300002 5.37200002,0 12,0 Z M12,22.5 C17.7900001,22.5 22.5,17.7900001 22.5,12 C22.5,6.21000003 17.7900001,1.50000001 12,1.50000001 C6.21000003,1.50000001 1.50000001,6.21000003 1.50000001,12 C1.50000001,17.7900001 6.21000003,22.5 12,22.5 Z M12.7505001,11.2501 L19.4405001,11.2501 L19.4405001,12.7501 L11.2505001,12.7501 L11.2505001,4.56010002 L12.7505001,4.56010002 L12.7505001,11.2501 Z" id="Combined-Shape"></path>
            </g>
        </g>
    </g>
</svg>