<svg width="24" height="24" viewBox="0 0 24 24" fill="none" xmlns="http://www.w3.org/2000/svg">
<g clip-path="url(#clip0_15805_64330)">
<path d="M12 0C5.37333 0 0 5.37333 0 12C0 18.6267 5.37333 24 12 24C18.6267 24 24 18.6267 24 12C24 5.37333 18.6267 0 12 0ZM12 22.5C6.21 22.5 1.5 17.79 1.5 12C1.5 6.21 6.21 1.5 12 1.5C17.79 1.5 22.5 6.21 22.5 12C22.5 17.79 17.79 22.5 12 22.5ZM20.4467 12C20.4467 16.6033 16.7167 20.3333 12.1133 20.3333C9.81333 20.3333 7.73 19.4 6.22 17.8933L12.1133 12V3.66667C16.7167 3.66667 20.4467 7.39667 20.4467 12Z" fill="black"/>
</g>
<defs>
<clipPath id="clip0_15805_64330">
<rect width="24" height="24" fill="white"/>
</clipPath>
</defs>
</svg>
