<?xml version="1.0" encoding="UTF-8"?>
<svg width="24px" height="24px" viewBox="0 0 24 24" version="1.1" xmlns="http://www.w3.org/2000/svg" xmlns:xlink="http://www.w3.org/1999/xlink">
    <title>Icon/Outline/toggle-outline</title>
    <g id="Icon/Outline/toggle-outline" stroke="none" stroke-width="1" fill="none" fill-rule="evenodd">
        <g id="Group" transform="translate(-0.000000, -0.000000)" fill="#474747" fill-rule="nonzero">
            <g id="toggle" transform="translate(0.000000, 3.000000)">
                <path d="M19.4998376,9.00092501 C17.2758561,9.00092501 15.4358714,7.37493858 15.0758744,5.25095627 L0,5.25095627 L0,3.75096876 L15.0758744,3.75096876 C15.4348714,1.62698645 17.2748561,0 19.4998376,0 C21.9808169,0 23.9998001,2.01898319 23.9998001,4.49996252 C23.9998001,6.98194188 21.9808169,9.00092501 19.4998376,9.00092501 Z M19.4998376,1.4999875 C17.8458514,1.4999875 16.4998626,2.84597629 16.4998626,4.49996252 C16.4998626,6.15394878 17.8458514,7.50093753 19.4998376,7.50093753 C21.1538238,7.50093753 22.4998126,6.15394878 22.4998126,4.49996252 C22.4998126,2.84597629 21.1538238,1.4999875 19.4998376,1.4999875 Z M4.51297482,9.00000004 C6.75141034,9.00000004 8.60072711,10.638 8.95273916,12.7730001 L24,12.7730001 L24,14.2730001 L8.94772474,14.2730001 C8.57766079,16.3860001 6.73636708,18 4.51297482,18 C2.02482137,18 0,15.982 0,13.5 C0,11.0180001 2.02482137,9.00000004 4.51297482,9.00000004 Z M4.49997502,16.49995 C6.15396124,16.49995 7.49995003,15.1539613 7.49995003,13.4999751 C7.49995003,11.8459888 6.15396124,10.5 4.49997502,10.5 C2.84598879,10.5 1.50000001,11.8459888 1.50000001,13.4999751 C1.50000001,15.1539613 2.84598879,16.49995 4.49997502,16.49995 Z" id="Combined-Shape"></path>
            </g>
        </g>
    </g>
</svg>