<?xml version="1.0" encoding="UTF-8"?>
<svg width="24px" height="24px" viewBox="0 0 24 24" version="1.1" xmlns="http://www.w3.org/2000/svg" xmlns:xlink="http://www.w3.org/1999/xlink">
    <title>Icon/Outline/touchscreen-outline</title>
    <g id="Icon/Outline/touchscreen-outline" stroke="none" stroke-width="1" fill="none" fill-rule="evenodd">
        <g id="Group" transform="translate(4.000000, 0.000000)" fill="#474747" fill-rule="nonzero">
            <g id="Outline">
                <path d="M16.3973914,15.2743201 C16.1874953,14.201518 14.8081782,14.1182259 14.3750593,14.1182259 L14.2451237,14.1182259 C14.1518365,13.6751119 13.3089205,13.1187207 12.4726679,13.1187207 C12.2240144,13.1156548 11.9779224,13.1692026 11.7530242,13.2753099 C11.3557106,12.7518605 10.7439532,12.4349701 10.0871823,12.4124038 C9.83034873,12.4211186 9.5759049,12.4648336 9.33089006,12.5423394 L9.27091976,8.42770993 C9.24426629,7.94461578 9.17763261,6.70522941 8.23809778,6.68190762 C7.82328771,6.6617172 7.4075092,6.67732283 6.99537972,6.72855119 C5.92924091,7.02840273 6.04918152,8.50767034 6.04918152,8.50767034 C6.04918152,8.50767034 6.11914688,14.3681021 5.96922111,14.3681021 L5.80596861,14.3681021 C4.86643377,14.3681021 4.66320106,14.8278745 4.54326045,16.1805381 L4.54326045,17.5132116 C4.5155135,18.5479123 4.85416783,19.5591554 5.4994537,20.3684647 C6.0450645,21.081885 6.35691746,21.9464624 6.39234495,22.8439057 C6.39576425,23.4180343 6.85454022,23.8856612 7.42849862,23.9000495 L14.441693,24 C14.6989106,24 14.9478441,23.9090418 15.1446783,23.7434603 C15.3639619,23.5593565 15.4937621,23.2900514 15.5011685,23.0038265 C15.537817,21.9376877 16.4606934,17.9529939 16.5006736,17.4632364 C16.6006241,15.8673598 16.5473172,16.0439391 16.3973914,15.2743201 Z M15.4645199,17.3799443 C15.4645199,17.5465285 15.2879407,18.3428009 15.158005,18.9824842 C14.8575417,20.2930518 14.6350391,21.6202797 14.4916683,22.957183 L14.4916683,22.957183 L14.4616831,22.957183 L7.48513724,22.8572325 C7.46887486,22.8555849 7.45362983,22.8485487 7.44182535,22.8372424 L7.44182535,22.8372424 C7.40714554,21.7072361 7.01653838,20.617034 6.32571128,19.722118 C5.83099814,19.1027893 5.57030348,18.3289627 5.58940916,17.5365334 L5.58940916,16.2038599 C5.60465819,15.923884 5.64705849,15.6460505 5.71601314,15.3742706 L5.99920627,15.3742706 C6.27563256,15.3740642 6.54059243,15.2637642 6.73550839,15.0677557 C7.09533024,14.7046022 7.18195401,14.6179784 7.10865697,8.4743535 C7.10865697,8.44770003 7.05868171,7.76470485 7.1852857,7.62477413 C7.31188968,7.48484341 8.0282017,7.41154637 8.18479084,7.64476424 C8.2797793,7.91150021 8.30948285,8.19711131 8.27141462,8.47768519 L8.30806314,12.5723246 C8.31353013,13.1356932 8.77082943,13.5900231 9.33422175,13.5918198 C9.38191869,13.5951251 9.42978721,13.5951251 9.47748415,13.5918198 C9.55878256,13.5791395 9.63898111,13.5602037 9.71736538,13.5351812 C9.83763538,13.4941211 9.96346607,13.4716513 10.090514,13.4685475 C10.2037912,13.4685475 10.5469546,13.4685475 10.9934003,13.9816268 C11.1918076,14.1977468 11.4729978,14.3189495 11.7663509,14.3147952 C11.9211564,14.3154058 12.0739878,14.2800493 12.2127965,14.211513 C12.2990944,14.1747095 12.3921913,14.1565442 12.4859946,14.1582061 C12.780113,14.1653394 13.0636043,14.2695986 13.2922621,14.4547259 C13.4369508,14.8699812 13.828705,15.1480866 14.2684455,15.1477161 L14.3917178,15.1477161 C14.8481584,15.1477161 15.3645694,15.2743201 15.3912229,15.4808845 C15.4145447,15.6008251 15.4378665,15.7007757 15.4545249,15.7873994 C15.5311536,16.150553 15.537817,16.1805381 15.4645199,17.3799443 Z" id="Shape"></path>
                <path d="M4.60656244,13.4985327 C4.45663667,13.4185723 4.3067109,13.3319485 4.16011681,13.2353296 C1.12191503,11.2618757 0.258644348,7.19919404 2.23190301,4.16086543 C4.20516167,1.12253682 8.26778787,0.259005044 11.3062433,2.23206843 C14.3446987,4.20513182 15.2084916,8.26770251 13.2356235,11.3062847 C13.135673,11.4595422 13.0290591,11.6028046 12.9024551,11.746067 L13.6987275,12.598978 C13.8739998,12.3859559 14.0374962,12.1635118 14.188485,11.9326413 C15.8935787,9.31449637 15.8523314,5.92670719 14.0839992,3.35085226 C12.3156671,0.77499732 9.16900104,-0.480912569 6.11301205,0.169440087 C3.05702306,0.819792744 0.694414105,3.24814522 0.128161583,6.32082896 C-0.438090939,9.3935127 0.903689452,12.5045322 3.52709689,14.201518 C3.7512977,14.3481058 3.98379366,14.4815963 4.2234188,14.60132 L4.60656244,13.4985327 Z" id="Path"></path>
                <path d="M5.4361517,11.0564084 C3.62044387,9.81035679 3.14061516,7.33783994 4.35844656,5.50308482 C5.57627797,3.6683297 8.04108102,3.15033256 9.89444486,4.3396526 C11.7478087,5.52897265 12.3038504,7.98547274 11.143326,9.85700228 L11.9529252,10.7265717 C11.9929054,10.6699331 12.0328856,10.6166262 12.0695341,10.5599876 C13.2140964,8.79933802 13.1850593,6.52251081 11.9959684,4.79162308 C10.8068775,3.06073536 8.69202326,2.2168296 6.63796409,2.65357941 C4.58390492,3.09032923 2.99535881,4.72168037 2.61336665,6.78662382 C2.23137449,8.85156727 3.13120145,10.9432405 4.89308725,12.0858987 C4.9430625,12.1192156 4.99636944,12.1492007 5.04967638,12.1791859 L5.4361517,11.0564084 Z" id="Path"></path>
            </g>
        </g>
    </g>
</svg>