<?xml version="1.0" encoding="UTF-8"?>
<svg width="24px" height="24px" viewBox="0 0 24 24" version="1.1" xmlns="http://www.w3.org/2000/svg" xmlns:xlink="http://www.w3.org/1999/xlink">
    <title>Icon/Outline/train-railway-outline</title>
    <g id="Icon/Outline/train-railway-outline" stroke="none" stroke-width="1" fill="none" fill-rule="evenodd">
        <g id="Group" transform="translate(3.000000, 0.000000)" fill="#474747" fill-rule="nonzero">
            <g id="Outline">
                <path d="M4.91333333,10.89 C4.02621281,10.89 3.22644389,11.4243885 2.88695756,12.243981 C2.54747123,13.0635735 2.73512352,14.0069653 3.36241246,14.6342542 C3.9897014,15.2615431 4.93309317,15.4491954 5.75268566,15.1097091 C6.57227816,14.7702228 7.10666667,13.9704539 7.10666667,13.0833333 C7.10483106,11.8727499 6.12391673,10.8918356 4.91333333,10.89 Z M4.91333333,13.9466667 C4.4365275,13.9466667 4.05,13.5601392 4.05,13.0833333 C4.05,12.6065275 4.4365275,12.22 4.91333333,12.22 C5.39013917,12.22 5.77666667,12.6065275 5.77666667,13.0833333 C5.77666667,13.3123036 5.68570859,13.5318958 5.52380219,13.6938022 C5.36189578,13.8557086 5.14230357,13.9466667 4.91333333,13.9466667 Z" id="Shape"></path>
                <path d="M12.6,10.89 C11.3890911,10.8918403 10.4087747,11.8746425 10.41,13.0855522 C10.4112275,14.2964619 11.3935326,15.2772764 12.6044428,15.2766641 C13.8153529,15.2760514 14.7966667,14.2942437 14.7966667,13.0833333 C14.7948277,11.8714498 13.8118849,10.89 12.6,10.89 L12.6,10.89 Z M12.6,13.9466667 C12.1231942,13.9466667 11.7366667,13.5601392 11.7366667,13.0833333 C11.7366667,12.6065275 12.1231942,12.22 12.6,12.22 C13.0768058,12.22 13.4633333,12.6065275 13.4633333,13.0833333 C13.4633333,13.3123036 13.3723753,13.5318958 13.2104689,13.6938022 C13.0485624,13.8557086 12.8289702,13.9466667 12.6,13.9466667 Z" id="Shape"></path>
                <path d="M13.35,17.7133333 L16.3833333,17.7133333 C16.7515232,17.7133333 17.05,17.4148565 17.05,17.0466667 L17.05,0.666666667 C17.05,0.298476833 16.7515232,0 16.3833333,0 L1.32333333,0 C0.9551435,0 0.656666667,0.298476833 0.656666667,0.666666667 L0.656666667,17.0466667 C0.656666667,17.4148565 0.9551435,17.7133333 1.32333333,17.7133333 L4.40333333,17.7133333 L0,24 L17.7533333,24 L13.35,17.7133333 Z M9.34666667,1.33333333 L15.7166667,1.33333333 L15.7166667,8.18333333 L9.34666667,8.18333333 L9.34666667,1.33333333 Z M1.98666667,1.33333333 L8.01666667,1.33333333 L8.01666667,8.18333333 L1.98666667,8.18333333 L1.98666667,1.33333333 Z M1.98666667,16.3866667 L1.98666667,9.51333333 L15.7166667,9.51333333 L15.7166667,16.3833333 L1.98666667,16.3866667 Z M12.29,18.52 L5.46333333,18.52 L6.03,17.7166667 L11.7533333,17.7166667 L11.7333333,17.7166667 L12.29,18.52 Z M4.54333333,19.85 L13.21,19.85 L13.7366667,20.6 L4.00666667,20.6 L4.54333333,19.85 Z M2.54333333,22.6666667 L3.06,21.9266667 L14.68,21.9266667 L15.21,22.6666667 L2.54333333,22.6666667 Z" id="Shape"></path>
            </g>
        </g>
    </g>
</svg>