<?xml version="1.0" encoding="UTF-8"?>
<svg width="24px" height="24px" viewBox="0 0 24 24" version="1.1" xmlns="http://www.w3.org/2000/svg" xmlns:xlink="http://www.w3.org/1999/xlink">
    <title>Icon/Outline/transform-outline</title>
    <g id="Icon/Outline/transform-outline" stroke="none" stroke-width="1" fill="none" fill-rule="evenodd">
        <g id="Group" transform="translate(-0.000000, 3.000000)" fill="#474747" fill-rule="nonzero">
            <g id="Transform-outline">
                <path d="M18.252812,13.6782772 L19.4493803,14.3215577 C17.2991366,17.6428177 13.2190617,19.1522135 9.42498994,18.0300125 C5.63091821,16.9078114 3.02835971,13.4218429 3.03072934,9.46529006 L3.03072934,8.84867404 L1.15754991,10.7218535 C0.893395421,10.9869284 0.464370221,10.9876745 0.199295321,10.72352 C-0.0657795785,10.4593655 -0.0665257093,10.0303403 0.197628791,9.76526539 L3.71067347,6.25222075 L7.25038263,9.80192907 C7.38073983,9.92757424 7.45438316,10.100838 7.45438316,10.2818896 C7.45438316,10.4629413 7.38073983,10.6362051 7.25038263,10.7618502 C7.1235039,10.8895068 6.95039623,10.9604329 6.77042206,10.9585007 C6.5904479,10.9604329 6.41734023,10.8895068 6.2904615,10.7618502 L4.38728454,8.84867404 L4.38728454,9.46529006 C4.38713592,12.7997157 6.5680365,15.7418625 9.75843987,16.7112543 C12.9488432,17.6806461 16.3978928,16.4491379 18.252812,13.6782772 Z M5.7471728,4.71901337 L4.55060445,4.07573291 C6.70084814,0.754472951 10.780923,-0.75492289 14.5749948,0.367278182 C18.3690665,1.48947926 20.971625,4.97544775 20.9692554,8.93200054 L20.9692554,9.54861657 L22.8424348,7.67543711 C23.0133128,7.50396371 23.2626905,7.43667813 23.4966299,7.49892611 C23.7305692,7.56117408 23.9135291,7.74349878 23.9765904,7.97722016 C24.0396518,8.21094153 23.9732339,8.46055181 23.802356,8.63202521 L20.2893113,12.1450699 L16.7496021,8.59536154 C16.6192449,8.46971636 16.5456016,8.29645263 16.5456016,8.11540098 C16.5456016,7.93434933 16.6192449,7.76108561 16.7496021,7.63544043 C16.8764809,7.50778376 17.0495885,7.43685768 17.2295626,7.43878991 C17.4095368,7.43685768 17.5826445,7.50778376 17.7095233,7.63544043 L19.6127002,9.54861657 L19.6127002,8.93200054 C19.6128488,5.597575 17.4319483,2.65542813 14.2415449,1.68603634 C11.0511415,0.716644556 7.60209191,1.94815268 5.7471728,4.71901337 Z" id="Combined-Shape"></path>
            </g>
        </g>
    </g>
</svg>