<?xml version="1.0" encoding="UTF-8"?>
<svg width="24px" height="24px" viewBox="0 0 24 24" version="1.1" xmlns="http://www.w3.org/2000/svg" xmlns:xlink="http://www.w3.org/1999/xlink">
    <title>Icon/Outline/truck-connected-outline</title>
    <g id="Icon/Outline/truck-connected-outline" stroke="none" stroke-width="1" fill="none" fill-rule="evenodd">
        <g id="Group" transform="translate(0.000000, 2.000000)" fill="#474747" fill-rule="nonzero">
            <g id="Outline">
                <path d="M20.0833333,4.58 L14.75,4.58 L14.75,0 L0,0 L0,17.4966667 L4.19666667,17.4966667 C4.5435999,18.8032312 5.72153179,19.7163673 7.07333333,19.7266667 C8.43010073,19.7223684 9.61510143,18.8079907 9.96333333,17.4966667 L15.6966667,17.4966667 C16.1029723,19.053168 17.671286,20.0062543 19.24,19.65 C20.3227575,19.3994551 21.1782903,18.5708581 21.4633333,17.4966667 L24,17.4966667 L24,8.31333333 L20.0833333,4.58 Z M5.66666667,16.35 C5.79829156,15.8561787 6.17695056,15.4661599 6.66666667,15.32 C7.45706822,15.1023402 8.27482273,15.5640959 8.49666667,16.3533333 C8.71651163,17.1384803 8.25840578,17.9532223 7.47333333,18.1733333 L7.38666667,18.1966667 L7.38666667,18.1966667 C6.88283486,18.294981 6.36392964,18.1264166 6.01405893,17.7507803 C5.66418822,17.3751439 5.53285889,16.8455882 5.66666667,16.35 Z M13.2433333,1.49333333 L13.2433333,15.9866667 L9.96333333,15.9866667 C9.62079634,14.674794 8.43585448,13.7595205 7.08,13.7595205 C5.72414552,13.7595205 4.53920366,14.674794 4.19666667,15.9866667 L1.5,15.9866667 L1.5,1.49333333 L13.2433333,1.49333333 Z M17.1533333,16.35 C17.2892535,15.8504099 17.6779696,15.4591613 18.1766667,15.32 C18.5570408,15.2155991 18.9632714,15.2659285 19.3066667,15.46 C19.6478536,15.6547597 19.8973676,15.9774485 20,16.3566667 C20.2213945,17.1340054 19.7752057,17.9445818 19,18.1733333 L18.9,18.1966667 L18.9,18.1966667 C18.390625,18.3070789 17.8606289,18.1426785 17.5031587,17.763378 C17.1456885,17.3840776 17.0129561,16.8452775 17.1533333,16.3433333 L17.1533333,16.35 Z M14.74,6.08 L19.4766667,6.08 L22.5066667,8.95666667 L22.5066667,16.0033333 L21.4666667,16.0033333 C21.1152361,14.7038115 19.9362022,13.8012722 18.59,13.8012722 C17.2437978,13.8012722 16.0647639,14.7038115 15.7133333,16.0033333 L14.74,16.0033333 L14.74,6.08 Z" id="Shape"></path>
                <path d="M21.1366667,11.5833333 L16.0966667,11.5833333 L16.0966667,7.43666667 L18.9433333,7.43666667 L21.1233333,9.53 L21.1366667,11.5833333 Z M17.4166667,10.25 L19.8066667,10.25 L19.8066667,10.07 L18.4133333,8.73666667 L17.4133333,8.73666667 L17.4166667,10.25 Z" id="Shape"></path>
                <path d="M9.75333333,5.41333333 C7.95022054,3.62288081 5.38851401,2.82203663 2.88666667,3.26666667 L2.81666667,3.26666667 L2.81666667,4.73666667 L2.91,4.73666667 C5.00059001,4.33649312 7.15409156,4.99239457 8.66666667,6.49 C10.1329629,8.01655891 10.7559676,10.165925 10.3333333,12.24 L10.3333333,12.3333333 L11.8033333,12.3666667 L11.8033333,12.2966667 C12.2827198,9.80524032 11.5177022,7.23652264 9.75333333,5.41333333 Z" id="Path"></path>
                <path d="M2.90333333,5.66333333 L2.83666667,5.66333333 L2.83666667,7.09333333 L2.93666667,7.07333333 C4.37039143,6.72176126 5.88339765,7.14932141 6.92106322,8.19928321 C7.95872879,9.24924502 8.36843652,10.7671828 8,12.1966667 L7.97666667,12.2966667 L9.40666667,12.3266667 L9.40666667,12.26 C9.79609732,10.4360872 9.25252535,8.5379588 7.95666667,7.19666667 C6.63535108,5.87144964 4.73827438,5.2958195 2.90333333,5.66333333 Z" id="Path"></path>
                <path d="M2.91666667,7.97 L2.85333333,7.97 L2.85333333,9.42 L2.96,9.38333333 C3.73903768,9.10557432 4.60845261,9.30467305 5.18897624,9.89377584 C5.76949987,10.4828786 5.95582361,11.3551206 5.66666667,12.13 L5.63,12.2366667 L7.07666667,12.27 L7.09333333,12.2066667 C7.40564674,11.0184922 7.08021142,9.75333089 6.23333333,8.86333333 C5.3553358,8.01435541 4.10229204,7.67685217 2.91666667,7.97 Z" id="Path"></path>
            </g>
        </g>
    </g>
</svg>