<?xml version="1.0" encoding="UTF-8"?>
<svg width="24px" height="24px" viewBox="0 0 24 24" version="1.1" xmlns="http://www.w3.org/2000/svg" xmlns:xlink="http://www.w3.org/1999/xlink">
    <title>Icon/Outline/typography-fonts-outline</title>
    <g id="Icon/Outline/typography-fonts-outline" stroke="none" stroke-width="1" fill="none" fill-rule="evenodd">
        <g id="Group" transform="translate(0.000000, 4.000000)" fill="#474747" fill-rule="nonzero">
            <g id="Outline">
                <path d="M6.69387755,1.42940441 L3.72178259,9.03956685 L9.56601416,9.03956685 L6.69387755,1.42940441 Z M21.4943773,8.99625156 L21.454394,8.99625156 C21.3458094,9.16735219 21.1728456,9.287466 20.9745939,9.32944606 C20.7705045,9.39252336 20.5623233,9.44150717 20.3515202,9.47605165 C19.7984173,9.57267805 19.2253228,9.65930862 18.6355685,9.73594336 C18.0893022,9.7996155 17.5496781,9.91110809 17.0229071,10.0691379 C16.5813959,10.2014794 16.174239,10.4289413 15.8300708,10.7355269 C15.5046742,11.0523296 15.3331931,11.4950184 15.3602666,11.9483549 C15.3542171,12.2556107 15.4228189,12.5597454 15.5601833,12.8346522 C15.6890043,13.0908929 15.8693655,13.3177624 16.0899625,13.5010412 C16.3167118,13.6882513 16.5783092,13.8286758 16.8596418,13.9142024 C17.147387,14.0111269 17.4489723,14.060641 17.7526031,14.0608458 C18.2395232,14.0628119 18.7234922,13.9851517 19.1853394,13.8309038 C19.6242039,13.6900548 20.0307718,13.4635546 20.3815077,13.1645148 C20.7224868,12.8696806 20.9992129,12.5078952 21.1945023,12.1016243 C21.3693301,11.729376 21.468971,11.3262831 21.4877135,10.9154519 L21.4877135,10.6922116 L21.4943773,8.99625156 Z M7.54685548,-8.8817842e-16 L13.3710954,14.8604748 L11.8517284,14.8604748 L10.0424823,10.2490629 L3.28529779,10.2490629 L1.49604332,14.8604748 L0,14.8604748 L5.96751354,0.0133277801 L7.54685548,-8.8817842e-16 Z M18.8554769,3.81837976 C19.3296465,3.81928509 19.8026695,3.86502552 20.2682216,3.95501874 C20.7212513,4.03820847 21.1529502,4.21156788 21.5376926,4.46480633 C21.9255848,4.73214683 22.2396249,5.0931784 22.4506456,5.51436901 C22.6788348,5.9896775 22.7983438,6.50982615 22.8004998,7.03706789 L22.8004998,12.96793 C22.7672957,13.1822239 22.8368081,13.3996566 22.9881667,13.5549466 C23.1395253,13.7102365 23.3551044,13.7853003 23.5701791,13.757601 C23.6830818,13.7609892 23.7957421,13.7452167 23.9033736,13.7109538 L24,13.6743024 L24,14.7771762 C23.8467305,14.8071637 23.7134527,14.8271554 23.5935027,14.8404831 C23.4451526,14.8552962 23.2961024,14.8619701 23.1470221,14.8604748 C22.8741257,14.871702 22.6018592,14.8263242 22.3473553,14.727197 C22.1575199,14.6451107 21.9946851,14.5111474 21.877551,14.3406914 C21.7609781,14.1618483 21.6858444,13.9592151 21.6576426,13.7476052 C21.6298782,13.56441 21.6131881,13.3797071 21.6076635,13.1945023 L21.6076635,12.9912536 L21.5576843,12.9912536 C21.3387646,13.313824 21.0994893,13.6220996 20.8413161,13.9142024 C20.6048024,14.1753551 20.3308155,14.3999346 20.0283215,14.5805914 C19.7111775,14.7695761 19.3675025,14.9099662 19.0087464,14.9970845 C18.563352,15.1016541 18.1067612,15.1508943 17.6493128,15.1436901 C17.1746729,15.1470142 16.7017415,15.0864969 16.243232,14.9637651 C15.8279875,14.8573504 15.4390072,14.6668294 15.1003748,14.4039983 C14.7710014,14.1464744 14.506305,13.8156039 14.3273636,13.4377343 C14.1311647,12.9955281 14.0355711,12.515284 14.0474802,12.0316535 C14.0110353,11.4066996 14.1871901,10.7878089 14.547272,10.2757185 C14.8982058,9.84137438 15.3581176,9.50793833 15.88005,9.30945439 C16.4750389,9.07524839 17.0976584,8.91847369 17.7326114,8.84298209 C18.3990004,8.75301958 19.1153686,8.666389 19.8217409,8.58309038 C20.0982924,8.55310287 20.3415244,8.51978342 20.548105,8.47646814 C20.7327319,8.4396779 20.9068652,8.36228531 21.0578925,8.24989588 C21.2060627,8.14107714 21.3213538,7.99350455 21.391087,7.82340691 C21.4748877,7.59767827 21.5133831,7.35764792 21.5043732,7.11703457 C21.5179539,6.74087237 21.4438061,6.366711 21.2877968,6.0241566 C21.1484958,5.75311538 20.9405521,5.52334337 20.6847147,5.3577676 C20.410708,5.18896632 20.1061549,5.07574957 19.7884215,5.02457309 C19.4257652,4.95670308 19.0578193,4.92102347 18.6888796,4.91795085 C17.9656723,4.89111301 17.2533892,5.10047046 16.6597251,5.51436901 C16.134352,5.93768605 15.8282425,6.57561843 15.8267389,7.25031237 L15.8267389,7.43356935 L14.5072886,7.43356935 C14.5342582,6.87227355 14.6688674,6.32139389 14.9037901,5.81091212 C15.1132107,5.37140365 15.4224129,4.98689751 15.8067472,4.68804665 C16.2050457,4.38920002 16.6577308,4.17077947 17.1395252,4.04498126 C17.6987655,3.89287291 18.2759222,3.8166658 18.8554769,3.81837976 Z" id="Shape"></path>
            </g>
        </g>
    </g>
</svg>