<?xml version="1.0" encoding="UTF-8"?>
<svg width="24px" height="24px" viewBox="0 0 24 24" version="1.1" xmlns="http://www.w3.org/2000/svg" xmlns:xlink="http://www.w3.org/1999/xlink">
    <title>Icon/Outline/umbrella-outline</title>
    <g id="Icon/Outline/umbrella-outline" stroke="none" stroke-width="1" fill="none" fill-rule="evenodd">
        <g id="Group" fill="#474747" fill-rule="nonzero">
            <g id="Outline">
                <path d="M23.9389669,12.5397211 L23.9389669,12.5397211 C23.9453287,12.4810076 23.9453287,12.4217785 23.9389669,12.363065 C23.8456519,11.7208656 23.7030165,11.0868065 23.5123258,10.4665123 C22.7723703,8.08665528 20.2458554,2.53698872 12.7363066,2.15701154 L12.7363066,0.687099858 C12.7102483,0.300373713 12.3889538,0 12.0013507,0 C11.6137477,0 11.2924532,0.300373713 11.2663949,0.687099858 L11.2663949,2.15034528 C1.8036301,2.58365258 0.127064163,12.0197523 0.0604015012,12.4230614 C-0.0162605595,12.8897 -0.132920217,13.5963243 0.523706999,13.8063116 C0.856979446,13.915044 1.22091781,13.7761362 1.39698786,13.4729983 C1.77696503,13.139685 4.45680403,12.313068 7.3966274,13.2263465 C7.69660938,13.4030025 8.01325702,13.3230073 8.48989505,13.2030146 C9.39784978,12.9620561 10.3283081,12.8157295 11.2663949,12.7663741 L11.2663949,20.1159326 C11.2663949,20.9958797 11.0530744,21.4491858 10.8730852,21.6991708 C10.7481402,21.8942494 10.5376642,22.0180587 10.3064526,22.0324841 C10.1520816,22.0321877 10.0049423,21.9670261 9.90097475,21.8529154 C9.79700723,21.7388047 9.74578471,21.5862522 9.75981875,21.4325201 C9.77830745,21.1581324 9.64240921,20.8962948 9.40738701,20.7534836 C9.17236482,20.6106724 8.87736099,20.6106724 8.6423388,20.7534836 C8.40731661,20.8962948 8.27141836,21.1581324 8.28990706,21.4325201 C8.27736642,21.9759937 8.48405928,22.5016497 8.86340656,22.8910293 C9.24275384,23.2804089 9.76283679,23.5007493 10.3064526,23.5023958 C10.9945583,23.4919431 11.637725,23.1586322 12.0430149,22.6024498 C12.5388434,21.8750307 12.7823892,21.005057 12.7363066,20.125932 L12.7363066,12.7930392 C13.6646457,12.871815 14.583918,13.0346958 15.4828082,13.2796766 C15.6742565,13.3535671 15.8775622,13.3919692 16.0827722,13.3930031 C16.1864286,13.4178411 16.2956032,13.403601 16.3894204,13.3530055 C19.3725745,12.4230614 22.2590678,13.3063417 22.615713,13.6029905 C22.7926495,13.9051074 23.1557556,14.0436975 23.4889939,13.9363038 C24.1322886,13.7229833 24.0156289,13.0063597 23.9389669,12.5397211 Z M19.735886,6.72340386 C21.0158841,8.15902265 21.9094348,9.89680103 22.3323967,11.7731005 C21.4248537,11.4429122 20.4648907,11.2802832 19.4992336,11.2931293 C18.4459006,11.2960718 17.3985037,11.4509922 16.3894204,11.7531017 C16.1327493,8.89197155 15.1993482,6.13289746 13.6662507,3.70358529 C16.1461017,4.0168998 18.1926454,5.02350599 19.735886,6.72340386 Z M14.8961768,11.6064438 C12.7846023,11.1369661 10.592957,11.1632065 8.49322818,11.6831059 C8.60988784,9.81321822 9.17652046,7.43002807 12.0496812,3.93023834 C13.6020876,6.22279317 14.5785393,8.85601114 14.8961768,11.6064438 Z M10.3631158,3.69358589 C7.67327744,7.20670815 7.13997615,9.75322182 7.02998276,11.6097769 C5.27814738,11.2059662 3.4533123,11.2449144 1.72030177,11.7231035 C2.25302661,9.74951794 3.26519067,7.93815648 4.66679141,6.45008695 C6.19167427,4.90296708 8.20365702,3.92935108 10.3631158,3.69358589 Z" id="Shape"></path>
            </g>
        </g>
    </g>
</svg>