<svg width="24" height="24" viewBox="0 0 24 24" fill="none" xmlns="http://www.w3.org/2000/svg">
<g clip-path="url(#clip0_15805_64336)">
<path d="M20.4015 8.30668C20.2582 8.16334 20.0682 8.08668 19.8682 8.08668C19.6682 8.08668 19.4749 8.16668 19.3349 8.30668C19.1949 8.44668 19.1149 8.64001 19.1149 8.84001C19.1149 9.04001 19.1949 9.23001 19.3349 9.37334L21.2049 11.2433H18.7249C18.3815 8.03334 15.8915 5.47668 12.7582 5.11668V2.79668L14.6282 4.66668C14.7715 4.81001 14.9615 4.88668 15.1615 4.88668C15.3615 4.88668 15.5549 4.80668 15.6949 4.66668C15.9882 4.37334 15.9882 3.89334 15.6949 3.59668L12.0015 -0.0933228L8.3082 3.60001C8.01487 3.89334 8.01487 4.37334 8.3082 4.67001C8.60154 4.96334 9.08154 4.96334 9.3782 4.67001L11.2482 2.80001V5.11668C8.11487 5.47668 5.62487 8.03334 5.28154 11.2433H2.80154L4.67154 9.37334C4.81487 9.23001 4.89154 9.04001 4.89154 8.84001C4.89154 8.64001 4.81154 8.44668 4.67154 8.30668C4.53154 8.16668 4.3382 8.08668 4.1382 8.08668C3.9382 8.08668 3.74487 8.16668 3.60487 8.30668L-0.0451302 11.9533L-0.0917969 12L3.60154 15.6933C3.74487 15.8367 3.93487 15.9133 4.13487 15.9133C4.33487 15.9133 4.5282 15.8333 4.67154 15.6933C4.81487 15.55 4.89154 15.36 4.89154 15.16C4.89154 14.96 4.81154 14.77 4.67154 14.6267L2.80154 12.7567H5.28154C5.62487 15.9667 8.11487 18.5267 11.2482 18.8833V21.2L9.3782 19.33C9.08487 19.0367 8.60487 19.0367 8.3082 19.33C8.01487 19.6233 8.01487 20.1033 8.3082 20.4L12.0015 24.0933L15.6949 20.4C15.9882 20.1067 15.9882 19.6267 15.6949 19.33C15.4015 19.0367 14.9215 19.0367 14.6249 19.33L12.7549 21.2V18.88C15.8882 18.52 18.3782 15.9633 18.7215 12.7533H21.2015L19.3315 14.6233C19.1882 14.7667 19.1115 14.9567 19.1115 15.1567C19.1115 15.3567 19.1915 15.55 19.3315 15.69C19.4749 15.8333 19.6649 15.91 19.8649 15.91C20.0649 15.91 20.2582 15.83 20.3982 15.69L24.0915 11.9967L20.3982 8.30334L20.4015 8.30668ZM17.2082 12.7567C16.8849 15.1367 15.0615 17.0233 12.7582 17.3667C12.5115 17.4033 12.2582 17.43 12.0015 17.43C11.7449 17.43 11.4949 17.4033 11.2449 17.3667C8.94154 17.0233 7.1182 15.1367 6.79487 12.7567C6.76154 12.51 6.7382 12.26 6.7382 12C6.7382 11.74 6.76154 11.49 6.79487 11.2433C7.1182 8.86334 8.94154 6.97668 11.2449 6.63334C11.4915 6.59668 11.7449 6.57001 12.0015 6.57001C12.2582 6.57001 12.5082 6.59668 12.7582 6.63334C15.0615 6.97668 16.8849 8.86334 17.2082 11.2433C17.2415 11.49 17.2649 11.7433 17.2649 12C17.2649 12.2567 17.2415 12.5067 17.2082 12.7567ZM14.0915 10.5933C14.0915 10.9733 14.0049 11.3133 13.8282 11.5933C13.6882 11.82 13.5115 12.04 13.3049 12.2433C13.1715 12.38 13.0549 12.4967 12.9682 12.5833C12.9215 12.63 12.9049 12.6567 12.9015 12.6633C12.9015 12.6633 12.8949 12.6867 12.8882 12.7333C12.8782 12.83 12.8682 12.9733 12.8649 13.1633V13.3767H11.6082L11.6149 13.1367C11.6215 12.9 11.6315 12.7133 11.6449 12.5833C11.6682 12.3933 11.7182 12.2233 11.7915 12.0767C11.8682 11.9267 11.9715 11.7933 12.1049 11.6667C12.1849 11.59 12.2915 11.48 12.4282 11.34C12.5749 11.1967 12.6849 11.0633 12.7682 10.9267C12.8149 10.85 12.8415 10.7367 12.8415 10.5967C12.8415 10.4867 12.8249 10.39 12.7915 10.32C12.7549 10.24 12.7082 10.18 12.6482 10.1233C12.5815 10.0667 12.5049 10.02 12.4149 9.99001C12.1949 9.91334 11.8782 9.92001 11.6682 10.01C11.5549 10.0567 11.4682 10.1167 11.3949 10.1933C11.3249 10.2667 11.2715 10.36 11.2315 10.48C11.1882 10.6167 11.1649 10.7733 11.1649 10.95V11.2H9.91487V10.95C9.91487 10.6333 9.96154 10.34 10.0515 10.07C10.1482 9.77668 10.2982 9.52334 10.4949 9.31668C10.6882 9.11001 10.9249 8.94668 11.1982 8.83334C11.6849 8.63001 12.3249 8.61001 12.8282 8.79001C13.0715 8.87334 13.2882 9.00001 13.4749 9.16668C13.6682 9.33668 13.8215 9.54334 13.9315 9.78334C14.0415 10.0267 14.0982 10.3 14.0982 10.6L14.0915 10.5933ZM12.8615 15.66H11.6049V14.26H12.8615V15.66Z" fill="black"/>
</g>
<defs>
<clipPath id="clip0_15805_64336">
<rect width="24" height="24" fill="white"/>
</clipPath>
</defs>
</svg>
