<?xml version="1.0" encoding="UTF-8"?>
<svg width="16px" height="18px" viewBox="0 0 16 18" version="1.1" xmlns="http://www.w3.org/2000/svg" xmlns:xlink="http://www.w3.org/1999/xlink">
    <title>Unpin</title>
    <g id="Feedback-module" stroke="none" stroke-width="1" fill="none" fill-rule="evenodd">
        <g id="Unpin" transform="translate(0.421260, 0.179688)" fill="#474747" fill-rule="nonzero">
            <path d="M1.7890625,10.765625 C1.7890625,11.0885417 1.890625,11.3489583 2.09375,11.546875 C2.296875,11.7447917 2.56770833,11.84375 2.90625,11.84375 L6.8828125,11.84375 L6.8828125,15.3125 C6.8828125,15.5885417 6.90885417,15.8502604 6.9609375,16.0976562 C7.01302083,16.3450521 7.078125,16.5664062 7.15625,16.7617188 C7.234375,16.9570312 7.31119792,17.1119792 7.38671875,17.2265625 C7.46223958,17.3411458 7.52604167,17.3984375 7.578125,17.3984375 C7.625,17.3984375 7.6875,17.3411458 7.765625,17.2265625 C7.84375,17.1119792 7.92057292,16.9570312 7.99609375,16.7617188 C8.07161458,16.5664062 8.13671875,16.3450521 8.19140625,16.0976562 C8.24609375,15.8502604 8.2734375,15.5885417 8.2734375,15.3125 L8.2734375,11.9375 L8.6484375,11.9375 L7.3671875,10.65625 L3.21875,10.65625 C3.0625,10.65625 2.99739583,10.5625 3.0234375,10.375 C3.0546875,10.1041667 3.1484375,9.83463542 3.3046875,9.56640625 C3.4609375,9.29817708 3.671875,9.04296875 3.9375,8.80078125 C4.203125,8.55859375 4.515625,8.34635417 4.875,8.1640625 L4.046875,7.34375 C3.58333333,7.61458333 3.18229167,7.93229167 2.84375,8.296875 C2.50520833,8.66145833 2.24479167,9.0546875 2.0625,9.4765625 C1.88020833,9.8984375 1.7890625,10.328125 1.7890625,10.765625 Z M2.71875,0.8125 C2.71875,1.0625 2.81770833,1.30989583 3.015625,1.5546875 C3.140625,1.72135417 3.31510417,1.90625 3.5390625,2.109375 C3.76302083,2.3125 4.01953125,2.52213542 4.30859375,2.73828125 C4.59765625,2.95442708 4.90104167,3.1640625 5.21875,3.3671875 L5.15625,4.140625 L6.3203125,5.3046875 L6.46875,2.796875 C6.47395833,2.69791667 6.44270833,2.63020833 6.375,2.59375 C6.02604167,2.41666667 5.70833333,2.23567708 5.421875,2.05078125 C5.13541667,1.86588542 4.90364583,1.70182292 4.7265625,1.55859375 C4.54947917,1.41536458 4.4453125,1.31770833 4.4140625,1.265625 C4.38802083,1.21875 4.38411458,1.18098958 4.40234375,1.15234375 C4.42057292,1.12369792 4.45052083,1.109375 4.4921875,1.109375 L10.65625,1.109375 C10.6979167,1.109375 10.7291667,1.12369792 10.75,1.15234375 C10.7708333,1.18098958 10.765625,1.21875 10.734375,1.265625 C10.703125,1.31770833 10.6002604,1.41536458 10.4257813,1.55859375 C10.2513021,1.70182292 10.0208333,1.86588542 9.734375,2.05078125 C9.44791667,2.23567708 9.13020833,2.41666667 8.78125,2.59375 C8.70833333,2.63020833 8.67708333,2.69791667 8.6875,2.796875 L8.90625,6.484375 C8.484375,6.40625 8.04166667,6.3671875 7.578125,6.3671875 L7.3828125,6.3671875 L8.625,7.609375 C9.11979167,7.66145833 9.57552083,7.79166667 9.9921875,8 C10.4088542,8.20833333 10.7695313,8.45963542 11.0742188,8.75390625 C11.3789063,9.04817708 11.6171875,9.35677083 11.7890625,9.6796875 C11.9609375,10.0026042 12.046875,10.3046875 12.046875,10.5859375 C12.046875,10.6015625 12.046875,10.6184896 12.046875,10.6367188 C12.046875,10.6549479 12.0442708,10.6744792 12.0390625,10.6953125 L12.9140625,11.671875 C13.0390625,11.59375 13.1458333,11.4778646 13.234375,11.3242188 C13.3229167,11.1705729 13.3671875,10.984375 13.3671875,10.765625 C13.3671875,10.2395833 13.2356771,9.72526042 12.9726563,9.22265625 C12.7096354,8.72005208 12.3385417,8.26302083 11.859375,7.8515625 C11.3802083,7.44010417 10.8203125,7.109375 10.1796875,6.859375 L9.9375,3.3671875 C10.2552083,3.1640625 10.5585938,2.95442708 10.8476563,2.73828125 C11.1367188,2.52213542 11.3932292,2.3125 11.6171875,2.109375 C11.8411458,1.90625 12.015625,1.72135417 12.140625,1.5546875 C12.3333333,1.30989583 12.4296875,1.0625 12.4296875,0.8125 C12.4296875,0.583333333 12.3476563,0.390625 12.1835938,0.234375 C12.0195313,0.078125 11.8020833,0 11.53125,0 L3.6171875,0 C3.34635417,0 3.12890625,0.078125 2.96484375,0.234375 C2.80078125,0.390625 2.71875,0.583333333 2.71875,0.8125 Z M0.1640625,2.1171875 L13.609375,15.5546875 C13.7239583,15.6640625 13.8632813,15.71875 14.0273438,15.71875 C14.1914063,15.71875 14.3255208,15.6640625 14.4296875,15.5546875 C14.5390625,15.4348958 14.5950521,15.2955729 14.5977431,15.1367188 C14.6002604,14.9778646 14.5442708,14.84375 14.4296875,14.734375 L0.9921875,1.3046875 C0.877604167,1.19010417 0.739583333,1.13151042 0.578125,1.12881944 C0.416666667,1.12630208 0.278645833,1.18229167 0.1640625,1.296875 C0.0546875,1.41145833 2.27373675e-13,1.54947917 2.27373675e-13,1.7109375 C2.27373675e-13,1.87239583 0.0546875,2.0078125 0.1640625,2.1171875 Z" id="Shape"></path>
        </g>
    </g>
</svg>