<?xml version="1.0" encoding="UTF-8"?>
<svg width="24px" height="24px" viewBox="0 0 24 24" version="1.1" xmlns="http://www.w3.org/2000/svg" xmlns:xlink="http://www.w3.org/1999/xlink">
    <title>Icon/Outline/up-chevron-circle-outline</title>
    <g id="Icon/Outline/up-chevron-circle-outline" stroke="none" stroke-width="1" fill="none" fill-rule="evenodd">
        <g id="Group" transform="translate(-0.000000, -0.000000)" fill="#474747" fill-rule="nonzero">
            <g id="up-chevron-circle">
                <path d="M23.8130001,9.95300007 C23.9280001,10.6190001 24,11.301 24,12 C24,12.6990001 23.9280001,13.381 23.8130001,14.047 C23.7200001,14.587 23.6000001,15.118 23.4380001,15.6300001 C22.1890001,19.5670001 18.9630001,22.6120001 14.9280001,23.6250001 C13.9890001,23.8610001 13.012,24 12,24 C10.9880001,24 10.011,23.8610001 9.07200004,23.6250001 C4.51300002,22.4800001 0.997000002,18.7360001 0.188000001,14.0520001 C0.0730000003,13.384 0,12.7010001 0,12 C0,11.299 0.0730000003,10.6160001 0.188000001,9.94800004 C0.996000004,5.26500002 4.51200002,1.52100001 9.07100006,0.375000002 C10.009,0.139 10.9850001,0.001 11.9960001,0 L12,0 L12.004,0 C13.015,0.001 13.9910001,0.139 14.929,0.375000002 C18.9640001,1.38900001 22.1900001,4.43400002 23.4380001,8.37000003 C23.6000001,8.88200006 23.7200001,9.41300006 23.8130001,9.95300007 Z M12,22.5 C17.7900001,22.5 22.5,17.7900001 22.5,12 C22.5,6.21000003 17.7900001,1.50000001 12,1.50000001 C6.21000003,1.50000001 1.50000001,6.21000003 1.50000001,12 C1.50000001,17.7900001 6.21000003,22.5 12,22.5 Z M12.0002001,12.7734001 L15.6672001,9.10540001 L16.7272,10.1664 L12.0002001,14.8944001 L7.27320003,10.1664 L8.33320001,9.10540001 L12.0002001,12.7734001 Z" id="Combined-Shape" transform="translate(12.000000, 12.000000) rotate(-180.000000) translate(-12.000000, -12.000000) "></path>
            </g>
        </g>
    </g>
</svg>