<svg width="24" height="24" viewBox="0 0 24 24" fill="none" xmlns="http://www.w3.org/2000/svg">
<path d="M16.0293 9.62831C15.8793 9.77831 15.7893 9.98164 15.7893 10.2116C15.7893 10.665 16.156 11.0316 16.6093 11.035H23.9993V3.63498C23.9993 3.18164 23.6326 2.81498 23.1793 2.81164C22.726 2.81164 22.356 3.18164 22.356 3.63498V8.22498L18.4693 4.33498C14.2526 0.108311 7.38264 0.108311 3.16598 4.33498C-1.05402 8.56164 -1.05402 15.4383 3.16598 19.665C7.38598 23.8916 14.2526 23.8916 18.4726 19.665L17.3093 18.5016C13.7293 22.085 7.90598 22.085 4.32598 18.5016C0.745976 14.9183 0.745976 9.08498 4.32598 5.50164C7.90598 1.91831 13.7293 1.91831 17.3093 5.50164L21.196 9.39164H16.6126C16.386 9.39164 16.1793 9.48164 16.0326 9.63164L16.0293 9.62831Z" fill="black"/>
<path d="M9.07264 7.56498L9.03264 13.4583L14.1726 16.395L14.916 15.0916L10.5393 12.5883L10.5726 7.57498L9.07264 7.56498Z" fill="black"/>
</svg>
