<svg width="24" height="24" viewBox="0 0 24 24" fill="none" xmlns="http://www.w3.org/2000/svg">
<g clip-path="url(#clip0_15805_64341)">
<path d="M11.9985 0C5.37187 0 -0.00146484 5.37333 -0.00146484 12C-0.00146484 15.26 1.29854 18.22 3.41187 20.3833L3.90854 20.93C3.90854 20.93 3.93187 20.9067 3.9452 20.8967C6.0752 22.8267 8.89854 24 11.9985 24C15.0985 24 17.9219 22.8267 20.0519 20.8967C20.0619 20.9067 20.5252 20.4433 20.5252 20.4433C22.6719 18.2733 24.0019 15.29 24.0019 11.9967C23.9985 5.37333 18.6252 0 11.9985 0ZM22.4985 12C22.4985 14.4067 21.6819 16.6267 20.3152 18.4L5.59854 3.68333C7.37187 2.31667 9.59187 1.5 11.9985 1.5C17.7885 1.5 22.4985 6.21 22.4985 12ZM1.49854 12C1.49854 9.15667 2.6352 6.57667 4.4752 4.68333L17.5519 17.76C15.8852 17.1467 13.9752 16.8033 11.9985 16.8033C9.0052 16.8033 6.16187 17.5733 4.0952 18.9033C2.47854 17.0567 1.49854 14.64 1.49854 11.9967V12ZM11.9985 22.5C9.4052 22.5 7.0252 21.5533 5.19187 19.99C6.98854 18.92 9.42187 18.3067 11.9985 18.3067C14.5752 18.3067 17.0052 18.92 18.8052 19.99C16.9719 21.5533 14.5919 22.5 11.9985 22.5ZM11.3819 8.17333L10.2252 7.01667C10.7585 6.74667 11.3619 6.59333 12.0019 6.59333C14.1885 6.59333 15.9619 8.36667 15.9619 10.5533C15.9619 11.1933 15.8085 11.7933 15.5385 12.33L14.3819 11.1733C14.4319 10.9767 14.4619 10.77 14.4619 10.5567C14.4619 9.2 13.3585 8.09667 12.0019 8.09667C11.7885 8.09667 11.5819 8.12667 11.3852 8.18L11.3819 8.17333ZM11.4419 12.9467L12.9019 14.4067C12.6119 14.4733 12.3119 14.5133 12.0019 14.5133C9.8152 14.5133 8.04187 12.74 8.04187 10.5533C8.04187 10.2433 8.08187 9.94333 8.14854 9.65333L9.60854 11.1133C9.82187 12.0233 10.5352 12.7367 11.4452 12.95L11.4419 12.9467Z" fill="black"/>
</g>
<defs>
<clipPath id="clip0_15805_64341">
<rect width="24" height="24" fill="white"/>
</clipPath>
</defs>
</svg>
