<?xml version="1.0" encoding="UTF-8"?>
<svg width="24px" height="24px" viewBox="0 0 24 24" version="1.1" xmlns="http://www.w3.org/2000/svg" xmlns:xlink="http://www.w3.org/1999/xlink">
    <title>Icon/Outline/venn-abc-outline</title>
    <g id="Icon/Outline/venn-abc-outline" stroke="none" stroke-width="1" fill="none" fill-rule="evenodd">
        <g id="Group" transform="translate(-0.000000, -0.000000)" fill="#474747" fill-rule="nonzero">
            <g id="venn-abc">
                <path d="M12.0000001,16.5 C7.44365084,16.5 3.75000002,12.8063492 3.75000002,8.25000003 C3.75000002,3.69365083 7.44365084,0 12.0000001,0 C16.5563492,0 20.25,3.69365083 20.25,8.25000003 C20.25,12.8063492 16.5563492,16.5 12.0000001,16.5 Z M12.0000001,15 C15.7279221,15 18.75,11.9779221 18.75,8.25000003 C18.75,4.52207796 15.7279221,1.50000001 12.0000001,1.50000001 C8.27207801,1.50000001 5.25000002,4.52207796 5.25000002,8.25000003 C5.25000002,11.9779221 8.27207801,15 12.0000001,15 Z M8.25000003,24 C3.69365083,24 0,20.3063492 0,15.7500001 C0,11.1936509 3.69365083,7.50000003 8.25000003,7.50000003 C12.8063492,7.50000003 16.5,11.1936509 16.5,15.7500001 C16.5,20.3063492 12.8063492,24 8.25000003,24 Z M8.25000003,22.5 C11.9779221,22.5 15,19.4779221 15,15.7500001 C15,12.022078 11.9779221,9.00000004 8.25000003,9.00000004 C4.52207796,9.00000004 1.50000001,12.022078 1.50000001,15.7500001 C1.50000001,19.4779221 4.52207796,22.5 8.25000003,22.5 Z M15.7500001,24 C11.1936509,24 7.50000003,20.3063492 7.50000003,15.7500001 C7.50000003,11.1936509 11.1936509,7.50000003 15.7500001,7.50000003 C20.3063492,7.50000003 24,11.1936509 24,15.7500001 C24,20.3063492 20.3063492,24 15.7500001,24 Z M15.7500001,22.5 C19.4779221,22.5 22.5,19.4779221 22.5,15.7500001 C22.5,12.022078 19.4779221,9.00000004 15.7500001,9.00000004 C12.022078,9.00000004 9.00000004,12.022078 9.00000004,15.7500001 C9.00000004,19.4779221 12.022078,22.5 15.7500001,22.5 Z" id="Combined-Shape"></path>
            </g>
        </g>
    </g>
</svg>