<?xml version="1.0" encoding="UTF-8"?>
<svg width="24px" height="24px" viewBox="0 0 24 24" version="1.1" xmlns="http://www.w3.org/2000/svg" xmlns:xlink="http://www.w3.org/1999/xlink">
    <title>Icon/Outline/venn-ab-horizontal-outline</title>
    <g id="Icon/Outline/venn-ab-horizontal-outline" stroke="none" stroke-width="1" fill="none" fill-rule="evenodd">
        <g id="Group" transform="translate(-0.000000, -0.000000)" fill="#474747" fill-rule="nonzero">
            <g id="venn-ab-horizontal" transform="translate(0.000000, 3.750000)">
                <path d="M15.7500001,16.5 C11.1936509,16.5 7.50000003,12.8063492 7.50000003,8.25000003 C7.50000003,3.69365083 11.1936509,0 15.7500001,0 C20.3063492,0 24,3.69365083 24,8.25000003 C24,12.8063492 20.3063492,16.5 15.7500001,16.5 Z M15.7500001,15 C19.4779221,15 22.5,11.9779221 22.5,8.25000003 C22.5,4.52207799 19.4779221,1.50000001 15.7500001,1.50000001 C12.022078,1.50000001 9.00000004,4.52207799 9.00000004,8.25000003 C9.00000004,11.9779221 12.022078,15 15.7500001,15 Z M8.25000003,16.5 C3.69365083,16.5 0,12.8063492 0,8.25000003 C0,3.69365083 3.69365083,0 8.25000003,0 C12.8063492,0 16.5,3.69365083 16.5,8.25000003 C16.5,12.8063492 12.8063492,16.5 8.25000003,16.5 Z M8.25000003,15 C11.9779221,15 15,11.9779221 15,8.25000003 C15,4.52207799 11.9779221,1.50000001 8.25000003,1.50000001 C4.52207796,1.50000001 1.50000001,4.52207799 1.50000001,8.25000003 C1.50000001,11.9779221 4.52207796,15 8.25000003,15 Z" id="Combined-Shape"></path>
            </g>
        </g>
    </g>
</svg>