<?xml version="1.0" encoding="UTF-8"?>
<svg width="24px" height="24px" viewBox="0 0 24 24" version="1.1" xmlns="http://www.w3.org/2000/svg" xmlns:xlink="http://www.w3.org/1999/xlink">
    <title>Icon/Outline/venn-ab-vertical-outline</title>
    <g id="Icon/Outline/venn-ab-vertical-outline" stroke="none" stroke-width="1" fill="none" fill-rule="evenodd">
        <g id="Group" transform="translate(-0.000000, -0.000000)" fill="#474747" fill-rule="nonzero">
            <g id="venn-ab-vertical" transform="translate(3.750000, 0.000000)">
                <path d="M8.25000003,16.5 C3.69365083,16.5 0,12.8063492 0,8.25000003 C0,3.69365083 3.69365083,0 8.25000003,0 C12.8063492,0 16.5,3.69365083 16.5,8.25000003 C16.5,12.8063492 12.8063492,16.5 8.25000003,16.5 Z M8.25000003,15 C11.9779221,15 15,11.9779221 15,8.25000003 C15,4.52207796 11.9779221,1.50000001 8.25000003,1.50000001 C4.52207799,1.50000001 1.50000001,4.52207796 1.50000001,8.25000003 C1.50000001,11.9779221 4.52207799,15 8.25000003,15 Z M8.25000003,24 C3.69365083,24 0,20.3063492 0,15.7500001 C0,11.1936509 3.69365083,7.50000003 8.25000003,7.50000003 C12.8063492,7.50000003 16.5,11.1936509 16.5,15.7500001 C16.5,20.3063492 12.8063492,24 8.25000003,24 Z M8.25000003,22.5 C11.9779221,22.5 15,19.4779221 15,15.7500001 C15,12.022078 11.9779221,9.00000004 8.25000003,9.00000004 C4.52207799,9.00000004 1.50000001,12.022078 1.50000001,15.7500001 C1.50000001,19.4779221 4.52207799,22.5 8.25000003,22.5 Z" id="Combined-Shape"></path>
            </g>
        </g>
    </g>
</svg>