<?xml version="1.0" encoding="UTF-8"?>
<svg width="24px" height="24px" viewBox="0 0 24 24" version="1.1" xmlns="http://www.w3.org/2000/svg" xmlns:xlink="http://www.w3.org/1999/xlink">
    <title>Icon/Outline/vertical-more-outline</title>
    <g id="Icon/Outline/vertical-more-outline" stroke="none" stroke-width="1" fill="none" fill-rule="evenodd">
        <g id="Group" transform="translate(10.000000, 0.000000)" fill="#474747" fill-rule="nonzero">
            <g id="vertical-more">
                <path d="M3.42857143,22.2857143 C3.42857143,21.3386667 2.66133326,20.5714286 1.71428571,20.5714286 C0.767238171,20.5714286 0,21.3386667 0,22.2857143 C0,23.2327618 0.767238171,24 1.71428571,24 C2.66133326,24 3.42857143,23.2327618 3.42857143,22.2857143 L3.42857143,22.2857143 Z M3.42857143,1.71428571 C3.42857143,0.767238103 2.66133326,0 1.71428571,0 C0.767238171,0 0,0.767238103 0,1.71428571 C0,2.66133333 0.767238171,3.42857143 1.71428571,3.42857143 C2.66133326,3.42857143 3.42857143,2.66133333 3.42857143,1.71428571 L3.42857143,1.71428571 Z M3.42857143,12 C3.42857143,11.0529525 2.66133326,10.2857143 1.71428571,10.2857143 C0.767238171,10.2857143 0,11.0529525 0,12 C0,12.9470475 0.767238171,13.7142857 1.71428571,13.7142857 C2.66133326,13.7142857 3.42857143,12.9470475 3.42857143,12 L3.42857143,12 Z" id="Combined-Shape"></path>
            </g>
        </g>
    </g>
</svg>