<?xml version="1.0" encoding="UTF-8"?>
<svg width="24px" height="24px" viewBox="0 0 24 24" version="1.1" xmlns="http://www.w3.org/2000/svg" xmlns:xlink="http://www.w3.org/1999/xlink">
    <title>Icon/Outline/video-conference-outline</title>
    <g id="Icon/Outline/video-conference-outline" stroke="none" stroke-width="1" fill="none" fill-rule="evenodd">
        <g id="Group" transform="translate(0.000000, 4.000000)" fill="#474747" fill-rule="nonzero">
            <g id="Outline">
                <path d="M23.6,0 L13.1833333,0 C12.9624194,0 12.7833333,0.1790861 12.7833333,0.4 L12.7833333,8.24333333 C12.7833333,8.46479289 12.9618813,8.64483642 13.1833333,8.64666666 L23.6,8.64666666 C23.821452,8.64483642 24,8.46479289 24,8.24333333 L24,0.4 C24,0.1790861 23.8209139,0 23.6,0 Z M23.1966667,0.803333333 L23.1966667,7.84333333 L13.5866667,7.84333333 L13.5866667,0.803333333 L23.1966667,0.803333333 Z" id="Shape"></path>
                <path d="M22.3333333,1.32666667 L14.4666667,1.32666667 C14.2452071,1.32666667 14.0651636,1.50521466 14.0633333,1.72666667 L14.0633333,7.09333333 C14.0633333,7.31608818 14.2439118,7.49666666 14.4666667,7.49666666 L22.3333333,7.49666666 C22.44,7.49666666 22.54225,7.45407036 22.6173611,7.37833333 C22.6924722,7.30259629 22.7342222,7.19999629 22.7333472,7.09333333 L22.7333472,1.72666667 C22.7333472,1.50575277 22.5542472,1.32666667 22.3333333,1.32666667 Z M19.5666667,6.69333333 L17.1366667,6.69333333 L17.1366667,6.26666666 C17.9161794,5.98342687 18.7704873,5.98342687 19.55,6.26666666 L19.5666667,6.69333333 Z M21.9333333,6.69333333 L20.2666667,6.69333333 L20.2666667,5.82666666 L20.0733333,5.73333333 C18.9929366,5.24345669 17.7537301,5.24345669 16.6733333,5.73333333 L16.48,5.82666666 L16.48,6.69333333 L14.8666667,6.69333333 L14.8666667,2.11666667 L21.9166667,2.11666667 L21.9333333,6.69333333 Z" id="Shape"></path>
                <path d="M18.2666667,5.16 C19.0178713,5.15996407 19.6275027,4.55226841 19.629935,3.80106771 C19.6323527,3.049867 19.0266574,2.43824807 18.2754687,2.43336217 C17.52428,2.42847627 16.9106801,3.03216464 16.9033333,3.78333333 C16.8997744,4.14721646 17.0418382,4.49742083 17.2978996,4.75598645 C17.5539609,5.01455207 17.9027661,5.16 18.2666667,5.16 Z M17.6,3.79666666 C17.6,3.42847683 17.8984768,3.13 18.2666667,3.13 C18.6348565,3.13 18.9333333,3.42847683 18.9333333,3.79666666 C18.9333333,4.1648565 18.6348565,4.46333333 18.2666667,4.46333333 C18.0857933,4.46608335 17.9115674,4.39521405 17.7839704,4.26698856 C17.6563735,4.13876308 17.5863612,3.96419104 17.59,3.78333333 L17.6,3.79666666 Z" id="Shape"></path>
                <path d="M18.6233333,13.5866667 L17.9566667,13.5866667 L17.9566667,8.60999999 L16.75,8.60999999 L16.75,13.5866667 L2.46666668,13.5866667 L2.46666668,2.86666666 L12.8,2.86666666 L12.8,1.67333333 L1.87333335,1.67333333 C1.54380345,1.67333333 1.27666668,1.9404701 1.27666668,2.27 L1.27666668,13.5866667 L0.610000018,13.5866667 C0.449456802,13.5830782 0.294244281,13.6443534 0.179447046,13.7566414 C0.0646498117,13.8689294 0,14.02275 0,14.1833333 L0,16.3033333 C0,16.4615792 0.0628629333,16.6133437 0.174759639,16.7252404 C0.286656345,16.8371371 0.438420846,16.9 0.596666685,16.9 L18.6233333,16.9 C18.9515607,16.8981663 19.2166667,16.6315659 19.2166667,16.3033333 L19.2166667,14.1833333 C19.2166667,13.8551008 18.9515607,13.5885004 18.6233333,13.5866667 L18.6233333,13.5866667 Z M18.0266667,15.7066667 L1.19333335,15.7066667 L1.19333335,14.7833333 L18.0266667,14.7833333 L18.0266667,15.7066667 Z" id="Shape"></path>
                <path d="M3.18000002,4.24 L3.18000002,12.2133333 C3.18000002,12.5428632 3.44713678,12.81 3.77666668,12.81 L15.4433333,12.81 C15.7728632,12.81 16.04,12.5428632 16.04,12.2133333 L16.04,8.60999999 L14.8466667,8.60999999 L14.8466667,11.61 L12.35,11.61 L12.35,10.33 L12.0666667,10.19 C10.4587021,9.46671896 8.61796461,9.46671896 7.01000001,10.19 L6.72333335,10.33 L6.72333335,11.6166667 L4.39000002,11.6166667 L4.39000002,4.83666666 L12.7833333,4.83666666 L12.7833333,3.64329603 L3.78333335,3.64329603 C3.62393558,3.64155224 3.47045278,3.70362799 3.35711004,3.81571832 C3.2437673,3.92780866 3.18000002,4.08059228 3.18000002,4.24 Z M7.74333335,10.9833333 C8.90241565,10.5591826 10.174251,10.5591826 11.3333333,10.9833333 L11.3333333,11.6166667 L7.74333335,11.6166667 L7.74333335,10.9833333 Z" id="Shape"></path>
                <path d="M9.42333334,5.28666666 C8.30403625,5.28666666 7.39666668,6.19403624 7.39666668,7.31333333 C7.39666668,8.43263042 8.30403625,9.33999999 9.42333334,9.33999999 C10.5426304,9.33999999 11.45,8.43263042 11.45,7.31333333 C11.4481648,6.19479727 10.5418694,5.28850184 9.42333334,5.28666666 Z M9.42333335,8.32 C8.8710486,8.32 8.42333335,7.87228474 8.42333335,7.32 C8.42333335,6.76771524 8.8710486,6.32 9.42333335,6.32 C9.97561809,6.32 10.4233333,6.76771524 10.4233333,7.32 C10.4233333,7.87228474 9.97561809,8.32 9.42333335,8.32 L9.42333335,8.32 Z" id="Shape"></path>
            </g>
        </g>
    </g>
</svg>