<?xml version="1.0" encoding="UTF-8"?>
<svg width="24px" height="24px" viewBox="0 0 24 24" version="1.1" xmlns="http://www.w3.org/2000/svg" xmlns:xlink="http://www.w3.org/1999/xlink">
    <title>Icon/Outline/visitor-outline</title>
    <g id="Icon/Outline/visitor-outline" stroke="none" stroke-width="1" fill="none" fill-rule="evenodd">
        <g id="Group" transform="translate(0.000007, -0.000000)" fill="#474747" fill-rule="nonzero">
            <g id="visitor-outline" transform="translate(2.999998, 0.000000)">
                <path d="M8.74998879,13.1666653 C7.27723126,13.1666653 6.08332544,11.9727594 6.08332544,10.5000019 C6.08332544,9.0272444 7.27723126,7.8333385 8.74998879,7.8333385 C10.2227463,7.8333385 11.4166522,9.0272444 11.4166522,10.5000019 C11.4166522,11.9727594 10.2227463,13.1666653 8.74998879,13.1666653 Z M7.9166565,9.65000292 L7.9166565,9.66000289 C7.5827597,9.99632286 7.48396999,10.5004876 7.66624605,10.9379503 C7.84852219,11.3754129 8.27607106,11.6602699 8.74998879,11.6600006 C9.39571118,11.6509073 9.91489896,11.125786 9.91665404,10.4800019 C9.92096271,10.1699004 9.80091688,9.87098624 9.58332109,9.65000292 C9.36069685,9.43284311 9.06096486,9.31295035 8.74998879,9.31666998 C8.43921666,9.3140392 8.13988404,9.43377228 7.9166565,9.65000292 Z M0.74999908,7.32701869e-06 L17.24999,7.32701869e-06 C17.448595,-0.000871860151 17.6393698,0.0774028941 17.7801185,0.2175261 C17.9208673,0.357649305 17.9999891,0.548073567 17.9999891,0.746680528 L17.9999891,23.2533196 C17.9999891,23.4519266 17.9208673,23.6423508 17.7801185,23.782474 C17.6393698,23.9225972 17.448595,24.000872 17.24999,23.9999928 L0.74999908,23.9999928 C0.551394101,24.000872 0.360619281,23.9225972 0.219870527,23.782474 C0.079121772,23.6423508 0,23.4519266 0,23.2533196 L0,0.746680528 C0,0.548073567 0.079121772,0.357649305 0.219870527,0.2175261 C0.360619281,0.0774028941 0.551394101,-0.000871860151 0.74999908,7.32701869e-06 Z M16.4999982,22.4999872 L16.4999982,1.50001293 L1.49999816,1.50001293 L1.49999816,22.4999872 L16.4999982,22.4999872 Z M6.74999591,3.00000551 L10.9799907,3.00000551 L10.9799907,4.493337 L6.74999591,4.493337 L6.74999591,3.00000551 Z M3.02999815,17.1299975 L3.01999816,17.0933309 C3.00677799,17.0376286 2.99999818,16.9805805 2.99999818,16.923331 L2.99999818,6.74667689 C2.99999818,6.54806993 3.07911995,6.35764567 3.21986871,6.21752246 C3.36061746,6.07739925 3.55139228,5.9991245 3.74999726,6.00000368 L13.9366514,6.00000368 C14.3495662,6.00000368 14.6848153,6.33376618 14.6866505,6.74667689 L14.6866505,16.9399977 C14.6899124,16.9788182 14.6899124,17.0178438 14.6866505,17.0566642 C14.6882802,17.0654784 14.6882802,17.0745167 14.6866505,17.0833308 C14.6752137,17.1437263 14.6549994,17.2021227 14.6266506,17.256664 C14.6256313,17.2655237 14.6256313,17.2744709 14.6266506,17.2833306 C14.597079,17.3222443 14.5647752,17.3590037 14.529984,17.3933305 L14.5033174,17.4233305 C14.4619927,17.4672676 14.4148963,17.5053932 14.3633176,17.5366636 L14.3299843,17.5566637 C14.2862839,17.5806479 14.2405507,17.6007258 14.1933178,17.6166635 L14.1566511,17.6133302 C14.0970791,17.6307083 14.0353723,17.6396839 13.973318,17.6399969 L3.75666392,17.6399969 C3.69596255,17.6392202 3.63555723,17.6313898 3.57666414,17.6166635 L3.5266642,17.6166635 C3.46991967,17.6005566 3.41513951,17.5781973 3.36333107,17.549997 L3.31999779,17.5266637 C3.27104247,17.4956931 3.22526488,17.4599643 3.18333129,17.4199971 C3.14635059,17.3795958 3.11289524,17.3361039 3.08333141,17.2899973 C3.08333141,17.2633307 3.08333141,17.2633307 3.08333141,17.2633307 C3.06213149,17.2203327 3.0443002,17.1757546 3.02999815,17.1299975 Z M5.4333285,16.1766653 L12.0966537,16.1766653 C11.1113256,15.4316962 9.91505069,15.0185437 8.67999119,14.9966667 C7.49295671,14.9975358 6.34390888,15.4151569 5.4333285,16.1766653 Z M13.2233189,7.51000927 L4.49999634,7.49334264 L4.49999634,15.0366667 C5.67366106,14.0600294 7.15313206,13.5267591 8.67999119,13.5300019 C10.3366503,13.5516266 11.9375069,14.1318345 13.2233189,15.1766665 L13.2233189,7.51000927 Z M2.99999818,18.749996 L10.4999982,18.749996 L10.4999982,20.249996 L2.99999818,20.249996 L2.99999818,18.749996 Z" id="Combined-Shape"></path>
            </g>
        </g>
    </g>
</svg>