<?xml version="1.0" encoding="UTF-8"?>
<svg width="24px" height="24px" viewBox="0 0 24 24" version="1.1" xmlns="http://www.w3.org/2000/svg" xmlns:xlink="http://www.w3.org/1999/xlink">
    <title>Icon/Outline/volume-up-outline</title>
    <g id="Icon/Outline/volume-up-outline" stroke="none" stroke-width="1" fill="none" fill-rule="evenodd">
        <g id="Group" transform="translate(-0.000000, 0.750000)" fill="#474747" fill-rule="nonzero">
            <g id="volume-up">
                <path d="M20.2493873,2.21212286 C23.4700421,5.43277763 24.7374365,10.1185539 23.5756191,14.5063319 C23.0051693,16.657927 21.8733994,18.6280221 20.3013657,20.2000558 L19.2401945,19.1388845 C22.0677449,16.311334 23.161534,12.1825952 22.113392,8.30690261 C21.5999938,6.40083036 20.5897714,4.66261921 19.1943312,3.26717901 L20.2493873,2.21212286 Z M16.5459894,5.95301108 C18.44018,7.84720181 19.183534,10.605713 18.5032205,13.185523 C18.1682932,14.454281 17.5050143,15.6056987 16.5765649,16.5341481 L15.5153936,15.4729768 C17.0241239,13.9642465 17.6103079,11.7650823 17.0488207,9.69486477 C16.7707759,8.67828064 16.2337531,7.75088711 15.4909332,7.00806723 L16.5459894,5.95301108 Z M0,7.51978121 C0,6.69573109 0.671896475,6.02770648 1.50072278,6.02770648 L3.85649152,6.02770648 L12.3259147,0.134807461 C12.4520233,0.0470630027 12.6022217,0 12.7561436,0 C13.1705568,0 13.506505,0.334012299 13.506505,0.746037356 L13.506505,21.7538986 C13.506505,21.9069335 13.4591692,22.0562664 13.3709162,22.1816483 C13.1333074,22.5192212 12.6654443,22.6013681 12.3259147,22.3651285 L3.85649152,16.4722294 L1.50072278,16.4722294 C0.671896475,16.4722294 0,15.8042049 0,14.9801548 L0,7.51978121 Z M12.0057823,2.17870444 L4.32945189,7.51978121 L1.50072278,7.50000003 L1.50072278,15.0000001 L4.32945189,15.0000001 L12.0057823,20.3212315 L12.0057823,2.17870444 Z" id="ic_ol_volume_up_32"></path>
            </g>
        </g>
    </g>
</svg>