<?xml version="1.0" encoding="UTF-8"?>
<svg width="24px" height="24px" viewBox="0 0 24 24" version="1.1" xmlns="http://www.w3.org/2000/svg" xmlns:xlink="http://www.w3.org/1999/xlink">
    <title>Icon/Outline/volume-off-outline</title>
    <g id="Icon/Outline/volume-off-outline" stroke="none" stroke-width="1" fill="none" fill-rule="evenodd">
        <g id="Group" transform="translate(5.250000, 0.750000)" fill="#474747" fill-rule="nonzero">
            <g id="volume-off">
                <path d="M0,7.51978121 C0,6.69573109 0.671572878,6.02770648 1.5,6.02770648 L3.85463417,6.02770648 L12.3199784,0.134807461 C12.4460262,0.0470630027 12.5961523,0 12.7500001,0 C13.1642136,0 13.5,0.334012299 13.5,0.746037356 L13.5,21.7538986 C13.5,21.9069335 13.4526871,22.0562664 13.3644766,22.1816483 C13.1269822,22.5192212 12.6593444,22.6013681 12.3199784,22.3651285 L3.85463417,16.4722294 L1.5,16.4722294 C0.671572878,16.4722294 0,15.8042049 0,14.9801548 L0,7.51978121 Z M12,2.17870444 L4.32736674,7.50000003 L1.50000001,7.50000003 L1.50000001,15.0000001 L4.32736674,15.0000001 L12,20.3212315 L12,2.17870444 Z" id="ic_ol_volume_off_32"></path>
            </g>
        </g>
    </g>
</svg>