<?xml version="1.0" encoding="UTF-8"?>
<svg width="24px" height="24px" viewBox="0 0 24 24" version="1.1" xmlns="http://www.w3.org/2000/svg" xmlns:xlink="http://www.w3.org/1999/xlink">
    <title>Icon/Outline/volume-on-outline</title>
    <g id="Icon/Outline/volume-on-outline" stroke="none" stroke-width="1" fill="none" fill-rule="evenodd">
        <g id="Group" transform="translate(3.000000, 0.750000)" fill="#474747" fill-rule="nonzero">
            <g id="volume-on">
                <path d="M16.5449385,5.95321154 C18.438986,7.84725911 19.1822077,10.605638 18.5018225,13.1853763 C18.1668599,14.454099 17.5035625,15.6054982 16.5751131,16.5339476 L15.514022,15.4728565 C17.0227523,13.9641263 17.6089972,11.7650229 17.0476094,9.69490489 C16.7696135,8.67836966 16.2326461,7.75103141 15.4898823,7.0082677 L16.5449385,5.95321154 Z M1.77635684e-15,7.51978121 C1.77635684e-15,6.69573109 0.671845705,6.02770648 1.50060939,6.02770648 L3.85620013,6.02770648 L12.3249835,0.134807461 C12.4510825,0.0470630027 12.6012695,0 12.7551798,0 C13.1695617,0 13.5054845,0.334012299 13.5054845,0.746037356 L13.5054845,21.7538986 C13.5054845,21.9069335 13.4581523,22.0562664 13.369906,22.1816483 C13.132315,22.5192212 12.6644873,22.6013681 12.3249835,22.3651285 L3.85620013,16.4722294 L1.50060939,16.4722294 C0.671845705,16.4722294 1.77635684e-15,15.8042049 1.77635684e-15,14.9801548 L1.77635684e-15,7.51978121 Z M12.0048751,2.17870444 L4.32912477,7.50000003 L1.50060939,7.50000003 L1.50060939,15.0000001 L4.32912477,15.0000001 L12.0048751,20.3212315 L12.0048751,2.17870444 Z" id="ic_ol_volume_down_32"></path>
            </g>
        </g>
    </g>
</svg>