<?xml version="1.0" encoding="UTF-8"?>
<svg width="24px" height="24px" viewBox="0 0 24 24" version="1.1" xmlns="http://www.w3.org/2000/svg" xmlns:xlink="http://www.w3.org/1999/xlink">
    <title>Icon/Outline/wait-outline</title>
    <g id="Icon/Outline/wait-outline" stroke="none" stroke-width="1" fill="none" fill-rule="evenodd">
        <g id="Group" transform="translate(-0.000000, -0.000000)" fill="#474747" fill-rule="nonzero">
            <g id="wait-outline" transform="translate(3.000000, 0.000000)">
                <path d="M14.25,1.50000001 L3.75000002,1.50000001 L3.75000002,7.41862857 C3.75000002,7.67722113 3.88321479,7.91757356 4.10250081,8.05462728 L9.00000004,11.1155643 L13.8974992,8.05462728 C14.1167853,7.91757356 14.25,7.67722113 14.25,7.41862857 L14.25,1.50000001 Z M15.7500001,1.5 L15.7500001,7.41862857 C15.7500001,8.19440613 15.3503557,8.91546349 14.6924977,9.32662474 L10.4150972,12 L14.6924977,14.6733754 C15.3503557,15.0845366 15.7500001,15.805594 15.7500001,16.5813715 L15.7500001,22.5 L18,22.5 L18,24 L0,24 L0,22.5 L2.25000001,22.5 L2.25000001,16.5813715 C2.25000001,15.805594 2.64964433,15.0845366 3.3075024,14.6733754 L7.58490288,12 L3.3075024,9.32662474 C2.64964433,8.91546349 2.25000001,8.19440613 2.25000001,7.41862857 L2.25000001,1.5 L0,1.5 L0,0 L18,0 L18,1.5 L15.7500001,1.5 Z M9.00000004,12.8844358 L4.10250081,15.9453728 C3.88321479,16.0824265 3.75000002,16.322779 3.75000002,16.5813715 L3.75000002,22.5000001 L14.25,22.5000001 L14.25,16.5813715 C14.25,16.322779 14.1167853,16.0824265 13.8974992,15.9453728 L9.00000004,12.8844358 Z" id="Icon/Wait/Outline"></path>
            </g>
        </g>
    </g>
</svg>