<?xml version="1.0" encoding="UTF-8"?>
<svg width="24px" height="24px" viewBox="0 0 24 24" version="1.1" xmlns="http://www.w3.org/2000/svg" xmlns:xlink="http://www.w3.org/1999/xlink">
    <title>Icon/Outline/walking-workstation-outline</title>
    <g id="Icon/Outline/walking-workstation-outline" stroke="none" stroke-width="1" fill="none" fill-rule="evenodd">
        <g id="Group" transform="translate(2.000000, -0.000000)" fill="#474747" fill-rule="nonzero">
            <g id="Outline">
                <path d="M19.8801526,11.7440159 L19.8801526,10.1278787 L16.3979603,10.1278787 C17.1163828,8.93071109 17.5199109,7.57109675 17.5709093,6.17584035 L17.5275902,3.92990959 L17.1210567,3.92990959 L15.814818,3.95656752 L16.3013253,0.647651739 C16.3346477,0.431056043 16.2746674,0.314427592 16.0580717,0.294434143 L14.158694,0.00786137589 C13.6855157,-0.0621156951 13.2256664,0.341085523 13.1323637,0.977543645 L12.2293262,7.14219038 C12.1360235,7.77531626 12.4625831,8.29514593 12.9324292,8.36845524 L14.835139,8.65169576 C15.0517347,8.68168594 15.1350408,8.5983799 15.1683632,8.3817842 L15.6948573,4.78296341 L16.7345167,4.76296996 L16.7611746,6.19250155 C16.7021009,7.61160107 16.2231352,8.98123426 15.3849589,10.1278787 L10.556541,10.1278787 L10.556541,11.7440159 L16.8311517,11.7440159 L16.8311517,19.6147702 L1.33289659,19.6147702 C0.563148809,19.6147702 0,20.0979452 0,20.6777552 L0,23.6467824 C0,23.9100295 0.11329621,24 0.379875528,24 L19.2703525,24 C19.5335995,24 19.650228,23.9100295 19.650228,23.6467824 L19.650228,20.6677585 C19.650228,20.0879485 19.0870792,19.6047735 18.3173314,19.6047735 L17.7475181,19.6047735 L17.7475181,11.7440159 L19.8801526,11.7440159 Z M14.3419673,7.7786485 L13.0490576,7.58537849 C13.0490576,7.58537849 12.9724161,7.47541452 13.0057385,7.25215434 L13.9087759,1.09083986 C13.9387661,0.870911918 14.0287366,0.790938123 14.0453978,0.790938123 L15.3349753,0.984208128 L14.3419673,7.7786485 Z M15.151702,22.6104553 C14.7972396,22.6104553 14.4776798,22.3969323 14.3420329,22.0694517 C14.206386,21.7419711 14.2813653,21.3650247 14.5320081,21.1143819 C14.7826509,20.8637391 15.1595973,20.7887598 15.4870779,20.9244067 C15.8145585,21.0600536 16.0280815,21.3796134 16.0280815,21.7340758 C16.0280815,22.2180868 15.635713,22.6104553 15.151702,22.6104553 L15.151702,22.6104553 Z M13.7454961,22.9003603 L11.2263215,22.9003603 C11.7902895,22.2251043 11.7902895,21.2430473 11.2263215,20.5677913 L13.7454961,20.5677913 C13.1815281,21.2430473 13.1815281,22.2251043 13.7454961,22.9003603 L13.7454961,22.9003603 Z M4.48852927,20.8576899 C4.97210227,20.859535 5.36279836,21.2527139 5.3615766,21.7362888 C5.36034909,22.2198638 4.96766661,22.6110588 4.4840905,22.610449 C4.00051439,22.6098377 3.60881752,22.2176523 3.60881752,21.7340758 C3.60881752,21.501067 3.70160569,21.27765 3.86668014,21.1132008 C4.03175458,20.9487516 4.25552215,20.8568103 4.48852927,20.8576899 Z M5.89473517,20.5677913 L8.41057748,20.5677913 C7.85061386,21.2444944 7.85061386,22.2236572 8.41057748,22.9003603 L5.89473517,22.9003603 C6.45469879,22.2236572 6.45469879,21.2444944 5.89473517,20.5677913 Z M10.6964951,21.7340758 C10.6964951,22.2180868 10.3041267,22.6104553 9.82011563,22.6104553 C9.33610459,22.6104553 8.94373612,22.2180868 8.94373612,21.7340758 C8.94373612,21.2500648 9.33610459,20.8576963 9.82011563,20.8576963 C10.0525459,20.8576963 10.2754565,20.9500289 10.4398095,21.1143819 C10.6041626,21.2787349 10.6964951,21.5016455 10.6964951,21.7340758 L10.6964951,21.7340758 Z M0.943024338,20.6677585 C0.943024338,20.6677585 1.05965279,20.5577946 1.32623211,20.5577946 L3.07232664,20.5577946 C2.51236302,21.2344976 2.51236302,22.2136605 3.07232664,22.8903636 L0.943024338,22.8903636 L0.943024338,20.6677585 Z M18.6805457,20.6677585 L18.6805457,22.9003603 L16.5579079,22.9003603 C17.1218759,22.2251043 17.1218759,21.2430473 16.5579079,20.5677913 L18.3073347,20.5677913 C18.573914,20.5677913 18.6872102,20.6677585 18.6872102,20.6677585 L18.6805457,20.6677585 Z" id="Shape"></path>
            </g>
        </g>
    </g>
</svg>