<svg width="24" height="25" viewBox="0 0 24 25" fill="none" xmlns="http://www.w3.org/2000/svg">
<path d="M11.4737 17.228C11.6177 17.068 11.7937 16.988 12.0017 16.988C12.2097 16.988 12.3857 17.068 12.5297 17.228C12.6737 17.372 12.7457 17.548 12.7457 17.756C12.7457 17.964 12.6737 18.14 12.5297 18.284C12.3857 18.428 12.2097 18.5 12.0017 18.5C11.7937 18.5 11.6177 18.428 11.4737 18.284C11.3297 18.14 11.2577 17.964 11.2577 17.756C11.2577 17.548 11.3297 17.372 11.4737 17.228Z" fill="#474747"/>
<path d="M11.4737 9.716C11.6177 9.572 11.7937 9.5 12.0017 9.5C12.2097 9.5 12.3857 9.572 12.5297 9.716C12.6737 9.86 12.7457 10.036 12.7457 10.244V14.756C12.7457 14.964 12.6737 15.14 12.5297 15.284C12.3857 15.428 12.2097 15.5 12.0017 15.5C11.7937 15.5 11.6177 15.428 11.4737 15.284C11.3297 15.14 11.2577 14.964 11.2577 14.756V10.244C11.2577 10.036 11.3297 9.86 11.4737 9.716Z" fill="#474747"/>
<path fill-rule="evenodd" clip-rule="evenodd" d="M10.7615 2.71114C11.0382 2.23815 11.5183 2 12.0017 2C12.4851 2 12.9651 2.23815 13.2418 2.71114L23.8063 20.8699C24.3564 21.8159 23.6696 23 22.5662 23H1.43381C0.330353 23 -0.356391 21.8159 0.193671 20.8699L10.7615 2.71114ZM12.0017 3.55788L1.55382 21.5149H22.4495L12.0017 3.55788Z" fill="#474747"/>
</svg>
