<?xml version="1.0" encoding="UTF-8"?>
<svg width="24px" height="24px" viewBox="0 0 24 24" version="1.1" xmlns="http://www.w3.org/2000/svg" xmlns:xlink="http://www.w3.org/1999/xlink">
    <title>Icon/Outline/waterdrop-outline</title>
    <g id="Icon/Outline/waterdrop-outline" stroke="none" stroke-width="1" fill="none" fill-rule="evenodd">
        <g id="Group" transform="translate(5.000000, 0.000000)" fill="#474747" fill-rule="nonzero">
            <g id="Outline">
                <path d="M7.07,24 C3.18710258,23.9479699 0.052030086,20.8128974 0,16.93 C0,16.9066667 0,16.72 0,16.6433333 C0.176666667,10.2266667 6.23,1.23 6.48666667,0.85 L7.07,0 L7.64666667,0.85 C7.90333333,1.23 13.9566667,10.23 14.1333333,16.6466667 C14.1333333,16.7133333 14.1333333,16.9066667 14.1333333,16.93 C14.0813875,20.8103445 10.9502938,23.9443935 7.07,24 Z M7.07,2.52666667 C5.54666667,4.95333333 1.53333333,11.7933333 1.40333333,16.6833333 L1.40333333,16.6833333 C1.40333333,16.7433333 1.40333333,16.9 1.40333333,16.9233333 C1.40333333,18.9478384 2.48339386,20.8185582 4.23666664,21.8308107 C5.98993942,22.8430632 8.15006058,22.8430632 9.90333333,21.8308107 C11.6566061,20.8185582 12.7366667,18.9478384 12.7366667,16.9233333 C12.7366667,16.9 12.7366667,16.7466667 12.7366667,16.6866667 C12.6066667,11.79 8.59333333,4.95 7.07,2.52666667 Z" id="Shape"></path>
            </g>
        </g>
    </g>
</svg>