<svg width="24" height="24" viewBox="0 0 24 24" fill="none" xmlns="http://www.w3.org/2000/svg">
<g clip-path="url(#clip0_15805_64345)">
<path d="M10.1019 12.0083C9.34853 13.215 7.3652 16.6183 7.29853 19.0516C7.29853 19.085 7.29853 19.1616 7.29853 19.175C7.29853 20.705 8.58187 21.9983 10.1019 21.9983C11.6219 21.9983 12.9052 20.705 12.9052 19.175C12.9052 19.165 12.9052 19.0883 12.9052 19.0583C12.8385 16.6183 10.8552 13.215 10.1019 12.0083ZM10.1019 20.4783C9.41187 20.4783 8.80853 19.8683 8.80853 19.1816V19.075C8.84187 18.0116 9.39187 16.5383 10.0985 15.1083C10.8119 16.5483 11.3619 18.035 11.3919 19.1083V19.1716C11.3919 19.865 10.7885 20.475 10.0985 20.475L10.1019 20.4783Z" fill="black"/>
<path d="M18.8452 2.00165C18.4285 2.00165 18.0885 2.34165 18.0885 2.76165V3.70165H5.9052V2.76165C5.9052 2.34165 5.5652 2.00165 5.14854 2.00165H0.755202C0.338535 2.00165 -0.00146484 2.34165 -0.00146484 2.76165V12.2316C-0.00146484 12.6516 0.338535 12.9916 0.755202 12.9916H5.15187C5.56854 12.9916 5.90854 12.6516 5.90854 12.2316V11.2916H8.9452C9.23187 11.2916 9.4952 11.1283 9.62187 10.8716C9.74854 10.615 9.72187 10.305 9.54854 10.075L8.90187 9.20831L8.85187 8.89831L9.61187 8.34832L9.50187 8.84832C9.44854 9.08832 9.5152 9.33831 9.67854 9.52165L11.0385 11.0416C11.1819 11.2016 11.3852 11.2916 11.5985 11.2916H18.0919V12.2316C18.0919 12.6516 18.4319 12.9916 18.8485 12.9916H23.2452C23.6619 12.9916 24.0019 12.6516 24.0019 12.2316V2.76165C24.0019 2.34165 23.6619 2.00165 23.2452 2.00165H18.8452ZM4.3952 11.4716H1.50854V3.52498H4.39187V11.4716H4.3952ZM18.0919 9.76831H11.9352L11.0585 8.78831L11.5052 6.73165C11.5719 6.42498 11.4419 6.10498 11.1819 5.93165C10.9185 5.75831 10.5785 5.76498 10.3252 5.94831L7.5852 7.92832C7.35187 8.09498 7.2352 8.38165 7.27854 8.66498L7.42854 9.62498C7.4352 9.67165 7.44853 9.71831 7.46187 9.76165H5.89854V5.21831H18.0852V9.76165L18.0919 9.76831ZM22.4885 11.4716H19.6052V3.52498H22.4885V11.4716Z" fill="black"/>
</g>
<defs>
<clipPath id="clip0_15805_64345">
<rect width="24" height="24" fill="white"/>
</clipPath>
</defs>
</svg>
