<?xml version="1.0" encoding="UTF-8"?>
<svg width="24px" height="24px" viewBox="0 0 24 24" version="1.1" xmlns="http://www.w3.org/2000/svg" xmlns:xlink="http://www.w3.org/1999/xlink">
    <title>Icon/Outline/wealth-outline</title>
    <g id="Icon/Outline/wealth-outline" stroke="none" stroke-width="1" fill="none" fill-rule="evenodd">
        <g id="Group" transform="translate(-0.000000, -0.000000)" fill="#474747" fill-rule="nonzero">
            <g id="wealth-outline" transform="translate(0.000000, 2.250000)">
                <path d="M24,0 L24,11.7266667 L22.0533334,11.7266667 L22.0533334,16.5033334 C22.0533334,17.7733334 20.3866667,18.7733334 18.2433334,18.7733334 C16.1000001,18.7733334 14.4333334,17.7766667 14.4333334,16.5033334 L14.4333334,14.9733334 L0,14.9733334 L0,3.24666668 L3.03666668,3.24666668 L3.03666668,0 L24,0 Z M1.22333334,4.47000002 L1.22333334,13.75 L14.4333334,13.75 L14.4333334,10.39 C14.4333334,9.12000004 16.1066668,8.12000006 18.2433334,8.12000006 C18.7461957,8.11884813 19.2474379,8.17702803 19.7366668,8.29333338 L19.7366668,4.47000002 L1.22333334,4.47000002 Z M21.0633334,10.39 C21.0633334,9.78666672 19.8566668,9.11000006 18.2433334,9.11000006 C16.63,9.11000006 15.4233334,9.77333337 15.4233334,10.39 C15.4233334,11.0066667 16.63,11.6733333 18.2433334,11.6733333 C19.8566668,11.6733333 21.0633334,10.9966667 21.0633334,10.39 Z M18.2433334,17.7833334 C19.8566668,17.7833334 21.0633334,17.1066667 21.0633334,16.5033334 L21.0633334,15.9766667 C20.2111444,16.4817864 19.2336348,16.7359852 18.2433334,16.7100001 C17.253032,16.7359852 16.2755224,16.4817864 15.4233334,15.9766667 L15.4233334,16.5033334 C15.4233334,17.1166667 16.63,17.7833334 18.2433334,17.7833334 Z M18.2433334,15.7200001 C19.8566668,15.7200001 21.0633334,15.0433334 21.0633334,14.4366667 L21.0633334,14.0000001 C20.2117814,14.5066471 19.2338225,14.7609628 18.2433334,14.7333334 C17.2528443,14.7609628 16.2748854,14.5066471 15.4233334,14.0000001 L15.4233334,14.4366667 C15.4233334,15.0533334 16.63,15.7200001 18.2433334,15.7200001 Z M18.2433334,13.7433334 C19.8566668,13.7433334 21.0633334,13.0666667 21.0633334,12.4633334 L21.0633334,11.9300001 C20.2117814,12.4366471 19.2338225,12.6909628 18.2433334,12.6633334 C17.2528443,12.6909628 16.2748854,12.4366471 15.4233334,11.9300001 L15.4233334,12.4633334 C15.4233334,13.0766668 16.63,13.7433334 18.2433334,13.7433334 Z M22.7766668,10.5033333 L22.7766668,1.22000001 L4.26333335,1.22000001 L4.26333335,3.24666668 L20.9633334,3.24666668 L20.9633334,8.78666674 C21.6400001,9.19333339 22.0533334,9.76000002 22.0533334,10.39 L22.0533334,10.5033333 L22.7766668,10.5033333 Z M10.48,5.31333332 C12.0833334,5.31333332 13.3333334,6.98000005 13.3333334,9.11000006 C13.3333334,11.2400001 12.0800001,12.9066667 10.48,12.9066667 C8.88000004,12.9066667 7.62333333,11.2400001 7.62333333,9.11000006 C7.62333333,6.98000005 8.88000004,5.31333332 10.48,5.31333332 Z M10.48,11.7933333 C11.4266667,11.7933333 12.2233334,10.5800001 12.2233334,9.12666671 C12.2233334,7.67333336 11.4233334,6.44333335 10.48,6.44333335 C9.53666674,6.44333335 8.73666671,7.69000001 8.73666671,9.12666671 C8.73666671,10.5633333 9.53666674,11.7933333 10.48,11.7933333 Z" id="Combined-Shape"></path>
            </g>
        </g>
    </g>
</svg>