<svg width="24" height="24" viewBox="0 0 24 24" fill="none" xmlns="http://www.w3.org/2000/svg">
<path d="M23.24 1H0.76C0.34 1 0 1.34 0 1.76333V19.1433C0 19.5633 0.34 19.9067 0.76 19.9067H11.2433V21.4733H7.37V23H16.63V21.4733H12.7633V19.9067H23.24C23.66 19.9067 24 19.5667 24 19.1433V1.76333C24 1.34333 23.66 1 23.24 1ZM22.48 18.38H1.52V2.52667H22.48V18.38ZM12 11.5733C14.2167 11.5733 16.1267 12.3833 17.0167 13.55C17.4767 14.1533 17.04 15.0267 16.2833 15.0267H7.71667C6.96 15.0267 6.52333 14.1533 6.98333 13.55C7.87333 12.38 9.78667 11.5733 12 11.5733ZM14.1133 7.81667C14.1133 8.99 13.1667 9.94 12 9.94C10.8333 9.94 9.88667 8.99 9.88667 7.81667C9.88667 6.64333 10.8333 5.69333 12 5.69333C13.1667 5.69333 14.1133 6.64333 14.1133 7.81667Z" fill="black"/>
</svg>
