<?xml version="1.0" encoding="UTF-8"?>
<svg width="24px" height="24px" viewBox="0 0 24 24" version="1.1" xmlns="http://www.w3.org/2000/svg" xmlns:xlink="http://www.w3.org/1999/xlink">
    <title>Icon/Outline/webcast-studio-outline</title>
    <g id="Icon/Outline/webcast-studio-outline" stroke="none" stroke-width="1" fill="none" fill-rule="evenodd">
        <g id="Group" transform="translate(0.000000, 1.000000)" fill="#474747" fill-rule="nonzero">
            <g id="Outline">
                <path d="M23.24,0 L0.76,0 C0.558435468,0 0.365126494,0.0800711987 0.222598846,0.222598846 C0.0800711987,0.365126494 0,0.558435468 0,0.76 L0,18.0666667 C0,18.4864031 0.34026359,18.8266667 0.76,18.8266667 L11.2433333,18.8266667 L11.2433333,20.3866667 L7.37,20.3866667 L7.37,21.9066667 L16.63,21.9066667 L16.63,20.3866667 L12.7633333,20.3866667 L12.7633333,18.8266667 L23.24,18.8266667 C23.4415645,18.8266667 23.6348735,18.7465955 23.7774012,18.6040678 C23.9199288,18.4615402 24,18.2682312 24,18.0666667 L24,0.76 C24,0.558435468 23.9199288,0.365126494 23.7774012,0.222598846 C23.6348735,0.0800711987 23.4415645,0 23.24,0 Z M22.48,17.3066667 L1.52,17.3066667 L1.52,1.52 L22.48,1.52 L22.48,17.3066667 Z" id="Shape"></path>
                <path d="M16.6233504,9.67 L15.7866667,9.67 C15.7866667,11.7613183 14.0913183,13.4566667 12,13.4566667 C9.90868175,13.4566667 8.21333333,11.7613183 8.21333333,9.67 L7.37665756,9.67 C7.37195305,12.0659849 9.19723606,14.0691679 11.5833333,14.2866667 L11.5833333,15.5133333 L9.77,15.5133333 L9.77,16.35 L14.23,16.35 L14.23,15.5 L12.42,15.5 L12.42,14.2866667 C14.8055322,14.0690654 16.6297831,12.0654274 16.6233504,9.67 L16.6233504,9.67 Z" id="Path"></path>
                <path d="M12,12.5 C13.435179,12.4981636 14.5981636,11.335179 14.6,9.9 L14.6,5.54 C14.5498902,4.14118133 13.4013826,3.03308001 12.0016667,3.03308001 C10.6019507,3.03308001 9.45344317,4.14118133 9.40333333,5.54 L9.40333333,9.9 C9.40516459,11.3338806 10.5661229,12.4963293 12,12.5 L12,12.5 Z M12,11.6633333 C11.0274399,11.6614948 10.24,10.8725618 10.24,9.9 L10.24,6.66333333 L13.7633333,6.66333333 L13.7633333,9.9 C13.7633333,10.8738621 12.9738621,11.6633333 12,11.6633333 Z M12,3.77666667 C12.9731013,3.77850098 13.761499,4.5668987 13.7633333,5.54 L13.7633333,5.83 L10.24,5.83 L10.24,5.54 C10.2418267,4.5681955 11.0282007,3.78033214 12,3.77666667 Z" id="Shape"></path>
            </g>
        </g>
    </g>
</svg>