<svg width="24" height="24" viewBox="0 0 24 24" fill="none" xmlns="http://www.w3.org/2000/svg">
<path fill-rule="evenodd" clip-rule="evenodd" d="M0 1.5V21C0 21.83 0.67 22.5 1.5 22.5H22.5C23.33 22.5 24 21.83 24 21V1.5H0ZM22.5 5.19H5.83333V3H22.5V5.19ZM4.33333 3V5.19H1.5V3H4.33333ZM1.5 21V6.69H22.5V21H1.5Z" fill="black"/>
<path d="M21.23 10.25H11.95V11.75H21.23V10.25Z" fill="black"/>
<path d="M17.9067 13.3033H11.9433V14.8033H17.9067V13.3033Z" fill="black"/>
<path fill-rule="evenodd" clip-rule="evenodd" d="M9.58333 9.83333H3.75C3.33667 9.83333 3 10.17 3 10.5833V16.4167C3 16.83 3.33667 17.1667 3.75 17.1667H9.58333C9.99667 17.1667 10.3333 16.83 10.3333 16.4167V10.5833C10.3333 10.17 9.99667 9.83333 9.58333 9.83333ZM8.83333 15.6667H4.5V11.3333H8.83333V15.6667Z" fill="black"/>
</svg>
