<?xml version="1.0" encoding="UTF-8"?>
<svg width="24px" height="24px" viewBox="0 0 24 24" version="1.1" xmlns="http://www.w3.org/2000/svg" xmlns:xlink="http://www.w3.org/1999/xlink">
    <title>Icon/Outline/weight-outline</title>
    <g id="Icon/Outline/weight-outline" stroke="none" stroke-width="1" fill="none" fill-rule="evenodd">
        <g id="Group" transform="translate(3.000000, 0.000000)" fill="#474747" fill-rule="nonzero">
            <g id="Outline">
                <path d="M18.7466612,7.9400047 C18.7466612,7.11667161 18.4133279,5.73667202 16.2266619,5.73333868 L13.1633295,5.73333868 C12.5433297,5.50333875 12.0399965,5.16000552 12.0399965,4.64000567 C12.0399965,4.36667242 12.0399965,4.13667248 12.0399965,3.93333921 L13.5133294,3.93333921 C14.384637,3.931501 15.0899975,3.22464923 15.0899956,2.35333967 L15.0899956,1.57667323 C15.0899965,1.15793718 14.9234265,0.756399978 14.6270229,0.460621701 C14.3306193,0.164843425 13.9287312,-0.000878247735 13.509996,3.50066679e-06 L5.17666515,3.50066679e-06 C4.75850727,3.50066679e-06 4.35747606,0.166119599 4.06179379,0.461801869 C3.76611152,0.757484139 3.59999895,1.15851536 3.59999895,1.57667323 L3.59999895,2.35333967 C3.5999912,3.22335244 4.30332679,3.92966827 5.17333182,3.93333921 L6.50666476,3.93333921 C6.52813104,4.17715604 6.53592102,4.42198402 6.52999809,4.66667233 C6.53912653,4.96210072 6.41709529,5.24643351 6.19666485,5.44333877 C6.06475257,5.56655076 5.9139529,5.66783412 5.74999832,5.74333868 L2.22333268,5.74333868 C0.833333089,5.74333868 0,6.57667177 0,7.9600047 C0,9.80667082 0,11.6533369 0,13.5000035 L0,17.8800018 C0,19.6755568 0,21.472223 0,23.2700002 L0,24.0000035 L18.7466612,24.0000035 L18.7466612,23.2600002 C18.7488834,18.153335 18.7488834,13.0466699 18.7466612,7.9400047 Z M6.37333147,2.43667298 L5.17333182,2.43667298 C5.12861484,2.43488288 5.09333181,2.39809246 5.09333181,2.35333967 L5.09333181,1.57667323 C5.09333181,1.53249047 5.12914905,1.49667326 5.17333182,1.49667326 L13.5066627,1.49667326 C13.5508455,1.49667326 13.5866627,1.53249047 13.5866627,1.57667323 L13.5866627,2.35333967 C13.5866627,2.39809246 13.5513797,2.43488288 13.5066627,2.43667298 L6.37333147,2.43667298 L6.37333147,2.43667298 Z M10.5399969,3.93333921 C10.5399969,4.15667248 10.5399969,4.40000574 10.5399969,4.67333899 C10.5423634,5.04421766 10.6374727,5.40861227 10.8166635,5.73333868 L7.79999772,5.73333868 C7.95577631,5.39918031 8.03763813,5.03534999 8.03999765,4.66667233 C8.03999765,4.40000574 8.03999765,4.16333914 8.00666432,3.94333921 L10.5399969,3.93333921 Z M1.45999957,22.5400004 C1.45999957,20.9844453 1.45999957,19.4288902 1.45999957,17.8733351 L1.45999957,13.4900031 C1.45999957,11.643337 1.45999957,9.79667083 1.45999957,7.9500047 C1.45999957,7.41333819 1.62999952,7.22000491 2.12666604,7.19667159 L16.3199952,7.19667159 C17.2833283,7.22000491 17.2866616,7.57000481 17.2866616,7.9400047 C17.2866616,12.8044477 17.2866616,17.6677796 17.2866616,22.5300004 L1.45999957,22.5400004 Z" id="Shape"></path>
            </g>
        </g>
    </g>
</svg>