<?xml version="1.0" encoding="UTF-8"?>
<svg width="24px" height="24px" viewBox="0 0 24 24" version="1.1" xmlns="http://www.w3.org/2000/svg" xmlns:xlink="http://www.w3.org/1999/xlink">
    <title>Icon/Outline/wifi-outline</title>
    <g id="Icon/Outline/wifi-outline" stroke="none" stroke-width="1" fill="none" fill-rule="evenodd">
        <g id="Group" transform="translate(0.000000, 2.000000)" fill="#474747" fill-rule="nonzero">
            <g id="Outline">
                <path d="M12.0016976,11.8468238 C10.339597,11.8461618 8.73149001,12.4369432 7.46512773,13.5134678 C7.33188586,13.6274895 7.25220127,13.7918897 7.24524264,13.9671207 C7.23828401,14.1423518 7.30468117,14.312553 7.42846184,14.4367814 L7.76178806,14.7701076 C7.98762997,15.0004555 8.35330965,15.0164813 8.59843687,14.8067735 C9.55034531,14.0024873 10.7555047,13.5598479 12.0016976,13.5568002 C13.2517289,13.551906 14.4623283,13.9940585 15.4149581,14.8034403 C15.6589927,15.0127193 16.0235631,14.9966782 16.2482736,14.7667744 L16.5815998,14.4334482 C16.7053805,14.3092198 16.7717777,14.1390185 16.764819,13.9637875 C16.7578604,13.7885564 16.6781758,13.6241562 16.544934,13.5101345 C15.2763551,12.4333261 13.6656683,11.8436469 12.0016976,11.8468238 Z M19.9415281,8.80356831 C15.30316,5.04159372 8.66092954,5.05272906 4.03520092,8.83023441 C3.89948596,8.93940134 3.81502188,9.09988311 3.80187257,9.27355828 C3.78606083,9.44148159 3.83897572,9.60864455 3.94853611,9.73688173 L4.25852949,10.0702079 C4.37392269,10.2011869 4.54063689,10.2754173 4.71518641,10.2735718 C4.86214081,10.2737405 5.00464074,10.2231 5.11851114,10.1302067 C9.11757099,6.87565973 14.8497004,6.86731602 18.8582179,10.1102071 C19.1063821,10.3198945 19.4743298,10.3024424 19.7015333,10.0702079 L20.0115266,9.73688173 C20.1221522,9.60893921 20.1773203,9.44223534 20.1648567,9.27355828 C20.1595115,9.09253391 20.0784999,8.92204671 19.9415281,8.80356831 L19.9415281,8.80356831 Z M23.7781129,4.28366477 C16.9657339,-1.39002488 7.08559221,-1.43197283 0.225282229,4.1836669 C0.0951620018,4.28898228 0.0143423538,4.44338399 0.00195366143,4.61032446 C-0.0112244669,4.77953349 0.0426492199,4.94714051 0.15195046,5.07698117 L0.451944058,5.41030739 C0.67449371,5.66665043 1.0612535,5.69776903 1.32192549,5.4803059 C7.54456641,0.401780604 16.491866,0.439497557 22.6714699,5.57030398 C22.7844588,5.66513906 22.9272813,5.71707453 23.0747946,5.7169956 C23.2526386,5.71868199 23.4221784,5.64184021 23.538118,5.506972 L23.8414449,5.17364578 C23.9547917,5.04577686 24.0113348,4.87735048 23.9981082,4.70698907 C23.9845414,4.54208034 23.9052698,4.38954244 23.7781129,4.28366477 L23.7781129,4.28366477 Z M12.0250304,20.9999747 C13.1884855,20.9999747 14.1316521,20.0538233 14.1316521,18.8866865 C14.1316521,17.7195496 13.1884855,16.7733982 12.0250304,16.7733982 C10.8615754,16.7733982 9.9184087,17.7195496 9.9184087,18.8866865 C9.9184087,20.0538233 10.8615754,20.9999747 12.0250304,20.9999747 Z" id="Combined-Shape"></path>
            </g>
        </g>
    </g>
</svg>