<?xml version="1.0" encoding="UTF-8"?>
<svg width="24px" height="24px" viewBox="0 0 24 24" version="1.1" xmlns="http://www.w3.org/2000/svg" xmlns:xlink="http://www.w3.org/1999/xlink">
    <title>Icon/Outline/windmill-outline</title>
    <g id="Icon/Outline/windmill-outline" stroke="none" stroke-width="1" fill="none" fill-rule="evenodd">
        <g id="Group" transform="translate(2.000000, 0.000000)" fill="#474747" fill-rule="nonzero">
            <g id="Outline">
                <path d="M12.8606897,8.96772414 C12.7417094,8.27603715 12.3802469,7.64934569 11.8411034,7.2 L11.3611034,1.06262069 L11.2915862,0 L8.5737931,0 L8.50427586,1.06262069 L8.02096552,7.2 C7.48483695,7.65136959 7.12499002,8.27729227 7.00468966,8.96772414 L0,13.641931 L1.36055172,15.9922759 L8.15668966,12.6488276 L6.33931034,23.904 L6.33931034,24 L13.536,24 L11.7086897,12.6488276 L17.5613793,15.5354483 L18.518069,16.0088276 L19.862069,13.641931 L12.8606897,8.96772414 Z M7.73958621,11.4935172 L1.83393103,14.4066207 L1.61875862,14.0325517 L7.09406897,10.3911724 C7.22852244,10.8002901 7.44857733,11.1760761 7.73958621,11.4935172 L7.73958621,11.4935172 Z M10.4673103,12.4071724 L12.201931,22.6957241 L7.7097931,22.6957241 L9.39806897,12.4071724 C9.75109395,12.4766797 10.1142854,12.4766797 10.4673103,12.4071724 L10.4673103,12.4071724 Z M10.7983448,11.0002759 C10.6722514,11.0727553 10.537725,11.1294565 10.3977931,11.1691034 L10.4209655,11.2485517 L10.4209655,11.2485517 L10.368,11.1790345 L10.1925517,11.2154483 L10.1362759,11.2154483 C9.99240626,11.235308 9.84649029,11.235308 9.70262069,11.2154483 L9.64965517,11.2154483 L9.47089655,11.1790345 L9.45103448,11.2584828 L9.45103448,11.1691034 C8.69526629,10.9557363 8.17333435,10.2661371 8.17324138,9.48082759 C8.16995353,9.42791309 8.16995353,9.37484553 8.17324138,9.32193103 L8.17324138,9.27558621 C8.17746414,9.2298163 8.18521126,9.18444031 8.19641379,9.13986207 L8.19641379,9.11668966 C8.19641379,9.06703448 8.21958621,9.02068966 8.23282759,8.97434483 L8.23282759,8.928 C8.2418624,8.89534504 8.2529182,8.86328323 8.26593103,8.832 C8.26593103,8.81213793 8.28248276,8.79227586 8.28910345,8.77572414 C8.29572414,8.75917241 8.31889655,8.71282759 8.33213793,8.68303448 L8.3817931,8.59696552 L8.42151724,8.53075862 C8.43806897,8.50758621 8.45462069,8.48441379 8.46786207,8.46124138 L8.50096552,8.4182069 C8.56993619,8.33015131 8.646356,8.24819383 8.72937931,8.17324138 C8.84745255,8.06827313 8.97877861,7.97923852 9.12,7.90841379 C9.37150359,7.78263764 9.64990249,7.72013993 9.93103448,7.72634483 C10.199974,7.72520719 10.4653819,7.78758938 10.7056552,7.90841379 C10.8470237,7.97763439 10.9784141,8.06559915 11.0962759,8.16993103 L11.0962759,8.18648276 C11.1738618,8.25806628 11.2458001,8.33553829 11.3114483,8.4182069 L11.3445517,8.46124138 C11.3445517,8.48441379 11.3743448,8.50758621 11.3908966,8.53075862 L11.4306207,8.59696552 C11.4480325,8.62569872 11.4635149,8.65555765 11.4769655,8.68634483 C11.4950379,8.71470226 11.5105475,8.74461364 11.5233103,8.77572414 L11.5464828,8.832 L11.5862069,8.94455172 L11.5862069,8.97434483 C11.5862069,9.02068966 11.6126897,9.06703448 11.6226207,9.11668966 L11.6226207,9.15641379 C11.6226207,9.19613793 11.6226207,9.23586207 11.6424828,9.27889655 L11.6424828,9.33848276 C11.6457706,9.39139725 11.6457706,9.44446482 11.6424828,9.49737931 C11.6415214,10.105907 11.3276316,10.6711586 10.8115862,10.9936552 L10.7983448,11.0002759 Z M9.27558621,6.57765517 L9.70262069,1.20827586 L10.1329655,1.20827586 L10.5931034,6.57765517 C10.1693509,6.48057707 9.72913184,6.48057707 9.30537931,6.57765517 L9.27558621,6.57765517 Z M18.2466207,14.0325517 L18.0314483,14.4066207 L12.1257931,11.4935172 C12.4190127,11.1719324 12.6382202,10.7900142 12.768,10.3746207 L18.2466207,14.0325517 Z" id="Shape"></path>
            </g>
        </g>
    </g>
</svg>