<?xml version="1.0" encoding="UTF-8"?>
<svg width="24px" height="24px" viewBox="0 0 24 24" version="1.1" xmlns="http://www.w3.org/2000/svg" xmlns:xlink="http://www.w3.org/1999/xlink">
    <title>Icon/Outline/woman-outline</title>
    <g id="Icon/Outline/woman-outline" stroke="none" stroke-width="1" fill="none" fill-rule="evenodd">
        <g id="Group" transform="translate(6.000000, 0.000000)" fill="#474747" fill-rule="nonzero">
            <g id="Outline">
                <path d="M5.99997859,1.51008027 C6.93566219,1.53022688 7.67982509,2.30152159 7.66646572,3.23732671 C7.65310635,4.17313183 6.88722949,4.92286951 5.9513521,4.91629809 C5.0154747,4.90972667 4.26020166,4.14930797 4.2599848,3.21340752 C4.27097117,2.26292841 5.04948105,1.50082391 5.99997859,1.51008027 M5.99997859,4.24111936e-05 C4.22930934,0.0166175239 2.80572296,1.46250861 2.8166553,3.23322089 C2.82771418,5.00393317 4.26914721,6.43203332 6.03988521,6.42658967 C7.81062321,6.42111483 9.24322317,4.98415394 9.24330034,3.21340752 C9.23977316,2.35706285 8.89597591,1.53724377 8.2876367,0.934531539 C7.67929748,0.331819306 6.85631906,-0.00434491212 5.99997859,4.24111936e-05 Z M11.9999572,18.9133515 L10.6666286,8.30005603 C10.6666286,8.30005603 8.52330291,6.86672782 6.08331162,6.86672782 C4.5142576,6.91600439 2.99209247,7.41336838 1.69666061,8.30005603 L0,18.9133515 L3.47998758,18.9133515 L3.47998758,24 L4.99998215,24 L4.99998215,18.9133515 L6.87664212,18.9133515 L6.87664212,24 L8.39330338,24 L8.39330338,18.9133515 L11.9999572,18.9133515 Z M2.97665604,9.16671961 C3.91904734,8.62191043 4.98193349,8.31953764 6.06997834,8.28672275 C7.21141585,8.33321536 8.32733105,8.63869572 9.33330002,9.18005289 L10.3332965,17.4933566 L1.72332718,17.4933566 L2.97665604,9.16671961 Z" id="Shape"></path>
            </g>
        </g>
    </g>
</svg>