<?xml version="1.0" encoding="UTF-8"?>
<svg width="24px" height="24px" viewBox="0 0 24 24" version="1.1" xmlns="http://www.w3.org/2000/svg" xmlns:xlink="http://www.w3.org/1999/xlink">
    <title>Icon/Outline/workflow-outline</title>
    <g id="Icon/Outline/workflow-outline" stroke="none" stroke-width="1" fill="none" fill-rule="evenodd">
        <g id="Group" fill="#474747" fill-rule="nonzero">
            <g id="Outline">
                <path d="M8.49998883,1.49334411 L1.5000102,1.49334411 L1.5000102,8.49332274 L8.49998883,8.49332274 L8.49998883,1.49334411 Z M9.24998654,7.63649754e-06 C9.66160925,7.63649754e-06 9.99632538,0.331739946 9.99999167,0.743346401 L9.99999167,9.24665377 C10.0008709,9.44614245 9.92224507,9.63776475 9.781497,9.77913837 C9.64074893,9.92051198 9.44947718,9.99999226 9.24998654,9.99999226 L0.753345812,9.99999226 C0.553278128,10.000876 0.361147202,9.92179362 0.219676582,9.780323 C0.0782059622,9.63885238 -0.000876404379,9.44672146 7.32778363e-06,9.24665377 L7.32778363e-06,0.743346401 C0.0036810778,0.330437078 0.340424364,-0.00183616468 0.753345812,7.63649754e-06 L9.24998654,7.63649754e-06 Z" id="Shape"></path>
                <path d="M4.54333424,12.6666433 L4.54333424,21.3332835 L2.56000696,19.3332896 C2.38137472,19.1594209 2.12355384,19.0940587 1.88366298,19.1618244 C1.64377212,19.2295902 1.45825639,19.4201885 1.39699779,19.6618229 C1.33573918,19.9034574 1.40804434,20.1594179 1.5866766,20.3332866 L5.23333213,23.9999421 L8.87998767,20.3332866 C9.05385639,20.1594179 9.12175986,19.9059987 9.05811949,19.6684896 C8.99447912,19.4309805 8.8089634,19.2454648 8.57145431,19.1818244 C8.33394521,19.118184 8.08052603,19.1860875 7.90665731,19.3599562 L5.92333003,21.3599501 L5.92333003,12.6666433" id="Outline-v2"></path>
                <path d="M15.5033008,22.49328 L22.5032794,22.49328 L22.5032794,15.4933014 L15.5033008,15.4933014 L15.5033008,22.49328 Z M14.7533031,23.9999496 C14.5526537,24.0008418 14.3600106,23.9213032 14.2184422,23.7791084 C14.0768737,23.6369135 13.9981865,23.4439212 13.9999423,23.2432777 L13.9999423,14.7399703 C14.0054563,14.3283668 14.3416673,13.9981065 14.7533031,13.9999647 L23.2532771,13.9999647 C23.6623166,14.0017543 23.9944915,14.3309632 23.9999712,14.7399703 L23.9999712,23.2432777 C24.0017167,23.4427656 23.9239412,23.6347407 23.7838178,23.7767408 C23.6436945,23.9187408 23.452771,23.9990633 23.2532771,23.9999496 L14.7533031,23.9999496 Z" id="Shape"></path>
                <path d="M19.4599554,11.3099808 L19.4599554,2.6433406 L21.4599493,4.64333449 C21.728727,4.91211225 22.1645019,4.91211225 22.4332796,4.64333449 C22.7020574,4.37455674 22.7020574,3.93878189 22.4332796,3.67000413 L18.7732908,1.53367578e-05 L15.1266353,3.66667081 C14.8578575,3.93544857 14.8578575,4.37122341 15.1266353,4.64000116 C15.395413,4.90877892 15.8311879,4.90877892 16.0999656,4.64000117 L18.0999595,2.64000728 L18.0999595,11.3066475" id="Outline-v2-2"></path>
            </g>
        </g>
    </g>
</svg>