<svg width="24" height="24" viewBox="0 0 24 24" fill="none" xmlns="http://www.w3.org/2000/svg">
<g clip-path="url(#clip0_15805_64355)">
<path d="M23.2485 9.87166H21.0552V3.97166C21.0552 2.86832 20.1552 1.96832 19.0519 1.96832C18.5785 1.96832 18.1419 2.13499 17.7985 2.41166C17.4552 2.13499 17.0185 1.96832 16.5452 1.96832C15.4419 1.96832 14.5419 2.86832 14.5419 3.97166V9.87166H9.45187V3.97166C9.45187 2.86832 8.55187 1.96832 7.44854 1.96832C6.9752 1.96832 6.53854 2.13499 6.1952 2.41166C5.85187 2.13499 5.4152 1.96832 4.94187 1.96832C3.83854 1.96832 2.93854 2.86832 2.93854 3.97166V9.87166H0.748535C0.335202 9.87166 -0.00146484 10.2083 -0.00146484 10.6217V13.3783C-0.00146484 13.7917 0.335202 14.1283 0.748535 14.1283H2.94187V20.0283C2.94187 21.1317 3.84187 22.0317 4.9452 22.0317C5.41854 22.0317 5.8552 21.865 6.19854 21.5883C6.54187 21.865 6.97854 22.0317 7.45187 22.0317C8.5552 22.0317 9.4552 21.1317 9.4552 20.0283V14.1283H14.5452V20.0283C14.5452 21.1317 15.4452 22.0317 16.5485 22.0317C17.0219 22.0317 17.4585 21.865 17.8019 21.5883C18.1452 21.865 18.5819 22.0317 19.0552 22.0317C20.1585 22.0317 21.0585 21.1317 21.0585 20.0283V14.1283H23.2519C23.6652 14.1283 24.0019 13.7917 24.0019 13.3783V10.6217C24.0019 10.2083 23.6652 9.87166 23.2519 9.87166H23.2485ZM1.4952 12.6283V11.3717H2.93854V12.6283H1.4952ZM4.94187 20.5317C4.66187 20.5317 4.43854 20.305 4.43854 20.025V3.97166C4.43854 3.69166 4.6652 3.46499 4.94187 3.46499C5.21854 3.46499 5.44854 3.69166 5.44854 3.97166V20.025C5.44854 20.305 5.22187 20.5317 4.94187 20.5317ZM7.9552 20.025C7.9552 20.305 7.72854 20.5317 7.45187 20.5317C7.1752 20.5317 6.9452 20.305 6.9452 20.025V3.97166C6.9452 3.69166 7.17187 3.46499 7.45187 3.46499C7.73187 3.46499 7.9552 3.69166 7.9552 3.97166V20.025ZM9.45187 12.6283V11.3717H14.5419V12.6283H9.45187ZM16.5452 20.5317C16.2652 20.5317 16.0419 20.305 16.0419 20.025V3.97166C16.0419 3.69166 16.2685 3.46499 16.5452 3.46499C16.8219 3.46499 17.0519 3.69166 17.0519 3.97166V20.025C17.0519 20.305 16.8252 20.5317 16.5452 20.5317ZM19.5585 20.025C19.5585 20.305 19.3319 20.5317 19.0552 20.5317C18.7785 20.5317 18.5485 20.305 18.5485 20.025V3.97166C18.5485 3.69166 18.7752 3.46499 19.0552 3.46499C19.3352 3.46499 19.5585 3.69166 19.5585 3.97166V20.025ZM22.4985 12.6283H21.0552V11.3717H22.4985V12.6283Z" fill="black"/>
</g>
<defs>
<clipPath id="clip0_15805_64355">
<rect width="24" height="24" fill="white"/>
</clipPath>
</defs>
</svg>
