<?xml version="1.0" encoding="UTF-8"?>
<svg width="24px" height="24px" viewBox="0 0 24 24" version="1.1" xmlns="http://www.w3.org/2000/svg" xmlns:xlink="http://www.w3.org/1999/xlink">
    <title>Icon/Outline/xbrl-outline</title>
    <g id="Icon/Outline/xbrl-outline" stroke="none" stroke-width="1" fill="none" fill-rule="evenodd">
        <g id="Group" transform="translate(0.000000, 3.000000)" fill="#474747" fill-rule="nonzero">
            <g id="Outline">
                <path d="M22.5,0 L0,0 L0,18 L24,18 L24,1.5 C23.9981668,0.672333382 23.3276666,0.00183315539 22.5,0 Z M22.5,16.5 L1.5,16.5 L1.5,1.5 L22.5,1.5 L22.5,16.5 Z M3.94,6.44 L5.30666667,8.58 L6.73,6.44 L7.54333333,6.44 L5.73333333,9.10666667 L7.66666667,11.9166667 L6.77,11.9166667 L5.29666667,9.66666667 L3.78,11.93 L2.96,11.93 L4.86666667,9.1 L3.06666667,6.43333333 L3.94,6.44 Z M10.5066667,6.44 C11.1733333,6.44 11.64,6.58 11.88,6.85666667 C12.1122855,7.10978829 12.2428671,7.43980363 12.2466667,7.78333333 C12.2535393,8.04979003 12.1803922,8.31219086 12.0366667,8.53666667 C11.8885763,8.75004189 11.677697,8.91198786 11.4333333,9 L11.4333333,9 C11.740258,9.05185212 12.0170164,9.21576907 12.21,9.46 C12.3918263,9.70788219 12.4856777,10.0093799 12.4766667,10.3166667 C12.4931962,10.75119 12.3190834,11.1712525 12,11.4666667 C11.6874226,11.7652888 11.2688342,11.927207 10.8366667,11.9166667 L8.17,11.9166667 L8.17,6.44 L10.5066667,6.44 Z M10.39,8.79666667 C10.684104,8.81521546 10.9769371,8.74433126 11.23,8.59333333 C11.4325834,8.43398594 11.5415412,8.18350829 11.52,7.92666667 C11.5362803,7.68605612 11.4475271,7.45019162 11.2766667,7.28 C11.018971,7.10683555 10.7089236,7.02902898 10.4,7.06 L8.89666667,7.06 L8.89666667,8.80333333 L10.39,8.79666667 Z M10.7533333,11.3033333 C11.0187864,11.3146917 11.2778469,11.2199427 11.4733333,11.04 C11.6604172,10.8535627 11.7607726,10.5972333 11.75,10.3333333 C11.75,9.72666667 11.3433333,9.42 10.53,9.42 L8.89666667,9.42 L8.89666667,11.3166667 L10.7533333,11.3033333 Z M15.6133333,6.44 C16.0439571,6.41957775 16.4668297,6.55974338 16.8,6.83333333 C17.0968584,7.09722142 17.2606114,7.47971912 17.2466667,7.87666667 C17.2466667,8.61888889 16.9288889,9.08111111 16.2933333,9.26333333 L16.2933333,9.26333333 C16.5500427,9.2979576 16.7776398,9.4460181 16.9133333,9.66666667 C17.0641526,9.99337818 17.1382638,10.3502521 17.13,10.71 C17.1314848,10.9626026 17.1616786,11.2142178 17.22,11.46 C17.2599858,11.6245075 17.3337726,11.7788923 17.4366667,11.9133333 L16.6233333,11.9133333 C16.5837627,11.8590886 16.5543953,11.7980947 16.5366667,11.7333333 C16.5366667,11.6733333 16.51,11.5933333 16.4933333,11.49 L16.4633333,10.8933333 C16.460911,10.5754296 16.3904423,10.2617302 16.2566667,9.97333333 C16.1199012,9.70641367 15.83555,9.54844076 15.5366667,9.57333333 L13.7333333,9.57333333 L13.7333333,11.9066667 L13,11.9066667 L13,6.44 L15.6133333,6.44 Z M15.28,8.96333333 C16.0977778,8.96333333 16.5066667,8.63888889 16.5066667,7.99 C16.5228426,7.73646844 16.4349708,7.48729786 16.2633333,7.3 C16.0728993,7.12659718 15.820407,7.03762367 15.5633333,7.05333333 L13.7333333,7.05333333 L13.7333333,8.96333333 L15.28,8.96333333 Z M18.5633333,6.44 L18.5633333,11.3033333 L21.46,11.3033333 L21.46,11.9166667 L17.8433333,11.9166667 L17.8433333,6.44 L18.5633333,6.44 Z" id="Shape"></path>
            </g>
        </g>
    </g>
</svg>