<?xml version="1.0" encoding="UTF-8"?>
<svg width="24px" height="24px" viewBox="0 0 24 24" version="1.1" xmlns="http://www.w3.org/2000/svg" xmlns:xlink="http://www.w3.org/1999/xlink">
    <title>Icon/Outline/xls-outline</title>
    <g id="Icon/Outline/xls-outline" stroke="none" stroke-width="1" fill="none" fill-rule="evenodd">
        <g id="Group" transform="translate(-0.000000, -0.000000)" fill="#474747" fill-rule="nonzero">
            <g id="xls" transform="translate(0.000000, 3.000000)">
                <path d="M22.5,0 C23.3280001,0 24,0.672000003 24,1.5 L24,18 L0,18 L0,0 L22.5,0 Z M1.50000001,16.5 L22.5,16.5 L22.5,1.50000001 L1.50000001,1.50000001 L1.50000001,16.5 Z M7.11120266,8.05073433 L8.09967056,6.08411215 L9.70593087,6.08411215 L7.98846791,8.97596801 L9.83772657,11.9158879 L8.14909391,11.9158879 L7.12767713,9.90921229 L6.10626033,11.9158879 L4.50000002,11.9158879 L6.26276774,8.97596801 L4.5453048,6.08411215 L6.13920925,6.08411215 L7.11120266,8.05073433 Z M11.6952225,10.8744993 L14.2693576,10.8744993 L14.2693576,11.9158879 L10.3031302,11.9158879 L10.3031302,6.08411215 L11.6952225,6.08411215 L11.6952225,10.8744993 Z M18.1079078,10.3698264 C18.1079078,10.1615478 18.037892,10.0020033 17.8978584,9.89118829 C17.7578248,9.78037332 17.503846,9.66221697 17.1359144,9.53671564 C16.391814,9.30173449 15.8392386,9.05140324 15.4781714,8.78571431 C15.1171042,8.52002539 14.9365734,8.13751923 14.9365734,7.63818431 C14.9365734,7.14953028 15.1466207,6.75434065 15.5667217,6.4526035 C15.9868226,6.15086635 16.5208645,6.00000003 17.1688633,6.00000003 C17.852557,6.00000003 18.4030733,6.15553923 18.8204284,6.4666222 C19.2377836,6.77770518 19.4395938,7.21628561 19.425865,7.78237653 L19.4176277,7.80640856 L18.0667217,7.80640856 C18.0667217,7.53137381 17.9898416,7.33177638 17.8360792,7.20761021 C17.6823167,7.08344403 17.4503036,7.02136188 17.140033,7.02136188 C16.8874233,7.02136188 16.6883588,7.08144138 16.5428337,7.20160218 C16.3973085,7.32176298 16.324547,7.46995908 16.324547,7.64619498 C16.324547,7.81709036 16.3993678,7.95393813 16.5490116,8.05674236 C16.6986554,8.15954658 16.9780321,8.28838376 17.38715,8.44325771 C18.0818267,8.64352571 18.6076315,8.88784909 18.96458,9.17623504 C19.3215285,9.46462099 19.5000001,9.85981062 19.5000001,10.3618158 C19.5000001,10.874502 19.2940713,11.2756995 18.8822077,11.5654206 C18.470344,11.8551417 17.9239464,12 17.2429984,12 C16.5647962,12 15.9902551,11.8444608 15.5193576,11.5333779 C15.0484601,11.2222949 14.8198792,10.7329807 14.833608,10.0654206 L14.8418452,10.0413885 L16.1968699,10.0413885 C16.1968699,10.3805091 16.2826735,10.6214946 16.4542834,10.7643525 C16.6258933,10.9072104 16.8887956,10.9786382 17.2429984,10.9786382 C17.5340488,10.9786382 17.7509604,10.922564 17.8937398,10.8104139 C18.0365192,10.6982638 18.1079078,10.5514028 18.1079078,10.3698264 Z" id="Combined-Shape"></path>
            </g>
        </g>
    </g>
</svg>