<svg width="24" height="24" viewBox="0 0 24 24" fill="none" xmlns="http://www.w3.org/2000/svg">
<g clip-path="url(#clip0_15805_64357)">
<path d="M23.9985 22.9333L15.9185 14.8533C17.2519 13.28 18.0685 11.2533 18.0685 9.03333C18.0719 4.05333 14.0185 0 9.0352 0C4.05187 0 -0.00146484 4.05333 -0.00146484 9.03667C-0.00146484 14.02 4.05187 18.0733 9.0352 18.0733C11.2552 18.0733 13.2785 17.2567 14.8552 15.92L22.9352 24L24.0019 22.9333H23.9985ZM1.5052 9.03667C1.5052 4.88333 4.88187 1.50667 9.0352 1.50667C13.1885 1.50667 16.5652 4.88667 16.5652 9.03667C16.5652 13.1867 13.1885 16.5667 9.0352 16.5667C4.88187 16.5667 1.5052 13.1867 1.5052 9.03667ZM9.78187 8.27333H13.7819V9.77333H9.78187V13.7733H8.28187V9.77333H4.28187V8.27333H8.28187V4.27333H9.78187V8.27333Z" fill="black"/>
</g>
<defs>
<clipPath id="clip0_15805_64357">
<rect width="24" height="24" fill="white"/>
</clipPath>
</defs>
</svg>
