<?xml version="1.0" standalone="no"?>
<!DOCTYPE svg PUBLIC "-//W3C//DTD SVG 1.1//EN" "http://www.w3.org/Graphics/SVG/1.1/DTD/svg11.dtd">
<svg xmlns="http://www.w3.org/2000/svg">
<metadata>Copyright (C) 2024 by original authors @ fontello.com</metadata>
<defs>
<font id="appkit4-font" horiz-adv-x="1000" >
<font-face font-family="appkit4-font" font-weight="400" font-stretch="normal" units-per-em="1000" ascent="850" descent="-150" />
<missing-glyph horiz-adv-x="1000" />
<glyph glyph-name="3by3grid-outline" unicode="&#xe800;" d="M938 788l-125 0 0-125 125 0 0 125z m-375 0l-125 0 0-125 125 0 0 125z m-375 0l-125 0 0-125 125 0 0 125z m781 62c17 0 31-14 31-31l0-188c0-17-14-31-31-31l-188 0c-17 0-31 14-31 31l0 188c0 17 14 31 31 31l188 0z m-375 0c17 0 31-14 31-31l0-188c0-17-14-31-31-31l-188 0c-17 0-31 14-31 31l0 188c0 17 14 31 31 31l188 0z m-375 0c17 0 31-14 31-31l0-188c0-17-14-31-31-31l-188 0c-17 0-31 14-31 31l0 188c0 17 14 31 31 31l188 0z m719-437l-125 0 0-125 125 0 0 125z m-375 0l-125 0 0-125 125 0 0 125z m-375 0l-125 0 0-125 125 0 0 125z m781 62c17 0 31-14 31-31l0-188c0-17-14-31-31-31l-188 0c-17 0-31 14-31 31l0 188c0 17 14 31 31 31l188 0z m-375 0c17 0 31-14 31-31l0-188c0-17-14-31-31-31l-188 0c-17 0-31 14-31 31l0 188c0 17 14 31 31 31l188 0z m-375 0c17 0 31-14 31-31l0-188c0-17-14-31-31-31l-188 0c-17 0-31 14-31 31l0 188c0 17 14 31 31 31l188 0z m719-437l-125 0 0-126 125 0 0 126z m-375 0l-125 0 0-126 125 0 0 126z m-375 0l-125 0 0-126 125 0 0 126z m781 62c17 0 31-14 31-31l0-188c0-17-14-31-31-31l-188 0c-17 0-31 14-31 31l0 188c0 17 14 31 31 31l188 0z m-375 0c17 0 31-14 31-31l0-188c0-17-14-31-31-31l-188 0c-17 0-31 14-31 31l0 188c0 17 14 31 31 31l188 0z m-375 0c17 0 31-14 31-31l0-188c0-17-14-31-31-31l-188 0c-17 0-31 14-31 31l0 188c0 17 14 31 31 31l188 0z" horiz-adv-x="1000" />

<glyph glyph-name="add-user-outline" unicode="&#xe801;" d="M500-150c-276 0-500 224-500 500 0 276 224 500 500 500 276 0 500-224 500-500 0-276-224-500-500-500z m0 62c242 0 438 196 438 438 0 242-196 438-438 438-242 0-437-196-437-438 0-242 195-438 437-438z m63 438c-52 0-94 42-94 94 0 52 42 94 94 94 51 0 93-42 93-94 0-52-42-94-93-94z m0-62c106 0 198-44 241-108 22-33 1-80-36-80l-411 0c-37 0-58 47-35 80 42 64 134 108 241 108z m-282 375l63 0 0-94 94 0 0-63-94 0 0-93-63 0 0 93-93 0 0 63 93 0 0 94z" horiz-adv-x="1000" />

<glyph glyph-name="airplane-outline" unicode="&#xe802;" d="M464 425l-395 207 560-43 179 181c0 0 57 57 149 78 93 21 15-129-42-186l-179-180 42-563-206 397-282-284-56-182-50 185-184 50 181 57 283 283z m209 50l-3 30 201 202c14 14 31 37 44 60-6-3-11-6-17-9-13-7-25-16-35-24-6-4-9-7-10-8l-201-202-30 3c-60 6-121 12-179 18-37 4-72 7-105 10 30-15 60-29 91-44 16-8 31-15 44-21 8-4 14-7 17-8l81-38-352-353 16-5 5-16 351 354 38-82c1-3 4-9 8-17 6-13 13-28 21-44 14-31 29-61 43-90-8 85-17 183-28 284z" horiz-adv-x="1000" />

<glyph glyph-name="apparel-outline" unicode="&#xe803;" d="M941 208c-41 22-334 181-407 221l0 30c57 16 91 73 80 132-11 58-65 98-124 92-58-6-103-55-103-115l0-6 65 0 0 6c0 28 22 50 50 50 27 0 49-22 49-50 0-27-22-49-49-49-9 0-17-4-23-10-7-6-10-14-10-23l0-58c-90-49-368-201-405-219-58-28-70-75-62-109 11-41 50-70 93-69l814 0c41-1 78 26 88 67 11 42-11 86-56 110z m-32-113l-814 0c-13-1-26 7-30 20-2 13 8 26 28 36 40 19 319 172 409 222l51-28 357-194c23-13 28-28 25-39l0 0c-3-11-15-18-26-17l0 0z" horiz-adv-x="1000" />

<glyph glyph-name="archive-alt-outline" unicode="&#xe804;" d="M500 83l-350-233c-17 0-25 6-25 23l0 907c0 38 37 70 88 70l575 0c50 0 87-32 87-70l0-907c0-17-8-23-25-23l-350 233z m0 75l313-208 0 830c0 1-8 8-25 8l-575 0c-18 0-25-7-25-8l0-830 312 208z" horiz-adv-x="1000" />

<glyph glyph-name="arrow-decrease-outline" unicode="&#xe805;" d="M938-43l0 862c0 17 14 31 31 31 17 0 31-14 31-31l0-969-969 0c-17 0-31 14-31 31 0 17 14 31 31 31l862 0-884 885c-12 12-12 32 0 44 12 12 32 12 44 0l885-884z" horiz-adv-x="1000" />

<glyph glyph-name="accessible-outline" unicode="&#xe806;" d="M387 680c7 1 13 0 19-1l0 0 195-50c29-7 49-21 60-42 11-21 12-44 4-69l0 0-46-143c-5-15-2-26 4-34 8-7 17-11 28-11l0 0 64 0c26 0 49-6 69-18 19-12 35-28 45-49 12-21 17-46 17-75 0-47-9-91-26-131-17-41-41-77-72-108-30-31-66-56-106-73-40-17-83-26-129-26-67 0-126 13-177 41-49 27-88 64-115 113-28 49-42 107-42 172 0 50 10 97 30 140 20 44 47 81 81 112 6 6 13 10 19 9 6 0 11-2 15-7 4-4 6-9 6-15 0-6-4-11-9-16-31-27-55-59-73-98-18-39-27-80-27-125 0-56 12-106 37-148 24-43 59-76 102-100 44-24 95-36 153-36 40 0 78 8 113 24 35 15 66 36 93 63 27 27 47 58 62 94 16 36 23 74 23 115 0 21-7 38-20 50-12 12-30 19-55 19l0 0-177 0c-19 0-34 5-47 15-12 9-21 22-25 38-4 17-2 37 5 58l0 0 57 166c5 10 5 21 2 32l0 0-148 47-182-98c-7-4-15-6-24-4-7 1-13 5-18 12-5 7-6 14-5 23 1 8 5 14 11 17l0 0 189 109c8 4 14 7 20 8z m450-773c7 0 14-3 20-9 5-5 8-12 8-20 0-8-3-14-9-20-5-5-12-8-19-8-8 0-15 3-20 8-6 6-9 12-9 20 0 8 3 15 8 21 6 5 13 8 21 8z m-133 943c16 0 30-4 43-11 13-8 24-18 31-31 8-13 11-27 11-43 0-15-3-29-11-42-8-13-18-23-31-31-13-8-27-12-43-12-15 0-30 4-42 12-13 8-24 18-31 31-8 13-11 27-11 42 0 16 3 30 11 43 7 13 17 23 30 30 13 8 28 12 43 12z" horiz-adv-x="1000" />

<glyph glyph-name="arrow-up-outline" unicode="&#xe807;" d="M531 730l345-344c12-12 32-12 44 0 12 12 12 32 0 44l-420 420-420-420c-12-12-12-32 0-44 12-12 32-12 44 0l345 344 0-849c0-17 14-31 31-31 17 0 31 14 31 31l0 849z" horiz-adv-x="1000" />

<glyph glyph-name="arrow-down-outline" unicode="&#xe808;" d="M469-30l-345 344c-12 12-32 12-44 0-12-12-12-32 0-44l420-420 420 420c12 12 12 32 0 44-12 12-32 12-44 0l-345-344 0 849c0 17-14 31-31 31-17 0-31-14-31-31l0-849z" horiz-adv-x="1000" />

<glyph glyph-name="alert-outline" unicode="&#xe809;" d="M992 1c23-39-6-89-52-89l-880 0c-46 0-75 50-52 89l440 757c23 39 81 39 104 0l440-757z m-492 721l-435-747 870 0-435 747z m0-622c-17 0-31 14-31 31 0 18 14 32 31 32 17 0 31-14 31-32 0-17-14-31-31-31z m-31 156l0 188c0 17 14 31 31 31 17 0 31-14 31-31l0-188c0-17-14-31-31-31-17 0-31 14-31 31z" horiz-adv-x="1000" />

<glyph glyph-name="arrow-increase-outline" unicode="&#xe80a;" d="M938 743l0-862c0-17 14-31 31-31 17 0 31 14 31 31l0 969-969 0c-17 0-31-14-31-31 0-17 14-31 31-31l862 0-884-885c-12-12-12-32 0-44 12-12 32-12 44 0l885 884z" horiz-adv-x="1000" />

<glyph glyph-name="archive-outline" unicode="&#xe80b;" d="M254 419c0 10 4 19 10 25 7 7 16 11 25 11h422c9 0 18-4 25-11 6-6 10-15 10-25 0-9-4-18-10-24-7-7-16-11-25-11h-422c-4 0-9 1-13 3-5 2-8 4-12 8-3 3-6 7-7 11-2 4-3 9-3 13z m675-473v639h-858v-639c0-53 57-96 110-96h652c26 0 50 10 68 28 18 18 28 42 28 68z m-65 574v-574c0-9-4-16-9-22-6-6-14-9-22-9h-652c-17 0-45 14-45 31v574h728z m136 234c0 26-10 50-28 68-18 18-43 28-68 28h-808c-25 0-50-10-68-28-18-18-28-42-28-68v-128h1000v128z m-934 0c0 9 3 16 9 22 5 6 13 9 21 9h808c8 0 16-3 22-9 5-6 8-13 8-22v-62h-868v62z" horiz-adv-x="1000" />

<glyph glyph-name="arrow-left-outline" unicode="&#xe80c;" d="M120 381l344 345c12 12 12 32 0 44-12 12-32 12-44 0l-420-420 420-420c12-12 32-12 44 0 12 12 12 32 0 44l-344 345 849 0c17 0 31 14 31 31 0 17-14 31-31 31l-849 0z" horiz-adv-x="1000" />

<glyph glyph-name="atm-outline" unicode="&#xe80d;" d="M1000 850l0-353-233 0 0-636-540 0 0 636-227 0 0 353 1000 0z m-283-191l-440 0 0-748 440 0 0 748z m-45-648l0-51-103 0 0 51 103 0z m-111 429c63-26 104-87 104-155 0-92-75-167-168-168-68 0-129 41-155 104-26 63-12 135 36 183 48 48 120 62 183 36z m-64-37c-65 0-118-53-118-118 0-65 53-117 118-117 65 0 118 52 118 117-1 65-53 118-118 118z m453 397l-900 0 0-253 177 0 0 112-115 0 0 51 775 0 0-51-120 0 0-112 183 0 0 253z m-528-190l0-50-103 0 0 50 103 0z" horiz-adv-x="1000" />

<glyph glyph-name="gantt-chart-outline" unicode="&#xe80e;" d="M969 850c17 0 31-14 31-31l0-938c0-17-14-31-31-31l-938 0c-17 0-31 14-31 31l0 938c0 17 14 31 31 31l938 0z m-33-62l-875 0 0-875 875 0 0 875z m-420-111c13 0 24-11 24-24l0-49c0-13-11-24-24-24l-378 0c-14 0-25 11-25 24l0 49c0 13 11 24 25 24l378 0z m-139-283c-14 0-25 11-25 25l0 48c0 14 11 24 25 24l198 0c13 0 24-10 24-24l0-48c0-14-11-25-24-25l-198 0z m370-185l-350 0c-13 0-24 11-24 24l0 49c0 13 11 24 24 24l350 0c14 0 24-11 24-24l0-49c0-13-10-24-24-24l0 0z m152-113l0-49c0-13-10-24-24-24l-322 0c-14 0-25 11-25 24l0 49c0 13 11 24 25 24l322 0c14 0 24-11 24-24l0 0z" horiz-adv-x="1000" />

<glyph glyph-name="arrow-right-outline" unicode="&#xe80f;" d="M880 381l-344 345c-12 12-12 32 0 44 12 12 32 12 44 0l420-420-420-420c-12-12-32-12-44 0-12 12-12 32 0 44l344 345-849 0c-17 0-31 14-31 31 0 17 14 31 31 31l849 0z" horiz-adv-x="1000" />

<glyph glyph-name="box-open-fill" unicode="&#xe810;" d="M528 259l93-155 258 116 5-160c0-6-3-11-7-14l-3-2-346-152 0 367z m-63 13l0-380-348 152c-5 3-9 8-10 13l0 4 0 162 256-117 102 166z m383 205l-2-3 127-164-335-152-111 181-10 16 10 4 321 118z m-705-3l322-116 2-1-2-4-118-194-331 151 127 164z m356 125l251-114-255-93-258 92 262 115z m174 209l327-168-145-156-342 154 160 170z m-345 0l157-170-346-151-139 150 328 171z" horiz-adv-x="1000" />

<glyph glyph-name="exit-fill" unicode="&#xe811;" d="M710 187l-49-50 84-84-662 0 0-70 662 0-84-84 49-49 168 168-168 169 0 0z m-627 28l181 0 0 82-87 0 0 207 83 0 0 81-83 0 0 184 87 0 0 81-181 0 0-635 0 0z m454 635l-95 0-29-155-29 155-95 0 74-316-80-319 95 0 35 173 35-173 95 0-78 319 72 316 0 0z m40 0l93 0 0-635-93 0 0 635z m128 0l0-81 59 0 0-554 94 0 0 554 59 0 0 81-212 0 0 0z" horiz-adv-x="1000" />

<glyph glyph-name="camera-mic-speakers-fill" unicode="&#xe812;" d="M396 69c0-50 54-90 104-90 48 0 99 37 103 84l1 6 46 0c0-65-58-119-120-133l-7-1 0-11 37 0 0-46-120 0 0 46 37 0 0 11c-62 10-122 62-127 126l0 8 46 0z m186 96l0-79c-2-44-38-79-82-79-42 0-77 32-82 73l0 6 0 79 164 0z m-59 685l0-449 420-273-26-38-417 271-417-271-26 38 420 273 0 449 46 0z m-65-562c26 15 58 15 84 0 26-15 41-44 40-74l0-3-164 0 0 10c1 27 16 53 40 67z m310 422c7 5 16 6 24 2 7-4 12-12 12-20l0 0 0-312c0-12-10-22-23-22-5 0-10 1-14 4l0 0-125 92-41 0c-13 0-23 11-23 24l0 0 0 117c0 6 3 12 7 16 4 4 10 7 16 7l0 0 42 0z m169-21c40-40 63-95 63-152 0-54-20-105-56-144l-7-8-32 32 6 7c25 28 40 64 43 103l0 9c0 42-16 82-43 113l-7 7 33 33z m-641-13c13 0 23-10 23-23l0 0 0-28 68 24c8 4 16 4 24 0 7-4 11-11 11-20l0 0 0-186c0-8-4-16-11-20-8-4-16-4-24 0l0 0-68 24 0-28c1-6-2-12-6-16-5-4-11-7-17-6l0 0-273 0c-6 0-12 2-16 6-5 5-7 10-7 16l0 0 0 234c0 13 10 23 23 23l0 0z m581-33c29-28 45-67 45-107 0-37-14-72-38-100l-7-7-32 33c20 20 31 46 31 74 0 25-9 49-26 68l-5 6 32 33z" horiz-adv-x="1000" />

<glyph glyph-name="audience-outline" unicode="&#xe813;" d="M625 202c47 15 100 23 156 23 83 0 159-18 219-47l0-203-375 0-625 0 0 246c86 41 194 67 313 67 118 0 226-26 312-67l0-19z m-62-24l0 2c-74 29-160 45-250 45-91 0-177-16-250-45l0-142 500 0 0 140z m-250 235c-87 0-157 70-157 156 0 86 70 156 157 156 86 0 156-70 156-156 0-86-70-156-156-156z m0 62c51 0 93 42 93 94 0 51-42 94-93 94-52 0-94-43-94-94 0-52 42-94 94-94z m468-187c-69 0-125 56-125 125 0 68 56 125 125 125 69 0 125-57 125-125 0-69-56-125-125-125z m0 62c35 0 63 28 63 63 0 34-28 62-63 62-34 0-62-28-62-62 0-35 28-63 62-63z m-156-312l313 0 0 98c-47 17-101 27-157 27-56 0-109-10-156-27l0-98z" horiz-adv-x="1000" />

<glyph glyph-name="circle-percent-fill" unicode="&#xe814;" d="M500 850c133 0 260-53 354-146 93-94 146-221 146-354 0-276-224-500-500-500-276 0-500 224-500 500 0 276 224 500 500 500z m142-516c-61 0-111-50-111-112 0-61 50-110 111-110 30 0 58 11 79 32 21 21 33 50 32 79 0 62-50 111-111 111z m5 216l-356-356 44-44 357 356-45 44z m-5-277c28 0 50-22 50-50 0-27-22-49-50-49-27 0-49 22-49 49 0 28 22 50 49 50z m-305 313c-62 0-111-50-111-111 0-30 12-58 33-79 21-21 49-32 79-32 61 0 110 50 110 112 0 61-50 110-111 110z m19-65c19-8 31-26 31-46 0-27-22-49-49-49-20 0-38 12-46 30-8 19-3 40 11 54 14 14 35 18 53 11z" horiz-adv-x="1000" />

<glyph glyph-name="battery-medium-outline" unicode="&#xe815;" d="M951 435l0 51-69 0 0 72-861 0c-5 0-11-2-15-6-4-4-6-9-6-15l0-374c0-5 2-11 6-15 4-4 10-6 16-6l861 0 0 59 68 0 0 45 49 0 0 189-49 0z m-132-230l-756 0 0 290 756 0 0-290z m-405 48l-127 0 0 197 127 0 0-197z m-175 0l-126 0 0 197 126 0 0-197z" horiz-adv-x="1000" />

<glyph glyph-name="battery-low-outline" unicode="&#xe816;" d="M951 435l0 51-69 0 0 72-861 0c-5 0-11-2-15-6-4-4-6-9-6-15l0-374c0-5 2-11 6-15 4-4 10-6 16-6l861 0 0 59 68 0 0 45 49 0 0 189-49 0z m-132-230l-756 0 0 290 756 0 0-290z m-580 48l-126 0 0 197 126 0 0-197z" horiz-adv-x="1000" />

<glyph glyph-name="bargraph-outline" unicode="&#xe817;" d="M646 600l0 250-292 0 0-542-229 0 0-458 750 0 0 750-229 0z m-292-688l-166 0 0 334 166 0 0-334z m229 688l0 0 0-688-166 0 0 876 166 0 0-188z m230-688l-167 0 0 626 167 0 0-626z" horiz-adv-x="1000" />

<glyph glyph-name="avatar-outline" unicode="&#xe818;" d="M250-9c71-50 157-79 250-79 93 0 179 29 250 79-71 49-157 78-250 78-93 0-179-29-250-78z m-50 40c84 63 188 100 300 100 113 0 216-37 300-100 85 80 138 193 138 319 0 242-196 438-438 438-242 0-437-196-437-438 0-126 52-239 137-319z m300-181c-276 0-500 224-500 500 0 276 224 500 500 500 276 0 500-224 500-500 0-276-224-500-500-500z m0 406c-86 0-156 70-156 157 0 86 70 156 156 156 86 0 156-70 156-156 0-87-70-157-156-157z m0 63c52 0 94 42 94 94 0 51-42 93-94 93-52 0-94-42-94-93 0-52 42-94 94-94z" horiz-adv-x="1000" />

<glyph glyph-name="art-themes-outline" unicode="&#xe819;" d="M514 787c8 0 16 0 24 0 49-3 97-13 143-31 32-13 63-31 91-52 30-23 58-49 82-78 23-28 41-60 51-95 7-25 6-50-3-74-8-22-23-40-42-53-19-11-40-18-61-23-23-5-45-13-66-24-57-32-83-99-64-161 8-22 19-42 33-62 12-17 22-36 28-56 6-22 3-45-6-66-10-24-27-44-49-57-32-19-68-32-105-37-23-3-46-5-69-5-15 0-30 0-44 2-36 3-71 11-104 23-56 21-107 52-150 93-43 39-77 88-101 141-24 52-37 108-39 165 0 2 3 252 215 384 36 22 75 39 116 50 39 10 80 16 120 16m0 63c-46 0-92-6-136-18-47-12-92-31-134-57-212-132-246-375-244-440 2-65 17-129 44-189 28-61 67-116 116-161 49-46 107-82 170-106 39-14 79-23 121-27 16-1 33-2 50-2 26 0 53 2 79 6 46 6 90 22 129 46 33 21 59 51 74 87 14 33 17 70 8 105-8 27-20 52-36 75-11 14-19 30-26 47-5 16-4 34 2 49 6 16 18 29 33 37 16 8 34 14 51 18 28 6 54 16 79 30 30 20 54 49 66 83 14 36 16 76 6 113-12 44-34 84-63 119-27 34-58 64-93 89-33 25-68 46-107 61-51 20-106 31-161 34-9 0-19 1-28 1l0 0z m-273-543c27 0 49-22 49-49 0-27-22-49-49-49-27 0-49 22-49 49 0 27 22 49 49 49m0 48c-54 0-97-43-97-97 0-54 43-97 97-97 54 0 97 43 97 97 0 54-43 97-97 97z m71 231c26 0 48-22 48-48 0-27-22-49-48-49-27 0-49 22-49 49 0 26 22 48 49 48m0 49c-40 0-75-24-90-60-15-37-7-78 21-106 28-28 69-36 106-21 36 15 60 50 60 90 0 53-44 97-97 97l0 0z m298 41c27 0 49-21 49-48 0-27-22-49-49-49-27 0-48 22-48 49 0 27 21 48 48 48m0 49c-54 0-97-43-97-97 0-54 43-97 97-97 54 0 97 43 97 97 0 54-43 97-97 97l0 0z m-114-611c27 0 48-22 48-49 0-27-21-48-48-48-27 0-49 21-49 48 0 27 22 49 49 49m0 49c-54 0-98-44-98-98 0-53 44-97 98-97 53 0 97 44 97 97 0 54-44 98-97 98z" horiz-adv-x="1000" />

<glyph glyph-name="battery-high-outline" unicode="&#xe81a;" d="M951 435l0 51-69 0 0 72-861 0c-5 0-11-2-15-6-4-4-6-9-6-15l0-374c0-5 2-11 6-15 4-4 10-6 16-6l861 0 0 59 68 0 0 45 49 0 0 189-49 0z m-132-230l-756 0 0 290 756 0 0-290z m-405 48l-127 0 0 197 127 0 0-197z m-175 0l-126 0 0 197 126 0 0-197z m524 0l-127 0 0 197 127 0 0-197z m-175 0l-127 0 0 197 127 0 0-197z" horiz-adv-x="1000" />

<glyph glyph-name="circuit-board-box-fill" unicode="&#xe81b;" d="M858 850c23 0 42-17 44-40l0-5 0-910c0-23-17-42-40-45l-4 0-688 0c-23 0-42 17-45 40l0 5 0 910c0 23 18 42 40 45l5 0 688 0z m-74-739l-547 0 0-111 547 0 0 111z m-32-23l0-59-391 0 0 59 391 0z m32 217l-547 0 0-111 547 0 0 111z m-129-23l0-58-390 0 0 58 390 0z m129 217l-547 0 0-110 547 0 0 110z m-32-23l0-58-391 0 0 58 391 0z m32 223l-547 0 0-116 547 0 0 116z m-32-29l0-58-391 0 0 58 391 0z" horiz-adv-x="1000" />

<glyph glyph-name="automobile-outline" unicode="&#xe81c;" d="M743 453l-93 147-533 0-117-163 0-239 104 0c14-56 64-96 123-96 58 0 108 40 122 96l189 0c13-56 64-96 122-96 58 0 109 40 123 96l217 0 0 173-257 82z m-127 84l86-136 0-1 235-76 0-64-154 0c-14 57-65 96-123 96-58 0-109-39-122-96l-189 0c-14 57-64 96-122 96-59 0-109-39-123-96l-42 0 0 157 87 120 467 0z m-325-307c-1-36-30-64-65-64-35 0-64 29-64 64 0 36 29 65 65 64 35 0 64-29 64-64l0 0z m433 0c0-36-29-64-64-64-36 0-64 29-64 64 0 36 29 64 64 64 17 0 34-6 46-19 12-12 19-28 18-45z" horiz-adv-x="1000" />

<glyph glyph-name="boat-outline" unicode="&#xe81d;" d="M995 343c-5 7-14 11-23 11l-272 0c-12 10-37 37-64 64-121 118-125 147-188 147l-133 0-53 77-162 0 14-77-54 0 0-211-33 0c-8 0-16-3-21-10-5-6-7-14-5-22l37-201c4-20 22-35 42-34l0 0 667 3c15 0 29 6 39 18 58 66 203 198 205 199 10 9 12 24 4 36l0 0z m-882 11l0 148 300 0c43 0 57-11 77-33l-320 0 0-115-57 0z m137 0l0 52 303 0 64-53-367 1z m635-61l-150-139c-66-1-580-1-639-1l-26 140 815 0z m-726 273l-9 40 88 0 28-41-107 1z" horiz-adv-x="1000" />

<glyph glyph-name="brightness-outline" unicode="&#xe81e;" d="M500 163c104 0 188 83 188 187 0 104-84 188-188 188-104 0-187-84-187-188 0-104 83-187 187-187z m0-63c-138 0-250 112-250 250 0 138 112 250 250 250 138 0 250-112 250-250 0-138-112-250-250-250z m-469 281l125 0c18 0 32-14 32-31 0-17-14-31-32-31l-125 0c-17 0-31 14-31 31 0 17 14 31 31 31z m813 0l125 0c17 0 31-14 31-31 0-17-14-31-31-31l-125 0c-17 0-31 14-31 31 0 17 14 31 31 31z m-375-500l0 125c0 18 14 32 31 32 17 0 31-14 31-32l0-125c0-17-14-31-31-31-17 0-31 14-31 31z m0 813l0 125c0 17 14 31 31 31 17 0 31-14 31-31l0-125c0-17-14-31-31-31-17 0-31 14-31 31z m340-698l-88 89c-12 12-12 32 0 44 12 12 32 12 44 0l89-88c12-13 12-32 0-45-13-12-32-12-45 0z m-574 575l-89 88c-12 13-12 32 0 45 13 12 32 12 45 0l88-89c12-12 12-32 0-44-12-12-32-12-44 0z m619 88l-89-88c-12-12-32-12-44 0-12 12-12 32 0 44l88 89c13 12 32 12 45 0 12-13 12-32 0-45z m-575-574l-88-89c-13-12-32-12-45 0-12 13-12 32 0 45l89 88c12 12 32 12 44 0 12-12 12-32 0-44z" horiz-adv-x="1000" />

<glyph glyph-name="calculator-outline" unicode="&#xe81f;" d="M1000 850l0-852c0-26-16-49-40-58-145-57-299-86-455-87-158 1-315 31-463 86-23 8-39 29-42 53l0 6 0 852 1000 0z m-62-62l-876 0 0-790c142-53 292-82 443-83 139 1 277 26 408 74l25 9 0 790z m-334-659c23 0 42-18 42-41 0-23-19-42-42-42-23 0-41 19-41 42 0 23 18 41 41 41z m-416 0c23 0 41-18 41-41 0-23-18-42-41-42-23 0-42 19-42 42 0 23 19 41 42 41z m208 0c23 0 42-18 42-41 0-23-19-42-42-42-23 0-42 19-42 42 0 23 19 41 42 41z m417 0c23 0 41-18 41-41 0-23-18-42-41-42-23 0-42 19-42 42 0 23 19 41 42 41z m-209 195c23 0 42-19 42-42 0-23-19-41-42-41-23 0-41 18-41 41 0 23 18 42 41 42z m-416 0c23 0 41-19 41-42 0-23-18-41-41-41-23 0-42 18-42 41 0 23 19 42 42 42z m208 0c23 0 42-19 42-42 0-23-19-41-42-41-23 0-42 18-42 41 0 23 19 42 42 42z m417 0c23 0 41-19 41-42 0-23-18-41-41-41-23 0-42 18-42 41 0 23 19 42 42 42z m31 407l0-264-694 0 0 264 694 0z m-63-63l-568 0 0-139 568 0 0 139z" horiz-adv-x="1000" />

<glyph glyph-name="calendar-accepted-outline" unicode="&#xe820;" d="M938 538l0-63 0-563c0-34-28-62-63-62l-750 0c-34 0-62 28-62 62l0 813 156 0 0 125 62 0 0-125 438 0 0 125 62 0 0-125 157 0 0-187z m-813 0l750 0 0 125-750 0 0-125z m0-626l750 0 0 563-750 0 0-563z m174 303l111-111 277 277 49-49-326-326-160 160 49 49z" horiz-adv-x="1000" />

<glyph glyph-name="beaker-outline" unicode="&#xe821;" d="M713-150l-456 0c-70 0-125 26-153 73-28 48-28 109 3 172l231 415 0 215-32 27c-29 24-24 48-21 58 7 18 28 40 93 40l213 0c65 0 87-22 93-40 4-10 8-34-21-58l-32-27 0-215 232-415c31-63 32-125 3-172-29-46-83-73-153-73z m-357 938l41-35 0-257-238-427c-21-44-23-85-5-114 17-29 54-45 103-45l456 0c49 0 85 16 103 45 18 29 16 70-6 114l-238 427 0 257 42 35c-8 1-15 2-23 2l-213 0c-7 0-15-1-22-2z" horiz-adv-x="1000" />

<glyph glyph-name="bridge-chart-outline" unicode="&#xe822;" d="M938 788l0-876-70 0 0 876 70 0m62 62l-194 0 0-1000 194 0 0 1000z m-331-62l0-269-69 0 0 269 69 0m63 62l-195 0 0-394 195 0 0 394z m-332-382l0-111-69 0 0 111 69 0m63 62l-194 0 0-236 194 0 0 237 0-1z m-331-244l0-374-69 0 0 374 69 0m62 63l-194 0 0-499 194 0 0 499z" horiz-adv-x="1000" />

<glyph glyph-name="box-open-outline" unicode="&#xe823;" d="M498 315l1-2c-1-1-2-3-2-4-1 1-2 3-3 5l0 1c2-1 3-1 4 0l0 0z m396-4l-17 21 1-28 16 7z m-795 0l10-5 0 18-10-13z m398-375c-3-6-9-10-15-11l15-6 15 6c-3 0-6 1-9 3-3 2-5 5-6 8l0 0z m-354 139l2-1c-1 2-2 3-2 4l0-3z m707 0l0 3c0-1-1-3-2-4l2 1z m-354 242l-2-2c2-1 3-1 4 0l-2 2z m2-2l1-2c0 1 1 1 1 2-1 0-1 0-2 0z m494-27l-113-49 5-175c0-7-4-13-10-15l-371-164c-2-1-4-1-6-1-3 0-5 0-7 1l-371 164c-6 2-9 8-10 15l0 176-109 48 149 193-146 157 326 170 171-184 173 184 327-167-153-165 145-188z m-407 338l218-109 94 102-215 110-97-103z m-386-112l218 110-97 103-215-112 94-101z m-24-237l158-69 81 106-233 103-7-8-66-85-10-13 10-5 67-29z m289-2l-109-143-180 80 0-116 289-128 0 307z m293 189l-260 124-36-17-219-110 255-112 260 115z m62-252l-182-80-108 142 0-306 290 128 0 116z m75 99l-17 21-58 76-8 9-2 4-232-104 2-3 81-106 159 69 59 26 16 8z" horiz-adv-x="1000" />

<glyph glyph-name="bar-chart-outline" unicode="&#xe824;" d="M313 850l375 0 0-250 312 0 0-750-1000 0 0 500 313 0 0 500z m-250-938l250 0 0 376-250 0 0-376z m625 0l250 0 0 626-250 0 0-626z m-313 876l0-876 250 0 0 876-250 0z" horiz-adv-x="1000" />

<glyph glyph-name="box-outline" unicode="&#xe825;" d="M1000 621l0 0c0 5-3 10-8 13l-487 215c-1 1-3 1-5 1-2 0-4 0-6-1l-486-216c-5-2-8-7-8-13l0-541c0-6 3-10 8-13l486-215c2 0 4-1 6-1 2 0 3 0 5 1l486 215c5 2 8 7 8 12l1 543z m-535-237l0-445-397 175 0 444 397-174z m411 226l-376-166-376 166 376 166 376-166z m55-496l-397-175 0 444 397 177 0-446z" horiz-adv-x="1000" />

<glyph glyph-name="bubble-plot-outline" unicode="&#xe826;" d="M63-150c-35 0-63 28-63 62l0 876c0 34 28 62 63 62l875 0c34 0 62-28 62-62l0-876c0-34-28-62-62-62l-875 0z m0 62l875 0 0 876-875 0 0-876z m650 438c87 3 159-64 162-151 3-86-64-158-151-161-1 0-3 0-5 0-84 0-153 66-156 150-3 86 64 159 150 162z m9-250c52 2 92 46 90 97-1 52-45 92-97 91-51-2-92-46-90-98 2-51 46-91 97-90z m-401 469c113 3 206-84 210-196 2-54-17-106-54-146-37-39-87-62-141-64-3 0-5 0-8 0-109 0-199 86-203 195-4 112 84 207 196 211z m110-299c26 27 39 63 38 101-3 77-70 138-146 135-77-3-138-68-135-145 2-78 68-138 145-136 38 1 73 17 98 45z m256 143c-66 0-122 53-124 120-2 33 10 65 33 90 23 24 54 38 87 39 34 2 65-10 90-33 24-23 38-54 39-87 2-33-10-65-33-90-23-24-54-38-87-39-2 0-3 0-5 0z m-45 167c-12-12-18-28-17-45 1-16 8-32 20-43 12-12 27-17 45-17 16 1 32 8 43 20 12 12 18 28 17 45-1 16-8 32-20 43-12 12-27 18-45 17-16-1-32-8-43-20z" horiz-adv-x="1000" />

<glyph glyph-name="business-services-printer-outline" unicode="&#xe827;" d="M459 850l28-33-289-242 563 0 0-218 116 97 28-33-144-121 0-135 116 97 27-34-144-120 0-124c0-23-18-43-41-45l0 0 0-89-148 0 0 89-253 0 0-89-148 0 0 89c-25 0-45 20-45 45l0 0 0 591 5 0 329 275z m-171-911l-87 0 0-59 87 0 0 59z m400 0l-87 0 0-59 87 0 0 59z m27 454l-545 0 0-409 545 0 0 409z m0 136l-545 0 0-91 545 0 0 91z m-47-24l0-46-46 0 0 46 46 0z" horiz-adv-x="1000" />

<glyph glyph-name="bus-public-transportation-outline" unicode="&#xe828;" d="M509 850c205 0 424-41 424-131l0-82 48 0 0-258-48 0 0-274c0-36-14-70-40-95l0-62c0-54-44-98-98-98l-11 0c-55 0-99 44-99 98l0 23-351 0 0-23c0-54-44-98-99-98l-11 0c-54 0-98 44-98 98l0 62c-26 25-40 59-40 95l0 274-44 0 0 258 44 0 0 82c0 90 219 131 423 131z m0-48c-247 0-375-58-375-83l0-130-44 0 0-162 19 0 4-1 21-3 0-318c0-25 11-50 31-66l9-7 0-84c0-28 22-50 50-50l11 0c28 0 50 22 50 50l0 71 449 0 0-71c0-27 22-50 50-50l11 0c28 1 50 23 50 50l0 84 8 7c20 16 32 41 32 66l0 322 47 0 0 162-47 0 0 130c0 25-128 83-376 83z m284-630c27-11 45-38 45-68 0-40-33-72-73-72-29 0-56 17-67 45-11 27-5 58 16 79 21 21 52 27 79 16z m-511 0c27-12 45-38 45-68 0-40-33-72-73-72-30 0-56 17-68 45-11 27-5 58 16 79 21 21 52 27 80 16z m-28-43l0 0c-14 0-25-11-25-25 0-14 11-25 25-25 13 0 24 11 24 25 0 7-2 13-7 18-4 4-11 7-17 7z m511 0l0 0c-10 0-19-6-23-15-3-10-1-20 6-27 7-7 17-10 27-6 9 4 15 13 15 23 0 7-3 13-7 18-5 4-11 7-18 7z m15 508c47 0 85-38 85-85l0-262c0-47-38-85-85-85l0 0-541 0c-47 0-85 38-85 85l0 262c0 47 38 85 85 85l541 0z m0-48l-541 0c-20 0-37-17-37-37l0-262c0-10 4-19 11-26 7-7 16-11 26-11l541 0c10 0 19 4 26 11 7 7 11 16 11 26l0 262c0 20-17 37-37 37z m-141 161l0-68-273 0 0 68 273 0z" horiz-adv-x="1000" />

<glyph glyph-name="bot-outline" unicode="&#xe829;" d="M531 850l0-96 136 0c30 0 59-12 80-34 19-19 31-45 33-72l0-8 0-241-222 0 0-58 110 0c111 0 202-81 207-182l0-9 0-300-750 0 0 342c0 65 91 144 198 149l9 0 111 0 0 58-223 0 0 241c0 30 12 59 33 80 20 20 45 32 72 34l8 0 136 0 0 96 62 0z m137-571l-336 0c-81 0-141-57-145-84l0-3 0-280 626 0 0 238c0 71-65 129-145 129z m-32-194l0-110-115 0 0 110 115 0z m-231-3c17 0 32-14 32-32 0-18-15-32-32-32-18 0-32 14-32 32 0 18 14 32 32 32z m231 117l0-60-115 0 0 60 115 0z m-231 4c17 0 32-14 32-32 0-18-15-32-32-32-18 0-32 14-32 32 0 18 14 32 32 32z m262 482l-334 0c-12 0-23-5-31-13-8-7-12-17-13-27l-1-5 0-172 423 0 0 172c0 12-4 23-13 32-8 8-19 13-31 13z m-254-43c24 0 43-19 43-43 0-24-19-43-43-43-23 0-43 19-43 43 0 24 20 43 43 43z m174 0c23 0 43-19 43-43 0-24-20-43-43-43-24 0-43 19-43 43 0 24 19 43 43 43z" horiz-adv-x="1000" />

<glyph glyph-name="building-outline" unicode="&#xe82a;" d="M875-88l125 0 0-62-1000 0 0 62 125 0 0 876c0 34 28 62 63 62l437 0c35 0 63-28 63-62l0-125 125 0c34 0 62-28 62-63l0-688z m-62 0l0 688-125 0-63 0 0 63 0 125-437 0 0-876 625 0z m-532 219l0 63 63 0 0-63-63 0z m0 250l0 63 63 0 0-63-63 0z m0 250l0 63 63 0 0-63-63 0z m188-562l0 125 62 0 0-125-62 0z m0 312l0 63 62 0 0-63-62 0z m0 250l0 63 62 0 0-63-62 0z m187-500l0 63 63 0 0-63-63 0z m0 250l0 63 63 0 0-63-63 0z" horiz-adv-x="1000" />

<glyph glyph-name="call-outline" unicode="&#xe82b;" d="M778-150c-55 2-108 14-158 37-111 46-231 132-341 242-110 109-196 230-242 341-52 124-49 223 9 281l68 68c23 23 55 34 87 30 32-4 61-23 77-51l132-231c24-41 17-92-16-125l-46-46c0-1 0-2 0-3 29-36 60-70 93-102 32-33 66-64 102-93 1 0 2 0 3 0l46 46c33 33 84 40 125 17l231-134c28-16 47-44 51-76 4-32-7-64-29-87l-69-68c-33-31-78-48-123-46l0 0z m-591 937c-11 0-21-4-29-12l-68-68c-38-38-36-116 4-213 44-103 124-217 228-321 104-104 219-185 322-229 97-40 175-42 213-4l68 69c9 9 14 21 12 34l0 0c-2 13-9 24-21 30l-231 134c-16 9-36 6-49-7l-46-45c-23-24-60-26-86-5-38 30-74 63-108 97-34 34-66 70-97 107-20 26-18 63 5 86l46 46c13 13 15 33 6 50l-133 231c-6 11-17 19-30 20l-6 0z" horiz-adv-x="1000" />

<glyph glyph-name="camera-outline" unicode="&#xe82c;" d="M329 756l342 0c13 0 26-6 34-17l108-139 125 0c34 0 62-28 62-62l0-532c0-34-28-62-62-62l-875 0c-35 0-63 28-63 62l0 532c0 34 28 62 63 62l125 0 107 139c8 11 21 17 34 17z m452-218l-125 156-312 0-125-156-156 0 0-532 875 0 0 532-157 0z m-281-375c-86 0-156 70-156 156 0 86 70 156 156 156 86 0 156-70 156-156 0-86-70-156-156-156z m0 250c-52 0-94-43-94-94 0-52 42-94 94-94 52 0 94 42 94 94 0 51-42 94-94 94z" horiz-adv-x="1000" />

<glyph glyph-name="capital-outline" unicode="&#xe82d;" d="M94-88l-94 0 0-62 999 0 0 62-93 0 0 563 94 0 0 118-500 257-500-254 0-121 95 0-1-563z m62 563l188 0 0-563-188 0 0 563z m438 0l0-563-188 0 0 563 188 0z m340 63l-869 0 0 16 435 220 434-221 0-15z m-90-626l-188 0 0 563 188 0 0-563z" horiz-adv-x="1000" />

<glyph glyph-name="camera-mic-speakers-outline" unicode="&#xe82e;" d="M650 66c0-65-58-120-120-134l-7-1 0-12 37 0 0-46-120 0 0 46 37 0 0 11c-62 11-122 63-127 128l0 7 46 0c0-50 54-91 104-91 48 0 99 38 103 85l1 7 46 0z m-108 219c24-14 39-40 40-67l0-136c0-45-37-82-82-82-22 1-43 9-58 25-14 13-22 31-24 50l0 8 0 135c1 27 16 53 40 67 26 15 58 15 84 0z m-6-124l-72 0 0-79c0-18 14-33 32-35l4 0c10 0 19 4 25 10 6 6 10 13 11 21l0 5 0 78z m-13 689l0-451 420-274-26-39-417 273-417-273-26 39 420 274 0 451 46 0z m-23-600c-33 0-34-22-35-39l0-3 70 0c-1 18 0 42-35 42z m267 459c7 5 16 6 24 2 8-4 13-12 13-20l0 0 0-313c0-8-5-16-13-20-3-2-7-3-10-3-5 0-10 2-14 5l0 0-125 93-41 0c-12 0-23 9-23 22l0 0 0 118c0 13 10 23 23 23l0 0 41 0z m170-21c82-82 84-213 7-298l-7-7-33 32c43 43 60 106 44 164-7 26-19 49-37 69l-7 7 33 33z m-641-13c7 0 12-2 17-7 4-4 7-10 6-16l0 0 0-28 68 24c8 4 16 4 24 0 7-4 11-12 11-20l0 0 0-187c0-8-4-16-11-20-8-4-16-4-24 0l0 0-68 24 0-28c0-6-2-12-6-16-5-5-11-7-17-7l0 0-273 0c-13 0-23 10-23 23l0 0 0 235c0 13 10 23 23 23l0 0z m462-30l-94-71c-5-2-9-4-14-4l0 0-26 0 0-72 26 0c5 0 9-1 14-4l0 0 94-70 0 221z m119-3c29-28 45-67 45-107 0-37-14-73-38-101l-7-7-32 33c13 13 23 29 28 47 8 34 0 70-23 97l-5 5 32 33z m-604-13l-227 0 0-189 227 0 0 189z m102-41l-56-17 0-73 56-17 0 107z" horiz-adv-x="1000" />

<glyph glyph-name="change-outline" unicode="&#xe82f;" d="M83 850c-46 0-83-37-83-83l0-834c0-46 37-83 83-83l834 0c46 0 83 37 83 83l0 917-917 0z m834-938l-834 0c-11 0-20 10-20 21l0 221 625 1-149-147c-11-11-11-29 0-40 11-11 29-11 40 0l216 216-216 215c-11 11-29 11-40 0-11-11-11-29 0-40l148-147-624-1 0 555c-1 6 2 11 6 15 3 4 9 7 14 7l855 0 0-244-625 1 148 147c7 7 10 18 7 27-3 10-10 18-20 20-10 3-20 0-27-7l-216-216 216-215c11-11 29-11 40 0 11 11 11 29 0 40l-148 147 625-1 0-554c0-5-2-11-6-15-4-4-10-6-15-6z" horiz-adv-x="1000" />

<glyph glyph-name="calendar-declined-outline" unicode="&#xe830;" d="M938 538l0-63 0-563c0-34-28-62-63-62l-750 0c-34 0-62 28-62 62l0 813 156 0 0 125 62 0 0-125 438 0 0 125 62 0 0-125 157 0 0-187z m-813 0l750 0 0 125-750 0 0-125z m0-626l750 0 0 563-750 0 0-563z m563 136l-42-42-146 146-146-146-41 42 146 146-146 146 41 41 146-146 146 146 42-41-147-146 147-146z" horiz-adv-x="1000" />

<glyph glyph-name="calendar-outline" unicode="&#xe831;" d="M938 538l0-63 0-563c0-34-28-62-63-62l-750 0c-34 0-62 28-62 62l0 813 156 0 0 125 62 0 0-125 438 0 0 125 62 0 0-125 157 0 0-187z m-813 0l750 0 0 125-750 0 0-125z m0-626l750 0 0 563-750 0 0-563z m625 63l0 63 63 0 0-63-63 0z" horiz-adv-x="1000" />

<glyph glyph-name="chevron-double-down-outline" unicode="&#xe832;" d="M946 840l-446-446-446 446c-12 12-31 11-43-1-12-12-13-31-1-43l490-490 490 490c8 8 12 20 9 31-3 11-11 19-22 22-11 3-23-1-31-9m0-455l-446-446-446 446c-8 8-19 12-30 9-12-3-20-11-23-23-3-11 1-22 9-30l490-490 490 490c8 8 12 19 9 30-3 12-11 20-22 23-11 3-23-1-31-9" horiz-adv-x="1000" />

<glyph glyph-name="circle-delete-outline" unicode="&#xe833;" d="M500 850c276 0 500-224 500-500 0-276-224-500-500-500-276 0-500 224-500 500 0 276 224 500 500 500z m0-938c241 0 438 197 438 438 0 241-197 438-438 438-241 0-437-197-437-438 0-241 196-438 437-438z m156 638l45-44-157-156 157-156-45-44-156 156-156-156-44 44 156 156-156 156 44 44 156-156 156 156z" horiz-adv-x="1000" />

<glyph glyph-name="carers-space-outline" unicode="&#xe834;" d="M681 439l0 55c0 1 0 2 0 4l0 58-34 0c-1 50-31 96-78 115-8 3-14 10-16 18l-2 10c-1 7 1 13 4 19 12 20 15 43 10 65-7 29-29 53-57 63-29 9-61 3-84-17-33-27-41-74-20-111 4-5 6-12 5-19l-2-10c-2-8-8-15-16-18-47-19-77-65-78-115l-34 0 0-117c-42-13-71-52-71-96l0-493 543 0 0 493c0 44-28 83-70 96z m-215 238l2 10c4 22 0 44-11 63l0 0c-3 3-4 8-4 12 0 14 10 25 23 27 14 1 26-7 29-20 2-7 1-14-3-20-11-18-15-40-11-62l2-10c6-28 25-51 52-62 22-9 38-30 40-55l-211 0c2 25 18 46 40 55 27 11 46 34 52 62l0 0z m-127-233l0 51c0 2 2 4 5 4l271 0c3 0 5-2 5-4l0-51-281 0z m351-191c-9-4-18-10-25-17-6-7-15-10-23-10-8 3-15 6-21 11-17 12-38 19-59 21-20-2-39-9-55-20-8-6-16-10-25-12-9 2-18 7-26 12-16 12-35 18-54 20-22-2-42-9-59-22-7-4-13-7-20-10-19 1-38 6-54 17l0 100c0 22 18 40 40 40l342 0c22 0 40-18 40-40l-1-90z m-367-88c18 2 36 8 51 19 8 6 18 11 28 13 8-2 16-6 23-11 17-12 36-19 56-20 21 1 41 8 57 20 7 5 15 9 23 11 11-2 20-6 29-13 15-11 33-17 51-19 18 0 35 4 49 13l0-255-421 0 0 252c17-6 35-10 53-10l1 0z" horiz-adv-x="1000" />

<glyph glyph-name="credit-card-fill" unicode="&#xe835;" d="M0 79c0-16 7-32 18-44 12-12 28-18 45-18l875 0c16 0 32 6 44 18 12 12 18 28 18 44l0 375-1000 0 0-375z m854 115c23 0 42-18 42-41 0-23-19-42-42-42-23 0-42 19-42 42 0 23 19 41 42 41l0 0z m-139 0c23 0 42-18 42-41 0-23-19-42-42-42-23 0-41 19-41 42 0 23 18 41 41 41l0 0z m-715 489l0-112 1000 0 0 110-1000 2 0 0z" horiz-adv-x="1000" />

<glyph glyph-name="center-map-outline" unicode="&#xe836;" d="M1000 350l0 0 0 0c0-11-1-21-2-31-15-251-216-452-467-467-10-1-20-2-31-2-10 0-21 1-31 2-251 15-452 216-467 467-1 10-2 21-2 31 0 11 1 21 2 31 15 251 216 452 467 467 10 1 21 2 31 2 11 0 21-1 31-2 251-15 452-216 467-467 1-10 2-20 2-31z m-64 31c-15 217-188 390-405 405l0-188c113-14 203-104 217-217l188 0z m-467 0l0 153c-78-13-140-74-153-153l153 0z m0-62l-153 0c13-78 75-140 153-153l0 153z m62 0l0-153c79 13 140 75 153 153l-153 0z m0 62l153 0c-13 79-74 140-153 153l0-153z m-62 405c-216-15-389-188-405-405l188 0c14 113 104 203 217 217l0 188z m-405-467c16-216 189-390 405-405l0 188c-113 14-203 104-217 217l-188 0z m467-405c217 15 390 189 405 405l-188 0c-14-113-104-203-217-217l0-188z" horiz-adv-x="1000" />

<glyph glyph-name="circle-checkmark-outline" unicode="&#xe837;" d="M500 850c276 0 500-224 500-500 0-276-224-500-500-500-276 0-500 224-500 500 0 276 224 500 500 500z m0-938c241 0 438 197 438 438 0 241-197 438-438 438-241 0-437-197-437-438 0-241 196-438 437-438z m-62 357l249 250 45-44-294-294-144 144 44 44 100-100z" horiz-adv-x="1000" />

<glyph glyph-name="circle-more-outline" unicode="&#xe838;" d="M500 850c276 0 500-224 500-500 0-276-224-500-500-500-276 0-500 224-500 500 0 276 224 500 500 500z m0-938c241 0 438 197 438 438 0 241-197 438-438 438-241 0-437-197-437-438 0-241 196-438 437-438z m250 501c35 0 63-28 63-63 0-34-28-62-63-62-34 0-62 28-62 62 0 35 28 63 62 63z m-500 0c35 0 63-28 63-63 0-34-28-62-63-62-34 0-62 28-62 62 0 35 28 63 62 63z m250 0c35 0 63-28 63-63 0-34-28-62-63-62-34 0-62 28-62 62 0 35 28 63 62 63z" horiz-adv-x="1000" />

<glyph glyph-name="circle-percent-outline" unicode="&#xe839;" d="M500 850c-276 0-500-224-500-500 0-276 224-500 500-500 276 0 500 224 500 500 0 133-53 260-146 354-94 93-221 146-354 146z m0-938c-242 0-437 196-437 438 0 242 195 438 437 438 242 0 438-196 438-438-1-241-196-437-438-438z m147 638l-356-356 44-44 357 356-45 44z m-309-25c27 0 49-22 49-49 0-27-22-49-49-50-27 0-49 22-50 49 0 27 23 49 50 49m0 63c-62 0-111-50-111-111 0-62 49-112 111-112 61 0 111 50 111 112 0 61-50 111-111 111z m304-314c20 0 38-12 46-31 7-18 3-40-11-54-14-14-35-18-54-10-18 7-30 25-30 45 0 28 22 50 49 50m0 62c-61 0-111-50-111-111 0-61 50-111 111-111 62 0 111 50 111 111 0 61-49 111-111 111l0 0z" horiz-adv-x="1000" />

<glyph glyph-name="debt-free-fill" unicode="&#xe83a;" d="M500 850c133 0 260-53 354-146 93-94 146-221 146-354 0-276-224-500-500-500-276 0-500 224-500 500 0 276 224 500 500 500z m327-266l-36-36 45 0 0-101-145 0-82-81 227 0 0-164c0-30-22-54-51-57l-6 0-391 0-122-122c64-46 141-73 219-76l15 0c151 0 289 84 358 219 69 134 57 295-31 418z m-511 124c-131-67-214-199-219-345l0-13c0-79 24-156 67-222l9-12 31 32c-20 7-36 25-38 48l0 6 0 164 257 0 81 81-338 0 0 102 439-1 129 129c-123 88-284 100-418 31z m413-431c-8 0-15-3-21-9-5-6-9-13-9-21 0-12 8-23 19-28 11-4 24-2 32 7 9 8 11 21 7 32-5 11-16 19-28 19z m-99 0c-17 0-30-14-30-30 0-12 7-23 18-28 12-4 24-2 33 7 9 8 11 21 6 32-4 12-15 19-27 19z" horiz-adv-x="1000" />

<glyph glyph-name="circle-minus-outline" unicode="&#xe83b;" d="M854 704c195-196 195-512 0-708-98-97-226-146-354-146-128 0-256 49-354 146-195 196-195 512 0 708 98 97 226 146 354 146 128 0 256-49 354-146z m-45-663c171 170 171 448 0 618-82 83-192 129-309 129-117 0-227-46-309-129-83-82-128-192-128-309 0-117 45-227 128-309 82-83 192-129 309-129 117 0 227 46 309 129z m-590 278l0 62 562 0 0-62-562 0z" horiz-adv-x="1000" />

<glyph glyph-name="circuit-board-box-outline" unicode="&#xe83c;" d="M840 788l0-876-652 0 0 876 652 0m18 62l-688 0c-25 0-45-20-45-45l0-910c0-25 20-45 45-45l688 0c25 0 45 20 45 45l0 910c0 25-20 45-45 45z m-73-151l0-116-548 0 0 116 548 0z m-33-30l-391 0 0-58 391 0 0 58z m-515-282l548 0 0 2-548 0 0-2z m0-193l548 0 0 0-548 0 0 0z m0-194l548 0 0 0-548 0z m0 505l0-2 548 0 0 1-548 1z m0-116l548 0 0 114-548 0 0-114z m124 86l391 0 0-58-391 0 0 58z m-125-166l549 0 0 1-548 0-1-1z m0-115l549 0 0 116-548 0-1-116z m28 87l392 0 0-58-391 0-1 58z m-28-165l549 0 0 0-548 0-1 0z m0-116l549 0 0 116-548 0-1-116z m125 87l391 0 0-58-391 0 0 58z" horiz-adv-x="1000" />

<glyph glyph-name="clinic-outline" unicode="&#xe83d;" d="M500 788l500-500-156 0 0-376-688 0 0 376-156 0 500 500z m0-94l-344-344 63 0 0-375 562 0 0 375 63 0-344 344z m-31-219l62 0 0-156 157 0 0-63-157 0 0-156-62 0 0 156-156 0 0 63 156 0 0 156z" horiz-adv-x="1000" />

<glyph glyph-name="desk-chair-fill" unicode="&#xe83e;" d="M384 802l52-305c5-31-10-58-34-62l-95-16c-11-2-15 2-17 13l-30 178-53 0 0-71c0-60 41-177 96-216l0 17c0 24 24 44 56 44l362 0c32 0 55-20 55-44l0-97c0-11-4-14-15-14l-192 0 0-112 163-117c5 1 10 1 15 1 41 0 75-34 75-75 0-42-34-76-75-76-42 0-76 34-76 76 0 21 9 41 24 55l-126 89 0-36c33-8 57-38 57-73 0-20-8-40-22-54-14-14-34-22-54-22-42 0-75 34-75 76 0 35 24 65 57 73l0 37-127-90c15-14 24-34 24-55 0-42-34-76-76-76-42 0-76 34-76 76 0 41 34 75 76 75 5 0 10 0 14-1l165 118 0 111-213 0c-11 0-16 4-16 14l0 33c-75 27-133 171-136 256l0 8 0 111 86 0-28 164c-2 11 1 16 12 18l95 17c24 4 47-16 52-48z" horiz-adv-x="1000" />

<glyph glyph-name="cloud-outline" unicode="&#xe83f;" d="M219 6c-121 0-219 98-219 219 0 87 51 163 125 198 6 81 73 146 156 146 25 0 48-6 69-16 49 84 140 141 244 141 152 0 275-121 281-271 74-35 125-111 125-198 0-121-98-219-219-219l-562 0z m0 63l562 0c87 0 157 70 157 156 0 61-36 116-90 141l-34 17-2 38c-4 117-100 210-218 210-79 0-151-42-190-109l-29-51-53 26c-12 6-26 9-41 9-49 0-90-38-93-87l-3-37-33-16c-54-25-89-80-89-141 0-86 70-156 156-156z" horiz-adv-x="1000" />

<glyph glyph-name="circle-plus-outline" unicode="&#xe840;" d="M854 704c195-196 195-512 0-708-98-97-226-146-354-146-128 0-256 49-354 146-195 196-195 512 0 708 98 97 226 146 354 146 128 0 256-49 354-146z m-45-663c171 170 171 448 0 618-82 83-192 129-309 129-117 0-227-46-309-129-171-170-171-448 0-618 82-83 192-129 309-129 117 0 227 46 309 129z m-278 590l0-250 250 0 0-62-250 0 0-250-62 0 0 250-250 0 0 62 250 0 0 250 62 0z" horiz-adv-x="1000" />

<glyph glyph-name="comment-outline" unicode="&#xe841;" d="M125-150l0 256c-77 79-125 187-125 307 0 241 196 437 438 437l125 0c241 0 437-196 437-437 0-242-196-438-437-438l-125 0c-33 0-65 4-96 10l-217-135z m63 113l142 89 25-5c27-6 55-9 83-9l125 0c207 0 375 167 375 375 0 207-168 375-375 375l-125 0c-208 0-375-168-375-375 0-100 38-193 107-263l18-18 0-169z" horiz-adv-x="1000" />

<glyph glyph-name="cogs-outline" unicode="&#xe842;" d="M309 319c-26-6-49-22-64-45-15-23-19-51-13-77 10-47 52-80 100-80 7 0 14 1 22 2 26 6 49 22 64 45 15 23 19 51 13 77-12 55-67 90-122 78m64-126c-7-12-18-20-32-22-13-3-27 0-39 7-11 7-19 18-22 31-5 28 12 55 39 61 14 3 28 1 39-6 12-8 20-19 22-32 3-14 1-28-6-39m213-27l73 37-36 170-83 1c-11 15-23 28-36 39l5 84-165 52-44-70c-10-2-18-3-26-5-9-1-18-4-27-7l-69 46-128-116 39-74c-7-16-12-33-16-51l-74-35 38-170 83-3c10-14 22-27 36-39l-6-84 167-52 43 71c10 1 18 2 27 4 8 2 16 4 25 7l69-46 129 118-42 72c8 17 13 34 18 51z m-58 45l-5-25c-3-16-8-32-15-47l-11-25 31-57-53-48-54 35-25-8c-10-3-17-5-24-7-7-1-15-3-25-4l-26-3-33-55-70 22 4 65-19 17c-14 10-25 23-35 37l-15 20-64 1-15 71 58 29 4 25c4 16 9 32 16 47l11 23-30 57 52 49 54-36 24 11c10 3 16 6 23 7 7 1 16 3 25 4l27 3 33 55 69-22-4-65 19-17c14-11 25-24 35-38l15-21 64-1 15-71-56-28z m418 424c-1 6-1 11-2 17-2 5-3 10-5 15l34 50-90 98-53-29c-10 4-20 7-31 10l-26 54-132-29-1-61c-9-7-17-14-24-22l-61 4-40-128 51-30c2-6 2-11 3-17 1-5 3-10 4-15l-32-50 90-98 54 29c10-4 20-7 30-10l28-54 130 28 1 61c9 7 17 14 24 23l61-5 40 129-53 30z m-115-133l-16-14-2-43-40-8-20 39-20 4c-11 2-22 5-32 10l-20 9-38-20-28 30 25 36-7 21c-3 5-4 11-4 17-2 5-2 9-3 16l-2 22-37 24 12 39 44-3 14 17c8 9 16 16 25 23l18 13 2 44 40 8 19-38 21-5c11-2 22-5 32-9l20-10 39 21 28-31-28-39 7-21c2-5 4-10 4-16 1-4 1-10 3-17l1-22 38-24-12-37-44 3-14-17c-7-9-15-16-25-22l0 0z m-118 40c13-8 28-12 43-12 6 0 11 0 17 1 28 6 51 27 59 54 9 28 2 58-17 79-19 21-49 30-77 24-20-4-39-17-50-35-11-18-15-40-11-61 5-20 18-38 36-50m20 84c3 6 10 11 18 12l5 0c14 0 25-9 28-22 1-7 0-15-4-21-4-7-11-11-18-12-15-4-30 6-33 21-2 7 0 15 4 22" horiz-adv-x="1000" />

<glyph glyph-name="convert-outline" unicode="&#xe843;" d="M306 694l44-44-174-175 824 0 0-62-975 0 281 281z m-306-406l975 0-281-281-44 44 174 174-824 0 0 63z" horiz-adv-x="1000" />

<glyph glyph-name="compass-outline" unicode="&#xe844;" d="M546 258l-136 136-45-181 181 45z m-92 180l136-135 45 180-181-45z m46 412c275 0 500-225 500-500 0-275-225-500-500-500-275 0-500 225-500 500 0 275 225 500 500 500z m31-934c216 12 391 187 403 403l-90 0c-19 0-31 12-31 31 0 19 12 31 31 31l90 0c-12 216-187 388-403 403l0-90c0-19-12-31-31-31-19 0-31 12-31 31l0 90c-216-12-391-187-403-403l90 0c19 0 32-12 32-31 0-19-13-31-32-31l-90 0c12-216 187-391 403-403l0 90c0 19 12 32 31 32 19 0 31-13 31-32l0-90z m65 291l-266-67c-17-4-34 6-38 23-2 5-2 10 0 15l66 266c6 23 23 40 46 46l266 67c17 4 34-6 38-23 2-5 2-10 0-15l-66-267c-6-22-23-40-46-45z" horiz-adv-x="1000" />

<glyph glyph-name="contacts-outline" unicode="&#xe845;" d="M125 715l-125 0 0-63 125 0 0-268-125 0 0-64 125 0 0-271-125 0 0-63 125 0 0-136 813 0c34 0 62 28 62 62l0 876c0 34-28 62-62 62l-813 0 0-135z m813 73l0-876-750 0 0 876 750 0z m-375-156c51 0 97-31 117-79 20-47 9-102-28-138-36-37-91-47-138-28-48 20-79 66-79 118 0 70 57 127 128 127m0 49c-72 0-136-43-163-109-27-66-12-141 38-192 50-50 126-65 192-38 65 28 108 92 108 163 0 97-78 175-175 176z m0-450c77 1 153-12 225-39l0-124-451 0 0 124c72 27 149 40 226 39m0 49c-90 1-180-16-263-51-7-3-12-10-12-18l0-172c0-5 2-10 6-14 4-3 9-6 14-6l509 0c11 0 20 9 20 20l0 172c0 8-5 15-12 18-83 35-172 52-262 51z" horiz-adv-x="1000" />

<glyph glyph-name="confirmed-outline" unicode="&#xe846;" d="M930 430l52 52c11-42 18-86 18-132 0-276-224-500-500-500-276 0-500 224-500 500 0 276 224 500 500 500 92 0 177-25 251-68l-46-46c-62 34-132 52-205 52-241 0-437-197-437-438 0-241 196-438 437-438 241 0 438 197 438 438 0 27-3 54-8 80z m-567-14l122-122 416 417 44-44-460-462-167 167 45 44z" horiz-adv-x="1000" />

<glyph glyph-name="circle-save-outline" unicode="&#xe847;" d="M500 850c276 0 500-224 500-500 0-276-224-500-500-500-276 0-500 224-500 500 0 276 224 500 500 500z m-52-938c267-31 493 178 493 438 0 233-181 423-410 440l0-4 0-517 142 142c12 12 32 12 44 0 12-13 12-32 0-45l-217-216-217 216c-12 13-12 32 0 45 12 12 32 12 44 0l142-142 0 517 0 4c-248-18-439-240-406-498 25-198 187-358 385-380z" horiz-adv-x="1000" />

<glyph glyph-name="configuration-outline" unicode="&#xe848;" d="M326 850l0-317c-85-5-165-40-226-99-98-97-127-243-74-370 52-127 176-210 314-210 90-1 176 34 240 97 58 61 93 141 98 225l103 0 218 242 1 2 0 430-674 0z m597-436l-135-165 0 165 135 0z m26 384l0-346-213 0 0-225-58 0c-7 78-41 152-95 208-56 54-128 88-206 96l0 267 572 0z m-407-807c-82-82-205-107-312-62-107 44-177 149-177 264 0 116 70 220 177 265 107 44 230 19 312-62 54-54 84-127 84-203 0-76-30-149-84-202z m-60 100c2 5 6 9 8 13 3 5 4 8 7 13l54 12 2 122-53 14c-4 9-9 17-14 25l17 53-106 64-39-40c-10 1-20 1-30 0l-38 42-106-59 14-53c-3-5-6-9-9-13l-6-13-54-12-2-122 54-14c4-9 8-18 14-26l-16-53 105-63 39 39c10 0 20 0 30 0l37-41 107 59-15 53z m-160-15l-20 1-28-27-32 19 12 38-11 16c-6 8-11 17-15 26l-7 19-39 11 1 38 39 8 9 18c2 5 4 10 8 14 2 5 5 7 8 13l13 15-10 39 33 18 28-30 19 3c11 1 21 1 32 0l19-4 29 29 32-20-11-38 11-16c6-8 11-17 15-27l6-18 39-11-1-37-43-9-8-18c-2-5-4-10-8-14-2-3-5-7-9-13l-13-15 11-39-31-18-28 30-20-3c-10-1-20 0-30 2l0 0z m-53 101c3-14 10-26 21-36 3-3 7-6 11-9 23-16 52-18 77-6 24 13 40 38 40 66-1 27-16 52-41 65-16 10-36 13-55 8-19-5-35-17-45-33-10-17-13-37-8-56m65 43c7 2 14 1 20-3l4-3c9-9 10-22 4-33-3-5-9-9-16-11-7-2-14-1-20 3-5 4-10 9-11 16-2 6-1 13 3 19 3 6 9 10 16 12" horiz-adv-x="1000" />

<glyph glyph-name="community-outline" unicode="&#xe849;" d="M500 475c-103 0-187 84-187 187-1 76 45 144 115 174 70 29 151 13 204-41 54-53 70-134 41-204-29-70-97-116-173-116z m0 307l0 0c-32 0-62-13-85-35-22-23-35-53-35-85 1-67 55-120 121-120 66 1 119 55 119 121 0 66-54 120-120 119z m-344-395c-86 0-156 70-156 156 0 64 38 121 97 145 58 24 125 10 170-34 45-45 58-113 33-171-24-58-81-96-144-96z m0 245c-24 0-47-9-63-26-17-16-26-39-26-63 0-49 40-89 89-89 49 0 89 40 89 89 0 49-40 89-89 89z m689-245c-42 0-82 16-111 45-30 30-46 70-46 111 0 86 69 156 155 157 87 0 157-70 157-156 0-86-69-156-155-157z m0 245c-49 0-89-40-89-89 0-36 22-68 55-82 33-14 72-6 97 19 25 26 33 64 19 97-14 34-46 55-82 55z m-41-318c62 1 123-13 178-39l18-10 0-415-1000 0 0 415 18 10c56 26 116 40 178 39 22 0 44-2 66-5l0 15 18 9c68 33 143 49 218 48 77 1 153-16 222-50l18-9 0-13c22 3 44 5 66 5z m-739-398l197 0 0 327c-66 11-134 5-197-19l0-308z m262 0l346 0 0 365c-56 23-115 35-175 35-58 0-116-11-171-33l0-367z m608 0l0 308c-63 24-131 31-197 19l0-327 197 0z" horiz-adv-x="1000" />

<glyph glyph-name="data-outline" unicode="&#xe84a;" d="M0 298l0-257c0-34 28-62 63-62l875 0c34 0 62 28 62 62l0 257-1000 0z m938-257l-875 0 0 188 875 0 0-188z m-696 70l-125 0 0 56 125 0 0-56z m190 0l-125 0 0 56 125 0 0-56z m-432 572l0-257c0-34 28-62 63-62l875 0c34 0 62 28 62 62l0 257-1000 0z m938-257l-875 0 0 188 875 0 0-188z m-696 70l-125 0 0 56 125 0 0-56z m190 0l-125 0 0 56 125 0 0-56z" horiz-adv-x="1000" />

<glyph glyph-name="credit-card-payment-outline" unicode="&#xe84b;" d="M155 808l737-2 0-379c0-34-28-62-63-62l0 0-611 0c-17 0-32 6-44 18-12 12-19 28-19 44l0 0 0 381z m674-201l-611 0 0-180 611 0 0 180z m-164-98c18 0 33-14 33-32 0-18-15-33-33-33-18 0-33 15-33 33 0 18 15 32 33 32z m109 0c18 0 33-14 33-32 0-18-15-33-33-33-18 0-33 15-33 33 0 18 15 32 33 32z m55 237l-611 0 0-49 611 0 0 49z m170-647c-4 24-11 47-18 70l-1 3-3 3c-14 12-14 12-290-16-1 28-23 52-52 55l-283 32-43 35-309 82 0-384 25-7c77-23 203-61 237-73 9-7 23-7 42-7l25 0c25 0 60 1 94 1 70 2 138 3 138 3l5 0 392 132c30 10 47 40 41 71z m-930 174l209-56 47-38 293-34 0-44-312 0 0-70 314 0c33 1 60 25 66 57 82 8 189 19 240 24 1-6 2-12 4-20l-375-126c-94-2-236-6-263-5-26 11-80 28-222 70l-1 242z" horiz-adv-x="1000" />

<glyph glyph-name="credit-card-outline" unicode="&#xe84c;" d="M0 683l1000-2 0-602c0-16-6-32-18-44-12-12-28-18-44-18l0 0-875 0c-17 0-33 6-45 18-11 12-18 28-18 44l0 0 0 604z m938-229l-875 0 0-375 875 0 0 375z m-223-260c23 0 42-18 42-41 0-23-19-42-42-42-23 0-41 19-41 42 0 23 18 41 41 41z m139 0c23 0 42-18 42-41 0-23-19-42-42-42-23 0-42 19-42 42 0 23 19 41 42 41z m84 427l-875 0 0-50 875 0 0 50z" horiz-adv-x="1000" />

<glyph glyph-name="debt-free-outline" unicode="&#xe84d;" d="M500 850c133 0 260-53 354-146 93-94 146-221 146-354 0-276-224-500-500-500-276 0-500 224-500 500 0 276 224 500 500 500z m330-214l-68-68 107-1 0-380c0-34-28-62-63-62l0 0-487 0-105-105c76-66 172-104 272-107l14-1c171 0 327 100 398 256 71 156 45 339-68 468l0 0z m-44 44c-129 113-312 139-468 68-156-71-256-227-255-398 0-105 38-207 107-286l0 0 61 61-36 0c-32 0-59 25-62 56l0 6 0 382 541-1z m-312-312l-279 0 0-181 98 0 181 181z m332 0l-244 0-180-181 424 0 0 181z m-164-98c19 0 33-15 33-33 0-18-14-33-33-33-18 0-32 15-32 33 0 18 14 33 32 33z m110 0c18 0 32-15 32-33 0-18-14-33-32-33-19 0-33 15-33 33 0 18 14 33 33 33z m-139 237l-418 0 0-50 368 0 50 50z m193 0l-105 0-50-50 155 0 0 50z" horiz-adv-x="1000" />

<glyph glyph-name="copy-outline" unicode="&#xe84e;" d="M703 850l203-225 0-575-200 0 0-200-623 0 0 800 200 0 0 200 420 0z m-240-247l-329 0 0-704 525 0 0 496-196 0 0 208z m200 200l-333 0 0-153 173 0 203-225 0-328 153 0 0 498-196 0 0 208z m-153-219l0-154 126 0-126 154z m200 200l0-154 126 0-126 154z" horiz-adv-x="1000" />

<glyph glyph-name="cost-dollar-outline" unicode="&#xe84f;" d="M501-150c277 1 500 225 499 501-1 277-225 500-501 499-276-1-500-225-499-501 0-133 53-260 147-354 95-93 222-145 354-145z m-2 938c241 0 438-195 439-437 0-241-195-438-437-439-241 0-438 195-438 437-1 241 194 438 436 439l0 0z m129-438c-21 19-55 34-101 44l0 97c11-1 20-6 27-13 9-11 14-24 14-38l78 0c-1 30-13 59-35 80-23 21-52 33-83 36l0 44-45 0 0-45c-31-2-62-14-85-35-23-21-35-50-35-81 0-18 4-36 13-52 8-13 19-24 33-32 10-6 20-11 31-15 7-3 22-7 43-13l0-114c-14 3-26 11-35 22-11 13-17 29-16 46l0 1-78 0c1-37 16-72 42-98 24-22 55-35 88-37l0-47 7 0 0 0 32 0 0 0 5 0 0 47c24 1 47 8 68 19 20 10 36 25 48 44 10 16 16 35 16 54 2 32-10 64-32 86z m-175 69c-8 7-12 18-12 28 0 13 5 25 14 33 8 7 18 11 28 12l0-87c-11 3-21 8-30 14z m112-191c-10-9-23-15-37-17l0 104c15-4 29-10 41-19 9-8 14-20 13-32 1-14-6-27-17-36l0 0z" horiz-adv-x="1000" />

<glyph glyph-name="dial-high-outline" unicode="&#xe850;" d="M500 788c242 0 438-196 438-438 0-242-196-438-438-438-242 0-437 196-437 438 0 242 196 437 437 438m0 62c-276 0-500-224-500-500 0-276 224-500 500-500 276 0 500 224 500 500 0 133-53 260-146 354-94 93-221 146-354 146z m0-190c171 0 310-139 310-310l62 0c0 206-166 372-372 372-206 0-372-166-372-372l62 0c0 171 139 310 310 310z m270-279l-159 0c-15 56-70 92-127 84-58-8-100-57-100-115 0-58 42-107 100-115 57-8 112 28 127 84l159 0 0 62z m-270-84c-22 0-41 13-50 33-8 20-3 43 12 58 15 15 38 20 58 12 21-9 34-28 34-50 0-29-24-53-54-53l0 0z" horiz-adv-x="1000" />

<glyph glyph-name="database-outline" unicode="&#xe851;" d="M762 797c-74 34-172 53-276 53-104 0-202-19-276-53-82-37-127-90-127-148l0-598c0-58 45-111 127-148 74-34 172-53 276-53 104 0 202 19 276 53 82 37 127 90 127 148l0 598c0 58-45 111-127 148z m66-648l0-97c0-33-33-67-91-93-67-31-156-48-250-48-95 0-184 17-250 48-58 26-92 60-92 93l0 97c21-16 43-29 66-40 74-34 172-52 276-52 104 0 202 18 276 52 23 11 45 24 65 40l0 0z m-92 16c-66-31-155-47-250-47-95 0-184 16-250 47-58 26-92 60-92 93l0 97c21-16 43-29 66-40 74-33 172-52 276-52 104 0 202 19 276 52 24 11 46 24 66 40l0-97c0-33-33-67-92-93z m0 207c-66-31-155-48-250-48-95 0-184 17-250 48-58 26-91 60-91 92l0 76c20-16 42-29 66-39 74-34 172-53 276-53 103 0 201 19 276 53 23 10 45 23 65 39l0-76c0-32-33-66-92-92l0 0z m0 184c-66-30-155-47-250-47-95 0-184 17-250 47-58 27-91 61-91 93 0 33 33 66 91 93 67 30 155 47 250 47 95 0 184-17 250-47 58-27 91-60 91-93 0-32-32-66-91-93z" horiz-adv-x="1000" />

<glyph glyph-name="desktop-outline" unicode="&#xe852;" d="M804 623c17 0 31-14 31-31l0-398c0-18-14-31-31-31l-607 0c-18 0-32 13-32 31l0 398c1 17 14 31 32 31l607 0z m-31-398l0 344-545 0 0-344 545 0z m196-94c8 0 16-3 22-9 6-6 9-14 9-22l0-94c0-17-14-31-31-31l-938 0c-17 0-31 14-31 31l0 94c0 18 14 31 31 31l35 0 0 563c0 8 4 16 9 22 6 6 14 9 22 9l806 0c17 0 31-14 31-31l0-563 35 0z m-840 532l0-531 743 0 0 531-743 0z m809-637l0 49-876 0 0-49 876 0z" horiz-adv-x="1000" />

<glyph glyph-name="delete-outline" unicode="&#xe853;" d="M770-16l11 551 63 0-12-552c-1-74-61-133-135-133l-452 0c-73 0-134 59-135 133l-11 552 62 0 11-551c1-39 34-72 73-72l452 0c39 0 72 33 73 72z m-707 741l812 0c17 0 31-14 31-31 0-17-14-31-31-31l-812 0c-18 0-32 14-32 31 0 17 14 31 32 31z m593 63l-375 0c-17 0-31 14-31 31 0 17 14 31 31 31l375 0c18 0 32-14 32-31 0-17-14-31-32-31z" horiz-adv-x="1000" />

<glyph glyph-name="dial-low-outline" unicode="&#xe854;" d="M500 788c242 0 438-196 438-438 0-242-196-438-438-438-242 0-437 196-437 438 0 242 196 437 437 438m0 62c-276 0-500-224-500-500 0-276 224-500 500-500 276 0 500 224 500 500 0 133-53 260-146 354-94 93-221 146-354 146z m0-190c171 0 310-139 310-310l62 0c0 206-166 372-372 372-206 0-372-166-372-372l62 0c0 171 139 310 310 310z m0-195c-52 0-97-35-111-84l-153 0 0-63 153 0c16-58 74-94 133-83 59 11 100 66 94 125-6 60-56 106-116 105l0 0z m0-169c-30 0-54 24-54 53 0 30 24 54 53 54 30 0 54-23 55-53 0-29-24-53-54-53l0-1z" horiz-adv-x="1000" />

<glyph glyph-name="dining-outline" unicode="&#xe855;" d="M700-29l0 10-8 6c-11 9-21 19-31 30-20 26-30 83-29 171 0 58 5 105 5 106 9 82 19 184 43 333 16 97 31 171 68 181 4 1 8 1 11 1 6 0 12-1 17-3 3-3 4-6 6-10 2-6 3-13 3-20 0-4 0-8 0-13l0-807 2-106 40 0-2 108 0 807c0 4 0 8 0 12 0 21-7 42-20 59l-4 5-5 2c-18 8-39 9-59 4-59-17-76-95-96-213-25-150-35-253-43-336 0-2-5-49-6-109-1-99 11-162 38-196 9-11 19-22 30-31-1-37-2-74-3-112l40 0c1 41 2 81 3 121z m-155 878l23-425c5-83-27-161-84-204-9-7-14-18-14-29l0 0 7-341-40 0-7 340c0 24 11 47 30 61 46 36 73 101 68 171l0 0-23 427 40 0z m-88 0l0-400-39 0 0 400 39 0z m-185 0l-23-427c-4-70 22-135 68-171 19-14 30-37 30-61l0 0-7-340-40 0 7 342c0 11-5 21-14 28-56 43-89 121-84 204l0 0 23 425 40 0z m92 0l0-400-40 0 0 400 40 0z" horiz-adv-x="1000" />

<glyph glyph-name="dial-medium-outline" unicode="&#xe856;" d="M500 788c242 0 438-196 438-438 0-242-196-438-438-438-242 0-437 196-437 438 0 242 196 437 437 438m0 62c-276 0-500-224-500-500 0-276 224-500 500-500 276 0 500 224 500 500 0 133-53 260-146 354-94 93-221 146-354 146z m0-190c171 0 310-139 310-310l62 0c0 206-166 372-372 372-206 0-372-166-372-372l62 0c0 171 139 310 310 310z m31-199l0 157-62 0 0-157c-56-15-92-70-84-127 8-58 57-100 115-100 58 0 107 42 115 100 8 57-28 112-84 127l0 0z m-31-164c-22 0-41 13-50 33-8 20-3 43 12 58 15 15 38 20 58 12 21-9 34-28 34-50 0-29-24-53-54-53l0 0z" horiz-adv-x="1000" />

<glyph glyph-name="doc-outline" unicode="&#xe857;" d="M938 725c34 0 62-28 62-62l0-688-1000 0 0 750 938 0z m-875-687l875 0 0 625-875 0 0-625z m93 191l0 243 92 0c30 0 55-10 75-28 20-19 30-43 30-72l0-44c0-29-10-53-30-72-20-18-45-27-75-27l-92 0z m59 199l0-156 33 0c14 0 25 5 33 16 9 10 13 24 13 40l0 44c0 17-4 30-13 40-8 11-19 16-33 16l-33 0z m390-100c0-30-9-54-29-74-20-19-45-29-77-29-32 0-58 10-78 29-19 20-29 44-29 74l0 44c0 30 10 54 29 74 20 19 46 29 78 29 31 0 57-10 77-29 19-20 29-44 29-74l0-44z m-58 44c0 18-4 32-13 43-8 11-20 17-35 17-16 0-28-6-37-17-8-11-12-25-12-43l0-44c0-17 4-32 13-43 8-11 20-17 36-17 15 0 27 6 36 17 8 11 12 26 12 43l0 44z m296-61l0-1c1-28-7-49-24-63-17-15-40-22-71-22-31 0-56 9-75 28-18 18-28 42-28 72l0 50c0 30 9 54 27 72 18 19 42 28 72 28 32 0 57-7 74-21 18-15 26-36 26-63l-1-1-57 0c0 15-3 26-9 32-7 6-18 10-33 10-13 0-23-5-30-16-7-10-10-23-10-40l0-51c0-17 3-31 11-41 8-10 19-16 33-16 14 0 23 4 29 10 6 7 9 17 9 33l57 0z" horiz-adv-x="1000" />

<glyph glyph-name="desk-chair-outline" unicode="&#xe858;" d="M829 2c-4 0-9 0-13-1l-164 116 0 113 191 0c11 0 16 3 16 14l0 97c0 24-23 44-55 44l-362 0c-32 0-56-20-56-44l0-17c-55 38-96 155-96 215l0 71 52 0 31-178c1-11 6-15 17-13l95 16c23 4 39 30 34 62l-52 305c-5 32-28 51-52 48l-95-17c-11-2-14-7-12-18l28-164-86 0 0-111c0-83 59-236 137-264l0-31c0-11 4-14 15-14l213 0 0-117-160-113c-4 1-9 1-14 1-36 0-68-26-75-61-7-36 13-72 47-86 33-13 72-1 92 30 20 31 15 71-12 96l122 88 0-34c-37-10-61-45-56-83 5-38 37-66 75-66 38 0 70 28 75 66 5 38-20 73-56 83l0 36 124-90c-26-25-31-65-11-95 19-31 58-43 92-30 33 14 53 49 46 85-7 35-38 61-75 61l0 0z m-407 808c0 0 5-4 7-14l51-306c2-10-1-16-1-16l-65-11-57 336 65 11z m4-469c0 0 5 4 16 4l362 0c11 0 16-4 16-4l0-66-394 0 0 66z m15-451c-20 0-36 16-36 36 0 20 16 37 36 37 20 0 36-17 36-37 0-9-4-18-10-25-7-7-16-11-26-11z m229 72c0-20-16-37-36-37-20 0-37 16-37 36 0 20 16 36 36 37 10 0 19-4 26-11 7-6 11-16 11-25l0 0z m159-71c-20 0-36 16-36 36 0 20 16 36 36 36 20 0 37-16 37-36 0-10-4-19-11-26-7-7-16-11-26-11l0 1z" horiz-adv-x="1000" />

<glyph glyph-name="disability-insurance-outline" unicode="&#xe859;" d="M0 431l309-82 43-34 283-32c29-3 51-27 52-56 242 25 272 28 285 20l2-1c0-1 1-1 2-2l1-1 3-2 1-3c7-23 14-47 18-71 6-30-11-60-41-70l0 0-392-131-5 0c-6 0-71-2-138-3-34-1-69-2-94-2l0 0-32 0c-16 0-27 1-35 7-34 12-160 50-237 73l0 0-25 7 0 383z m69-90l1-241c142-42 196-59 222-70 27 0 169 3 263 5l0 0 375 125c-2 8-3 15-4 20-51-4-158-16-240-24-6-32-34-56-66-56l0 0-314 0 0 69 312 0 0 45-293 34-47 37-209 56z m515 426l0-156 156 0 0-62-156 0 0-156-62 0 0 156-157 0 0 62 157 0 0 156 62 0z" horiz-adv-x="1000" />

<glyph glyph-name="door-closed-outline" unicode="&#xe85a;" d="M844-88c17 0 31-14 31-31 0-17-14-31-31-31l-688 0c-17 0-31 14-31 31 0 17 14 31 31 31l32 0 0 876c0 34 28 62 62 62l500 0c35 0 63-28 63-62l0-876 31 0z m-594 876l0-876 500 0 0 876-500 0z m406-344c18 0 32-14 32-31l0-125c0-18-14-32-32-32-17 0-31 14-31 32l0 125c0 17 14 31 31 31z" horiz-adv-x="1000" />

<glyph glyph-name="door-opened-outline" unicode="&#xe85c;" d="M260-56l-104 0c-17 0-31 14-31 31 0 17 14 31 31 31l32 0 0 782c0 34 28 62 62 62l500 0c35 0 63-28 63-62l0-782 31 0c17 0 31-14 31-31 0-17-14-31-31-31l-188 0 0-63c0-17-14-31-31-31-3 0-5 0-8 1l-357 93z m47 844l303-79c27-7 46-32 46-61l0-642 94 0 0 782-443 0z m287-140l-344 90 0-727 344-89 0 726z m-94-267c17 0 31-14 31-31l0-125c0-17-14-31-31-31-17 0-31 14-31 31l0 125c0 17 14 31 31 31z" horiz-adv-x="1000" />

<glyph glyph-name="document-text-outline" unicode="&#xe85d;" d="M650 850l253-282 0-718-778 0 0 1000 525 0z m-50-58l-416 0 0-884 661 0 0 623-245 0 0 261z m150-629l0-63-437 0 0 63 437 0z m0 187l0-62-437 0 0 62 437 0z m-92 417l0-192 158 0-158 192z" horiz-adv-x="1000" />

<glyph glyph-name="display-power-outline" unicode="&#xe85e;" d="M968 808c9 0 17-3 23-9 6-6 9-14 9-22l0 0 0-721c0-9-3-17-9-23-6-6-14-9-23-9l0 0-436 0 0-65 161 0 0-63-386 0 0 63 162 0 0 65-437 0c-18 0-32 14-32 32l0 0 0 721c0 8 3 16 9 22 6 6 14 9 23 9l0 0z m-31-63l-874 0 0-658 874 0 0 658z m-84-56c18 0 32-14 32-31l0 0 0-483c0-17-14-31-32-31l0 0-706 0c-17 0-31 14-32 31l0 0 0 483c0 17 15 31 32 31l0 0z m-32-63l-642 0 0-419 642 0 0 419z m-235-68c62-39 91-114 71-185-20-70-84-119-158-119-73 0-137 49-157 119-20 71 9 146 71 185l0 0 28-58c-36-26-51-71-37-113 13-41 52-70 96-70 43 0 82 29 95 70 14 42-1 87-37 113l0 0 28 57z m-54 24l0-158-64 0 0 158 64 0z" horiz-adv-x="1000" />

<glyph glyph-name="down-chevron-outline" unicode="&#xe85f;" d="M947 613l-447-447-447 447c-12 12-32 12-44 0-12-12-12-32 0-44l491-491 491 491c12 12 12 32 0 44-12 12-32 12-44 0" horiz-adv-x="1000" />

<glyph glyph-name="down-chevron-circle-outline" unicode="&#xe860;" d="M992 435c-4 23-9 45-15 66-52 164-187 291-355 333-39 10-80 16-122 16l0 0 0 0c-42 0-83-6-122-16-190-47-336-203-370-398-5-28-8-57-8-86 0-29 3-58 8-85 34-196 180-352 370-399 39-10 80-16 122-16 42 0 83 6 122 16 168 42 303 169 355 333 6 21 11 43 15 66 5 28 8 56 8 85 0 29-3 58-8 85l0 0z m-492-523c-241 0-437 197-437 438 0 241 196 438 437 438 241 0 438-197 438-438 0-241-197-438-438-438l0 0z m0 406l-153 153-44-45 197-197 197 197-44 45-153-153 0 0z" horiz-adv-x="1000" />

<glyph glyph-name="download-cloud-outline" unicode="&#xe861;" d="M610 850c146 0 264-115 270-259 70-34 119-106 119-190 0-116-93-209-209-209l-150 0 0 60 150 0c83 0 150 66 150 149 0 59-34 111-86 135l-33 16-1 36c-4 113-97 202-210 202-75 0-144-40-181-105l-28-48-50 24c-13 6-26 9-40 9-47 0-86-36-90-83l-2-35-32-15c-52-25-85-77-85-136 0-83 67-149 149-149l150 0 0-60-150 0c-115 0-209 93-209 209 0 84 49 156 120 190 5 78 70 139 149 139 24 0 46-5 66-15 46 81 134 135 233 135z m-60-885l157 156c12 12 31 12 42 0 12-12 12-30 0-42l-228-229-229 229c-12 12-12 30 0 42 11 12 30 12 42 0l157-156 0 464 59 0 0-464z" horiz-adv-x="1000" />

<glyph glyph-name="duplicate-outline" unicode="&#xe862;" d="M750 600l156 0c52 0 94-42 94-94l0-562c0-52-42-94-94-94l-562 0c-52 0-94 42-94 94l0 156-156 0c-52 0-94 42-94 94l0 656 656 0c52 0 94-42 94-94l0-156z m188-656l0 562c0 18-14 32-32 32l-593 0 0-375 170 0-81 81 44 44 157-157-157-156-44 44 81 81-170 0 0-156c0-18 14-32 31-32l562 0c18 0 32 14 32 32z m-844 219l156 0 0 437 438 0 0 156c0 18-14 32-32 32l-593 0 0-594c0-17 14-31 31-31z" horiz-adv-x="1000" />

<glyph glyph-name="downtrend-outline" unicode="&#xe863;" d="M500-25l500 750-1000 0 500-750z m0 113l-383 575 766 0-383-575z" horiz-adv-x="1000" />

<glyph glyph-name="download-outline" unicode="&#xe864;" d="M531 175l164 164c12 12 32 12 44 0 12-12 12-32 0-44l-239-239-239 239c-12 12-12 32 0 44 12 12 32 12 44 0l164-163 0 362-406 0 0-626 875 0 0 626-407 0 0-363z m-62 425l0 250 62 0 0-250 469 0 0-688c0-34-28-62-62-62l-875 0c-35 0-63 28-63 62l0 688 469 0z" horiz-adv-x="1000" />

<glyph glyph-name="download-light-outline" unicode="&#xe865;" d="M499 144l-240 240c-12 12-12 32 0 44 12 13 32 13 44 0l165-164 0 586 63 0 0-586 165 164c12 13 32 13 44 0 12-12 12-32 0-44l-241-240z m-280-294l0 62 562 0 0-62-562 0z" horiz-adv-x="1000" />

<glyph glyph-name="edit-outline" unicode="&#xe866;" d="M877-88l-1 552 62 0 0-554c0-33-28-60-61-60l-877 0 0 877c0 33 27 61 60 61l554 0 0-62-554 0 2-814 815 0z m-482 377l62 63 45-45-63-62-44 44z m561 561l44-44-50-50-31-31-62-62-32-32-278-278-44 44 278 278 31 32 63 62 31 31 50 50z" horiz-adv-x="1000" />

<glyph glyph-name="education-outline" unicode="&#xe867;" d="M977 554l-481 129-1 0-472-134c-14-4-23-16-23-30 0-14 9-26 23-29l149-44 0-191 11-9c90-72 201-111 316-111 92 0 184 26 263 75l0-65-57-99 53-31 35 60 34-60 53 31-57 99 0 305 155 45c13 4 22 16 22 30 0 14-9 26-23 29l0 0z m-510-16c-1-8 0-16 5-23 4-7 11-12 19-13l167-36-164-47-314 89-7 1-33 10 355 100 359-96-71-21-279 59c-8 2-16 1-23-4-7-4-12-11-14-19z m-233-109l252-72 8-2 267 74 0-144c-156-118-371-118-527 0l0 144z" horiz-adv-x="1000" />

<glyph glyph-name="elevator-outline" unicode="&#xe868;" d="M489 721c-11 0-20-5-25-14l-139-241c-6-9-6-20 0-29 5-8 15-14 25-13l278 0c10-1 19 5 25 13 5 9 5 20 0 29l-139 241c-6 9-15 14-25 14l0 0z m-89-241l89 154 88-154-177 0z m227-201l-277 0c-11 0-20-5-26-14-5-9-5-20 0-29l139-241c6-9 15-14 25-14 11 0 20 5 26 14l138 241c6 9 6 20 0 29-5 8-14 14-25 14l0 0z m-138-212l-89 154 177 0-88-154z m-161 783c-66 0-120-54-120-120l0-760c0-66 54-120 120-120l320 0c66 0 119 54 119 120l0 760c0 66-53 120-119 120l-320 0z m382-120l0-760c0-34-28-62-62-62l-319 0c-17 0-33 6-45 18-12 11-18 27-18 44l0 760c0 35 27 62 62 62l319 0c17 1 33-6 45-17 11-12 18-28 18-45z" horiz-adv-x="1000" />

<glyph glyph-name="email-outline" unicode="&#xe869;" d="M938 725c34 0 62-28 62-62l0-625c0-35-28-63-62-63l-875 0c-35 0-63 28-63 63l0 625c0 34 28 62 63 62l875 0z m0-687l0 477-438-210-437 210 0-477 875 0z m0 547l0 78-875 0 0-78 437-210 438 210z" horiz-adv-x="1000" />

<glyph glyph-name="end-process-outline" unicode="&#xe86a;" d="M500-88c-109 0-209 41-286 108l616 616c67-77 108-177 108-286 0-241-197-438-438-438m-437 438c0 241 196 438 437 438 109 0 209-41 286-108l-616-616c-67 77-107 177-107 286m437 500c-276 0-500-224-500-500 0-276 224-500 500-500 276 0 500 224 500 500 0 276-224 500-500 500" horiz-adv-x="1000" />

<glyph glyph-name="engagement-outline" unicode="&#xe86b;" d="M956 147l-208 0c-16 0-31 10-39 25-7 14-5 32 5 45 26 34 79 55 139 55 59 0 111-21 138-55 10-13 12-31 5-46-8-14-23-24-39-24l-1 0z m-104 84c-45 0-87-16-105-40 0 0 0 0 0-1 0 0 1 0 1 0l208 0c0 0 0 0 1 0 0 0 0 1 0 1-19 25-60 40-105 40l0 0z m0 63c-40 0-72 32-72 72 0 40 32 72 72 72 40 0 72-32 72-72 0-40-32-72-72-72z m0 102c-12 0-24-7-28-18-5-12-2-25 6-34 9-8 22-11 34-6 11 5 18 16 18 28 0 17-14 30-30 30l0 0z m-601-249l-208 0c-16 0-31 10-38 24-8 15-6 33 4 46 26 34 79 55 139 55 59 0 110-21 138-55 9-13 11-31 4-45-7-15-22-25-39-25l0 0z m-103 84c-46 0-87-16-105-40-1 0-1-1 0-1 0 0 0 0 1 0l208 0c0 0 1 0 1 0 0 0 0 1 0 1-19 25-60 40-105 40l0 0z m0 63c-40 0-73 32-73 72 0 40 33 72 73 72 39 0 72-32 72-72 0-40-33-72-72-72z m0 102c-13 0-24-7-29-18-4-12-2-25 7-33 9-9 22-12 33-7 11 5 19 16 19 28 0 17-14 30-30 30l0 0z m449 122l-208 0c-16 0-31 9-38 24-8 14-6 32 4 45 26 34 79 55 139 55 59 0 111-21 138-55 10-13 12-31 5-45-8-15-23-24-39-24l-1 0z m-103 83c-46 0-87-16-105-40 0 0 0 0 0-1 0 0 1-1 1-1l208 0c1 0 1 1 1 1 0 0 0 1 0 1-19 24-60 40-105 40l0 0z m0 63c-29 0-56 18-67 45-11 27-5 58 16 78 20 21 51 27 78 16 27-11 45-38 45-67 0-40-32-72-72-72l0 0z m0 103c-13 0-24-8-28-19-5-11-3-25 6-33 9-9 22-12 33-7 12 5 19 16 19 28 0 17-14 30-30 31z m115-894l-206 0c-17 0-32 9-39 24-7 15-6 32 4 45 27 35 80 56 139 56 59 0 112-22 139-56 10-13 11-30 4-45-7-15-22-24-39-24l-2 0z m-103 83c-46 0-87-15-105-39 0 0 0 0 0-2 0 0 1 0 1 0l208 0c1 0 1 0 1 0 0 0 0 1 0 2-19 24-60 39-105 39l0 0z m0 63c-40 0-72 33-72 72 0 40 32 73 72 73 39 0 72-33 72-73 0-39-33-72-72-72z m0 103c-17 0-31-14-31-30 0-17 14-31 30-31 17 0 31 13 31 30 0 8-3 16-9 22-5 6-13 9-21 9l0 0z m-335 359c-4 0-8 1-11 3-9 5-13 17-8 27 27 47 62 88 104 121 6 5 14 7 22 4 7-3 12-10 13-17 1-8-3-16-9-20-38-29-70-66-93-108-4-6-11-10-18-10z m658 0c-8 0-15 4-18 11-24 41-55 78-93 108-10 7-11 20-4 29 7 9 20 11 29 4 43-33 78-74 104-121 4-6 4-14 0-21-4-6-11-10-18-10l0 0z m-560-531c-4 0-9 2-13 5-42 33-77 74-104 121-3 6-3 14 1 20 3 7 10 11 18 11 7-1 14-5 18-11 23-42 55-79 93-108 7-6 10-15 7-23-3-9-11-15-20-15l0 0z m461 0c-6 0-12 3-16 9-4 4-5 9-4 15 0 5 3 10 8 14 38 29 69 66 93 108 3 7 10 12 18 12 8 0 15-4 19-11 4-7 3-15-1-21-26-47-61-88-104-121-4-3-8-5-13-5l0 0z" horiz-adv-x="1000" />

<glyph glyph-name="open-in-new-outline" unicode="&#xe86c;" d="M938 350l62 0 0-417c0-46-37-83-83-83l-834 0c-46 0-83 37-83 83l0 834c0 46 37 83 83 83l417 0 0-62-417 0c-11 0-20-10-20-21l0-834c0-11 9-21 20-21l834 0c11 0 21 10 21 21l0 417z m-519-123l-44 43 519 518-228 0c-17 0-31 14-31 31 0 17 14 31 31 31l333 0 0-333c0-17-14-31-31-31-17 0-31 14-31 31l0 228-518-518z" horiz-adv-x="1000" />

<glyph glyph-name="exit-outline" unicode="&#xe86d;" d="M664 173l-41-41 90-91-630 0 0-59 630 0-90-91 41-41 162 162-162 161 0 0z m-581 44l171 0 0 61-96 0 0 237 91 0 0 61-91 0 0 213 96 0 0 61-171 0 0-633 0 0z m433 633l-75 0-44-221-44 221-75 0 78-315-84-318 75 0 50 233 50-233 75 0-82 318 76 315 0 0z m40 0l74 0 0-633-74 0 0 633z m123 0l0-61 65 0 0-572 75 0 0 572 65 0 0 61-205 0 0 0z" horiz-adv-x="1000" />

<glyph glyph-name="expand-outline" unicode="&#xe86e;" d="M0 850l313 0 0-62-250 0 0-250-63 0 0 312z m688 0l312 0 0-312-62 0 0 250-250 0 0 62z m250-687l62 0 0-313-312 0 0 62 250 0 0 251z m-938 0l63 0 0-251 250 0 0-62-313 0 0 313z" horiz-adv-x="1000" />

<glyph glyph-name="expand-chevron-outline" unicode="&#xe86f;" d="M947 429l-447 351-447-351c-12-10-32-10-44 0-12 9-12 25 0 35l491 386 491-386c12-10 12-26 0-35-12-10-32-10-44 0m-894-158l447-351 447 351c12 10 32 10 44 0 12-9 12-25 0-34l-491-387-491 387c-12 9-12 25 0 34 12 10 32 10 44 0" horiz-adv-x="1000" />

<glyph glyph-name="extension-outline" unicode="&#xe870;" d="M195 785l101 1c7 0 15 3 20 8 8 8 11 21 6 32-4 10-15 17-26 17l0 0-211 2 0 0-2-217c0-16 13-29 29-29l0 0c8 0 15 3 21 9 5 5 8 12 8 20l3 119 307-306 25-27 0-564 63 0 0 590-344 345z m716 65l0 0-210-1 0 0c-8 0-15-3-21-9-5-5-8-12-8-20-1-8 2-15 8-20 5-6 13-9 20-9l101-1-249-248 45-44 254 255 4-120c0-7 3-15 9-20 5-5 12-9 20-9l0 0c7 0 15 3 20 9 6 5 9 12 9 20l-2 217z" horiz-adv-x="1000" />

<glyph glyph-name="family-outline" unicode="&#xe871;" d="M500 350c-41 0-81 17-110 46-30 29-46 69-46 111 0 86 70 156 156 156 86-1 156-71 156-157 0-86-70-156-156-156z m0 256c-55 0-100-44-100-99 0-41 24-77 62-93 37-16 80-7 109 22 28 28 37 71 21 108-15 38-52 62-92 62z m-312-318c-69 0-125 55-125 124 0 51 30 97 77 116 46 19 100 9 136-27 36-36 46-90 27-136-19-47-65-77-115-77z m0 196c-19 0-37-8-50-21-14-13-21-31-21-50 0-39 31-71 71-71 39 0 70 32 70 71 0 39-31 71-70 71z m624-196c-68 0-124 56-124 124 0 51 30 97 77 116 46 19 100 9 136-27 36-36 46-90 27-136-19-47-65-77-116-77z m0 196c-39 0-70-32-70-71 0-39 31-71 70-71 40 0 71 32 71 71 0 39-31 71-71 71z m-27-289c58 1 115-11 167-36l17-8 0-270-938 0 0 271 17 8c52 24 109 36 167 36 20 0 41-2 61-5l0 13 17 8c64 30 134 45 205 44 72 1 144-14 209-45l16-9 0-12c21 4 41 5 62 5z m-692-254l183 0 0 189c-61 11-125 5-183-17l0-172z m245 0l324 0 0 224c-52 21-108 32-164 32-55 0-109-10-160-30l0-226z m569 0l0 172c-58 22-122 28-184 17l0-189 184 0z m-407 834l-473-237-27 61 500 251 500-251-26-61-474 237z" horiz-adv-x="1000" />

<glyph glyph-name="female-symbol-outline" unicode="&#xe872;" d="M822 522c1 176-139 321-315 328-176 7-326-127-339-303-14-176 115-331 290-351l0-131-183 0 0-73 183 0 0-142 73 0 0 142 182 0 0 73-182 0 0 131c166 19 291 159 291 326z m-582 0c0 140 114 254 255 254 140 0 254-114 254-254 0-141-114-255-254-255-141 1-255 114-255 255z" horiz-adv-x="1000" />

<glyph glyph-name="file-outline" unicode="&#xe873;" d="M938 725c34 0 62-28 62-62l0-688-1000 0 0 750 938 0z m-875-687l875 0 0 625-875 0 0-625z m218 281l-93 0 0-94-63 0 0 250 188 0 0-62-125 0 0-32 93 0 0-62z m157-94l-63 0 0 250 63 0 0-250z m125 63l93 0 0-63-156 0 0 250 63 0 0-187z m281 31l-70 0 0-31 101 0 0-63-156 0 0 250 156 0 0-62-101 0 0-32 70 0 0-62z" horiz-adv-x="1000" />

<glyph glyph-name="filter-outline" unicode="&#xe874;" d="M0 850l0-250 313-187 24-219 7-63 31-281 250 0 31 281 7 63 25 219 312 187 0 250-1000 0z m63-62l875 0 0-157-875 0 0 157z m308-338l-197 119 652 0-197-119-29-256-200 0-29 256z m36-319l186 0-24-219-138 0-24 219z" horiz-adv-x="1000" />

<glyph glyph-name="fire-exit-outline" unicode="&#xe875;" d="M1000 565l0-621-846 0 0 200 50 28 0-178 746 0 0 521-618 0-23 50 691 0z m-873 160l35-35c108-110 157-212 145-303-9-75-59-140-148-193l-80-49 54 76c1 2 78 111 42 198-12-14-25-27-39-39-29-25-50-43-49-114l2-64-37 53c-93 134-43 209 7 274l8 9 0 0c33 42 64 82 62 137l-2 50z m389-363l23-44c5-10 9-19 14-27l4-9c6 14 10 23 17 36l23 44 45 0-63-105 66-110-45 0-24 43c-9 17-15 28-21 41l-1 0c-5-13-11-24-20-41l-21-43-45 0 64 109-61 106 45 0z m-71 0l0-32-86 0 0-55 81 0 0-32-81 0 0-63 91 0 0-33-130 0 0 215 125 0z m268 0l0-215-39 0 0 215 39 0z m187 0l0-33-61 0 0-182-40 0 0 183-61 0 0 32 162 0z m-736 270c-11-47-40-84-67-118-44-57-81-103-43-187 11 43 34 63 57 83 20 15 36 34 48 55l15 28 18-25c46-62 34-137 14-191 34 30 56 71 63 115 9 71-26 152-105 240z" horiz-adv-x="1000" />

<glyph glyph-name="fire-extinguisher-outline" unicode="&#xe876;" d="M512 750l196-33 0 118-196-33 0 20c0 16-13 28-28 28l-18 0c-12 0-23-7-27-18-61-5-113-49-127-109-1-8 0-17 4-24 5-7 12-11 20-13 2-1 4-1 7-1 14 0 27 10 30 24 7 31 33 55 64 60l0-76c0-6 2-11 5-16-87-16-150-92-150-180l0-647 372 0 0 647c0 90-67 167-156 180 2 5 4 10 4 15l0 58z m90-253l0-585-248 0 0 585c0 68 56 124 124 124 69 0 124-56 124-124z m-137-88c1-25-14-44-29-63-25-31-53-66-7-131l17-24-1 30c0 32 9 41 23 52 7 6 13 12 18 18 17-40-19-91-19-91l-26-35 38 22c41 25 65 55 69 89 6 42-17 89-68 140l-16 16 1-23z" horiz-adv-x="1000" />

<glyph glyph-name="firehose-outline" unicode="&#xe877;" d="M778 148l-32 0 0 621c0 37-25 69-60 78-36 9-73-7-90-40-14 26-41 43-70 43-30 0-57-16-71-42-14 25-40 41-69 41-29 0-56-16-70-41-17 32-54 48-90 39-35-9-60-41-59-78l0-439c-1-37 24-69 59-78 35-9 72 7 90 38 14-25 41-41 70-41 28 0 55 16 69 41 13-23 36-38 62-40 26-3 52 8 69 28l0-130-28 0c-15 0-28-13-28-28l0-17c0-16 13-28 28-28l30 0 37-225 85 0 37 224 31 0c15 0 27 12 27 28l0 18c1 7-2 14-7 20-6 5-13 8-20 8l0 0z m-506 182c1-10-4-19-12-24-8-5-19-5-27 0-8 5-13 14-12 24l0 439c-1 10 4 19 12 24 8 5 19 5 27 0 8-5 13-14 12-24l0-439z m139 0c0-14-12-26-26-26-14 0-25 12-25 26l0 439c0 10 5 18 13 22 7 5 17 5 25 0 8-4 13-12 13-22l0-439z m139 0c0-10-4-19-13-24-8-5-18-5-26 0-8 5-13 14-12 24l0 439c-1 10 4 19 12 24 8 5 18 5 26 0 9-5 13-14 13-24l0-439z m91 439c0 14 10 25 24 25 13 0 24-11 24-25l0-621-48 0 0 621z m27-848l-28 163 56 0-28-163z" horiz-adv-x="1000" />

<glyph glyph-name="firstaid-outline" unicode="&#xe878;" d="M586-140c195 33 352 178 399 369 10 40 15 81 15 122l0 0c-1 242-175 449-413 491-57 11-115 11-171 0-240-40-416-247-416-491 0-243 176-451 416-491 56-10 114-10 170 0l0 0z m-521 491c0 241 195 437 436 437 241 0 437-196 437-437 0-241-196-436-437-436-241 0-436 195-436 436z m564-328l-260 0 0 196-195 0 0 259 195 0 0 195 260 0 0-195 195 0 0-259-195 0 0-196z m-197 63l135 0 0 195 195 0 0 135-195 0 0 195-135 0 0-195-195 0 0-135 195 0 0-195z" horiz-adv-x="1000" />

<glyph glyph-name="flag-outline" unicode="&#xe879;" d="M968 382l-305 468-616-946 0 0c-7-11-7-25-1-36 7-11 19-18 31-18 12 0 23 6 29 15l0 0 302 462 530 0c14-1 26 7 32 19 6 11 5 25-2 36l0 0z m-99 16l-417 0 210 321 207-321z" horiz-adv-x="1000" />

<glyph glyph-name="fnb-outline" unicode="&#xe87a;" d="M808 850c-91 0-169-66-184-156l-393 0-50 132c-4 12-16 20-29 20l-121 0 0-62 100 0 34-90-134 0c-12 0-23-7-28-18-5-10-4-23 4-33l382-480 0-251-136 0 0-62 332 0 0 62-134 0 0 251 267 336c27-15 58-23 90-23 68-2 132 33 166 92 35 58 35 131 0 190-34 59-98 94-166 92l0 0z m-156-218l92 0-57-72 0 0-65-82-309 0-58 154 397 0z m-79-216l-153-193-152 193 305 0z m-385 216l58-154-29 0-122 154 93 0z m620-94c-17-1-35 3-51 10l75 95c8 9 9 22 4 33-5 11-16 18-28 18l-121 0c16 63 78 103 142 92 64-11 109-69 103-134-5-65-59-115-124-114l0 0z" horiz-adv-x="1000" />

<glyph glyph-name="folder-closed-outline" unicode="&#xe87b;" d="M938 600c34 0 62-28 62-62l0-563c0-35-28-63-62-63l-875 0c-35 0-63 28-63 63l0 625 938 0z m-875-625l875 0 0 563-875 0 0-563z m0 750l0-62-63 0 0 62c0 35 28 63 63 63l250 0c34 0 62-28 62-63l0-62-62 0 0 62-250 0z" horiz-adv-x="1000" />

<glyph glyph-name="folder-opened-outline" unicode="&#xe87c;" d="M63 413l50-438 774 0 51 438-875 0z m-31 62l937 0c17 0 31-13 31-30 0-1 0-2 0-3l-53-477c-4-30-31-53-63-53l-768 0c-32 0-59 23-62 53l-54 477c-2 17 11 31 28 33 1 0 2 0 4 0z m843 156l-500 0 0 125-250 0 0-218-62 0 0 218c0 35 28 63 62 63l250 0c35 0 63-28 63-63l0-62 437 0c35 0 63-28 63-63l0-93-63 0 0 93z" horiz-adv-x="1000" />

<glyph glyph-name="folder-add-outline" unicode="&#xe87d;" d="M275 16l423 342 1-190c0-17 14-31 31-31 18 0 32 14 32 31l-2 297-296-2c-18 0-32-14-32-32 0-17 14-31 32-31l189 2-414-340 36-46z m-212 667l-63 0 0 63c0 34 28 62 63 62l250 0c34 0 62-28 62-62l0-63-62 0 0 63-250 0 0-63z m937-125l0-625c0-34-28-62-62-62l-875 0c-35 0-63 28-63 62l0 688 938 0c34 0 62-28 62-63z m-62 0l-875 0 0-625 875 0 0 625z" horiz-adv-x="1000" />

<glyph glyph-name="folder-delete-outline" unicode="&#xe87e;" d="M237 420l416-339-190 2c-17 0-31-14-31-32 0-17 14-31 31-31l296-2 2 296c0 18-14 32-31 32-17 0-31-14-31-32l-2-189-423 341-37-46z m-174 263l-63 0 0 63c0 34 28 62 63 62l250 0c34 0 62-28 62-62l0-63-62 0 0 63-250 0 0-63z m937-125l0-625c0-34-28-62-62-62l-875 0c-35 0-63 28-63 62l0 688 938 0c34 0 62-28 62-63z m-62 0l-875 0 0-625 875 0 0 625z" horiz-adv-x="1000" />

<glyph glyph-name="gameroom-outline" unicode="&#xe87f;" d="M592 97l16 0c116 3 210 85 271 146 128 128 172 342 11 503-66 71-161 109-258 104-93-8-179-48-244-115-61-61-142-156-145-272l0-15 29-146c-1-19-9-37-22-51l-187-177c-13-13-21-31-21-49 0-19 7-37 20-50l59-59c12-12 30-20 48-20l1 0c18 1 36 8 49 22l176 186c14 13 32 21 52 23l145-30z m-150 102c-38-3-73-19-99-45l-174-183-53 53 180 172 3 2c26 27 41 62 44 99 1 17 0 35-4 52l155-154c-17 4-35 5-52 4l0 0z m386 95c-77-77-143-116-207-123l-305 305c7 64 47 130 124 207 52 54 121 87 196 94 77 3 151-27 203-82 94-94 130-259-11-401z m48-444c-48 0-92 29-110 73-18 45-8 96 26 130 34 34 85 44 129 26 45-19 74-62 74-110-1-66-54-119-119-119z m0 165c-19 0-36-11-43-29-7-17-3-37 10-50 13-13 33-17 51-10 17 7 28 24 28 43 0 25-21 46-46 46l0 0z" horiz-adv-x="1000" />

<glyph glyph-name="checkbox-selected-fill" unicode="&#xe880;" d="M178-149l644 0c59 0 103 14 133 44 30 30 45 74 45 132l0 646c0 58-15 102-45 132-30 30-74 45-133 45l-644 0c-58 0-102-15-133-45-30-30-45-74-45-132l0-646c0-58 15-102 45-132 31-30 75-44 133-44z m265 237c-11 0-21 2-29 7-9 4-17 11-25 21l-129 157c-10 12-15 25-15 39 0 14 5 27 15 37 10 10 22 15 36 15 9 0 17-2 24-6 7-4 14-10 21-18l100-126 217 346c12 20 27 29 45 29 14 0 26-4 37-13 11-9 16-21 16-35 0-7-1-13-4-20-2-6-6-13-10-19l-248-385c-13-20-30-29-51-29z" horiz-adv-x="1000" />

<glyph glyph-name="gender-neutral-outline" unicode="&#xe881;" d="M593 850l0-63 164 0-135-135c-95 73-225 79-326 14-100-64-149-185-122-301 28-117 125-203 244-216l0-114-158 0 0-63 158 0 0-122 63 0 0 122 157 0 0 63-157 0 0 114c103 11 191 78 230 174 39 96 22 205-44 285l134 134 0-163 63 0 0 271-271 0z m-144-640c-89 0-169 53-203 135-34 82-15 176 48 239 62 63 157 82 239 48 82-34 135-114 135-203 0-121-98-219-219-219l0 0z" horiz-adv-x="1000" />

<glyph glyph-name="globe-map-outline" unicode="&#xe882;" d="M277 727l32-36c13-16 13-38 7-78-3-19-7-38-3-47 3-19 25-57 40-75 19-25 60-53 103-82 85-59 144-103 150-156l3-19-12-9c-3-3-9-6-13-9-6-3-15-10-15-13 0-15 34-37 59-56 35-22 56-38 63-56 9-22 6-69 0-88-2 0-13-28-28-59 76 30 141 81 188 145 12 48 20 155 7 174-6 9-37 15-59 18-25 3-41 10-53 16-6 3-10 9-19 19-6 6-12 15-16 15-9 3-31 3-53 0-28-3-50-6-62 0-41 16-110 66-122 103-3 10 0 22 6 29 6 6 16 12 28 9 7 0 16-3 19-3 9-3 25-6 28-3 19 12 31 50 44 84 9 25 19 50 28 66 6 6 9 9 19 15 6 3 15 13 19 16 0 3-29 12-38 16-16 6-28 9-34 12-7 3-10 9-16 19-3 6-12 15-16 19-3 0-6-10-9-13-3-3-3-6-6-9-6-7-13-13-22-13-9 0-16 0-22 6-9 7-22 22-28 35-6 12-6 28-3 59l0 9c-71-5-137-26-194-60z m-78-60c-84-79-136-192-136-317 0-242 195-438 437-438 31 0 62 4 91 10 16 34 31 77 37 100 3 9 3 37 0 44-3 3-28 22-40 28-41 28-88 59-88 109 0 28 19 44 34 56-21 29-81 72-115 94-47 35-91 63-116 97-19 25-44 72-53 100-3 22 0 47 3 72 0 3 3 12 3 22-27 2-46 10-57 23z m336 119c0-4 0-7-2-11 0-3 0-6 0-9 10 6 19 9 28 9 35 0 54-25 66-41 0-3 3-3 3-6 3-3 10-3 13-6 28-9 75-22 81-66 6-37-25-62-44-72-3-3-6-3-6-6-6-9-13-31-19-47-15-47-34-93-72-115-3 0-6-3-6-3 13-10 25-16 41-22 3 0 22 3 31 3 31 3 59 6 84-3 19-7 32-22 41-35 3-3 6-6 6-9 6-3 22-6 31-6 35-7 75-13 97-44 9-11 14-30 17-51 8 33 13 68 13 104 0 230-178 419-403 436z m-35-936c-276 0-500 224-500 500 0 276 224 500 500 500 276 0 500-224 500-500 0-276-224-500-500-500z" horiz-adv-x="1000" />

<glyph glyph-name="globe-outline" unicode="&#xe883;" d="M878 131l-100 0c18 58 28 121 31 188l127 0c-5-68-25-132-58-188l0 0z m-187-174c25 32 47 69 65 112l79 0c-40-47-88-85-144-112l0 0z m-526 112l79 0c18-43 40-80 65-112-56 27-104 65-144 112l0 0z m26 250c3-67 13-130 31-188l-100 0c-33 56-53 120-58 188l127 0z m-69 250l100 0c-18-57-28-121-31-188l-127 0c5 68 25 132 58 188l0 0z m187 174c-25-32-47-69-65-112l-79 0c40 47 88 85 144 112l0 0z m526-112l-79 0c-18 43-40 80-65 112 56-27 104-65 144-112l0 0z m-304-250l0 188 182 0c19-56 31-120 34-188l-216 0z m0-464l0 152 157 0c-40-82-95-138-157-152l0 0z m-62 152l0-152c-62 14-117 70-157 152l157 0z m0 714l0-152-157 0c40 82 95 138 157 152l0 0z m62 0c62-14 117-70 157-152l-157 0 0 152z m-244-214l182 0 0-188-216 0c3 68 15 132 34 188l0 0z m-34-250l216 0 0-188-182 0c-19 57-31 120-34 188l0 0z m460-188l-182 0 0 188 216 0c-3-68-15-131-34-188l0 0z m96 250c-3 67-13 131-31 188l100 0c33-56 53-120 58-188l-127 0z m-309 469c-276 0-500-224-500-500 0-276 224-500 500-500 276 0 500 224 500 500 0 276-224 500-500 500l0 0z" horiz-adv-x="1000" />

<glyph glyph-name="governance-outline" unicode="&#xe884;" d="M1000 342l-183 356-288 0 0 121-57 0 0-121-289 0-183-356 0-29c0-110 90-200 201-200 110 0 200 90 200 200l0 29-152 298 223 0 0-701-212 0 0-58 481 0 0 58-212 0 0 701 223 0-153-299 0-28c0-110 90-200 200-200 111 0 201 90 201 200l0 29z m-799-171c-68 0-126 47-140 113l279 0c-13-66-72-113-139-113z m-135 171l135 263 135-263-270 0z m733 263l135-263-271 0 136 263z m0-434c-68 0-126 47-140 113l280 0c-14-66-72-113-140-113l0 0z" horiz-adv-x="1000" />

<glyph glyph-name="grid-view-outline" unicode="&#xe885;" d="M0 413l0 437 438 0 0-437-438 0z m63 62l312 0 0 313-312 0 0-313z m500-62l0 437 437 0 0-437-437 0z m62 62l313 0 0 313-313 0 0-313z m-625-625l0 438 438 0 0-438-438 0z m63 62l312 0 0 313-312 0 0-313z m500-62l0 438 437 0 0-438-437 0z m62 62l313 0 0 313-313 0 0-313z" horiz-adv-x="1000" />

<glyph glyph-name="grow-revenue-outline" unicode="&#xe886;" d="M159 256l-34 43 608 493-175-1c-16 0-28 13-28 29 0 16 12 28 28 28l273 2 2-273c0-16-12-28-28-28-16 0-29 12-29 28l-2 175-615-496z m466 219l375 0 0-625-1000 0 0 250 313 0 0 219 312 0 0 156z m-562-437l0-126 250 0 0 126-250 0z m312-126l250 0 0 344-250 0 0-344z m563 0l0 501-250 0 0-501 250 0z" horiz-adv-x="1000" />

<glyph glyph-name="growth-outline" unicode="&#xe887;" d="M505-88l0 64c29-12 59-17 90-17 62 2 123 18 177 48 109 59 181 157 180 246l0 16-13 9c-72 51-193 46-303-13-51-27-95-65-130-111l0 149c70 46 116 150 115 266 0 124-53 234-132 274l-14 7-13-7c-79-40-131-151-131-275 0-114 45-217 114-264l0-57c-26 41-59 77-97 106-98 75-218 99-297 60l-14-7-2-15c-18-87 37-197 136-272 67-51 144-79 211-79 21 0 41 3 61 9l0-137-389 0 0-62 915 0 0 62-464 0z m160 298c81 44 169 53 224 25-8-61-65-130-145-173-80-43-170-52-225-24 8 60 65 129 146 172z m-456-41c-73 55-118 132-117 194 59 19 145-5 218-60 72-55 118-133 116-194-59-19-145 5-218 60l1 0z m183 399c0 92 33 175 82 211 50-36 84-119 84-210 1-92-33-175-82-211-50 35-84 119-84 210z" horiz-adv-x="1000" />

<glyph glyph-name="hand-outline" unicode="&#xe888;" d="M144 276c29-42 62-91 92-136l14-20c14-22 27-45 38-69 28-54 58-110 115-147 52-34 112-53 173-54l32 0c86 1 167 39 222 105 59 72 59 159 59 235l0 449c-3 45-40 81-85 80l-5 0c-16 0-31-4-44-13-1 44-36 78-79 79l-4 0c-17 0-34-6-49-16l0 1c-2 46-40 81-85 80l-3 0c-34 0-65-22-76-54-14 10-30 16-47 16l-4 0c-21 0-42-8-57-23-15-15-23-36-23-57l0 0 0-375-25 39c-15 20-37 33-62 37-25 3-50-3-70-18l0 0-9-7c-20-15-33-37-36-62-3-25 3-50 18-70z m690-86c0-70 0-144-47-200-44-54-110-85-180-86l-31 0c-51 1-101 16-144 45-45 29-69 76-96 127-12 25-26 50-42 73l-13 21c-30 45-64 95-93 138-7 8-10 19-9 29 1 11 6 21 15 28l1 0 8 6c18 13 42 10 56-7l56-90c7-16 25-24 42-19 17 5 27 21 25 39l0 438c0 7 3 14 8 18 4 5 11 8 18 8l4 0c14 0 26-12 25-26l0-357c0-21 18-38 39-38 8 0 17 3 23 10 7 7 10 17 9 27l0 396c0 15 12 26 26 26l5 0c15 1 29-10 31-26l0-395c0-21 17-38 38-38 9 0 18 3 24 10 7 7 10 17 9 27l0 330c3 16 16 27 32 26l4 0c14-1 24-12 24-26l0-329c-1-10 3-21 10-28 6-7 14-10 23-10 21 0 38 17 38 38l0 264c0 7 3 14 8 19 5 5 12 8 19 8l4 0c15 0 29-11 31-27l0-449z" horiz-adv-x="1000" />

<glyph glyph-name="hand-wave-outline" unicode="&#xe889;" d="M789 541c9-46 19-101 29-150l5-23c5-24 11-48 19-71 18-54 35-111 22-173-12-57-39-109-79-151l-21-21c-57-56-137-84-217-77-86 8-143 66-194 116l-297 298c-28 31-26 79 4 109l3 3c10 11 23 18 37 20-28 30-28 76 1 105l2 2c12 12 27 19 43 22l-1 1c-28 32-26 80 4 109l2 2c23 23 57 29 86 15 2 15 9 30 21 42l2 2c14 14 33 22 53 22 20 0 39-8 53-22l0 0 248-248-9 43c-4 23 2 46 16 65 14 18 35 31 58 34l0 0 11 1c23 4 46-3 65-17 18-14 31-35 34-58z m-400-513c47-47 95-95 164-102 65-6 129 17 176 63l20 20c34 35 56 78 66 125 10 49-5 97-21 148-8 25-15 50-21 76l-4 23c-10 49-21 105-30 152-1 10-6 19-14 26-7 6-18 9-28 8l0-1-10-1c-20-3-35-21-32-42l22-96c6-15 0-33-15-41-14-8-32-4-42 10l-290 289c-4 5-11 8-17 8-7 0-13-3-17-8l-3-2c-9-10-9-25 0-34l236-236c14-14 14-37 0-51-5-6-13-9-21-9-10 1-19 5-25 12l-262 262c-9 10-25 10-34 0l-3-3c-11-10-12-26-4-38l261-261c14-14 14-36 0-50-5-6-13-10-21-10-10 1-19 5-25 12l-218 218c-12 9-28 7-38-3l-3-3c-8-10-8-24 1-33l218-218c7-6 12-15 13-25 0-8-4-16-10-22-14-14-36-14-50 0l-175 175c-4 5-11 7-17 7-7 0-13-2-18-7l-2-3c-11-10-12-26-4-38l297-297z" horiz-adv-x="1000" />

<glyph glyph-name="help-question-outline" unicode="&#xe88a;" d="M500 850c276 0 500-224 500-500 0-276-224-500-500-500-276 0-500 224-500 500 0 276 224 500 500 500z m0-938c241 0 438 197 438 438 0 241-197 438-438 438-241 0-437-197-437-438 0-241 196-438 437-438z m-7 219l0 73 58 0 0-73-58 0z m115 434c14-12 25-27 33-43 8-17 12-37 12-58 0-27-6-51-19-70-10-17-24-34-40-49-11-11-21-21-28-27-6-6-8-10-10-12 0-2-2-6-3-13-1-8-2-20-2-36l-62 1c0 19 1 33 2 43 2 13 5 24 10 34 6 10 13 19 22 28 7 6 16 15 27 27 13 12 24 24 32 37 6 10 9 22 9 37 0 12-2 22-6 31-5 9-10 16-18 23-7 6-16 11-26 14-24 9-56 7-77-2-12-5-21-11-30-19-8-9-14-19-18-31-4-13-7-28-7-44l-62 0c0 23 3 45 10 65 7 20 18 38 32 53 15 15 32 26 52 34 34 14 82 17 120 3 18-6 34-15 47-26z" horiz-adv-x="1000" />

<glyph glyph-name="view-off-outline" unicode="&#xe88b;" d="M44 850l955-951-22-23-22-22-955 952 22 22 22 22z m129-305l44-44-126-120 216-205c80-76 196-95 294-58l48-47c-125-59-281-40-385 59l-264 251 173 164z m563 87l264-251-209-198-45 43 163 155-216 206c-96 91-247 100-354 26l-46 44c131 98 322 90 443-25z m-392-257l150-150-2 0c-81 4-145 69-148 150z m156 163c86 0 156-70 156-157 0-21-4-41-11-59l-52 49c1 3 1 7 1 10 0 52-42 94-94 94-5 0-10 0-15-1l-51 49c20 9 42 15 66 15z" horiz-adv-x="1000" />

<glyph glyph-name="home-outline" unicode="&#xe88c;" d="M500 788l500-500-156 0 0-376-688 0 0 376-156 0 500 500z m0-94l-344-344 63 0 0-375 562 0 0 375 63 0-344 344z" horiz-adv-x="1000" />

<glyph glyph-name="horizontal-more-outline" unicode="&#xe88d;" d="M929 433c-40 0-72-32-72-71 0-40 32-71 72-71 39 0 71 31 71 71 0 39-32 71-71 71z m-858 0c-39 0-71-32-71-71 0-40 32-72 71-72 40 0 72 32 72 72 0 39-32 71-72 71z m429 0c-39 0-71-32-71-71 0-40 32-71 71-71 40 0 71 31 71 71 0 39-31 71-71 71z" horiz-adv-x="1000" />

<glyph glyph-name="hospital-outline" unicode="&#xe88e;" d="M1000-88l0-62-62 0-165 0-117 0-62 0-188 0-62 0-117 0-164 0-63 0 0 62 63 0 0 626c0 34 28 62 62 62l39 0 0 188c0 34 28 62 63 62l546 0c35 0 63-28 63-62l0-188 39 0c35 0 63-28 63-62l0-626 62 0z m-875 626l0-626 219 0 0 344 312 0 0-344 219 0 0 626-94 0 0 250-562 0 0-250-94 0z m281-626l188 0 0 282-188 0 0-282z m63 438l0 156-156 0 0 63 156 0 0 156 62 0 0-156 157 0 0-63-157 0 0-156-62 0z" horiz-adv-x="1000" />

<glyph glyph-name="hub-outline" unicode="&#xe88f;" d="M848 228c-22 0-42-8-58-23l-148 85c17 41 16 87-2 128l148 85c27-29 71-34 104-13 33 21 47 63 32 100-14 36-53 58-92 50-39-7-67-41-67-81 0-6 1-13 3-19l-151-86c-27 33-65 55-108 61l0 173c40 11 66 49 60 90-5 41-40 72-81 72-42 0-77-31-82-72-5-41 20-79 60-90l0-173c-42-6-81-28-108-61l-152 88c2 6 2 12 2 18 0 40-28 74-67 81-39 8-78-13-92-51-15-37-1-79 33-100 34-21 77-15 104 14l150-86c-18-40-19-87-3-128l-149-86c-15 16-36 24-58 24-36 1-68-22-80-56-11-34 0-71 28-93 29-22 68-23 98-3 29 20 43 57 33 91l148 86c27-37 68-61 113-67l0-174c-40-11-65-49-60-90 5-41 40-72 82-72 41 0 76 31 81 72 6 41-20 79-60 90l0 174c45 5 86 30 113 67l146-85c-2-7-3-14-3-22 0-33 20-63 51-76 31-13 66-6 90 17 24 24 31 59 18 90-13 31-43 51-76 51z m0 375c17 0 33-10 40-26 6-17 3-35-10-47-12-13-30-16-47-10-16 7-26 23-26 40 0 24 19 43 43 43z m-722-86c-18 0-33 10-40 26-7 16-3 35 9 47 13 12 31 16 47 9 16-6 27-22 27-39 0-24-19-43-43-43z m0-414c-18-1-33 10-40 26-7 16-3 35 9 47 13 12 31 16 47 9 16-6 27-22 27-39 0-24-20-43-43-43l0 0z m319 664c0 18 10 34 27 41 16 6 34 3 47-10 12-12 16-31 9-47-7-16-23-26-40-26-24 0-43 19-43 42l0 0z m86-834c0-18-10-34-26-40-17-7-35-3-47 9-13 12-16 31-10 47 7 16 23 27 40 27 24-1 43-20 43-43l0 0z m60 387c-4-14-11-27-21-38-16-19-37-32-61-37-14-3-29-3-43 0-24 5-46 18-62 37-9 11-15 24-19 38-7 22-6 46 2 68 13 34 43 60 79 67 51 10 103-18 121-67 9-22 10-46 3-68l1 0z m257-217c-24 0-43 19-43 43 0 24 19 43 43 43 24 0 43-19 43-43 0-24-19-43-43-43z" horiz-adv-x="1000" />

<glyph glyph-name="idcard-outline" unicode="&#xe890;" d="M876 850c17 0 30-14 30-31l0-938c0-17-13-31-30-31l-720 0c-17 0-31 14-31 31l0 938c0 17 14 31 31 31l720 0z m-33-937l0 875-657 0 0-875 657 0z m-405 812l187 0 0-62-187 0 0 62z" horiz-adv-x="1000" />

<glyph glyph-name="image-outline" unicode="&#xe891;" d="M938 725c34 0 62-28 62-62l0-625c0-23-13-43-31-54-10-5-20-9-31-9l-875 0c-12 0-22 4-31 9-19 11-32 30-32 54l0 625c0 34 28 62 63 62l875 0z m-344-278l332-409 12 0 0 625-875 0 0-625 12 0 238 294 93-116 188 231z m-438-409l689 0-251 310-139-171-49-60-48 60-45 55-157-194z m94 375c-34 0-62 28-62 62 0 34 28 63 62 63 34 0 63-29 63-63 0-34-29-62-63-62m0 187c-69 0-125-56-125-125 0-69 56-125 125-125 69 0 125 56 125 125 0 69-56 125-125 125" horiz-adv-x="1000" />

<glyph glyph-name="immersive-technology-outline" unicode="&#xe892;" d="M981 725c-311 113-652 111-962-5-12-4-19-15-19-27l0-361c0-12 7-23 19-27 38-14 125-35 187-50l40-9c4-2 8-3 12-3 16 0 28 13 28 29l0 111c32 5 63 9 93 12 7 1 14 5 19 11 5 6 7 13 6 21 0 7-4 14-10 19-6 5-13 7-21 6-28-3-57-7-87-11l0 184c0 15-12 28-28 28l-4 0-1 0c-51 6-102 17-151 35 261 83 542 84 804 3-51-19-105-32-159-38l-1 0-4 0c-15 0-28-13-28-28l0-188c-28 5-56 9-84 11-7 1-15-1-21-6-6-5-9-12-10-20-1-15 11-29 26-31 29-2 59-6 89-11l0-108c0-16 13-29 28-29 4 0 9 1 12 3l40 9c63 15 149 36 188 50 11 4 18 15 18 27l0 366c0 12-7 23-19 27z m-210-126c59 7 117 22 172 44l0-290c-39-14-120-35-172-47l0 293z m-542-294c-52 13-132 34-172 48l0 291c55-22 113-38 172-45l0-294z m271-38c61 0 115 37 138 93 23 55 11 120-32 163-43 42-107 55-163 32-56-23-92-78-92-138 0-82 67-149 149-150l0 0z m0 243c51 0 93-42 93-93 0-51-42-93-93-93-51 0-93 42-93 93 0 25 10 48 28 65 17 18 40 28 65 28z m345-475l0 0c-63 82-199 135-345 135-146 0-281-53-344-135-16-21-19-49-7-72 12-24 35-38 61-38l580 0c26 0 50 14 62 38 11 23 9 51-7 72z m-44-47c-2-4-6-7-11-7l-580 0c-4 0-8 3-10 7-2 4-2 9 1 12 52 69 170 113 299 113 129 0 247-44 300-113 2-3 3-8 1-12l0 0z" horiz-adv-x="1000" />

<glyph glyph-name="infinity-outline" unicode="&#xe893;" d="M766 131c-67 0-131 29-175 79l-1 1-90 112-90-113c-65-73-168-98-259-64-91 35-151 122-151 219 0 97 60 185 151 219 91 35 194 9 259-64l1-1 89-111 90 113c71 81 189 102 284 52 96-49 145-158 119-263-25-105-119-178-227-178l0-1z m-135 114c50-57 129-76 200-49 70 26 117 94 117 169 0 75-47 143-117 170-71 26-150 7-200-49l-97-121 97-120z m-397 302c-83 0-155-57-175-138-20-81 17-165 91-204 74-39 164-23 220 40l97 120-96 121c-35 39-85 61-137 61z" horiz-adv-x="1000" />

<glyph glyph-name="information-outline" unicode="&#xe894;" d="M500-150c-276 0-500 224-500 500 0 276 224 500 500 500 276 0 500-224 500-500 0-276-224-500-500-500z m0 938c-241 0-437-197-437-438 0-241 196-438 437-438 241 0 438 197 438 438 0 241-197 438-438 438z m-31-688l0 313 62 0 0-313-62 0z m31 438c-17 0-31 14-31 31 0 17 14 31 31 31 17 0 31-14 31-31 0-17-14-31-31-31z" horiz-adv-x="1000" />

<glyph glyph-name="jewelry-outline" unicode="&#xe895;" d="M955 562l-218 191-16 14-442 0-234-205-45-38 501-588 461 544 38 44-45 38z m-70-77l-317-374 122 374 195 0z m-191 62l31 134 150-134-181 0z m-158 157l130 0-26-113-104 113z m89-219l-125-381-125 381 250 0z m-221 62l96 105 96-105-192 0z m-71 157l130 0-104-113-26 113z m97-588l-314 369 193 0 121-369z m-306 431l150 133 32-133-182 0z" horiz-adv-x="1000" />

<glyph glyph-name="junk-outline" unicode="&#xe896;" d="M148 633l13-630c1-45 39-82 84-82l516 0c45 0 82 37 83 82l13 630 71 0-12-631c-2-85-71-152-155-152l-516 0c-85 0-153 67-155 152l-13 631 71 0z m521-95l44-45-156-156 156-156-44-44-156 156-156-156-44 44 156 156-156 156 44 45 156-157 156 157z m-633 312l928 0c20 0 36-16 36-36 0-19-16-35-36-35l-928 0c-20 0-36 16-36 35 0 20 16 36 36 36z" horiz-adv-x="1000" />

<glyph glyph-name="keyboard-outline" unicode="&#xe897;" d="M1000 683l0-576c0-17-6-33-18-44-12-12-28-19-44-19l0 0-875 0c-17 0-33 7-45 19-11 11-18 27-18 44l0 0 0 576 1000 0z m-62-62l-875 0 0-514 875 0 0 514z m-281-380l0-63-314 0 0 63 314 0z m-53 165c23 0 42-19 42-42 0-23-19-42-42-42-23 0-41 19-41 42 0 23 18 42 41 42z m-416 0c23 0 41-19 41-42 0-23-18-42-41-42-23 0-42 19-42 42 0 23 19 42 42 42z m208 0c23 0 42-19 42-42 0-23-19-42-42-42-23 0-42 19-42 42 0 23 19 42 42 42z m417 0c23 0 41-19 41-42 0-23-18-42-41-42-23 0-42 19-42 42 0 23 19 42 42 42z m-209 153c23 0 42-19 42-42 0-23-19-42-42-42-23 0-41 19-41 42 0 23 18 42 41 42z m-416 0c23 0 41-19 41-42 0-23-18-42-41-42-23 0-42 19-42 42 0 23 19 42 42 42z m208 0c23 0 42-19 42-42 0-23-19-42-42-42-23 0-42 19-42 42 0 23 19 42 42 42z m417 0c23 0 41-19 41-42 0-23-18-42-41-42-23 0-42 19-42 42 0 23 19 42 42 42z" horiz-adv-x="1000" />

<glyph glyph-name="labs-outline" unicode="&#xe898;" d="M278-95l-1 0c-53 3-91 21-114 54-36 52-16 118-14 125 0 1 1 2 1 4l178 386c0 30 0 152 0 174 0 2-2 5-5 6-14 0-27 6-37 16-11 11-17 26-16 41 0 15 6 30 17 40 11 10 25 16 40 16l222 0c17 0 31-14 31-31l2-258c18-39 118-257 174-377 0-1 1-2 1-4 19-58 16-106-10-141-36-50-105-51-108-51l-361 0z m1 63l360 0c0 0 40 1 58 26 16 22 10 57 1 83-61 133-175 380-176 382-2 4-3 9-3 13l-1 233-158 0c19-12 30-33 30-55 0-25 0-177 0-183 0-5-1-9-3-13l-178-390c-4-14-9-48 6-70 11-16 32-25 64-26l0 0z m-180 160c-4 4-4 20-4 25l0 335 0 5c-1 9-7 16-15 20l-2 1 93 0 0-235 50 110 0 150 0 5c-2 12-14 21-26 20l-123 0-16 0c-36-2-56-16-56-48l0-5c2-23 21-42 44-42l0-316c0-26 7-67 32-75m924 142c-1 84-49 160-125 196l0 182c0 18-14 32-31 32l0 0 0 0-111 0c-33 0-69-18-69-56 1-23 16-43 38-49l0-110c-7-3-13-6-18-9l26-58c10 7 21 12 33 16 13 4 21 17 21 30l0 157c0 13-9 13-12 18l61-1 0-16 0 0 0-157c0-13 8-25 20-30 5-1 105-37 105-145 0-86-67-125-105-140l27-57c62 26 140 87 140 197z m-369-113l-9 28-333 0-9-28c-9-28-20-54-12-72 8-18 26-29 46-28l283 0c20-1 39 10 47 28 8 18-3 44-13 72" horiz-adv-x="1000" />

<glyph glyph-name="layout-outline" unicode="&#xe899;" d="M552-150l0 1000-62 0 0-1000 62 0z m-406 0l0 1000-63 0 0-1000 63 0z m812 0l0 1000-62 0 0-1000 62 0z" horiz-adv-x="1000" />

<glyph glyph-name="leader-outline" unicode="&#xe89a;" d="M501 300c-152 1-275 124-275 275 0 152 123 275 275 275 152 0 275-123 275-275 0-152-123-275-275-275z m0 489c-118-1-213-96-213-214 0-118 95-213 213-213 118 0 213 95 213 213 0 118-95 214-213 214z m410-611c11-5 19-16 19-28l0-269c0-17-14-31-31-31l-796 0c-17 0-31 14-31 31l0 269c0 12 7 23 19 28 241 106 579 106 820 0z m-410-58l-32-109 30-31 34 32-32 108z m367-209l0 218c-88 35-181 56-275 63l-54-18 61-166c5-14-1-31-15-38l-88-66-82 67c-13 7-18 23-13 37l61 166-54 18c-94-7-187-28-275-63l0-218 734 0z" horiz-adv-x="1000" />

<glyph glyph-name="left-chevron-circle-outline" unicode="&#xe89b;" d="M585-142c23 4 45 9 66 15 164 52 291 187 333 355 10 39 16 80 16 122l0 0 0 0c0 42-6 83-16 122-47 190-203 337-398 370-28 5-57 8-86 8-29 0-58-3-85-8-196-33-352-180-399-370-10-39-16-80-16-122 0-42 6-83 16-122 42-168 169-303 333-355 21-6 43-11 66-15 28-5 56-8 85-8 29 0 58 3 85 8l0 0z m-522 492c0 241 196 438 437 438 241 0 438-197 438-438 0-241-197-438-438-438-241 0-437 197-437 438l0 0z m405 0l153 153-45 44-197-197 197-197 45 44-153 153 0 0z" horiz-adv-x="1000" />

<glyph glyph-name="left-chevron-outline" unicode="&#xe89c;" d="M763 841c-12 12-32 12-44 0l-491-491 491-491c6-6 14-9 22-9 8 0 16 3 22 9 12 12 12 32 0 44l-447 447 447 447c12 12 12 32 0 44" horiz-adv-x="1000" />

<glyph glyph-name="library-outline" unicode="&#xe89d;" d="M198 506l0-125 0-3c1-18 16-31 33-30 17 1 30 16 29 33l0 129c-1 17-16 29-32 28-17-1-30-15-30-32m562 63l0-125 0-4c3-16 17-28 33-27 17 1 29 14 30 31l0 125 0 3c-2 17-17 28-33 27-16 0-29-14-30-30m-281 62l0-250 0-3c2-17 17-28 33-27 16 1 29 14 29 30l0 250 0 4c-2 16-16 28-32 27-17-1-30-14-30-31m-62-593l187 0 0-126-187 0 0 126z m-313 62l250 0 0-188-250 0 0 188z m563 0l250 0 0-188-250 0 0 188z m-250 63l187 0 0-63-187 0 0 63z m-313 500l250 0 0-500-250 0 0 500z m563 62l250 0 0-562-250 0 0 562z m-250 63l187 0 0-563-187 0 0 563z m-32 62l-4 0c-15-2-27-15-27-31l0-94-281 0c-17 0-31-14-31-31l0-813c0-17 14-31 31-31l875 0c17 0 31 14 31 31l0 875 0 5c-2 15-15 27-31 27l-281 0 0 31c0 17-14 31-32 31l-250 0z" horiz-adv-x="1000" />

<glyph glyph-name="library-reports-outline" unicode="&#xe89e;" d="M530 705l0-720-249 0 0 720 249 0z m-45-45l-159 0 0-630 159 0 0 630z m-21-533l0-45-117 0 0 45 117 0z m0 406l0-45-117 0 0 45 117 0z m0 71l0-45-117 0 0 45 117 0z m-215 101l0-720-249 0 0 720 249 0z m-45-45l-159 0 0-630 159 0 0 630z m-21-533l0-45-117 0 0 45 117 0z m0 416l0-45-117 0 0 45 117 0z m0 71l0-45-117 0 0 45 117 0z m584 111l233-681-235-80-234 680 236 81z m-29-57l-150-52 205-595 150 51-205 596z m158-510l15-42-111-39-14 43 110 38z m-137 383l15-43-111-38-14 42 110 39z m-21 68l15-42-110-39-15 43 110 38z" horiz-adv-x="1000" />

<glyph glyph-name="life-insurance-outline" unicode="&#xe89f;" d="M999 114c-5 24-11 48-19 71l-1 3-2 2c-14 12-14 13-290-16-1 29-23 53-52 56l-283 32-44 34-308 83 0-385 25-8c77-23 203-61 237-73 9-7 22-7 42-7l24 0c26 0 61 1 95 1 70 2 138 3 138 3l5 0 392 133c30 10 47 40 41 71z m-930 174l209-55 47-38 293-34 0-45-312 0 0-69 314 0c32 0 60 24 66 56 82 8 189 20 240 24 1-5 2-12 4-20l-375-127c-94-2-237-5-263-4-26 11-80 28-222 69l-1 243z m488 234c92 0 172-33 208-82 9-12 11-27 4-40-6-13-19-22-34-22l-357 0c-15 0-28 8-35 21-6 13-5 29 4 41 38 49 117 82 210 82z m88 156c0-48-40-88-89-88-48 0-88 40-88 89 0 48 40 88 89 88 23 0 45-10 62-26 16-17 26-39 26-63l0 0z m354-564c-5 24-11 48-19 71l-1 3-2 2c-14 12-14 13-290-16-1 29-23 53-52 56l-283 32-44 34-308 83 0-385 25-8c77-23 203-61 237-73 9-7 22-7 42-7l24 0c26 0 61 1 95 1 70 2 138 3 138 3l5 0 392 133c30 10 47 40 41 71z m-930 174l209-55 47-38 293-34 0-45-312 0 0-69 314 0c32 0 60 24 66 56 82 8 189 20 240 24 1-5 2-12 4-20l-375-127c-94-2-237-5-263-4-26 11-80 28-222 69l-1 243z m488 234c92 0 172-33 208-82 9-12 11-27 4-40-6-13-19-22-34-22l-357 0c-15 0-28 8-35 21-6 13-5 29 4 41 38 49 117 82 210 82z m88 156c0-48-40-88-89-88-48 0-88 40-88 89 0 48 40 88 89 88 23 0 45-10 62-26 16-17 26-39 26-63l0 0z" horiz-adv-x="1000" />

<glyph glyph-name="lightbulb-outline" unicode="&#xe8a0;" d="M616 78l-220 0c-11 1-22-5-28-14-5-10-5-22 0-32 6-9 17-15 28-14l220 0c16 1 28 14 28 30 0 16-12 29-28 30l0 0z m-34-84l-157 0c-17 0-30-13-30-30 0-17 13-30 30-30l157 0c16 0 30 13 30 30 0 17-14 30-30 30z m-33-84l-86 0c-11 1-22-5-27-14-6-10-6-22 0-32 5-9 16-15 27-14l86 0c16 1 28 14 28 30 0 16-12 29-28 30l0 0z m139 623c-30 37-85 80-180 80-95 0-150-43-180-80-36-46-56-102-56-161 0-55 25-95 50-134 4-6 8-13 12-19 19-27 33-50 33-91 0-11 5-22 15-28 9-6 21-6 31 0 10 6 15 17 15 28 0 58-22 91-44 125-4 5-8 11-11 17-22 34-40 63-40 102 0 142 110 181 175 181 65 0 175-38 175-181 0-38-18-68-40-102l-11-17c-22-34-44-67-44-124-2-12 3-24 13-30 10-7 23-7 33-1 10 6 15 18 14 29 0 42 15 64 33 92l13 19c24 39 49 79 49 134 1 58-19 115-55 161l0 0z m-182 128c17 0 30 13 30 30l0 127c1 11-4 22-14 28-10 6-22 6-31 0-10-6-16-17-15-28l0-127c0-17 14-30 30-30l0 0z m-256-107c13-10 32-9 42 4 11 13 9 32-3 43l-97 81c-6 5-14 8-22 7-8-1-16-4-21-10-5-7-8-15-7-23 1-8 5-15 11-20l97-82z m-21-177c0 16-14 30-30 30l-127 0c-17 0-30-14-30-30 0-17 13-30 30-30l127 0c16 0 30 13 30 30l0 0z m47-169c-8 1-16-2-22-7l-97-81c-11-11-12-29-2-42 10-12 28-14 41-4l97 81c9 8 13 21 9 32-3 12-14 20-26 21z m493-2c-13 10-31 9-42-4-11-12-9-31 3-42l97-81c6-5 12-8 20-8 9 0 17 4 23 11 5 6 7 14 7 22-1 8-5 16-11 21l-97 81z m178 208l-127 0c-16 0-30-14-30-30 0-17 14-31 30-31l127 0c17 0 30 14 30 31 0 16-13 30-30 30l0 0z m-202 138c7 0 14 3 19 7l98 82c9 7 13 18 11 29-1 11-9 20-20 24-10 4-22 1-30-7l-97-81c-10-9-14-22-9-34 4-12 15-20 28-20z" horiz-adv-x="1000" />

<glyph glyph-name="like-outline" unicode="&#xe8a1;" d="M81 323c-104 101-109 272-11 380 49 54 117 85 188 85 66 0 129-26 177-73l65-64 65 64c48 47 111 73 177 73 71 0 139-31 188-85 47-53 72-121 70-193-2-72-31-138-81-187l-419-411-419 411z m419-323l375 367c39 38 61 89 62 145 2 56-17 109-53 149-37 41-89 64-142 64-50 0-97-19-133-55l-109-107-44 43-65 64c-36 36-83 55-133 55-53 0-105-23-142-64-75-83-71-216 9-294l375-367z" horiz-adv-x="1000" />

<glyph glyph-name="link-outline" unicode="&#xe8a2;" d="M630 263l283 283-217 217-283-283-43 44 282 283c24 24 63 24 87 0l218-218c24-24 24-63 0-87l-283-282-44 43z m-43-43l43-44-282-283c-24-24-63-24-87 0l-217 218c-24 24-24 63 0 87l282 282 44-43-283-283 217-217 283 283z m-326-66l435 435 43-43-435-435-43 43z" horiz-adv-x="1000" />

<glyph glyph-name="link-broken-outline" unicode="&#xe8a3;" d="M681 299l254 257-229 229-257-254-46 46 257 254c12 12 29 19 46 19 17 0 34-7 46-19l229-229c12-12 19-29 19-46 0-17-7-34-19-46l-255-257-45 46z m-387-384l-229 229 255 252-46 46-255-252c-12-12-19-29-19-46 0-17 7-34 19-46l229-229c12-12 29-19 46-19 17 0 34 7 46 19l252 254-45 46-253-254z m285 466l173 175-46 46-173-175 46-46z m-285-283l172 173-46 46-172-173 46-46z m669-169l-885 884-44-44 885-884 44 44z" horiz-adv-x="1000" />

<glyph glyph-name="link-unlinked-outline" unicode="&#xe8a4;" d="M356 397l46-46-212-210 226-227 211 213 45-46-211-212c-23-24-61-25-86-5l-5 5-226 227c-24 23-25 60-5 85l5 5 212 211z m146-123l46-46-132-132-45 45 131 133z m118 557l227-227c25-25 25-65 0-90l-213-216-46 45 214 215-227 228-216-213-46 46 216 212c25 25 66 25 91 0z m-45-227l45-45-133-134-45 45 133 134z" horiz-adv-x="1000" />

<glyph glyph-name="list-view-outline" unicode="&#xe8a5;" d="M125 319l0 62 875 0 0-62-875 0z m0 250l0 62 875 0 0-62-875 0z m0-500l0 62 875 0 0-62-875 0z m-125 250l0 62 63 0 0-62-63 0z m0 250l0 62 63 0 0-62-63 0z m0-500l0 62 63 0 0-62-63 0z" horiz-adv-x="1000" />

<glyph glyph-name="list-bar-view-outline" unicode="&#xe8a6;" d="M0 392l0 375 1000 0 0-375-1000 0z m63 62l874 0 0 250-874 0 0-250z m-63-562l0 375 1000 0 0-375-1000 0z m63 62l874 0 0 250-874 0 0-250z" horiz-adv-x="1000" />

<glyph glyph-name="accessibility-outline" unicode="&#xe8a7;" d="M742 464l-154-36 0-138 59-266c4-17-6-33-23-37-3 0-5 0-7 0-15 0-27 10-31 24l-49 219-76 0-47-219c-4-17-21-28-38-24-17 4-27 21-23 38l58 269 1 0 0 132-154 38c-11 2-20 10-24 21-3 11 0 23 8 31 8 9 20 12 31 9l184-45 79 0 192 45c11 3 23 0 31-9 8-8 11-20 7-31-4-11-13-19-24-21l0 0z m258-114c0-276-224-500-500-500-276 0-500 224-500 500 0 276 224 500 500 500 133 0 260-53 354-146 93-94 146-221 146-354z m-62 0c0 242-196 438-438 438-242 0-437-196-437-438 0-242 195-438 437-438 242 1 437 197 438 438z m-438 370c-53 0-96-43-96-96 0-53 43-96 96-96 53 0 96 43 96 96 0 25-10 50-28 68-18 18-43 28-68 28l0 0z" horiz-adv-x="1000" />

<glyph glyph-name="location-locked-outline" unicode="&#xe8a8;" d="M1000 381l0-62-60 0c-16-219-190-393-409-409l0-60-62 0 0 60c-219 16-393 190-409 409l-60 0 0 62 60 0c16 219 190 393 409 409l0 60 62 0 0-60c219-16 393-190 409-409l60 0z m-469-408c184 16 330 162 346 346l-35 0 0 62 35 0c-16 184-162 330-346 346l0-35-62 0 0 35c-184-16-330-162-346-346l35 0 0-62-35 0c16-184 162-330 346-346l0 35 62 0 0-35z m125 453c18 0 32-14 32-31l0-213c0-17-14-31-32-31l-312 0c-17 0-31 14-31 31l0 213c0 17 14 31 31 31l26 0 0 27c-2 74 56 136 130 138 74-2 132-64 130-138l0-27 26 0z m-224 27l0-27 136 0 0 27c2 40-29 73-68 75-39-2-69-35-68-75z m193-240l0 151-250 0 0-151 250 0z" horiz-adv-x="1000" />

<glyph glyph-name="location-outline" unicode="&#xe8a9;" d="M787 731c159-159 159-416 0-574l-287-307-287 307c-159 158-159 415 0 574 158 159 416 159 574 0z m-287-790l243 260c134 134 134 352 0 486-134 134-352 134-486 0-134-134-134-352 1-488l242-258z m0 347c-86 0-156 70-156 156 0 86 70 156 156 156 86 0 156-70 156-156 0-86-70-156-156-156z m0 62c52 0 94 42 94 94 0 52-42 94-94 94-52 0-94-42-94-94 0-52 42-94 94-94z" horiz-adv-x="1000" />

</font>
</defs>
</svg>
