<?xml version="1.0" encoding="iso-8859-1"?>
<!-- Generator: Adobe Illustrator 24.0.1, SVG Export Plug-In . SVG Version: 6.00 Build 0)  -->
<svg version="1.1" id="Layer_1" xmlns="http://www.w3.org/2000/svg" xmlns:xlink="http://www.w3.org/1999/xlink" x="0px" y="0px"
	 viewBox="0 0 100 100" style="enable-background:new 0 0 100 100;" xml:space="preserve">
<circle style="fill:#D93955;" cx="50" cy="50" r="50"/>
<g id="PwC_fl_wo">
	<path id="Fill-1" style="fill-rule:evenodd;clip-rule:evenodd;fill:#FFFFFE;" d="M65.774,57.275
		c-2.572,0.415-3.887,2.315-3.887,5.659c0,3.364,1.752,5.614,4.438,5.614c1.25,0,2.385-0.415,4.772-1.586v2.722
		c-2.865,1.314-4.551,1.721-6.859,1.721c-2.499,0-4.257-0.664-5.693-2.127c-1.471-1.472-2.207-3.416-2.207-5.58
		c0-4.815,3.565-8.073,8.772-8.073c3.458,0,5.837,1.58,5.837,3.901c0,1.494-1.107,2.522-2.75,2.522
		c-0.843,0-1.536-0.221-2.422-0.735V57.275"/>
	<g id="Clip-3">
	</g>
	<path id="Fill-2" style="fill-rule:evenodd;clip-rule:evenodd;fill:#FFFFFE;" d="M53.08,63.698c2.306-2.908,3.121-4.08,3.121-5.508
		c0-1.421-1.128-2.566-2.636-2.566c-0.929,0-1.764,0.438-2.172,0.894v5.923l-3.779,5.035V55.997h-3.593l-5.973,9.902v-9.902h-2.065
		l-5.422,1.322v1.386l2.957,0.3v12.143h3.823l5.728-9.414v9.414h4.186L53.08,63.698"/>
	<path id="Fill-4" style="fill-rule:evenodd;clip-rule:evenodd;fill:#FFFFFE;" d="M19.147,75.914l2.479,0.551l0,1.406h-9.724v-1.406
		l2.216-0.551V58.926h-2.463v-1.457l5.949-1.807h1.543v2.028c2.786-1.658,3.743-1.951,5.172-1.951c3.3,0,5.736,3.044,5.736,7.258
		c0,4.872-3.25,8.15-8.372,8.15c-0.579,0-1.543-0.035-2.537-0.149V75.914z M19.147,69.278c0.407,0.019,0.585,0.019,0.843,0.019
		c3.079,0,4.73-1.92,4.73-5.6c0-3.115-1.35-4.772-3.843-4.772c-0.415,0-0.85,0.05-1.729,0.157V69.278z"/>
	<polygon id="Fill-6" style="fill-rule:evenodd;clip-rule:evenodd;fill:#FFFFFE;" points="47.623,46.978 62.509,46.978 
		62.509,43.256 47.623,43.256 	"/>
	<path id="Fill-7" style="fill-rule:evenodd;clip-rule:evenodd;fill:#FFFFFE;" d="M87.804,42.513h3.033v-5.955h-3.033V42.513z
		 M80.275,42.513h6.786v-5.955h-6.786V42.513z M63.252,20.114h13.358V17.95H63.252V20.114z M77.354,24.645h2.177v-3.788h-2.177
		V24.645z M77.354,35.814h2.177V25.388h-2.177V35.814z M77.354,42.513h2.177v-5.955h-2.177V42.513z M71.786,42.513h4.825v-5.955
		h-4.825V42.513z M63.252,42.513h7.791v-5.955h-7.791V42.513z M76.611,25.388v10.426h-4.825v-3.73l-8.532,0l-0.001-6.696H76.611z
		 M63.252,24.645h13.358v-3.788H63.252V24.645z M63.252,35.814h7.791v-2.986h-7.791V35.814z M80.275,35.814h6.786V25.388h-6.786
		V35.814z M87.804,35.814V24.645h-7.53v-4.531h-2.921v-2.907H62.509v26.049h29.072v-7.442H87.804z"/>
</g>
</svg>
