<svg width="52" height="40" xmlns="http://www.w3.org/2000/svg">
    <g fill="none" fill-rule="evenodd">
        <path d="M32.668 30.278c0-2.182.862-3.41 2.532-3.686l-.02 2.642c.568.33 1.028.476 1.578.476 1.082 0 1.796-.678 1.796-1.65 0-1.504-1.54-2.532-3.796-2.532-3.392 0-5.704 2.11-5.704 5.246 0 1.412.478 2.678 1.43 3.63.936.936 2.072 1.378 3.706 1.378 1.504 0 2.586-.258 4.456-1.12v-1.76c-1.54.75-2.292 1.026-3.1 1.026-1.742 0-2.878-1.466-2.878-3.65m-5.412-4.75c-.606 0-1.154.276-1.412.588v3.852l-2.458 3.282v-7.464H21.04l-3.89 6.438v-6.438h-1.34l-3.52.862v.898l1.924.2v7.906h2.496l3.724-6.126v6.126h2.732l3.78-4.878c1.504-1.888 2.034-2.66 2.034-3.576 0-.918-.734-1.67-1.724-1.67m-19.02.074c-.918 0-1.54.184-3.356 1.266v-1.32H3.872L0 26.72v.954h1.614v11.042l-1.45.366V40h6.328v-.918l-1.612-.366-.018-3.192c.64.074 1.282.092 1.65.092 3.338 0 5.448-2.128 5.448-5.302 0-2.732-1.578-4.712-3.724-4.712M5.43 34.424c-.166 0-.292 0-.55-.02l.016-6.62c.572-.072.844-.11 1.12-.11 1.616 0 2.496 1.082 2.496 3.1 0 2.402-1.084 3.65-3.082 3.65" fill="#464646"/>
        <path fill="#B12E2B" d="M23.38 19.337h9.743v-2.418H23.38zM33.123 16.92H52v-4.835h-2.436v-7.25h-4.871V1.812h-1.827V0h-9.743z"/>
        <path fill="#E25F91" d="M49.564 16.92H52v-4.835h-2.436z"/>
        <path fill="#DE4D2E" d="M44.693 16.92h4.871v-4.835h-4.871z"/>
        <path fill="#DC412D" d="M42.866 16.92h1.827v-4.835h-1.827z"/>
        <path fill="#DA332B" d="M39.212 16.92h3.654v-4.835h-3.654z"/>
        <path fill="#B12E2B" d="M33.123 16.92h6.09v-4.835h-6.09z"/>
        <path fill="#F3B235" d="M44.693 12.085h4.871v-7.25h-4.871z"/>
        <path fill="#E9842F" d="M42.866 12.085h1.827v-7.25h-1.827z"/>
        <path fill="#E0592B" d="M33.123 9.668h6.09v2.417h3.653v-7.25h-9.743z"/>
        <path fill="#B3452B" d="M33.123 12.085h6.09V9.668h-6.09z"/>
        <path fill="#F1AE7E" d="M42.866 4.834h1.827V1.813h-1.827z"/>
        <path fill="#E46C2F" d="M33.123 4.834h9.743V1.813h-9.743z"/>
        <path fill="#EB8C3A" d="M33.123 1.813h9.743V0h-9.743z"/>
    </g>
</svg>
