<?xml version="1.0" encoding="utf-8"?>
<!-- Generator: Adobe Illustrator 19.2.1, SVG Export Plug-In . SVG Version: 6.00 Build 0)  -->
<svg version="1.1" id="layer" xmlns="http://www.w3.org/2000/svg" xmlns:xlink="http://www.w3.org/1999/xlink" x="0px" y="0px"
	 viewBox="0 0 652 652" style="enable-background:new 0 0 652 652;" xml:space="preserve">
<style type="text/css">
	.st0{fill:#094894;}
</style>
<path class="st0" d="M58.4,334.8l2.7,0c6.8-0.1,15.2-0.2,19.3,3.9c1.8,1.8,2.7,4.3,2.7,7.7c0,2.9-0.8,5.2-2.5,6.9
	c-4.4,4.4-13.6,4.3-20.3,4.3h-3.1v-22.8H58.4z M57.4,286.4c10.9,0,16.9,1.6,16.9,10.1c0,7.2-4.5,10.1-15.5,10.1h-1.6v-20.1H57.4z
	 M22.7,257.5h-2v128.9h52c30,0,47.2-13.4,47.2-36.8c0-18.1-8.3-29.1-23.3-32.6c7.6-5.3,11.5-13.4,11.5-25
	c0-22.9-13.2-34.5-39.1-34.5H22.7z M198,257.5h-73v128.9H200v-31.5h-38.6v-17.5H198v-31.5h-36.6v-16.8H200v-31.5H198z M241.5,257.5
	H207v128.9h75.4v-31.5h-38.9v-97.3H241.5z M482.4,257.6h-73v128.9h75.1v-31.5h-38.6v-17.5h36.6v-31.5h-36.6v-16.8h38.6v-31.5H482.4z
	 M618.6,257.6h-34.5v72.9c-5.8-7.5-56.8-72.9-56.8-72.9H492v128.9h36.5v-73.1c5.8,7.5,56.8,73.1,56.8,73.1h35.5V257.6H618.6z
	 M396,321.5v0.7c-0.1,32.6-21.5,53.2-49.6,58.9c24.6-7,41.8-28.4,42.1-59v-0.4c-0.3-30.5-17.5-51.9-42.1-58.9
	C374.4,268.6,395.9,289,396,321.5 M338.9,272.7c24.6,3.7,43.7,20.7,43.7,49.2c0,0,0,0.1,0,0.1h0c0,28.4-19.2,45.4-43.8,49
	c22.1-5.2,36.7-22.5,36.9-49.1C375.5,295.3,361,277.9,338.9,272.7 M370.4,321.8L370.4,321.8v0.2v0c-0.1,23.8-16.3,34.7-37,37.8
	c18.5-4.4,30.5-15.7,30.8-37.9c-0.3-22.2-12.3-33.5-30.8-37.9C354,287,370.3,298,370.4,321.8 M325.2,289.2
	c20.1,0.4,32.5,12.9,32.5,32.8c0,20.1-12.2,32.3-32.5,32.8V289.2z M402.2,322c0-35.5-29.3-64.4-65.4-64.4h-48v128.9h48
	C372.8,386.4,402.2,357.5,402.2,322"/>
</svg>
