<svg width="24" height="24" viewBox="0 0 24 24" fill="none" xmlns="http://www.w3.org/2000/svg">
<g id="Fill=true" clip-path="url(#clip0_116702_9853)">
<path id="Vector" d="M23.256 0C23.464 0 23.64 0.072 23.784 0.216C23.928 0.36 24 0.536 24 0.743999V5.256C24 5.464 23.928 5.64 23.784 5.784C23.64 5.928 23.464 6 23.256 6H18.744C18.536 6 18.36 5.928 18.216 5.784C18.072 5.64 18 5.464 18 5.256V0.743999C18 0.536 18.072 0.36 18.216 0.216C18.36 0.072 18.536 0 18.744 0H23.256ZM14.256 0C14.464 0 14.64 0.072 14.784 0.216C14.928 0.36 15 0.536 15 0.743999V5.256C15 5.464 14.928 5.64 14.784 5.784C14.64 5.928 14.464 6 14.256 6H9.744C9.536 6 9.36 5.928 9.216 5.784C9.072 5.64 9 5.464 9 5.256V0.743999C9 0.536 9.072 0.36 9.216 0.216C9.36 0.072 9.536 0 9.744 0H14.256ZM5.256 0C5.464 0 5.64 0.072 5.784 0.216C5.928 0.36 6 0.536 6 0.743999V5.256C6 5.464 5.928 5.64 5.784 5.784C5.64 5.928 5.464 6 5.256 6H0.744C0.536 6 0.36 5.928 0.216 5.784C0.072 5.64 0 5.464 0 5.256V0.743999C0 0.536 0.072 0.36 0.216 0.216C0.36 0.072 0.536 0 0.744 0H5.256ZM23.256 9C23.464 9 23.64 9.072 23.784 9.216C23.928 9.36 24 9.536 24 9.744V14.256C24 14.464 23.928 14.64 23.784 14.784C23.64 14.928 23.464 15 23.256 15H18.744C18.536 15 18.36 14.928 18.216 14.784C18.072 14.64 18 14.464 18 14.256V9.744C18 9.536 18.072 9.36 18.216 9.216C18.36 9.072 18.536 9 18.744 9H23.256ZM14.256 9C14.464 9 14.64 9.072 14.784 9.216C14.928 9.36 15 9.536 15 9.744V14.256C15 14.464 14.928 14.64 14.784 14.784C14.64 14.928 14.464 15 14.256 15H9.744C9.536 15 9.36 14.928 9.216 14.784C9.072 14.64 9 14.464 9 14.256V9.744C9 9.536 9.072 9.36 9.216 9.216C9.36 9.072 9.536 9 9.744 9H14.256ZM5.256 9C5.464 9 5.64 9.072 5.784 9.216C5.928 9.36 6 9.536 6 9.744V14.256C6 14.464 5.928 14.64 5.784 14.784C5.64 14.928 5.464 15 5.256 15H0.744C0.536 15 0.36 14.928 0.216 14.784C0.072 14.64 0 14.464 0 14.256V9.744C0 9.536 0.072 9.36 0.216 9.216C0.36 9.072 0.536 9 0.744 9H5.256ZM23.256 18C23.464 18 23.64 18.072 23.784 18.216C23.928 18.36 24 18.536 24 18.744V23.256C24 23.464 23.928 23.64 23.784 23.784C23.64 23.928 23.464 24 23.256 24H18.744C18.536 24 18.36 23.928 18.216 23.784C18.072 23.64 18 23.464 18 23.256V18.744C18 18.536 18.072 18.36 18.216 18.216C18.36 18.072 18.536 18 18.744 18H23.256ZM14.256 18C14.464 18 14.64 18.072 14.784 18.216C14.928 18.36 15 18.536 15 18.744V23.256C15 23.464 14.928 23.64 14.784 23.784C14.64 23.928 14.464 24 14.256 24H9.744C9.536 24 9.36 23.928 9.216 23.784C9.072 23.64 9 23.464 9 23.256V18.744C9 18.536 9.072 18.36 9.216 18.216C9.36 18.072 9.536 18 9.744 18H14.256ZM5.256 18C5.464 18 5.64 18.072 5.784 18.216C5.928 18.36 6 18.536 6 18.744V23.256C6 23.464 5.928 23.64 5.784 23.784C5.64 23.928 5.464 24 5.256 24H0.744C0.536 24 0.36 23.928 0.216 23.784C0.072 23.64 0 23.464 0 23.256V18.744C0 18.536 0.072 18.36 0.216 18.216C0.36 18.072 0.536 18 0.744 18H5.256Z" fill="#474747"/>
</g>
<defs>
<clipPath id="clip0_116702_9853">
<rect width="24" height="24" fill="white"/>
</clipPath>
</defs>
</svg>
