<svg width="24" height="24" viewBox="0 0 24 24" fill="none" xmlns="http://www.w3.org/2000/svg">
<g clip-path="url(#clip0_15805_63602)">
<path d="M22.285 15.7942C22.125 15.1942 21.5084 14.8376 20.9084 14.9942C20.305 15.1542 19.9484 15.7676 20.1084 16.3676L20.835 19.0976L13.145 14.4309V4.31755L15.1484 6.31422C15.5884 6.75422 16.3017 6.75422 16.7417 6.31422C17.1817 5.87422 17.1817 5.16422 16.7417 4.72422L12.0017 0.00088501L7.26504 4.72422C6.82504 5.16422 6.82504 5.87422 7.26504 6.31422C7.70504 6.75422 8.41838 6.75422 8.85838 6.31422L10.805 4.37089V14.5042L3.16838 19.0976L3.89504 16.3676C4.05504 15.7676 3.69504 15.1509 3.09504 14.9942C2.49171 14.8342 1.87504 15.1942 1.71838 15.7942L0.00170898 22.2509L6.47504 23.9609C7.07838 24.1209 7.69504 23.7642 7.85171 23.1609C8.00838 22.5576 7.65171 21.9442 7.05171 21.7876L4.38838 21.0842L12.0317 16.4842L19.6117 21.0842L16.9484 21.7876C16.345 21.9476 15.9884 22.5609 16.1484 23.1609C16.3084 23.7609 16.925 24.1176 17.525 23.9609L23.9984 22.2509L22.2817 15.7909L22.285 15.7942Z" fill="black"/>
</g>
<defs>
<clipPath id="clip0_15805_63602">
<rect width="24" height="24" fill="white"/>
</clipPath>
</defs>
</svg>
