<svg width="24" height="24" viewBox="0 0 24 24" fill="none" xmlns="http://www.w3.org/2000/svg">
<g clip-path="url(#clip0_15805_63604)">
<path d="M12.9067 0V13.0033H10.9067V0.0133333C4.79 0.57 0 5.71333 0 11.98C0 18.62 5.37333 24 12 24C18.6267 24 24 18.62 24 11.98C24 5.34 19.11 0.463333 12.9067 0ZM3.03667 13.0033H1.03667V11H3.03667V13.0033ZM6.28667 13.0033H4.28667V11H6.28667V13.0033ZM9.53667 13.0033H7.53667V11H9.53667V13.0033ZM12.9033 22.8167H10.9033V20.8133H12.9033V22.8167ZM12.9033 19.56H10.9033V17.5567H12.9033V19.56ZM12.9033 16.3033H10.9033V14.3H12.9033V16.3033ZM16.27 13.0033H14.27V11H16.27V13.0033ZM19.52 13.0033H17.52V11H19.52V13.0033ZM20.77 13.0033V11H22.77V13.0033H20.77Z" fill="black"/>
</g>
<defs>
<clipPath id="clip0_15805_63604">
<rect width="24" height="24" fill="white"/>
</clipPath>
</defs>
</svg>
