<?xml version="1.0" encoding="UTF-8"?>
<svg width="24px" height="24px" viewBox="0 0 24 24" version="1.1" xmlns="http://www.w3.org/2000/svg" xmlns:xlink="http://www.w3.org/1999/xlink">
    <title>Icon/Fill/accessibility-fill</title>
    <g id="Icon/Fill/accessibility-fill" stroke="none" stroke-width="1" fill="none" fill-rule="evenodd">
        <g id="PwC_Funct_Icons_Accessibility_Fill_Black" fill="#474747" fill-rule="nonzero">
            <path d="M12,0 C5.372583,0 0,5.372583 0,12 C0,18.627417 5.372583,24 12,24 C18.627417,24 24,18.627417 24,12 C24,8.81740212 22.7357179,5.76515517 20.4852814,3.51471863 C18.2348448,1.26428208 15.1825979,0 12,0 Z M17.81,9.27 L14.11,10.14 L14.11,13.08 L15.5366667,19.83 C15.5781182,20.0240804 15.5406001,20.2266783 15.432399,20.3930452 C15.324198,20.5594122 15.1542169,20.6758594 14.96,20.7166667 C14.9079728,20.7230491 14.8553605,20.7230491 14.8033333,20.7166667 C14.4490892,20.7178904 14.1427449,20.47003 14.07,20.1233333 L12.8866667,14.5366667 L11.0733333,14.5366667 L9.93,20.1333333 C9.89135057,20.4098619 9.70228582,20.6420279 9.43931512,20.73588 C9.17634443,20.8297322 8.88300768,20.7697315 8.6780103,20.5801586 C8.47301292,20.3905857 8.39029619,20.102828 8.46333333,19.8333333 L9.85,13.0366667 L9.89,13.0366667 L9.89,10.1733333 L6.18666667,9.26666667 C5.91735188,9.21213281 5.69942065,9.01468946 5.61864867,8.75204849 C5.5378767,8.48940751 5.60719732,8.20362341 5.7993266,8.00717816 C5.99145587,7.81073291 6.27562974,7.73508165 6.54,7.81 L10.9633333,8.89 L12.8733333,8.89 L17.4633333,7.81 C17.7305404,7.73275519 18.0185527,7.8097338 18.2115904,8.00999071 C18.4046281,8.21024762 18.470985,8.50089096 18.3839859,8.7650832 C18.2969869,9.02927543 18.0709213,9.22362342 17.7966667,9.27 L17.81,9.27 Z M14.1766667,5.42666667 C14.1766667,6.62880647 13.2021398,7.60333333 12,7.60333333 C10.7978602,7.60333333 9.82333333,6.62880647 9.82333333,5.42666667 C9.82333333,4.22452686 10.7978602,3.25 12,3.25 C13.2013787,3.25183557 14.1748311,4.225288 14.1766667,5.42666667 L14.1766667,5.42666667 Z" id="Shape"></path>
        </g>
    </g>
</svg>