<svg width="24" height="24" viewBox="0 0 24 24" fill="none" xmlns="http://www.w3.org/2000/svg">
<g clip-path="url(#clip0_15805_63620)">
<path d="M19.4868 10.4017L16.8401 7.755L18.2534 6.34167L19.4868 7.575L22.5868 4.475L24.0001 5.88833L19.4868 10.4017Z" fill="black"/>
<path d="M21.6001 18.7183C19.7201 16.255 15.6801 14.5517 11.0001 14.5517C6.32011 14.5517 2.27678 16.255 0.396779 18.7183C-0.573221 19.9917 0.346779 21.8317 1.95011 21.8317H20.0501C21.6501 21.8317 22.5734 19.9917 21.6034 18.7183H21.6001ZM11.0001 11.115C13.4668 11.115 15.4668 9.11167 15.4668 6.64167C15.4668 4.17167 13.4668 2.16833 11.0001 2.16833C8.53345 2.16833 6.53345 4.17167 6.53345 6.64167C6.53345 9.11167 8.53345 11.115 11.0001 11.115Z" fill="black"/>
</g>
<defs>
<clipPath id="clip0_15805_63620">
<rect width="24.0001" height="24" fill="white"/>
</clipPath>
</defs>
</svg>
