<svg width="24" height="24" viewBox="0 0 24 24" fill="none" xmlns="http://www.w3.org/2000/svg">
<g clip-path="url(#clip0_15805_63616)">
<path d="M21.6472 18.8333C19.7639 16.33 15.7138 14.5967 11.0238 14.5967C6.33385 14.5967 2.28385 16.33 0.397182 18.8333C-0.576152 20.1267 0.347182 22 1.95385 22H20.0938C21.6972 22 22.6238 20.1267 21.6505 18.8333H21.6472ZM11.0238 11.1C13.4972 11.1 15.5005 9.06333 15.5005 6.55C15.5005 4.03667 13.4972 2 11.0238 2C8.55052 2 6.54718 4.03667 6.54718 6.55C6.54718 9.06333 8.55052 11.1 11.0238 11.1ZM22.6905 4.34333L21.0538 6.00333L19.4172 4.34333L18.1072 5.67333L19.7438 7.33333L18.1072 8.99333L19.4172 10.3233L21.0538 8.66333L22.6905 10.3233L24.0005 8.99333L22.3638 7.33333L24.0005 5.67333L22.6905 4.34333Z" fill="black"/>
</g>
<defs>
<clipPath id="clip0_15805_63616">
<rect width="24" height="24" fill="white"/>
</clipPath>
</defs>
</svg>
