<svg width="24" height="24" viewBox="0 0 24 24" fill="none" xmlns="http://www.w3.org/2000/svg">
<g clip-path="url(#clip0_15805_63610)">
<path d="M12.0001 12.8483C14.1568 12.8483 16.0168 13.6383 16.8834 14.7783C17.3301 15.3683 16.9068 16.2183 16.1701 16.2183H7.83343C7.09677 16.2183 6.6701 15.365 7.1201 14.7783C7.98677 13.6383 9.84677 12.8483 12.0034 12.8483H12.0001ZM12.0001 7.115C10.8634 7.115 9.94343 8.04167 9.94343 9.185C9.94343 10.3283 10.8634 11.255 12.0001 11.255C13.1368 11.255 14.0568 10.3283 14.0568 9.185C14.0568 8.04167 13.1368 7.115 12.0001 7.115ZM17.8168 16.205C16.5001 18.175 14.3134 19.3517 11.9634 19.3517C8.1401 19.3517 5.0201 16.2717 4.9201 12.4483L6.21343 13.7583C6.58343 14.1317 7.23343 14.135 7.60677 13.7583C7.9901 13.3717 7.9901 12.745 7.60677 12.3583L3.93343 8.64833L0.286768 12.3217C-0.0965658 12.7083 -0.0965658 13.335 0.286768 13.7217C0.656768 14.095 1.30677 14.095 1.6801 13.7217L2.9501 12.4417C3.04677 17.3617 7.05343 21.3317 11.9634 21.3317C15.0201 21.3317 17.8468 19.785 19.5201 17.195L19.7134 16.8983L17.9801 15.9583L17.8168 16.205ZM23.7134 10.2783C23.3434 9.905 22.6934 9.905 22.3201 10.2783L21.0501 11.5583C20.9534 6.63833 16.9468 2.66833 12.0368 2.66833C8.9801 2.66833 6.15343 4.215 4.4801 6.805L4.28677 7.10167L6.0201 8.04167L6.18343 7.795C7.5001 5.825 9.68677 4.64833 12.0368 4.64833C15.8601 4.64833 18.9801 7.72833 19.0801 11.5517L17.7868 10.2417C17.4168 9.86833 16.7668 9.865 16.3934 10.2417C16.0101 10.6283 16.0101 11.255 16.3934 11.6417L20.0668 15.3517L23.7134 11.6817C24.0968 11.295 24.0968 10.6683 23.7134 10.2817V10.2783Z" fill="black"/>
</g>
<defs>
<clipPath id="clip0_15805_63610">
<rect width="24" height="24" fill="white"/>
</clipPath>
</defs>
</svg>
