<svg width="24" height="24" viewBox="0 0 24 24" fill="none" xmlns="http://www.w3.org/2000/svg">
<path d="M22.835 11.5567V17.1433H1.16837V11.5067L1.57837 11.3C3.08837 10.5367 4.98837 10.1133 6.93171 10.1133C8.72171 10.1133 10.505 10.48 11.9584 11.1467C13.4117 10.48 15.1984 10.1133 16.985 10.1133C18.9717 10.1133 20.9084 10.55 22.4317 11.3467L22.835 11.5567ZM16.775 8.86333C19.205 8.86333 21.1817 6.87667 21.1817 4.43333C21.1817 1.99 19.205 0 16.775 0C14.345 0 12.3684 1.98667 12.3684 4.43C12.3684 6.87333 14.345 8.86 16.775 8.86V8.86333ZM6.72171 8.86333C9.15171 8.86333 11.1284 6.87667 11.1284 4.43333C11.1284 1.99 9.15171 0 6.72171 0C4.29171 0 2.31504 1.98667 2.31504 4.43C2.31504 6.87333 4.29171 8.86 6.72171 8.86V8.86333ZM20.175 18.3833C19.845 18.0567 19.3084 18.0567 18.9784 18.3833C18.6484 18.7133 18.6484 19.2467 18.9784 19.5767L19.5917 20.18L4.37837 20.1733L5.00171 19.48C5.16171 19.32 5.25171 19.11 5.25171 18.8833C5.25171 18.6567 5.16504 18.4467 5.00171 18.2867C4.67171 17.9567 4.13504 17.96 3.80171 18.2867L1.16504 21.0167L3.82504 23.6567C4.14504 23.9767 4.70171 23.9733 5.02171 23.6567C5.35171 23.3267 5.35171 22.7933 5.02171 22.4633L4.40837 21.86L19.6217 21.8667L18.9984 22.56C18.8384 22.72 18.7517 22.93 18.7517 23.1567C18.7517 23.3833 18.8384 23.5933 18.9984 23.7533C19.1617 23.9167 19.3784 24 19.595 24C19.8117 24 20.0317 23.9167 20.195 23.7533L22.8317 21.0233L20.1717 18.3833H20.175Z" fill="black"/>
</svg>
