<svg width="24" height="24" viewBox="0 0 24 24" fill="none" xmlns="http://www.w3.org/2000/svg">
<g clip-path="url(#clip0_15805_63618)">
<path d="M1.99813 0.00167847C1.5648 0.00167847 1.16813 0.145012 0.841465 0.375012C0.661465 0.505012 0.504798 0.661678 0.374798 0.841678C0.141465 1.16835 0.00146484 1.56501 0.00146484 1.99835V21.9983C0.00146484 22.4317 0.141465 22.8317 0.374798 23.1583C0.504798 23.3383 0.661465 23.495 0.841465 23.625C1.16813 23.8583 1.56813 23.9983 2.00146 23.9983H22.0015C22.4348 23.9983 22.8315 23.8583 23.1581 23.625C23.3381 23.495 23.4948 23.3383 23.6248 23.1583C23.8581 22.8317 23.9981 22.4317 23.9981 21.9983V0.00167847H1.99813ZM12.1581 4.65835C13.8415 4.65835 15.2048 6.02168 15.2048 7.70501C15.2048 9.38835 13.8415 10.7517 12.1581 10.7517C10.4748 10.7517 9.11147 9.38835 9.11147 7.70501C9.11147 6.02168 10.4748 4.65835 12.1581 4.65835ZM5.98813 18.0517C4.89813 18.0517 4.26813 16.7983 4.93146 15.9317C6.2148 14.255 8.96813 13.095 12.1615 13.095C15.3548 13.095 18.1081 14.255 19.3915 15.9317C20.0548 16.7983 19.4248 18.0517 18.3348 18.0517H5.98813Z" fill="black"/>
</g>
<defs>
<clipPath id="clip0_15805_63618">
<rect width="24" height="24" fill="white"/>
</clipPath>
</defs>
</svg>
