<?xml version="1.0" encoding="UTF-8"?>
<svg width="24px" height="24px" viewBox="0 0 24 24" version="1.1" xmlns="http://www.w3.org/2000/svg" xmlns:xlink="http://www.w3.org/1999/xlink">
    <title>Icon/Fill/add-user-fill</title>
    <g id="Icon/Fill/add-user-fill" stroke="none" stroke-width="1" fill="none" fill-rule="evenodd">
        <g id="Group" transform="translate(-0.000000, -0.000000)" fill="#474747" fill-rule="nonzero">
            <g id="add-user">
                <path d="M12,0 C18.6270001,0 24,5.37300002 24,12 C24,18.6270001 18.6270001,24 12,24 C5.37300002,24 0,18.6270001 0,12 C0,5.37300002 5.37300002,0 12,0 Z M13.4999435,12.0004617 C14.74266,12.0004617 15.7499435,10.9931781 15.7499435,9.75046167 C15.7499435,8.50728356 14.74266,7.50000003 13.4999435,7.50000003 C12.257227,7.50000003 11.2499435,8.50728356 11.2499435,9.75046167 C11.2499435,10.9931781 12.257227,12.0004617 13.4999435,12.0004617 Z M13.5001411,13.5000001 C10.9466689,13.5000001 8.74219301,14.5529501 7.71670421,16.0750757 C7.18671001,16.8619516 7.69020453,18.0000001 8.56319494,18.0000001 L18.4365871,18.0000001 C19.3095776,18.0000001 19.813572,16.8619516 19.2830778,16.0750757 C18.2575891,14.5529501 16.0536131,13.5000001 13.5001411,13.5000001 Z M6.75000003,4.50000002 L6.75000003,6.75000003 L4.50000002,6.75000003 L4.50000002,8.25000003 L6.75000003,8.25000003 L6.75000003,10.5 L8.25000003,10.5 L8.25000003,8.25000003 L10.5,8.25000003 L10.5,6.75000003 L8.25000003,6.75000003 L8.25000003,4.50000002 L6.75000003,4.50000002 Z" id="ic_add_user"></path>
            </g>
        </g>
    </g>
</svg>