<svg width="24" height="24" viewBox="0 0 24 24" fill="none" xmlns="http://www.w3.org/2000/svg">
<g clip-path="url(#clip0_15805_63634)">
<path d="M20.2019 10.7567C18.5985 10.7567 17.2285 11.7733 16.6752 13.2033C16.3985 13.1533 16.1252 13.0833 15.8552 12.9867C14.5852 12.5267 13.5785 11.58 13.0785 10.3933L13.0719 4.11667L15.0319 6.21C15.4585 6.64333 16.1452 6.64333 16.5719 6.21C16.9985 5.77667 16.9985 5.07667 16.5719 4.64667L11.9985 0L7.42187 4.64667C6.9952 5.08 6.9952 5.78 7.42187 6.21C7.84854 6.64333 8.5352 6.64333 8.96187 6.21L10.9985 4.11667V10.3233L10.9852 10.36C10.4919 11.5633 9.4752 12.5233 8.19187 12.9867C7.90854 13.09 7.61854 13.1633 7.32187 13.2133C6.76854 11.78 5.3952 10.7567 3.79187 10.7567C1.69854 10.7567 -0.00146484 12.4833 -0.00146484 14.61C-0.00146484 16.7367 1.69854 18.4633 3.79187 18.4633C5.57854 18.4633 7.07854 17.2 7.47854 15.5067C7.97854 15.44 8.47187 15.3167 8.95187 15.1433C9.7052 14.87 10.3919 14.4667 11.0019 13.9767V16.4433C9.40853 16.9 8.2352 18.3833 8.2352 20.1467C8.2352 22.27 9.9352 24 12.0285 24C14.1219 24 15.8219 22.2733 15.8219 20.1467C15.8219 18.3967 14.6652 16.9233 13.0919 16.4533V14.0033C13.6885 14.48 14.3619 14.8733 15.1052 15.14C15.5685 15.3067 16.0419 15.4233 16.5219 15.4933C16.9185 17.19 18.4185 18.46 20.2085 18.46C22.3019 18.46 24.0019 16.73 24.0019 14.6067C24.0019 12.4833 22.3019 10.7533 20.2085 10.7533H20.2052L20.2019 10.7567ZM3.79187 16.1733C2.9452 16.1733 2.25187 15.4733 2.25187 14.61C2.25187 13.7467 2.94187 13.0467 3.79187 13.0467C4.64187 13.0467 5.33187 13.7467 5.33187 14.61C5.33187 15.4733 4.64187 16.1733 3.79187 16.1733ZM13.5619 20.1467C13.5619 21.0067 12.8719 21.71 12.0219 21.71C11.1719 21.71 10.4819 21.01 10.4819 20.1467C10.4819 19.2833 11.1719 18.5833 12.0219 18.5833C12.8719 18.5833 13.5619 19.2833 13.5619 20.1467ZM20.2052 16.1733C19.3585 16.1733 18.6652 15.4733 18.6652 14.61C18.6652 13.7467 19.3552 13.0467 20.2052 13.0467C21.0552 13.0467 21.7452 13.7467 21.7452 14.61C21.7452 15.4733 21.0552 16.1733 20.2052 16.1733Z" fill="black"/>
</g>
<defs>
<clipPath id="clip0_15805_63634">
<rect width="24" height="24" fill="white"/>
</clipPath>
</defs>
</svg>
