<svg width="24" height="24" viewBox="0 0 24 24" fill="none" xmlns="http://www.w3.org/2000/svg">
<g clip-path="url(#clip0_15805_63625)">
<path d="M20.5833 8.41078C22.0333 7.50078 23.98 8.44412 24 8.45412V6.74745C22.97 6.42412 21.1767 6.11745 19.5833 7.12078C19.15 7.39078 18.6767 7.49745 18.22 7.51412V2.71412C18.22 2.59078 18.15 2.48078 18.0367 2.42745L15.9967 1.47745C15.7867 1.38078 15.5467 1.53412 15.5467 1.76412V22.5608C15.5467 22.7808 15.7667 22.9341 15.9733 22.8575L18.0133 22.0808C18.1367 22.0341 18.2167 21.9175 18.2167 21.7841V17.3141C18.9767 17.2975 19.8033 17.1208 20.58 16.6341C22.03 15.7241 23.9767 16.6675 23.9967 16.6775V14.9708C22.9667 14.6474 21.1733 14.3408 19.58 15.3441C19.1467 15.6141 18.6733 15.7208 18.2167 15.7375V13.2041C18.9767 13.1874 19.8033 13.0108 20.58 12.5241C22.03 11.6141 23.9767 12.5574 23.9967 12.5674V10.8608C22.9667 10.5374 21.1733 10.2308 19.58 11.2341C19.1467 11.5041 18.6733 11.6108 18.2167 11.6274V9.09412C18.9767 9.07745 19.8033 8.90078 20.58 8.41412L20.5833 8.41078Z" fill="black"/>
<path d="M1.39667 7.34745C1.68667 7.34745 1.95333 7.25745 2.17667 7.10745C2.25 7.05745 2.32 6.99745 2.38333 6.93412C2.63667 6.67745 2.79333 6.32745 2.79333 5.93745C2.79333 5.54745 2.63667 5.19412 2.38333 4.94078C2.25667 4.81412 2.10667 4.71078 1.94 4.63745C1.77333 4.56745 1.59 4.52745 1.39667 4.52745C1.20333 4.52745 1.02 4.56745 0.853333 4.63745C0.64 4.72745 0.46 4.87745 0.316667 5.05412C0.236667 5.15745 0.163333 5.26412 0.11 5.38745C0.04 5.55745 0 5.74078 0 5.93745C0 6.23078 0.0866667 6.50078 0.24 6.72412C0.49 7.10078 0.916667 7.34745 1.39667 7.34745Z" fill="black"/>
<path d="M3.15333 20.0674C3.15333 19.2908 2.52667 18.6574 1.75667 18.6574C0.986667 18.6574 0.36 19.2908 0.36 20.0674C0.36 20.0741 0.36 20.0808 0.36 20.0874C0.36 20.0941 0.36 20.1008 0.36 20.1075C0.36 20.8841 0.986667 21.5174 1.75667 21.5174C2.52667 21.5174 3.15333 20.8841 3.15333 20.1075C3.15333 20.1008 3.15333 20.0941 3.15333 20.0874C3.15333 20.0808 3.15333 20.0741 3.15333 20.0674Z" fill="black"/>
<path d="M10.99 0.0274493L8.96333 0.960783C8.85 1.01412 8.77667 1.12745 8.77667 1.25412V22.9141C8.77667 23.0475 8.86 23.1675 8.98667 23.2175L11.0133 23.9808C11.2233 24.0608 11.45 23.9041 11.45 23.6775V0.320783C11.45 0.0841159 11.2067 -0.0692174 10.9933 0.0274493H10.99Z" fill="black"/>
<path d="M14.6467 0.960783L12.62 0.0274493C12.4067 -0.0692174 12.1633 0.0841159 12.1633 0.320783V23.6741C12.1633 23.9008 12.39 24.0541 12.6 23.9775L14.6267 23.2141C14.7533 23.1675 14.8367 23.0475 14.8367 22.9108V1.25412C14.8367 1.12745 14.7633 1.01412 14.65 0.960783H14.6467Z" fill="black"/>
<path d="M7.62333 1.47745L5.58333 2.42745C5.47333 2.48078 5.4 2.59078 5.4 2.71412V15.2441C5.16333 15.0574 4.87 14.9441 4.55 14.9441C3.78 14.9441 3.15333 15.5775 3.15333 16.3541C3.15333 17.1308 3.78 17.7641 4.55 17.7641C4.87333 17.7641 5.16333 17.6508 5.4 17.4641V21.7875C5.4 21.9175 5.48 22.0375 5.60333 22.0841L7.64333 22.8608C7.85 22.9408 8.07 22.7874 8.07 22.5641V1.76412C8.07 1.53412 7.83 1.38078 7.62 1.47745H7.62333Z" fill="black"/>
<path d="M1.39667 15.1374C2.16667 15.1374 2.79333 14.5041 2.79333 13.7274C2.79333 13.7208 2.79333 13.7141 2.79333 13.7075C2.79333 13.7008 2.79333 13.6941 2.79333 13.6874C2.79333 12.9108 2.16667 12.2774 1.39667 12.2774C0.626667 12.2774 0 12.9108 0 13.6874C0 13.6941 0 13.7008 0 13.7075C0 13.7141 0 13.7208 0 13.7274C0 14.5041 0.626667 15.1374 1.39667 15.1374Z" fill="black"/>
<path d="M3.48 8.24745C3.20333 8.25412 2.94333 8.33745 2.73 8.48745C2.58 8.58745 2.45333 8.71745 2.35333 8.86745C2.20333 9.09412 2.11333 9.36412 2.11333 9.65412C2.11333 10.4308 2.74 11.0641 3.51 11.0641C4.28 11.0641 4.90667 10.4308 4.90667 9.65412C4.90667 9.55745 4.89667 9.46078 4.87667 9.37078C4.80333 9.00412 4.58667 8.68745 4.29 8.48412C4.06667 8.33078 3.8 8.24412 3.51 8.24412C3.51 8.24412 3.49 8.24412 3.48 8.24412V8.24745Z" fill="black"/>
</g>
<defs>
<clipPath id="clip0_15805_63625">
<rect width="24" height="24" fill="white"/>
</clipPath>
</defs>
</svg>
