<?xml version="1.0" encoding="UTF-8"?>
<svg width="24px" height="24px" viewBox="0 0 24 24" version="1.1" xmlns="http://www.w3.org/2000/svg" xmlns:xlink="http://www.w3.org/1999/xlink">
    <title>Icon/Fill/airplane-fill</title>
    <g id="Icon/Fill/airplane-fill" stroke="none" stroke-width="1" fill="none" fill-rule="evenodd">
        <g id="Group" transform="translate(-0.000000, -0.000000)" fill="#474747" fill-rule="nonzero">
            <g id="airplane" transform="translate(0.000000, 0.000000)">
                <path d="M18.6807871,22.2843029 C18.2635927,22.5062633 13.7553695,12.7917867 13.7553695,12.7917867 L6.99863069,19.5825588 C6.99863069,19.5825588 5.84488186,24.5640454 5.646777,23.9470823 C5.56979914,23.7073482 4.6996769,20.416731 4.46170969,19.515817 C3.56531085,19.2766512 0.291185167,18.4021462 0.0526525571,18.3247806 C-0.561218447,18.1256779 4.39530245,16.9661177 4.39530245,16.9661177 L11.1520413,10.1753457 C11.1520413,10.1753457 1.48625068,5.64441474 1.70709866,5.22511901 C1.79576822,5.05677348 4.38818683,5.2318375 7.45957096,5.50169313 C8.54166348,5.59676712 9.68320766,5.70360716 10.7956576,5.81134089 C12.3753576,5.96432483 13.8963903,6.11911087 15.1052126,6.24456711 L19.4086534,1.91945018 C19.4086534,1.91945018 20.7661091,0.555157011 22.9770322,0.0486300175 C25.1879552,-0.457896975 23.326511,3.12845554 21.9690553,4.49274871 L17.6662921,8.81718468 C18.1284958,13.3155921 18.9911371,22.119187 18.6807871,22.2843029 Z" id="Combined-Shape" style="mix-blend-mode: darken;"></path>
            </g>
        </g>
    </g>
</svg>