<?xml version="1.0" encoding="UTF-8"?>
<svg width="24px" height="24px" viewBox="0 0 24 24" version="1.1" xmlns="http://www.w3.org/2000/svg" xmlns:xlink="http://www.w3.org/1999/xlink">
    <title>Icon/Rich text editor/center</title>
    <g id="Icon/Rich-text-editor/center" stroke="none" stroke-width="1" fill="none" fill-rule="evenodd">
        <path d="M22.4374513,22.6249508 C22.5937007,22.6249508 22.7265133,22.5702632 22.8358878,22.4608887 C22.9452623,22.3515142 22.9999499,22.2187016 22.9999499,22.0624522 L22.9999499,22.0624522 L22.9999499,20.5624557 C22.9999499,20.4062064 22.9452623,20.2733937 22.8358878,20.1640192 C22.7265133,20.0546447 22.5937007,19.9999571 22.4374513,19.9999571 L22.4374513,19.9999571 L2.56249866,19.9999571 C2.40624927,19.9999571 2.27343661,20.0546447 2.16406211,20.1640192 C2.05468761,20.2733937 2,20.4062064 2,20.5624557 L2,20.5624557 L2,22.0624522 C2,22.2187016 2.05468761,22.3515142 2.16406211,22.4608887 C2.27343661,22.5702632 2.40624927,22.6249508 2.56249866,22.6249508 L2.56249866,22.6249508 L22.4374513,22.6249508 Z M17.937462,16.6249651 C18.0937114,16.6249651 18.2265241,16.5702775 18.3358986,16.460903 C18.4452731,16.3515285 18.4999607,16.2187159 18.4999607,16.0624665 L18.4999607,16.0624665 L18.4999607,14.56247 C18.4999607,14.4062207 18.4452731,14.273408 18.3358986,14.1640335 C18.2265241,14.054659 18.0937114,13.9999714 17.937462,13.9999714 L17.937462,13.9999714 L7.06248793,13.9999714 C6.90623854,13.9999714 6.77342588,14.054659 6.66405138,14.1640335 C6.55467688,14.273408 6.49998927,14.4062207 6.49998927,14.56247 L6.49998927,14.56247 L6.49998927,16.0624665 C6.49998927,16.2187159 6.55467688,16.3515285 6.66405138,16.460903 C6.77342588,16.5702775 6.90623854,16.6249651 7.06248793,16.6249651 L7.06248793,16.6249651 L17.937462,16.6249651 Z M22.4374513,10.6249794 C22.5937007,10.6249794 22.7265133,10.5702918 22.8358878,10.4609173 C22.9452623,10.3515428 22.9999499,10.2187302 22.9999499,10.0624808 L22.9999499,10.0624808 L22.9999499,8.56248435 C22.9999499,8.40623496 22.9452623,8.2734223 22.8358878,8.1640478 C22.7265133,8.0546733 22.5937007,7.99998569 22.4374513,7.99998569 L22.4374513,7.99998569 L2.56249866,7.99998569 C2.40624927,7.99998569 2.27343661,8.0546733 2.16406211,8.1640478 C2.05468761,8.2734223 2,8.40623496 2,8.56248435 L2,8.56248435 L2,10.0624808 C2,10.2187302 2.05468761,10.3515428 2.16406211,10.4609173 C2.27343661,10.5702918 2.40624927,10.6249794 2.56249866,10.6249794 L2.56249866,10.6249794 L22.4374513,10.6249794 Z M17.937462,4.62499374 C18.0937114,4.62499374 18.2265241,4.57030613 18.3358986,4.46093163 C18.4452731,4.35155713 18.4999607,4.21874447 18.4999607,4.06249508 L18.4999607,4.06249508 L18.4999607,2.56249866 C18.4999607,2.40624927 18.4452731,2.27343661 18.3358986,2.16406211 C18.2265241,2.05468761 18.0937114,2 17.937462,2 L17.937462,2 L7.06248793,2 C6.90623854,2 6.77342588,2.05468761 6.66405138,2.16406211 C6.55467688,2.27343661 6.49998927,2.40624927 6.49998927,2.56249866 L6.49998927,2.56249866 L6.49998927,4.06249508 C6.49998927,4.21874447 6.55467688,4.35155713 6.66405138,4.46093163 C6.77342588,4.57030613 6.90623854,4.62499374 7.06248793,4.62499374 L7.06248793,4.62499374 L17.937462,4.62499374 Z" id="Color" fill="#474747"></path>
    </g>
</svg>