<?xml version="1.0" encoding="UTF-8"?>
<svg width="24px" height="24px" viewBox="0 0 24 24" version="1.1" xmlns="http://www.w3.org/2000/svg" xmlns:xlink="http://www.w3.org/1999/xlink">
    <title>Icon/Rich text editor/align left</title>
    <g id="Icon/Rich-text-editor/align-left" stroke="none" stroke-width="1" fill="none" fill-rule="evenodd">
        <path d="M22.4374513,22.6249508 C22.5937007,22.6249508 22.7265133,22.5702632 22.8358878,22.4608887 C22.9452623,22.3515142 22.9999499,22.2187016 22.9999499,22.0624522 L22.9999499,22.0624522 L22.9999499,20.5624557 C22.9999499,20.4062064 22.9452623,20.2733937 22.8358878,20.1640192 C22.7265133,20.0546447 22.5937007,19.9999571 22.4374513,19.9999571 L22.4374513,19.9999571 L2.56249866,19.9999571 C2.40624927,19.9999571 2.27343661,20.0546447 2.16406211,20.1640192 C2.05468761,20.2733937 2,20.4062064 2,20.5624557 L2,20.5624557 L2,22.0624522 C2,22.2187016 2.05468761,22.3515142 2.16406211,22.4608887 C2.27343661,22.5702632 2.40624927,22.6249508 2.56249866,22.6249508 L2.56249866,22.6249508 L22.4374513,22.6249508 Z M14.9374692,16.6249651 C15.0937185,16.6249651 15.2265312,16.5702775 15.3359057,16.460903 C15.4452802,16.3515285 15.4999678,16.2187159 15.4999678,16.0624665 L15.4999678,16.0624665 L15.4999678,14.56247 C15.4999678,14.4062207 15.4452802,14.273408 15.3359057,14.1640335 C15.2265312,14.054659 15.0937185,13.9999714 14.9374692,13.9999714 L14.9374692,13.9999714 L2.56249866,13.9999714 C2.40624927,13.9999714 2.27343661,14.054659 2.16406211,14.1640335 C2.05468761,14.273408 2,14.4062207 2,14.56247 L2,14.56247 L2,16.0624665 C2,16.2187159 2.05468761,16.3515285 2.16406211,16.460903 C2.27343661,16.5702775 2.40624927,16.6249651 2.56249866,16.6249651 L2.56249866,16.6249651 L14.9374692,16.6249651 Z M22.4374513,10.6249794 C22.5937007,10.6249794 22.7265133,10.5702918 22.8358878,10.4609173 C22.9452623,10.3515428 22.9999499,10.2187302 22.9999499,10.0624808 L22.9999499,10.0624808 L22.9999499,8.56248435 C22.9999499,8.40623496 22.9452623,8.2734223 22.8358878,8.1640478 C22.7265133,8.0546733 22.5937007,7.99998569 22.4374513,7.99998569 L22.4374513,7.99998569 L2.56249866,7.99998569 C2.40624927,7.99998569 2.27343661,8.0546733 2.16406211,8.1640478 C2.05468761,8.2734223 2,8.40623496 2,8.56248435 L2,8.56248435 L2,10.0624808 C2,10.2187302 2.05468761,10.3515428 2.16406211,10.4609173 C2.27343661,10.5702918 2.40624927,10.6249794 2.56249866,10.6249794 L2.56249866,10.6249794 L22.4374513,10.6249794 Z M14.9374692,4.62499374 C15.0937185,4.62499374 15.2265312,4.57030613 15.3359057,4.46093163 C15.4452802,4.35155713 15.4999678,4.21874447 15.4999678,4.06249508 L15.4999678,4.06249508 L15.4999678,2.56249866 C15.4999678,2.40624927 15.4452802,2.27343661 15.3359057,2.16406211 C15.2265312,2.05468761 15.0937185,2 14.9374692,2 L14.9374692,2 L2.56249866,2 C2.40624927,2 2.27343661,2.05468761 2.16406211,2.16406211 C2.05468761,2.27343661 2,2.40624927 2,2.56249866 L2,2.56249866 L2,4.06249508 C2,4.21874447 2.05468761,4.35155713 2.16406211,4.46093163 C2.27343661,4.57030613 2.40624927,4.62499374 2.56249866,4.62499374 L2.56249866,4.62499374 L14.9374692,4.62499374 Z" id="Color" fill="#474747"></path>
    </g>
</svg>