<svg width="24" height="24" viewBox="0 0 24 24" fill="none" xmlns="http://www.w3.org/2000/svg">
<path d="M6.5965 10.47H8.96317V12.9667H6.5965V10.47ZM5.29317 9.17H8.96317V4.58H13.9765V7.23333H17.6632V12.9667H21.3365C21.5565 12.1233 21.6798 11.24 21.6798 10.33C21.6798 4.63333 17.0798 0 11.4232 0C5.7665 0 1.1665 4.63333 1.1665 10.33C1.1665 11.24 1.2865 12.1233 1.5065 12.9667H5.29317V9.17ZM10.3065 12.9667H12.6332V5.92333H10.3065V12.97V12.9667ZM13.9932 12.9667H16.3465V8.54667H13.9932V12.9667ZM18.1732 18.0967C19.2998 17.1033 20.2065 15.8633 20.8165 14.4667H2.0265C3.61317 18.1067 7.2265 20.66 11.4198 20.66C13.4932 20.66 15.4198 20.0367 17.0365 18.9667L21.7998 24L22.8332 23.0233L18.1732 18.0933V18.0967Z" fill="black"/>
</svg>
