<?xml version="1.0" encoding="UTF-8"?>
<svg width="24px" height="24px" viewBox="0 0 24 24" version="1.1" xmlns="http://www.w3.org/2000/svg" xmlns:xlink="http://www.w3.org/1999/xlink">
    <title>Icon/Fill/apparel-fill</title>
    <g id="Icon/Fill/apparel-fill" stroke="none" stroke-width="1" fill="none" fill-rule="evenodd">
        <g id="Group" transform="translate(0.000000, 4.000000)" fill="#474747" fill-rule="nonzero">
            <path d="M22.4452836,11.8838104 L22.4452836,11.8838104 L13.1183975,6.82796353 L13.1183975,5.90694974 C14.2819143,5.46652835 15.048885,4.34905332 15.0415002,3.10499229 C15.0775449,2.00799545 14.5128768,0.978544698 13.5684024,0.419376299 C12.6239279,-0.1397921 11.4497819,-0.1397921 10.5053074,0.419376299 C9.56083297,0.978544698 8.99616485,2.00799545 9.03220954,3.10499229 L9.03220954,3.59144324 L11.1985378,3.59144324 L11.1985378,3.10499229 C11.1972263,2.76468216 11.4013886,2.45721175 11.715545,2.32637418 C12.0297013,2.19553661 12.3917591,2.26719183 12.6323965,2.50782922 C12.8730338,2.7484666 12.9446891,3.11052433 12.8138515,3.42468072 C12.6830139,3.7388371 12.3755435,3.94299934 12.0352334,3.94168792 C11.4377576,3.94346878 10.9538501,4.42737622 10.9520693,5.02485202 L10.9520693,6.83769255 C8.77925505,8.02787586 2.52025287,11.4524905 1.68031424,11.8643523 C0.162587289,12.6070008 -0.151984322,13.8490722 0.0588110876,14.7636 C0.344459901,15.8961269 1.37525697,16.6806631 2.54295392,16.6542726 L21.5404849,16.6542726 C22.6589444,16.6813794 23.6477497,15.9320399 23.9240945,14.8479181 C24.2192081,13.6998939 23.6387099,12.5356546 22.4452836,11.8838104 Z M21.5404849,14.4782154 L2.54295392,14.4782154 C2.30621446,14.4782154 2.18946623,14.3517382 2.17000819,14.26742 C2.15055016,14.1831018 2.29648544,13.9625774 2.63051509,13.8004271 C3.5093698,13.3723503 9.38569723,10.158531 12.0352334,8.69917817 L13.0470513,9.25048924 L21.4010356,13.7874551 C21.7253362,13.9690634 21.8485705,14.1863448 21.8161404,14.3225511 C21.7837103,14.4587574 21.7026352,14.4879444 21.5404849,14.4879444 L21.5404849,14.4782154 Z" id="Shape"></path>
        </g>
    </g>
</svg>