<svg width="24" height="24" viewBox="0 0 24 24" fill="none" xmlns="http://www.w3.org/2000/svg">
<g id="Fill=True" clip-path="url(#clip0_116717_10889)">
<path id="Vector" d="M6.09667 10.6667C6.09667 10.4427 6.18541 10.2278 6.34347 10.0692C6.50153 9.91047 6.71603 9.82088 6.94 9.82H17.06C17.2846 9.82 17.4999 9.9092 17.6587 10.068C17.8175 10.2268 17.9067 10.4421 17.9067 10.6667C17.9067 10.8912 17.8175 11.1066 17.6587 11.2654C17.4999 11.4241 17.2846 11.5133 17.06 11.5133H6.94C6.82897 11.5133 6.71903 11.4914 6.6165 11.4488C6.51396 11.4062 6.42085 11.3438 6.34249 11.2651C6.26414 11.1865 6.20209 11.0931 6.1599 10.9904C6.11772 10.8877 6.09623 10.7777 6.09667 10.6667ZM22.3 21.7067V7.02333H1.7V21.7067C1.7 22.97 3.07333 24 4.33333 24H20C20.6086 23.9991 21.1921 23.7574 21.623 23.3277C22.054 22.898 22.2974 22.3152 22.3 21.7067ZM24 2.29333C23.9974 1.68419 23.7535 1.10089 23.3218 0.671091C22.8902 0.241293 22.3058 -5.74086e-06 21.6967 1.0244e-10H2.30333C1.69418 -5.74086e-06 1.10983 0.241293 0.678156 0.671091C0.246483 1.10089 0.00264466 1.68419 0 2.29333V5.36667H24V2.29333Z" fill="#474747"/>
</g>
<defs>
<clipPath id="clip0_116717_10889">
<rect width="24" height="24" fill="white" transform="translate(0 0.000854492)"/>
</clipPath>
</defs>
</svg>
