<svg width="24" height="24" viewBox="0 0 24 24" fill="none" xmlns="http://www.w3.org/2000/svg">
<g id="Fill=True">
<path id="Union" fill-rule="evenodd" clip-rule="evenodd" d="M12.9121 4.13696C12.461 4.13696 12.0948 4.34411 11.8416 4.62588C11.5645 4.91745 11.4321 5.28585 11.4321 5.66496C11.4321 6.06383 11.5887 6.41652 11.8461 6.68471C11.8536 6.69257 11.8612 6.70036 11.8689 6.70807L15.6744 10.497H11.8543H4.51206C4.08114 10.497 3.69676 10.6757 3.41791 10.9856C3.14055 11.2772 3.00806 11.6457 3.00806 12.025C3.00806 12.4355 3.17404 12.7972 3.44495 13.0681C3.74075 13.3639 4.1207 13.505 4.51206 13.505H11.8607H15.6818L11.869 17.3179C11.5732 17.6136 11.4321 17.9936 11.4321 18.385C11.4321 18.7955 11.598 19.1572 11.8689 19.4281C12.1399 19.699 12.5015 19.865 12.9121 19.865C13.3034 19.865 13.6834 19.7239 13.9792 19.4281L21.4063 12.001L13.9792 4.57386C13.6834 4.27806 13.3034 4.13696 12.9121 4.13696Z" fill="#474747"/>
</g>
</svg>
