<svg width="24" height="24" viewBox="0 0 24 24" fill="none" xmlns="http://www.w3.org/2000/svg">
<g id="Fill=True">
<g id="Vector">
<path d="M19.0081 18.289V4.48903C19.0081 4.36103 19.0561 4.24903 19.1521 4.15303C19.2481 4.05703 19.3601 4.00903 19.4881 4.00903C19.6321 4.00903 19.7521 4.05703 19.8481 4.15303C19.9441 4.24903 19.9921 4.36103 19.9921 4.48903V19.993H4.51206C4.36806 19.993 4.24806 19.945 4.15206 19.849C4.05606 19.753 4.00806 19.641 4.00806 19.513C4.00806 19.369 4.05606 19.249 4.15206 19.153C4.24806 19.057 4.36806 19.009 4.51206 19.009H18.2881L4.15206 4.84903C4.05606 4.75303 4.00806 4.64103 4.00806 4.51303C4.00806 4.36903 4.05606 4.24903 4.15206 4.15303C4.24806 4.05703 4.36006 4.00903 4.48806 4.00903C4.63206 4.00903 4.75206 4.05703 4.84806 4.15303L19.0081 18.289Z" fill="#474747"/>
<path fill-rule="evenodd" clip-rule="evenodd" d="M19.0081 4.48903C19.0081 4.36103 19.0561 4.24903 19.1521 4.15303C19.2481 4.05703 19.3601 4.00903 19.4881 4.00903C19.6321 4.00903 19.7521 4.05703 19.8481 4.15303C19.9441 4.24903 19.9921 4.36103 19.9921 4.48903V19.993H4.51206C4.36806 19.993 4.24806 19.945 4.15206 19.849C4.05606 19.753 4.00806 19.641 4.00806 19.513C4.00806 19.369 4.05606 19.249 4.15206 19.153C4.24806 19.057 4.36806 19.009 4.51206 19.009H18.2881L4.15206 4.84903C4.05606 4.75303 4.00806 4.64103 4.00806 4.51303C4.00806 4.36903 4.05606 4.24903 4.15206 4.15303C4.24806 4.05703 4.36006 4.00903 4.48806 4.00903C4.63206 4.00903 4.75206 4.05703 4.84806 4.15303L19.0081 18.289V4.48903ZM5.55516 3.44593L18.0081 15.8777V4.48903C18.0081 4.07848 18.174 3.71684 18.4449 3.44593C18.7159 3.17502 19.0775 3.00903 19.4881 3.00903C19.8794 3.00903 20.2594 3.15013 20.5552 3.44593C20.8261 3.71684 20.9921 4.07848 20.9921 4.48903V20.993H4.51206C4.12069 20.993 3.74075 20.8519 3.44495 20.5561C3.17404 20.2852 3.00806 19.9236 3.00806 19.513C3.00806 19.1217 3.14915 18.7417 3.44495 18.4459C3.74075 18.1501 4.12069 18.009 4.51206 18.009H15.8767L3.44495 5.55614C3.17439 5.28529 3.00806 4.92328 3.00806 4.51303C3.00806 4.12167 3.14916 3.74172 3.44495 3.44593C3.71586 3.17502 4.0775 3.00903 4.48806 3.00903C4.87915 3.00903 5.25945 3.15054 5.55516 3.44593Z" fill="#474747"/>
</g>
</g>
</svg>
