<svg width="24" height="24" viewBox="0 0 24 24" fill="none" xmlns="http://www.w3.org/2000/svg">
<g id="Fill=True">
<g id="Vector">
<path d="M11.52 18.097L5.99999 12.577C5.90399 12.481 5.78399 12.433 5.63999 12.433C5.51199 12.433 5.39199 12.481 5.27999 12.577C5.18399 12.673 5.13599 12.793 5.13599 12.937C5.13599 13.065 5.18399 13.177 5.27999 13.273L12 19.993L18.72 13.273C18.816 13.177 18.864 13.065 18.864 12.937C18.864 12.793 18.816 12.673 18.72 12.577C18.624 12.481 18.504 12.433 18.36 12.433C18.232 12.433 18.12 12.481 18.024 12.577L12.504 18.097V4.48903C12.504 4.36103 12.456 4.24903 12.36 4.15303C12.264 4.05703 12.144 4.00903 12 4.00903C11.872 4.00903 11.76 4.05703 11.664 4.15303C11.568 4.24903 11.52 4.36103 11.52 4.48903V18.097Z" fill="#474747"/>
<path fill-rule="evenodd" clip-rule="evenodd" d="M5.27999 13.273C5.18399 13.177 5.13599 13.065 5.13599 12.937C5.13599 12.793 5.18399 12.673 5.27999 12.577C5.39199 12.481 5.51199 12.433 5.63999 12.433C5.78399 12.433 5.90399 12.481 5.99999 12.577L11.52 18.097V4.48903C11.52 4.36103 11.568 4.24903 11.664 4.15303C11.76 4.05703 11.872 4.00903 12 4.00903C12.144 4.00903 12.264 4.05703 12.36 4.15303C12.456 4.24903 12.504 4.36103 12.504 4.48903V18.097L18.024 12.577C18.12 12.481 18.232 12.433 18.36 12.433C18.504 12.433 18.624 12.481 18.72 12.577C18.816 12.673 18.864 12.793 18.864 12.937C18.864 13.065 18.816 13.177 18.72 13.273L12 19.993L5.27999 13.273ZM17.3169 11.8699C17.5878 11.599 17.9494 11.433 18.36 11.433C18.7514 11.433 19.1313 11.5741 19.4271 11.8699C19.7229 12.1657 19.864 12.5457 19.864 12.937C19.864 13.3476 19.698 13.7092 19.4271 13.9801L12 21.4072L4.57288 13.9801C4.30197 13.7092 4.13599 13.3476 4.13599 12.937C4.13599 12.5457 4.27708 12.1657 4.57288 11.8699L4.60004 11.8428L4.62919 11.8178C4.89316 11.5915 5.23736 11.433 5.63999 11.433C6.03135 11.433 6.4113 11.5741 6.70709 11.8699L10.52 15.6828V4.48903C10.52 4.07848 10.686 3.71684 10.9569 3.44593C11.2278 3.17502 11.5894 3.00903 12 3.00903C12.3913 3.00903 12.7713 3.15013 13.0671 3.44593C13.338 3.71684 13.504 4.07848 13.504 4.48903V15.6828L17.3169 11.8699Z" fill="#474747"/>
</g>
</g>
</svg>
