<svg width="24" height="24" viewBox="0 0 24 24" fill="none" xmlns="http://www.w3.org/2000/svg">
<g id="Fill=True">
<path id="Vector" d="M11.7776 17.6714L7.11116 13.005H19.5121C19.7813 13.005 20.0182 12.898 20.2016 12.7145C20.3851 12.5311 20.4921 12.2942 20.4921 12.025C20.4921 11.7636 20.4019 11.5191 20.2153 11.3254C20.0414 11.1291 19.8021 10.997 19.5121 10.997H7.11489L11.7768 6.35529L11.7776 6.35452C11.9611 6.17106 12.0681 5.93424 12.0681 5.66496C12.0681 5.40353 11.9779 5.159 11.7912 4.96523C11.604 4.75451 11.3516 4.63696 11.0641 4.63696C10.7948 4.63696 10.558 4.74395 10.3745 4.92741L3.6545 11.6474L3.30095 12.001L3.6545 12.3545L10.3745 19.0745C10.558 19.258 10.7948 19.365 11.0641 19.365C11.3317 19.365 11.5817 19.2704 11.7776 19.0745C11.9611 18.8911 12.0681 18.6542 12.0681 18.385C12.0681 18.1173 11.9735 17.8673 11.7776 17.6714Z" fill="#474747" stroke="#474747"/>
</g>
</svg>
