<svg width="24" height="24" viewBox="0 0 24 24" fill="none" xmlns="http://www.w3.org/2000/svg">
<g id="Fill=True">
<path id="Union" fill-rule="evenodd" clip-rule="evenodd" d="M5.27999 10.7289L12 4.00894L18.72 10.7289C18.81 10.8189 18.8578 10.93 18.8634 11.0622C18.8578 10.9301 18.81 10.819 18.72 10.729L12 4.00903L5.27999 10.729C5.1945 10.8145 5.14707 10.919 5.13771 11.0426C5.14706 10.919 5.19448 10.8144 5.27999 10.7289ZM12.5034 19.5157C12.5038 19.5068 12.504 19.4979 12.504 19.4889V5.90503M5.63999 12.5689C6.03135 12.5689 6.4113 12.4278 6.70709 12.132L10.52 8.31915V19.4889C10.52 19.8803 10.6611 20.2603 10.9569 20.556C11.2278 20.827 11.5894 20.9929 12 20.9929C12.3913 20.9929 12.7713 20.8518 13.0671 20.556C13.3629 20.2603 13.504 19.8803 13.504 19.4889V8.31915L17.3169 12.132C17.5878 12.403 17.9494 12.5689 18.36 12.5689C18.7513 12.5689 19.1313 12.4278 19.4271 12.132C19.698 11.8611 19.864 11.4995 19.864 11.0889C19.864 10.6976 19.7229 10.3176 19.4271 10.0218L12 2.59473L4.57288 10.0218C4.27708 10.3176 4.13599 10.6976 4.13599 11.0889C4.13599 11.4995 4.30197 11.8611 4.57288 12.132L4.60004 12.1592L4.6292 12.1842C4.89317 12.4105 5.23736 12.5689 5.63999 12.5689Z" fill="#474747"/>
</g>
</svg>
