<?xml version="1.0" encoding="UTF-8"?>
<svg width="24px" height="24px" viewBox="0 0 24 24" version="1.1" xmlns="http://www.w3.org/2000/svg" xmlns:xlink="http://www.w3.org/1999/xlink">
    <title>Icon/Fill/arrow-down-fill</title>
    <g id="Icon/Fill/arrow-down-fill" stroke="none" stroke-width="1" fill="none" fill-rule="evenodd">
        <g id="Group" transform="translate(2.014719, -0.000000)" fill="#474747" fill-rule="nonzero">
            <g id="arrow-down">
                <path d="M16.2426408,10.5 L10.3180196,4.57537877 C9.7322331,3.98959233 9.7322331,3.03984486 10.3180196,2.45405842 C10.903806,1.86827199 11.8535535,1.86827199 12.4393399,2.45405842 L21.9852814,12 L12.4393399,21.5459416 C11.8535535,22.131728 10.903806,22.131728 10.3180196,21.5459416 C9.7322331,20.9601552 9.7322331,20.0104077 10.3180196,19.4246212 L16.2426408,13.5 L-0.514718595,13.5 C-1.34314572,13.5 -2.01471859,12.8284271 -2.01471859,12 C-2.01471859,11.1715729 -1.34314572,10.5 -0.514718595,10.5 L16.2426408,10.5 Z" id="Arrow-left" transform="translate(9.985281, 12.000000) scale(-1, 1) rotate(90.000000) translate(-9.985281, -12.000000) "></path>
            </g>
        </g>
    </g>
</svg>