<svg width="24" height="24" viewBox="0 0 24 24" fill="none" xmlns="http://www.w3.org/2000/svg">
<g id="Fill=True">
<path id="Vector" d="M18.5081 6.91869V19.489C18.5081 19.7567 18.6026 20.0067 18.7985 20.2026C18.982 20.386 19.2188 20.493 19.4881 20.493C19.7557 20.493 20.0057 20.3985 20.2016 20.2026C20.3975 20.0067 20.4921 19.7567 20.4921 19.489V4.00903V3.50903H19.9921H4.51206C4.24438 3.50903 3.9944 3.60358 3.7985 3.79948L3.7985 3.79948C3.60261 3.99538 3.50806 4.24535 3.50806 4.51303C3.50806 4.78231 3.61505 5.01913 3.7985 5.20259L3.7985 5.20259C3.9944 5.39849 4.24438 5.49303 4.51206 5.49303H17.0824L3.7985 18.7995C3.60261 18.9954 3.50806 19.2454 3.50806 19.513C3.50806 19.7823 3.61505 20.0191 3.7985 20.2026C3.98196 20.386 4.21878 20.493 4.48806 20.493C4.75574 20.493 5.00571 20.3985 5.20161 20.2026L18.5081 6.91869Z" fill="#474747" stroke="#474747"/>
</g>
</svg>
