<?xml version="1.0" encoding="UTF-8"?>
<svg width="24px" height="24px" viewBox="0 0 24 24" version="1.1" xmlns="http://www.w3.org/2000/svg" xmlns:xlink="http://www.w3.org/1999/xlink">
    <title>Icon/Fill/art-themes-fill</title>
    <g id="Icon/Fill/art-themes-fill" stroke="none" stroke-width="1" fill="none" fill-rule="evenodd">
        <g id="Group" fill="#474747" fill-rule="nonzero">
            <path d="M8.64181848,7.49331252 C8.64181848,7.96518382 8.35757006,8.39059165 7.92161781,8.57116898 C7.48566557,8.75174631 6.98386283,8.65193154 6.65019943,8.31826814 C6.31653603,7.98460473 6.21672126,7.482802 6.39729859,7.04684975 C6.57787592,6.61089751 7.00328374,6.32664909 7.47515505,6.32664909 C8.11948547,6.32664909 8.64181848,6.8489821 8.64181848,7.49331252 L8.64181848,7.49331252 Z M11.8951428,17.6666176 C11.2508124,17.6666176 10.7284793,18.1889506 10.7284793,18.833281 C10.7284793,19.4776114 11.2508124,19.9999444 11.8951428,19.9999444 C12.5394732,19.9999444 13.0618062,19.4776114 13.0618062,18.833281 C13.0618062,18.1889506 12.5394732,17.6666176 11.8951428,17.6666176 L11.8951428,17.6666176 Z M23.0451118,9.99997222 C22.7454012,10.8239825 22.1832385,11.5266858 21.4451162,11.9999667 C20.858005,12.3359287 20.2228476,12.5798741 19.5617881,12.723298 C19.1377199,12.8174051 18.7260577,12.960592 18.3351249,13.1499635 C17.9760953,13.3457488 17.699302,13.6639428 17.555127,14.0466276 C17.3958189,14.4196939 17.3780415,14.8380551 17.5051272,15.223291 C17.6614468,15.6272809 17.8674766,16.0102276 18.1184588,16.3632879 C18.5033591,16.9072627 18.8013605,17.5077635 19.0017897,18.1432829 C19.215391,18.987587 19.1414975,19.8790004 18.7917903,20.6766092 C18.4382909,21.5349204 17.8237262,22.26027 17.0351285,22.7499368 C16.0905309,23.3314945 15.0344728,23.7084959 13.9351371,23.8566004 C13.2952818,23.9535151 12.6489606,24.001432 12.0018091,23.9999674 C11.6018103,23.9999674 11.198478,23.9999674 10.7984792,23.9466001 C9.80881194,23.8647883 8.83458069,23.6506593 7.90182053,23.3099352 C6.39395406,22.732325 5.01194484,21.8687107 3.83183184,20.766609 C2.66132137,19.6714921 1.71980145,18.3549504 1.06183953,16.8932864 C0.408557549,15.4660362 0.0481194261,13.9222729 0.00184247839,12.353299 C-0.0448240586,10.8066366 0.765173691,4.96665287 5.85849288,1.79332835 C6.85579056,1.18461195 7.93743103,0.726346829 9.06848396,0.43333213 C10.1336215,0.146091264 11.2319529,0.000394240493 12.3351415,0 C12.5551409,0 12.7784737,0 13.0018064,0.0166666204 C14.3305754,0.0887809496 15.639813,0.368849813 16.8817956,0.846664315 C17.7984415,1.21209983 18.6608594,1.70106499 19.4451218,2.29999361 C20.2724958,2.9153657 21.0194327,3.63206671 21.668449,4.43332102 C22.3743006,5.26942673 22.8905903,6.24855763 23.1817781,7.30331304 C23.4245833,8.19381434 23.3767026,9.13858123 23.0451118,9.99997222 Z M8.1184866,14.2099605 C8.1184866,12.9212997 7.07382058,11.8766337 5.78515975,11.8766337 C4.49649891,11.8766337 3.45183289,12.9212997 3.45183289,14.2099605 C3.45183289,15.4986214 4.49649891,16.5432874 5.78515975,16.5432874 C7.07382058,16.5432874 8.1184866,15.4986214 8.1184866,14.2099605 L8.1184866,14.2099605 Z M9.8084819,7.49331252 C9.8084819,6.5495699 9.23998507,5.69875426 8.36808058,5.3375996 C7.49617609,4.97644493 6.49257061,5.17607447 5.82524381,5.84340128 C5.15791701,6.51072808 4.95828747,7.51433356 5.31944213,8.38623804 C5.68059679,9.25814253 6.53141243,9.82663937 7.47515505,9.82663937 C8.76381589,9.82663937 9.8084819,8.78197335 9.8084819,7.49331252 L9.8084819,7.49331252 Z M14.2284696,18.8266144 C14.2284696,17.5379535 13.1838036,16.4932875 11.8951428,16.4932875 C10.6064819,16.4932875 9.56181592,17.5379535 9.56181592,18.8266144 C9.56181592,20.1152752 10.6064819,21.1599412 11.8951428,21.1599412 C13.1812046,21.1599412 14.2247952,20.1193376 14.2284696,18.833281 L14.2284696,18.8266144 Z M16.9751287,5.30665192 C16.9751287,4.01799109 15.9304626,2.97332507 14.6418018,2.97332507 C13.353141,2.97332507 12.308475,4.01799109 12.308475,5.30665192 C12.308475,6.59531276 13.353141,7.63997878 14.6418018,7.63997878 C15.9278636,7.63997878 16.9714542,6.59937515 16.9751287,5.31331857 L16.9751287,5.30665192 Z M5.78515975,13.0432971 C5.14082933,13.0432971 4.61849632,13.5656301 4.61849632,14.2099605 C4.61849632,14.8542909 5.14082933,15.3766239 5.78515975,15.3766239 C6.42949016,15.3766239 6.95182317,14.8542909 6.95182317,14.2099605 C6.95182317,13.5656301 6.42949016,13.0432971 5.78515975,13.0432971 L5.78515975,13.0432971 Z M14.6418018,4.14665515 C13.9974714,4.14665515 13.4751384,4.66898815 13.4751384,5.31331857 C13.4751384,5.95764899 13.9974714,6.479982 14.6418018,6.479982 C15.2861322,6.479982 15.8084652,5.95764899 15.8084652,5.31331857 C15.8084652,4.66898815 15.2861322,4.14665515 14.6418018,4.14665515 L14.6418018,4.14665515 Z" id="Shape"></path>
        </g>
    </g>
</svg>