<svg width="24" height="24" viewBox="0 0 24 24" fill="none" xmlns="http://www.w3.org/2000/svg">
<g clip-path="url(#clip0_15805_63644)">
<path d="M13.4985 0.00167847H10.4985C4.69854 0.00167847 -0.00146484 4.75168 -0.00146484 10.6083C-0.00146484 13.455 1.1152 16.035 2.92187 17.9383H2.90854V23.9983L7.75854 20.835C8.6352 21.075 9.55187 21.2117 10.5019 21.2117H13.5019C19.3019 21.2117 24.0019 16.4617 24.0019 10.605C24.0019 4.74835 19.2985 0.00167847 13.4985 0.00167847ZM13.2452 16.7183H10.6685V14.155H13.2452V16.7183ZM15.8952 9.07835C15.7585 9.42168 15.5885 9.71501 15.3852 9.96168C15.1819 10.205 14.9585 10.415 14.7119 10.585C14.4652 10.7583 14.2319 10.9283 14.0152 11.1017C13.7952 11.275 13.6019 11.4717 13.4319 11.6917C13.2619 11.915 13.1552 12.1917 13.1119 12.5217V13.155H10.8952V12.405C10.9285 11.9283 11.0185 11.5283 11.1652 11.2083C11.3119 10.885 11.4852 10.6117 11.6819 10.385C11.8785 10.1583 12.0885 9.96168 12.3052 9.79501C12.5252 9.62835 12.7252 9.46168 12.9119 9.29835C13.0985 9.13168 13.2485 8.94835 13.3652 8.74835C13.4785 8.54835 13.5319 8.29835 13.5219 7.99835C13.5219 7.48835 13.3985 7.11168 13.1519 6.86501C12.9052 6.61835 12.5652 6.49835 12.1252 6.49835C11.8285 6.49835 11.5752 6.55835 11.3619 6.67501C11.1485 6.79168 10.9752 6.94835 10.8385 7.14168C10.7019 7.33501 10.6019 7.56501 10.5352 7.82501C10.4685 8.08501 10.4352 8.36501 10.4352 8.66501H8.02187C8.03187 8.06501 8.1352 7.51501 8.3252 7.01501C8.51854 6.51501 8.7852 6.08168 9.12854 5.71835C9.47187 5.35168 9.88854 5.06501 10.3752 4.86168C10.8619 4.65501 11.4085 4.55168 12.0085 4.55168C12.7852 4.55168 13.4352 4.66168 13.9552 4.87835C14.4752 5.09501 14.8919 5.36501 15.2119 5.68501C15.5285 6.00835 15.7552 6.35501 15.8919 6.72501C16.0285 7.09835 16.0952 7.44501 16.0952 7.76501C16.0952 8.29835 16.0252 8.73501 15.8919 9.08168L15.8952 9.07835Z" fill="black"/>
</g>
<defs>
<clipPath id="clip0_15805_63644">
<rect width="24" height="24" fill="white"/>
</clipPath>
</defs>
</svg>
