<?xml version="1.0" encoding="UTF-8"?>
<svg width="24px" height="24px" viewBox="0 0 24 24" version="1.1" xmlns="http://www.w3.org/2000/svg" xmlns:xlink="http://www.w3.org/1999/xlink">
    <title>Icon/Fill/atm-fill</title>
    <g id="Icon/Fill/atm-fill" stroke="none" stroke-width="1" fill="none" fill-rule="evenodd">
        <g id="Group" fill="#474747" fill-rule="nonzero">
            <path d="M18.41,23.7466667 L5.43333333,23.7466667 L5.43333333,4.51666667 L18.41,4.51666667 L18.41,23.7466667 Z M15.95,13.5566667 C15.95,11.9277288 14.9685725,10.4592496 13.4635011,9.83619391 C11.9584296,9.21313823 10.2262272,9.55825413 9.07487127,10.710564 C7.92351532,11.8628738 7.57983407,13.5953614 8.20413597,15.0999164 C8.82843787,16.6044714 10.2977294,17.5846818 11.9266667,17.5833347 C14.1484696,17.5796586 15.9481653,15.7784719 15.95,13.5566667 L15.95,13.5566667 Z M14.750002,13.5566667 C14.7513481,14.7005522 14.0631475,15.7324906 13.0065925,16.1708596 C11.9500375,16.6092286 10.7334299,16.367603 9.92458013,15.5587532 C9.11573037,14.7499035 8.87410469,13.5332958 9.3124737,12.4767408 C9.75084271,11.4201858 10.7827812,10.7319852 11.9266667,10.7333314 C13.4851891,10.7351701 14.7481632,11.9981442 14.750002,13.5566667 L14.750002,13.5566667 Z M10.1233333,5.75666667 L7.66666667,5.75666667 L7.66666667,6.96333333 L10.1366667,6.96333333 L10.1233333,5.75666667 Z M13.6666667,21.35 L16.1366667,21.35 L16.1366667,20.1466667 L13.6666667,20.1466667 L13.6666667,21.35 Z M24,8.47 L24,0 L0,0 L0,8.47 L4.24333333,8.43666667 L4.24333333,4.51666667 L2.91,4.51666667 L2.91,3.36666667 L21.2866667,3.36666667 L21.2866667,4.51666667 L19.62,4.51666667 L19.62,8.43666667" id="Shape"></path>
        </g>
    </g>
</svg>