<?xml version="1.0" encoding="UTF-8"?>
<svg width="24px" height="24px" viewBox="0 0 24 24" version="1.1" xmlns="http://www.w3.org/2000/svg" xmlns:xlink="http://www.w3.org/1999/xlink">
    <title>Icon/Fill/audience-fill</title>
    <g id="Icon/Fill/audience-fill" stroke="none" stroke-width="1" fill="none" fill-rule="evenodd">
        <g id="Group" transform="translate(-0.000000, 0.000169)" fill="#474747" fill-rule="nonzero">
            <g id="audience" transform="translate(0.000337, 2.999958)">
                <path d="M13.4998102,17.999747 L-5.45698387e-16,17.999747 L-5.45698387e-16,11.9568674 C1.86041353,11.0511951 4.19478955,10.4998524 6.74916685,10.4998524 C9.30354413,10.4998524 11.6379201,11.0511951 13.4998102,11.9568674 L13.4998102,13.1327663 C14.9468513,12.4283034 16.7629261,11.9998313 18.7489707,11.9998313 C20.7350155,11.9998313 22.5510903,12.4283034 23.9996626,13.1327663 L23.9996626,17.999747 L13.4998102,17.999747 Z M10.4998524,3.74994728 C10.4998524,5.82025838 8.82124759,7.49989456 6.74924058,7.49989456 C4.67856262,7.49989456 2.99995783,5.82025838 2.99995783,3.74994728 C2.99995783,1.6796362 4.67856262,0 6.74924058,0 C8.82124759,0 10.4998524,1.6796362 10.4998524,3.74994728 Z M21.7496942,7.49989456 C21.7496942,9.15724369 20.4070855,10.4998524 18.7497364,10.4998524 C17.0923873,10.4998524 15.7497786,9.15724369 15.7497786,7.49989456 C15.7497786,5.84254544 17.0923873,4.49993674 18.7497364,4.49993674 C20.4070855,4.49993674 21.7496942,5.84254544 21.7496942,7.49989456 Z" id="Audience"></path>
            </g>
        </g>
    </g>
</svg>