<?xml version="1.0" encoding="UTF-8"?>
<svg width="24px" height="24px" viewBox="0 0 24 24" version="1.1" xmlns="http://www.w3.org/2000/svg" xmlns:xlink="http://www.w3.org/1999/xlink">
    <title>Icon/Fill/avatar-fill</title>
    <g id="Icon/Fill/avatar-fill" stroke="none" stroke-width="1" fill="none" fill-rule="evenodd">
        <g id="Group" transform="translate(-0.000000, -0.000000)" fill="#474747" fill-rule="nonzero">
            <g id="avatar">
                <path d="M20.3896067,20.579896 C20.4052706,20.5948887 20.4208938,20.6099235 20.4364763,20.6250001 C18.2770451,22.7143194 15.335285,24 12.0932382,24 C12.0776916,24 12.062152,24 12.0466192,24 C12.0310854,24 12.0155461,24 12,24 C5.37258302,24 0,18.6274171 0,12 C0,5.37258302 5.37258302,0 12,0 C18.6274171,0 24,5.37258302 24,12 C24,15.3621046 22.617335,18.4012706 20.3896067,20.579896 Z M6.13819977,18.8295072 C7.89304151,17.8244974 9.92604934,17.2500001 12.0932382,17.2500001 C14.2140925,17.2500001 16.206442,17.8001945 17.9353409,18.7656377 C19.8140792,17.1161475 21,14.6965671 21,12 C21,7.02943728 16.9705628,3.00000001 12,3.00000001 C7.02943728,3.00000001 3.00000001,7.02943728 3.00000001,12 C3.00000001,14.7315844 4.21692134,17.1789415 6.13819977,18.8295072 Z M12.0000001,14.25 C9.92893227,14.25 8.25000003,12.5710678 8.25000003,10.5 C8.25000003,8.42893226 9.92893227,6.75000003 12.0000001,6.75000003 C14.0710678,6.75000003 15.75,8.42893226 15.75,10.5 C15.75,12.5710678 14.0710678,14.25 12.0000001,14.25 Z" id="icons/fill/Avatar_32"></path>
            </g>
        </g>
    </g>
</svg>