<?xml version="1.0" encoding="UTF-8"?>
<svg width="24px" height="24px" viewBox="0 0 24 24" version="1.1" xmlns="http://www.w3.org/2000/svg" xmlns:xlink="http://www.w3.org/1999/xlink">
    <title>Icon/Fill/beaker-fill</title>
    <g id="Icon/Fill/beaker-fill" stroke="none" stroke-width="1" fill="none" fill-rule="evenodd">
        <g id="Group" transform="translate(2.000000, 0.000000)" fill="#474747" fill-rule="nonzero">
            <path d="M15.111178,24 L4.15574278,24 C2.48977026,24 1.15699226,23.3735943 0.490603251,22.2374011 C-0.175785753,21.1012078 -0.175785753,19.638484 0.567237987,18.1157851 L6.11825839,8.15993336 L6.11825839,3.00874636 L5.34524715,2.34235735 C4.65553453,1.76926281 4.76548872,1.18950437 4.8454554,0.966264057 C5.00205681,0.526447314 5.5118444,0 7.07452662,0 L12.1923942,0 C13.7517444,0 14.264864,0.526447314 14.4214654,0.966264057 C14.5014321,1.18950437 14.6113863,1.76926281 13.9216736,2.34235735 L13.1486624,3.00874636 L13.1486624,8.15660142 L18.7196745,18.1157851 C19.4626982,19.638484 19.4893538,21.1145356 18.7929773,22.2374011 C18.0966008,23.3602666 16.7871464,24 15.111178,24 Z" id="Path"></path>
        </g>
    </g>
</svg>