<svg width="24" height="24" viewBox="0 0 24 24" fill="none" xmlns="http://www.w3.org/2000/svg">
<g clip-path="url(#clip0_15805_63646)">
<path d="M12.2185 13.6467C16.0485 13.6467 19.3552 15.04 20.8919 17.05C21.6885 18.09 20.9319 19.5933 19.6219 19.5933H4.81187C3.50187 19.5933 2.74854 18.09 3.54187 17.05C5.07854 15.0367 8.3852 13.6467 12.2185 13.6467ZM15.8752 7.18C15.8752 9.2 14.2385 10.8367 12.2185 10.8367C10.1985 10.8367 8.56187 9.2 8.56187 7.18C8.56187 5.16 10.1985 3.52333 12.2185 3.52333C14.2385 3.52333 15.8752 5.16 15.8752 7.18ZM23.9985 0V5.6H22.0785V1.92H18.3985V0H23.9985ZM-0.00146484 0V5.6H1.91854V1.92H5.59854V0H-0.00146484ZM1.91854 22.08V18.4H-0.00146484V24H5.59854V22.08H1.91854ZM22.0819 18.4V22.08H18.4019V24H24.0019V18.4H22.0819Z" fill="black"/>
</g>
<defs>
<clipPath id="clip0_15805_63646">
<rect width="24" height="24" fill="white"/>
</clipPath>
</defs>
</svg>
