<?xml version="1.0" encoding="UTF-8"?>
<svg width="24px" height="24px" viewBox="0 0 24 24" version="1.1" xmlns="http://www.w3.org/2000/svg" xmlns:xlink="http://www.w3.org/1999/xlink">
    <title>Icon/Fill/boat-fill</title>
    <g id="Icon/Fill/boat-fill" stroke="none" stroke-width="1" fill="none" fill-rule="evenodd">
        <g id="Group" transform="translate(0.000000, 5.000000)" fill="#474747" fill-rule="nonzero">
            <g id="Fill-2">
                <path d="M0.652813625,7.86363737 C0.461585306,7.86513697 0.281376749,7.95340239 0.162999417,8.10359289 C0.0322767884,8.24673525 -0.0243781742,8.44256436 0.0097242222,8.63339194 L0.92604332,13.4948813 C1.01109161,13.978446 1.43473338,14.3286566 1.92566415,14.3212345 L1.92566415,14.3212345 L17.9395899,14.2412648 C18.2921788,14.2418585 18.6281494,14.0914601 18.8625731,13.8280882 C20.2553782,12.2186987 23.7440549,9.02657613 23.7740435,8.99991957 C24.0244963,8.78645107 24.0733845,8.41835141 23.8873339,8.1469098 C23.7609544,7.96705497 23.5540121,7.86109056 23.3342103,7.86363737 L0.652813625,7.86363737 Z M15.2639381,5.39462043 C12.3617057,2.5523652 12.2650756,1.84929854 10.7656444,1.84929854 L7.57685393,1.84929854 L6.28734306,-1.33226763e-15 L2.40215008,-1.33226763e-15 L2.73535703,1.84929854 L1.45251029,1.84929854 L1.45251029,6.95069687 L16.7966901,6.95069687 C16.5134642,6.70079166 15.92702,6.04437398 15.2639381,5.39462043 Z M5.71422711,0.856341848 L6.380641,1.85596268 L3.80495132,1.8326382 L3.58836681,0.859673917 L5.71422711,0.856341848 Z M2.71536461,5.68451048 L2.71536461,3.38205049 L9.91263462,3.38205049 C11.5220242,3.38205049 11.5786693,3.93184195 12.0718156,4.4716372 L4.3747352,4.4716372 L4.3414145,5.68451048 L2.71536461,5.68451048 Z" id="Shape"></path>
            </g>
        </g>
    </g>
</svg>