<?xml version="1.0" encoding="UTF-8"?>
<svg width="24px" height="24px" viewBox="0 0 24 24" version="1.1" xmlns="http://www.w3.org/2000/svg" xmlns:xlink="http://www.w3.org/1999/xlink">
    <title>Icon/Rich text editor/bold</title>
    <g id="Icon/Rich-text-editor/bold" stroke="none" stroke-width="1" fill="none" fill-rule="evenodd">
        <path d="M13.4687274,22.9999499 C14.7812243,22.9999499 15.843722,22.87495 16.6562198,22.6249508 C17.7812171,22.2187016 18.6874647,21.5312037 19.3749633,20.5624557 C20.1249616,19.5312082 20.4999607,18.3515233 20.4999607,17.0234017 C20.4999607,15.6952801 20.1640237,14.5702828 19.4921506,13.6484097 C18.8202774,12.7265367 17.9687167,12.156226 16.9374692,11.9374763 C17.8124673,11.4999776 18.4843405,10.8749786 18.9530893,10.0624808 C19.4218382,9.24998295 19.6562127,8.34373464 19.6562127,7.34373726 C19.6562127,6.24999011 19.3905881,5.2890549 18.8593396,4.46093163 C18.3280911,3.63280837 17.6249678,3.01562282 16.7499696,2.60937355 C15.8749714,2.20312428 14.6562244,2 13.0937283,2 L13.0937283,2 L4.56249866,2 C4.40624927,2 4.27343661,2.05468761 4.16406211,2.16406211 C4.05468761,2.27343661 4,2.40624927 4,2.56249866 L4,2.56249866 L4,3.68749598 C4,3.84374537 4.05468761,3.97655803 4.16406211,4.08593253 C4.27343661,4.19530703 4.40624927,4.24999464 4.56249866,4.24999464 L4.56249866,4.24999464 L6.15624486,4.24999464 L6.15624486,20.7499553 L4.56249866,20.7499553 C4.40624927,20.7499553 4.27343661,20.8046429 4.16406211,20.9140174 C4.05468761,21.0233919 4,21.1562046 4,21.312454 L4,21.312454 L4,22.4374513 C4,22.5937007 4.05468761,22.7265133 4.16406211,22.8358878 C4.27343661,22.9452623 4.40624927,22.9999499 4.56249866,22.9999499 L4.56249866,22.9999499 L13.4687274,22.9999499 Z M13.6093521,20.5624557 L9.15623771,20.5624557 L9.15623771,13.2499732 L13.8437265,13.2499732 C14.9374737,13.2499732 15.8124718,13.5780974 16.4687203,14.2343458 C17.1249687,14.8905943 17.4530929,15.7655924 17.4530929,16.8593396 C17.4530929,17.6405879 17.2734061,18.3437113 16.9140317,18.9687095 C16.5546573,19.5937078 16.0780964,20.0312072 15.4843476,20.2812064 C15.0155987,20.468706 14.3906005,20.5624557 13.6093521,20.5624557 L13.6093521,20.5624557 Z M13.3749776,10.812479 L9.15623771,10.812479 L9.15623771,4.43749419 L13.0937283,4.43749419 C13.9999759,4.43749419 14.7187247,4.57811885 15.2499732,4.85936818 C15.7187221,5.10936735 16.0702837,5.48436645 16.3046582,5.9843655 C16.5390326,6.48436455 16.6405951,7.04686321 16.6093449,7.67186148 C16.6093449,8.54685963 16.2968454,9.28904512 15.6718472,9.89841867 C15.0468489,10.5077922 14.2812252,10.812479 13.3749776,10.812479 L13.3749776,10.812479 Z" id="Color" fill="#474747"></path>
    </g>
</svg>