<?xml version="1.0" encoding="UTF-8"?>
<svg width="24px" height="24px" viewBox="0 0 24 24" version="1.1" xmlns="http://www.w3.org/2000/svg" xmlns:xlink="http://www.w3.org/1999/xlink">
    <title>Icon/Fill/bot-fill</title>
    <g id="Icon/Fill/bot-fill" stroke="none" stroke-width="1" fill="none" fill-rule="evenodd">
        <g id="Group" transform="translate(3.000000, 0.000000)" fill="#474747" fill-rule="nonzero">
            <path d="M13.0266667,12.2233333 L10.38,12.2233333 L10.38,10.8333333 L15.7133333,10.8333333 L15.7133333,5.03666667 C15.7159898,4.31470055 15.4315072,3.62129733 14.9225621,3.10922603 C14.413617,2.59715473 13.7219689,2.30843132 13,2.30666667 L9.74,2.30666667 L9.74,0 L8.26,0 L8.26,2.30666667 L5,2.30666667 C4.27803115,2.30843132 3.58638301,2.59715473 3.0774379,3.10922603 C2.5684928,3.62129733 2.2840102,4.31470055 2.28666667,5.03666667 L2.28666667,10.8333333 L7.62,10.8333333 L7.62,12.2233333 L4.97333333,12.2233333 C2.30666667,12.2233333 0,14.19 0,15.8 L0,24 L18,24 L18,16.7966667 C18,14.2733333 15.77,12.2233333 13.0266667,12.2233333 Z M6.91666667,7.06 C6.49677802,7.0627003 6.11673048,6.81184384 5.95417152,6.42468967 C5.79161257,6.03753549 5.87865224,5.59055765 6.17460517,5.29268917 C6.4705581,4.99482069 6.9169651,4.90489912 7.30515997,5.06495695 C7.69335485,5.22501478 7.94667207,5.603436 7.94667207,6.02333333 C7.94755215,6.29739081 7.83953172,6.5605752 7.64636894,6.75498822 C7.45320617,6.94940124 7.19072415,7.05911737 6.91666667,7.06 L6.91666667,7.06 Z M11.0833333,7.06 C10.6631546,7.06405336 10.28209,6.81406379 10.1184781,6.42702659 C9.95486626,6.03998939 10.0410737,5.59247038 10.3367553,5.29390877 C10.6324369,4.99534716 11.0790993,4.90480606 11.4677042,5.06465875 C11.856309,5.22451145 12.1099804,5.603135 12.1100056,6.02333333 C12.1118486,6.59273375 11.6527249,7.05632943 11.0833333,7.06 L11.0833333,7.06 Z M5.94999274,19.1966667 C5.95183906,18.7736872 6.29589749,18.4321118 6.71887923,18.4333333 C7.14186097,18.4345613 7.48393564,18.7781232 7.4833261,19.2011063 C7.48271493,19.6240894 7.13965018,19.9666667 6.71666667,19.9666667 C6.51275517,19.9666667 6.31724364,19.8854376 6.17336954,19.740938 C6.02949545,19.5964383 5.94911343,19.4005762 5.94999274,19.1966667 Z M6.71666667,17.0733333 C6.40300438,17.0773896 6.1179644,16.8915666 5.99510992,16.6029366 C5.87225544,16.3143067 5.93592739,15.9800555 6.15629054,15.7568055 C6.37665369,15.5335555 6.71004792,15.4655387 7.00025236,15.5846264 C7.29045679,15.7037141 7.47997377,15.9863115 7.4800075,16.3 C7.48185123,16.7239681 7.14062297,17.0696666 6.71666667,17.0733333 L6.71666667,17.0733333 Z M9.50666667,17.0733333 L9.50666667,15.62 L12.2666667,15.62 L12.2666667,17.0733333 L9.50666667,17.0733333 Z M12.2666667,18.3633333 L12.2666667,21 L9.50666667,21 L9.50666667,18.3633333 L12.2666667,18.3633333 Z" id="Shape"></path>
        </g>
    </g>
</svg>