<?xml version="1.0" encoding="UTF-8"?>
<svg width="24px" height="24px" viewBox="0 0 24 24" version="1.1" xmlns="http://www.w3.org/2000/svg" xmlns:xlink="http://www.w3.org/1999/xlink">
    <title>Icon/Fill/box-open-fill</title>
    <g id="Icon/Fill/box-open-fill" stroke="none" stroke-width="1" fill="none" fill-rule="evenodd">
        <g id="Group" transform="translate(0.000000, 1.000000)" fill="#474747" fill-rule="nonzero">
            <path d="M12.6666667,13.1933333 L14.9133333,16.9033333 L21.1033333,14.11 L21.2100004,17.9633333 C21.210186,18.0958279 21.1460122,18.2182868 21.0410307,18.2938892 L20.9733333,18.3333333 L12.6666667,22 L12.6666667,13.1933333 Z M11.1566667,12.87 L11.1566667,22 L2.80333333,18.3333333 C2.6766507,18.2773854 2.58937096,18.16146 2.56802014,18.0282936 L2.56333333,17.9466667 L2.56333333,14.0533333 L8.72,16.86 L11.1566667,12.87 Z M20.3566667,7.96333333 L20.3133333,8.01333333 L23.36,11.9533333 L15.3066667,15.62 L12.6566667,11.2666667 L12.4166667,10.8766667 L12.6566667,10.79 L20.3566667,7.96333333 Z M3.42333333,8.03333333 L11.15,10.8066667 L11.2166667,10.8333333 L11.15,10.94 L8.32666667,15.5766667 L0.39,11.96 L3.42333333,8.03333333 Z M11.9633333,5.03333333 L18.0066667,7.76 L11.8833333,10.0033333 L5.68333333,7.78 L11.9633333,5.03333333 Z M16.14,0 L24,4.03666667 L20.5166667,7.79 L12.3133333,4.09 L16.14,0 Z M7.86,0 L11.63,4.08666667 L3.34,7.70666667 L0,4.10333333 L7.86,0 Z" id="Combined-Shape"></path>
        </g>
    </g>
</svg>