<?xml version="1.0" encoding="UTF-8"?>
<svg width="24px" height="24px" viewBox="0 0 24 24" version="1.1" xmlns="http://www.w3.org/2000/svg" xmlns:xlink="http://www.w3.org/1999/xlink">
    <title>Icon/Fill/box-fill</title>
    <g id="Icon/Fill/box-fill" stroke="none" stroke-width="1" fill="none" fill-rule="evenodd">
        <g id="Group" fill="#474747" fill-rule="nonzero">
            <g id="Fill-2">
                <path d="M0.333333312,18.6630418 L10.606666,23.3297082 C10.786666,23.4063749 11.0333326,23.2430415 11.0333326,23.1197082 L11.0333326,11.4530423 C11.0331102,11.2504554 10.9145106,11.066691 10.7299993,10.9830423 L0.493333302,6.37970928 C0,6.15304263 0,6.35970928 0,6.62637593 L0,18.1863752 C0.00445175925,18.3980661 0.136024934,18.5862157 0.333333312,18.6630418 Z" id="Path"></path>
                <path d="M23.6999985,18.6630418 L13.4099991,23.3297082 C13.2299991,23.4063749 12.9833325,23.2430415 12.9833325,23.1197082 L12.9833325,11.4530423 C12.9835549,11.2504554 13.1021545,11.066691 13.2866658,10.9830423 L23.5066652,6.37970928 C23.9933318,6.15304263 23.9933318,6.35970928 24,6.62637593 L24,18.1863752 C24.0004897,18.3898802 23.8836927,18.5754577 23.6999985,18.6630418 Z" id="Path"></path>
                <path d="M11.6099993,9.27970909 L1.75666655,4.91637604 C1.68701071,4.86026388 1.64282858,4.77851163 1.63405255,4.68949763 C1.62527653,4.60048362 1.65264301,4.51167728 1.70999989,4.44304274 L1.70999989,4.44304274 L11.7099992,0.0797096866 C11.8791337,-0.0265698955 12.0941981,-0.0265698955 12.2633325,0.0797096866 L21.9966653,4.41304274 C22.4433319,4.71304272 22.2699986,4.82304271 22.0499986,4.96637604 L12.1466659,9.29970909 C11.9782784,9.3946119 11.770856,9.38688187 11.6099993,9.27970909 Z" id="Path"></path>
            </g>
        </g>
    </g>
</svg>