<?xml version="1.0" encoding="UTF-8"?>
<svg width="24px" height="24px" viewBox="0 0 24 24" version="1.1" xmlns="http://www.w3.org/2000/svg" xmlns:xlink="http://www.w3.org/1999/xlink">
    <title>Icon/Fill/brightness-fill</title>
    <g id="Icon/Fill/brightness-fill" stroke="none" stroke-width="1" fill="none" fill-rule="evenodd">
        <g id="Group" transform="translate(-0.000000, -0.000000)" fill="#474747" fill-rule="nonzero">
            <g id="brightness">
                <path d="M12.0000001,17.25 C9.10050514,17.25 6.75000003,14.899495 6.75000003,12.0000001 C6.75000003,9.10050514 9.10050514,6.75000003 12.0000001,6.75000003 C14.899495,6.75000003 17.25,9.10050514 17.25,12.0000001 C17.25,14.899495 14.899495,17.25 12.0000001,17.25 Z M10.5,4.5 L10.5,0.750000003 C10.5,0.335786439 10.8357865,0 11.25,0 L12.7500001,0 C13.1642136,0 13.5,0.335786439 13.5,0.750000003 L13.5,4.5 C13.5,4.91421358 13.1642136,5.25000002 12.7500001,5.25000002 L11.25,5.25000002 C10.8357865,5.25000002 10.5,4.91421358 10.5,4.5 Z M10.5,23.2500001 L10.5,19.5000001 C10.5,19.0857866 10.8357865,18.7500001 11.25,18.7500001 L12.7500001,18.7500001 C13.1642136,18.7500001 13.5,19.0857866 13.5,19.5000001 L13.5,23.2500001 C13.5,23.6642136 13.1642136,24.0000001 12.7500001,24.0000001 L11.25,24.0000001 C10.8357865,24.0000001 10.5,23.6642136 10.5,23.2500001 Z M0.750000003,10.5 L4.5,10.5 C4.91421358,10.5 5.25000002,10.8357865 5.25000002,11.25 L5.25000002,12.7500001 C5.25000002,13.1642136 4.91421358,13.5 4.5,13.5 L0.750000003,13.5 C0.335786439,13.5 0,13.1642136 0,12.7500001 L0,11.25 C0,10.8357865 0.335786439,10.5 0.750000003,10.5 Z M19.5000001,10.5 L23.2500001,10.5 C23.6642136,10.5 24.0000001,10.8357865 24.0000001,11.25 L24.0000001,12.7500001 C24.0000001,13.1642136 23.6642136,13.5 23.2500001,13.5 L19.5000001,13.5 C19.0857866,13.5 18.7500001,13.1642136 18.7500001,12.7500001 L18.7500001,11.25 C18.7500001,10.8357865 19.0857866,10.5 19.5000001,10.5 Z M2.98438855,18.8942912 L5.636039,16.2426407 C5.92893221,15.9497476 6.40380595,15.9497476 6.69669917,16.2426407 L7.75735938,17.3033009 C8.05025253,17.5961941 8.05025253,18.0710679 7.75735938,18.3639611 L5.1057089,21.0156116 C4.81281568,21.3085048 4.33794195,21.3085048 4.04504873,21.0156116 L2.98438855,19.9549514 C2.69149533,19.6620581 2.69149533,19.1871844 2.98438855,18.8942912 Z M16.2426407,5.636039 L18.8942912,2.98438855 C19.1871844,2.69149533 19.6620581,2.69149533 19.9549514,2.98438855 L21.0156116,4.04504873 C21.3085048,4.33794195 21.3085048,4.81281568 21.0156116,5.1057089 L18.3639611,7.75735938 C18.0710679,8.05025253 17.5961941,8.05025253 17.3033009,7.75735938 L16.2426407,6.69669917 C15.9497476,6.40380595 15.9497476,5.92893221 16.2426407,5.636039 Z M18.8942912,21.0156116 L16.2426407,18.3639611 C15.9497476,18.0710679 15.9497476,17.5961941 16.2426407,17.3033009 L17.3033009,16.2426407 C17.5961941,15.9497476 18.0710679,15.9497476 18.3639611,16.2426407 L21.0156116,18.8942912 C21.3085048,19.1871844 21.3085048,19.6620581 21.0156116,19.9549514 L19.9549514,21.0156116 C19.6620581,21.3085048 19.1871844,21.3085048 18.8942912,21.0156116 Z M5.636039,7.75735938 L2.98438855,5.1057089 C2.69149533,4.81281568 2.69149533,4.33794195 2.98438855,4.04504873 L4.04504873,2.98438855 C4.33794195,2.69149533 4.81281568,2.69149533 5.1057089,2.98438855 L7.75735938,5.636039 C8.05025253,5.92893221 8.05025253,6.40380595 7.75735938,6.69669917 L6.69669917,7.75735938 C6.40380595,8.05025253 5.92893221,8.05025253 5.636039,7.75735938 Z" id="ic_fill_brightness_32"></path>
            </g>
        </g>
    </g>
</svg>