<?xml version="1.0" encoding="UTF-8"?>
<svg width="24px" height="24px" viewBox="0 0 24 24" version="1.1" xmlns="http://www.w3.org/2000/svg" xmlns:xlink="http://www.w3.org/1999/xlink">
    <title>Icon/Fill/bubble-plot-fill</title>
    <g id="Icon/Fill/bubble-plot-fill" stroke="none" stroke-width="1" fill="none" fill-rule="evenodd">
        <g id="Group" transform="translate(0.000450, -0.000000)" fill="#474747" fill-rule="nonzero">
            <g id="bubble-plot">
                <path d="M22.4995782,0 C23.3275627,0 23.9995501,0.671987403 23.9995501,1.49997188 L23.9995501,22.4995782 C23.9995501,23.3290627 23.3275627,23.9995501 22.4995782,23.9995501 L1.49997188,23.9995501 C0.670487431,23.9995501 0,23.3290627 0,22.4995782 L0,1.49997188 C0,0.671987403 0.670487431,0 1.49997188,0 L22.4995782,0 Z M18.1071924,19.49808 C19.7628831,19.4380763 21.0571412,18.047489 20.9971525,16.391385 C20.9371636,14.735281 19.5469234,13.4421998 17.8912328,13.5022035 C16.2355421,13.5607072 14.941284,14.9527946 15.0012727,16.6073985 C15.0612615,18.2635025 16.4515018,19.5580838 18.1071924,19.49808 Z M8.41139982,16.4971483 C10.8953533,16.40715 12.8363169,14.3206891 12.7463186,11.8367357 C12.6563202,9.35428222 10.5713593,7.41331857 8.08740589,7.50331692 C5.60345248,7.59181526 3.66248887,9.67827615 3.75248718,12.1622296 C3.84248549,14.646183 5.92894638,16.5856467 8.41139982,16.4971483 Z M16.4181513,3.75188343 C15.1761746,3.79688259 14.2071928,4.83936305 14.250692,6.08133977 C14.2956911,7.32331648 15.3396715,8.29379828 16.5801483,8.24879912 C17.822125,8.20379996 18.7926068,7.16131952 18.7476077,5.9193428 C18.7026085,4.67736608 17.660128,3.70688428 16.4181513,3.75188343 Z" id="Combined-Shape"></path>
            </g>
        </g>
    </g>
</svg>