<svg width="24" height="24" viewBox="0 0 24 24" fill="none" xmlns="http://www.w3.org/2000/svg">
<path d="M20.1183 0H3.88496C3.02829 0 2.33496 0.716667 2.33496 1.6V22.4C2.33496 23.2833 3.02829 24 3.88496 24H20.115C20.9716 24 21.665 23.2833 21.665 22.4V1.6C21.665 0.716667 20.9716 0 20.115 0H20.1183ZM18.0016 20.8267H6.00163V19.3267H18.0016V20.8267ZM18.0016 17.66H6.00163V16.16H18.0016V17.66ZM11.135 5.14667C11.2316 5.02333 11.3583 4.92667 11.505 4.85333V6.56333C11.3416 6.47667 11.2083 6.37333 11.1183 6.25333C10.995 6.09 10.935 5.91 10.935 5.72C10.935 5.51333 11.0016 5.31667 11.1383 5.14667H11.135ZM13.3016 9.12C13.455 9.29667 13.5283 9.50333 13.5283 9.74667C13.5283 10.02 13.435 10.26 13.255 10.46C13.1016 10.63 12.905 10.7467 12.6716 10.81V8.75C12.955 8.84333 13.1683 8.96667 13.3016 9.11667V9.12ZM14.5116 11.3667C14.0683 11.84 13.4483 12.14 12.675 12.26V13.37H11.5083V12.2833C10.8416 12.1833 10.285 11.9333 9.85496 11.5333C9.39829 11.1033 9.10163 10.49 8.97496 9.71333L8.96163 9.63667L10.7383 9.45667L10.7516 9.52333C10.815 9.82333 10.935 10.0833 11.1116 10.2967C11.2316 10.4467 11.3683 10.5633 11.5083 10.6567V8.42C10.7483 8.2 10.175 7.87 9.80829 7.44333C9.41829 6.99 9.22163 6.43333 9.22163 5.79C9.22163 5.14667 9.44496 4.58 9.88496 4.13333C10.295 3.71667 10.8416 3.46667 11.505 3.38V2.25H12.6716V3.37333C13.295 3.46 13.805 3.67333 14.185 4.01C14.585 4.36667 14.845 4.85333 14.955 5.45L14.9683 5.52667L13.2416 5.74L13.2283 5.67C13.1483 5.29333 12.965 5.03 12.675 4.86667V6.95667C13.6283 7.21 14.295 7.54 14.655 7.94C15.025 8.35333 15.215 8.89333 15.215 9.53667C15.215 10.2567 14.9783 10.87 14.515 11.3667H14.5116Z" fill="black"/>
</svg>
