<?xml version="1.0" encoding="UTF-8"?>
<svg width="24px" height="24px" viewBox="0 0 24 24" version="1.1" xmlns="http://www.w3.org/2000/svg" xmlns:xlink="http://www.w3.org/1999/xlink">
    <title>Icon/Fill/building-fill</title>
    <g id="Icon/Fill/building-fill" stroke="none" stroke-width="1" fill="none" fill-rule="evenodd">
        <g id="Group" transform="translate(-0.000000, -0.000000)" fill="#474747" fill-rule="nonzero">
            <g id="building">
                <path d="M21,21 L24,21 L24,24 L0,24 L0,21 L3,21 L3,1.5 C3,0.672000003 3.67200002,0 4.5,0 L15,0 C15.8280001,0 16.5,0.672000003 16.5,1.5 L16.5,4.5 L19.5,4.5 C20.3280001,4.5 21,5.17200002 21,6 L21,21 Z M6.00000003,18.0000001 L9.00000003,18.0000001 L9.00000003,15.0000001 L6.00000003,15.0000001 L6.00000003,18.0000001 Z M6.00000003,12 L9.00000003,12 L9.00000003,9.00000004 L6.00000003,9.00000004 L6.00000003,12 Z M6.00000003,6.00000001 L9.00000003,6.00000001 L9.00000003,3.00000001 L6.00000003,3.00000001 L6.00000003,6.00000001 Z M10.5,19.5000001 L13.5,19.5000001 L13.5,15.0000001 L10.5,15.0000001 L10.5,19.5000001 Z M10.5,12 L13.5,12 L13.5,9.00000004 L10.5,9.00000004 L10.5,12 Z M10.5,6.00000001 L13.5,6.00000001 L13.5,3.00000001 L10.5,3.00000001 L10.5,6.00000001 Z M15.0000001,18.0000001 L18.0000001,18.0000001 L18.0000001,15.0000001 L15.0000001,15.0000001 L15.0000001,18.0000001 Z M15.0000001,12 L18.0000001,12 L18.0000001,9.00000004 L15.0000001,9.00000004 L15.0000001,12 Z" id="Shape"></path>
            </g>
        </g>
    </g>
</svg>