<?xml version="1.0" encoding="UTF-8"?>
<svg width="24px" height="24px" viewBox="0 0 24 24" version="1.1" xmlns="http://www.w3.org/2000/svg" xmlns:xlink="http://www.w3.org/1999/xlink">
    <title>Icon/Rich text editor/bulleted list</title>
    <g id="Icon/Rich-text-editor/bulleted-list" stroke="none" stroke-width="1" fill="none" fill-rule="evenodd">
        <path d="M23.4374441,20.5624557 C23.5936935,20.5624557 23.7265062,20.5077681 23.8358807,20.3983936 C23.9452552,20.2890191 23.9999428,20.1562065 23.9999428,19.9999571 L23.9999428,19.9999571 L23.9999428,18.4999607 C23.9999428,18.3437113 23.9452552,18.2108986 23.8358807,18.1015241 C23.7265062,17.9921496 23.5936935,17.937462 23.4374441,17.937462 L23.4374441,17.937462 L6.56248435,17.937462 C6.40623496,17.937462 6.2734223,17.9921496 6.1640478,18.1015241 C6.0546733,18.2108986 5.99998569,18.3437113 5.99998569,18.4999607 L5.99998569,18.4999607 L5.99998569,19.9999571 C5.99998569,20.1562065 6.0546733,20.2890191 6.1640478,20.3983936 C6.2734223,20.5077681 6.40623496,20.5624557 6.56248435,20.5624557 L6.56248435,20.5624557 L23.4374441,20.5624557 Z M2.24999464,21.4999535 C2.87499291,21.4999535 3.40624212,21.2812038 3.84374084,20.8437051 C4.28123955,20.4062064 4.49998927,19.8749571 4.49998927,19.2499589 C4.49998927,18.6249606 4.28123955,18.0937114 3.84374084,17.6562127 C3.40624212,17.218714 2.87499291,16.9999642 2.24999464,16.9999642 C1.62499636,16.9999642 1.09374715,17.218714 0.656248435,17.6562127 C0.218749717,18.0937114 0,18.6249606 0,19.2499589 C0,19.8749571 0.218749717,20.4062064 0.656248435,20.8437051 C1.09374715,21.2812038 1.62499636,21.4999535 2.24999464,21.4999535 Z M23.4374441,13.0624736 C23.5936935,13.0624736 23.7265062,13.007786 23.8358807,12.8984115 C23.9452552,12.789037 23.9999428,12.6562244 23.9999428,12.499975 L23.9999428,12.499975 L23.9999428,10.9999785 C23.9999428,10.8437292 23.9452552,10.7109165 23.8358807,10.601542 C23.7265062,10.4921675 23.5936935,10.4374799 23.4374441,10.4374799 L23.4374441,10.4374799 L6.56248435,10.4374799 C6.40623496,10.4374799 6.2734223,10.4921675 6.1640478,10.601542 C6.0546733,10.7109165 5.99998569,10.8437292 5.99998569,10.9999785 L5.99998569,10.9999785 L5.99998569,12.499975 C5.99998569,12.6562244 6.0546733,12.789037 6.1640478,12.8984115 C6.2734223,13.007786 6.40623496,13.0624736 6.56248435,13.0624736 L6.56248435,13.0624736 L23.4374441,13.0624736 Z M2.24999464,13.9999714 C2.87499291,13.9999714 3.40624212,13.7812217 3.84374084,13.343723 C4.28123955,12.9062242 4.49998927,12.374975 4.49998927,11.7499768 C4.49998927,11.1249785 4.28123955,10.5937293 3.84374084,10.1562306 C3.40624212,9.71873184 2.87499291,9.49998212 2.24999464,9.49998212 C1.62499636,9.49998212 1.09374715,9.71873184 0.656248435,10.1562306 C0.218749717,10.5937293 0,11.1249785 0,11.7499768 C0,12.374975 0.218749717,12.9062242 0.656248435,13.343723 C1.09374715,13.7812217 1.62499636,13.9999714 2.24999464,13.9999714 Z M23.4374441,5.56249151 C23.5936935,5.56249151 23.7265062,5.5078039 23.8358807,5.3984294 C23.9452552,5.2890549 23.9999428,5.15624224 23.9999428,4.99999285 L23.9999428,4.99999285 L23.9999428,3.49999642 C23.9999428,3.34374703 23.9452552,3.21093437 23.8358807,3.10155987 C23.7265062,2.99218537 23.5936935,2.93749776 23.4374441,2.93749776 L23.4374441,2.93749776 L6.56248435,2.93749776 C6.40623496,2.93749776 6.2734223,2.99218537 6.1640478,3.10155987 C6.0546733,3.21093437 5.99998569,3.34374703 5.99998569,3.49999642 L5.99998569,3.49999642 L5.99998569,4.99999285 C5.99998569,5.15624224 6.0546733,5.2890549 6.1640478,5.3984294 C6.2734223,5.5078039 6.40623496,5.56249151 6.56248435,5.56249151 L6.56248435,5.56249151 L23.4374441,5.56249151 Z M2.24999464,6.49998927 C2.87499291,6.49998927 3.40624212,6.28123955 3.84374084,5.84374084 C4.28123955,5.40624212 4.49998927,4.87499291 4.49998927,4.24999464 C4.49998927,3.62499636 4.28123955,3.09374715 3.84374084,2.65624844 C3.40624212,2.21874972 2.87499291,2 2.24999464,2 C1.62499636,2 1.09374715,2.21874972 0.656248435,2.65624844 C0.218749717,3.09374715 0,3.62499636 0,4.24999464 C0,4.87499291 0.218749717,5.40624212 0.656248435,5.84374084 C1.09374715,6.28123955 1.62499636,6.49998927 2.24999464,6.49998927 Z" id="Color" fill="#474747"></path>
    </g>
</svg>