<?xml version="1.0" encoding="UTF-8"?>
<svg width="24px" height="24px" viewBox="0 0 24 24" version="1.1" xmlns="http://www.w3.org/2000/svg" xmlns:xlink="http://www.w3.org/1999/xlink">
    <title>Icon/Fill/bus-public-transportation-fill</title>
    <g id="Icon/Fill/bus-public-transportation-fill" stroke="none" stroke-width="1" fill="none" fill-rule="evenodd">
        <g id="Group" transform="translate(1.000000, 0.000000)" fill="#474747" fill-rule="nonzero">
            <path d="M21.4,5.11 L21.4,3.13333333 C21.4,0.98 16.1266667,0 11.2266667,0 C6.32666667,0 1.05333333,0.98 1.05333333,3.13333333 L1.05333333,5.11 L0,5.11 L0,11.31 L1.05333333,11.31 L1.05333333,17.8766667 C1.05191512,18.7391039 1.39795572,19.5657564 2.01333333,20.17 L2.01333333,21.6366667 C2.01333204,22.940599 3.06940231,23.9981609 4.37333333,24 L4.64333333,24 C5.94780504,23.998164 7.00483067,22.9411384 7.00666667,21.6366667 L7.00666667,21.0966667 L15.4466667,21.0966667 L15.4466667,21.6366667 C15.4485027,22.9411384 16.5055283,23.998164 17.81,24 L18.08,24 C19.383931,23.9981609 20.4400013,22.940599 20.44,21.6366667 L20.44,20.17 C21.0553776,19.5657564 21.4014182,18.7391039 21.4,17.8766667 L21.4,11.31 L22.54,11.31 L22.54,5.11 L21.4,5.11 Z M7.79333333,2.40666667 L14.3466667,2.40666667 L14.3466667,4.04 L7.79333333,4.04 L7.79333333,2.40666667 Z M5.08666667,19.6433333 C4.37855468,19.6433333 3.74023131,19.2165967 3.46956103,18.5622572 C3.19889075,17.9079177 3.34922529,17.1549506 3.85041317,16.6547174 C4.35160105,16.1544842 5.10485333,16.0055855 5.7586756,16.2775028 C6.41249786,16.5494201 6.83801545,17.188556 6.83666986,17.8966667 C6.83482819,18.861863 6.05186473,19.6433333 5.08666667,19.6433333 L5.08666667,19.6433333 Z M4.73666667,14.3333333 C4.24589236,14.3315055 3.84849452,13.9341076 3.84666667,13.4433333 L3.84666667,7.15666667 C3.84849452,6.66589236 4.24589236,6.26849452 4.73666667,6.26666667 L17.7166667,6.26666667 C18.2061387,6.27031619 18.6015205,6.66718434 18.6033584,7.15666667 L18.6033584,13.4333333 C18.6051081,13.670262 18.5126871,13.8981911 18.3464034,14.0669752 C18.1801198,14.2357594 17.9535955,14.3315718 17.7166667,14.3333333 L4.73666667,14.3333333 Z M17.3666667,19.6666699 C16.6582529,19.6680147 16.0189066,19.2421358 15.7471853,18.5879039 C15.4754639,17.9336719 15.6249745,17.1801581 16.1258996,16.679233 C16.6268247,16.1783079 17.3803386,16.0287973 18.0345705,16.3005186 C18.6888025,16.5722399 19.1146814,17.2115862 19.1133365,17.92 C19.0987843,18.8747722 18.3215482,19.6416254 17.3666667,19.6433333 L17.3666667,19.6666699 Z" id="Shape"></path>
        </g>
    </g>
</svg>