<?xml version="1.0" encoding="UTF-8"?>
<svg width="24px" height="24px" viewBox="0 0 24 24" version="1.1" xmlns="http://www.w3.org/2000/svg" xmlns:xlink="http://www.w3.org/1999/xlink">
    <title>Icon/Fill/business-services-printer-fill</title>
    <g id="Icon/Fill/business-services-printer-fill" stroke="none" stroke-width="1" fill="none" fill-rule="evenodd">
        <g id="Group" transform="translate(3.000000, 0.000000)" fill="#474747" fill-rule="nonzero">
            <path d="M15.2600051,16.45 L15.2600051,13.1933333 L18.7133385,10.3 L18.0466718,9.49666667 L15.2633385,11.83 L15.2633385,10.9633333 L0,10.9633333 L0,20.7766667 C-0.000883834074,21.0660242 0.113669631,21.3437868 0.318277305,21.5483945 C0.52288498,21.7530022 0.800647553,21.8675556 1.09000514,21.8666667 L1.09000514,24 L4.6266718,24 L4.6266718,21.8666667 L10.7066718,21.8666667 L10.7066718,24 L14.2433385,24 L14.2433385,21.86 C14.8073736,21.8132708 15.2418093,21.3426321 15.2433385,20.7766667 L15.2433385,17.8133333 L18.6900051,14.92 L18.0233385,14.1166667 L15.2600051,16.45 Z" id="Path"></path>
            <path d="M15.2600051,6.60333333 L1.76000514,6.60333333 L8.69000514,0.803333333 L8.02333847,0 L0.130005136,6.60333333 L5.13561326e-06,6.60333333 L5.13561326e-06,9.87333333 L15.2600051,9.87333333 L15.2600051,6.60333333 Z M13.0233385,8.81 L11.9300051,8.81 L11.9300051,7.71666667 L13.0233385,7.71666667 L13.0233385,8.81 Z" id="Shape"></path>
        </g>
    </g>
</svg>