<svg width="24" height="24" viewBox="0 0 24 24" fill="none" xmlns="http://www.w3.org/2000/svg">
<path d="M24 19.0883V4.915C24 4.50167 23.6667 4.16833 23.2533 4.16833H0.746667C0.333333 4.16833 0 4.505 0 4.915V19.085C0 19.4983 0.333333 19.8317 0.746667 19.8317H23.2533C23.6667 19.8317 24 19.495 24 19.085V19.0883ZM10.9867 17.265C10.4 17.8517 9.45 17.8517 8.86667 17.265C8.28 16.6783 8.28 15.7317 8.86667 15.145L12.0067 12.005L8.86667 8.865C8.28 8.27834 8.28 7.33167 8.86667 6.745C9.45 6.15833 10.4 6.15833 10.9867 6.745L16.2467 12.005L10.9867 17.265Z" fill="black"/>
</svg>
