<?xml version="1.0" encoding="UTF-8"?>
<svg width="24px" height="24px" viewBox="0 0 24 24" version="1.1" xmlns="http://www.w3.org/2000/svg" xmlns:xlink="http://www.w3.org/1999/xlink">
    <title>Icon/Fill/calculator-fill</title>
    <g id="Icon/Fill/calculator-fill" stroke="none" stroke-width="1" fill="none" fill-rule="evenodd">
        <g id="Group" fill="#474747" fill-rule="nonzero">
            <rect id="Rectangle" x="5.10333333" y="4.38666667" width="13.6466667" height="3.33666667"></rect>
            <path d="M0,0 L0,20.5066667 C0.00136716987,21.1417011 0.401614553,21.7073841 1,21.92 C4.55562912,23.261433 8.31990085,23.9655414 12.12,24 C15.8537933,23.9787117 19.551883,23.2714083 23.03,21.9133333 C23.6142754,21.6916311 24.0004647,21.1315902 24,20.5066667 L24,0 L0,0 Z M4.5,19.36 C3.94771525,19.36 3.5,18.9122847 3.5,18.36 C3.5,17.8077153 3.94771525,17.36 4.5,17.36 C5.05228475,17.36 5.5,17.8077153 5.5,18.36 C5.5,18.6252165 5.39464316,18.8795704 5.20710678,19.0671068 C5.0195704,19.2546432 4.76521649,19.36 4.5,19.36 L4.5,19.36 Z M4.5,14.6666667 C3.94771525,14.6666667 3.5,14.2189514 3.5,13.6666667 C3.5,13.1143819 3.94771525,12.6666667 4.5,12.6666667 C5.05228475,12.6666667 5.5,13.1143819 5.5,13.6666667 C5.5,14.2189514 5.05228475,14.6666667 4.5,14.6666667 Z M9.5,19.3566667 C8.94771525,19.3566667 8.5,18.9089514 8.5,18.3566667 C8.5,17.8043819 8.94771525,17.3566667 9.5,17.3566667 C10.0522847,17.3566667 10.5,17.8043819 10.5,18.3566667 C10.500886,18.6224602 10.3959204,18.8776713 10.2082879,19.0659293 C10.0206554,19.2541872 9.76579504,19.36 9.5,19.36 L9.5,19.3566667 Z M9.5,14.6666667 C8.94771525,14.6666667 8.5,14.2189514 8.5,13.6666667 C8.5,13.1143819 8.94771525,12.6666667 9.5,12.6666667 C10.0522847,12.6666667 10.5,13.1143819 10.5,13.6666667 C10.5,14.2189514 10.0522847,14.6666667 9.5,14.6666667 Z M3.60333333,9.22666667 L3.60333333,2.89333333 L20.25,2.89333333 L20.25,9.22666667 L3.60333333,9.22666667 Z M14.5,19.36 C13.9477153,19.36 13.5,18.9122847 13.5,18.36 C13.5,17.8077153 13.9477153,17.36 14.5,17.36 C15.0522847,17.36 15.5,17.8077153 15.5,18.36 C15.5,18.6252165 15.3946432,18.8795704 15.2071068,19.0671068 C15.0195704,19.2546432 14.7652165,19.36 14.5,19.36 L14.5,19.36 Z M14.5,14.6666667 C13.9477153,14.6666667 13.5,14.2189514 13.5,13.6666667 C13.5,13.1143819 13.9477153,12.6666667 14.5,12.6666667 C15.0522847,12.6666667 15.5,13.1143819 15.5,13.6666667 C15.5,14.2189514 15.0522847,14.6666667 14.5,14.6666667 L14.5,14.6666667 Z M19.5,19.3566667 C18.9477153,19.3566667 18.5,18.9089514 18.5,18.3566667 C18.5,17.8043819 18.9477153,17.3566667 19.5,17.3566667 C20.0522847,17.3566667 20.5,17.8043819 20.5,18.3566667 C20.500886,18.6224602 20.3959204,18.8776713 20.2082879,19.0659293 C20.0206554,19.2541872 19.765795,19.36 19.5,19.36 L19.5,19.3566667 Z M19.5,14.6666667 C18.9477153,14.6666667 18.5,14.2189514 18.5,13.6666667 C18.5,13.1143819 18.9477153,12.6666667 19.5,12.6666667 C20.0522847,12.6666667 20.5,13.1143819 20.5,13.6666667 C20.5,14.2189514 20.0522847,14.6666667 19.5,14.6666667 Z" id="Shape"></path>
        </g>
    </g>
</svg>