<svg width="24" height="24" viewBox="0 0 24 24" fill="none" xmlns="http://www.w3.org/2000/svg">
<path d="M22.5 3V6.75H1.5V3H4.5V0H7.5V3H16.5V0H19.5V3H22.5ZM1.5 9.75H22.5V22.5C22.5 23.3267 21.8267 24 21 24H3C2.17333 24 1.5 23.3267 1.5 22.5V9.75ZM12 12.5233C9.60667 12.5233 7.66667 14.4633 7.66667 16.8567C7.66667 19.25 9.60667 21.19 12 21.19C14.3933 21.19 16.3333 19.25 16.3333 16.8567C16.3333 14.4633 14.3933 12.5233 12 12.5233ZM14.6867 17.3967H11.46V14.17H12.5433V16.3133H14.6867V17.3967Z" fill="black"/>
</svg>
