<?xml version="1.0" encoding="UTF-8"?>
<svg width="24px" height="24px" viewBox="0 0 24 24" version="1.1" xmlns="http://www.w3.org/2000/svg" xmlns:xlink="http://www.w3.org/1999/xlink">
    <title>Icon/Fill/calendar-accepted-fill</title>
    <g id="Icon/Fill/calendar-accepted-fill" stroke="none" stroke-width="1" fill="none" fill-rule="evenodd">
        <g id="Group" transform="translate(-0.000000, -0.000000)" fill="#474747" fill-rule="nonzero">
            <g id="calendar-accepted-fill" transform="translate(1.500000, 0.000000)">
                <path d="M0,22.5 L0,9.00000004 L21,9.00000004 L21,22.5 C21,23.3280001 20.3280001,24 19.5,24 L1.5,24 C0.672000003,24 0,23.3280001 0,22.5 Z M15,0 L18,0 L18,3 L21,3 L21,6 L0,6 L0,3 L3,3 L3,0 L6,0 L6,3 L15,3 L15,0 Z M5.67439477,15.9922036 L4.50000002,17.1665983 L8.32970868,21.0000001 L16.1516209,13.1743948 L14.9772262,12.0000001 L8.32970868,18.6475175 L5.67439477,15.9922036 Z" id="Icon/Calender-Accept/Fill"></path>
            </g>
        </g>
    </g>
</svg>