<?xml version="1.0" encoding="UTF-8"?>
<svg width="24px" height="24px" viewBox="0 0 24 24" version="1.1" xmlns="http://www.w3.org/2000/svg" xmlns:xlink="http://www.w3.org/1999/xlink">
    <title>Icon/Fill/call-fill</title>
    <g id="Icon/Fill/call-fill" stroke="none" stroke-width="1" fill="none" fill-rule="evenodd">
        <g id="Group" transform="translate(-0.000000, -0.000000)" fill="#474747" fill-rule="nonzero">
            <g id="call-fill">
                <path d="M23.072417,18.3855113 L17.1396823,14.9761972 C16.4131324,14.5588721 15.4971826,14.6804178 14.904497,15.2728042 L13.738603,16.4392363 C13.4298569,16.7493079 12.9371151,16.7766152 12.5960269,16.5025568 C11.657209,15.7448947 10.759838,14.9372218 9.90780859,14.0830436 C9.05402441,13.230621 8.24672403,12.3328359 7.48941136,11.3935848 C7.2154794,11.0523391 7.24277413,10.55937 7.55270275,10.2504814 L8.71859673,9.08404946 C9.31070996,8.49109031 9.43219961,7.5747178 9.01506686,6.84783272 L5.60732539,0.929023608 C5.31924607,0.429207654 4.81524711,0.0918203673 4.24354436,0.0160805021 C3.6718416,-0.0596593633 3.09743997,0.134860121 2.68925935,0.542434722 L0.933756146,2.29874801 C-0.292098081,3.52516792 -0.312084834,5.76804997 0.880458138,8.63080728 C2.02303422,11.3669235 4.15828574,14.3796506 6.87648425,17.1124341 C9.59468276,19.8452176 12.6193448,21.9847871 15.3575301,23.1112271 C16.5305259,23.6461611 17.7968481,23.9461881 19.0850596,23.9943827 C20.0427465,24.0483504 20.9814042,23.7116725 21.6866687,23.0612372 L23.4421719,21.3015912 C23.8573568,20.8982459 24.058517,20.3228845 23.9851454,19.7485704 C23.910974,19.1763158 23.5731759,18.6718517 23.072417,18.3855113 Z" id="Icon/Call/Fill"></path>
            </g>
        </g>
    </g>
</svg>