<?xml version="1.0" encoding="UTF-8"?>
<svg width="24px" height="24px" viewBox="0 0 24 24" version="1.1" xmlns="http://www.w3.org/2000/svg" xmlns:xlink="http://www.w3.org/1999/xlink">
    <title>Icon/Fill/camera-fill</title>
    <g id="Icon/Fill/camera-fill" stroke="none" stroke-width="1" fill="none" fill-rule="evenodd">
        <g id="Group" transform="translate(-0.000000, -0.000000)" fill="#474747" fill-rule="nonzero">
            <g id="camera" transform="translate(0.000000, 2.250000)">
                <path d="M19.4400001,3.75000002 L22.5068855,3.75000002 C23.3271564,3.75000002 24,4.4197467 24,5.24592111 L24,18.004079 C24,18.8232422 23.3278418,19.5 22.4986926,19.5 L1.5013075,19.5 C0.666946295,19.5 -1.77635684e-15,18.8302534 -1.77635684e-15,18.004079 L-1.77635684e-15,5.24592111 C-1.77635684e-15,4.42675783 0.668490156,3.75000002 1.49311456,3.75000002 L4.56000002,3.75000002 L7.08800003,0.423000002 C7.27600003,0.158000003 7.58000006,0 7.90500003,0 L16.0950001,0 C16.42,0 16.7240001,0.158000003 16.912,0.423000002 L19.4400001,3.75000002 Z M12,13.5 C13.657,13.5 15,12.157 15,10.5 C15,8.84300006 13.657,7.50000003 12,7.50000003 C10.3430001,7.50000003 9.00000004,8.84300006 9.00000004,10.5 C9.00000004,12.157 10.3430001,13.5 12,13.5 Z" id="Combined-Shape"></path>
            </g>
        </g>
    </g>
</svg>