<?xml version="1.0" encoding="UTF-8"?>
<svg width="24px" height="24px" viewBox="0 0 24 24" version="1.1" xmlns="http://www.w3.org/2000/svg" xmlns:xlink="http://www.w3.org/1999/xlink">
    <title>Icon/Fill/camera-mic-speakers-fill</title>
    <g id="Icon/Fill/camera-mic-speakers-fill" stroke="none" stroke-width="1" fill="none" fill-rule="evenodd">
        <g id="Group" fill="#474747" fill-rule="nonzero">
            <path d="M9.51349667,18.7503219 C9.51349667,19.9436757 10.8035188,20.9136924 12.000206,20.9136924 C13.1470313,20.9136924 14.3795756,20.0228264 14.4802966,18.8982739 L14.4869154,18.7503219 L15.5936011,18.7503219 C15.5936011,20.3039288 14.2057217,21.600979 12.7247676,21.9330506 L12.5535489,21.9670438 L12.5535489,22.2303817 L13.4435641,22.2303817 L13.4435641,23.3337339 L10.5501811,23.3337339 L10.5501811,22.2303817 L11.4435298,22.2303817 L11.4435298,21.9670438 C9.95412152,21.7134592 8.51107891,20.461467 8.40622995,18.9284186 L8.40014422,18.7503219 L9.51349667,18.7503219 Z M13.9669065,16.446949 L13.9669065,18.3336481 C13.9234569,19.3892582 13.0550432,20.2226627 11.9985393,20.2226627 C10.9923452,20.2226627 10.1567543,19.4667402 10.0419225,18.4828719 L10.0301722,18.3336481 L10.0301722,16.446949 L13.9669065,16.446949 Z M12.5535489,0 L12.5535489,10.7735183 L22.6203884,17.3236308 L22.0103779,18.2469799 L11.9968726,11.7302014 L1.98336739,18.2469799 L1.3766903,17.3236308 L11.4435298,10.7735183 L11.4435298,0 L12.5535489,0 Z M10.9902209,13.4901438 C11.611482,13.1200085 12.3855967,13.1200085 13.0068577,13.4901438 C13.6281188,13.8602791 13.9966471,14.5410437 13.9669065,15.2635954 L13.9669065,15.3335966 L10.0301722,15.3335966 L10.0303126,15.0977168 C10.0586237,14.4381487 10.4167492,13.8318072 10.9902209,13.4901438 Z M18.4203163,3.3567243 C18.589118,3.23297882 18.8128368,3.21369271 19.0003262,3.30672344 C19.1824169,3.40364044 19.2954829,3.59379695 19.2936862,3.80006524 L19.2936862,3.80006524 L19.2936862,11.2701935 C19.2918314,11.5744937 19.0446275,11.8202136 18.7403217,11.8202136 C18.6207017,11.8209398 18.5039524,11.78358 18.4069827,11.7135344 L18.4069827,11.7135344 L15.4069312,9.49349632 L14.4269144,9.49349632 C14.1213115,9.49349632 13.8735715,9.2457563 13.8735715,8.94015349 L13.8735715,8.94015349 L13.8735715,6.12677186 C13.8735715,5.98032089 13.9319734,5.83991629 14.0358423,5.73667316 C14.1397112,5.63343002 14.2804661,5.57587483 14.4269144,5.57676241 L14.4269144,5.57676241 L15.4202647,5.57676241 Z M22.4837193,3.87006644 C23.4542956,4.83542924 24,6.14787516 24,7.51679572 C24,8.80015875 23.520377,10.0338859 22.6606939,10.978523 L22.4837193,11.163525 L21.708,10.391 L21.858714,10.2334658 C22.4713548,9.55057718 22.833635,8.6792363 22.8857453,7.76329415 L22.8922764,7.53346267 C22.8922764,6.53422122 22.5224081,5.57325554 21.858714,4.83345959 L21.7003726,4.66674679 L22.4837193,3.87006644 Z M7.11345546,4.17340499 C7.41905827,4.17340499 7.6667983,4.42114501 7.6667983,4.72674782 L7.6667983,4.72674782 L7.6667983,5.39342593 L9.29682628,4.82008275 C9.46976855,4.72331299 9.68056024,4.72331299 9.8535025,4.82008275 C10.0239258,4.91847393 10.1292715,5.09997319 10.1301739,5.2967576 L10.1301739,5.2967576 L10.1301739,9.76350096 C10.1291014,9.96111192 10.0239583,10.1435289 9.8535025,10.2435092 C9.68090569,10.3415949 9.46942309,10.3415949 9.29682628,10.2435092 L9.29682628,10.2435092 L7.6667983,9.66683263 L7.6667983,10.3335107 C7.6668227,10.4811316 7.60750472,10.6225658 7.50218488,10.7260049 C7.39686505,10.829444 7.25438514,10.8862042 7.10678868,10.8835202 L7.10678868,10.8835202 L0.553342833,10.8835202 C0.406894561,10.8844078 0.26613963,10.8268526 0.162270777,10.7236094 C0.0584019229,10.6203663 0,10.4799617 0,10.3335107 L0,10.3335107 L0,4.72341443 C0.00183316716,4.41911419 0.249037076,4.17340499 0.553342833,4.17340499 L0.553342833,4.17340499 Z M21.0570282,4.97008533 C21.7404028,5.64738099 22.1248338,6.56964719 22.1248338,7.53179598 C22.1248338,8.41993332 21.7972713,9.27408786 21.2093844,9.93295239 L21.0570282,10.0935066 L20.2736814,9.31349323 C20.7494257,8.8426673 21.0171134,8.20113121 21.0171134,7.53179598 C21.0171134,6.92939427 20.8002863,6.34950986 20.4101034,5.89632489 L20.2736814,5.75009872 L21.0570282,4.97008533 Z" id="Combined-Shape"></path>
        </g>
    </g>
</svg>