<?xml version="1.0" encoding="UTF-8"?>
<svg width="24px" height="24px" viewBox="0 0 24 24" version="1.1" xmlns="http://www.w3.org/2000/svg" xmlns:xlink="http://www.w3.org/1999/xlink">
    <title>Icon/Fill/capital-fill</title>
    <g id="Icon/Fill/capital-fill" stroke="none" stroke-width="1" fill="none" fill-rule="evenodd">
        <g id="Group" transform="translate(-0.000000, -0.000000)" fill="#474747" fill-rule="nonzero">
            <g id="capital-fill">
                <path d="M19.5000001,9.00000004 L22.5000001,9.00000004 L22.5000001,19.5 L19.5000001,19.5 L19.5000001,9.00000004 Z M13.5000001,9.00000004 L16.5000001,9.00000004 L16.5000001,19.5 L13.5000001,19.5 L13.5000001,9.00000004 Z M24,5.75581397 L24,7.5 L0,7.5 L0,5.69352162 L11.917573,0 L24,5.75581397 Z M7.50000003,9.00000004 L10.5,9.00000004 L10.5,19.5 L7.50000003,19.5 L7.50000003,9.00000004 Z M1.50000001,9.00000004 L4.50000001,9.00000004 L4.50000001,19.5 L1.50000001,19.5 L1.50000001,9.00000004 Z M22.943353,21.0000001 L22.943353,21.0262391 L24,21.0262391 L24,24.0000001 L0,24.0000001 L0,21.0262391 L1.06697261,21.0262391 L1.06697261,21.0000001 L22.943353,21.0000001 Z" id="Combined-Shape"></path>
            </g>
        </g>
    </g>
</svg>