<?xml version="1.0" encoding="UTF-8"?>
<svg width="24px" height="24px" viewBox="0 0 24 24" version="1.1" xmlns="http://www.w3.org/2000/svg" xmlns:xlink="http://www.w3.org/1999/xlink">
    <title>Icon/Fill/carers-space-fill</title>
    <g id="Icon/Fill/carers-space-fill" stroke="none" stroke-width="1" fill="none" fill-rule="evenodd">
        <g id="Group" transform="translate(5.000000, 0.000000)" fill="#474747" fill-rule="nonzero">
            <path d="M11.5466761,9.8233217 L1.58666797,9.8233217 C0.634277247,10.172644 0.0008358766,11.078891 0,12.0933236 L0,24 L13.1333441,24 L13.1333441,12.0933236 C13.1325082,11.078891 12.4990669,10.172644 11.5466761,9.8233217 Z M11.6633429,22.2566652 L1.47000121,22.2566652 L1.47000121,16.1599936 C1.88310812,16.3177385 2.32114707,16.400153 2.7633356,16.4033271 C3.1993523,16.3476351 3.61675083,16.1925362 3.9833366,15.9499934 C4.16463123,15.7353759 4.43241773,15.6130989 4.7133372,15.6166598 C5.00333744,15.6333265 5.09000418,15.7933266 5.25000431,15.8899933 C5.65075425,16.1789565 6.12390254,16.3509056 6.6166721,16.3866604 C7.1087125,16.3500168 7.58134096,16.1794095 7.98333988,15.8933267 C8.15334002,15.7899933 8.23667342,15.6166598 8.54334034,15.6199931 C8.95667402,15.6199931 8.98667404,15.7866599 9.23334091,15.9333267 C9.59680426,16.1995598 10.0274541,16.3588887 10.4766753,16.3933271 C10.8944286,16.4077738 11.3071762,16.2987899 11.6633429,16.0799935 L11.6633429,22.2566652 Z" id="Shape"></path>
            <path d="M11.2666759,7.10331947 L10.4433419,7.10331947 L10.4433419,6.99998605 C10.4460375,5.82548183 9.74083566,4.76504767 8.65667377,4.31331718 C8.41709015,4.21940711 8.23891089,4.01381565 8.18000671,3.76331673 L8.13000667,3.51664986 C8.09906422,3.31986696 8.14051414,3.1185388 8.24667343,2.94998273 C8.6668398,2.24165428 8.59759797,1.34589006 8.07356693,0.710547288 C7.5495359,0.0752045153 6.68330948,-0.163206423 5.90797684,0.114513317 C5.13264419,0.392233057 4.61479406,1.12641233 4.61333712,1.94998191 C4.61204923,2.29579368 4.70418221,2.63553403 4.880004,2.93331605 C4.98889174,3.10454786 5.03265957,3.30919204 5.00333744,3.50998319 L4.9533374,3.75665006 C4.89443322,4.00714898 4.71625396,4.21274044 4.47667034,4.30665051 C3.39025893,4.75930739 2.68460236,5.82305833 2.69000221,6.99998605 L2.69000221,7.11665281 L1.86000153,7.11665281 L1.86000153,8.33332048 L11.2666759,8.33332048 L11.2666759,7.10331947 Z" id="Path"></path>
        </g>
    </g>
</svg>