<?xml version="1.0" encoding="UTF-8"?>
<svg width="24px" height="24px" viewBox="0 0 24 24" version="1.1" xmlns="http://www.w3.org/2000/svg" xmlns:xlink="http://www.w3.org/1999/xlink">
    <title>Icon/Fill/center-map-fill</title>
    <g id="Icon/Fill/center-map-fill" stroke="none" stroke-width="1" fill="none" fill-rule="evenodd">
        <g id="Group" transform="translate(0.000303, -0.000000)" fill="#474747" fill-rule="nonzero">
            <g id="center-map">
                <path d="M13.5124449,6.16189638 C15.632228,6.71113355 17.2890178,8.36792338 17.838255,10.4861934 L13.5124449,10.4861934 L13.5124449,6.16189638 Z M20.9413694,10.48695 C20.3013492,6.69373348 17.30551,3.6994074 13.5122936,3.05938722 L13.5122936,0 C18.9849957,0.683898628 23.3153449,5.01424791 23.9992436,10.48695 L20.9413694,10.48695 Z M0,10.48695 C0.683898628,5.01424791 5.01424791,0.685411678 10.48695,0 L10.48695,3.05938722 C6.69373348,3.6994074 3.6994074,6.69373348 3.05787417,10.48695 L0,10.48695 Z M17.8381037,13.5130501 C17.2888665,15.6328332 15.6320767,17.289623 13.5122936,17.8388602 L13.5122936,13.5130501 L17.8381037,13.5130501 Z M6.16174507,10.48695 C6.71098225,8.36716688 8.36777204,6.71189008 10.4860422,6.1626529 L10.4860422,10.48695 L6.16174507,10.48695 Z M10.4863448,17.8384063 C8.36656164,17.2891692 6.70977181,15.6323793 6.16204768,13.5125962 L10.4863448,13.5125962 L10.4863448,17.8384063 Z M13.5124449,20.9421259 C17.3056614,20.3021058 20.3015005,17.3062666 20.9415207,13.5130501 L23.9993949,13.5130501 C23.3154963,18.9857522 18.9851469,23.3161015 13.5124449,24.0000001 L13.5124449,20.9421259 Z M3.05802548,13.5130501 C3.69804566,17.3062666 6.69237173,20.3005927 10.4855882,20.9421259 L10.4855882,24.0000001 C5.01439921,23.3161015 0.684049933,18.9857522 0.000151305006,13.5130501 L3.05802548,13.5130501 Z" id="Combined-Shape"></path>
            </g>
        </g>
    </g>
</svg>