<?xml version="1.0" encoding="UTF-8"?>
<svg width="24px" height="24px" viewBox="0 0 24 24" version="1.1" xmlns="http://www.w3.org/2000/svg" xmlns:xlink="http://www.w3.org/1999/xlink">
    <title>Icon/Fill/change-fill</title>
    <g id="Icon/Fill/change-fill" stroke="none" stroke-width="1" fill="none" fill-rule="evenodd">
        <g id="Group" transform="translate(-0.000000, -0.000000)" fill="#474747" fill-rule="nonzero">
            <g id="Change-fill" transform="translate(0.000000, 0.000000)">
                <path d="M7.20000003,8.33333336 L10.7333334,11.8666667 C11,12.1333334 11,12.5666668 10.7333334,12.8333334 C10.4666667,13.1000001 10.0333334,13.1000001 9.76666669,12.8333334 L4.60000002,7.66666668 L9.76666669,2.5 C10.0333334,2.23333334 10.4666667,2.23333334 10.7333334,2.5 C11,2.76666668 11,3.20000002 10.7333334,3.46666668 L7.20000003,7 L24,7.03333336 L24,1.79924895e-24 L2,1.79924895e-24 C0.900000004,1.79924895e-24 1.79924895e-24,0.900000004 1.79924895e-24,2 L1.79924895e-24,15.6666667 L16.8000001,15.6333334 L13.2666667,12.1 C13,11.8333334 13,11.4333333 13.2666667,11.1666667 C13.5333334,10.9 13.9666667,10.9 14.2333334,11.1666667 L19.4000001,16.3333334 L14.2333334,21.5 C13.9666667,21.7666667 13.5333334,21.7666667 13.2666667,21.5 C13,21.2333334 13,20.8000001 13.2666667,20.5333334 L16.8000001,17 L1.79924895e-24,17.0333334 L1.79924895e-24,22 C1.79924895e-24,23.1000001 0.900000004,24 2,24 L22,24 C23.1000001,24 24,23.1000001 24,22 L24,8.36666673 L7.20000003,8.33333336 Z" id="Path"></path>
            </g>
        </g>
    </g>
</svg>