<?xml version="1.0" encoding="UTF-8"?>
<svg width="24px" height="24px" viewBox="0 0 24 24" version="1.1" xmlns="http://www.w3.org/2000/svg" xmlns:xlink="http://www.w3.org/1999/xlink">
    <title>Icon/Outline/checkbox-deselected-fill</title>
    <g id="Icon/Outline/checkbox-deselected-fill" stroke="none" stroke-width="1" fill="none" fill-rule="evenodd">
        <g id="Icon" fill="#474747" fill-rule="nonzero">
            <path d="M4.26786719,23.9864941 L19.7321328,23.9864941 C21.1367473,23.9864941 22.1992122,23.6285875 22.9195273,22.9127743 C23.6398424,22.1969612 24,21.1457513 24,19.7591446 L24,4.24085537 C24,2.85424873 23.6398424,1.80078784 22.9195273,1.08047271 C22.1992122,0.360157569 21.1367473,0 19.7321328,0 L4.26786719,0 C2.87225661,0 1.81204277,0.357906584 1.08722566,1.07371975 C0.362408554,1.78953292 0,2.84524479 0,4.24085537 L0,19.7591446 C0,21.1547552 0.362408554,22.2082161 1.08722566,22.9195273 C1.81204277,23.6308385 2.87225661,23.9864941 4.26786719,23.9864941 Z M4.47045582,21.2988182 C3.90320765,21.2988182 3.46876759,21.1502532 3.16713562,20.8531232 C2.86550366,20.5559932 2.71468768,20.1057963 2.71468768,19.5025324 L2.71468768,4.49746764 C2.71468768,3.89420371 2.86550366,3.44400675 3.16713562,3.14687676 C3.46876759,2.84974676 3.90320765,2.70118177 4.47045582,2.70118177 L19.5295442,2.70118177 C20.0967923,2.70118177 20.5334834,2.84974676 20.8396173,3.14687676 C21.1457513,3.44400675 21.2988182,3.89420371 21.2988182,4.49746764 L21.2988182,19.5025324 C21.2988182,20.1057963 21.1457513,20.5559932 20.8396173,20.8531232 C20.5334834,21.1502532 20.0967923,21.2988182 19.5295442,21.2988182 L4.47045582,21.2988182 Z" id="Shape"></path>
        </g>
    </g>
</svg>