<?xml version="1.0" encoding="UTF-8"?>
<svg width="24px" height="24px" viewBox="0 0 24 24" version="1.1" xmlns="http://www.w3.org/2000/svg" xmlns:xlink="http://www.w3.org/1999/xlink">
    <title>Icon/Outline/checkbox-indeterminate-fill</title>
    <g id="Icon/Outline/checkbox-indeterminate-fill" stroke="none" stroke-width="1" fill="none" fill-rule="evenodd">
        <g id="Icon" fill="#474747" fill-rule="nonzero">
            <path d="M4.26786719,23.9864941 L19.7321328,23.9864941 C21.1367473,23.9864941 22.1992122,23.6285875 22.9195273,22.9127743 C23.6398424,22.1969612 24,21.1457513 24,19.7591446 L24,4.24085537 C24,2.85424873 23.6398424,1.80078784 22.9195273,1.08047271 C22.1992122,0.360157569 21.1367473,0 19.7321328,0 L4.26786719,0 C2.87225661,0 1.81204277,0.357906584 1.08722566,1.07371975 C0.362408554,1.78953292 0,2.84524479 0,4.24085537 L0,19.7591446 C0,21.1547552 0.362408554,22.2082161 1.08722566,22.9195273 C1.81204277,23.6308385 2.87225661,23.9864941 4.26786719,23.9864941 Z M7.07709623,13.3168261 C6.66291503,13.3168261 6.32301632,13.1997749 6.05740011,12.9656725 C5.79178391,12.7315701 5.6589758,12.4119302 5.6589758,12.006753 C5.6589758,11.6015757 5.78953292,11.2796849 6.05064716,11.0410805 C6.3117614,10.8024761 6.65391109,10.6831739 7.07709623,10.6831739 L17.0174451,10.6831739 C17.4406303,10.6831739 17.780529,10.8024761 18.0371412,11.0410805 C18.2937535,11.2796849 18.4220597,11.6015757 18.4220597,12.006753 C18.4220597,12.4119302 18.2915025,12.7315701 18.0303883,12.9656725 C17.7692741,13.1997749 17.4316263,13.3168261 17.0174451,13.3168261 L7.07709623,13.3168261 Z" id="Shape"></path>
        </g>
    </g>
</svg>