<?xml version="1.0" encoding="UTF-8"?>
<svg width="24px" height="24px" viewBox="0 0 24 24" version="1.1" xmlns="http://www.w3.org/2000/svg" xmlns:xlink="http://www.w3.org/1999/xlink">
    <title>Icon/Outline/checkbox-selected-fill</title>
    <g id="Icon/Outline/checkbox-selected-fill" stroke="none" stroke-width="1" fill="none" fill-rule="evenodd">
        <g id="Icon" fill="#474747" fill-rule="nonzero">
            <path d="M4.26786719,23.9864941 L19.7321328,23.9864941 C21.1367473,23.9864941 22.1992122,23.6285875 22.9195273,22.9127743 C23.6398424,22.1969612 24,21.1457513 24,19.7591446 L24,4.24085537 C24,2.85424873 23.6398424,1.80078784 22.9195273,1.08047271 C22.1992122,0.360157569 21.1367473,0 19.7321328,0 L4.26786719,0 C2.87225661,0 1.81204277,0.357906584 1.08722566,1.07371975 C0.362408554,1.78953292 0,2.84524479 0,4.24085537 L0,19.7591446 C0,21.1547552 0.362408554,22.2082161 1.08722566,22.9195273 C1.81204277,23.6308385 2.87225661,23.9864941 4.26786719,23.9864941 Z M10.6291503,18.3005065 C10.368036,18.3005065 10.1339336,18.2442319 9.92684299,18.1316826 C9.71975239,18.0191334 9.52166573,17.8503095 9.33258301,17.625211 L6.23972988,13.8570625 C5.99662352,13.5599325 5.87507034,13.2447946 5.87507034,12.9116488 C5.87507034,12.5694992 5.99437254,12.2768711 6.23297693,12.0337648 C6.47158132,11.7906584 6.76195836,11.6691052 7.10410805,11.6691052 C7.31119865,11.6691052 7.50028137,11.7141249 7.67135622,11.8041643 C7.84243106,11.8942037 8.00900394,12.0427687 8.17107485,12.2498593 L10.5886325,15.2751829 L15.7884074,6.95554305 C16.0765335,6.48733821 16.4366911,6.25323579 16.8688801,6.25323579 C17.2020259,6.25323579 17.4991559,6.36128306 17.7602701,6.5773776 C18.0213844,6.79347214 18.1519415,7.07709623 18.1519415,7.42824986 C18.1519415,7.58131683 18.1204277,7.73663478 18.0574001,7.89420371 C17.9943725,8.05177265 17.9133371,8.20258863 17.8142938,8.34665166 L11.844682,17.5981992 C11.5385481,18.0664041 11.1333708,18.3005065 10.6291503,18.3005065 Z" id="Shape"></path>
        </g>
    </g>
</svg>