<svg width="24" height="24" viewBox="0 0 24 24" fill="none" xmlns="http://www.w3.org/2000/svg">
<g clip-path="url(#clip0_15805_63654)">
<path d="M-0.00146484 12.0017L11.3285 23.3417C12.2052 24.2217 13.6285 24.2217 14.5085 23.3417C15.3852 22.4617 15.3852 21.0383 14.5085 20.1583L6.3552 11.9983L14.5085 3.83834C14.9485 3.39834 15.1685 2.825 15.1685 2.24834C15.1685 1.67167 14.9485 1.095 14.5085 0.658337C13.6319 -0.221663 12.2052 -0.221663 11.3285 0.658337L-0.00146484 12.0017ZM8.83187 12.0017L20.1619 23.3417C21.0385 24.2217 22.4619 24.2217 23.3419 23.3417C24.2185 22.4617 24.2185 21.0383 23.3419 20.1583L15.1885 11.9983L23.3419 3.83834C23.7819 3.39834 24.0019 2.825 24.0019 2.24834C24.0019 1.67167 23.7819 1.095 23.3419 0.658337C22.4652 -0.221663 21.0385 -0.221663 20.1619 0.658337L8.83187 12.0017Z" fill="black"/>
</g>
<defs>
<clipPath id="clip0_15805_63654">
<rect width="24" height="24" fill="white"/>
</clipPath>
</defs>
</svg>
