<?xml version="1.0" encoding="UTF-8"?>
<svg width="24px" height="24px" viewBox="0 0 24 24" version="1.1" xmlns="http://www.w3.org/2000/svg" xmlns:xlink="http://www.w3.org/1999/xlink">
    <title>Icon/Fill/chevron-double-down-fill</title>
    <g id="Icon/Fill/chevron-double-down-fill" stroke="none" stroke-width="1" fill="none" fill-rule="evenodd">
        <g id="Group" fill="#474747" fill-rule="nonzero">
            <path d="M11.9246368,23.9519457 L23.2822785,12.5943039 C23.8855292,12.0321891 24.1338487,11.1856223 23.9298211,10.3867124 C23.7257935,9.58780237 23.1019594,8.96396831 22.3030494,8.75994072 C21.5041395,8.55591313 20.6575727,8.80423261 20.0954579,9.40748326 L11.9246368,17.5816448 L3.74713471,9.41082375 C2.85339317,8.6291237 1.50658127,8.67445991 0.667430286,9.51449236 C-0.171720702,10.3545248 -0.21564291,11.7013836 0.566995015,12.5943039 L11.9246368,23.9519457 Z M11.9246368,15.0996661 L23.2822785,3.74202432 C24.0603197,2.84902185 24.0134667,1.50590757 23.1750898,0.669291993 C22.3367129,-0.167323585 20.9935031,-0.211351848 20.1021388,0.568565591 L11.9246368,8.72936524 L3.74713471,0.568565591 C2.85646947,-0.222983598 1.50329569,-0.183509491 0.660287127,0.658613563 C-0.18272144,1.50073662 -0.223617673,2.85386816 0.566995015,3.7453648 L11.9246368,15.0996661 Z" id="Shape"></path>
        </g>
    </g>
</svg>