<svg width="24" height="24" viewBox="0 0 24 24" fill="none" xmlns="http://www.w3.org/2000/svg">
<g clip-path="url(#clip0_15805_63660)">
<path d="M24 11.9983L12.67 0.658337C11.7933 -0.221663 10.37 -0.221663 9.49 0.658337C8.61333 1.53834 8.61333 2.96167 9.49 3.84167L17.6433 12.0017L9.49 20.1617C9.05 20.6017 8.83 21.175 8.83 21.7517C8.83 22.3283 9.05 22.905 9.49 23.3417C10.3667 24.2217 11.7933 24.2217 12.67 23.3417L24 12.0017V11.9983ZM15.1667 11.9983L3.83667 0.658337C2.96 -0.221663 1.53667 -0.221663 0.66 0.658337C-0.22 1.535 -0.22 2.96167 0.66 3.83834L8.81333 11.9983L0.66 20.1583C0.22 20.5983 1.98682e-08 21.1717 1.98682e-08 21.7483C1.98682e-08 22.325 0.22 22.9017 0.66 23.3383C1.53667 24.2183 2.96333 24.2183 3.84 23.3383L15.17 11.9983H15.1667Z" fill="black"/>
</g>
<defs>
<clipPath id="clip0_15805_63660">
<rect width="24" height="24" fill="white"/>
</clipPath>
</defs>
</svg>
