<?xml version="1.0" encoding="UTF-8"?>
<svg width="24px" height="24px" viewBox="0 0 24 24" version="1.1" xmlns="http://www.w3.org/2000/svg" xmlns:xlink="http://www.w3.org/1999/xlink">
    <title>Icon/Fill/circle-more-fill</title>
    <g id="Icon/Fill/circle-more-fill" stroke="none" stroke-width="1" fill="none" fill-rule="evenodd">
        <g id="Group" transform="translate(-0.000000, -0.000000)" fill="#474747" fill-rule="nonzero">
            <g id="circle-more">
                <path d="M12,0 C18.6270001,0 24,5.37300002 24,12 C24,18.6270001 18.6270001,24 12,24 C5.37300002,24 0,18.6270001 0,12 C0,5.37300002 5.37300002,0 12,0 Z M6.00000002,13.5 C6.82800003,13.5 7.50000002,12.8280001 7.50000002,12 C7.50000002,11.172 6.82800003,10.5 6.00000002,10.5 C5.17200002,10.5 4.50000002,11.172 4.50000002,12 C4.50000002,12.8280001 5.17200002,13.5 6.00000002,13.5 Z M12,13.5 C12.8280001,13.5 13.5,12.8280001 13.5,12 C13.5,11.172 12.8280001,10.5 12,10.5 C11.172,10.5 10.5,11.172 10.5,12 C10.5,12.8280001 11.172,13.5 12,13.5 Z M18.0000001,13.5 C18.8280001,13.5 19.5000001,12.8280001 19.5000001,12 C19.5000001,11.172 18.8280001,10.5 18.0000001,10.5 C17.1720001,10.5 16.5000001,11.172 16.5000001,12 C16.5000001,12.8280001 17.1720001,13.5 18.0000001,13.5 Z" id="Circle-More"></path>
            </g>
        </g>
    </g>
</svg>