<?xml version="1.0" encoding="UTF-8"?>
<svg width="24px" height="24px" viewBox="0 0 24 24" version="1.1" xmlns="http://www.w3.org/2000/svg" xmlns:xlink="http://www.w3.org/1999/xlink">
    <title>Icon/Fill/circuit-board-box-fill</title>
    <g id="Icon/Fill/circuit-board-box-fill" stroke="none" stroke-width="1" fill="none" fill-rule="evenodd">
        <g id="Group" transform="translate(3.000000, 0.000000)" fill="#474747" fill-rule="nonzero">
            <path d="M17.58,0 C18.1320539,0 18.5869996,0.416841068 18.646699,0.953317843 L18.6533333,1.07 L18.6533333,22.9266667 C18.6533333,23.4799333 18.2347229,23.9354281 17.6969515,23.9937018 L17.58,24 L1.07333333,24 C0.520066744,24 0.0645718622,23.5813896 0.00629817387,23.0436182 L0,22.9266667 L0,1.07 C0.0017144531,0.517948763 0.419970881,0.0643042796 0.95663107,0.00627190944 L1.07333333,0 L17.58,0 Z M15.8166667,17.7422222 L2.68,17.7422222 L2.68,20.3933333 L15.8166667,20.3933333 L15.8166667,17.7422222 Z M15.0433333,18.3 L15.0433333,19.6933333 L5.66666667,19.6933333 L5.66666667,18.3 L15.0433333,18.3 Z M15.8166667,13.0822222 L2.68,13.0822222 L2.68,15.7333333 L15.8166667,15.7333333 L15.8166667,13.0822222 Z M12.7266667,13.64 L12.7266667,15.0333333 L3.35,15.0333333 L3.35,13.64 L12.7266667,13.64 Z M15.8166667,8.42222222 L2.68,8.42222222 L2.68,11.0733333 L15.8166667,11.0733333 L15.8166667,8.42222222 Z M15.0433333,8.98 L15.0433333,10.3733333 L5.66666667,10.3733333 L5.66666667,8.98 L15.0433333,8.98 Z M15.8166667,3.62333333 L2.68,3.62333333 L2.68,6.41333333 L15.8166667,6.41333333 L15.8166667,3.62333333 Z M15.0433333,4.32 L15.0433333,5.71333333 L5.66666667,5.71333333 L5.66666667,4.32 L15.0433333,4.32 Z" id="Combined-Shape"></path>
        </g>
    </g>
</svg>