<?xml version="1.0" encoding="UTF-8"?>
<svg width="24px" height="24px" viewBox="0 0 24 24" version="1.1" xmlns="http://www.w3.org/2000/svg" xmlns:xlink="http://www.w3.org/1999/xlink">
    <title>Icon/Fill/circlepercent-fill</title>
    <g id="Icon/Fill/circlepercent-fill" stroke="none" stroke-width="1" fill="none" fill-rule="evenodd">
        <g id="Group" fill="#474747" fill-rule="nonzero">
            <path d="M12,0 C15.1825979,0 18.2348448,1.26428208 20.4852814,3.51471863 C22.7357179,5.76515517 24,8.81740212 24,12 C24,18.627417 18.627417,24 12,24 C5.372583,24 0,18.627417 0,12 C0,5.372583 5.372583,0 12,0 Z M15.4022916,12.3899995 C13.9317209,12.396141 12.7436799,13.5916073 12.7467186,15.0621875 C12.7497691,16.5327678 13.9427499,17.7233333 15.4133333,17.7233333 C16.1234745,17.7233333 16.8042896,17.4401089 17.3048685,16.9364014 C17.8054474,16.4326939 18.0844384,15.7501273 18.0800522,15.04 C18.0708089,13.5694453 16.8728623,12.3839052 15.4022916,12.3899995 Z M15.5333333,7.19 L6.97333333,15.75 L8.03333333,16.81 L16.5966667,8.25 L15.5333333,7.19 Z M15.4133333,13.8566667 C16.0668703,13.8566667 16.5966667,14.386463 16.5966667,15.04 C16.5966667,15.693537 16.0668703,16.2233333 15.4133333,16.2233333 C14.7597964,16.2233333 14.23,15.693537 14.23,15.04 C14.23,14.386463 14.7597964,13.8566667 15.4133333,13.8566667 Z M8.0811458,6.33338529 C6.61056552,6.33643572 5.42,7.52941657 5.42,9 C5.42,9.71014115 5.70322441,10.3909563 6.2069319,10.8915352 C6.7106394,11.3921141 7.39320605,11.671105 8.10333333,11.6667188 C9.57388804,11.6574755 10.7594281,10.459529 10.7533338,8.98895829 C10.7471924,7.51838759 9.55172608,6.33034655 8.0811458,6.33338529 Z M8.55206879,7.90642727 C8.99465953,8.08938776 9.28333333,8.52108342 9.28333333,9 C9.28333333,9.65223742 8.75556816,10.181496 8.10333333,10.1833381 C7.62441865,10.1846824 7.1919104,9.89722939 7.00770215,9.45515653 C6.8234939,9.01308367 6.92391045,8.50356514 7.26207764,8.16444268 C7.60024483,7.82532021 8.10947806,7.72346678 8.55206879,7.90642727 Z" id="Combined-Shape"></path>
        </g>
    </g>
</svg>