<svg width="24" height="24" viewBox="0 0 24 24" fill="none" xmlns="http://www.w3.org/2000/svg">
<g clip-path="url(#clip0_15805_63656)">
<path d="M12 24C18.6267 24 24 18.6267 24 12C24 5.37333 18.6267 0 12 0C5.37333 0 0 5.37333 0 12C0 18.6267 5.37333 24 12 24ZM12 15.6833L8.58333 17.9633C7.7 18.5533 7.21333 18.1967 7.5 17.1733L8.60333 13.2067L5.39 10.6467C4.55667 9.98333 4.74667 9.41 5.80333 9.36667L9.9 9.19333L11.33 5.33333C11.7 4.33333 12.3 4.33667 12.67 5.33333L14.1 9.19333L18.1967 9.36667C19.2567 9.41 19.44 9.98667 18.61 10.6467L15.3967 13.2067L16.5 17.1733C16.7867 18.2 16.2967 18.5533 15.4167 17.9633L12 15.6833Z" fill="black"/>
</g>
<defs>
<clipPath id="clip0_15805_63656">
<rect width="24" height="24" fill="white"/>
</clipPath>
</defs>
</svg>
