<?xml version="1.0" encoding="UTF-8"?>
<svg width="24px" height="24px" viewBox="0 0 24 24" version="1.1" xmlns="http://www.w3.org/2000/svg" xmlns:xlink="http://www.w3.org/1999/xlink">
    <title>Icon/Fill/circle-save-fill</title>
    <g id="Icon/Fill/circle-save-fill" stroke="none" stroke-width="1" fill="none" fill-rule="evenodd">
        <g id="Group" transform="translate(-0.000000, -0.000000)" fill="#474747" fill-rule="nonzero">
            <g id="circle-save" transform="translate(0.000000, 0.092841)">
                <path d="M10.5,2.60208522e-16 L10.5,12.0891399 L7.75735938,9.34649921 C7.17157291,8.76071283 6.22182543,8.76071283 5.636039,9.34649921 C5.05025255,9.93228566 5.05025255,10.8820332 5.636039,11.4678196 L12,17.8317806 L18.3639611,11.4678196 C18.9497476,10.8820332 18.9497476,9.93228566 18.3639611,9.34649921 C17.7781747,8.76071283 16.8284272,8.76071283 16.2426407,9.34649921 L13.5,12.0891399 L13.5,2.60208522e-16 C19.4194675,0.738147138 24,5.78773292 24,11.9071594 C24,18.5345764 18.6274171,23.9071595 12,23.9071595 C5.37258302,23.9071595 0,18.5345764 0,11.9071594 C0,5.78773292 4.58053266,0.738147138 10.5,2.60208522e-16 Z" id="Combined-Shape"></path>
            </g>
        </g>
    </g>
</svg>