<svg width="24" height="24" viewBox="0 0 24 24" fill="none" xmlns="http://www.w3.org/2000/svg">
<g id="Fill=True" clip-path="url(#clip0_116717_10855)">
<path id="Vector" d="M12 0C13.632 0 15.192 0.312 16.68 0.935999C18.104 1.544 19.368 2.408 20.472 3.528C21.592 4.632 22.456 5.896 23.064 7.32C23.688 8.808 24 10.368 24 12C24 13.632 23.688 15.192 23.064 16.68C22.456 18.104 21.592 19.368 20.472 20.472C19.368 21.592 18.104 22.456 16.68 23.064C15.192 23.688 13.632 24 12 24C10.368 24 8.808 23.688 7.32 23.064C5.896 22.456 4.624 21.592 3.504 20.472C2.4 19.368 1.544 18.104 0.936 16.68C0.312 15.192 0 13.632 0 12C0 10.368 0.312 8.808 0.936 7.32C1.544 5.896 2.4 4.632 3.504 3.528C4.624 2.408 5.896 1.544 7.32 0.935999C8.808 0.312 10.368 0 12 0Z" fill="#474747"/>
</g>
<defs>
<clipPath id="clip0_116717_10855">
<rect width="24" height="24" fill="white"/>
</clipPath>
</defs>
</svg>
