<svg width="24" height="24" viewBox="0 0 24 24" fill="none" xmlns="http://www.w3.org/2000/svg">
<g clip-path="url(#clip0_15805_63662)">
<path d="M5.01113 4.68065C5.16446 4.83065 5.2478 5.03398 5.2478 5.24731C5.2478 5.46065 5.16446 5.66398 5.01113 5.81398C4.8578 5.96398 4.65446 6.05065 4.44113 6.05065C4.2278 6.05065 4.02113 5.96731 3.87113 5.81398L2.1578 4.11065C1.84113 3.79731 1.84113 3.28731 2.1578 2.97398C2.47446 2.66065 2.99446 2.67065 3.30113 2.97398L5.01446 4.67731L5.01113 4.68065ZM3.36113 6.42065L1.08446 5.59731C0.881129 5.52398 0.661129 5.53398 0.467796 5.62398C0.271129 5.71398 0.124463 5.87731 0.0511292 6.07731C-0.0222042 6.27731 -0.0122042 6.49731 0.0777958 6.69065C0.167796 6.88398 0.331129 7.03398 0.534463 7.10731L2.81113 7.93065C2.90113 7.96398 2.99446 7.98065 3.0878 7.98065C3.4178 7.98065 3.7278 7.77731 3.8478 7.45065C3.92113 7.25065 3.91113 7.03065 3.82113 6.83731C3.73113 6.64398 3.5678 6.49398 3.36446 6.42065H3.36113ZM7.1378 3.62398L6.3078 1.36065C6.15446 0.943979 5.69113 0.730645 5.27113 0.880645C5.0678 0.953979 4.9078 1.10065 4.81446 1.29731C4.72446 1.49065 4.71446 1.71065 4.7878 1.91065L5.6178 4.17398C5.69113 4.37398 5.84113 4.53731 6.03446 4.62731C6.14446 4.67731 6.2578 4.70398 6.37446 4.70398C6.4678 4.70398 6.56113 4.68731 6.65113 4.65398C6.85446 4.58065 7.01446 4.43398 7.1078 4.23731C7.1978 4.04398 7.2078 3.82398 7.13446 3.62398H7.1378ZM20.6445 2.99065C20.6445 2.56065 20.2678 2.18731 19.8378 2.18731C19.4078 2.18731 19.0311 2.54731 19.0311 2.99065V5.40065C19.0311 5.61398 19.1145 5.81731 19.2678 5.96731C19.4211 6.11731 19.6245 6.20398 19.8378 6.20398C20.0545 6.20398 20.2578 6.12065 20.4078 5.96731C20.5578 5.81398 20.6445 5.61398 20.6445 5.40065V2.99065ZM18.2378 5.47065L17.2145 3.28731C17.1245 3.09398 16.9611 2.94398 16.7578 2.87065C16.5545 2.79731 16.3345 2.80731 16.1411 2.89731C15.9445 2.98731 15.7978 3.14731 15.7245 3.35065C15.6511 3.55398 15.6611 3.77065 15.7511 3.96398L16.7745 6.14731C16.8145 6.23398 16.8711 6.31065 16.9345 6.37398C17.1678 6.60731 17.5311 6.68065 17.8478 6.53398C18.0445 6.44398 18.1911 6.28065 18.2645 6.08065C18.3378 5.88065 18.3278 5.66065 18.2378 5.46731V5.47065ZM22.8978 6.15065L23.9211 3.96731C24.1111 3.56731 23.9345 3.08731 23.5311 2.90065C23.3345 2.81065 23.1178 2.80065 22.9145 2.87398C22.7111 2.94731 22.5511 3.09398 22.4578 3.29065L21.4345 5.47398C21.3445 5.66731 21.3345 5.88731 21.4078 6.08731C21.4478 6.20065 21.5111 6.29731 21.5945 6.38065C21.6611 6.44731 21.7378 6.50065 21.8245 6.54065C22.0211 6.63065 22.2378 6.64065 22.4411 6.56731C22.6445 6.49398 22.8045 6.34731 22.8978 6.15065ZM17.6678 9.83065V9.80065C17.5578 9.06398 17.8411 8.36065 18.3578 7.89731C18.2411 7.87065 18.1211 7.85065 17.9945 7.85065C17.9211 7.85065 17.8478 7.85398 17.7745 7.86398H17.7578L17.5411 7.89398C17.0645 7.96398 16.6678 8.23398 16.4245 8.60731L17.6678 9.82731V9.83065ZM9.33113 5.96065C9.50113 5.96065 9.66446 5.98398 9.82446 6.02398C9.90113 5.78398 10.0345 5.55731 10.2145 5.36065C10.0345 5.27398 9.8378 5.22065 9.63446 5.22065C9.2778 5.22065 8.94113 5.36065 8.6878 5.61398L8.63113 5.67065C8.46446 5.84065 8.35113 6.04731 8.29446 6.27065C8.5978 6.06731 8.9578 5.95731 9.33446 5.95731L9.33113 5.96065ZM12.4411 21.1673L6.01113 14.864C5.65113 14.5106 5.46446 14.0006 5.4978 13.464C5.5278 12.974 5.7378 12.5006 6.07446 12.1606L6.13113 12.104C6.2878 11.944 6.47113 11.8173 6.6678 11.724C6.22113 11.014 6.3078 10.064 6.92446 9.44065L6.98113 9.38398C7.16446 9.19731 7.38446 9.05065 7.6278 8.95065C7.4378 8.63731 7.34446 8.26065 7.37113 7.87065C7.40113 7.41065 7.5878 6.96731 7.89113 6.63398C7.71113 6.54731 7.5178 6.49731 7.31113 6.49731C6.95446 6.49731 6.6178 6.63731 6.36446 6.89065L6.3078 6.94731C6.06113 7.19398 5.9078 7.54398 5.88446 7.90731C5.86113 8.29731 5.98446 8.64731 6.2378 8.89398L6.7078 9.35398C6.61446 9.33398 6.5178 9.32398 6.41446 9.32398C6.01446 9.32398 5.61446 9.48731 5.34113 9.76398L5.28446 9.82065C5.03446 10.0706 4.90113 10.404 4.90113 10.7573C4.90113 11.1106 5.04446 11.4406 5.29446 11.6873L5.74113 12.124C5.64113 12.1006 5.54113 12.0873 5.43446 12.0873C5.0778 12.0873 4.74113 12.2273 4.4878 12.4806L4.43113 12.5373C4.18446 12.784 4.03113 13.134 4.0078 13.4973C3.98446 13.8873 4.1078 14.2373 4.36113 14.484L10.7911 20.7873C11.8545 21.8273 13.0578 23.0073 14.8078 23.1606C14.8645 23.164 14.9211 23.164 14.9778 23.1673C13.9511 22.6506 13.1378 21.854 12.4345 21.1673H12.4411ZM19.8245 8.28398L19.6078 8.31398C18.8778 8.41065 18.3711 9.08065 18.4745 9.80731L18.9711 11.8973C18.9911 11.9873 18.9311 12.0773 18.8378 12.094C18.7811 12.104 18.7245 12.0873 18.6845 12.044L12.4811 5.87731C12.0711 5.47065 11.5011 5.37398 11.0945 5.78065L11.0378 5.83398C10.6311 6.23731 10.7411 6.79065 11.1511 7.19731L16.0511 12.0673C16.1378 12.154 16.2711 12.4273 16.0445 12.684C15.8245 12.884 15.5811 12.8273 15.4345 12.6806L10.0045 7.28398C9.59446 6.87731 9.05113 6.75398 8.64446 7.16065L8.5878 7.21398C8.1778 7.62065 8.2778 8.18731 8.68446 8.59398L14.1411 14.0173C14.3211 14.2206 14.3111 14.4873 14.1545 14.644C13.9978 14.8273 13.6611 14.7573 13.5211 14.624L8.9678 10.0973C8.55446 9.68731 8.07446 9.54065 7.66446 9.94731L7.6078 10.0006C7.20113 10.404 7.32113 10.9506 7.73113 11.3573L12.3211 15.9206C12.4511 16.0506 12.5011 16.304 12.3045 16.5173C12.0778 16.714 11.7945 16.6473 11.7078 16.564L8.02446 12.904C7.61446 12.4973 7.08113 12.324 6.67446 12.7273L6.6178 12.7806C6.2078 13.1873 6.28446 13.8173 6.69446 14.2206L13.0445 20.534C14.1345 21.6173 15.2445 22.694 16.8511 22.854C18.3945 22.9973 19.9178 22.464 21.0211 21.3906L21.4411 20.974C22.2145 20.1773 22.7411 19.174 22.9578 18.084C23.3211 16.3606 22.4045 14.804 22.0611 13.124C21.8245 11.9706 21.5378 10.5806 21.3245 9.42731C21.2278 8.70065 20.5611 8.18731 19.8311 8.27731C19.8278 8.27731 19.8211 8.27731 19.8178 8.27731L19.8245 8.28398Z" fill="black"/>
</g>
<defs>
<clipPath id="clip0_15805_63662">
<rect width="24" height="24" fill="white"/>
</clipPath>
</defs>
</svg>
