<svg width="24" height="24" viewBox="0 0 24 24" fill="none" xmlns="http://www.w3.org/2000/svg">
<path d="M14.25 3.5C11.7467 3.5 9.58333 4.86 8.41667 6.86C7.91333 6.61 7.35333 6.45667 6.75 6.45667C4.68 6.45667 3 8.11 3 10.1533C3 10.3233 3.03 10.48 3.05 10.6433C1.25333 11.4633 0 13.2467 0 15.3267C0 18.1833 2.35 20.5 5.25 20.5H18.75C21.65 20.5 24 18.1833 24 15.3267C24 13.2467 22.7467 11.4633 20.95 10.6433C20.9633 10.4767 21 10.32 21 10.1533C21 6.48 17.9767 3.5 14.25 3.5ZM15.1267 12.98V14.28H10.85V9.72333H12.1433V12.98H15.1267Z" fill="black"/>
</svg>
