<svg width="24" height="24" viewBox="0 0 24 24" fill="none" xmlns="http://www.w3.org/2000/svg">
<g clip-path="url(#clip0_15805_63666)">
<path d="M18.75 20.4949H5.25C2.35667 20.5016 0.00666667 18.1916 0 15.3416C0 14.3349 0.293333 13.3516 0.853333 12.5083C1.39667 11.6949 2.15667 11.0482 3.05333 10.6382C3.05 10.6116 3.04667 10.5849 3.04333 10.5583C3.02 10.4216 3.00667 10.2849 3.00333 10.1482C3.00333 8.10825 4.68333 6.45492 6.75333 6.45158C7.33333 6.45492 7.90667 6.59158 8.42333 6.85492C9.00333 5.85492 9.83667 5.02158 10.8367 4.42825C13.48 2.87825 16.8567 3.29825 19.0267 5.44825C20.2967 6.69492 21.0067 8.38825 21 10.1516C21 10.2482 20.99 10.3482 20.9733 10.4449C20.9633 10.5116 20.9567 10.5749 20.95 10.6416C21.8467 11.0516 22.6067 11.6982 23.15 12.5116C24.73 14.9049 24.0433 18.1082 21.6133 19.6649C20.76 20.2116 19.7667 20.5016 18.75 20.5016V20.4949ZM8.09 12.3982L6.69333 13.7749L10.46 17.4916L17.3 10.7516L15.9033 9.37492L10.4567 14.7416L8.08333 12.4016L8.09 12.3982Z" fill="black"/>
</g>
<defs>
<clipPath id="clip0_15805_63666">
<rect width="23.9996" height="24" fill="white"/>
</clipPath>
</defs>
</svg>
