<svg width="24" height="24" viewBox="0 0 24 24" fill="none" xmlns="http://www.w3.org/2000/svg">
<path d="M20.95 10.6433C20.9633 10.4767 21 10.32 21 10.1533C21 6.48 17.9767 3.5 14.25 3.5C11.7467 3.5 9.58333 4.86 8.41667 6.86C7.91333 6.61333 7.35333 6.45667 6.75 6.45667C4.68 6.45667 3 8.11 3 10.1533C3 10.3233 3.03 10.48 3.05 10.6433C1.25333 11.4633 0 13.2467 0 15.3267C0 18.1833 2.35 20.5 5.25 20.5H18.75C21.65 20.5 24 18.1833 24 15.3267C24 13.2467 22.7467 11.4633 20.95 10.6433ZM13.7133 15.7567L11.9967 14.08L10.28 15.7867L9.18333 14.6733L10.8767 12.9867L9.15 11.3L10.2667 10.2067L11.9833 11.8833L13.7 10.1767L14.8067 11.28L13.1 12.9767L14.84 14.6733L13.71 15.7533L13.7133 15.7567Z" fill="black"/>
</svg>
