<svg width="24" height="24" viewBox="0 0 24 24" fill="none" xmlns="http://www.w3.org/2000/svg">
<g clip-path="url(#clip0_15805_63672)">
<path d="M18.75 20.4949H5.25C2.35667 20.5016 0.00666667 18.1916 0 15.3416C0 14.3349 0.293333 13.3516 0.853333 12.5083C1.39667 11.6949 2.15667 11.0482 3.05333 10.6382C3.05 10.6116 3.04667 10.5849 3.04333 10.5583C3.02 10.4216 3.00667 10.2849 3.00333 10.1482C3.00333 8.10825 4.68333 6.45492 6.75333 6.45158C7.33333 6.45492 7.90667 6.59158 8.42333 6.85492C9.00333 5.85492 9.83667 5.02158 10.8367 4.42825C13.48 2.87825 16.8567 3.29825 19.0267 5.44825C20.2967 6.69492 21.0067 8.38825 21 10.1516C21 10.2482 20.99 10.3482 20.9733 10.4449C20.9633 10.5116 20.9567 10.5749 20.95 10.6416C21.8467 11.0516 22.6067 11.6982 23.15 12.5116C24.73 14.9049 24.0433 18.1082 21.6133 19.6649C20.76 20.2116 19.7667 20.5016 18.75 20.5016V20.4949ZM7.79333 13.7816C7.98667 16.2416 10.1667 18.0816 12.66 17.8916C14.07 17.7849 15.3467 17.0349 16.1167 15.8649L15.09 15.2649C14.0633 16.7749 11.99 17.1816 10.4567 16.1716C9.64333 15.6349 9.11 14.7782 8.99667 13.8216L9.41333 14.2349C9.64667 14.4649 10.0233 14.4649 10.2567 14.2349C10.49 14.0049 10.49 13.6349 10.2567 13.4049L8.37333 11.5449L6.50333 13.3849C6.27333 13.6149 6.27333 13.9849 6.50333 14.2182C6.73667 14.4482 7.11333 14.4482 7.34667 14.2182L7.78667 13.7849L7.79333 13.7816ZM14.83 12.2116C14.5 12.2116 14.2333 12.4749 14.2333 12.7982C14.2333 12.9549 14.2967 13.1049 14.4067 13.2149L16.29 15.0749L18.16 13.2316C18.39 12.9982 18.3833 12.6249 18.1467 12.3982C17.9167 12.1782 17.5467 12.1782 17.3167 12.3982L16.8767 12.8316C16.6833 10.3716 14.5067 8.53158 12.01 8.72158C10.6 8.82825 9.32 9.57825 8.55333 10.7482L9.58 11.3483C10.6067 9.83825 12.68 9.43158 14.2133 10.4416C15.0267 10.9782 15.56 11.8383 15.6733 12.7949L15.2567 12.3816C15.1467 12.2716 14.9933 12.2082 14.8333 12.2082L14.83 12.2116Z" fill="black"/>
</g>
<defs>
<clipPath id="clip0_15805_63672">
<rect width="23.9996" height="24" fill="white"/>
</clipPath>
</defs>
</svg>
