<svg width="24" height="24" viewBox="0 0 24 24" fill="none" xmlns="http://www.w3.org/2000/svg">
<path d="M12.7433 12.2133L10.9167 10.3833L4.71 4.16333L6.53667 2.33333L9.67667 5.48333C12.46 3.19333 16.5667 3.6 18.8533 6.39C19.8133 7.56 20.3367 9.02999 20.3333 10.5433C20.3333 10.64 20.3233 10.7367 20.3067 10.8333C20.2967 10.8967 20.29 10.9633 20.2833 11.0267C21.15 11.43 21.89 12.0667 22.4133 12.8667C23.4867 14.5167 23.5133 16.64 22.48 18.3133L24 19.8367L22.1733 21.6667L12.7433 12.2133ZM5.08667 20.73C2.28 20.7367 0.00333333 18.4633 0 15.6533C0 14.6633 0.283333 13.6933 0.823333 12.8667C1.34667 12.0667 2.08667 11.4267 2.95333 11.0267C2.95 11 2.94667 10.9733 2.94333 10.95C2.92 10.8167 2.90667 10.68 2.90333 10.5433C2.90333 8.96666 3.91667 7.56666 5.41667 7.07999L11.46 13.14L14.11 15.7967L18.97 20.6667C18.7 20.71 18.4267 20.73 18.1533 20.73H5.08333H5.08667Z" fill="black"/>
</svg>
