<?xml version="1.0" encoding="UTF-8"?>
<svg width="24px" height="24px" viewBox="0 0 24 24" version="1.1" xmlns="http://www.w3.org/2000/svg" xmlns:xlink="http://www.w3.org/1999/xlink">
    <title>Icon/Fill/cogs-fill</title>
    <g id="Icon/Fill/cogs-fill" stroke="none" stroke-width="1" fill="none" fill-rule="evenodd">
        <g id="Group" transform="translate(0.000000, 1.000000)" fill="#474747" fill-rule="nonzero">
            <path d="M13.9333333,16.3766667 L15.6933333,15.5 L14.84,11.6366667 L12.88,11.5933333 C12.5998731,11.2087967 12.2754142,10.8586049 11.9133333,10.55 L12.04,8.59 L8.26333333,7.39666667 L7.22333333,9.06333333 C6.98681517,9.08522299 6.75190731,9.12196214 6.52,9.17333333 C6.28761168,9.22463092 6.05834825,9.28918081 5.83333333,9.36666667 L4.18666667,8.29 L1.26333333,10.9566667 L2.2,12.68 C2.00364458,13.1119552 1.85714423,13.5648761 1.76333333,14.03 L0,14.87 L0.853333333,18.7466667 L2.81666667,18.8033333 C3.09761193,19.1831952 3.42204004,19.528879 3.78333333,19.8333333 L3.66666667,21.8066667 L7.44,23 L8.47333333,21.3333333 C8.70963229,21.3113192 8.9444661,21.2757046 9.17666667,21.2266667 C9.40253329,21.1741654 9.62513566,21.1084977 9.84333333,21.03 L11.4866667,22.1133333 L14.4366667,19.4466667 L13.48,17.7366667 C13.6834979,17.3025104 13.8356379,16.8460904 13.9333333,16.3766667 Z M8.38,17.61 C8.20389586,17.6498765 8.02389581,17.6700092 7.84333333,17.6700092 C6.52068245,17.6735572 5.4260518,16.6424039 5.35068254,15.3218974 C5.27531328,14.0013908 6.24550914,12.8523855 7.55997522,12.7054265 C8.87444131,12.5584676 10.0744313,13.4648435 10.2925464,14.7693909 C10.5106614,16.0739382 9.67077967,17.3213724 8.38,17.61 L8.38,17.61 Z" id="Shape"></path>
            <path d="M22.7633333,5.19666667 C22.7466667,5.04333333 22.7233333,4.90666667 22.6966667,4.77333333 C22.6648729,4.63474654 22.625932,4.49789705 22.58,4.36333333 L23.3866667,3.16666667 L21.2833333,0.866666667 L20,1.55666667 C19.7360865,1.44494931 19.4627964,1.35682721 19.1833333,1.29333333 L18.5666667,0 L15.5033333,0.666666667 L15.4633333,2.10666667 C15.2360756,2.27914096 15.025185,2.47217838 14.8333333,2.68333333 L13.3833333,2.59333333 L12.4333333,5.57666667 L13.6666667,6.30666667 C13.6666667,6.46 13.7066667,6.59666667 13.7333333,6.73 C13.7646862,6.86869963 13.8036338,7.00557245 13.85,7.14 L13.04,8.33666667 L15.1433333,10.63 L16.4233333,9.96333333 C16.6867824,10.0754653 16.9602138,10.1625169 17.24,10.2233333 L17.8966667,11.5 L20.9433333,10.8333333 L20.9766667,9.39666667 C21.2039739,9.22919137 21.4149151,9.04057204 21.6066667,8.83333333 L23.0566667,8.93 L24,5.95 L22.7633333,5.19666667 Z M18.64,7.65 C18.5011861,7.68197897 18.3591131,7.69764056 18.2166667,7.69666667 C17.8446032,7.69653062 17.4803175,7.59013606 17.1666667,7.39 C16.5034321,6.96631512 16.1612198,6.18443957 16.2999483,5.4097504 C16.4386768,4.63506122 17.0309525,4.02053038 17.8,3.85333333 C18.8534366,3.62149232 19.8962196,4.28440436 20.1333333,5.33666667 L20.1333333,5.33666667 C20.242162,5.84146974 20.1459556,6.36882951 19.8658869,6.8026859 C19.5858183,7.23654228 19.1448394,7.54134004 18.64,7.65 L18.64,7.65 Z" id="Shape"></path>
        </g>
    </g>
</svg>