<svg width="24" height="24" viewBox="0 0 24 24" fill="none" xmlns="http://www.w3.org/2000/svg">
<g id="Fill=true">
<g id="Vector">
<path d="M12.0033 12.8167L0.663337 20.1567C-0.216664 21.0333 -0.216664 22.46 0.663337 23.34C1.10334 23.78 1.68 24 2.25334 24C2.82667 24 3.21667 23.7833 3.84334 23.34L12.0033 17.8467L20.1634 23.34C21.1867 24 22.4667 24.2167 23.3467 23.34C24.2267 22.46 24.2267 21.0367 23.3467 20.1567L12.0067 12.8167H12.0033Z" fill="#474747"/>
<path d="M12.0033 11.1833L23.3433 3.84334C24.2233 2.96667 24.2233 1.54 23.3433 0.66C22.9033 0.22 22.3267 0 21.7533 0C21.18 0 20.79 0.216667 20.1633 0.66L12.0033 6.15334L3.84334 0.66C2.82 -1.78814e-07 1.54 -0.216667 0.66 0.66C-0.22 1.54 -0.22 2.96334 0.66 3.84334L12 11.1833H12.0033Z" fill="#474747"/>
</g>
</g>
</svg>
