<svg width="24" height="24" viewBox="0 0 24 24" fill="none" xmlns="http://www.w3.org/2000/svg">
<g clip-path="url(#clip0_15805_63674)">
<path d="M13.4985 0H10.4985C4.69854 0 -0.00146484 4.75 -0.00146484 10.6067C-0.00146484 13.4533 1.1152 16.0333 2.92187 17.94H2.90854V24L7.75854 20.8367C8.6352 21.0767 9.55187 21.2133 10.5019 21.2133H13.5019C19.3019 21.2133 24.0019 16.4633 24.0019 10.6067C24.0019 4.75 19.2985 0 13.4985 0ZM19.5085 11.72C19.5085 12.0933 19.3685 12.4433 19.1119 12.71C18.8552 12.9767 18.5085 13.12 18.1419 13.1233C17.7719 13.1233 17.4285 12.9833 17.1685 12.72C16.9085 12.46 16.7619 12.11 16.7619 11.7367L16.7419 9.97667L13.8885 13.3L10.1752 12.7267L6.6052 16.89L4.5652 14.78L8.82854 10.0867L12.7819 10.4767L14.5119 8.24333L12.6085 8.26C12.2385 8.26 11.8952 8.12 11.6352 7.85667C11.3752 7.59333 11.2285 7.24667 11.2252 6.87333C11.2252 6.5 11.3652 6.15 11.6219 5.88667C11.8819 5.62333 12.2252 5.47333 12.5919 5.47333L19.4685 5.42667L19.5152 11.7233L19.5085 11.72Z" fill="black"/>
</g>
<defs>
<clipPath id="clip0_15805_63674">
<rect width="24" height="24" fill="white"/>
</clipPath>
</defs>
</svg>
