<?xml version="1.0" encoding="UTF-8"?>
<svg width="24px" height="24px" viewBox="0 0 24 24" version="1.1" xmlns="http://www.w3.org/2000/svg" xmlns:xlink="http://www.w3.org/1999/xlink">
    <title>Icon/Fill/community-fill</title>
    <g id="Icon/Fill/community-fill" stroke="none" stroke-width="1" fill="none" fill-rule="evenodd">
        <g id="Group" transform="translate(-0.000000, -0.000000)" fill="#474747" fill-rule="nonzero">
            <g id="community-fill" transform="translate(0.000000, 0.000000)">
                <path d="M11.9967579,7.5 C9.92893736,7.49648792 8.25351213,5.82106271 8.25000001,3.75324219 C8.24871175,2.23595135 9.16188355,0.867405355 10.5634311,0.286167388 C11.9649786,-0.295070583 13.5786699,0.025556108 14.6515569,1.09844313 C15.7244439,2.17133016 16.0450706,3.7850214 15.4638327,5.18656896 C14.8825947,6.58811652 13.5140487,7.5012883 11.9967579,7.5 Z M3.75,9.67666668 C2.09384306,9.67498443 0.751682237,8.33282365 0.750000002,6.67666668 C0.750000002,5.01981243 2.09314576,3.67666668 3.75,3.67666668 C5.40685427,3.67666668 6.75,5.01981243 6.75,6.67666668 C6.75,8.33352093 5.40685427,9.67666668 3.75,9.67666668 Z M20.2499576,9.67657127 C18.5943187,9.67657127 17.2516859,8.33530443 17.2500001,6.67966645 C17.248767,5.46602055 17.9788995,4.37119146 19.0998079,3.90589354 C20.2207164,3.44059563 21.5115511,3.69650529 22.3701655,4.55424613 C23.2287798,5.41198697 23.4860031,6.70256063 23.0218463,7.82394205 C22.5576895,8.94532353 21.4636041,9.67657127 20.2499576,9.67657127 Z M4.5,12.7509039 L4.5,24.0000001 L0,24.0000001 L0,13.9205658 L0.398421415,13.7069754 C1.63242348,13.0576596 2.98651617,12.7304421 4.35483872,12.7509039 L4.5,12.7509039 Z M18,24.0000001 L18,23.9966955 L6.00000002,23.9966955 L6.00000002,13.1445281 L6.00000002,11.8623597 L6.45052389,11.6475634 C8.16618198,10.8728247 10.0467111,10.4805503 11.9476135,10.500882 C13.8833439,10.478373 15.7975269,10.8870272 17.5355065,11.6938272 L17.9790454,11.9086235 L17.9790454,13.1478327 L18,13.1478327 L18,24.0000001 Z M23.601305,13.7095385 L24.0000001,13.9297097 L24.0000001,24.0000001 L19.5000001,24.0000001 L19.5000001,12.7509471 L19.6421704,12.7509471 C21.0118261,12.7299573 22.3671914,13.0581203 23.601305,13.7095385 Z" id="Combined-Shape"></path>
            </g>
        </g>
    </g>
</svg>