<?xml version="1.0" encoding="UTF-8"?>
<svg width="24px" height="24px" viewBox="0 0 24 24" version="1.1" xmlns="http://www.w3.org/2000/svg" xmlns:xlink="http://www.w3.org/1999/xlink">
    <title>Icon/Fill/compass-fill</title>
    <g id="Icon/Fill/compass-fill" stroke="none" stroke-width="1" fill="none" fill-rule="evenodd">
        <g id="Group" transform="translate(0.011687, -0.000000)" fill="#474747" fill-rule="nonzero">
            <g id="compass">
                <path d="M8.57328016,9.72409157 C8.57137267,9.731245 8.56951598,9.73841955 8.56771046,9.74561531 L6.96102633,16.1489713 C6.93098944,16.2686818 6.93098944,16.3939586 6.96102633,16.5136691 C7.06173483,16.9150376 7.46874862,17.1587706 7.87011711,17.0580621 L14.2734732,15.451378 C14.2806689,15.4495725 14.2878434,15.4477158 14.2949964,15.4458083 L8.57327963,9.72409157 L8.57328016,9.72409157 Z M9.63497326,8.66239891 L15.35669,14.3841156 C15.3585971,14.3769622 15.3604538,14.3697876 15.3622592,14.3625919 L16.9689433,7.95923587 C16.9989802,7.83952537 16.9989802,7.71424862 16.9689433,7.59453812 C16.8682348,7.19316967 16.461221,6.9494366 16.0598526,7.05014509 L9.65649656,8.65682922 C9.6493008,8.65863466 9.64212624,8.66049142 9.63497326,8.66239891 Z M23.9314033,11.2843303 L20.979548,11.2843303 L20.979548,12.7857912 L23.9284903,12.7857912 C23.5427995,18.7869519 18.7067449,23.6251383 12.7142544,24 L12.7142544,21.0175305 L11.2157153,21.0175305 L11.2157153,24 C5.2154467,23.6246517 0.374618005,18.7743848 2.72952858e-16,12.7624174 L2.97374997,12.7624174 L2.97374997,11.2609565 L2.72952858e-16,11.2609565 C0.390092524,5.00065003 5.62299211,-1.94966327e-16 11.9649849,-1.94966327e-16 C18.3148685,-1.94966327e-16 23.5528974,5.01310178 23.9314033,11.2843303 Z M11.2157153,0.023373797 L11.2157153,3.09989849 L12.7142544,3.09989849 L12.7142544,0.023373797 L11.2157153,0.023373797 Z" id="Combined-Shape"></path>
            </g>
        </g>
    </g>
</svg>