<?xml version="1.0" encoding="UTF-8"?>
<svg width="24px" height="24px" viewBox="0 0 24 24" version="1.1" xmlns="http://www.w3.org/2000/svg" xmlns:xlink="http://www.w3.org/1999/xlink">
    <title>Icon/Fill/configuration-fill</title>
    <g id="Icon/Fill/configuration-fill" stroke="none" stroke-width="1" fill="none" fill-rule="evenodd">
        <g id="Group" fill="#474747" fill-rule="nonzero">
            <path d="M15.2599167,16.4366645 C15.2500146,18.9778453 13.9864234,21.3503533 11.8832504,22.7766637 C10.6077625,23.5769055 9.1323252,24.0009349 7.62658432,23.9999985 C3.41787027,23.9981096 0.0054969929,20.5886511 6.60144931e-06,16.3799402 C-0.0054705552,12.1712293 3.39800639,8.75289003 7.60670123,8.73999887 C11.8153961,8.72718043 15.2396909,12.1246654 15.2599167,16.3333312 L15.2599167,16.4366645 Z M6.80658442,0 L6.80658442,7.50333236 L7.35325102,7.50333236 C9.74077887,7.49536345 12.0336362,8.43639717 13.7271882,10.1193215 C15.4207402,11.8022458 16.376189,14.0891338 16.3832499,16.4766645 C16.3765992,16.5085436 16.3765992,16.5414521 16.3832499,16.5733312 C16.3898747,16.6498547 16.3898747,16.7268076 16.3832499,16.8033312 L16.3832499,16.9499978 L18.5032496,16.9499978 L23.8499156,10.6666653 L23.8832489,10.6266653 L23.8832489,0 L6.80658442,0 Z M22.0232491,10.7399986 L17.956583,15.0733314 L17.956583,10.7399986 L22.0232491,10.7399986 Z M11.3165838,18.2066643 L12.6065837,17.9166644 L12.6665837,14.9999981 L11.3799172,14.6666648 C11.2839843,14.4532598 11.1725762,14.2471548 11.0465839,14.0499982 L11.4465838,12.7899983 L8.88325082,11.2466652 L7.92658428,12.1966652 C7.68922733,12.1766594 7.45060798,12.1766594 7.21325104,12.1966652 L6.29991782,11.1966652 L3.70325149,12.6233317 L4.03658478,13.8833315 C3.97325146,13.9933315 3.88991813,14.0799982 3.82658481,14.1899982 C3.76325148,14.2999982 3.72325149,14.3866648 3.6632515,14.4933315 L2.366585,14.7833314 L2.306585,17.713331 L3.61658483,18.0666643 C3.71513199,18.2787671 3.82644728,18.4847004 3.94991813,18.6833309 L3.56991817,19.9633308 L6.09991785,21.4733306 L7.05325106,20.526664 C7.29045637,20.5499975 7.52937899,20.5499975 7.7665843,20.526664 L8.67991751,21.5266639 L11.2699172,20.1099974 L10.9365839,18.8199976 C10.9965839,18.7099976 11.0832505,18.6233309 11.1465839,18.5133309 C11.2099172,18.403331 11.2532505,18.333331 11.3165838,18.2066643 Z M9.0132508,17.2499978 C8.49973358,18.0783565 7.41709511,18.3423423 6.57991779,17.843331 C6.47417613,17.7801659 6.37675285,17.7040189 6.28991782,17.6166644 C6.04658381,17.3865775 5.87423355,17.0916157 5.79325122,16.7666645 C5.68140328,16.3151396 5.74702202,15.8379124 5.97658453,15.4333313 C6.23486453,15.0385184 6.63035052,14.7534834 7.08658439,14.6333314 C7.54000977,14.5135467 8.02280679,14.5871733 8.41991755,14.8366647 C9.2457134,15.3425213 9.51034783,16.4188996 9.0132508,17.2499978 Z" id="Shape"></path>
        </g>
    </g>
</svg>