<svg width="24" height="24" viewBox="0 0 24 24" fill="none" xmlns="http://www.w3.org/2000/svg">
<g clip-path="url(#clip0_15805_63678)">
<path d="M18.6294 23.8333C18.4028 23.8333 18.1628 23.8067 17.9128 23.7433C16.6894 23.4433 16.2428 22.5733 15.9128 21.9367C15.6028 21.34 15.4694 21.1367 15.0594 21.0467C13.9828 20.8033 12.8294 22.1533 12.8194 22.1667C12.5161 22.54 11.9628 22.5967 11.5894 22.29C11.2161 21.9833 11.1594 21.4333 11.4661 21.06C11.5394 20.97 13.2894 18.86 15.4394 19.34C16.6794 19.6167 17.1328 20.4933 17.4661 21.1333C17.7528 21.6867 17.8994 21.9367 18.3294 22.0433C19.3194 22.2833 19.9061 21.24 19.9694 21.12C20.1928 20.6967 20.7194 20.53 21.1461 20.75C21.5728 20.97 21.7394 21.4933 21.5228 21.92C21.1561 22.64 20.1261 23.8267 18.6294 23.8267V23.8333ZM23.8094 11.66C23.5128 12.04 22.9628 12.1067 22.5828 11.8067C22.5828 11.8067 21.5861 11.1 19.3328 11.1C19.0561 11.1 18.7961 11.12 18.5528 11.15C19.5761 12.79 20.0061 14.3133 19.1994 15.1233C19.1894 15.1333 19.1794 15.14 19.1694 15.15C19.1694 15.15 19.1661 15.1533 19.1628 15.1567C19.0194 15.29 18.8328 15.4067 18.5861 15.4767L3.94609 23.0633C3.86943 23.1033 3.78943 23.1267 3.70276 23.1333C3.68276 23.1333 3.64276 23.1367 3.58276 23.1367C3.25609 23.1367 2.36943 23.05 1.53276 22.21C0.536094 21.2133 0.60276 20.1533 0.61276 20.0367C0.619427 19.9533 0.646094 19.87 0.68276 19.7933L8.25943 5.15667C8.31943 4.94 8.42609 4.74667 8.57609 4.58C8.58276 4.57334 8.58609 4.56667 8.59276 4.56334C8.59943 4.55667 8.60609 4.54667 8.61609 4.53667C9.72609 3.42667 12.1794 4.65334 14.4328 6.53667C14.5628 6.36 14.6528 6.18 14.6728 6C14.7161 5.58334 14.5728 5.35667 14.2728 4.92C13.9228 4.41334 13.4428 3.72334 13.6228 2.63C13.9394 0.693338 16.0328 0.173338 17.2194 0.166672C17.6994 0.166672 18.0928 0.556672 18.0928 1.03667C18.0928 1.52 17.7061 1.91 17.2228 1.91334C17.2094 1.91334 15.5028 1.96 15.3461 2.91C15.2828 3.29 15.4028 3.48334 15.7094 3.92334C16.0528 4.42 16.5228 5.09667 16.4128 6.17334C16.3528 6.75667 16.0828 7.27 15.7294 7.70667C15.7794 7.75667 15.8328 7.80667 15.8828 7.85667C16.4294 8.40667 16.9594 8.99 17.4394 9.58667C17.9894 9.44667 18.6228 9.35 19.3394 9.35C22.2128 9.35 23.5294 10.32 23.6694 10.43C24.0494 10.7267 24.1161 11.2767 23.8161 11.6567L23.8094 11.66ZM17.2094 11.49C16.5061 11.7667 16.1294 12.0867 16.1228 12.0933C15.9561 12.2433 15.7461 12.3167 15.5394 12.3167C15.2994 12.3167 15.0628 12.22 14.8894 12.0267C14.5661 11.6667 14.5961 11.1167 14.9561 10.7933C14.9894 10.7633 15.3928 10.41 16.1228 10.06C15.7761 9.65 15.3928 9.22667 14.9494 8.78334C14.8894 8.72334 14.8294 8.66334 14.7661 8.60334C14.0928 9.10334 13.4428 9.39667 13.3028 9.45667C13.1894 9.50334 13.0728 9.52667 12.9594 9.52667C12.6194 9.52667 12.2994 9.32667 12.1561 8.99667C11.9661 8.55334 12.1728 8.04 12.6128 7.85C12.8294 7.75667 13.1294 7.6 13.4328 7.40334C11.1294 5.51334 9.68609 5.31334 9.53943 5.46334C9.36276 5.64 9.68276 7.69667 12.8594 10.8767C14.1028 12.12 15.4161 13.1367 16.5561 13.7333C17.7361 14.3533 18.2228 14.2467 18.2694 14.2C18.4661 14.0033 18.1961 12.97 17.2094 11.4933V11.49ZM3.91943 9.00334C3.98943 8.84 4.59609 7.32 3.87276 4.53667C3.18276 1.88667 1.44943 0.713338 1.37609 0.666672C0.976094 0.403338 0.439427 0.513338 0.17276 0.910005C-0.0939063 1.30667 0.0127604 1.85001 0.406094 2.12001C0.456094 2.15667 1.66943 3.00334 2.18276 4.98C2.75276 7.16334 2.31943 8.30667 2.31943 8.30667C2.12609 8.75 2.32943 9.26334 2.77276 9.45667C2.88609 9.50667 3.00609 9.53 3.11943 9.53C3.45609 9.53 3.77609 9.33334 3.91943 9.00334ZM20.7428 3.96334C20.2461 3.96334 19.8461 4.36667 19.8461 4.86C19.8461 5.35334 20.2461 5.75667 20.7428 5.75667C21.2394 5.75667 21.6394 5.35334 21.6394 4.86C21.6394 4.36667 21.2394 3.96334 20.7428 3.96334ZM0.89276 11.6067C0.396094 11.6067 -0.00390625 12.01 -0.00390625 12.5033C-0.00390625 12.9967 0.396094 13.4 0.89276 13.4C1.38943 13.4 1.78943 12.9967 1.78943 12.5033C1.78943 12.01 1.38943 11.6067 0.89276 11.6067ZM22.0028 15.81L20.8161 16.9967L22.0028 18.1833L23.1894 16.9967L22.0028 15.81ZM6.76609 1.04L5.57943 2.22667L6.76609 3.41334L7.95276 2.22667L6.76609 1.04Z" fill="black"/>
</g>
<defs>
<clipPath id="clip0_15805_63678">
<rect width="24" height="24" fill="white"/>
</clipPath>
</defs>
</svg>
