<?xml version="1.0" encoding="UTF-8"?>
<svg width="24px" height="24px" viewBox="0 0 24 24" version="1.1" xmlns="http://www.w3.org/2000/svg" xmlns:xlink="http://www.w3.org/1999/xlink">
    <title>Icon/Fill/contacts-fill</title>
    <g id="Icon/Fill/contacts-fill" stroke="none" stroke-width="1" fill="none" fill-rule="evenodd">
        <g id="Group" fill="#474747" fill-rule="nonzero">
            <path d="M3,0 L22.5,0 C23.3269102,0.00365087079 23.9963491,0.673089837 24,1.5 L24,22.5 C23.9963491,23.3269102 23.3269102,23.9963491 22.5,24 L3,24 L3,20.73 L0,20.73 L0,19.23 L3,19.23 L3,12.71 L0,12.71 L0,11.1933333 L3,11.1933333 L3,4.75 L0,4.75 L0,3.25 L3,3.25 L3,0 Z M13.5,12.5 C15.2068307,12.5 16.7455958,11.47183 17.3987716,9.89492408 C18.0519474,8.31801816 17.6909022,6.50292093 16.4839906,5.29600938 C15.2770791,4.08909784 13.4619818,3.72805255 11.8850759,4.38122837 C10.30817,5.03440419 9.28,6.57316933 9.28,8.28 L9.28,8.28 C9.28183817,10.6098798 11.1701202,12.4981618 13.5,12.5 L13.5,12.5 Z M19.7966667,14.9033333 C16.09,13.2733333 10.91,13.2733333 7.2,14.9033333 C7.02963223,14.9807493 6.91926086,15.1495526 6.91666667,15.3366667 L6.91666667,19.46 C6.91848317,19.7206587 7.12934135,19.9315168 7.39,19.9333333 L19.6066667,19.9333333 C19.8673253,19.9315168 20.0781835,19.7206587 20.08,19.46 L20.08,15.3333333 C20.0786073,15.1466704 19.9676381,14.9782583 19.7966667,14.9033333 Z" id="Shape"></path>
        </g>
    </g>
</svg>