<svg width="24" height="24" viewBox="0 0 24 24" fill="none" xmlns="http://www.w3.org/2000/svg">
<g clip-path="url(#clip0_15805_63682)">
<path fill-rule="evenodd" clip-rule="evenodd" d="M0 0V22.5C0 23.33 0.67 24 1.5 24H22.5C23.33 24 24 23.33 24 22.5V0H0ZM9.2 22.3333H7.2V20.3333H9.2V22.3333ZM9.2 18.6H7.2V16.6H9.2V18.6ZM9.2 14.8667H7.2V12.8667H9.2V14.8667ZM9.2 11.1333H7.2V9.13333H9.2V11.1333ZM9.2 7.4H7.2V5.4H9.2V7.4ZM9.2 3.66667H7.2V1.66667H9.2V3.66667ZM16.7967 22.3333H14.7967V20.3333H16.7967V22.3333ZM16.7967 18.6H14.7967V16.6H16.7967V18.6ZM16.7967 14.8667H14.7967V12.8667H16.7967V14.8667ZM16.7967 11.1333H14.7967V9.13333H16.7967V11.1333ZM16.7967 7.4H14.7967V5.4H16.7967V7.4ZM16.7967 3.66667H14.7967V1.66667H16.7967V3.66667Z" fill="black"/>
</g>
<defs>
<clipPath id="clip0_15805_63682">
<rect width="24" height="24" fill="white"/>
</clipPath>
</defs>
</svg>
