<svg width="24" height="24" viewBox="0 0 24 24" fill="none" xmlns="http://www.w3.org/2000/svg">
<g clip-path="url(#clip0_15805_63684)">
<path d="M11.3167 0.00334025C5.00667 0.360007 0 5.59001 0 11.9933C0 18.3967 5.37333 24.0033 12 24.0033C18.6267 24.0033 23.92 18.7033 24 12.1367C23.9667 12.1233 23.9333 12.1067 23.9 12.0933C23.47 12.3067 22.9867 12.4267 22.4767 12.4267C20.7033 12.4267 19.2667 10.99 19.2667 9.21334C19.2667 8.78334 19.35 8.37667 19.5033 8.00001C19.34 8.02334 19.1733 8.03667 19 8.03667C17.1367 8.03667 15.6233 6.52334 15.6233 4.65667C15.6233 4.65667 15.6233 4.65334 15.6233 4.65001C13.2233 4.53667 11.31 2.55001 11.31 0.120007C11.31 0.0800069 11.31 0.0366736 11.31 -0.00332642L11.3167 0.00334025ZM17.5633 17.0033C17.5633 17.5567 17.1167 18.0033 16.5633 18.0033C16.01 18.0033 15.5633 17.5567 15.5633 17.0033C15.5633 16.45 16.01 16.0033 16.5633 16.0033C17.1167 16.0033 17.5633 16.45 17.5633 17.0033ZM15.14 12.0033C15.14 12.9233 14.3933 13.67 13.4733 13.67C12.5533 13.67 11.8067 12.9233 11.8067 12.0033C11.8067 11.0833 12.5533 10.3367 13.4733 10.3367C14.3933 10.3367 15.14 11.0833 15.14 12.0033ZM9.25 10.0033C9.25 10.5567 8.80333 11.0033 8.25 11.0033C7.69667 11.0033 7.25 10.5567 7.25 10.0033C7.25 9.45001 7.69667 9.00334 8.25 9.00334C8.80333 9.00334 9.25 9.45001 9.25 10.0033ZM9.25 16.0033C9.25 16.5567 8.80333 17.0033 8.25 17.0033C7.69667 17.0033 7.25 16.5567 7.25 16.0033C7.25 15.45 7.69667 15.0033 8.25 15.0033C8.80333 15.0033 9.25 15.45 9.25 16.0033ZM5.44667 13.67C5.44667 14.2233 5 14.67 4.44667 14.67C3.89333 14.67 3.44667 14.2233 3.44667 13.67C3.44667 13.1167 3.89333 12.67 4.44667 12.67C5 12.67 5.44667 13.1167 5.44667 13.67ZM10.9167 21.3367C10.9167 22.2567 10.17 23.0033 9.25 23.0033C8.33 23.0033 7.58333 22.2567 7.58333 21.3367C7.58333 20.4167 8.33 19.67 9.25 19.67C10.17 19.67 10.9167 20.4167 10.9167 21.3367ZM13 5.00334C13 5.55667 12.5533 6.00334 12 6.00334C11.4467 6.00334 11 5.55667 11 5.00334C11 4.45001 11.4467 4.00334 12 4.00334C12.5533 4.00334 13 4.45001 13 5.00334ZM6.44333 5.00334C6.44333 5.55667 5.99667 6.00334 5.44333 6.00334C4.89 6.00334 4.44333 5.55667 4.44333 5.00334C4.44333 4.45001 4.89 4.00334 5.44333 4.00334C5.99667 4.00334 6.44333 4.45001 6.44333 5.00334ZM22.8333 15.0033C22.8333 15.5567 22.3867 16.0033 21.8333 16.0033C21.28 16.0033 20.8333 15.5567 20.8333 15.0033C20.8333 14.45 21.28 14.0033 21.8333 14.0033C22.3867 14.0033 22.8333 14.45 22.8333 15.0033Z" fill="black"/>
</g>
<defs>
<clipPath id="clip0_15805_63684">
<rect width="24" height="24" fill="white"/>
</clipPath>
</defs>
</svg>
