<svg width="24" height="24" viewBox="0 0 24 24" fill="none" xmlns="http://www.w3.org/2000/svg">
<g id="Fill=True">
<g id="Vector">
<path fill-rule="evenodd" clip-rule="evenodd" d="M7.45455 0.304V4.8H12.364C12.4038 4.8 12.4436 4.8076 12.4809 4.8228C12.5182 4.838 12.5505 4.8608 12.5779 4.88867L17.3675 9.75267C17.3949 9.78053 17.4172 9.81347 17.4322 9.85147C17.4471 9.88947 17.4545 9.92747 17.4545 9.968V18.24H21.7016C21.8682 18.24 22 18.1032 22 17.936V5.168C22 5.12747 21.9925 5.08947 21.9776 5.05147C21.9627 5.01347 21.9403 4.98053 21.9129 4.95267L17.1233 0.0886669C17.0959 0.0608 17.0636 0.038 17.0263 0.0228C16.989 0.0076 16.9493 0 16.9094 0H7.75296C7.58635 0 7.45455 0.1368 7.45455 0.304ZM16.718 1.53773L20.488 5.36307H16.718V1.53773Z" fill="#474747"/>
<path fill-rule="evenodd" clip-rule="evenodd" d="M2 23.696V6.064C2 5.8968 2.1318 5.76 2.29842 5.76H11.4549C11.4947 5.76 11.5345 5.7676 11.5718 5.7828C11.6091 5.798 11.6414 5.8208 11.6688 5.84867L16.4584 10.7127C16.4858 10.7405 16.5082 10.7735 16.5231 10.8115C16.538 10.8495 16.5455 10.8875 16.5455 10.928V23.696C16.5455 23.8632 16.4136 24 16.247 24H2.29842C2.13429 24 2 23.8632 2 23.696ZM15.0334 11.1231L11.2634 7.29773V11.1231H15.0334Z" fill="#474747"/>
</g>
</g>
</svg>
