<?xml version="1.0" encoding="UTF-8"?>
<svg width="24px" height="24px" viewBox="0 0 24 24" version="1.1" xmlns="http://www.w3.org/2000/svg" xmlns:xlink="http://www.w3.org/1999/xlink">
    <title>Icon/Fill/cost-dollar-fill</title>
    <g id="Icon/Fill/cost-dollar-fill" stroke="none" stroke-width="1" fill="none" fill-rule="evenodd">
        <g id="Group" fill="#474747" fill-rule="nonzero">
            <g id="Fill-2">
                <path d="M12.666619,12.8500421 L12.666619,15.3333657 C13.0014293,15.290114 13.3170364,15.1525417 13.5766154,14.9367006 C13.8359244,14.721647 13.9831572,14.4001888 13.9766138,14.0633707 C13.9968086,13.7727503 13.8825438,13.4889315 13.666619,13.2933737 C13.3662435,13.0802818 13.0262184,12.9295374 12.666619,12.8500421 Z" id="Path"></path>
                <path d="M10.5866271,9.66672129 C10.573171,9.92005603 10.6763135,10.1656334 10.866626,10.3333853 C11.0844616,10.4934889 11.3329667,10.6069616 11.5966232,10.6667174 L11.5966232,8.6000588 C11.3495342,8.62459595 11.1163669,8.72602372 10.9299591,8.89005766 C10.7058199,9.08508653 10.5800105,9.36968449 10.5866271,9.66672129 Z" id="Path"></path>
                <path d="M11.9666217,4.60051184e-05 C5.33926838,0.0185273791 -0.0183233919,5.40599417 4.71016113e-05,12.0333476 C0.0185122838,18.6607009 5.4059653,24.0183066 12.0333187,23.999953 C18.6606722,23.981505 24.0182916,18.5940658 23.9999551,11.9667123 C23.9910797,8.78412307 22.718328,5.73539281 20.4616464,3.49121362 C18.2049649,1.24703443 15.1492109,-0.00876030837 11.9666217,4.60051184e-05 Z M15.4366081,15.3633656 C15.1578382,15.813153 14.7628386,16.1793626 14.2932793,16.4233615 C13.7893167,16.6870571 13.2345755,16.8393836 12.666619,16.8700264 L12.666619,18.000022 L11.5966232,18.000022 L11.5966232,16.8666931 C10.8121655,16.8202414 10.0673832,16.5060915 9.48663535,15.9766966 C8.87619017,15.3359275 8.52060926,14.494386 8.48663535,13.6100392 L10.3532947,13.6100392 L10.3532947,13.6667056 C10.339606,14.0728031 10.474742,14.4699132 10.7332932,14.7833679 C10.9589252,15.040699 11.2559404,15.2251733 11.5866232,15.3133658 L11.5866232,12.5500433 C11.0699586,12.4100439 10.7232933,12.3067109 10.5499606,12.2433779 C10.2906207,12.1425802 10.0398123,12.0210775 9.79996354,11.8800459 C9.48027082,11.6973955 9.21284139,11.4357049 9.02329992,11.1200489 C8.80236545,10.7391212 8.69373633,10.3034491 8.70996781,9.86338718 C8.69056051,9.12869546 8.98950314,8.42144094 9.5299646,7.92339478 C10.1028967,7.42031789 10.8258293,7.12036528 11.5866232,7.07006479 L11.5866232,6.00006899 L12.666619,6.00006899 L12.666619,7.06673147 C13.4058064,7.1287991 14.1061594,7.42411461 14.6666111,7.9100615 C15.1930202,8.4190054 15.4932221,9.11787547 15.4999412,9.8500539 L13.6332819,9.8500539 C13.6309819,9.51826661 13.5131103,9.19765582 13.2999498,8.94339079 C13.1367782,8.75492403 12.9079159,8.63572494 12.6599523,8.61005876 L12.6599523,10.9433829 C13.7666147,11.1967153 14.5732782,11.5500472 15.0666096,12.0033788 C15.6093843,12.5448283 15.89034,13.2952599 15.8366066,14.0600374 C15.8257282,14.5230079 15.6873162,14.9740001 15.4366081,15.3633656 Z" id="Shape"></path>
            </g>
        </g>
    </g>
</svg>