<?xml version="1.0" encoding="UTF-8"?>
<svg width="24px" height="24px" viewBox="0 0 24 24" version="1.1" xmlns="http://www.w3.org/2000/svg" xmlns:xlink="http://www.w3.org/1999/xlink">
    <title>Icon/Fill/credit-card-payment-fill</title>
    <g id="Icon/Fill/credit-card-payment-fill" stroke="none" stroke-width="1" fill="none" fill-rule="evenodd">
        <g id="Group" transform="translate(0.000000, 1.000000)" fill="#474747" fill-rule="nonzero">
            <path d="M23.0334437,18.805533 L13.247231,21.8864395 L13.1271957,21.8864395 L9.90624799,21.9597944 C9.09934391,21.9597944 8.29243984,21.9898033 7.68559462,21.9964719 L7.11542686,21.9964719 C6.77934782,22.0400179 6.43792785,21.9819532 6.13513844,21.8297562 C5.33490299,21.5563424 2.39403772,20.6727491 0.5801707,20.1292558 L0,19.9558715 L0,10.9532227 L7.21545629,12.887125 L8.23909081,13.6840262 L14.5542822,14.4542528 C15.0577637,14.5076018 15.6379344,14.7176636 15.6579403,15.2778284 L15.6346001,16.4915189 C15.5502077,16.8971526 15.1953003,17.1896739 14.7810156,17.1950592 L7.77895542,17.1950592 L7.77895542,18.5787997 L14.7810156,18.5787997 C15.8861537,18.5648845 16.822769,17.7616702 17.0050033,16.6715718 L17.0283435,15.6212628 C22.3632465,15.0844382 23.1734849,15.1077784 23.4669045,15.3711892 L23.5202536,15.421204 L23.5469281,15.4912246 C23.7272569,16.0362512 23.8687635,16.5933637 23.970386,17.1583817 C24.1155765,17.8647436 23.7147911,18.5693274 23.0334437,18.805533 L23.0334437,18.805533 Z M3.7644372,4.83475584 L21.4363108,4.83475584 L21.4363108,9.16936452 C21.437195,9.56757786 21.2793983,9.94973711 20.9978183,10.2313172 C20.7162382,10.5128972 20.334079,10.6706939 19.9358656,10.6698097 L5.26488239,10.6698097 C4.86666904,10.6706939 4.48450979,10.5128972 4.20292973,10.2313172 C3.92134968,9.94973711 3.76355304,9.56757786 3.7644372,9.16936452 L3.7644372,4.83475584 Z M17.8319061,7.97567997 C17.8305634,8.29425053 18.0214267,8.58220391 18.315361,8.70505207 C18.6092952,8.82790024 18.9482996,8.76140208 19.1740428,8.53661544 C19.399786,8.31182879 19.4677231,7.97310984 19.3461241,7.67865658 C19.2245252,7.38420332 18.9373849,7.19211609 18.6188114,7.19211609 C18.1855184,7.19211609 17.8337492,7.5423908 17.8319061,7.97567997 L17.8319061,7.97567997 Z M15.2111351,7.97567997 C15.2093181,8.40982943 15.5594578,8.76342798 15.9936042,8.76588443 C16.4277506,8.76831541 16.7818486,8.41868085 16.784912,7.98453836 C16.7879754,7.55039588 16.4388466,7.19579919 16.004709,7.19211609 C15.7954342,7.19034067 15.5940731,7.27200373 15.4451526,7.41904709 C15.2962321,7.56609045 15.2120214,7.76639955 15.2111351,7.97567997 L15.2111351,7.97567997 Z M3.76444092,0 L3.76444092,2.6907917 L21.4363071,2.6907917 L21.4363071,0.0466804012 L3.76444092,0 Z" id="Shape"></path>
        </g>
    </g>
</svg>