<svg width="24" height="24" viewBox="0 0 24 24" fill="none" xmlns="http://www.w3.org/2000/svg">
<path d="M16.7334 19.5233C12.6034 21.7667 7.46675 20.41 4.95008 16.53L4.60342 17.71C4.42008 18.3333 3.76342 18.69 3.14008 18.5067C2.51675 18.32 2.16008 17.6633 2.34342 17.0433L3.82008 12.04L8.86342 13.5433C9.48342 13.73 9.84008 14.3833 9.66008 15.0067C9.57008 15.31 9.37008 15.56 9.09342 15.71C8.81675 15.86 8.49675 15.8933 8.19675 15.8033L7.07675 15.4667C8.97675 18.16 12.6468 19.0667 15.6101 17.4567M9.13008 5.38667C12.0934 3.77667 15.7634 4.68333 17.6634 7.37667L16.5434 7.04C16.2401 6.95 15.9234 6.98333 15.6468 7.13333C15.3701 7.28333 15.1701 7.53333 15.0801 7.83667C14.8968 8.46 15.2534 9.11333 15.8768 9.3L20.9201 10.8033L22.3968 5.8C22.5801 5.17667 22.2234 4.52333 21.6001 4.33667C21.2968 4.24667 20.9801 4.28 20.7034 4.43C20.4268 4.58 20.2268 4.83 20.1368 5.13L19.7901 6.31C17.2734 2.42667 12.1368 1.07 8.00675 3.31667M4.35342 8.82667C3.58342 8.82667 3.09342 8.66333 2.85342 7.64H4.72675L5.18008 6.59H2.73675L2.74342 5.7H5.21008L5.66342 4.65H2.91008C3.16675 3.78667 3.62675 3.7 4.31342 3.7C4.73342 3.7 5.20675 3.86333 5.71342 4.18333L5.83008 4.25667L6.62675 2.62667L6.52008 2.57333C5.77675 2.19333 5.07342 2 4.43008 2C3.54675 2 2.79008 2.28 2.18342 2.83C1.60342 3.36 1.20675 3.75 1.01008 4.65H0.460085L0.0067513 5.7H0.880085V6.59H0.473418L0.00341797 7.64333H0.946751C1.12342 8.64333 1.50008 9.09667 2.06675 9.64333C2.65675 10.2167 3.42008 10.5067 4.32675 10.5067C5.01008 10.5067 5.61342 10.35 6.12342 10.04L6.18342 10.0033L6.19675 7.99L5.99675 8.14667C5.42675 8.59667 4.87008 8.82333 4.35008 8.82333L4.35342 8.82667ZM23.9968 18.5233C23.9968 18.9167 23.8767 19.3133 23.6434 19.7C23.4101 20.0867 23.0668 20.4033 22.6234 20.6433C22.2134 20.8667 21.7368 21 21.2001 21.0433V22H20.2934V21.04C19.5068 20.97 18.8668 20.7033 18.3901 20.2433C17.8901 19.7633 17.5934 19.06 17.5101 18.1533L17.4968 18.02H19.3434V18.1767C19.3434 18.5267 19.4434 18.8167 19.6368 19.0467C19.8034 19.2433 20.0234 19.3833 20.2934 19.46V17.3767C19.8134 17.2467 19.5034 17.1533 19.3468 17.0967C19.1768 17.0333 18.9568 16.93 18.6901 16.78C18.4134 16.6267 18.1734 16.3933 17.9868 16.09C17.7968 15.7867 17.7001 15.4033 17.7001 14.9567C17.7001 14.26 17.9468 13.6767 18.4368 13.22C18.9001 12.7867 19.5234 12.53 20.2934 12.4533V11.5833H21.2001V12.4567C21.9401 12.5533 22.5334 12.8033 22.9667 13.2067C23.4234 13.6333 23.6767 14.2167 23.7167 14.94L23.7234 15.07H21.8868L21.8801 14.9533C21.8668 14.6667 21.7801 14.44 21.6201 14.26C21.4967 14.12 21.3568 14.0367 21.1968 14.01V15.7567C22.1568 15.9767 22.8634 16.29 23.2968 16.6867C23.7568 17.1067 23.9901 17.7267 23.9901 18.5267L23.9968 18.5233ZM21.9434 17.97C21.8034 17.85 21.5534 17.74 21.2034 17.6367V19.48C21.4668 19.4333 21.6901 19.33 21.8668 19.1767C22.0668 19.0033 22.1634 18.79 22.1634 18.5267C22.1634 18.28 22.0901 18.0967 21.9434 17.9733V17.97ZM20.2968 15.5367V14.0033C20.0968 14.0233 19.9301 14.0967 19.7868 14.2233C19.6201 14.37 19.5368 14.56 19.5368 14.8C19.5368 15.0033 19.6001 15.1567 19.7334 15.27C19.8534 15.3733 20.0434 15.4633 20.2968 15.5333V15.5367Z" fill="black"/>
</svg>
