<svg width="24" height="24" viewBox="0 0 24 24" fill="none" xmlns="http://www.w3.org/2000/svg">
  <path fill-rule="evenodd" clip-rule="evenodd"
    d="M19.9378 10.4671C21.0808 10.4671 22.0139 10.1105 22.717 9.40404C23.4101 8.70757 23.8234 7.70118 23.95 6.41488L23.99 6.01499H22.1272L22.1072 6.35822C22.0672 7.06136 21.8539 7.63787 21.4773 8.07441C21.1141 8.49429 20.6409 8.69757 20.0377 8.69757C19.2613 8.69757 18.6681 8.40765 18.2249 7.80782C17.7617 7.18466 17.5284 6.29824 17.5284 5.16856C17.5284 4.10219 17.7684 3.25576 18.2416 2.64593C18.6948 2.06609 19.2946 1.76951 20.0244 1.76951C20.5576 1.76951 21.0041 1.9128 21.3507 2.19605C21.6939 2.47598 21.9239 2.89919 22.0339 3.4557L22.0938 3.74895H23.9267L23.87 3.33574C23.7334 2.31935 23.3102 1.50291 22.6204 0.903081C21.9306 0.303248 21.0608 0 20.0377 0C18.7015 0.00999721 17.6251 0.516522 16.8386 1.50291C16.0722 2.46931 15.6856 3.73229 15.6856 5.25853C15.6856 6.78477 16.0655 8.09774 16.8186 9.02748C17.5884 9.98055 18.6415 10.4637 19.9478 10.4637L19.9378 10.4671ZM14.6392 4.88599C14.8192 4.72937 14.9725 4.54608 15.0991 4.33614C15.349 3.91959 15.4757 3.42307 15.4757 2.85989C15.4657 2.20007 15.2491 1.59358 14.8292 1.06372C14.3893 0.507213 13.5829 0.223958 12.4332 0.223958H8.46762V9.17479L5.37849 0.467224L5.29184 0.223958H3.54233L0.159943 9.7613L-0.0100098 10.2478H1.91945L2.86585 7.44861H5.91167L6.83141 10.2478H12.953C13.7595 10.2478 14.4526 9.95458 15.0025 9.37474C15.5523 8.79823 15.8289 8.07177 15.8289 7.21534C15.8289 6.56885 15.6689 6.00901 15.349 5.54914C15.1591 5.27588 14.9192 5.05594 14.6359 4.88932L14.6392 4.88599ZM3.46235 5.67577L4.39876 2.83656L5.3185 5.67577H3.46235ZM13.9861 7.17202C13.9861 7.5919 13.8761 7.91848 13.6628 8.14175C13.4496 8.36502 13.1696 8.47165 12.8131 8.47165H10.3171V5.98568H12.4698C13.8061 5.98568 13.9861 6.58552 13.9861 7.16869V7.17202ZM10.3171 4.21618V1.99013H12.2699C12.8064 1.99013 13.1963 2.08344 13.3663 2.25672C13.5429 2.43334 13.6295 2.7166 13.6295 3.09649C13.6295 3.50304 13.5295 3.78963 13.3263 3.94625C13.0963 4.1262 12.7364 4.21618 12.2532 4.21618H10.3171ZM2.87913 13.8226L2.88579 13.7893H2.88246L2.93245 13.526H4.46535V23.8298H2.60254V16.9684H0.139893V15.3222H0.543113C1.26958 15.3222 1.82942 15.1956 2.20598 14.949C2.55588 14.719 2.78249 14.3391 2.87913 13.8226ZM11.9734 20.5807C13.203 19.8643 14.0228 19.2078 14.4193 18.6346C14.8259 18.0448 15.0325 17.375 15.0325 16.6452C15.0325 15.7354 14.7226 14.9756 14.1094 14.3958C13.5029 13.8193 12.6932 13.526 11.7001 13.526C10.6571 13.526 9.81396 13.8559 9.19746 14.5024C8.5843 15.1456 8.27439 15.9987 8.27439 17.0584L8.30771 17.6449H10.1505V17.185C10.1505 16.5985 10.2938 16.1187 10.5737 15.7654C10.8403 15.4322 11.1869 15.2689 11.6368 15.2689C12.0867 15.2689 12.4299 15.4055 12.7032 15.6721C12.9764 15.942 13.1097 16.2586 13.1097 16.6452C13.1097 17.1584 12.9464 17.5882 12.6265 17.9248C12.2633 18.308 11.6235 18.7779 10.727 19.3144C9.74065 19.9109 9.05417 20.5341 8.68094 21.1639C8.31104 21.7904 8.08777 22.5569 8.02113 23.4366L7.99447 23.8265H14.9459V22.0837H10.2138C10.3005 21.9104 10.4171 21.7471 10.5637 21.5971C10.857 21.2972 11.3335 20.954 11.98 20.5774L11.9734 20.5807ZM23.1501 17.7454C23.0168 17.9454 22.8502 18.1253 22.6536 18.2886H22.6569C22.9769 18.4586 23.2401 18.6885 23.4467 18.9751C23.78 19.4416 23.9499 20.0281 23.9499 20.7146C23.9499 21.6843 23.6067 22.4808 22.9302 23.0873C22.2671 23.6804 21.3973 23.987 20.3376 23.997C19.2712 23.997 18.4081 23.6904 17.775 23.0806C17.1352 22.4675 16.8086 21.6177 16.7986 20.558V20.1514H18.6614L18.6747 20.5013C18.6981 21.0778 18.858 21.5211 19.1513 21.8176C19.4412 22.1109 19.8377 22.2575 20.3343 22.2575C20.6842 22.2575 20.9907 22.1842 21.2473 22.0442C21.4973 21.9076 21.6939 21.7243 21.8238 21.5044C21.9538 21.2844 22.0205 21.0412 22.0205 20.7746C22.0205 20.3147 21.8805 19.9648 21.5939 19.7116C21.2973 19.4483 20.8741 19.3117 20.3309 19.3017C20.141 19.3183 19.9244 19.3317 19.6911 19.3417L19.3146 19.355V17.6121L19.7044 17.6421C19.8211 17.6521 19.9544 17.6555 20.1077 17.6555C20.5809 17.6555 20.9574 17.5388 21.234 17.3089C21.4973 17.089 21.6272 16.8057 21.6339 16.4458C21.6339 16.0859 21.5273 15.8093 21.3073 15.606C21.0807 15.3928 20.7442 15.2828 20.3009 15.2761C19.8511 15.2761 19.5112 15.4128 19.2679 15.696C19.0146 15.9926 18.8747 16.4325 18.8613 16.999L18.8513 17.3522H16.9785L16.9985 16.969C17.0552 15.8726 17.3751 15.0195 17.9449 14.4364C18.5214 13.8432 19.3145 13.5399 20.3009 13.5299C21.304 13.5299 22.0971 13.7932 22.6636 14.3064C23.2401 14.8296 23.5367 15.5494 23.5467 16.4425C23.5467 16.9157 23.4134 17.3522 23.1501 17.7454Z"
    fill="#474747" />
</svg>