<svg width="24" height="24" viewBox="0 0 24 24" fill="none" xmlns="http://www.w3.org/2000/svg">
  <path fill-rule="evenodd" clip-rule="evenodd"
    d="M2.83706 7.29499C2.73705 7.82173 2.50368 8.20512 2.1403 8.43848C1.75024 8.69185 1.17016 8.81853 0.416724 8.81853H0V10.5021H2.55369V17.4897H4.48395V6.98828H2.89707L2.83706 7.29166V7.29499ZM11.4149 14.1871C12.6885 13.457 13.5386 12.7902 13.9486 12.2068C14.372 11.6034 14.5854 10.92 14.5854 10.1765C14.5854 9.24641 14.262 8.47297 13.6286 7.87955C13.0018 7.2928 12.1617 6.99609 11.1316 6.99609C10.0514 6.99609 9.17797 7.32948 8.53788 7.98957C7.90112 8.64632 7.57775 9.51645 7.57775 10.5966L7.61108 11.1967H9.51801V10.7266C9.51801 10.1299 9.6647 9.64313 9.95474 9.28308C10.2281 8.94303 10.5882 8.77634 11.0582 8.77634C11.5283 8.77634 11.8817 8.91303 12.165 9.1864C12.4484 9.45977 12.5851 9.78315 12.5851 10.1765C12.5851 10.6966 12.4184 11.1367 12.085 11.4767C11.7083 11.8668 11.0449 12.3435 10.1148 12.8936C9.09462 13.5003 8.38119 14.1338 7.99447 14.7772C7.60775 15.4173 7.37772 16.1974 7.31104 17.0975L7.28104 17.5009H14.482V15.7206H9.58136C9.67137 15.5473 9.79139 15.3839 9.94141 15.2306C10.2448 14.9272 10.7382 14.5771 11.4083 14.1904L11.4149 14.1871ZM22.6665 11.8429C22.9932 12.0162 23.2666 12.2496 23.4799 12.5396H23.4766C23.8233 13.0197 24 13.6164 24 14.3165C24 15.3067 23.6433 16.1201 22.9432 16.7369C22.2564 17.3436 21.353 17.6537 20.2561 17.6637C19.1527 17.6637 18.2625 17.3503 17.6058 16.7302C16.9424 16.1035 16.6023 15.24 16.5923 14.1565V13.7365H18.5192L18.5326 14.0965C18.5559 14.6833 18.7226 15.1333 19.026 15.4334C19.326 15.7301 19.7394 15.8801 20.2528 15.8801C20.6162 15.8801 20.9329 15.8067 21.1996 15.6634C21.463 15.5234 21.663 15.34 21.7997 15.1133C21.933 14.8899 22.0031 14.6399 22.0031 14.3699C22.0031 13.8998 21.8597 13.5464 21.563 13.2897C21.2563 13.023 20.8162 12.883 20.2528 12.873C20.0528 12.8897 19.8294 12.903 19.5894 12.913L19.1993 12.9263V11.1428L19.6027 11.1728C19.7227 11.1828 19.8628 11.1861 20.0194 11.1861C20.5095 11.1861 20.9062 11.0694 21.1896 10.8327C21.4596 10.6094 21.5963 10.326 21.603 9.95927C21.603 9.59588 21.493 9.31584 21.2663 9.10915C21.0329 8.89578 20.6795 8.78244 20.2228 8.77577C19.7561 8.77577 19.4027 8.91579 19.1527 9.20249C18.8893 9.50587 18.7493 9.9526 18.7326 10.5293L18.7226 10.8927H16.7823L16.8023 10.4993C16.8623 9.38252 17.1957 8.5124 17.7858 7.91565C18.3826 7.31223 19.2027 7.00219 20.2261 6.99219C21.263 6.99219 22.0864 7.25889 22.6731 7.7823C23.2732 8.3157 23.5799 9.04914 23.5899 9.9626C23.5899 10.446 23.4499 10.8927 23.1765 11.2928C23.0365 11.4928 22.8665 11.6762 22.6665 11.8429Z"
    fill="#474747" />
</svg>