<svg width="24" height="24" viewBox="0 0 24 24" fill="none" xmlns="http://www.w3.org/2000/svg">
<path d="M19.5552 15.315C19.5552 15.2483 19.5652 15.185 19.5652 15.1183C19.5652 13.9783 19.2619 12.9083 18.7385 11.9783C19.1685 11.745 19.5552 11.4983 19.8752 11.2283L20.1685 10.9817V14.0117C20.1685 14.4517 19.9519 14.895 19.5519 15.315H19.5552ZM20.2219 15.9683L19.6519 16.425C19.5652 16.4983 19.4685 16.5683 19.3752 16.6383C19.2785 17.0317 19.1519 17.4183 18.9819 17.7883L20.2252 19.0317V15.9717L20.2219 15.9683ZM20.1719 6.58833V6.21833L19.8785 6.465C19.3919 6.87166 18.7752 7.23833 18.0452 7.555C16.7219 8.13166 15.0885 8.52166 13.3185 8.70166C15.2419 8.755 16.9552 9.64833 18.0985 11.0383C19.4219 10.3683 20.1719 9.53833 20.1719 8.715V6.59166V6.58833ZM4.5652 6.52833C6.31187 7.30833 8.6452 7.735 11.1319 7.735C13.6185 7.735 15.9519 7.305 17.6985 6.52833C19.3285 5.80166 20.2619 4.83166 20.2619 3.86833C20.2619 2.905 19.3285 1.935 17.6985 1.20833C15.9519 0.42833 13.6185 0.00166321 11.1319 0.00166321C8.6452 0.00166321 6.31187 0.431663 4.5652 1.20833C2.9352 1.935 2.00187 2.905 2.00187 3.86833C2.00187 4.83166 2.9352 5.80166 4.5652 6.52833ZM15.8052 20.9583C14.9685 21.3417 14.0585 21.5417 13.1419 21.5417C10.8152 21.5417 8.77854 20.295 7.65187 18.435C6.37854 18.225 5.20187 17.9017 4.20854 17.4683C3.5052 17.1617 2.91187 16.8083 2.4452 16.4183L2.00187 15.9617V19.2717C2.00187 20.3083 2.6352 21.1183 4.36854 21.8717C6.14854 22.6483 8.52187 23.075 11.0485 23.075C13.2485 23.075 15.3285 22.7517 17.0052 22.155L15.8019 20.9517L15.8052 20.9583ZM4.5252 16.5483C5.28854 16.8817 6.16854 17.145 7.12187 17.3383C6.8652 16.645 6.7152 15.8983 6.7152 15.115C6.7152 14.4417 6.81854 13.795 7.01187 13.1883C5.9552 12.9783 4.97854 12.6883 4.12854 12.3183C3.39854 12.0017 2.78187 11.6317 2.2952 11.2283L2.00187 10.9817V14.0117C2.00187 14.925 2.92187 15.8517 4.5252 16.5483ZM4.5252 11.2483C5.38187 11.6217 6.37854 11.9117 7.4652 12.1117C8.3752 10.3983 10.0419 9.145 12.0152 8.795C11.7085 8.80833 11.3985 8.815 11.0852 8.815C8.4652 8.815 5.99187 8.36833 4.1252 7.55166C3.3952 7.235 2.77854 6.865 2.29187 6.46166L1.99854 6.215V8.70833C1.99854 9.62166 2.91854 10.5483 4.52187 11.245L4.5252 11.2483ZM20.5719 23.9983L22.0019 22.5683L17.5119 18.075L17.6619 17.8217C18.1352 17.0217 18.3852 16.1117 18.3852 15.1883C18.3852 12.325 16.0585 9.995 13.1985 9.995C10.3385 9.995 8.01187 12.325 8.01187 15.1883C8.01187 18.0517 10.3385 20.3817 13.1985 20.3817C14.1185 20.3817 15.0252 20.1317 15.8285 19.6583L16.0852 19.505L20.5719 23.995V23.9983ZM16.3685 15.1883C16.3685 16.0017 16.0552 16.7783 15.4819 17.3783L15.3852 17.475C14.7885 18.045 14.0119 18.3583 13.1985 18.3583C11.4519 18.3583 10.0285 16.935 10.0285 15.1883C10.0285 13.4417 11.4519 12.0183 13.1985 12.0183C14.9452 12.0183 16.3685 13.4417 16.3685 15.1883Z" fill="black"/>
</svg>
