<svg width="24" height="24" viewBox="0 0 24 24" fill="none" xmlns="http://www.w3.org/2000/svg">
  <path fill-rule="evenodd" clip-rule="evenodd"
    d="M22.1738 12.7716L22.1938 12.4317H22.1972H23.99L23.95 12.8316C23.83 14.1012 23.4301 15.0943 22.7637 15.7807C22.0905 16.4772 21.1908 16.8305 20.0944 16.8305C18.8381 16.8305 17.8284 16.3539 17.0886 15.4142C16.3654 14.4978 15.9989 13.2015 15.9989 11.6919C15.9989 10.1823 16.3721 8.93599 17.1086 7.98292C17.8617 7.00653 18.8947 6.51 20.1811 6.5C21.1674 6.5 22.0005 6.79992 22.6637 7.38975C23.3302 7.98292 23.7334 8.78936 23.8667 9.79242L23.9233 10.2056H22.1605L22.1038 9.91572C21.9972 9.3692 21.7773 8.94932 21.4474 8.67273C21.1141 8.39281 20.6842 8.25284 20.1711 8.25284C19.4712 8.25284 18.8947 8.54276 18.4582 9.11594C18.0017 9.71577 17.7717 10.5522 17.7717 11.6019C17.7717 12.7116 17.995 13.588 18.4382 14.2012C18.8647 14.791 19.4346 15.0776 20.1811 15.0776C20.7576 15.0776 21.2208 14.871 21.5673 14.4611C21.9306 14.0312 22.1338 13.4647 22.1738 12.7716ZM5.0919 6.71609H3.40904L0.156611 16.1235L-0.0100098 16.61H1.84614L2.75589 13.8508H5.68507L6.57149 16.61H8.51095L5.16522 6.92936L5.0919 6.71609ZM3.33239 12.0979L4.23214 9.2987L5.11523 12.0979H3.33239ZM14.6959 11.3215C14.8692 11.1682 15.0125 10.9882 15.1358 10.7816C15.3757 10.3684 15.499 9.88187 15.499 9.32203C15.489 8.66888 15.2824 8.07237 14.8759 7.54585C14.4527 6.99601 13.6762 6.71609 12.5732 6.71609H8.76091V16.61H13.073C13.8495 16.61 14.5126 16.3201 15.0425 15.7502C15.5723 15.1804 15.8389 14.4639 15.8389 13.6175C15.8389 12.9777 15.6856 12.4245 15.3791 11.9713C15.1991 11.7014 14.9692 11.4848 14.6959 11.3248V11.3215ZM10.5371 8.46893H12.4132C13.1097 8.46893 13.373 8.63222 13.4696 8.73219C13.6362 8.90548 13.7229 9.18207 13.7229 9.55863C13.7229 9.95852 13.6262 10.2418 13.4329 10.3951C13.213 10.5717 12.8664 10.6617 12.3999 10.6617H10.5337V8.47226L10.5371 8.46893ZM13.7562 14.5306C13.5496 14.7505 13.283 14.8572 12.9364 14.8572H10.5371V12.4112H12.6065C13.8895 12.4112 14.0628 13.001 14.0628 13.5775C14.0628 13.9907 13.9595 14.3106 13.7528 14.5306H13.7562Z"
    fill="#474747" />
</svg>
  