<?xml version="1.0" encoding="UTF-8"?>
<svg width="24px" height="24px" viewBox="0 0 24 24" version="1.1" xmlns="http://www.w3.org/2000/svg" xmlns:xlink="http://www.w3.org/1999/xlink">
    <title>Icon/Fill/data-fill</title>
    <g id="Icon/Fill/data-fill" stroke="none" stroke-width="1" fill="none" fill-rule="evenodd">
        <g id="Group" transform="translate(0.000000, 4.000000)" fill="#474747" fill-rule="nonzero">
            <path d="M0,9.33333333 L0,15.5 C0,16.3284271 0.671572875,17 1.5,17 L22.5,17 C23.3284271,17 24,16.3284271 24,15.5 L24,9.33333333 L0,9.33333333 Z M6.03,12.27 L6.03,14.0666667 L2.59666667,14.0666667 L2.59666667,12.27 L6.03,12.27 Z M10.58,12.27 L10.58,14.0666667 L7.14666667,14.0666667 L7.14666667,12.27 L10.58,12.27 Z M0,0 L0,6.16666667 C0.00183315539,6.99433328 0.672333382,7.66483351 1.5,7.66666667 L22.5,7.66666667 C23.3276666,7.66483351 23.9981668,6.99433328 24,6.16666667 L24,0 L0,0 Z M6.03,2.93666667 L6.03,4.73 L2.59666667,4.73 L2.59666667,2.93666667 L6.03,2.93666667 Z M10.58,2.93666667 L10.58,4.73 L7.14666667,4.73 L7.14666667,2.93666667 L10.58,2.93666667 Z" id="Shape"></path>
        </g>
    </g>
</svg>