<svg width="24" height="24" viewBox="0 0 24 24" fill="none" xmlns="http://www.w3.org/2000/svg">
  <path fill-rule="evenodd" clip-rule="evenodd"
    d="M10.312 15.882C10.312 16.3074 10.4502 16.3801 10.7374 16.3801L10.7338 16.3837C10.8756 16.3837 10.9556 16.3583 10.9956 16.3364L11.5955 16.0238V18.2816L11.3155 18.3471C10.981 18.4234 10.6465 18.4598 10.2866 18.4598C9.48309 18.4598 8.9159 18.2234 8.60322 17.7544C8.46506 17.5472 8.35962 17.2963 8.29054 17.0018C7.87969 17.5181 7.43976 17.918 6.97438 18.1907C6.2654 18.6088 5.36735 18.8197 4.30569 18.8197C2.9859 18.8197 1.93151 18.4634 1.17163 17.758C0.404472 17.0454 0.00453347 16.0601 -0.0100098 14.8203C-0.0100098 13.9259 0.186324 13.1842 0.578991 12.6097C0.971659 12.0389 1.56429 11.5881 2.34599 11.2718C3.08043 10.9736 4.3166 10.7228 6.01816 10.5301C7.12345 10.4101 7.48339 10.3046 7.59974 10.2537C7.75971 10.181 7.87242 10.0756 7.9415 9.93379C8.02513 9.76291 8.06876 9.5084 8.06876 9.19572C8.06876 8.44311 7.86515 7.90137 7.46158 7.58869C7.02528 7.25056 6.34175 7.07968 5.43279 7.07968C3.70579 7.09423 2.81865 7.90137 2.72775 9.55203L2.70594 9.93743H0.466281L0.488096 9.5084C0.57172 8.03226 1.06619 6.89789 1.96423 6.13437C2.84774 5.38176 4.08391 5 5.6364 5C8.69411 5 10.312 6.50523 10.312 9.35933V15.882ZM7.02891 15.7765C7.70881 15.1439 8.05785 14.3113 8.07239 13.3078H8.06876V12.0935C7.79607 12.1989 7.45067 12.2789 7.02164 12.3371L5.60731 12.5516C3.95666 12.7952 3.21132 13.1442 2.88046 13.3914C2.44416 13.7187 2.23328 14.1659 2.23328 14.7185C2.23328 15.2712 2.43325 15.7438 2.82956 16.1292C3.23313 16.5219 3.7676 16.7255 4.42568 16.74C5.46552 16.74 6.34175 16.4164 7.02891 15.7765ZM23.1283 16.3801C23.2701 16.3801 23.3501 16.3546 23.3901 16.3328V16.3364L23.99 16.0201V18.2852L23.71 18.3507C23.3755 18.427 23.041 18.4634 22.6811 18.4634C21.8776 18.4634 21.3104 18.2271 20.9977 17.758C20.8596 17.5508 20.7541 17.2999 20.685 17.0054C20.2742 17.5181 19.8343 17.918 19.3689 18.1907C18.6599 18.6088 17.7619 18.8197 16.7002 18.8197C15.3804 18.8197 14.326 18.4634 13.5661 17.758C12.799 17.0454 12.399 16.0601 12.3845 14.8203C12.3845 13.9259 12.5808 13.1842 12.9735 12.6097C13.3625 12.0389 13.9552 11.5881 14.7369 11.2718C15.4713 10.9736 16.7075 10.7228 18.409 10.5301C19.5143 10.4101 19.8743 10.3046 19.9906 10.2537C20.1506 10.181 20.2633 10.0756 20.3324 9.93379C20.416 9.76291 20.4596 9.5084 20.4596 9.19572C20.4596 8.44311 20.256 7.90137 19.8524 7.58869C19.4161 7.25056 18.7326 7.07968 17.8237 7.07968C16.0967 7.09423 15.2095 7.90137 15.1186 9.55203L15.0968 9.93743H12.8571L12.879 9.5084C12.9626 8.03226 13.4571 6.89789 14.3551 6.13437C15.2386 5.38176 16.4748 5 18.0273 5C21.085 5 22.7029 6.50523 22.7029 9.35933V15.882C22.7029 16.3074 22.8411 16.3801 23.1283 16.3801ZM19.4198 15.7765C20.0997 15.1439 20.4487 14.3113 20.4633 13.3078H20.4596V12.0935C20.1869 12.1989 19.8415 12.2789 19.4125 12.3371L17.9982 12.5516C16.3475 12.7952 15.6058 13.1442 15.2713 13.3914C14.835 13.7187 14.6241 14.1659 14.6241 14.7185C14.6241 15.2712 14.8241 15.7438 15.2204 16.1292C15.6204 16.5219 16.1585 16.7255 16.8165 16.74C17.8564 16.74 18.7326 16.4164 19.4198 15.7765Z"
    fill="#474747" />
</svg>
  