<svg width="25" height="24" viewBox="0 0 25 24" fill="none" xmlns="http://www.w3.org/2000/svg">
<path fill-rule="evenodd" clip-rule="evenodd" d="M9.26479 5C7.90924 5 6.78523 5.42519 5.92222 6.26294C5.05079 7.1049 4.61297 8.19102 4.61297 9.48764C4.61297 10.7843 5.0129 11.9588 5.80013 12.8007C6.59578 13.6511 7.70296 14.0805 9.08798 14.0805C9.81628 14.0805 10.4814 13.9079 11.0666 13.5627C11.2181 13.4743 11.3613 13.3733 11.5002 13.268C11.3823 14.1352 11.1802 14.8172 10.8982 15.2929C10.5235 15.9202 9.97625 16.2233 9.21427 16.2233C8.70068 16.2233 8.27128 16.0928 7.93029 15.836C7.60614 15.5876 7.41669 15.234 7.34934 14.7583L7.29461 14.3499H4.82767L4.88661 14.8762C5.02132 16.0549 5.48019 16.9642 6.259 17.5746C7.01676 18.1724 8.01448 18.4755 9.21848 18.4755C10.8477 18.4755 12.0938 17.8651 12.9189 16.6653C13.7061 15.5203 14.1061 13.7353 14.1061 11.3694C14.1061 9.28557 13.7145 7.69427 12.9441 6.65024C12.1401 5.5599 10.9066 5.00842 9.269 5.00842L9.26479 5ZM11.3402 9.58867C11.3402 10.2412 11.1297 10.7843 10.7172 11.201C10.3046 11.6178 9.79944 11.8241 9.21427 11.8241C8.62911 11.8241 8.18288 11.6178 7.78295 11.1926C7.37881 10.7632 7.17674 10.258 7.17674 9.69392C7.17674 8.91932 7.36197 8.30469 7.72401 7.86687C8.06921 7.4501 8.54492 7.24803 9.1806 7.24803C9.81627 7.24803 10.3593 7.45852 10.7466 7.87108C11.1424 8.29206 11.3444 8.87301 11.3444 9.58867H11.3402ZM3.43843 15.3896H0.5V18.2649H3.43843V15.3896ZM19.6587 5C21.2964 5 22.5298 5.55148 23.3339 6.64182L23.3381 6.65024C24.1085 7.69427 24.5 9.28557 24.5 11.3694C24.5 13.7353 24.1001 15.5203 23.3128 16.6653C22.4877 17.8651 21.2416 18.4755 19.6124 18.4755C18.4042 18.4755 17.4107 18.1724 16.653 17.5746C15.8741 16.9642 15.4153 16.0549 15.2806 14.8762L15.2216 14.3499H17.6886L17.7433 14.7583C17.8106 15.234 18.0001 15.5876 18.3242 15.836C18.6652 16.0928 19.0946 16.2233 19.6082 16.2233C20.3702 16.2233 20.9217 15.9202 21.2921 15.2929C21.5784 14.813 21.7805 14.1352 21.8983 13.268C21.7594 13.3733 21.6163 13.4743 21.4647 13.5627C20.8754 13.9079 20.2102 14.0805 19.4819 14.0805C18.0969 14.0805 16.9897 13.6511 16.1941 12.8007C15.4069 11.9588 15.0069 10.7843 15.0069 9.48764C15.0069 8.19102 15.4447 7.1049 16.3162 6.26294C17.1792 5.42519 18.3074 5 19.6587 5ZM21.1153 11.201C21.5279 10.7843 21.7384 10.2412 21.7384 9.58867H21.7426C21.7426 8.87301 21.5405 8.29206 21.1448 7.87108C20.7575 7.45852 20.2144 7.24803 19.5788 7.24803C18.9431 7.24803 18.4674 7.4501 18.1222 7.86687C17.7601 8.30469 17.5749 8.91932 17.5749 9.69392C17.5749 10.2622 17.777 10.7632 18.1811 11.1926C18.581 11.6178 19.0315 11.8241 19.6124 11.8241C20.1934 11.8241 20.7028 11.6136 21.1153 11.201Z" fill="#474747"/>
</svg>
