<?xml version="1.0" encoding="UTF-8"?>
<svg width="24px" height="24px" viewBox="0 0 24 24" version="1.1" xmlns="http://www.w3.org/2000/svg" xmlns:xlink="http://www.w3.org/1999/xlink">
    <title>Icon/Fill/database-fill</title>
    <g id="Icon/Fill/database-fill" stroke="none" stroke-width="1" fill="none" fill-rule="evenodd">
        <g id="Group" transform="translate(3.000000, 0.000000)" fill="#474747" fill-rule="nonzero">
            <path d="M9.45333333,14.12 C6.72666667,14.12 4.15666667,13.6533333 2.21333333,12.8066667 C1.52751645,12.517853 0.885685796,12.1341011 0.306666667,11.6666667 L0,11.41 L0,14.5633333 C0,15.5133333 0.956666667,16.4733333 2.62666667,17.2 C4.44,18 6.86666667,18.4333333 9.45333333,18.4333333 C12.04,18.4333333 14.4533333,18 16.2833333,17.2066667 C17.95,16.48 18.9066667,15.52 18.9066667,14.57 L18.9066667,11.4166667 L18.6033333,11.6733333 C18.0234861,12.1378124 17.3817641,12.5192556 16.6966667,12.8066667 C14.7533333,13.6666667 12.1666667,14.12 9.45333333,14.12 Z" id="Path"></path>
            <path d="M18.9066667,6.85 L18.9066667,6.46333333 L18.6033333,6.72 C18.0234861,7.18447907 17.3817641,7.56592223 16.6966667,7.85333333 C14.7533333,8.7 12.1666667,9.16666667 9.45333333,9.16666667 C6.74,9.16666667 4.16666667,8.7 2.21333333,7.85333333 C1.52790138,7.56658655 0.886090187,7.18509038 0.306666667,6.72 L0,6.46333333 L0,9.05666667 C0,10.0066667 0.956666667,10.97 2.62666667,11.6966667 C4.44,12.4866667 6.86666667,12.9233333 9.45333333,12.9233333 C12.04,12.9233333 14.4533333,12.4866667 16.2833333,11.6966667 C17.95,10.97 18.9066667,10.0066667 18.9066667,9.05666667 L18.9066667,6.85 Z" id="Path"></path>
            <path d="M2.66666667,6.78666667 C4.5,7.59666667 6.91333333,8.04333333 9.5,8.04333333 C12.0866667,8.04333333 14.5,7.59666667 16.3333333,6.78666667 C18.0266667,6.03333333 19,5.02333333 19,4.02 C19,3.01666667 18.0266667,2.02 16.3333333,1.25666667 C14.5,0.446666667 12.0866667,0 9.5,0 C6.91333333,0 4.5,0.446666667 2.66666667,1.25666667 C0.973333333,2.01 0,3.02 0,4.02 C0,5.02 0.973333333,6.03333333 2.66666667,6.78666667 Z" id="Path"></path>
            <path d="M18.3666667,17.0766667 C17.8097294,17.524226 17.1925633,17.8911593 16.5333333,18.1666667 C14.6266667,19 12.1,19.4533333 9.41333333,19.4533333 C6.72666667,19.4533333 4.2,19 2.29666667,18.1666667 C1.63642903,17.8911206 1.0181672,17.524203 0.46,17.0766667 L0,16.6033333 L0,20.0433333 C0,21.1233333 0.666666667,21.9633333 2.46333333,22.7466667 C4.31666667,23.5566667 6.79666667,24 9.41333333,24 C12.03,24 14.5,23.5566667 16.3666667,22.7466667 C18.2333333,21.9366667 18.96,21.1233333 18.96,20.0433333 L18.96,16.6033333 L18.3666667,17.0766667 Z" id="Path"></path>
        </g>
    </g>
</svg>