<?xml version="1.0" encoding="UTF-8"?>
<svg width="24px" height="24px" viewBox="0 0 24 24" version="1.1" xmlns="http://www.w3.org/2000/svg" xmlns:xlink="http://www.w3.org/1999/xlink">
    <title>Icon/Fill/debt-free-fill</title>
    <g id="Icon/Fill/debt-free-fill" stroke="none" stroke-width="1" fill="none" fill-rule="evenodd">
        <g id="Group" fill="#474747" fill-rule="nonzero">
            <path d="M12,0 C15.1825979,0 18.2348448,1.26428208 20.4852814,3.51471863 C22.7357179,5.76515517 24,8.81740212 24,12 C24,18.627417 18.627417,24 12,24 C5.372583,24 0,18.627417 0,12 C0,5.372583 5.372583,0 12,0 Z M19.8533333,6.38666667 L18.989,7.25 L20.0666667,7.25333333 L20.0666667,9.66333333 L16.576,9.663 L14.626,11.613 L20.0666667,11.6133333 L20.0666667,15.56 C20.0666667,16.2703898 19.5246575,16.8541866 18.8316191,16.9204105 L18.7,16.9266667 L9.313,16.926 L6.38666667,19.8533333 C7.92620964,20.960107 9.75560505,21.586925 11.6450762,21.659571 L12,21.6666798 C15.622283,21.6726328 18.9428322,19.6495691 20.5986526,16.427888 C22.2544729,13.206207 21.9666524,9.32857976 19.8533333,6.38666667 Z M7.57211196,3.40134744 C4.44247894,5.00985866 2.4439493,8.18933027 2.33775957,11.6902893 L2.33332017,12 C2.33640484,13.8960831 2.89829991,15.7464515 3.9447892,17.3213284 L4.14666667,17.6133333 L4.90503315,16.8558215 C4.40567024,16.6878532 4.03591311,16.2387239 3.98314273,15.6971973 L3.97666246,15.56 L3.97666246,11.6133333 L10.146,11.613 L12.096,9.663 L3.97666667,9.66333333 L3.97666667,7.21333333 L14.52,7.239 L17.6133333,4.14666667 C14.6714202,2.03334765 10.793793,1.74552707 7.57211196,3.40134744 Z M17.5,13.7599922 C17.3102354,13.7591132 17.1279387,13.8338761 16.993441,13.9677483 C16.8589432,14.1016205 16.7833255,14.2835666 16.7833255,14.4733333 C16.7819837,14.7634975 16.9557357,15.0258414 17.223426,15.1378188 C17.4911163,15.2497963 17.7999125,15.1893068 18.0055695,14.9846064 C18.2112264,14.779906 18.2731548,14.4713951 18.1624266,14.2031857 C18.0516984,13.9349762 17.7901673,13.7599922 17.5,13.7599922 Z M15.1133333,13.7599922 C14.7193702,13.7599922 14.3999922,14.0793702 14.3999922,14.4733333 C14.3986521,14.7638002 14.5727663,15.0263541 14.840867,15.1381345 C15.1089676,15.2499149 15.4180255,15.1888121 15.6234188,14.9834188 C15.8288121,14.7780255 15.8899149,14.4689676 15.7781345,14.200867 C15.6663541,13.9327663 15.4038002,13.7586521 15.1133333,13.7599922 Z" id="Combined-Shape"></path>
        </g>
    </g>
</svg>