<?xml version="1.0" encoding="UTF-8"?>
<svg width="24px" height="24px" viewBox="0 0 24 24" version="1.1" xmlns="http://www.w3.org/2000/svg" xmlns:xlink="http://www.w3.org/1999/xlink">
    <title>Icon/Fill/desk-chair-fill</title>
    <g id="Icon/Fill/desk-chair-fill" stroke="none" stroke-width="1" fill="none" fill-rule="evenodd">
        <g id="Group" transform="translate(4.000000, 0.000000)" fill="#474747" fill-rule="nonzero">
            <path d="M5.22393561,1.14195012 L6.46661927,8.47145161 C6.59321975,9.22439131 6.21341831,9.85739371 5.64704774,9.95400987 L3.36157591,10.3404745 C3.10171177,10.3837852 2.99843243,10.287169 2.95179015,10.0273049 L2.228,5.759 L0.976156335,5.75953606 L0.976156335,7.46531095 C0.976156335,8.91584114 1.95082762,11.7222372 3.2785638,12.6461 L3.27828612,12.2361501 C3.27828612,11.6597848 3.83799351,11.1800356 4.61092276,11.1800356 L13.2997136,11.1800356 C14.0659797,11.1800356 14.6323503,11.6597848 14.6323503,12.2361501 L14.6323503,14.5682642 C14.6323503,14.83146 14.5157445,14.9014234 14.2525488,14.9014234 L9.661,14.901 L9.661,17.598 L13.576165,20.4003251 C13.6862689,20.3794747 13.7998894,20.3685652 13.9160581,20.3685652 C14.9188511,20.3685652 15.7317755,21.1814895 15.7317755,22.1842826 C15.7317755,23.1870756 14.9188511,24 13.9160581,24 C12.9140255,23.9981664 12.1021742,23.1863152 12.1003406,22.1842826 C12.1003406,21.6651897 12.3181706,21.1969738 12.6674078,20.8660575 L9.661,18.712 L9.66191702,19.5860922 C10.4417739,19.7865718 11.0195881,20.4922482 11.0242488,21.3347267 C11.0260155,21.8194789 10.8342355,22.2848902 10.4914617,22.627664 C10.1486879,22.9704379 9.68327651,23.1622178 9.19852437,23.1604512 C8.19835493,23.1549181 7.39099218,22.3415913 7.39282933,21.3414083 C7.39438622,20.4966886 7.97264327,19.7873747 8.75489867,19.5861685 L8.755,18.692 L5.72135854,20.8645251 C6.07154151,21.1955275 6.29004492,21.6643879 6.29004492,22.1842826 C6.28821137,23.1863152 5.47636008,23.9981664 4.4743275,24 C3.47153446,24 2.65861009,23.1870756 2.65861009,22.1842826 C2.65861009,21.1814895 3.47153446,20.3685652 4.4743275,20.3685652 C4.59049613,20.3685652 4.70411671,20.3794747 4.8142206,20.4003251 L8.755,17.578 L8.755,14.901 L3.65475597,14.9014234 C3.39156024,14.9014234 3.27828612,14.814802 3.27828612,14.5682642 L3.2779212,13.767652 C1.46660071,13.1296057 0.0884614496,9.66260214 0.00409661334,7.63976015 L0,7.448653 L0,4.78337973 L2.063,4.783 L1.39593688,0.842106878 C1.35262618,0.582242734 1.41925802,0.455642254 1.67912216,0.412331563 L3.9612624,0.0125405725 C4.53096456,-0.0840755835 5.09733513,0.38567883 5.22393561,1.14195012 Z" id="Combined-Shape"></path>
        </g>
    </g>
</svg>