<?xml version="1.0" encoding="UTF-8"?>
<svg width="24px" height="24px" viewBox="0 0 24 24" version="1.1" xmlns="http://www.w3.org/2000/svg" xmlns:xlink="http://www.w3.org/1999/xlink">
    <title>Icon/Fill/dial-low-fill</title>
    <g id="Icon/Fill/dial-low-fill" stroke="none" stroke-width="1" fill="none" fill-rule="evenodd">
        <g id="Group" fill="#474747" fill-rule="nonzero">
            <path d="M13.2833377,12 C13.2814935,12.7083286 12.7061135,13.2812238 11.9977835,13.28 C11.2894536,13.2787723 10.7160598,12.7038892 10.716671,11.9955584 C10.7172832,11.2872277 11.291669,10.7133333 12,10.7133333 C12.3409395,10.7133333 12.6678665,10.8489976 12.9086343,11.0903907 C13.149402,11.3317838 13.2842189,11.6590617 13.2833377,12 L13.2833377,12 Z M24,12 C24,18.627417 18.627417,24 12,24 C5.372583,24 0,18.627417 0,12 C0,5.372583 5.372583,0 12,0 C15.1825979,0 18.2348448,1.26428208 20.4852814,3.51471863 C22.7357179,5.76515517 24,8.81740212 24,12 Z M4.88333333,12.75 L9.33333333,12.75 C9.70813287,14.0894743 11.0142307,14.9466323 12.3922313,14.7574752 C13.7702319,14.5683181 14.7970481,13.3909227 14.7970481,12 C14.7970481,10.6090773 13.7702319,9.43168187 12.3922313,9.24252477 C11.0142307,9.05336766 9.70813287,9.91052572 9.33333333,11.25 L4.88333333,11.25 L4.88333333,12.75 Z M12,3.53 C16.6755674,3.5355104 20.4644896,7.32443255 20.47,12 L21.97,12 C21.97,6.49372104 17.506279,2.03 12,2.03 C6.49372104,2.03 2.03,6.49372104 2.03,12 L3.53,12 C3.5355104,7.32443255 7.32443255,3.5355104 12,3.53 Z" id="Shape"></path>
        </g>
    </g>
</svg>