<?xml version="1.0" encoding="UTF-8"?>
<svg width="24px" height="24px" viewBox="0 0 24 24" version="1.1" xmlns="http://www.w3.org/2000/svg" xmlns:xlink="http://www.w3.org/1999/xlink">
    <title>Icon/Fill/dial-medium-fill</title>
    <g id="Icon/Fill/dial-medium-fill" stroke="none" stroke-width="1" fill="none" fill-rule="evenodd">
        <g id="Group" fill="#474747" fill-rule="nonzero">
            <path d="M13.2833377,12 C13.2814935,12.7083286 12.7061135,13.2812238 11.9977835,13.28 C11.2894536,13.2787723 10.7160598,12.7038892 10.716671,11.9955584 C10.7172832,11.2872277 11.291669,10.7133333 12,10.7133333 C12.3409395,10.7133333 12.6678665,10.8489976 12.9086343,11.0903907 C13.149402,11.3317838 13.2842189,11.6590617 13.2833377,12 L13.2833377,12 Z M12,0 C18.627417,0 24,5.372583 24,12 C24,18.627417 18.627417,24 12,24 C5.372583,24 0,18.627417 0,12 C0,5.372583 5.372583,0 12,0 Z M11.25,4.86 L11.25,9.33333333 C9.91052572,9.70813287 9.05336766,11.0142307 9.24252477,12.3922313 C9.43168187,13.7702319 10.6090773,14.7970481 12,14.7970481 C13.3909227,14.7970481 14.5683181,13.7702319 14.7574752,12.3922313 C14.9466323,11.0142307 14.0894743,9.70813287 12.75,9.33333333 L12.75,4.86 L11.25,4.86 Z M12,3.52666667 C16.6768673,3.5321804 20.4663265,7.32313086 20.47,12 L21.97,12 C21.97,6.49372104 17.506279,2.03 12,2.03 C6.49372104,2.03 2.03,6.49372104 2.03,12 L3.53,12 C3.5355104,7.32443255 7.32443255,3.5355104 12,3.53 L12,3.52666667 Z" id="Shape"></path>
        </g>
    </g>
</svg>