<svg width="24" height="24" viewBox="0 0 24 24" fill="none" xmlns="http://www.w3.org/2000/svg">
<path d="M0 19.885V2.675L9.63 1.16833C10.1333 1.16833 11.1233 1.595 11.9233 2.21833C12.7233 1.595 13.7133 1.16833 14.2167 1.16833L14.4033 1.18167L23.8467 2.675V18.625L21.4267 16.1383V4.765L14.25 3.62833C13.94 3.75167 13.3867 4.11833 13.1333 4.365V6.995C12.5 7.225 11.55 7.48833 10.7133 8.415V4.365C10.46 4.12167 9.90667 3.75167 9.59667 3.62833L2.42 4.765V17.0483C2.42 17.0483 7.90333 15.9017 8.03 15.8717C8.46 16.865 8.58 17.135 9.37 17.9583L0 19.885ZM17.8667 18.135L17.6 18.295C16.77 18.7917 15.8267 19.0517 14.8733 19.0517C11.9067 19.0517 9.49333 16.6117 9.49333 13.615C9.49333 10.6183 11.9067 8.17833 14.8733 8.17833C17.84 8.17833 20.2533 10.6183 20.2533 13.615C20.2533 14.5783 19.9933 15.5317 19.5033 16.3683L19.3467 16.635L24 21.335L22.52 22.8317L17.8667 18.1317V18.135ZM14.8733 10.2983C13.06 10.2983 11.5867 11.7883 11.5867 13.615C11.5867 15.4417 13.06 16.9317 14.8733 16.9317C15.7167 16.9317 16.5233 16.605 17.14 16.0083L17.24 15.9083C17.8333 15.2817 18.16 14.4683 18.16 13.615C18.16 11.785 16.6867 10.2983 14.8733 10.2983Z" fill="black"/>
</svg>
