<?xml version="1.0" encoding="UTF-8"?>
<svg width="24px" height="24px" viewBox="0 0 24 24" version="1.1" xmlns="http://www.w3.org/2000/svg" xmlns:xlink="http://www.w3.org/1999/xlink">
    <title>Icon/Fill/digital-techtransformation-fill</title>
    <g id="Icon/Fill/digital-techtransformation-fill" stroke="none" stroke-width="1" fill="none" fill-rule="evenodd">
        <g id="Group" transform="translate(0.000000, 1.000000)" fill="#474747" fill-rule="nonzero">
            <path d="M22.55,0 L22.55,18.29 L1.18666667,18.29 L1.18666667,0 L22.55,0 Z M20.18,2.37 L3.55,2.37 L3.55,15.92 L20.18,15.92 L20.18,2.37 Z M13.5,3.74666667 C13.6516732,3.58928436 13.891385,3.55622067 14.08,3.66666667 L14.08,3.66666667 L15.91,4.72333333 C16.0969795,4.83443911 16.185884,5.05738425 16.1266667,5.26666667 L16.1266667,5.26666667 L16,5.71333333 C15.8963164,6.07947554 15.9468991,6.47209383 16.14,6.8 L16.14,6.8 L16.1733333,6.85666667 C16.3573498,7.18801763 16.6695492,7.42909822 17.0366667,7.52333333 L17.0366667,7.52333333 L17.49,7.63666667 C17.7008987,7.68990205 17.8490098,7.87915513 17.85,8.09666667 L17.85,8.09666667 L17.85,10.1966667 C17.8490098,10.4141782 17.7008987,10.6034313 17.49,10.6566667 L17.49,10.6566667 L17.0366667,10.77 C16.6700751,10.8653097 16.3582564,11.1060963 16.1733333,11.4366667 L16.1733333,11.4366667 L16.14,11.4933333 C15.9468991,11.8212395 15.8963164,12.2138578 16,12.58 L16,12.58 L16.1266667,13.0266667 C16.185884,13.2359491 16.0969795,13.4588942 15.91,13.57 L15.91,13.57 L14.08,14.6266667 C13.891385,14.7371127 13.6516732,14.704049 13.5,14.5466667 L13.5,14.5466667 L13.1666667,14.1933333 C12.9038648,13.9234287 12.5433797,13.7708233 12.1666667,13.77 L12.1666667,13.77 L12.0263191,13.7773562 C11.7013587,13.8108075 11.3966183,13.9571668 11.1666667,14.1933333 L11.1666667,14.1933333 L10.8333333,14.5466667 C10.6816601,14.704049 10.4419484,14.7371127 10.2533333,14.6266667 L10.2533333,14.6266667 L8.42666667,13.57 C8.23747803,13.4607123 8.14681178,13.2367941 8.20666667,13.0266667 L8.20666667,13.0266667 L8.33333333,12.58 C8.43778992,12.2194326 8.39084923,11.831871 8.20333333,11.5066667 L8.20333333,11.5066667 L8.17,11.45 C7.9850769,11.1194297 7.6732582,10.878643 7.30666667,10.7833333 L7.30666667,10.7833333 L6.85333333,10.67 C6.64318379,10.6219116 6.49146957,10.4387611 6.48333333,10.2233333 L6.48333333,10.2233333 L6.48333333,8.11 C6.48432358,7.89248846 6.63243467,7.70323539 6.84333333,7.65 L6.84333333,7.65 L7.29666667,7.53666667 C7.66378417,7.44243155 7.97598354,7.20135096 8.16,6.87 L8.16,6.87 L8.19333333,6.81333333 C8.38795417,6.48594983 8.43861974,6.09268853 8.33333333,5.72666667 L8.33333333,5.72666667 L8.20666667,5.26666667 C8.14681178,5.05653923 8.23747803,4.83262106 8.42666667,4.72333333 L8.42666667,4.72333333 L10.2533333,3.66666667 C10.4419484,3.55622067 10.6816601,3.58928436 10.8333333,3.74666667 L10.8333333,3.74666667 L11.1666667,4.1 C11.4299874,4.36956061 11.7898537,4.52310358 12.1666667,4.52666667 L12.1666667,4.52666667 L12.3070217,4.51836653 C12.6319377,4.48290506 12.9362611,4.33586553 13.1666667,4.1 L13.1666667,4.1 Z M12.2066667,7.72666277 C11.8277139,7.72578126 11.4639788,7.87569939 11.1957055,8.14334732 C10.9274322,8.41099524 10.7766667,8.77437956 10.7766667,9.15333333 C10.7766667,9.94082519 11.4147332,10.5793838 12.2022248,10.5799961 C12.9897164,10.5806076 13.6287724,9.94304127 13.63,9.15555036 C13.6312242,8.36805946 12.9941564,7.7285066 12.2066667,7.72666277 Z M0,19.2033333 L24,19.2033333 L24,21.5766667 L0,21.5766667 L0,19.2033333 Z" id="Combined-Shape"></path>
        </g>
    </g>
</svg>