<?xml version="1.0" encoding="UTF-8"?>
<svg width="24px" height="24px" viewBox="0 0 24 24" version="1.1" xmlns="http://www.w3.org/2000/svg" xmlns:xlink="http://www.w3.org/1999/xlink">
    <title>Icon/Fill/dining-fill</title>
    <g id="Icon/Fill/dining-fill" stroke="none" stroke-width="1" fill="none" fill-rule="evenodd">
        <g id="Group" transform="translate(4.000000, 0.000000)" fill="#474747" fill-rule="nonzero">
            <path d="M16.0129373,1.85 L16.0129373,1.51666667 C16.0195608,1.2638568 15.9800252,1.01195829 15.8962706,0.773333333 C15.8140987,0.569872192 15.701725,0.379960678 15.5629373,0.21 C15.1605376,0.0359886801 14.7125049,-0.00261465297 14.2862706,0.1 C12.9529373,0.473333333 12.5062706,2.6 12.0029373,5.56666667 C11.3462706,9.66666667 11.0462706,12.4366667 10.799604,14.87 C10.6980002,15.6567916 10.6578786,16.450306 10.679604,17.2433333 C10.679604,19.2433333 10.8229373,20.14 11.6162706,21.1633333 C11.8971693,21.5142549 12.2195138,21.8298839 12.5762706,22.1033333 C12.5762706,22.72 12.5429373,23.3566667 12.5262706,24 L16.0129373,24 L16.0129373,1.85 Z" id="Path"></path>
            <path d="M6.16960395,17.8066667 C6.16327251,17.3204092 6.38847763,16.8600998 6.77627062,16.5666667 C8.15960395,15.5 9.00960395,13.52 8.89627062,11.35 L8.22960395,0.0166666667 L6.81960395,0.0166666667 L6.81960395,10.6333333 L5.26293729,10.6333333 L5.26293729,0 L3.67960395,0 L3.67960395,10.64 L2.08960395,10.64 L2.08960395,0.0233333333 L0.679603953,0.0233333333 L0.0129372867,11.3566667 C-0.117062713,13.52 0.742937287,15.5 2.12960395,16.5666667 C2.51614232,16.860799 2.74005586,17.320997 2.73293729,17.8066667 L2.62627062,24 L6.29293729,24 L6.16960395,17.8066667 Z" id="Path"></path>
        </g>
    </g>
</svg>