<?xml version="1.0" encoding="UTF-8"?>
<svg width="24px" height="24px" viewBox="0 0 24 24" version="1.1" xmlns="http://www.w3.org/2000/svg" xmlns:xlink="http://www.w3.org/1999/xlink">
    <title>Icon/Fill/disability-insurance-fill</title>
    <g id="Icon/Fill/disability-insurance-fill" stroke="none" stroke-width="1" fill="none" fill-rule="evenodd">
        <g id="Group" transform="translate(0.000000, 2.000000)" fill="#474747" fill-rule="nonzero">
            <path d="M0,8.3563594 L7.22640095,10.2896216 L8.24969666,11.0829258 L14.5627979,11.8495643 C15.0661127,11.8995625 15.6460914,12.1095547 15.6660906,12.6662009 L15.6660906,12.6662009 L15.6227589,13.8594904 C15.5368164,14.2630334 15.1820356,14.5526787 14.7694569,14.5561314 L14.7694569,14.5561314 L7.76971431,14.5561314 L7.76971431,15.9327475 L14.7694569,15.9327475 C15.8730137,15.9245266 16.8122474,15.1270905 16.9993749,14.0394838 L16.9993749,14.0394838 L17.0293738,12.9961888 C19.9704004,12.7011642 21.5374441,12.5764849 22.4002967,12.568545 L22.587221,12.5687606 C23.141494,12.5758511 23.3472266,12.6430812 23.4658038,12.7495312 L23.4658038,12.7495312 L23.5191352,12.7995294 L23.5458009,12.8695268 C23.7259311,13.4064835 23.8673984,13.9556441 23.9691187,14.5127997 C24.1185368,15.2224041 23.7131306,15.9315068 23.02582,16.162739 L23.02582,16.162739 L13.2428464,19.2226265 L13.1228508,19.2226265 L9.9029692,19.2959572 C9.09633219,19.3126232 8.28969519,19.3326225 7.68305083,19.3326225 L7.68305083,19.3326225 L7.11307178,19.3326225 C6.77710398,19.376154 6.43579701,19.3181086 6.13310782,19.1659619 C5.33313723,18.8859722 2.39324533,17.9993382 0.579978674,17.4693576 L0.579978674,17.4693576 L0,17.2960307 L0,8.3563594 Z M14.0161513,0 L14.0161513,3.70986359 L17.7660134,3.70986359 L17.7660134,5.19647559 L14.0161513,5.19647559 L14.0161513,8.90633918 L12.5162064,8.90633918 L12.5162064,5.19647559 L8.76634433,5.19647559 L8.76634433,3.70986359 L12.5162064,3.70986359 L12.5162064,0 L14.0161513,0 Z" id="Combined-Shape"></path>
        </g>
    </g>
</svg>