<?xml version="1.0" encoding="UTF-8"?>
<svg width="24px" height="24px" viewBox="0 0 24 24" version="1.1" xmlns="http://www.w3.org/2000/svg" xmlns:xlink="http://www.w3.org/1999/xlink">
    <title>Icon/Fill/doc-fill</title>
    <g id="Icon/Fill/doc-fill" stroke="none" stroke-width="1" fill="none" fill-rule="evenodd">
        <g id="Group" transform="translate(-0.000000, -0.000000)" fill="#474747" fill-rule="nonzero">
            <g id="doc" transform="translate(0.000000, 3.000000)">
                <path d="M24,1.5 L24,18 L0,18 L0,0 L22.5,0 C23.3290001,0 24,0.671000005 24,1.5 Z M2.25040001,12.6445599 L4.86215839,12.6445599 C5.70171468,12.6445599 6.40405669,12.3658577 6.96920548,11.808445 C7.53435431,11.2510323 7.81692446,10.5334161 7.81692446,9.65557452 L7.81692446,8.34382556 C7.81692446,7.46932181 7.53435431,6.7525399 6.96920548,6.1934584 C6.40405669,5.63437682 5.70171468,5.3548402 4.86215839,5.3548402 L2.25040001,5.3548402 L2.25040001,12.6445599 Z M3.90663703,6.65657583 L4.86215839,6.65657583 C5.23783533,6.65657583 5.54735582,6.8134501 5.79072914,7.12720338 C6.03410247,7.44095658 6.1557873,7.84315556 6.1557873,8.33381216 L6.1557873,9.65557452 C6.1557873,10.1529068 6.03410247,10.5584435 5.79072914,10.8721967 C5.54735582,11.18595 5.23783533,11.3428242 4.86215839,11.3428242 L3.90663703,11.3428242 L3.90663703,6.65657583 Z M14.9867647,9.65557452 L14.9867647,8.34382556 C14.9867647,7.44929501 14.7058279,6.70998333 14.1439459,6.12586825 C13.5820639,5.54175317 12.8535882,5.24970002 11.958497,5.24970002 C11.0568723,5.24970002 10.3259466,5.54175317 9.76569799,6.12586825 C9.20544934,6.70998333 8.92532921,7.44929501 8.92532921,8.34382556 L8.92532921,9.65557452 C8.92532921,10.5534429 9.20626601,11.293589 9.76814809,11.8760352 C10.3300301,12.4584814 11.0634058,12.7497 11.9682972,12.7497 C12.8666551,12.7497 13.5943141,12.4584814 14.151296,11.8760352 C14.708278,11.293589 14.9867647,10.5534429 14.9867647,9.65557452 Z M13.3354278,8.33381216 L13.3354278,9.65557452 C13.3354278,10.182947 13.216193,10.6135168 12.9777198,10.9472968 C12.7392466,11.2810769 12.4027758,11.4479644 11.9682972,11.4479644 C11.5207517,11.4479644 11.1769308,11.2810769 10.9368242,10.9472968 C10.6967176,10.6135168 10.5766662,10.182947 10.5766662,9.65557452 L10.5766662,8.33381216 C10.5766662,7.80977748 10.6950843,7.38171101 10.9319241,7.0495999 C11.1687639,6.71748873 11.5109514,6.55143565 11.958497,6.55143565 C12.3962423,6.55143565 12.7351632,6.71832318 12.9752698,7.05210325 C13.2153763,7.38588326 13.3354278,7.81311528 13.3354278,8.33381216 Z M21.7253954,10.1862822 L20.1132593,10.1862822 C20.1132593,10.640223 20.0291416,10.9639848 19.8609037,11.1575772 C19.6926657,11.3511696 19.4190791,11.4479644 19.0401353,11.4479644 C18.6317909,11.4479644 18.318187,11.2944279 18.0993143,10.9873503 C17.8804417,10.6802726 17.7710069,10.2713982 17.7710069,9.76071469 L17.7710069,8.22867198 C17.7710069,7.72132631 17.8706415,7.31495523 18.0699137,7.00954645 C18.2691857,6.70413775 18.5550227,6.55143565 18.9274328,6.55143565 C19.3521111,6.55143565 19.6575482,6.64823043 19.8437533,6.84182283 C20.0299584,7.0354153 20.1230595,7.35583931 20.1230595,7.80310458 L21.7351955,7.80310458 L21.7498959,7.77306453 C21.7629629,6.95196558 21.5220433,6.32613745 21.0271298,5.89556117 C20.5322162,5.4649849 19.8323243,5.24970002 18.9274328,5.24970002 C18.081343,5.24970002 17.4010513,5.52589885 16.8865372,6.07830483 C16.3720231,6.6307108 16.1147699,7.35083043 16.1147699,8.23868538 L16.1147699,9.76071469 C16.1147699,10.6519074 16.3818232,11.3728615 16.9159378,11.9235986 C17.4500524,12.4743357 18.1581112,12.7497 19.0401353,12.7497 C19.9058257,12.7497 20.5746839,12.5352496 21.0467302,12.1063423 C21.5187764,11.6774349 21.7482626,11.0474345 21.7351955,10.2163222 L21.7253954,10.1862822 Z" id="Combined-Shape"></path>
            </g>
        </g>
    </g>
</svg>