<svg width="24" height="24" viewBox="0 0 24 24" fill="none" xmlns="http://www.w3.org/2000/svg">
<path d="M2.25146 0.4V23.6C2.25146 23.82 2.43146 24 2.65146 24H21.3481C21.5715 24 21.7481 23.82 21.7481 23.6V6.8C21.7481 6.74667 21.7381 6.69667 21.7181 6.64667C21.6981 6.59667 21.6681 6.55333 21.6315 6.51667L15.2115 0.116667C15.1748 0.08 15.1315 0.05 15.0815 0.03C15.0315 0.01 14.9781 0 14.9248 0H2.65146C2.42813 0 2.25146 0.18 2.25146 0.4ZM14.6681 2.02333L19.7215 7.05667H14.6681V2.02333ZM10.9181 9.76333H13.4148V15.8667H10.9181V9.76333ZM12.1648 17.67C12.8548 17.67 13.4115 18.22 13.4115 18.9C13.4115 19.58 12.8515 20.13 12.1648 20.13C11.4781 20.13 10.9181 19.58 10.9181 18.9C10.9181 18.22 11.4781 17.67 12.1648 17.67Z" fill="black"/>
</svg>
