<svg width="24" height="24" viewBox="0 0 24 24" fill="none" xmlns="http://www.w3.org/2000/svg">
<path d="M2.25146 0.4V23.6C2.25146 23.82 2.43146 24 2.65146 24H21.3481C21.5715 24 21.7481 23.82 21.7481 23.6V6.8C21.7481 6.74667 21.7381 6.69667 21.7181 6.64667C21.6981 6.59667 21.6681 6.55333 21.6315 6.51667L15.2115 0.116667C15.1748 0.08 15.1315 0.05 15.0815 0.03C15.0315 0.01 14.9781 0 14.9248 0H2.65146C2.42813 0 2.25146 0.18 2.25146 0.4ZM14.6681 2.02333L19.7215 7.05667H14.6681V2.02333ZM12.0015 20.8967L11.7148 20.7767C10.2748 20.18 7.30146 18.2833 7.30146 16.2367V10.5033L12.0015 8.95667L16.7015 10.5033V16.2367C16.7015 18.28 13.7281 20.1767 12.2881 20.7767L12.0015 20.8967Z" fill="black"/>
</svg>
