<svg width="24" height="24" viewBox="0 0 24 24" fill="none" xmlns="http://www.w3.org/2000/svg">
<path d="M20.855 0.00166702H6.14829C5.28496 0.00166702 4.58496 0.728334 4.58496 1.62167V19.285C4.58496 20.1783 5.28496 20.9017 6.14829 20.9017H20.8516C21.715 20.9017 22.415 20.1783 22.415 19.285V1.62167C22.415 0.728334 21.715 0.00166702 20.8516 0.00166702H20.855ZM14.335 15.675H8.33496V14.1583H14.335V15.675ZM18.6683 11.125H8.33496V9.60833H18.6683V11.125ZM18.6683 6.575H8.33496V5.05833H18.6683V6.575ZM3.41829 4.38833V22.045C3.41829 22.1117 3.46163 22.145 3.48163 22.145H19.4083C19.3583 22.9917 18.685 23.9983 17.855 23.9983H3.14829C2.28496 23.9983 1.58496 23.2717 1.58496 22.3783V4.38833C1.58496 3.515 2.58496 2.80833 3.41829 2.77167V4.38833Z" fill="black"/>
</svg>
