<svg width="24" height="24" viewBox="0 0 24 24" fill="none" xmlns="http://www.w3.org/2000/svg">
<path d="M2.25146 0.4V23.6C2.25146 23.82 2.43146 24 2.65146 24H21.3481C21.5715 24 21.7481 23.82 21.7481 23.6V6.8C21.7481 6.74667 21.7381 6.69667 21.7181 6.64667C21.6981 6.59667 21.6681 6.55333 21.6315 6.51667L15.2115 0.116667C15.1748 0.08 15.1315 0.05 15.0815 0.03C15.0315 0.01 14.9781 0 14.9248 0H2.65146C2.42813 0 2.25146 0.18 2.25146 0.4ZM14.6681 2.02333L19.7215 7.05667H14.6681V2.02333ZM16.2481 13.1567L13.5181 15.92L12.5148 14.9133L15.0115 12.39L12.8281 10.2067L10.2981 12.6933L9.30146 11.6933L12.0681 8.97C12.4881 8.55 13.1781 8.55 13.5981 8.97L16.2515 11.6233C16.6748 12.0467 16.6748 12.7333 16.2515 13.1567H16.2481ZM13.0881 17.46L14.0915 18.4633L11.3848 21.1833C11.1748 21.3933 10.8948 21.5 10.6181 21.5C10.3415 21.5 10.0648 21.3933 9.85146 21.1833L7.19813 18.53C6.7748 18.1067 6.7748 17.42 7.19813 16.9967L9.92147 14.3L10.9248 15.3L8.43813 17.7633L10.6181 19.9433L13.0881 17.4567V17.46ZM13.8315 12.39L11.8081 14.4333L10.8048 13.43L12.8281 11.3867L13.8315 12.39ZM9.61813 17.7667L11.6281 15.74L12.6315 16.7433L10.6215 18.77L9.61813 17.7667Z" fill="black"/>
</svg>
