<svg width="24" height="24" viewBox="0 0 24 24" fill="none" xmlns="http://www.w3.org/2000/svg">
<path d="M2.25146 0.4V23.6C2.25146 23.82 2.43146 24 2.65146 24H21.3481C21.5715 24 21.7481 23.82 21.7481 23.6V6.8C21.7481 6.74667 21.7381 6.69667 21.7181 6.64667C21.6981 6.59667 21.6681 6.55333 21.6315 6.51667L15.2115 0.116667C15.1748 0.08 15.1315 0.05 15.0815 0.03C15.0315 0.01 14.9781 0 14.9248 0H2.65146C2.42813 0 2.25146 0.18 2.25146 0.4ZM14.6681 2.02333L19.7215 7.05667H14.6681V2.02333ZM12.5381 19.32C12.2581 19.32 11.9948 19.2133 11.7948 19.0167C11.5948 18.82 11.4881 18.56 11.4881 18.2833C11.4881 18.0067 11.5981 17.7467 11.7948 17.55L13.2515 16.1133H6.8748V14.04H13.2481L11.7948 12.6067C11.3848 12.2033 11.3848 11.5467 11.7948 11.14C12.2048 10.7367 12.8715 10.7367 13.2815 11.14L17.2748 15.0767L13.2815 19.0133C13.0848 19.21 12.8181 19.3167 12.5381 19.3167V19.32Z" fill="black"/>
</svg>
