<?xml version="1.0" encoding="UTF-8"?>
<svg width="24px" height="24px" viewBox="0 0 24 24" version="1.1" xmlns="http://www.w3.org/2000/svg" xmlns:xlink="http://www.w3.org/1999/xlink">
    <title>Icon/Fill/door-closed-fill</title>
    <g id="Icon/Fill/door-closed-fill" stroke="none" stroke-width="1" fill="none" fill-rule="evenodd">
        <g id="Group" transform="translate(-0.000000, -0.000000)" fill="#474747" fill-rule="nonzero">
            <g id="door-closed" transform="translate(3.000000, 0.000000)">
                <path d="M17.2500001,22.5 C17.6642136,22.5 18,22.8357866 18,23.2500001 C18,23.6642136 17.6642136,24 17.2500001,24 L0.750000003,24 C0.335786439,24 0,23.6642136 0,23.2500001 C0,22.8357866 0.335786439,22.5 0.750000003,22.5 L1.5,22.5 L1.5,1.5 C1.5,0.671572878 2.17157288,-3.33066909e-16 3,-3.33066909e-16 L15,-3.33066909e-16 C15.8284272,-3.33066909e-16 16.5,0.671572878 16.5,1.5 L16.5,22.5 L17.2500001,22.5 Z M12.7500001,9.75000004 C12.3357865,9.75000004 12.0000001,10.0857865 12.0000001,10.5 L12.0000001,13.5000001 C12.0000001,13.9142136 12.3357865,14.25 12.7500001,14.25 C13.1642136,14.25 13.5000001,13.9142136 13.5000001,13.5000001 L13.5000001,10.5 C13.5000001,10.0857865 13.1642136,9.75000004 12.7500001,9.75000004 Z" id="ic_ol_door_closed_32"></path>
            </g>
        </g>
    </g>
</svg>