<?xml version="1.0" encoding="UTF-8"?>
<svg width="24px" height="24px" viewBox="0 0 24 24" version="1.1" xmlns="http://www.w3.org/2000/svg" xmlns:xlink="http://www.w3.org/1999/xlink">
    <title>Icon/Fill/door-opened-fill</title>
    <g id="Icon/Fill/door-opened-fill" stroke="none" stroke-width="1" fill="none" fill-rule="evenodd">
        <g id="Group" transform="translate(3.000233, -0.000000)" fill="#474747" fill-rule="nonzero">
            <g id="door-opened">
                <path d="M3.24641269,21.7494366 L0.749980574,21.7494366 C0.33577774,21.7494366 0,21.4136589 0,20.9994561 C0,20.5852533 0.33577774,20.2494755 0.749980574,20.2494755 L1.49996115,20.2494755 L1.49996115,1.49996115 C1.49996115,0.67155548 2.17151663,0 2.9999223,0 L14.9996115,0 C15.8280171,0 16.4995726,0.67155548 16.4995726,1.49996115 L16.4995726,20.2494755 L17.2495532,20.2494755 C17.663756,20.2494755 17.9995338,20.5852533 17.9995338,20.9994561 C17.9995338,21.4136589 17.663756,21.7494366 17.2495532,21.7494366 L12.7496698,21.7494366 L12.7496698,23.2500195 C12.7496698,23.6642224 12.413892,24 11.9996892,24 C11.9360227,24 11.8726152,23.9918932 11.8109968,23.9758749 L3.24641269,21.7494366 Z M4.36307147,1.49996115 L11.6270935,3.38830698 C12.2881799,3.56016215 12.7496698,4.15695888 12.7496698,4.84001774 L12.7496698,20.2494755 L14.9996115,20.2494755 L14.9996115,1.49996115 L4.36307147,1.49996115 Z M8.99976689,11.2497086 C8.58556409,11.2497086 8.24978631,11.5854864 8.24978631,11.9996892 L8.24978631,14.9996115 C8.24978631,15.4138143 8.58556409,15.7495921 8.99976689,15.7495921 C9.41396968,15.7495921 9.74974746,15.4138143 9.74974746,14.9996115 L9.74974746,11.9996892 C9.74974746,11.5854864 9.41396968,11.2497086 8.99976689,11.2497086 Z" id="ic_fill_door_opened_32"></path>
            </g>
        </g>
    </g>
</svg>