<?xml version="1.0" encoding="UTF-8"?>
<svg width="24px" height="24px" viewBox="0 0 24 24" version="1.1" xmlns="http://www.w3.org/2000/svg" xmlns:xlink="http://www.w3.org/1999/xlink">
    <title>Icon/Fill/download-fill</title>
    <g id="Icon/Fill/download-fill" stroke="none" stroke-width="1" fill="none" fill-rule="evenodd">
        <g id="Group" transform="translate(-0.000000, 0.000050)" fill="#474747" fill-rule="nonzero">
            <g id="download" transform="translate(0.000200, 0.000000)">
                <path d="M13.4998876,6.00005002 L23.9998001,6.00005002 L23.9998001,22.9999084 C23.9998001,23.5519038 23.5518038,23.9999001 22.9998084,23.9999001 L1,23.9999001 C0.447996269,23.9999001 0,23.5519038 0,22.9999084 L0,6.00005002 L10.4999126,6.00005002 L10.4999126,14.3789802 L7.85693458,11.7360022 C7.27093944,11.1500071 6.32194734,11.1500071 5.73595223,11.7360022 C5.1499571,12.3219974 5.1499571,13.2709895 5.73595223,13.8569846 L10.9399089,19.0609412 L11.9999001,20.1209324 L13.0618912,19.0589412 L18.2628479,13.8569846 C18.848843,13.2709895 18.848843,12.3209974 18.2628479,11.7360022 C17.6768528,11.1500071 16.7278607,11.1500071 16.1418655,11.7360022 L13.4998876,14.3789802 L13.4998876,6.00005002 Z M13.4998876,5.99995003 L10.4999126,5.99995003 L10.4999126,0 L13.4998876,0 L13.4998876,5.99995003 Z" id="Combined-Shape"></path>
            </g>
        </g>
    </g>
</svg>