<svg width="24" height="24" viewBox="0 0 24 24" fill="none" xmlns="http://www.w3.org/2000/svg">
<path d="M0.660839 5.16084C1.1014 4.72028 1.62587 4.5 2.23427 4.5C2.86364 4.5 3.3986 4.72028 3.83916 5.16084C4.27972 5.6014 4.5 6.13636 4.5 6.76573C4.5 7.37413 4.27972 7.8986 3.83916 8.33916C3.3986 8.77972 2.86364 9 2.23427 9C1.62587 9 1.1014 8.77972 0.660839 8.33916C0.22028 7.8986 0 7.37413 0 6.76573C0 6.13636 0.22028 5.6014 0.660839 5.16084Z" fill="#474747"/>
<path d="M0.660839 15.6608C1.1014 15.2203 1.62587 15 2.23427 15C2.86364 15 3.3986 15.2203 3.83916 15.6608C4.27972 16.1014 4.5 16.6364 4.5 17.2657C4.5 17.8741 4.27972 18.3986 3.83916 18.8392C3.3986 19.2797 2.86364 19.5 2.23427 19.5C1.62587 19.5 1.1014 19.2797 0.660839 18.8392C0.22028 18.3986 0 17.8741 0 17.2657C0 16.6364 0.22028 16.1014 0.660839 15.6608Z" fill="#474747"/>
<path d="M10.4108 5.16084C10.8514 4.72028 11.3759 4.5 11.9843 4.5C12.6136 4.5 13.1486 4.72028 13.5892 5.16084C14.0297 5.6014 14.25 6.13636 14.25 6.76573C14.25 7.37413 14.0297 7.8986 13.5892 8.33916C13.1486 8.77972 12.6136 9 11.9843 9C11.3759 9 10.8514 8.77972 10.4108 8.33916C9.97028 7.8986 9.75 7.37413 9.75 6.76573C9.75 6.13636 9.97028 5.6014 10.4108 5.16084Z" fill="#474747"/>
<path d="M10.4108 15.6608C10.8514 15.2203 11.3759 15 11.9843 15C12.6136 15 13.1486 15.2203 13.5892 15.6608C14.0297 16.1014 14.25 16.6364 14.25 17.2657C14.25 17.8741 14.0297 18.3986 13.5892 18.8392C13.1486 19.2797 12.6136 19.5 11.9843 19.5C11.3759 19.5 10.8514 19.2797 10.4108 18.8392C9.97028 18.3986 9.75 17.8741 9.75 17.2657C9.75 16.6364 9.97028 16.1014 10.4108 15.6608Z" fill="#474747"/>
<path d="M20.1608 5.16084C20.6014 4.72028 21.1259 4.5 21.7343 4.5C22.3636 4.5 22.8986 4.72028 23.3392 5.16084C23.7797 5.6014 24 6.13636 24 6.76573C24 7.37413 23.7797 7.8986 23.3392 8.33916C22.8986 8.77972 22.3636 9 21.7343 9C21.1259 9 20.6014 8.77972 20.1608 8.33916C19.7203 7.8986 19.5 7.37413 19.5 6.76573C19.5 6.13636 19.7203 5.6014 20.1608 5.16084Z" fill="#474747"/>
<path d="M20.1608 15.6608C20.6014 15.2203 21.1259 15 21.7343 15C22.3636 15 22.8986 15.2203 23.3392 15.6608C23.7797 16.1014 24 16.6364 24 17.2657C24 17.8741 23.7797 18.3986 23.3392 18.8392C22.8986 19.2797 22.3636 19.5 21.7343 19.5C21.1259 19.5 20.6014 19.2797 20.1608 18.8392C19.7203 18.3986 19.5 17.8741 19.5 17.2657C19.5 16.6364 19.7203 16.1014 20.1608 15.6608Z" fill="#474747"/>
</svg>
