<?xml version="1.0" encoding="UTF-8"?>
<svg width="24px" height="24px" viewBox="0 0 24 24" version="1.1" xmlns="http://www.w3.org/2000/svg" xmlns:xlink="http://www.w3.org/1999/xlink">
    <title>Icon/Fill/duplicate-fill</title>
    <g id="Icon/Fill/duplicate-fill" stroke="none" stroke-width="1" fill="none" fill-rule="evenodd">
        <g id="Group" transform="translate(-0.000000, -0.000000)" fill="#474747" fill-rule="nonzero">
            <g id="duplicate">
                <path d="M22.5,6 L18,6 L18,1.5 C18,0.672000003 17.3280001,0 16.5,0 L0,0 L0,16.5 C0,17.3280001 0.672000003,18 1.5,18 L6,18 L6,15 L3,15 L3,3 L15,3 L15,6 L6,6 L6,15 L9,15 L9,12.7500001 L11.25,15 L12.7500001,16.5 L11.25,18 L9,20.2500001 L9,18 L6,18 L6,22.5 C6,23.3280001 6.67200003,24 7.5,24 L22.5,24 C23.3280001,24 24,23.3280001 24,22.5 L24,7.5 C24,6.67200003 23.3280001,6 22.5,6" id="Page-1"></path>
            </g>
        </g>
    </g>
</svg>