<?xml version="1.0" encoding="UTF-8"?>
<svg width="24px" height="24px" viewBox="0 0 24 24" version="1.1" xmlns="http://www.w3.org/2000/svg" xmlns:xlink="http://www.w3.org/1999/xlink">
    <title>Icon/Fill/education-fill</title>
    <g id="Icon/Fill/education-fill" stroke="none" stroke-width="1" fill="none" fill-rule="evenodd">
        <g id="Group" transform="translate(0.000000, 4.000000)" fill="#474747" fill-rule="nonzero">
            <path d="M12.2267303,9.14014684 L19.7407774,7.05753956 L19.7407774,12.9021686 L21.1036356,15.258014 L19.830746,15.9944239 L18.9943709,14.5682545 L18.1779889,15.9944239 L16.9050993,15.258014 L18.2679575,12.9021686 L18.2679575,11.3293836 C16.375091,12.5094063 14.190705,13.1382972 11.9601566,13.1454172 C9.21170944,13.1436527 6.54511839,12.2097585 4.39612693,10.4963407 L4.12288885,10.2764174 L4.12288885,7.13084734 L12.2267303,9.14014684 Z M23.4461523,3.09891964 L11.8935131,0 L11.8635236,0 L0.53413998,3.22887433 C0.217979406,3.31918786 0,3.60815381 0,3.93696081 C0,4.2657678 0.217979406,4.55473376 0.53413998,4.64504728 L11.8635236,7.87058944 L12.8065282,7.59068703 L16.8651133,6.48773821 L12.8098603,5.63137009 C12.622701,5.59455768 12.4568654,5.48718209 12.3466885,5.33147464 C12.2394055,5.16841121 12.2033011,4.96863347 12.2467233,4.77833415 C12.3315972,4.38281951 12.7208023,4.13080547 13.1164201,4.21519714 L19.7107878,5.61137706 L21.4401849,5.11155132 L23.4628131,4.52842128 C23.7802588,4.44039335 24,4.15142566 24,3.82200089 C24,3.49257611 23.7802588,3.20360842 23.4628131,3.1155805 L23.4461523,3.09891964 Z" id="Shape"></path>
        </g>
    </g>
</svg>