<?xml version="1.0" encoding="UTF-8"?>
<svg width="24px" height="24px" viewBox="0 0 24 24" version="1.1" xmlns="http://www.w3.org/2000/svg" xmlns:xlink="http://www.w3.org/1999/xlink">
    <title>Icon/Fill/elevator-fill</title>
    <g id="Icon/Fill/elevator-fill" stroke="none" stroke-width="1" fill="none" fill-rule="evenodd">
        <g id="Group" transform="translate(5.000000, 0.000000)" fill="#474747" fill-rule="nonzero">
            <path d="M10.4766826,0 L2.85668256,0 C1.27476764,0.00551404121 -0.00367261579,1.29141311 7.92710833e-06,2.87333333 L7.92710833e-06,21.1266667 C-0.00367261579,22.7085869 1.27476764,23.994486 2.85668256,24 L10.4766826,24 C12.0578317,23.9926554 13.3352027,22.7078318 13.3333512,21.1266667 L13.3333512,2.87333333 C13.3352027,1.29216819 12.0578317,0.00734463365 10.4766826,0 L10.4766826,0 Z M10.5933492,14.7533333 L7.28334922,20.5233333 C7.1616858,20.7394008 6.93298187,20.87309 6.68501589,20.87309 C6.43704991,20.87309 6.20834597,20.7394008 6.08668256,20.5233333 L2.78001589,14.7533333 C2.65649592,14.5393989 2.65613419,14.2759021 2.77906631,14.0616294 C2.90199844,13.8473566 3.12965358,13.7146772 3.37668256,13.7132882 L10.0000159,13.7132882 C10.2440023,13.7105419 10.4711439,13.8374366 10.5966826,14.0466667 C10.7225792,14.2657225 10.7213068,14.5354749 10.5933492,14.7533333 L10.5933492,14.7533333 Z M10.5933492,9.91666667 C10.4678106,10.1258967 10.240669,10.2527915 9.99668256,10.2500451 L3.37668256,10.2500451 C3.12965358,10.2486562 2.90199844,10.1159767 2.77906631,9.90170398 C2.65613419,9.68743122 2.65649592,9.42393442 2.78001589,9.21 L6.09001589,3.43666667 C6.21214334,3.22225219 6.43992623,3.08985291 6.68668256,3.08985291 C6.93343888,3.08985291 7.16122177,3.22225219 7.28334922,3.43666667 L10.5933492,9.21 C10.7202747,9.4284576 10.7202747,9.69820907 10.5933492,9.91666667 L10.5933492,9.91666667 Z" id="Shape"></path>
        </g>
    </g>
</svg>