<?xml version="1.0" encoding="UTF-8"?>
<svg width="24px" height="24px" viewBox="0 0 24 24" version="1.1" xmlns="http://www.w3.org/2000/svg" xmlns:xlink="http://www.w3.org/1999/xlink">
    <title>Icon/Fill/end-process-fill</title>
    <g id="Icon/Fill/end-process-fill" stroke="none" stroke-width="1" fill="none" fill-rule="evenodd">
        <g id="Group" transform="translate(-0.000000, -0.000000)" fill="#474747" fill-rule="nonzero">
            <g id="end-process">
                <path d="M17.214694,4.66398576 C15.7434475,3.61624223 13.9436359,3.00000001 12,3.00000001 C7.02975003,3.00000001 3.00000001,7.02975003 3.00000001,12 C3.00000001,13.9436359 3.61624223,15.7434475 4.66398576,17.214694 L17.214694,4.66398576 Z M19.3360144,6.78530611 L6.78530611,19.3360144 C8.25655256,20.3837579 10.0563642,21.0000001 12.0000001,21.0000001 C16.9702501,21.0000001 21.0000001,16.9702501 21.0000001,12.0000001 C21.0000001,10.0563642 20.3837579,8.25655256 19.3360144,6.78530611 Z M0,12 C0,5.37300002 5.37300002,0 12,0 C18.6270001,0 24,5.37300002 24,12 C24,18.6270001 18.6270001,24 12,24 C5.37300002,24 0,18.6270001 0,12 Z" id="Combined-Shape"></path>
            </g>
        </g>
    </g>
</svg>