<?xml version="1.0" encoding="UTF-8"?>
<svg width="24px" height="24px" viewBox="0 0 24 24" version="1.1" xmlns="http://www.w3.org/2000/svg" xmlns:xlink="http://www.w3.org/1999/xlink">
    <title>Icon/Fill/engagement-fill</title>
    <g id="Icon/Fill/engagement-fill" stroke="none" stroke-width="1" fill="none" fill-rule="evenodd">
        <g id="Group" transform="translate(0.000000, 1.000000)" fill="#474747" fill-rule="nonzero">
            <path d="M23.7870126,14.2189106 C23.1540267,13.389366 21.8847236,12.8863089 20.4555083,12.8863089 C19.0262929,12.8863089 17.7736473,13.3993605 17.124004,14.2189106 C16.8827529,14.5291099 16.8412765,14.9503553 17.0173958,15.3016495 C17.1919264,15.657337 17.5540182,15.8823512 17.950217,15.8813347 L22.9607995,15.8813347 C23.3567726,15.8815579 23.7184788,15.6567833 23.8936207,15.3016495 C24.0672835,14.9499038 24.0259423,14.5300318 23.7870126,14.2189106 Z" id="Path"></path>
            <path d="M18.736452,10.627549 C18.7310529,11.3294196 19.1496938,11.9651874 19.7965945,12.2375311 C20.4434952,12.5098748 21.1907988,12.3649669 21.6890235,11.8705747 C22.1872482,11.3761824 22.3379224,10.6300201 22.0705821,9.9810357 C21.8032419,9.3320513 21.1707257,8.90849274 20.4688343,8.90849274 C19.5179924,8.910274 18.7455756,9.67674921 18.736452,10.627549 Z" id="Path"></path>
            <path d="M3.54479249,12.8763143 C2.12890317,12.8763143 0.859600032,13.389366 0.2132882,14.2089161 C-0.0266806082,14.5224986 -0.0675461024,14.9452175 0.107910375,15.2989604 C0.283366853,15.6527033 0.644637568,15.8759626 1.03950126,15.8746738 L6.0367577,15.8746738 C6.43102094,15.8746738 6.79113007,15.6509472 6.96575118,15.2974632 C7.1403723,14.9439791 7.09923975,14.5220217 6.85963926,14.2089161 C6.22665344,13.389366 4.95735031,12.8763143 3.54479249,12.8763143 Z" id="Path"></path>
            <path d="M3.54479249,12.3599312 C4.50156078,12.3599312 5.27717472,11.5843172 5.27717472,10.627549 C5.27717472,9.67078067 4.50156078,8.89516672 3.54479249,8.89516672 C2.5880242,8.89516672 1.81241026,9.67078067 1.81241026,10.627549 C1.81424345,11.5835569 2.58878457,12.358098 3.54479249,12.3599312 Z" id="Path"></path>
            <path d="M14.3555239,6.98622036 C14.7503876,6.98750919 15.1116583,6.76424983 15.2871148,6.41050693 C15.4625713,6.05676404 15.4217058,5.63404512 15.181737,5.32046262 C14.5487512,4.49091805 13.2761165,3.98786091 11.8502327,3.98786091 C10.4243488,3.98786091 9.16504023,4.50091257 8.51872839,5.32046262 C8.27875959,5.63404512 8.23789409,6.05676404 8.41335057,6.41050693 C8.58880705,6.76424983 8.95007776,6.98750919 9.34494146,6.98622036 L14.3555239,6.98622036 Z" id="Path"></path>
            <path d="M11.8635587,3.46481473 C12.5645448,3.46481473 13.196444,3.04237068 13.4643874,2.39461471 C13.7323309,1.74685873 13.583504,1.00146958 13.0873552,0.506274849 C12.5912063,0.0110801211 11.845532,-0.136311691 11.198293,0.132878173 C10.551054,0.402068036 10.1298284,1.0347792 10.1311732,1.73576401 C10.1330139,2.691231 10.9080899,3.46481473 11.8635587,3.46481473 L11.8635587,3.46481473 Z" id="Path"></path>
            <path d="M12.1500681,19.4726928 C10.7375102,19.4726928 9.46487561,19.989076 8.81856378,20.8052946 C8.57859497,21.1188771 8.53772948,21.541596 8.71318595,21.8953389 C8.88864243,22.2490818 9.24991315,22.4723411 9.64477684,22.4710523 L14.6420333,22.4710523 C15.036897,22.4723411 15.3981677,22.2490818 15.5736242,21.8953389 C15.7490806,21.541596 15.7082151,21.1188771 15.4682463,20.8052946 C14.8352605,19.989076 13.5626259,19.4726928 12.1500681,19.4726928 Z" id="Path"></path>
            <path d="M10.4176858,17.2372535 C10.4176858,18.1940218 11.1932998,18.9696357 12.1500681,18.9696357 C13.1068364,18.9696357 13.8824503,18.1940218 13.8824503,17.2372535 C13.8824503,16.2804852 13.1068364,15.5048712 12.1500681,15.5048712 C11.1940601,15.5067044 10.419519,16.2812455 10.4176858,17.2372535 L10.4176858,17.2372535 Z" id="Path"></path>
            <path d="M3.85129088,7.80576482 C3.92684656,7.84723725 4.01163276,7.86900668 4.0978222,7.8690668 C4.27924521,7.86973335 4.44658241,7.77137484 4.53424926,7.61253757 C5.09968687,6.60562247 5.86223152,5.7229742 6.77635165,5.01729573 C6.93068701,4.91168452 7.0136995,4.72917653 6.99188041,4.54344269 C6.97006132,4.35770885 6.8470123,4.19940794 6.67240314,4.13243949 C6.49779398,4.06547105 6.30044713,4.10088943 6.16002336,4.22439771 C5.13977213,5.01168624 4.28976765,5.99769144 3.66139514,7.12280644 C3.52630824,7.36396795 3.61110724,7.66894682 3.85129088,7.80576482 Z" id="Path"></path>
            <path d="M17.2406066,5.01729573 C18.1537134,5.72310739 18.9151414,6.60577462 19.4793775,7.61253757 C19.5691994,7.77087384 19.7370968,7.868814 19.9191361,7.86906647 C20.0972969,7.86968634 20.2623148,7.77540968 20.3522562,7.62161688 C20.4421975,7.46782408 20.4434574,7.27777824 20.3555631,7.12280644 C19.7259873,5.99753927 18.8748662,5.01155352 17.8536034,4.22439771 C17.7119658,4.11489637 17.522669,4.08927571 17.3570193,4.1571868 C17.1913695,4.22509788 17.074533,4.3762234 17.0505209,4.55363582 C17.0265087,4.73104824 17.098969,4.90779441 17.2406066,5.01729573 L17.2406066,5.01729573 Z" id="Path"></path>
            <path d="M6.77635165,19.7158927 C5.86298357,19.0094199 5.10058198,18.1269372 4.53424926,17.1206508 C4.4649669,16.9352057 4.29274594,16.8081411 4.09511483,16.7966575 C3.89748373,16.7851739 3.71170498,16.8914364 3.62141034,17.0676091 C3.53111571,17.2437818 3.55332985,17.4566479 3.67805266,17.6103819 C4.30642518,18.7354969 5.15642966,19.7215021 6.17668088,20.5087907 C6.26450491,20.5767679 6.37212734,20.6142018 6.48317927,20.6153988 C6.6979257,20.6154677 6.88903751,20.4792102 6.95897332,20.2761708 C7.02890913,20.0731313 6.96224645,19.8480849 6.79300917,19.7158927 L6.77635165,19.7158927 Z" id="Path"></path>
            <path d="M20.1623359,16.9274236 C19.9244233,16.8020602 19.6299649,16.8874532 19.496035,17.1206508 C18.9309023,18.1267851 18.1696175,19.0092863 17.2572641,19.7158927 C17.151804,19.7969578 17.0830148,19.916723 17.0661314,20.0486637 C17.049248,20.1806045 17.0856637,20.3138319 17.1673135,20.4188401 C17.2609916,20.5433095 17.4079819,20.616187 17.5637625,20.6154051 C17.6749001,20.6146956 17.7826762,20.5772082 17.8702609,20.5087907 C18.8915237,19.7216349 19.7426448,18.7356491 20.3722207,17.6103819 C20.4364769,17.4922814 20.4504337,17.3532709 20.4109381,17.2247536 C20.3714426,17.0962363 20.2818269,16.9890554 20.1623359,16.9274236 Z" id="Path"></path>
        </g>
    </g>
</svg>