<?xml version="1.0" encoding="UTF-8"?>
<svg width="24px" height="24px" viewBox="0 0 24 24" version="1.1" xmlns="http://www.w3.org/2000/svg" xmlns:xlink="http://www.w3.org/1999/xlink">
    <title>Icon/Fill/exit-fill</title>
    <g id="Icon/Fill/exit-fill" stroke="none" stroke-width="1" fill="none" fill-rule="evenodd">
        <g id="Group" transform="translate(2.000000, 0.000000)" fill="#474747" fill-rule="nonzero">
            <path d="M15.04,15.92 L13.8633333,17.1033333 L15.8733333,19.1233333 L0,19.1233333 L0,20.7966667 L15.8733333,20.7966667 L13.8633333,22.8166667 L15.04,24 L19.0633333,19.96 L15.04,15.92 L15.04,15.92 Z M0,15.23 L4.33333333,15.23 L4.33333333,13.2766667 L2.24,13.2766667 L2.24,8.31333333 L4.23666667,8.31333333 L4.23666667,6.36 L2.24,6.36 L2.24,1.95333333 L4.33333333,1.95333333 L4.33333333,0 L0,0 L0,15.23 L0,15.23 Z M10.89,0 L8.61666667,0 L7.91666667,3.73 L7.21666667,0 L4.94,0 L6.71,7.57333333 L4.8,15.23 L7.07666667,15.23 L7.91666667,11.0933333 L8.75666667,15.23 L11.03,15.23 L9.16333333,7.57333333 L10.89,0 L10.89,0 Z M11.8466667,0 L14.0866667,0 L14.0866667,15.23 L11.8466667,15.23 L11.8466667,0 Z M14.9166667,0 L14.9166667,1.95333333 L16.3366667,1.95333333 L16.3366667,15.23 L18.58,15.23 L18.58,1.95333333 L20,1.95333333 L20,0 L14.9166667,0 L14.9166667,0 Z" id="Combined-Shape"></path>
        </g>
    </g>
</svg>