<?xml version="1.0" encoding="UTF-8"?>
<svg width="24px" height="24px" viewBox="0 0 24 24" version="1.1" xmlns="http://www.w3.org/2000/svg" xmlns:xlink="http://www.w3.org/1999/xlink">
    <title>Icon/Fill/expand-fill</title>
    <g id="Icon/Fill/expand-fill" stroke="none" stroke-width="1" fill="none" fill-rule="evenodd">
        <g id="Group" transform="translate(-0.000000, -0.000000)" fill="#474747" fill-rule="nonzero">
            <g id="expand">
                <path d="M0,0 L10.4996064,0 L10.4996064,4.50133122 L4.49983128,4.50133122 L4.49983128,10.4996064 L0,10.4996064 L0,0 Z M0,13.4994939 L4.49983128,13.4994939 L4.49983128,19.5007688 L10.4996064,19.5007688 L10.4996064,23.9991001 L0,23.9991001 L0,13.4994939 Z M19.4986689,13.4994939 L24.0000001,13.4994939 L24.0000001,23.9991001 L13.4988939,23.9991001 L13.4988939,19.5007688 L19.4986689,19.5007688 L19.4986689,13.4994939 Z M13.4994939,0 L23.9991001,0 L23.9991001,10.4996064 L19.5007688,10.4996064 L19.5007688,4.50133122 L13.4994939,4.50133122 L13.4994939,0 Z" id="Shape"></path>
            </g>
        </g>
    </g>
</svg>