<svg width="24" height="24" viewBox="0 0 24 24" fill="none" xmlns="http://www.w3.org/2000/svg">
<g id="Fill=true">
<g id="Vector">
<path d="M12.0033 24L0.663337 16.66C-0.216664 15.7833 -0.216664 14.3567 0.663337 13.4767C1.10334 13.0367 1.68 12.8167 2.25334 12.8167C2.82667 12.8167 3.21667 13.0333 3.84334 13.4767L12.0033 18.97L20.1634 13.4767C21.1867 12.8167 22.4667 12.6 23.3467 13.4767C24.2267 14.3567 24.2267 15.78 23.3467 16.66L12.0067 24H12.0033Z" fill="#474747"/>
<path d="M12.0033 0L23.3433 7.34C24.2233 8.21667 24.2233 9.64334 23.3433 10.5233C22.9033 10.9633 22.3267 11.1833 21.7533 11.1833C21.18 11.1833 20.79 10.9667 20.1633 10.5233L12.0033 5.03L3.84334 10.5233C2.82 11.1833 1.54 11.4 0.66 10.5233C-0.22 9.64334 -0.22 8.22001 0.66 7.34L12 0H12.0033Z" fill="#474747"/>
</g>
</g>
</svg>
