<?xml version="1.0" encoding="UTF-8"?>
<svg width="24px" height="24px" viewBox="0 0 24 24" version="1.1" xmlns="http://www.w3.org/2000/svg" xmlns:xlink="http://www.w3.org/1999/xlink">
    <title>Icon/Fill/extension-fill</title>
    <g id="Icon/Fill/extension-fill" stroke="none" stroke-width="1" fill="none" fill-rule="evenodd">
        <g id="Group" transform="translate(2.000000, 0.000000)" fill="#474747" fill-rule="nonzero">
            <g id="Fill-2">
                <path d="M13.1066667,8.42 L17.7266667,3.86333333 L17.7466667,6.71 C17.7466667,7.33224082 18.2510925,7.83666667 18.8733333,7.83666667 C19.4955742,7.83666667 20,7.33224082 20,6.71 L19.9666667,0 L13.2766667,0.0466666667 C12.6544259,0.0466666852 12.15,0.551092528 12.15,1.17333333 C12.15,1.79557414 12.6544259,2.29999998 13.2766667,2.3 L13.2766667,2.3 L16.1266667,2.28 L11.5,6.84333333 L13.1066667,8.42 Z" id="Path"></path>
                <path d="M0.0466666667,0 L6.73666667,0.0466666667 C7.35890747,0.0466666852 7.8633333,0.551092528 7.8633333,1.17333333 C7.8633333,1.79557414 7.35890747,2.29999998 6.73666667,2.3 L3.88666667,2.28 L11.3066667,9.61333333 L11.3066667,24 L9.30666667,24 L9.30666667,10.78 L2.27333333,3.86333333 L2.25333333,6.71 C2.25333333,7.33224082 1.74890748,7.83666667 1.12666667,7.83666667 C0.504425849,7.83666667 0,7.33224082 0,6.71 L0.0466666667,0 Z" id="Path"></path>
            </g>
        </g>
    </g>
</svg>