<svg width="24" height="24" viewBox="0 0 24 24" fill="none" xmlns="http://www.w3.org/2000/svg">
<g clip-path="url(#clip0_15805_63710)">
<path d="M21.0333 5.06333V5.87333C21.0333 6.69333 21.6967 7.35667 22.5167 7.35667C23.3367 7.35667 24 6.69333 24 5.87333V0H18.13C17.31 0 16.6467 0.663333 16.6467 1.48333C16.6467 2.30333 17.31 2.96667 18.13 2.96667H18.94L2.96667 18.9367V18.1267C2.96667 17.3067 2.30333 16.6433 1.48333 16.6433C0.663333 16.6433 0 17.31 0 18.13V24H5.87C6.69 24 7.35333 23.3367 7.35333 22.5167C7.35333 21.6967 6.69 21.0333 5.87 21.0333H5.06L21.0333 5.06333Z" fill="black"/>
</g>
<defs>
<clipPath id="clip0_15805_63710">
<rect width="24" height="24" fill="white"/>
</clipPath>
</defs>
</svg>
