<?xml version="1.0" encoding="UTF-8"?>
<svg width="24px" height="24px" viewBox="0 0 24 24" version="1.1" xmlns="http://www.w3.org/2000/svg" xmlns:xlink="http://www.w3.org/1999/xlink">
    <title>Icon/Fill/family-fill</title>
    <g id="Icon/Fill/family-fill" stroke="none" stroke-width="1" fill="none" fill-rule="evenodd">
        <g id="Group" transform="translate(-0.000000, 0.773333)" fill="#474747" fill-rule="nonzero">
            <g id="family-fill">
                <path d="M12,5.97666669 C13.6568543,5.97666669 15,7.31981245 15,8.97666669 C15,10.633521 13.6568543,11.9766667 12,11.9766667 C10.3431458,11.9766667 9.00000004,10.633521 9.00000004,8.97666669 C9.00217466,7.32071402 10.3440474,5.97884129 12,5.97666669 Z M5.10666669,10.0266667 C6.34930738,10.0266667 7.35666668,11.0340261 7.35666668,12.2766667 C7.35666668,13.5193074 6.34930738,14.5266667 5.10666669,14.5266667 C3.864026,14.5266667 2.85666668,13.5193074 2.85666668,12.2766667 C2.85666668,11.0340261 3.864026,10.0266667 5.10666669,10.0266667 Z M19.6300001,10.0266667 C20.8726408,10.0266667 21.88,11.0340261 21.88,12.2766667 C21.88,13.5193074 20.8726408,14.5266667 19.6300001,14.5266667 C18.3873594,14.5266667 17.38,13.5193074 17.38,12.2766667 C17.382192,11.0349351 18.3882685,10.0288587 19.6300001,10.0266667 Z M2.25000001,22.4766668 L2.25000001,16.2618928 C3.68383016,15.7335673 5.23963273,15.592979 6.75000001,15.8552554 L6.75000001,22.4766668 L2.25000001,22.4766668 Z M8.25000003,22.4766667 L8.25000003,14.190839 C9.42737651,13.7078698 10.687824,13.4653129 11.9585361,13.477179 C13.259799,13.463629 14.5500574,13.7190341 15.75,14.2276947 L15.75,22.4766667 L8.25000003,22.4766667 Z M21.7500001,22.4766668 L17.2500001,22.4766668 L17.2500001,15.8551071 C18.7603128,15.5930658 20.3157067,15.7336203 21.7500001,16.2617535 L21.7500001,22.4766668 Z M0,5.31761008 L11.98,-1.33226763e-15 L24,5.30188681 L22.9266668,7.5 L12,2.67295599 L1.10666667,7.5 L0,5.31761008 Z" id="Combined-Shape"></path>
            </g>
        </g>
    </g>
</svg>