<?xml version="1.0" encoding="UTF-8"?>
<svg width="24px" height="24px" viewBox="0 0 24 24" version="1.1" xmlns="http://www.w3.org/2000/svg" xmlns:xlink="http://www.w3.org/1999/xlink">
    <title>Icon/Fill/female-symbol-fill</title>
    <g id="Icon/Fill/female-symbol-fill" stroke="none" stroke-width="1" fill="none" fill-rule="evenodd">
        <g id="Group" transform="translate(4.000000, 0.000000)" fill="#474747" fill-rule="nonzero">
            <path d="M16.373152,8.19719763 C16.3788464,3.84796325 12.9826033,0.253499635 8.64003377,0.0127463498 C4.29746424,-0.228006935 0.524699799,2.96900487 0.0495985578,7.2922156 C-0.425502684,11.6154263 2.56293249,15.5554633 6.85414708,16.2635237 L6.85414708,18.4691858 L3.02922253,18.4691858 L3.02922253,21.1346384 L6.85414708,21.1346384 L6.85414708,24 L9.51959972,24 L9.51959972,21.1512975 L13.3345288,21.1512975 L13.3345288,18.4858448 L9.51959972,18.4858448 L9.51959972,16.2635237 C13.4682068,15.6106032 16.3665175,12.1994169 16.373152,8.19719763 L16.373152,8.19719763 Z M2.67938187,8.19719763 C2.67938187,5.15549405 5.14516982,2.6897061 8.1868734,2.6897061 C11.228577,2.6897061 13.6943649,5.15549405 13.6943649,8.19719763 C13.6943649,11.2389012 11.228577,13.7046892 8.1868734,13.7046892 C5.146692,13.7010174 2.68305359,11.237379 2.67938187,8.19719763 L2.67938187,8.19719763 Z" id="Shape"></path>
        </g>
    </g>
</svg>