<svg width="24" height="24" viewBox="0 0 24 24" fill="none" xmlns="http://www.w3.org/2000/svg">
<g clip-path="url(#clip0_15805_63712)">
<path d="M12.5357 0.721666L12.379 0.601666C11.8857 0.275 11.5123 0.128333 11.2723 0.058333L11.2323 0.0449996L11.1357 0.018333L11.0223 -0.00166702L11.0923 0.125C11.1223 0.181666 11.1523 0.241666 11.179 0.301666C11.359 0.705 11.4557 1.185 11.4557 1.69167C11.4557 2.11833 11.3857 2.535 11.2523 2.905C10.889 4.345 9.84567 5.85833 8.739 7.465C6.07233 11.3383 2.75233 16.155 8.50567 21.7883L9.93233 23.185L9.76567 21.2017C9.48233 17.8283 10.8057 16.2817 12.089 14.7783C12.549 14.2383 13.0257 13.6817 13.409 13.0517C14.1023 14.865 14.1357 16.7217 13.5123 18.575V18.595C13.4957 18.635 13.4857 18.675 13.4757 18.7183C12.869 20.975 11.969 22.6483 10.809 23.695C10.8023 23.7017 10.799 23.705 10.789 23.715L10.5023 24.0017L12.4557 23.035C16.1857 21.1917 18.2557 18.415 18.6123 14.785C19.1857 8.95833 15.0257 2.62833 12.5357 0.721666Z" fill="black"/>
</g>
<defs>
<clipPath id="clip0_15805_63712">
<rect width="24" height="24" fill="white"/>
</clipPath>
</defs>
</svg>
