<?xml version="1.0" encoding="UTF-8"?>
<svg width="24px" height="24px" viewBox="0 0 24 24" version="1.1" xmlns="http://www.w3.org/2000/svg" xmlns:xlink="http://www.w3.org/1999/xlink">
    <title>Icon/Fill/fire-extinguisher-fill</title>
    <g id="Icon/Fill/fire-extinguisher-fill" stroke="none" stroke-width="1" fill="none" fill-rule="evenodd">
        <g id="Group" transform="translate(7.000000, 0.000000)" fill="#474747" fill-rule="nonzero">
            <path d="M5.2929216,2.38807061 L10.0055229,3.17850692 L10.0055229,0.346943947 L5.2929216,1.13738025 L5.2929216,0.667120679 C5.2929216,0.298727499 4.99427992,4.23305151e-05 4.62588674,4.23305151e-05 L4.18230856,4.23305151e-05 C3.89988359,-0.00312655912 3.64605009,0.171884961 3.54862544,0.436993653 C2.0716228,0.547591694 0.83802206,1.60554282 0.503611318,3.04843512 C0.459884857,3.24217961 0.495108322,3.4453613 0.60149814,3.61308172 C0.707887958,3.78080214 0.876685692,3.89925387 1.07059095,3.94226183 C1.12406051,3.95549077 1.17893278,3.96220982 1.23401449,3.96227288 C1.5847395,3.9613379 1.88803852,3.71759074 1.96441766,3.3752822 C2.13157475,2.62498112 2.74209633,2.05418979 3.501933,1.93782208 L3.501933,3.75882724 C3.50127504,3.8944854 3.54199601,4.02711941 3.6186641,4.13903711 C1.53115235,4.52888076 0.0134449629,6.34453439 0,8.46809334 L0,24 L8.95827814,24 L8.95827814,8.46809334 C8.93533053,6.29417108 7.33908256,4.45777961 5.18953119,4.13236676 C5.25709662,4.02560465 5.29295112,3.90184881 5.2929216,3.77550312 L5.2929216,2.38807061 Z M4.14228647,10.0156142 L4.53583703,10.4091648 C5.7465053,11.6231682 6.29347388,12.7437868 6.16340208,13.7643501 C6.06001168,14.5914733 5.49636723,15.311871 4.49581494,15.905532 L3.59865306,16.4391599 L4.20565478,15.598696 C4.20565478,15.598696 5.07280009,14.374687 4.67591435,13.4074865 C4.54490629,13.5640263 4.39853888,13.7070418 4.23900652,13.8343888 C3.90548909,14.1178786 3.66869172,14.3213242 3.68536759,15.101755 L3.68536759,15.8154823 L3.27180598,15.2284916 C2.18120398,13.6709652 2.85157402,12.8305013 3.44189987,12.0867574 C3.81210421,11.6231682 4.15896234,11.1829252 4.13895129,10.565918 L4.14228647,10.0156142 Z" id="Shape"></path>
        </g>
    </g>
</svg>