<?xml version="1.0" encoding="UTF-8"?>
<svg width="24px" height="24px" viewBox="0 0 24 24" version="1.1" xmlns="http://www.w3.org/2000/svg" xmlns:xlink="http://www.w3.org/1999/xlink">
    <title>Icon/Fill/firehose-fill</title>
    <g id="Icon/Fill/firehose-fill" stroke="none" stroke-width="1" fill="none" fill-rule="evenodd">
        <g id="Group" transform="translate(3.000000, 0.000000)" fill="#474747" fill-rule="nonzero">
            <path d="M16.5289294,18.5557733 L15.6052042,24 L13.8694128,24 L12.9456876,18.5557733 M3.55617294,13.2502746 L3.55617294,1.64111247 C3.55617294,0.734785406 2.82144969,6.2155827e-05 1.91512263,6.2155827e-05 L1.6376667,6.2155827e-05 C0.732661304,0.0019281503 0,0.736105145 0,1.64111247 L0,13.2502746 C0,14.1547329 0.733208357,14.8879448 1.6376667,14.8879448 L1.91512263,14.8879448 C2.3500448,14.8888399 2.76746152,14.7166973 3.0753158,14.4094777 C3.38317009,14.1022582 3.55617294,13.6851977 3.55617294,13.2502746 Z M7.86012345,13.2502746 L7.86012345,1.64111247 C7.86012345,0.737421605 7.12952353,0.00378871605 6.22584035,6.2155827e-05 L5.94838443,6.2155827e-05 C5.04337903,0.0019281503 4.31071772,0.736105145 4.31071772,1.64111247 L4.31071772,13.2502746 C4.31071772,14.1547329 5.04392608,14.8879413 5.94838443,14.8879413 L6.22584035,14.8879413 C7.12897704,14.8860753 7.86012345,14.1534132 7.86012345,13.2502746 Z M12.1606903,13.2502746 L12.1606903,1.64111247 C12.1606903,0.736105145 11.428029,0.0019281503 10.5230236,3.0717048e-05 L10.2455677,3.0717048e-05 C9.808578,-0.00264092509 9.38855794,0.169060911 9.07860238,0.477111008 C8.76864681,0.785161105 8.59436658,1.2041144 8.59436658,1.64111247 L8.59436658,13.2502746 C8.59436658,14.1547329 9.32757493,14.8879973 10.2320333,14.8879973 L10.5094892,14.8879973 C10.9461657,14.8915503 11.3661981,14.7206055 11.6762537,14.4130913 C11.9863092,14.1055772 12.1606903,13.686966 12.1606903,13.2502746 Z M16.4747917,14.6950756 L16.4747917,1.64111247 C16.4747917,0.736105145 15.7421304,0.0019281503 14.837125,6.2155827e-05 L14.5495182,6.2155827e-05 C13.6431912,6.2155827e-05 12.9084679,0.734785406 12.9084679,1.64111247 L12.9084679,14.6950756 L12.9084679,15.1112595 L16.4747917,15.1112595 L16.4747917,14.6950756 Z M11.5279554,16.6135818 L11.5279554,17.0399165 C11.5279554,17.4136596 11.8309341,17.7166383 12.2046773,17.7166383 L17.2564053,17.7166383 C17.6301484,17.7166383 17.9331271,17.4136596 17.9331271,17.0399165 L17.9331271,16.6135818 C17.9331271,16.2398387 17.6301484,15.93686 17.2564053,15.93686 L12.180992,15.93686 C11.8165299,15.9496239 11.527732,16.2488963 11.5279554,16.6135818 Z" id="Shape"></path>
        </g>
    </g>
</svg>