<?xml version="1.0" encoding="UTF-8"?>
<svg width="24px" height="24px" viewBox="0 0 24 24" version="1.1" xmlns="http://www.w3.org/2000/svg" xmlns:xlink="http://www.w3.org/1999/xlink">
    <title>Icon/Fill/fire-exit-fill</title>
    <g id="Icon/Fill/fire-exit-fill" stroke="none" stroke-width="1" fill="none" fill-rule="evenodd">
        <g id="Group" transform="translate(0.000000, 3.000000)" fill="#474747" fill-rule="nonzero">
            <path d="M3.72694119,0 C5.83691261,1.6099782 10.6668472,9.66653577 3.7502742,13.1131558 C3.7502742,13.1131558 6.75023358,10.0198643 4.51693049,6.18324961 C4.07026987,8.20322225 1.51697111,8.74321494 1.8303002,12.4264984 C-3.3929624,7.28323471 4.28026703,3.57661824 3.72694119,0 Z" id="Path"></path>
            <path d="M7.45355739,4.73660253 C8.37687822,7.55656434 8.30354588,10.9131856 5.00025728,12.9664911 L5.00025728,18.3330851 L24,18.3330851 L24,4.73660253 L7.45355739,4.73660253 Z M11.6468339,13.833146 L8.55020921,13.833146 L8.55020921,8.69988219 L11.5301689,8.69988219 L11.5301689,9.46653848 L9.48686319,9.46653848 L9.48686319,10.7998538 L11.4168371,10.7998538 L11.4168371,11.5598435 L9.48686319,11.5598435 L9.48686319,13.0598232 L11.6468339,13.0598232 L11.6468339,13.833146 Z M15.2134523,13.833146 L14.666793,12.80316 C14.446796,12.409832 14.3034646,12.1365023 14.1568,11.8365064 L14.1334669,11.8365064 C13.9941381,12.166308 13.8383899,12.4889295 13.6668066,12.80316 L13.1501469,13.833146 L12.0801614,13.833146 L13.6001408,11.2431811 L12.1401606,8.69988219 L13.2134794,8.69988219 L13.7668052,9.75320126 C13.9334696,10.0865301 14.0568013,10.3231935 14.1934661,10.6131896 L14.1934661,10.6131896 C14.3334642,10.2798608 14.4367962,10.0665304 14.596794,9.75320126 L15.1467865,8.69988219 L16.2167721,8.69988219 L14.7334588,11.1998483 L16.2934377,13.833146 L15.2134523,13.833146 Z M17.9200823,13.833146 L17.0000948,13.833146 L17.0000948,8.69988219 L17.9367488,8.69988219 L17.9200823,13.833146 Z M22.3833552,9.49987136 L20.9067086,9.49987136 L20.9067086,13.833146 L19.9733879,13.833146 L19.9733879,9.49987136 L18.5134076,9.49987136 L18.5134076,8.69988219 L22.3833552,8.69988219 L22.3833552,9.49987136 Z" id="Shape"></path>
        </g>
    </g>
</svg>