<svg width="24" height="24" viewBox="0 0 24 24" fill="none" xmlns="http://www.w3.org/2000/svg">
<g clip-path="url(#clip0_15805_63719)">
<path d="M5.29401 20.4073L4.30401 21.9273C4.12401 22.204 4.09401 22.5507 4.22401 22.854C4.29401 23.0207 4.38067 23.1907 4.46401 23.294L4.58401 23.4073C4.72401 23.5107 5.06401 23.574 5.37401 23.614C5.75067 23.6607 6.12067 23.494 6.32734 23.1773L7.36067 21.604L7.43401 21.494L12.004 14.5407L16.864 21.8873L16.9573 22.0273L17.744 23.2173C17.904 23.4607 18.1673 23.6073 18.4573 23.6507C18.7873 23.704 19.1307 23.6173 19.4207 23.404L19.5373 23.294C19.6173 23.1973 19.704 23.0373 19.784 22.8773C19.934 22.564 19.9107 22.1973 19.7207 21.9073L19.004 20.814L18.9173 20.684L13.4473 12.334L14.6673 10.4773L22.7907 10.494C23.254 10.494 23.6307 10.2707 23.8507 9.864C24.0607 9.474 24.044 9.004 23.8007 8.634L18.4107 0.334001L12.004 10.114L5.59734 0.334001L0.200673 8.62733C-0.04266 8.99733 -0.06266 9.47067 0.150673 9.86067C0.370673 10.2673 0.74734 10.4873 1.21067 10.4873L9.33401 10.4707L10.554 12.3273L5.36734 20.294" fill="black"/>
</g>
<defs>
<clipPath id="clip0_15805_63719">
<rect width="24" height="24" fill="white"/>
</clipPath>
</defs>
</svg>
