<svg width="24" height="24" viewBox="0 0 24 24" fill="none" xmlns="http://www.w3.org/2000/svg">
<g clip-path="url(#clip0_15805_63730)">
<path d="M15.3019 4.46333L14.1819 3.34L17.0919 0.42C17.6519 -0.14 18.5619 -0.14 19.1252 0.42L23.5819 4.88C24.1419 5.44 24.1419 6.35333 23.5819 6.91333L20.6719 9.83667L19.5519 8.71667M19.7752 13.09L19.6719 13.1933L9.24187 23.58C8.96187 23.86 8.5952 24 8.2252 24C7.8552 24 7.48854 23.86 7.20854 23.58L0.418535 16.79C0.148535 16.52 -0.00146484 16.1567 -0.00146484 15.7733C-0.00146484 15.39 0.148535 15.0267 0.418535 14.7567L10.9619 4.25333L19.7685 13.0867L19.7752 13.09ZM0.425202 14.76L10.9685 4.25667ZM19.7752 13.09L19.6719 13.1933L9.24187 23.58M19.1585 3.33333L17.2619 1.43333L15.8852 2.81L17.7819 4.71L19.1585 3.33333ZM22.5552 6.73L20.6585 4.83L19.2819 6.20667L21.1785 8.10667L22.5552 6.73Z" fill="black"/>
</g>
<defs>
<clipPath id="clip0_15805_63730">
<rect width="24" height="24" fill="white"/>
</clipPath>
</defs>
</svg>
