<svg width="24" height="24" viewBox="0 0 24 24" fill="none" xmlns="http://www.w3.org/2000/svg">
<path d="M12.7613 21.8333C13.918 22.1533 15.4313 21.9133 16.7413 21.2133C18.508 20.2667 19.3646 18.8033 19.3313 17.34L19.3213 16.9633L19.0146 16.7467C17.8246 15.9033 16.148 15.8133 14.378 16.7633C13.7613 17.0933 13.2113 17.5067 12.758 17.98V14.0967C13.6946 13.79 14.3713 12.94 14.3713 11.9367V11.9267C13.3646 11.0433 12.3646 8.95333 11.8913 7.88333C11.078 8.94 9.78797 10.7767 9.6413 11.7767L9.6313 11.85C9.6313 11.88 9.62464 11.91 9.62464 11.9367C9.62464 12.9533 10.318 13.8167 11.2746 14.11V16.4633C10.9613 16.09 10.6013 15.7433 10.2046 15.44C8.60797 14.2233 6.46797 13.7667 5.15797 14.41L4.8213 14.5767L4.75464 14.9467C4.4913 16.3867 5.24464 18.2433 6.8413 19.46C8.1213 20.4367 10.0113 20.91 11.278 20.6667V22.5067H4.66797V24H19.3313V22.5067H12.7646V21.8333H12.7613Z" fill="black"/>
<path d="M6.48797 6.67333C6.48797 6.67333 6.50464 6.68 6.5113 6.68667C7.79797 6.28333 10.1613 6.48667 11.3613 6.62667C10.8213 5.41333 9.82797 3.44333 9.0113 2.82L8.94797 2.77333C8.9213 2.75667 8.89797 2.73667 8.8713 2.72333C7.73464 2.08667 6.27464 2.46333 5.61797 3.56C5.30797 4.08 5.2213 4.68667 5.37797 5.26667C5.53797 5.86333 5.9313 6.36333 6.48464 6.67333H6.48797Z" fill="black"/>
<path d="M8.8713 11.4967C8.8713 11.4967 8.88464 11.49 8.8913 11.4867C8.89464 11.4667 8.9013 11.4467 8.90797 11.43C9.22463 10.1533 10.5346 8.34 11.2513 7.41667C9.8913 7.26333 7.61797 7.10667 6.64797 7.48333L6.57464 7.51333C6.54464 7.52667 6.51463 7.53667 6.48797 7.55333C5.93464 7.86333 5.5413 8.36333 5.3813 8.96C5.22464 9.54 5.3113 10.1467 5.6213 10.6667C6.27797 11.7633 7.73464 12.14 8.87464 11.5033L8.8713 11.4967Z" fill="black"/>
<path d="M12.108 6.34C12.9213 5.28333 14.2113 3.44667 14.358 2.44667L14.368 2.37C14.368 2.34 14.3746 2.31 14.3746 2.28333C14.3746 1.02333 13.308 0 12.0013 0C10.6946 0 9.62464 1.02333 9.62464 2.28333V2.29333C10.6313 3.17667 11.6346 5.26667 12.1046 6.33667L12.108 6.34Z" fill="black"/>
<path d="M17.5146 7.54667C17.5146 7.54667 17.498 7.53667 17.488 7.53333C16.9246 7.71 16.158 7.77 15.368 7.77C14.3546 7.77 13.3113 7.67 12.638 7.59333C13.178 8.80667 14.1713 10.7767 14.988 11.4L15.0513 11.4467C15.078 11.4633 15.1013 11.4833 15.128 11.4967C16.268 12.1333 17.7246 11.7567 18.3813 10.66C18.6913 10.14 18.778 9.53333 18.6213 8.95333C18.4613 8.35667 18.068 7.85667 17.5146 7.54667Z" fill="black"/>
<path d="M17.358 6.74L17.4346 6.71C17.4613 6.69667 17.4913 6.68667 17.518 6.67333C18.0713 6.36333 18.4646 5.86333 18.6246 5.26667C18.7813 4.68667 18.6946 4.08 18.3846 3.56C17.728 2.46333 16.2713 2.08667 15.1313 2.72333C15.1246 2.72667 15.118 2.73 15.1113 2.73333C15.108 2.75667 15.098 2.78 15.0946 2.8C14.7746 4.07667 13.468 5.88333 12.7513 6.80667C14.108 6.96 16.3846 7.11667 17.3546 6.74H17.358Z" fill="black"/>
</svg>
