<?xml version="1.0" encoding="UTF-8"?>
<svg width="24px" height="24px" viewBox="0 0 24 24" version="1.1" xmlns="http://www.w3.org/2000/svg" xmlns:xlink="http://www.w3.org/1999/xlink">
    <title>Icon/Fill/fnb-fill</title>
    <g id="Icon/Fill/fnb-fill" stroke="none" stroke-width="1" fill="none" fill-rule="evenodd">
        <g id="Group" transform="translate(-0.000000, -0.000000)" fill="#474747" fill-rule="nonzero">
            <g id="f&amp;b-fill">
                <path d="M19.4227388,0 C17.2330502,0.00322324388 15.3644697,1.58422189 14.9987144,3.74314976 L5.55282452,3.74314976 L4.35049958,0.567949075 C4.24111682,0.277727778 3.96316773,0.0858105514 3.65301826,0.0863548301 L0.74684609,0.0863548301 L0.74684609,1.58095766 L3.13821061,1.58095766 L3.9585815,3.74314976 L0.74684609,3.74314976 C0.4600896,3.74332705 0.1987237,3.90757554 0.0741753128,4.1658719 C-0.050373074,4.42416828 -0.0161360325,4.73095407 0.162290317,4.95543871 L9.33583031,16.5070579 L9.33583031,22.5087186 L6.09088154,22.5087186 L6.09088154,24 L14.0620966,24 L14.0620966,22.5087186 L10.8304332,22.5087186 L10.8304332,16.5070579 L17.2505827,8.42291726 C17.9148574,8.79197479 18.6628348,8.98411571 19.4227388,8.98090234 C21.80435,8.85121586 23.6690319,6.88223344 23.6690319,4.49709384 C23.6690319,2.11195425 21.80435,0.142971862 19.4227388,0.0132853585 L19.4227388,0 Z M15.6762677,5.23775258 L17.8749945,5.23775258 L14.9455729,8.92111819 L7.51573623,8.92111819 L6.1207736,5.23775258 L15.6762677,5.23775258 Z M4.52320924,5.23775258 L5.91817188,8.92111819 L5.21736922,8.92111819 L2.29126901,5.23775258 L4.52320924,5.23775258 Z" id="Shape"></path>
            </g>
        </g>
    </g>
</svg>