<svg width="24" height="24" viewBox="0 0 24 24" fill="none" xmlns="http://www.w3.org/2000/svg">
<g clip-path="url(#clip0_15805_63728)">
<path d="M22.5 23.25H1.5C0.673333 23.25 0 22.5767 0 21.75V6.75H13V13.3933L11.05 11.4433C10.6167 11.0267 9.92667 11.0367 9.51 11.47C9.10333 11.8933 9.10333 12.56 9.51 12.9833L14.09 17.5633L18.67 12.9833C19.1 12.56 19.1033 11.87 18.6833 11.44C18.26 11.01 17.57 11.0067 17.14 11.4267C17.1367 11.43 17.13 11.4367 17.1267 11.44L15.18 13.39V6.74667H13V3.63667H15.18V6.74667H22.5C23.3267 6.74667 24 7.42 24 8.24667V21.7467C24 22.5767 23.33 23.2467 22.5 23.25ZM9 3.74667H0V2.25C0 1.42333 0.673333 0.75 1.5 0.75H7.5C8.32667 0.75 9 1.42333 9 2.25V3.75V3.74667Z" fill="black"/>
</g>
<defs>
<clipPath id="clip0_15805_63728">
<rect width="24" height="24" fill="white"/>
</clipPath>
</defs>
</svg>
