<?xml version="1.0" encoding="UTF-8"?>
<svg width="24px" height="24px" viewBox="0 0 24 24" version="1.1" xmlns="http://www.w3.org/2000/svg" xmlns:xlink="http://www.w3.org/1999/xlink">
    <title>Icon/Fill/folder-add-fill</title>
    <g id="Icon/Fill/folder-add-fill" stroke="none" stroke-width="1" fill="none" fill-rule="evenodd">
        <g id="Group" transform="translate(0.000000, 1.000000)" fill="#474747" fill-rule="nonzero">
            <path d="M22.5,22.5 L1.5,22.5 C0.672333382,22.4981668 0.00183315539,21.8276666 0,21 L0,6 L22.5,6 C23.3276666,6.00183316 23.9981668,6.67233338 24,7.5 L24,21 C23.9981668,21.8276666 23.3276666,22.4981668 22.5,22.5 L22.5,22.5 Z M9,3 L0,3 L0,1.5 C0.00183315539,0.672333382 0.672333382,0.00183315539 1.5,0 L7.5,0 C8.32766662,0.00183315539 8.99816684,0.672333382 9,1.5 L9,3 Z M6.60666667,19.63 L16.7466667,11.44 L16.7766667,15.9866667 C16.7766667,16.4008802 17.1124531,16.7366667 17.5266667,16.7366667 C17.9408802,16.7366667 18.2766667,16.4008802 18.2766667,15.9866667 L18.2333333,8.87 L11.1233333,8.91666667 C10.7091198,8.91666667 10.3733333,9.2524531 10.3733333,9.66666667 C10.3733333,10.0808802 10.7091198,10.4166667 11.1233333,10.4166667 L15.6666667,10.3833333 L5.72333333,18.5233333 L6.60666667,19.63 Z" id="Shape"></path>
        </g>
    </g>
</svg>