<svg width="24" height="24" viewBox="0 0 24 24" fill="none" xmlns="http://www.w3.org/2000/svg">
<g clip-path="url(#clip0_15805_63734)">
<path d="M22.5 23.25H1.5C0.673333 23.25 0 22.5767 0 21.75V6.75H22.5C23.3267 6.75 24 7.42333 24 8.25V21.75C24 22.58 23.33 23.25 22.5 23.25ZM7.36 14.3233V15.8967H11.0033V19.54H12.5767V15.8967H16.22V14.3233H12.5767V10.68H11.0033V14.3233H7.36ZM9 3.75H0V2.25C0 1.42333 0.673333 0.75 1.5 0.75H7.5C8.32667 0.75 9 1.42333 9 2.25V3.75Z" fill="black"/>
</g>
<defs>
<clipPath id="clip0_15805_63734">
<rect width="24" height="24" fill="white"/>
</clipPath>
</defs>
</svg>
