<?xml version="1.0" encoding="UTF-8"?>
<svg width="24px" height="24px" viewBox="0 0 24 24" version="1.1" xmlns="http://www.w3.org/2000/svg" xmlns:xlink="http://www.w3.org/1999/xlink">
    <title>Icon/Fill/folder-opened-fill</title>
    <g id="Icon/Fill/folder-opened-fill" stroke="none" stroke-width="1" fill="none" fill-rule="evenodd">
        <g id="Group" transform="translate(-0.000000, 1.500000)" fill="#474747" fill-rule="nonzero">
            <g id="folder-opened">
                <path d="M10.5,3 L21,3 C21.8284272,3 22.5,3.67157289 22.5,4.5 L22.5,6 L1.50000001,6 L1.50000001,3 L1.50000001,1.5 C1.50000001,0.672000003 2.17200001,0 3.00000001,0 L9.00000001,0 C9.82800004,0 10.5,0.672000003 10.5,1.5 L10.5,3 Z M0.755601918,7.50000003 L23.2444648,7.50000003 C23.6617354,7.50000003 24,7.83578651 24,8.25000003 C24,8.27767143 23.9984574,8.30532153 23.995379,8.33282366 L22.7720291,19.2623098 C22.7023043,19.8852346 22.6180028,20.1051494 22.4780296,20.3249175 C22.3380563,20.5446857 22.1481032,20.7134564 21.9126096,20.8272849 C21.6771161,20.9411135 21.4476237,21 20.8162397,21 L3.18382697,21 C2.55244302,21 2.32295067,20.9411135 2.08745713,20.8272849 C1.85196359,20.7134564 1.6620104,20.5446857 1.52203714,20.3249175 C1.38206388,20.1051494 1.29776236,19.8852346 1.22803767,19.2623098 L0.0046876869,8.33282366 C-0.0413921441,7.92114356 0.257448525,7.55032946 0.672167005,7.50458726 C0.699872101,7.50153146 0.72772633,7.50000003 0.755601918,7.50000003 Z" id="Combined-Shape"></path>
            </g>
        </g>
    </g>
</svg>