<?xml version="1.0" encoding="UTF-8"?>
<svg width="24px" height="24px" viewBox="0 0 24 24" version="1.1" xmlns="http://www.w3.org/2000/svg" xmlns:xlink="http://www.w3.org/1999/xlink">
    <title>Icon/Fill/folder-delete-fill</title>
    <g id="Icon/Fill/folder-delete-fill" stroke="none" stroke-width="1" fill="none" fill-rule="evenodd">
        <g id="Group" transform="translate(0.000000, 1.000000)" fill="#474747" fill-rule="nonzero">
            <path d="M22.5,22.5 L1.5,22.5 C0.672333382,22.4981668 0.00183315539,21.8276666 0,21 L0,6 L22.5,6 C23.3276666,6.00183316 23.9981668,6.67233338 24,7.5 L24,21 C23.9981668,21.8276666 23.3276666,22.4981668 22.5,22.5 L22.5,22.5 Z M9,3 L0,3 L0,1.5 C0.00183315539,0.672333382 0.672333382,0.00183315539 1.5,0 L7.5,0 C8.32766662,0.00183315539 8.99816684,0.672333382 9,1.5 L9,3 Z M5.79,9.97666667 L15.75,18.1166667 L11.2,18.0866667 C10.7857864,18.0866667 10.45,18.4224531 10.45,18.8366667 C10.45,19.2508802 10.7857864,19.5866667 11.2,19.5866667 L18.3066667,19.63 L18.3333333,12.52 C18.3333333,12.1057864 17.9975469,11.77 17.5833333,11.77 C17.1691198,11.77 16.8333333,12.1057864 16.8333333,12.52 L16.8033333,17.0666667 L6.66666667,8.87 L5.79,9.97666667 Z" id="Shape"></path>
        </g>
    </g>
</svg>