<?xml version="1.0" encoding="UTF-8"?>
<svg width="24px" height="24px" viewBox="0 0 24 24" version="1.1" xmlns="http://www.w3.org/2000/svg" xmlns:xlink="http://www.w3.org/1999/xlink">
    <title>Icon/Rich text editor/strikethrough</title>
    <g id="Icon/Rich-text-editor/strikethrough" stroke="none" stroke-width="1" fill="none" fill-rule="evenodd">
        <path d="M11.8593467,22.7499481 C13.9218418,22.7499481 15.6093378,22.2343244 16.9218347,21.2030768 C18.3280813,20.0780795 19.0312046,18.5468329 19.0312046,16.6093378 C19.0312046,15.5155906 18.7812055,14.5624674 18.2812064,13.7499696 L18.2812064,13.7499696 L13.6874674,13.7499696 C14.4687157,14.1249687 15.0312144,14.5468427 15.3749633,15.0155916 C15.8124621,15.5468401 16.0312118,16.1718391 16.0312118,16.8905871 C16.0312118,17.8905845 15.6484,18.6718329 14.882777,19.2343315 C14.1171541,19.7968302 13.109344,20.0780795 11.8593467,20.0780795 C10.796849,20.0780795 9.87497669,19.89058 9.09372832,19.5155809 C8.15623055,19.046832 7.68748167,18.3749588 7.68748167,17.4999607 C7.68748167,17.2812109 7.61716934,17.1015241 7.47654467,16.9608994 C7.33592001,16.8202748 7.15623318,16.7499696 6.93748346,16.7499696 L6.93748346,16.7499696 L5.71873637,16.7499696 C5.49998665,16.7499696 5.32029982,16.8202748 5.17967515,16.9608994 C5.03905049,17.1015241 4.96873815,17.2812109 4.96873815,17.4999607 L4.96873815,17.4999607 L4.96873815,18.2499589 C4.96873815,19.6562055 5.70311164,20.7812028 7.1718579,21.6249508 C8.48435477,22.374949 10.0468508,22.7499481 11.8593467,22.7499481 Z M23.4374441,12.9999714 C23.5936935,12.9999714 23.7265062,12.9452838 23.8358807,12.8359093 C23.9452552,12.7265348 23.9999428,12.5937221 23.9999428,12.4374727 L23.9999428,12.4374727 L23.9999428,11.3124754 C23.9999428,11.156226 23.9452552,11.0234134 23.8358807,10.9140389 C23.7265062,10.8046644 23.5936935,10.7499768 23.4374441,10.7499768 L23.4374441,10.7499768 L0.562498659,10.7499768 C0.40624927,10.7499768 0.27343661,10.8046644 0.164062109,10.9140389 C0.054687608,11.0234134 0,11.156226 0,11.3124754 L0,11.3124754 L0,12.4374727 C0,12.5937221 0.054687608,12.7265348 0.164062109,12.8359093 C0.27343661,12.9452838 0.40624927,12.9999714 0.562498659,12.9999714 L0.562498659,12.9999714 L23.4374441,12.9999714 Z M11.9062216,9.99997854 C10.7499741,9.56247982 9.92185158,9.12498039 9.42185254,8.68748167 C8.7656041,8.09373285 8.43747988,7.35154736 8.43747988,6.46092448 C8.43747988,5.5703016 8.78122883,4.874991 9.46872742,4.37499195 C10.156226,3.87499291 11.0468489,3.62499374 12.1405961,3.62499374 C13.0468437,3.62499374 13.8593422,3.78124313 14.5780902,4.09374262 C15.3280885,4.46874173 15.7030876,4.93749061 15.7030876,5.49998927 C15.7030876,5.71873899 15.7812126,5.89842582 15.937462,6.03905049 C16.0937114,6.17967515 16.2655862,6.24998748 16.4530858,6.24998748 L16.4530858,6.24998748 L17.7187078,6.24998748 C17.9374575,6.24998748 18.1171443,6.17967515 18.257769,6.03905049 C18.3983936,5.89842582 18.468706,5.71873899 18.468706,5.49998927 L18.468706,5.49998927 L18.468706,4.46874173 C18.468706,3.40624402 17.8124575,2.54687131 16.4999607,1.89062288 C15.2812136,1.29687405 13.828092,1 12.1405961,1 C10.2031009,1 8.62497944,1.45312416 7.40623234,2.35937176 C6.06248531,3.35936914 5.39061215,4.79686595 5.39061215,6.67186148 C5.39061215,7.98435835 5.76561125,9.09373094 6.51560947,9.99997854 L6.51560947,9.99997854 L11.9062216,9.99997854 Z" id="Color" fill="#474747"></path>
    </g>
</svg>