<?xml version="1.0" encoding="UTF-8"?>
<svg width="24px" height="24px" viewBox="0 0 24 24" version="1.1" xmlns="http://www.w3.org/2000/svg" xmlns:xlink="http://www.w3.org/1999/xlink">
    <title>Icon/Rich text editor/font size</title>
    <g id="Icon/Rich-text-editor/font-size" stroke="none" stroke-width="1" fill="none" fill-rule="evenodd">
        <path d="M20.2499517,22.9999499 C20.4062011,22.9999499 20.5468258,22.9374503 20.6718257,22.8124504 L20.6718257,22.8124504 L23.8593181,19.4374584 C24.0155675,19.281209 24.0468177,19.0858968 23.9530679,18.8515223 C23.8593181,18.6171479 23.6874433,18.4999607 23.4374441,18.4999607 L23.4374441,18.4999607 L21.374949,18.4999607 L21.374949,6.49998927 L23.4374441,6.49998927 C23.6874433,6.49998927 23.8593181,6.38280205 23.9530679,6.14842761 C24.0468177,5.91405317 24.0155675,5.7187409 23.8593181,5.56249151 L23.8593181,5.56249151 L20.6718257,2.18749955 C20.5468258,2.06249961 20.4062011,2 20.2499517,2 C20.0937023,2 19.9530777,2.06249961 19.8280777,2.18749955 L19.8280777,2.18749955 L16.6405853,5.56249151 C16.4843359,5.7187409 16.4530858,5.91405317 16.5468355,6.14842761 C16.6405853,6.38280205 16.8124602,6.49998927 17.0624593,6.49998927 L17.0624593,6.49998927 L19.1249544,6.49998927 L19.1249544,18.4999607 L17.0624593,18.4999607 C16.8124602,18.4999607 16.6405853,18.6171479 16.5468355,18.8515223 C16.4530858,19.0858968 16.4843359,19.281209 16.6405853,19.4374584 L16.6405853,19.4374584 L19.8280777,22.8124504 C19.9530777,22.9374503 20.0937023,22.9999499 20.2499517,22.9999499 Z M11.0624736,22.9999499 C11.218723,22.9999499 11.3515357,22.9452623 11.4609102,22.8358878 C11.5702847,22.7265133 11.6249723,22.5937007 11.6249723,22.4374513 L11.6249723,22.4374513 L11.6249723,21.312454 C11.6249723,21.1562046 11.5702847,21.0233919 11.4609102,20.9140174 C11.3515357,20.8046429 11.218723,20.7499553 11.0624736,20.7499553 L11.0624736,20.7499553 L8.7656041,20.7499553 L8.7656041,4.24999464 L12.6093449,4.24999464 L12.6093449,7.01561304 C12.6093449,7.17186243 12.6640325,7.30467509 12.773407,7.41404959 C12.8827815,7.52342409 13.0155942,7.5781117 13.1718436,7.5781117 L13.1718436,7.5781117 L14.4374656,7.5781117 C14.593715,7.5781117 14.7265276,7.52342409 14.8359021,7.41404959 C14.9452766,7.30467509 14.9999642,7.17186243 14.9999642,7.01561304 L14.9999642,7.01561304 L14.9999642,2.56249866 C14.9999642,2.40624927 14.9452766,2.27343661 14.8359021,2.16406211 C14.7265276,2.05468761 14.593715,2 14.4374656,2 L14.4374656,2 L0.562498659,2 C0.40624927,2 0.27343661,2.05468761 0.164062109,2.16406211 C0.054687608,2.27343661 0,2.40624927 0,2.56249866 L0,2.56249866 L0,7.01561304 C0,7.17186243 0.054687608,7.30467509 0.164062109,7.41404959 C0.27343661,7.52342409 0.40624927,7.5781117 0.562498659,7.5781117 L0.562498659,7.5781117 L1.78124575,7.5781117 C1.93749514,7.5781117 2.0703078,7.52342409 2.1796823,7.41404959 C2.2890568,7.30467509 2.34374441,7.17186243 2.34374441,7.01561304 L2.34374441,7.01561304 L2.34374441,4.24999464 L6.23436014,4.24999464 L6.23436014,20.7499553 L3.93749061,20.7499553 C3.78124122,20.7499553 3.64842856,20.8046429 3.53905406,20.9140174 C3.42967956,21.0233919 3.37499195,21.1562046 3.37499195,21.312454 L3.37499195,21.312454 L3.37499195,22.4374513 C3.37499195,22.5937007 3.42967956,22.7265133 3.53905406,22.8358878 C3.64842856,22.9452623 3.78124122,22.9999499 3.93749061,22.9999499 L3.93749061,22.9999499 L11.0624736,22.9999499 Z" id="Color" fill="#474747"></path>
    </g>
</svg>