<?xml version="1.0" encoding="UTF-8"?>
<svg width="24px" height="24px" viewBox="0 0 24 24" version="1.1" xmlns="http://www.w3.org/2000/svg" xmlns:xlink="http://www.w3.org/1999/xlink">
    <title>Icon/Rich text editor/font</title>
    <g id="Icon/Rich-text-editor/font" stroke="none" stroke-width="1" fill="none" fill-rule="evenodd">
        <path d="M8.18748525,22.9999499 C8.34373464,22.9999499 8.4765473,22.9452623 8.5859218,22.8358878 C8.6952963,22.7265133 8.74998391,22.5937007 8.74998391,22.4374513 L8.74998391,22.4374513 L8.74998391,21.2655791 C8.74998391,21.1093297 8.6952963,20.976517 8.5859218,20.8671425 C8.4765473,20.757768 8.34373464,20.7030804 8.18748525,20.7030804 L8.18748525,20.7030804 L6.73436371,20.7030804 L8.3749848,16.0155916 L15.828092,16.0155916 L17.4687131,20.7030804 L16.0624665,20.7030804 C15.9062171,20.7030804 15.7734044,20.757768 15.6640299,20.8671425 C15.5546554,20.976517 15.4999678,21.1093297 15.4999678,21.2655791 L15.4999678,21.2655791 L15.4999678,22.4374513 C15.4999678,22.5937007 15.5546554,22.7265133 15.6640299,22.8358878 C15.7734044,22.9452623 15.9062171,22.9999499 16.0624665,22.9999499 L16.0624665,22.9999499 L21.6874531,22.9999499 C21.8437025,22.9999499 21.9765151,22.9452623 22.0858896,22.8358878 C22.1952641,22.7265133 22.2499517,22.5937007 22.2499517,22.4374513 L22.2499517,22.4374513 L22.2499517,21.2655791 C22.2499517,21.1093297 22.1952641,20.976517 22.0858896,20.8671425 C21.9765151,20.757768 21.8437025,20.7030804 21.6874531,20.7030804 L21.6874531,20.7030804 L20.5155809,20.7030804 L13.9530965,2.37499911 C13.8593467,2.12499994 13.6718472,2 13.3905978,2 L13.3905978,2 L10.8593539,2 C10.5781045,2 10.390605,2.12499994 10.2968552,2.37499911 L10.2968552,2.37499911 L3.73437086,20.7030804 L2.56249866,20.7030804 C2.40624927,20.7030804 2.27343661,20.757768 2.16406211,20.8671425 C2.05468761,20.976517 2,21.1093297 2,21.2655791 L2,21.2655791 L2,22.4374513 C2,22.5937007 2.05468761,22.7265133 2.16406211,22.8358878 C2.27343661,22.9452623 2.40624927,22.9999499 2.56249866,22.9999499 L2.56249866,22.9999499 L8.18748525,22.9999499 Z M15.0780938,13.6249723 L9.12498301,13.6249723 L11.7031019,6.35936461 C11.8906014,5.76561578 12.0312261,5.21874352 12.124983,4.71874352 L12.124983,4.71874352 L12.2187256,5.23436729 C12.3124754,5.60936639 12.4218499,5.9843655 12.5468499,6.35936461 L12.5468499,6.35936461 L15.0780938,13.6249723 Z" id="Color" fill="#474747"></path>
    </g>
</svg>