<?xml version="1.0" encoding="UTF-8"?>
<svg width="24px" height="24px" viewBox="0 0 24 24" version="1.1" xmlns="http://www.w3.org/2000/svg" xmlns:xlink="http://www.w3.org/1999/xlink">
    <title>Icon/Rich text editor/underline</title>
    <g id="Icon/Rich-text-editor/underline" stroke="none" stroke-width="1" fill="none" fill-rule="evenodd">
        <path d="M22.4374513,23.9999428 C22.5937007,23.9999428 22.7265133,23.9452552 22.8358878,23.8358807 C22.9452623,23.7265062 22.9999499,23.5936935 22.9999499,23.4374441 L22.9999499,23.4374441 L22.9999499,22.3124468 C22.9999499,22.1561974 22.9452623,22.0233848 22.8358878,21.9140103 C22.7265133,21.8046358 22.5937007,21.7499481 22.4374513,21.7499481 L22.4374513,21.7499481 L2.56249866,21.7499481 C2.40624927,21.7499481 2.27343661,21.8046358 2.16406211,21.9140103 C2.05468761,22.0233848 2,22.1561974 2,22.3124468 L2,22.3124468 L2,23.4374441 C2,23.5936935 2.05468761,23.7265062 2.16406211,23.8358807 C2.27343661,23.9452552 2.40624927,23.9999428 2.56249866,23.9999428 L2.56249866,23.9999428 L22.4374513,23.9999428 Z M12.4531001,19.7812028 C14.7343449,19.7812028 16.5624655,19.1405791 17.937462,17.8593324 C19.3437086,16.5155854 20.046832,14.6249651 20.046832,12.1874709 L20.046832,12.1874709 L20.046832,2.24999464 L21.9687024,2.24999464 C22.1249518,2.24999464 22.2577644,2.19530703 22.3671389,2.08593253 C22.4765134,1.97655803 22.531201,1.84374537 22.531201,1.68749598 L22.531201,1.68749598 L22.531201,0.562498659 C22.531201,0.40624927 22.4765134,0.27343661 22.3671389,0.164062109 C22.2577644,0.054687608 22.1249518,0 21.9687024,0 L21.9687024,0 L15.5937176,0 C15.4374682,0 15.3046555,0.054687608 15.195281,0.164062109 C15.0859065,0.27343661 15.0312189,0.40624927 15.0312189,0.562498659 L15.0312189,0.562498659 L15.0312189,1.68749598 C15.0312189,1.84374537 15.0859065,1.97655803 15.195281,2.08593253 C15.3046555,2.19530703 15.4374682,2.24999464 15.5937176,2.24999464 L15.5937176,2.24999464 L17.515588,2.24999464 L17.515588,12.1405961 C17.515588,13.8593422 17.0780893,15.1640263 16.2030911,16.0546492 C15.328093,16.9452721 14.0937212,17.3905835 12.499975,17.3905835 C10.9062288,17.3905835 9.67966895,16.9608968 8.82029624,16.1015241 C7.96092353,15.2421514 7.53123681,13.9374665 7.53123681,12.1874709 L7.53123681,12.1874709 L7.53123681,2.24999464 L9.40623234,2.24999464 C9.56248173,2.24999464 9.69529439,2.19530703 9.80466889,2.08593253 C9.91404339,1.97655803 9.968731,1.84374537 9.968731,1.68749598 L9.968731,1.68749598 L9.968731,0.562498659 C9.968731,0.40624927 9.91404339,0.27343661 9.80466889,0.164062109 C9.69529439,0.054687608 9.56248173,0 9.40623234,0 L9.40623234,0 L3.03124754,0 C2.87499815,0 2.74218549,0.054687608 2.63281099,0.164062109 C2.52343649,0.27343661 2.46874888,0.40624927 2.46874888,0.562498659 L2.46874888,0.562498659 L2.46874888,1.68749598 C2.46874888,1.84374537 2.52343649,1.97655803 2.63281099,2.08593253 C2.74218549,2.19530703 2.87499815,2.24999464 3.03124754,2.24999464 L3.03124754,2.24999464 L4.95311796,2.24999464 L4.95311796,12.1874709 C4.95311796,14.6562153 5.65624128,16.5468355 7.06248793,17.8593324 C8.3749848,19.1405791 10.1718553,19.7812028 12.4531001,19.7812028 Z" id="Color" fill="#474747"></path>
    </g>
</svg>