<?xml version="1.0" encoding="UTF-8"?>
<svg width="24px" height="24px" viewBox="0 0 24 24" version="1.1" xmlns="http://www.w3.org/2000/svg" xmlns:xlink="http://www.w3.org/1999/xlink">
    <title>Icon/Rich text editor/italic</title>
    <g id="Icon/Rich-text-editor/italic" stroke="none" stroke-width="1" fill="none" fill-rule="evenodd">
        <path d="M13.6041486,22.9999499 C13.7291485,22.9999499 13.8463358,22.9608878 13.9557103,22.8827627 C14.0650848,22.8046377 14.1353971,22.6874504 14.1666473,22.531201 L14.1666473,22.531201 L14.3541468,21.4062037 C14.385397,21.2499543 14.3463341,21.101517 14.2369596,20.9608923 C14.1275851,20.8202676 13.9947724,20.7499553 13.838523,20.7499553 L13.838523,20.7499553 L11.8697777,20.7499553 L15.0572701,4.24999464 L17.213515,4.24999464 C17.3697644,4.24999464 17.4947643,4.21093247 17.5885141,4.13280741 C17.6822639,4.05468236 17.7447635,3.93749514 17.7760137,3.78124575 L17.7760137,3.78124575 L18.0103881,2.65624844 C18.0416383,2.5 18.0025754,2.35156166 17.8932009,2.210937 C17.7838264,2.07031233 17.635389,2 17.4478894,2 L17.4478894,2 L10.4166562,2 C10.2916563,2 10.174469,2.03906217 10.0650945,2.11718722 C9.95572004,2.19531227 9.88540771,2.31249949 9.85415755,2.46874888 L9.85415755,2.46874888 L9.66665799,3.5937462 C9.63540783,3.74999559 9.67447071,3.89843297 9.78384521,4.03905764 C9.89321971,4.1796823 10.0260324,4.24999464 10.1822818,4.24999464 L10.1822818,4.24999464 L12.1041522,4.24999464 L8.91665978,20.7499553 L6.80728981,20.7499553 C6.65104042,20.7499553 6.52604048,20.7890175 6.4322907,20.8671425 C6.33854093,20.9452676 6.27604132,21.0624548 6.24479115,21.2187042 L6.24479115,21.2187042 L6.01041671,22.3437015 C5.97916655,22.4999509 6.01822943,22.6483883 6.12760393,22.7890129 C6.23697843,22.9296376 6.38541582,22.9999499 6.57291537,22.9999499 L6.57291537,22.9999499 L13.6041486,22.9999499 Z" id="Color" fill="#474747"></path>
    </g>
</svg>