<?xml version="1.0" encoding="UTF-8"?>
<svg width="24px" height="24px" viewBox="0 0 24 24" version="1.1" xmlns="http://www.w3.org/2000/svg" xmlns:xlink="http://www.w3.org/1999/xlink">
    <title>Icon/Fill/foodbeverage-fill</title>
    <g id="Icon/Fill/foodbeverage-fill" stroke="none" stroke-width="1" fill="none" fill-rule="evenodd">
        <g id="Group" fill="#474747" fill-rule="nonzero">
            <path d="M19.4227387,0 C17.2330501,0.00322324386 15.3644697,1.58422189 14.9987143,3.74314974 L5.5528245,3.74314974 L4.35049956,0.567949073 C4.2411168,0.277727777 3.96316771,0.0858105508 3.65301824,0.0863548298 L0.746846087,0.0863548298 L0.746846087,1.58095765 L3.1382106,1.58095765 L3.95858149,3.74314974 L0.746846087,3.74314974 C0.460089599,3.74332704 0.198723699,3.90757552 0.0741753125,4.16587189 C-0.0503730738,4.42416826 -0.0161360324,4.73095405 0.162290316,4.95543869 L9.33583031,16.5070578 L9.33583031,22.5087185 L6.09088151,22.5087185 L6.09088151,24 L14.0620966,24 L14.0620966,22.5087185 L10.8304331,22.5087185 L10.8304331,16.5070578 L17.2505826,8.42291724 C17.9148573,8.79197472 18.6628347,8.98411571 19.4227387,8.9809023 C21.80435,8.85121579 23.6690318,6.88223341 23.6690318,4.49709383 C23.6690318,2.11195424 21.80435,0.142971861 19.4227387,0.0132853584 L19.4227387,0 Z M15.6762676,5.23775256 L17.8749944,5.23775256 L14.9455729,8.92111818 L7.51573621,8.92111818 L6.12077357,5.23775256 L15.6762676,5.23775256 Z M4.52320922,5.23775256 L5.91817185,8.92111818 L5.2173692,8.92111818 L2.291269,5.23775256 L4.52320922,5.23775256 Z" id="Shape"></path>
        </g>
    </g>
</svg>