<svg width="24" height="24" viewBox="0 0 24 24" fill="none" xmlns="http://www.w3.org/2000/svg">
<g clip-path="url(#clip0_15805_63732)">
<path fill-rule="evenodd" clip-rule="evenodd" d="M0 16.0033V22.5033C0 23.33 0.67 24 1.5 24H22.4967C23.3233 24 23.9967 23.33 23.9967 22.5033V16.0033H0ZM22 4.00667H24V6.00667H22V4.00667ZM22 8.01333H24V10.0133H22V8.01333ZM22 12.02H24V14.02H22V12.02ZM0.0733333 4.00667H2.07333V6.00667H0.0733333V4.00667ZM0.0733333 8.01667H2.07333V10.0167H0.0733333V8.01667ZM0.0733333 12.0233H2.07333V14.0233H0.0733333V12.0233ZM24 0V2H22V0H24ZM19.6133 0V2H17.6133V0H19.6133ZM15.2267 0V2H13.2267V0H15.2267ZM10.84 0V2H8.84V0H10.84ZM6.45333 0V2H4.45333V0H6.45333ZM2.06333 0V2H0.0633333V0H2.06333Z" fill="black"/>
</g>
<defs>
<clipPath id="clip0_15805_63732">
<rect width="24" height="24" fill="white"/>
</clipPath>
</defs>
</svg>
