<?xml version="1.0" encoding="UTF-8"?>
<svg width="24px" height="24px" viewBox="0 0 24 24" version="1.1" xmlns="http://www.w3.org/2000/svg" xmlns:xlink="http://www.w3.org/1999/xlink">
    <title>Icon/Fill/gameroom-fill</title>
    <g id="Icon/Fill/gameroom-fill" stroke="none" stroke-width="1" fill="none" fill-rule="evenodd">
        <g id="Group" fill="#474747" fill-rule="nonzero">
            <path d="M14.7095498,18.4978285 C17.1221847,18.3045511 19.2648977,16.6916847 21.1276917,14.832223 C24.4867192,11.4731955 25.216508,6.3380155 21.4342696,2.5391153 C17.6520313,-1.25978489 12.4935247,-0.493340114 9.13449715,2.83902848 C7.27170311,4.70182252 5.65883671,6.83787078 5.4688917,9.25383801 M5.8721083,12.0030421 L5.8721083,12.0330334 C5.91209672,12.1363368 5.95541752,12.2396403 5.99873831,12.3462761 C6.18460702,12.8810501 6.26275409,13.4473331 6.22867174,14.0124604 C6.17434018,14.783241 5.84982931,15.5101453 5.31227038,16.0651994 L5.26561722,16.1085202 L5.26561722,16.1085202 L0.267064333,20.880472 C0.0999631911,21.0421724 0.00397151327,21.263651 0.000107408694,21.4961499 C-0.00352845231,21.7286488 0.085270684,21.9531079 0.247070121,22.1201131 L0.267064333,22.1401074 L1.85993652,23.7329795 C2.19538101,24.0796968 2.74796052,24.0901228 3.09624527,23.7563061 L3.11623948,23.7329795 L7.91151788,18.6477851 C8.46248465,18.1126133 9.18476782,17.7892381 9.95092746,17.7347161 C10.5161257,17.6987468 11.0827805,17.7769452 11.6171118,17.9646495 L11.9303544,18.0912795 L11.9770076,18.0912795 C12.3349189,18.2274239 12.7039765,18.3322317 13.0800216,18.4045222 L5.55886565,10.8933634 C5.62920269,11.2720391 5.73405434,11.6434816 5.8721083,12.0030421 Z M21.7241857,19.5008714 C22.9664667,19.5008714 23.9735345,20.5079392 23.9735345,21.7502202 C23.9735345,22.9925013 22.9664667,23.999569 21.7241857,23.999569 C20.4819046,23.999569 19.474827,22.9925013 19.474827,21.7502202 C19.4730659,21.1525019 19.7092681,20.5786576 20.1312949,20.1553803 C20.5533217,19.732103 21.1264648,19.4942067 21.7241857,19.4942067 L21.7241857,19.5008714 Z" id="Shape"></path>
        </g>
    </g>
</svg>