<?xml version="1.0" encoding="UTF-8"?>
<svg width="24px" height="24px" viewBox="0 0 24 24" version="1.1" xmlns="http://www.w3.org/2000/svg" xmlns:xlink="http://www.w3.org/1999/xlink">
    <title>Icon/Fill/gantt-chart-fill</title>
    <g id="Icon/Fill/gantt-chart-fill" stroke="none" stroke-width="1" fill="none" fill-rule="evenodd">
        <g id="Group" fill="#474747" fill-rule="nonzero">
            <path d="M22.5,0 L1.5,0 C0.671572875,0 0,0.671572875 0,1.5 L0,22.5 C0,23.3284271 0.671572875,24 1.5,24 L22.5,24 C23.3284271,24 24,23.3284271 24,22.5 L24,1.5 C24,0.671572875 23.3284271,0 22.5,0 Z M12.3733333,6.48333333 L3.30333333,6.48333333 C2.98192456,6.48151228 2.72182106,6.22140878 2.72,5.9 L2.72,4.73333333 C2.72,4.41116723 2.98116723,4.15 3.30333333,4.15 L12.3733333,4.15 C12.6954994,4.15 12.9566667,4.41116723 12.9566667,4.73333333 L12.9566667,5.9 C12.9566667,6.2221661 12.6954994,6.48333333 12.3733333,6.48333333 Z M9.04,10.94 C8.71859122,10.9381789 8.45848772,10.6780754 8.45666667,10.3566667 L8.45666667,9.19 C8.45666667,8.8678339 8.7178339,8.60666667 9.04,8.60666667 L13.7966667,8.60666667 C14.1188328,8.60666667 14.38,8.8678339 14.38,9.19 L14.38,10.3566667 C14.3781789,10.6780754 14.1180754,10.9381789 13.7966667,10.94 L9.04,10.94 Z M17.93,15.3933333 L9.52666667,15.3933333 C9.20450056,15.3933333 8.94333333,15.1321661 8.94333333,14.81 L8.94333333,13.6433333 C8.94333333,13.3211672 9.20450056,13.06 9.52666667,13.06 L17.93,13.06 C18.2514088,13.0618211 18.5115123,13.3219246 18.5133333,13.6433333 L18.5133333,14.81 C18.5133333,15.1321661 18.2521661,15.3933333 17.93,15.3933333 L17.93,15.3933333 Z M21.58,18.1 L21.58,19.2666667 C21.58,19.5836968 21.3269473,19.8427536 21.01,19.85 L13.26,19.85 C12.9378339,19.85 12.6766667,19.5888328 12.6766667,19.2666667 L12.6766667,18.1 C12.6766667,17.7778339 12.9378339,17.5166667 13.26,17.5166667 L21.01,17.5166667 C21.3261903,17.5256486 21.5783303,17.7836865 21.58,18.1 L21.58,18.1 Z" id="Shape"></path>
        </g>
    </g>
</svg>