<?xml version="1.0" encoding="UTF-8"?>
<svg width="24px" height="24px" viewBox="0 0 24 24" version="1.1" xmlns="http://www.w3.org/2000/svg" xmlns:xlink="http://www.w3.org/1999/xlink">
    <title>Icon/Fill/gender-neutral-fill</title>
    <g id="Icon/Fill/gender-neutral-fill" stroke="none" stroke-width="1" fill="none" fill-rule="evenodd">
        <g id="Group" transform="translate(3.000000, 0.000000)" fill="#474747" fill-rule="nonzero">
            <path d="M10.4719289,0 L10.4719289,2.33333333 L13.3219289,2.33333333 L11.1052622,4.53333333 C8.72181671,2.87681756 5.56805707,2.84536197 3.15204487,4.45400797 C0.736032668,6.06265396 -0.451315293,8.98453591 0.157765833,11.8224713 C0.766846959,14.6604066 3.04859614,16.8377467 5.91192887,17.3133333 L5.91192887,19.22 L2.60859553,19.22 L2.60859553,21.5533333 L5.91192887,21.5533333 L5.91192887,24 L8.22859553,24 L8.22859553,21.5366667 L11.5185955,21.5366667 L11.5185955,19.2033333 L8.22859553,19.2033333 L8.22859553,17.3133333 C10.6555929,16.9159446 12.7006375,15.2836612 13.6261945,13.0051577 C14.5517515,10.7266542 14.2242981,8.13063203 12.7619289,6.15333333 L14.9652622,3.96333333 L14.9652622,6.8 L17.2985955,6.8 L17.2985955,0 L10.4719289,0 Z M7.06859553,15.1 C4.44058852,15.1 2.3098259,12.9702258 2.30860019,10.3422191 C2.30737554,7.71421238 4.43615145,5.582455 7.06415731,5.57999995 C9.69216318,5.57754914 11.8249149,7.7053289 11.8285955,10.3333333 C11.8285955,12.9632893 9.69854897,15.0963217 7.06859553,15.1 L7.06859553,15.1 Z" id="Shape"></path>
        </g>
    </g>
</svg>