<svg width="24" height="24" viewBox="0 0 24 24" fill="none" xmlns="http://www.w3.org/2000/svg">
<path d="M10.5 6.185H13.5V10.4983H22.5V5.79833H14.96C16.68 4.89833 17.05 4.50167 17.1767 4.365C17.6767 3.825 17.9767 3.14833 18.02 2.46167C18.0667 1.72167 17.8133 1.05833 17.31 0.591667C16.9 0.211667 16.3467 0.00166702 15.7533 0.00166702C14.9533 0.00166702 14.1533 0.368334 13.56 1.01167C13.4133 1.16833 12.97 1.64833 11.9933 4.06167C11.96 4.14833 11.9233 4.235 11.89 4.31833C11.8767 4.28833 11.8633 4.25833 11.85 4.22833C10.92 2.05167 10.48 1.645 10.3333 1.50833C9.84333 1.055 9.21 0.805 8.55 0.805C7.84333 0.805 7.19667 1.085 6.72333 1.595C6.26333 2.09167 6.03 2.745 6.07 3.43167C6.11 4.10833 6.40667 4.73833 6.91 5.20167C7.00667 5.29167 7.21333 5.48167 7.91 5.80167H1.5V10.5017H10.5V6.185Z" fill="black"/>
<path d="M10.5 13.4983H2.67V23.9983H10.5V13.4983Z" fill="black"/>
<path d="M21.1533 13.4983H13.5V23.9983H21.1533V13.4983Z" fill="black"/>
</svg>
