<?xml version="1.0" encoding="UTF-8"?>
<svg width="24px" height="24px" viewBox="0 0 24 24" version="1.1" xmlns="http://www.w3.org/2000/svg" xmlns:xlink="http://www.w3.org/1999/xlink">
    <title>Icon/Fill/globe-map-fill</title>
    <g id="Icon/Fill/globe-map-fill" stroke="none" stroke-width="1" fill="none" fill-rule="evenodd">
        <g id="Group" transform="translate(-0.000000, -0.000000)" fill="#474747" fill-rule="nonzero">
            <g id="globe-map">
                <path d="M6.64698523,2.96508892 L7.42500003,3.82500002 C7.72500003,4.20000002 7.72500003,4.72500002 7.57500003,5.70000002 C7.50000003,6.15000003 7.42500003,6.60000003 7.50000003,6.82500003 C7.57500003,7.27500003 8.10000003,8.17500003 8.47500004,8.62500004 C8.92500004,9.22500004 9.90000004,9.90000004 10.95,10.575 C12.9750001,12 14.4000001,13.0500001 14.5500001,14.3250001 L14.6250001,14.7750001 L14.3250001,15.0000001 C14.2500001,15.0750001 14.1000001,15.1500001 14.0250001,15.2250001 C13.8750001,15.3000001 13.6500001,15.4500001 13.6500001,15.5250001 C13.6500001,15.9000001 14.4750001,16.4250001 15.0750001,16.8750001 C15.9000001,17.4000001 16.4250001,17.7750001 16.5750001,18.2250001 C16.8000001,18.7500001 16.7250001,19.8750001 16.5750001,20.3250001 C16.531042,20.3250001 16.2809713,20.9948663 15.915391,21.7456791 C17.7254093,21.0178131 19.285857,19.8003236 20.4327591,18.2571851 C20.7215828,17.1066348 20.9115344,14.5371784 20.5992641,14.1000001 C20.4492641,13.8750001 19.6992641,13.7250001 19.1742641,13.6500001 C18.5742641,13.5750001 18.1992641,13.4250001 17.8992641,13.2750001 C17.7492641,13.2000001 17.6742641,13.0500001 17.4492641,12.8250001 C17.2992641,12.6750001 17.1492641,12.4500001 17.0742641,12.4500001 C16.8492641,12.3750001 16.3242641,12.3750001 15.7992641,12.4500001 C15.1242641,12.5250001 14.5992641,12.6000001 14.2992641,12.4500001 C13.3242641,12.0750001 11.6742641,10.875 11.3742641,9.97500004 C11.2992641,9.75000004 11.3742641,9.45000004 11.5242641,9.30000004 C11.6742641,9.15000004 11.8992641,9.00000004 12.1992641,9.07500004 C12.3492641,9.07500004 12.5742641,9.15000004 12.6492641,9.15000004 C12.8742641,9.22500004 13.2492641,9.30000004 13.3242641,9.22500004 C13.7742641,8.92500004 14.0742641,8.02500003 14.3742641,7.20000003 C14.5992641,6.60000003 14.8242641,6.00000003 15.0492641,5.62500002 C15.1992641,5.47500002 15.2742641,5.40000002 15.4992641,5.25000002 C15.6492641,5.17500002 15.8742641,4.95000002 15.9492641,4.87500002 C15.9492641,4.80000002 15.2742641,4.57500002 15.0492641,4.50000002 C14.6742641,4.35000002 14.3742641,4.27500002 14.2242641,4.20000002 C14.0742641,4.12500002 13.9992641,3.97500002 13.8492641,3.75000002 C13.7742641,3.60000002 13.5492641,3.37500001 13.4742641,3.30000001 C13.3992641,3.30000001 13.3242641,3.52500001 13.2492641,3.60000002 C13.1742641,3.67500002 13.1742641,3.75000002 13.0992641,3.82500002 C12.9492641,3.97500002 12.7992641,4.12500002 12.5742641,4.12500002 C12.3492641,4.12500002 12.1992641,4.12500002 12.0492641,3.97500002 C11.8242641,3.82500002 11.5242641,3.45000001 11.3742641,3.15000001 C11.2242641,2.85000001 11.2242641,2.47500001 11.2992641,1.72500001 L11.2992641,1.52301166 C9.60775429,1.63446581 8.02567196,2.1464809 6.64698523,2.96508892 Z M12,24 C5.37258302,24 0,18.6274171 0,12 C0,5.37258302 5.37258302,0 12,0 C18.6274171,0 24,5.37258302 24,12 C24,18.6274171 18.6274171,24 12,24 Z" id="Combined-Shape"></path>
            </g>
        </g>
    </g>
</svg>