<?xml version="1.0" encoding="UTF-8"?>
<svg width="24px" height="24px" viewBox="0 0 24 24" version="1.1" xmlns="http://www.w3.org/2000/svg" xmlns:xlink="http://www.w3.org/1999/xlink">
    <title>Icon/Fill/globe-fill</title>
    <g id="Icon/Fill/globe-fill" stroke="none" stroke-width="1" fill="none" fill-rule="evenodd">
        <g id="Group" transform="translate(0.023056, 0.086557)" fill="#474747" fill-rule="nonzero">
            <g id="globe">
                <path d="M5.24336133,12.6634431 C5.30609696,14.2920285 5.54860595,15.792831 5.97053554,17.1634431 L1.18329287,17.1634431 C0.513915138,15.7898096 0.0990316293,14.269357 0,12.6634431 L5.24336133,12.6634431 Z M6.74443266,12.6634431 L11.2269436,12.6634431 L11.2269436,17.1634431 L7.54788057,17.1634431 C7.08027788,15.819558 6.81262683,14.3206836 6.74443266,12.6634431 Z M10.7091188,23.8472648 C7.11285222,23.469635 3.98967524,21.5035694 2.05396322,18.6634431 L6.52662247,18.6634431 C7.44018159,20.7467272 8.83486392,22.4781956 10.7091188,23.8472648 Z M11.2269436,22.3570769 C9.9341618,21.3359053 8.92055555,20.1065403 8.18531337,18.6634431 L11.2269436,18.6634431 L11.2269436,22.3570769 Z M5.23577628,11.163443 L0,11.163443 C0.0990316293,9.5575291 0.513915138,8.03707652 1.18329287,6.66344304 L5.90235076,6.66344304 C5.50370058,8.03641119 5.28139453,9.537193 5.23577628,11.163443 Z M6.7363388,11.163443 C6.78579316,9.5093335 7.03050453,8.01042392 7.47095221,6.66344304 L11.2269436,6.66344304 L11.2269436,11.163443 L6.7363388,11.163443 Z M10.3502421,0.0227681993 C8.59014905,1.39827265 7.28264299,3.11506429 6.42914509,5.16344303 L2.05396322,5.16344303 C3.92499699,2.41821439 6.90546753,0.48961185 10.3502421,0.0227681993 Z M11.2269436,1.24180675 L11.2269436,5.16344303 L8.07232182,5.16344303 C8.8153751,3.62140613 9.86660045,2.31634516 11.2269436,1.24180675 Z M18.7146167,12.6634431 L23.9538871,12.6634431 C23.8548555,14.269357 23.439972,15.7898096 22.7705943,17.1634431 L18.0179423,17.1634431 C18.4281517,15.7916422 18.6604925,14.2908501 18.7146167,12.6634431 Z M17.213822,12.6634431 C17.1550681,14.319102 16.8989791,15.8179942 16.4450681,17.1634431 L12.7269436,17.1634431 L12.7269436,12.6634431 L17.213822,12.6634431 Z M13.4256547,23.8268861 C15.24252,22.4541667 16.5933389,20.7296398 17.476626,18.6634431 L21.8999239,18.6634431 C19.9967387,21.4558451 16.9456607,23.4033143 13.4256547,23.8268861 Z M12.7269436,22.4710781 L12.7269436,18.6634431 L15.8258568,18.6634431 C15.0863145,20.1559043 14.0536358,21.4231206 12.7269436,22.4710781 Z M18.7146167,11.163443 C18.6604925,9.53603598 18.4281517,8.03524389 18.0179423,6.66344304 L22.7705943,6.66344304 C23.439972,8.03707652 23.8548555,9.5575291 23.9538871,11.163443 L18.7146167,11.163443 Z M17.213822,11.163443 L12.7269436,11.163443 L12.7269436,6.66344304 L16.4450681,6.66344304 C16.8989791,8.00889189 17.1550681,9.50778408 17.213822,11.163443 Z M13.4256547,0 C16.9456607,0.42357177 19.9967387,2.37104109 21.8999239,5.16344303 L17.476626,5.16344303 C16.5933389,3.09724628 15.24252,1.37271943 13.4256547,0 Z M12.7269436,1.35580802 C14.0536358,2.40376555 15.0863145,3.67098181 15.8258568,5.16344303 L12.7269436,5.16344303 L12.7269436,1.35580802 Z" id="Combined-Shape"></path>
            </g>
        </g>
    </g>
</svg>