<?xml version="1.0" encoding="UTF-8"?>
<svg width="24px" height="24px" viewBox="0 0 24 24" version="1.1" xmlns="http://www.w3.org/2000/svg" xmlns:xlink="http://www.w3.org/1999/xlink">
    <title>Icon/Fill/governance-fill</title>
    <g id="Icon/Fill/governance-fill" stroke="none" stroke-width="1" fill="none" fill-rule="evenodd">
        <g id="Group" transform="translate(-0.000000, 0.750000)" fill="#474747" fill-rule="nonzero">
            <g id="governance-fill">
                <path d="M19.5966668,2.78333334 L13.2633334,2.78333334 L13.2633334,0 L10.7666667,0 L10.7666667,2.78333334 L4.41333335,2.78333334 L0,11.4033333 L0,12.2066668 C0.0999226032,14.9879457 2.38359334,17.1910447 5.16666669,17.1910447 C7.94974001,17.1910447 10.2334107,14.9879457 10.3333334,12.2066668 L10.3333334,11.4033333 L7.21000003,5.28000002 L10.7666667,5.28000002 L10.7666667,20.2500001 L6,20.2500001 L6,22.5 L18,22.5 L18,20.2500001 L13.2633334,20.2500001 L13.2633334,5.28000002 L16.7900001,5.28000002 L13.6666667,11.41 L13.6666667,12.2066668 C13.7665894,14.9879457 16.0502601,17.1910447 18.8333334,17.1910447 C21.6164068,17.1910447 23.9000775,14.9879457 24,12.2066668 L24,11.4033333 L19.5966668,2.78333334 Z M16.6933334,10.9566667 L18.8300001,6.77333335 L20.9666668,10.9566667 L16.6933334,10.9566667 Z M3.04333335,10.9566667 L5.17333336,6.78333333 L7.30333337,10.9566667 L3.04333335,10.9566667 Z" id="Shape"></path>
            </g>
        </g>
    </g>
</svg>