<svg width="24" height="24" viewBox="0 0 24 24" fill="none" xmlns="http://www.w3.org/2000/svg">
<g clip-path="url(#clip0_15805_63742)">
<path d="M22.5 5.97166H17.9967V1.505C18 0.674997 17.33 0.00166321 16.5 0.00166321H0V16.525C0 17.355 0.673333 18.0283 1.5 18.0283H6V22.495C6 23.325 6.67333 23.9983 7.5 23.9983H22.4833C23.31 23.9983 23.9833 23.3283 23.9833 22.4983L24 7.47166C24 6.64166 23.3267 5.96833 22.5 5.96833V5.97166ZM9 15.025V8.97833H15V15.025H9ZM3 15.025V3.005H15V5.97166H6V15.025H3ZM21 20.995H9V18.0317H16.4833C17.31 18.0317 17.9833 17.3617 17.9833 16.5317L17.99 8.97833H20.9967V20.995H21Z" fill="black"/>
</g>
<defs>
<clipPath id="clip0_15805_63742">
<rect width="24" height="24" fill="white"/>
</clipPath>
</defs>
</svg>
