<?xml version="1.0" encoding="UTF-8"?>
<svg width="24px" height="24px" viewBox="0 0 24 24" version="1.1" xmlns="http://www.w3.org/2000/svg" xmlns:xlink="http://www.w3.org/1999/xlink">
    <title>Icon/Fill/grow-revenue-fill</title>
    <g id="Icon/Fill/grow-revenue-fill" stroke="none" stroke-width="1" fill="none" fill-rule="evenodd">
        <g id="Group" transform="translate(-0.000000, -0.000000)" fill="#474747" fill-rule="nonzero">
            <g id="grow-revenue-fill">
                <path d="M21.0000001,7.44000003 C21.0000001,8.08645608 20.413796,8.73101509 19.6898631,8.73101509 C18.9659302,8.73101509 18.3693104,8.16305651 18.3336987,7.44000003 L18.3139727,4.43835618 L3.49972604,16.3693151 L1.85589042,14.3178083 L16.1112329,2.74191782 L13.5764384,2.75835618 C13.0762661,2.78584224 12.6015886,2.53570764 12.3414972,2.10759518 C12.0814057,1.67948273 12.0781539,1.14294253 12.3330373,0.71170902 C12.5879206,0.280475511 13.0595313,0.0246058247 13.5600001,0.0460273974 L21.0000001,0 L21.0000001,7.44000003 Z M0,24.0000001 L0,20.2500001 L6,20.2500001 L6,24.0000001 L0,24.0000001 Z M15,24.0000001 L9.00000004,24.0000001 L9.00000004,16.5000001 L15,16.5000001 L15,24.0000001 Z M24.0000001,12.0000001 L24.0000001,24.0000001 L18.0000001,24.0000001 L18.0000001,12.0000001 L24.0000001,12.0000001 Z" id="Combined-Shape"></path>
            </g>
        </g>
    </g>
</svg>