<?xml version="1.0" encoding="UTF-8"?>
<svg width="24px" height="24px" viewBox="0 0 24 24" version="1.1" xmlns="http://www.w3.org/2000/svg" xmlns:xlink="http://www.w3.org/1999/xlink">
    <title>Icon/Fill/growth-fill</title>
    <g id="Icon/Fill/growth-fill" stroke="none" stroke-width="1" fill="none" fill-rule="evenodd">
        <g id="Group" transform="translate(-0.000000, -0.000000)" fill="#474747" fill-rule="nonzero">
            <g id="growth-fill" transform="translate(1.500000, 0.000000)">
                <path d="M11.0164047,21.457373 L11.0164047,18.8347682 C11.550362,19.0423641 12.1183781,19.1452717 12.6902404,19.1380173 C13.9577575,19.1040704 15.1985452,18.7611533 16.3075673,18.138295 C18.2806547,17.075257 19.6683929,15.3690642 19.8722786,13.7828382 L19.9216058,13.3829492 L19.56645,13.2029992 C18.158981,12.5031936 15.9787195,12.743127 14.0154975,13.8028326 C12.7866085,14.4410359 11.7504767,15.4035109 11.0164047,16.5887254 L11.0164047,11.5034713 C12.0785833,10.2971397 12.7329907,8.31435716 12.7264138,6.17161902 C12.7264138,3.60899752 11.7760433,1.27964455 10.3159586,0.233268537 L9.98711074,9.15244157e-24 L9.65826282,0.233268537 C8.20475508,1.28630936 7.27082703,3.62232715 7.27740401,6.18494865 C7.27740401,8.35434603 7.96140768,10.3537907 9.05318269,11.5534574 L9.05318269,14.835879 C8.50595239,13.6155406 7.66182926,12.556038 6.59997738,11.7567343 C4.83077565,10.3937796 2.71299517,9.83726749 1.20687179,10.3004721 L0.828696708,10.4204388 L0.828696708,10.8203277 C0.779369523,12.4198834 1.8941639,14.3326855 3.66665408,15.6923077 C5.02479591,16.7353513 6.58353498,17.3151903 7.91208048,17.3151903 C8.30081748,17.3197589 8.68792534,17.2635585 9.05975966,17.1485699 L9.05975966,21.457373 L0,21.457373 L0,24 L21,24 L21,21.457373 L11.0164047,21.457373 Z" id="Path"></path>
            </g>
        </g>
    </g>
</svg>