<?xml version="1.0" encoding="UTF-8"?>
<svg width="24px" height="24px" viewBox="0 0 24 24" version="1.1" xmlns="http://www.w3.org/2000/svg" xmlns:xlink="http://www.w3.org/1999/xlink">
    <title>Icon/Fill/hand-fill</title>
    <g id="Icon/Fill/hand-fill" stroke="none" stroke-width="1" fill="none" fill-rule="evenodd">
        <g id="Group" transform="translate(3.000000, 0.000000)" fill="#474747" fill-rule="nonzero">
            <path d="M0.657222034,11.0633333 L0.880555367,10.8933333 C1.63312947,10.3275087 2.7015202,10.4765172 3.27055537,11.2266667 L3.27055537,11.2266667 L4.72722203,13.56 C4.79486003,13.6596645 4.93006771,13.6864088 5.03055537,13.62 C5.09151916,13.5793558 5.12689102,13.5098754 5.1238887,13.4366667 L5.1238887,2.29 C5.1238887,1.55362033 5.72084237,0.956666667 6.45722203,0.956666667 L6.55722203,0.956666667 C7.2936017,0.956666667 7.89055537,1.55362033 7.89055537,2.29 L7.89055537,11.3333333 C7.89055537,11.491655 8.01890041,11.62 8.17722203,11.62 L8.17722203,11.62 C8.34055537,11.62 8.33055537,11.4933333 8.33055537,11.3333333 L8.33055537,1.33333333 C8.33055537,0.596953667 8.92750903,0 9.6638887,0 L9.7638887,0 C10.507222,0 11.247222,0.6 11.247222,1.33333333 L11.247222,11.3333333 C11.2472169,11.4099431 11.2778763,11.4833677 11.3323598,11.537225 C11.3868434,11.5910822 11.4606174,11.6208908 11.537222,11.62 L11.537222,11.62 C11.697222,11.62 11.687222,11.4933333 11.687222,11.3333333 L11.687222,2.98 C11.687222,2.24 12.4305554,1.64666667 13.1705554,1.64666667 L13.2705554,1.64666667 C13.6241774,1.64666667 13.9633159,1.78714245 14.2133644,2.03719096 C14.4634129,2.28723946 14.6038887,2.62637801 14.6038887,2.98 L14.6038887,11.3333333 C14.6038887,11.4933333 14.6038887,11.62 14.7538887,11.62 C14.8292976,11.621796 14.9022414,11.5930908 14.9562024,11.5403847 C15.0101635,11.4876786 15.0405768,11.4154303 15.0405554,11.34 L15.0405554,4.64 C15.0405554,3.90362033 15.637509,3.30666667 16.3738887,3.30666667 L16.477222,3.30666667 C17.217222,3.30666667 17.957222,3.90666667 17.957222,4.64 L17.957222,16.0566667 C17.957222,18.0166667 17.9305554,19.9866667 16.6238887,21.5733333 C15.3613347,23.0827159 13.504779,23.9684122 11.537222,24 L10.777222,24 C9.35228976,23.9713272 7.96493381,23.5377784 6.77722203,22.75 C4.87722203,21.5166667 4.29055537,19.2866667 3.0638887,17.46 C2.23055537,16.2066667 1.22055537,14.6866667 0.360555367,13.46 C0.0823766913,13.1045605 -0.0427115668,12.6529296 0.0129640499,12.2050224 C0.0686396667,11.7571152 0.300489845,11.3498524 0.657222034,11.0733333 L0.657222034,11.0633333 Z" id="Path"></path>
        </g>
    </g>
</svg>