<svg width="24" height="24" viewBox="0 0 24 24" fill="none" xmlns="http://www.w3.org/2000/svg">
<g clip-path="url(#clip0_15805_63744)">
<path fill-rule="evenodd" clip-rule="evenodd" d="M24 7.99667V1.49667C24 0.67 23.33 0 22.5 0H1.50333C0.676667 0 0.00333333 0.67 0.00333333 1.49667V7.99667H24ZM2 19.9933H0V17.9933H2V19.9933ZM2 15.9867H0V13.9867H2V15.9867ZM2 11.98H0V9.98H2V11.98ZM23.9267 19.9967H21.9267V17.9967H23.9267V19.9967ZM23.9267 15.99H21.9267V13.99H23.9267V15.99ZM23.9267 11.9833H21.9267V9.98333H23.9267V11.9833ZM0 24V22H2V24H0ZM4.38667 24V22H6.38667V24H4.38667ZM8.77333 24V22H10.7733V24H8.77333ZM13.16 24V22H15.16V24H13.16ZM17.5467 24V22H19.5467V24H17.5467ZM21.9333 24V22H23.9333V24H21.9333Z" fill="black"/>
</g>
<defs>
<clipPath id="clip0_15805_63744">
<rect width="24" height="24" fill="white"/>
</clipPath>
</defs>
</svg>
