<?xml version="1.0" encoding="UTF-8"?>
<svg width="24px" height="24px" viewBox="0 0 24 24" version="1.1" xmlns="http://www.w3.org/2000/svg" xmlns:xlink="http://www.w3.org/1999/xlink">
    <title>Icon/Fill/help-question-fill</title>
    <g id="Icon/Fill/help-question-fill" stroke="none" stroke-width="1" fill="none" fill-rule="evenodd">
        <g id="Group" transform="translate(-0.000000, -0.000000)" fill="#474747" fill-rule="nonzero">
            <g id="help-question">
                <path d="M12,0 C18.6270001,0 24,5.37300002 24,12 C24,18.6280001 18.6270001,24 12,24 C5.37200002,24 0,18.6280001 0,12 C0,5.37300002 5.37200002,0 12,0 Z M10.6040001,18.0000001 L13.1820001,18.0000001 L13.1820001,15.4730001 L10.6040001,15.4730001 L10.6040001,18.0000001 Z M15.8330001,10.4660001 C15.9690001,10.1270001 16.0380001,9.69400002 16.0380001,9.16900001 C16.0380001,8.85200006 15.9690001,8.51000006 15.8330001,8.14300001 C15.6960001,7.77700001 15.469,7.43500003 15.1520001,7.11700003 C14.8340001,6.80000003 14.416,6.53500002 13.8960001,6.32100003 C13.3760001,6.10700003 12.7280001,6.00000003 11.95,6.00000003 C11.349,6.00000003 10.804,6.10200003 10.317,6.30500003 C9.83000007,6.50700003 9.41400004,6.78800003 9.07000001,7.15000003 C8.72500001,7.51100006 8.45700004,7.93700006 8.26500003,8.43000004 C8.07400001,8.92300001 7.97300006,9.46400006 7.96200003,10.056 L10.375,10.056 C10.375,9.75900004 10.407,9.48400001 10.474,9.22600001 C10.539,8.97000004 10.6400001,8.74500004 10.777,8.55300004 C10.914,8.36200001 11.089,8.20800003 11.302,8.09400003 C11.515,7.97900006 11.77,7.92100001 12.0650001,7.92100001 C12.5030001,7.92100001 12.8450001,8.04100001 13.0910001,8.28300003 C13.3380001,8.52400001 13.4610001,8.89500004 13.4610001,9.39900004 C13.4720001,9.69400002 13.42,9.94100007 13.3050001,10.137 C13.1900001,10.335 13.039,10.515 12.853,10.68 C12.667,10.843 12.4650001,11.007 12.2460001,11.1710001 C12.0270001,11.3360001 11.8190001,11.5310001 11.622,11.754 C11.425,11.9780001 11.253,12.2490001 11.1050001,12.5670001 C10.9580001,12.8840001 10.867,13.2780001 10.834,13.7480001 L10.834,14.4870001 L13.0500001,14.4870001 L13.0500001,13.8630001 C13.0940001,13.5360001 13.201,13.2620001 13.3700001,13.0430001 C13.54,12.8240001 13.7340001,12.6300001 13.9530001,12.46 C14.1720001,12.2910001 14.4050001,12.121 14.6510001,11.9510001 C14.8970001,11.782 15.121,11.5760001 15.3240001,11.3360001 C15.526,11.095 15.6960001,10.8050001 15.8330001,10.4660001 Z" id="Help-Question"></path>
            </g>
        </g>
    </g>
</svg>