<svg width="24" height="24" viewBox="0 0 24 24" fill="none" xmlns="http://www.w3.org/2000/svg">
<g clip-path="url(#clip0_15805_63748)">
<path d="M23.9724 18.8767C23.7491 17.7833 23.5558 17.2633 23.5458 17.2433L23.5191 17.1733L23.4624 17.1233C23.1724 16.8633 22.3424 16.84 17.0291 17.3667L17.0058 18.4033C16.8291 19.4767 15.8691 20.2867 14.7758 20.2867H7.77911V18.9167H14.7758C15.1858 18.9167 15.5458 18.62 15.6291 18.2233L15.6524 17.0267C15.6291 16.4733 15.0524 16.2633 14.5458 16.2133L8.23577 15.4533L7.20911 14.6667L0.00244141 12.7567V21.6433L0.582441 21.8133C2.39577 22.3467 5.32911 23.2233 6.13577 23.5C6.34577 23.6533 6.65244 23.6667 7.11244 23.6667C7.27244 23.6667 7.46244 23.6667 7.68244 23.66C8.28911 23.6533 9.09577 23.6367 9.90244 23.6233C11.5124 23.59 13.1224 23.5533 13.1224 23.5533H13.2424L23.0224 20.5067C23.7058 20.28 24.1124 19.58 23.9691 18.8767H23.9724Z" fill="black"/>
<path d="M17.8524 15.6333C17.7758 15.7333 17.6958 15.83 17.6124 15.9267H18.1191C18.0258 15.8333 17.9391 15.7367 17.8558 15.6333H17.8524Z" fill="black"/>
<path d="M13.5724 7.42667C13.4524 8.15667 13.2558 9.38 13.9758 10.12C14.0291 10.1733 14.0858 10.2233 14.1558 10.2667L16.9958 12.1467C17.0558 12.1867 17.0924 12.2533 17.0924 12.3267V13.24C17.0924 13.24 17.0924 13.27 17.0891 13.2833C16.9591 14.0267 16.3324 14.91 15.6958 15.5533C15.5591 15.6933 15.6524 15.9267 15.8458 15.9267H20.1458C20.3558 15.9267 20.4458 15.6633 20.2791 15.54C19.5224 14.9667 18.8091 14.05 18.6691 13.2467C18.6691 13.23 18.6658 13.2167 18.6658 13.2V12.3267C18.6658 12.2533 18.7058 12.1833 18.7691 12.1433L21.6058 10.3767C21.6691 10.3333 21.7258 10.2867 21.7791 10.2333C22.5024 9.49 22.3024 8.26667 22.1824 7.53667L22.0224 6.55667C22.0058 6.45 21.9124 6.37334 21.8058 6.37334H13.9258C13.8191 6.37334 13.7258 6.45 13.7091 6.55667L13.5691 7.42334L13.5724 7.42667Z" fill="black"/>
<path d="M21.1524 1.2C21.0724 0.696669 20.6391 0.333336 20.1291 0.333336H15.6491C15.6491 0.333336 15.6491 0.333336 15.6458 0.333336H15.4924V0.346669C14.7758 0.410003 14.6291 0.923336 14.5991 1.09L13.9891 4.84667H21.7424L21.1524 1.20334V1.2Z" fill="black"/>
</g>
<defs>
<clipPath id="clip0_15805_63748">
<rect width="24" height="24" fill="white"/>
</clipPath>
</defs>
</svg>
