<svg width="24" height="24" viewBox="0 0 24 24" fill="none" xmlns="http://www.w3.org/2000/svg">
<g clip-path="url(#clip0_15805_63753)">
<path d="M21.67 24L23.1 22.5333L18.61 17.9233L18.76 17.6633C19.2333 16.84 19.4833 15.9067 19.4833 14.96C19.4833 12.02 17.1567 9.63 14.2967 9.63C11.4367 9.63 9.11 12.0233 9.11 14.96C9.11 17.8967 11.4367 20.29 14.2967 20.29C15.2167 20.29 16.1233 20.0333 16.9267 19.5467L17.1833 19.39L21.67 24ZM17.4667 14.96C17.4667 15.7967 17.1533 16.5933 16.58 17.21L16.4833 17.31C15.8867 17.8933 15.11 18.2167 14.2967 18.2167C12.55 18.2167 11.1267 16.7567 11.1267 14.9633C11.1267 13.17 12.55 11.71 14.2967 11.71C16.0433 11.71 17.4667 13.17 17.4667 14.9633V14.96ZM20.4867 12.3167H20.2767C19.28 9.94 16.98 8.27333 14.3 8.27333C10.7033 8.27333 7.78667 11.2667 7.78667 14.96C7.78667 17.6533 9.34 19.9667 11.5767 21.0267H3.51333V12.3167H0L12 0L24 12.3167H20.4833H20.4867Z" fill="black"/>
</g>
<defs>
<clipPath id="clip0_15805_63753">
<rect width="24" height="24" fill="white"/>
</clipPath>
</defs>
</svg>
