<?xml version="1.0" encoding="UTF-8"?>
<svg width="24px" height="24px" viewBox="0 0 24 24" version="1.1" xmlns="http://www.w3.org/2000/svg" xmlns:xlink="http://www.w3.org/1999/xlink">
    <title>Icon/Fill/horizontal-more-fill</title>
    <g id="Icon/Fill/horizontal-more-fill" stroke="none" stroke-width="1" fill="none" fill-rule="evenodd">
        <g id="Group" transform="translate(-0.000000, 9.000000)" fill="#474747" fill-rule="nonzero">
            <g id="horizontal-more">
                <path d="M3,0 C4.65700002,0 6,1.34300003 6,3 C6,4.65699999 4.65700002,6 3,6 C1.34300001,6 0,4.65699999 0,3 C0,1.34300003 1.34300001,0 3,0 Z M12,0 C13.657,0 15,1.34300003 15,3 C15,4.65699999 13.657,6 12,6 C10.3430001,6 9.00000004,4.65699999 9.00000004,3 C9.00000004,1.34300003 10.3430001,0 12,0 Z M21.0000001,0 C22.6570001,0 24.0000001,1.34300003 24.0000001,3 C24.0000001,4.65699999 22.6570001,6 21.0000001,6 C19.3430001,6 18.0000001,4.65699999 18.0000001,3 C18.0000001,1.34300003 19.3430001,0 21.0000001,0 Z" id="Horizontal-More"></path>
            </g>
        </g>
    </g>
</svg>