<?xml version="1.0" encoding="UTF-8"?>
<svg width="24px" height="24px" viewBox="0 0 24 24" version="1.1" xmlns="http://www.w3.org/2000/svg" xmlns:xlink="http://www.w3.org/1999/xlink">
    <title>Icon/Fill/hospital-fill</title>
    <g id="Icon/Fill/hospital-fill" stroke="none" stroke-width="1" fill="none" fill-rule="evenodd">
        <g id="Group" transform="translate(-0.000000, -0.000000)" fill="#474747" fill-rule="nonzero">
            <g id="hospital">
                <path d="M22.4998595,20.9998501 L23.9998501,20.9998501 L23.9998501,23.9998501 L22.4998595,23.9998501 L18.5623841,23.9998501 L5.43746604,23.9998501 L1.5,23.9998501 L0,23.9998501 L0,20.9998501 L1.5,20.9998501 L1.5,4.49997189 C1.5,3.67197707 2.17198644,2.99998126 2.99998126,2.99998126 L3.93747541,2.99998126 L3.93747541,1.5 C3.93747541,0.671995803 4.60947121,-6.59098022e-24 5.43746604,-6.59098022e-24 L18.5623841,-6.59098022e-24 C19.3903789,-6.59098022e-24 20.0623747,0.671995803 20.0623747,1.5 L20.0623747,2.99998126 L20.9998689,2.99998126 C21.8278637,2.99998126 22.4998595,3.67197707 22.4998595,4.49997189 L22.4998595,20.9998501 Z M7.50000003,20.9998501 L16.5,20.9998501 L16.5,14.9998501 L7.50000003,14.9998501 L7.50000003,20.9998501 Z M7.50000003,5.99983595 L7.50000003,8.99981719 L10.499986,8.99981719 L10.499986,11.9998032 L13.4999672,11.9998032 L13.4999672,8.99981719 L16.4999532,8.99981719 L16.4999532,5.99983595 L13.4999672,5.99983595 L13.4999672,2.99985001 L10.499986,2.99985001 L10.499986,5.99983595 L7.50000003,5.99983595 Z" id="Page-1"></path>
            </g>
        </g>
    </g>
</svg>