<?xml version="1.0" encoding="UTF-8"?>
<svg width="24px" height="24px" viewBox="0 0 24 24" version="1.1" xmlns="http://www.w3.org/2000/svg" xmlns:xlink="http://www.w3.org/1999/xlink">
    <title>Icon/Fill/hub-fill</title>
    <g id="Icon/Fill/hub-fill" stroke="none" stroke-width="1" fill="none" fill-rule="evenodd">
        <g id="Group" transform="translate(1.000000, 0.000000)" fill="#474747" fill-rule="nonzero">
            <path d="M19.3727063,14.9235329 C18.8562191,14.9231635 18.3601468,15.1251784 17.9908542,15.486263 L14.4379959,13.4417879 C14.8294495,12.4514711 14.8018082,11.3446182 14.3614113,10.3750751 L17.9342482,8.33725948 C18.584922,9.0258055 19.6329159,9.15520387 20.4315276,8.64560471 C21.2301394,8.13600555 21.5542858,7.13103585 21.2039408,6.25084812 C20.8535959,5.3706604 19.9275017,4.86332947 18.9971379,5.04192204 C18.0667742,5.22051461 17.3943574,6.03469559 17.3948264,6.98204549 C17.3955352,7.13561464 17.4134048,7.28862354 17.4481026,7.43822317 L13.8319788,9.50600668 C13.1857731,8.70253661 12.2539865,8.17997253 11.231433,8.04757 L11.231433,3.89535416 C12.1923255,3.63877469 12.8140754,2.70956604 12.6846861,1.72345969 C12.5552967,0.737353347 11.7148731,0 10.7203142,0 C9.72575538,0 8.88533182,0.737353347 8.75594243,1.72345969 C8.62655304,2.70956604 9.248303,3.63877469 10.2091955,3.89535416 L10.2091955,8.04757 C9.18664202,8.17997253 8.25485538,8.70253661 7.60864968,9.50600668 L3.94590917,7.398266 C3.97950887,7.25644001 3.99627337,7.11114775 3.99585563,6.96539667 C4.00513855,6.00248065 3.32621697,5.1699587 2.38111945,4.98533984 C1.43602193,4.80072099 0.493709435,5.31654507 0.13993856,6.21216754 C-0.213832316,7.10779001 0.121616455,8.12832978 0.937764524,8.63940294 C1.75391259,9.1504761 2.81849613,9.00663867 3.4697529,8.29730231 L7.0692279,10.3684156 C6.84491681,10.879352 6.73143165,11.4320248 6.73625149,11.9900107 C6.73706785,12.4844612 6.82964929,12.9744654 7.00929214,13.4351283 L3.4231362,15.5029118 C2.75649638,14.8372714 1.71247112,14.7352754 0.929606425,15.2593066 C0.146741728,15.7833379 -0.156895786,16.7874276 0.204404449,17.6574552 C0.565704684,18.5274827 1.49130265,19.0211024 2.41508475,18.8364067 C3.33886685,18.6517111 4.003514,17.8401471 4.00251515,16.898083 C4.00310666,16.7258332 3.97956967,16.5543495 3.93259011,16.3886291 L7.49210794,14.3308349 C8.13670338,15.2192984 9.12019706,15.8014399 10.2091955,15.9391109 L10.2091955,20.1046458 C9.248303,20.3612253 8.62655304,21.290434 8.75594243,22.2765403 C8.88533182,23.2626467 9.72575538,24 10.7203142,24 C11.7148731,24 12.5552967,23.2626467 12.6846861,22.2765403 C12.8140754,21.290434 12.1923255,20.3612253 11.231433,20.1046458 L11.231433,15.9457705 C12.3205966,15.8037882 13.3032851,15.2197147 13.9485205,14.3308349 L17.4680812,16.3586612 C17.4200018,16.5321848 17.3953648,16.711363 17.3948264,16.8914235 C17.3921309,17.6936513 17.873485,18.4183244 18.6140044,18.7268821 C19.3545237,19.0354398 20.2080293,18.8669726 20.7757709,18.3001867 C21.3435125,17.7334009 21.5134177,16.8801804 21.2061081,16.1391422 C20.8987986,15.398104 20.1749375,14.9155296 19.3727063,14.9168734 L19.3727063,14.9235329 Z" id="Path"></path>
        </g>
    </g>
</svg>