<?xml version="1.0" encoding="UTF-8"?>
<svg width="24px" height="24px" viewBox="0 0 24 24" version="1.1" xmlns="http://www.w3.org/2000/svg" xmlns:xlink="http://www.w3.org/1999/xlink">
    <title>Icon/Rich text editor/remove hyperlink</title>
    <g id="Icon/Rich-text-editor/remove-hyperlink" stroke="none" stroke-width="1" fill="none" fill-rule="evenodd">
        <path d="M18.6210492,14.4491841 C18.7772986,14.4491841 18.9179232,14.3866845 19.0429232,14.2616846 L19.0429232,14.2616846 L22.0897909,11.2148168 C22.9335389,10.3710688 23.5038503,9.38669619 23.8007243,8.26169887 C24.0975984,7.13670156 24.0975984,6.01170424 23.8007243,4.88670692 C23.5038503,3.7617096 22.9335389,2.77733695 22.0897909,1.93358896 C21.2460429,1.08984097 20.2616703,0.519529594 19.1366729,0.22265554 C18.0116756,-0.0742185134 16.8866783,-0.0742185134 15.761681,0.22265554 C14.6366837,0.519529594 13.652311,1.08984097 12.808563,1.93358896 L12.808563,1.93358896 L9.7616953,4.9804567 C9.63669536,5.10545664 9.57419574,5.2460813 9.57419574,5.40233069 C9.57419574,5.55858008 9.63669536,5.68358002 9.7616953,5.7773298 L9.7616953,5.7773298 L10.8398177,6.85545223 C10.9335675,6.949202 11.0585674,6.99607689 11.2148168,6.99607689 C11.3710662,6.99607689 11.5116909,6.949202 11.6366908,6.85545223 L11.6366908,6.85545223 L14.6366837,3.80858449 C15.4179321,3.02733612 16.3632418,2.63671228 17.4726144,2.63671228 C18.581987,2.63671228 19.5116721,3.03514883 20.2616703,3.83202193 C21.0116685,4.62889504 21.3866676,5.55858008 21.3866676,6.62107779 C21.3866676,7.68357549 20.9960438,8.58982309 20.2147954,9.3398213 L20.2147954,9.3398213 L17.1679276,12.386689 C17.0741779,12.511689 17.027303,12.6523136 17.027303,12.808563 C17.027303,12.9648124 17.0741779,13.0898124 17.1679276,13.1835621 L17.1679276,13.1835621 L18.2460501,14.2616846 C18.3397998,14.3866845 18.4647998,14.4491841 18.6210492,14.4491841 Z M22.3710402,24.0116613 C22.5272896,24.0116613 22.6679143,23.9491617 22.7929142,23.8241618 L22.7929142,23.8241618 L23.8241618,22.7929142 C23.9491617,22.6679143 24.0116613,22.5272896 24.0116613,22.3710402 C24.0116613,22.2147908 23.9491617,22.0897909 23.8241618,21.9960411 L23.8241618,21.9960411 L2.02733874,0.199218096 C1.93358896,0.0742181558 1.80858902,0.0117185432 1.65233963,0.0117185432 C1.49609024,0.0117185432 1.35546558,0.0742181558 1.23046564,0.199218096 L1.23046564,0.199218096 L0.199218096,1.23046564 C0.0742181558,1.35546558 0.0117185432,1.49609024 0.0117185432,1.65233963 C0.0117185432,1.80858902 0.0742181558,1.93358896 0.199218096,2.02733874 L0.199218096,2.02733874 L21.9960411,23.8241618 C22.0897909,23.9491617 22.2147908,24.0116613 22.3710402,24.0116613 Z M4.88670692,23.8007243 C6.01170424,24.0975984 7.13670156,24.0975984 8.26169887,23.8007243 C9.38669619,23.5038503 10.3710688,22.9335389 11.2148168,22.0897909 L11.2148168,22.0897909 L14.2616846,19.0429232 C14.3866845,18.9179232 14.4491841,18.7772986 14.4491841,18.6210492 C14.4491841,18.4647998 14.3866845,18.3397998 14.2616846,18.2460501 L14.2616846,18.2460501 L13.1835621,17.1679276 C13.0898124,17.0741779 12.9648124,17.027303 12.808563,17.027303 C12.6523136,17.027303 12.511689,17.0741779 12.386689,17.1679276 L12.386689,17.1679276 L9.3398213,20.2147954 C8.58982309,20.9960438 7.68357549,21.3866676 6.62107779,21.3866676 C5.55858008,21.3866676 4.62889504,21.0116685 3.83202193,20.2616703 C3.03514883,19.5116721 2.63671228,18.581987 2.63671228,17.4726144 C2.63671228,16.3632418 3.02733612,15.4179321 3.80858449,14.6366837 L3.80858449,14.6366837 L6.85545223,11.6366908 C6.949202,11.5116909 6.99607689,11.3710662 6.99607689,11.2148168 C6.99607689,11.0585674 6.949202,10.9335675 6.85545223,10.8398177 L6.85545223,10.8398177 L5.7773298,9.7616953 C5.68358002,9.63669536 5.55858008,9.57419574 5.40233069,9.57419574 C5.2460813,9.57419574 5.10545664,9.63669536 4.9804567,9.7616953 L4.9804567,9.7616953 L1.93358896,12.808563 C1.08984097,13.652311 0.519529594,14.6366837 0.22265554,15.761681 C-0.0742185134,16.8866783 -0.0742185134,18.0116756 0.22265554,19.1366729 C0.519529594,20.2616703 1.08984097,21.2460429 1.93358896,22.0897909 C2.77733695,22.9335389 3.7617096,23.5038503 4.88670692,23.8007243 Z" id="Color" fill="#474747"></path>
    </g>
</svg>