<?xml version="1.0" encoding="UTF-8"?>
<svg width="24px" height="24px" viewBox="0 0 24 24" version="1.1" xmlns="http://www.w3.org/2000/svg" xmlns:xlink="http://www.w3.org/1999/xlink">
    <title>Icon/Rich text editor/hyperlink</title>
    <g id="Icon/Rich-text-editor/hyperlink" stroke="none" stroke-width="1" fill="none" fill-rule="evenodd">
        <path d="M10.9804424,15.9491805 C11.1991921,16.0741805 11.4179411,16.0429303 11.6366908,15.8554308 L11.6366908,15.8554308 L11.8241904,15.6679312 C12.2304396,15.2616819 12.4648141,14.7773083 12.5273137,14.2148097 C12.5585639,13.9648105 12.4491887,13.777311 12.1991895,13.652311 C11.7929402,13.4648115 11.4335665,13.2148123 11.1210671,12.9023128 C10.3710688,12.1210644 9.99606974,11.1835667 9.99606974,10.0898195 C9.99606974,8.99607236 10.3710688,8.07419932 11.1210671,7.32420111 L11.1210671,7.32420111 L14.6835586,3.80858449 C15.4335568,3.02733612 16.3554298,2.63671228 17.449177,2.63671228 C18.5429241,2.63671228 19.4726099,3.01952411 20.2382328,3.78514705 C21.0038558,4.55076998 21.3866676,5.48045574 21.3866676,6.5742029 C21.3866676,7.66795005 20.9960438,8.58982309 20.2147954,9.3398213 L20.2147954,9.3398213 L18.1054254,11.4960662 C17.949176,11.6523156 17.8866757,11.8241904 17.9179259,12.0116899 C18.0741752,12.6054388 18.1523003,13.1991869 18.1523003,13.7929357 C18.1523003,14.0429349 18.2694875,14.2148097 18.503862,14.3085595 C18.7382364,14.4023092 18.9491734,14.3554343 19.1366729,14.1679348 L19.1366729,14.1679348 L22.0897909,11.2148168 C22.9335389,10.3710688 23.5038503,9.38669619 23.8007243,8.26169887 C24.0975984,7.13670156 24.0975984,6.01170424 23.8007243,4.88670692 C23.5038503,3.7617096 22.9335389,2.77733695 22.0897909,1.93358896 C21.2460429,1.08984097 20.2616703,0.519529594 19.1366729,0.22265554 C18.0116756,-0.0742185134 16.8866783,-0.0742185134 15.761681,0.22265554 C14.6366837,0.519529594 13.652311,1.08984097 12.808563,1.93358896 L12.808563,1.93358896 L10.8398177,3.90233427 C9.6523208,5.0898312 8.98044692,5.7773298 8.82419753,5.96482935 C8.13669893,6.80857734 7.6913875,7.76169983 7.48826322,8.82419753 C7.28513894,9.88669524 7.33982583,10.9413802 7.65232533,11.9882525 C7.96482482,13.0351248 8.51169804,13.9491851 9.29294642,14.7304335 C9.79294546,15.2304325 10.3554441,15.6366811 10.9804424,15.9491805 Z M4.88670692,23.8007243 C6.01170424,24.0975984 7.13670156,24.0975984 8.26169887,23.8007243 C9.38669619,23.5038503 10.3710688,22.9335389 11.2148168,22.0897909 L11.2148168,22.0897909 L13.1835621,20.1210456 C14.3710591,18.9335487 15.0429329,18.2460501 15.1991823,18.0585505 C15.8866809,17.2148025 16.3319924,16.26168 16.5351166,15.1991823 C16.7382409,14.1366846 16.683554,13.0819996 16.3710545,12.0351274 C16.058555,10.9882551 15.5116818,10.0741948 14.7304335,9.29294642 C14.2304344,8.79294737 13.6679357,8.38669881 13.0429375,8.07419932 C12.8241878,7.94919938 12.6054388,7.98044954 12.386689,8.1679491 L12.386689,8.1679491 L12.1991895,8.35544865 C11.7929402,8.76169792 11.5585658,9.24607153 11.4960662,9.80857019 C11.464816,10.0585694 11.5741912,10.2460689 11.8241904,10.3710688 C12.2304396,10.5585684 12.5898133,10.8085676 12.9023128,11.1210671 C13.652311,11.9023154 14.0273101,12.8398132 14.0273101,13.9335604 C14.0273101,15.0273075 13.652311,15.9491805 12.9023128,16.6991788 L12.9023128,16.6991788 L9.3398213,20.2147954 C8.58982309,20.9960438 7.66795005,21.3866676 6.5742029,21.3866676 C5.48045574,21.3866676 4.55076998,21.0038558 3.78514705,20.2382328 C3.01952411,19.4726099 2.63671228,18.5429241 2.63671228,17.449177 C2.63671228,16.3554298 3.02733612,15.4335568 3.80858449,14.6835586 L3.80858449,14.6835586 L5.91795446,12.5273137 C6.07420385,12.3710643 6.13670418,12.1991895 6.10545401,12.0116899 C5.94920463,11.4179411 5.87107957,10.824193 5.87107957,10.2304442 C5.87107957,9.98044501 5.75389235,9.80857019 5.51951791,9.71482041 C5.28514347,9.62107063 5.07420647,9.66794552 4.88670692,9.85544507 L4.88670692,9.85544507 L1.93358896,12.808563 C1.08984097,13.652311 0.519529594,14.6366837 0.22265554,15.761681 C-0.0742185134,16.8866783 -0.0742185134,18.0116756 0.22265554,19.1366729 C0.519529594,20.2616703 1.08984097,21.2460429 1.93358896,22.0897909 C2.77733695,22.9335389 3.7617096,23.5038503 4.88670692,23.8007243 Z" id="Color" fill="#474747"></path>
    </g>
</svg>