<?xml version="1.0" encoding="UTF-8"?>
<svg width="24px" height="24px" viewBox="0 0 24 24" version="1.1" xmlns="http://www.w3.org/2000/svg" xmlns:xlink="http://www.w3.org/1999/xlink">
    <title>Icon/Fill/image-fill</title>
    <g id="Icon/Fill/image-fill" stroke="none" stroke-width="1" fill="none" fill-rule="evenodd">
        <g id="Group" transform="translate(-0.000000, -0.000000)" fill="#474747" fill-rule="nonzero">
            <g id="image" transform="translate(0.000000, 3.000000)">
                <path d="M22.5,0 C23.3280001,0 24,0.672000003 24,1.5 L24,16.5 C24,17.3280001 23.3280001,18 22.5,18 L1.5,18 C0.672000003,18 0,17.3280001 0,16.5 L0,1.5 C0,0.672000003 0.672000003,0 1.5,0 L22.5,0 Z M12,15 L21,15 L14.2500001,6.00000003 L9.75000004,11.9994603 L7.50000001,9.00053981 L3.00000001,15 L7.50000001,15 L12,15 Z M5.25000002,3.00000001 C4.00800002,3.00000001 3.00000001,4.00800002 3.00000001,5.25000002 C3.00000001,6.49200003 4.00800002,7.50000001 5.25000002,7.50000001 C6.49200003,7.50000001 7.50000001,6.49200003 7.50000001,5.25000002 C7.50000001,4.00800002 6.49200003,3.00000001 5.25000002,3.00000001 Z" id="Page-1"></path>
            </g>
        </g>
    </g>
</svg>