<?xml version="1.0" encoding="UTF-8"?>
<svg width="24px" height="24px" viewBox="0 0 24 24" version="1.1" xmlns="http://www.w3.org/2000/svg" xmlns:xlink="http://www.w3.org/1999/xlink">
    <title>Icon/Fill/immersive-technology-fill</title>
    <g id="Icon/Fill/immersive-technology-fill" stroke="none" stroke-width="1" fill="none" fill-rule="evenodd">
        <g id="Group" transform="translate(0.000000, 2.000000)" fill="#474747" fill-rule="nonzero">
            <path d="M0.53,2.22891317 L0,2.02557983 L0,10.4255798 L0.263333333,10.5155798 C1.04333333,10.7822465 2.55666667,11.1822465 4.76333333,11.7489132 L5.24666667,11.8689132 L5.24666667,3.42557983 L4.91333333,3.37891317 C3.40775619,3.19131249 1.9337602,2.80459871 0.53,2.22891317 Z" id="Path"></path>
            <path d="M23.47,2.22891317 C22.0668222,2.80088847 20.5939801,3.18423093 19.09,3.36891317 L18.7566667,3.41557983 L18.7566667,11.8789132 L19.2366667,11.7589132 C21.4433333,11.2055798 22.9566667,10.7922465 23.7366667,10.5255798 L24,10.4255798 L24,2.02557983 L23.47,2.22891317 Z" id="Path"></path>
            <path d="M20.8433333,17.3322465 L20.8433333,17.3322465 C19.2066667,15.1889132 15.6933333,13.8055798 11.8933333,13.8055798 C8.09333333,13.8055798 4.58333333,15.1889132 2.94666667,17.3322465 C2.53542073,17.865582 2.46671992,18.5875886 2.77,19.1889132 C3.0676504,19.8013008 3.68910814,20.1897119 4.37,20.1889144 L19.42,20.1889144 C20.1008919,20.1897119 20.7223496,19.8013008 21.02,19.1889132 C21.3216357,18.58728 21.2530226,17.8661952 20.8433333,17.3322465 L20.8433333,17.3322465 Z" id="Path"></path>
            <path d="M1.63333333,1.64557983 C2.90458716,2.09427824 4.22326676,2.39514746 5.56333333,2.5422465 L5.59333333,2.5422465 C5.62324391,2.53897063 5.65342276,2.53897063 5.68333333,2.5422465 C6.09256677,2.54224238 6.42483154,2.87301718 6.42666667,3.2822465 L6.42666667,8.03557983 C6.84666667,7.96891317 7.26333333,7.90891317 7.67666667,7.8522465 C7.79753402,7.03101706 8.15550955,6.26293366 8.70666667,5.6422465 C9.46283816,4.64413039 10.6427895,4.05772379 11.895,4.05772379 C13.1472105,4.05772379 14.3271618,4.64413039 15.0833333,5.6422465 C15.6576145,6.28843472 16.0215301,7.09416469 16.1266667,7.9522465 C16.59,8.00891317 17.0533333,8.0722465 17.5233333,8.14891317 L17.5233333,3.2822465 C17.5251685,2.87301718 17.8574332,2.54224238 18.2666667,2.5422465 C18.2965772,2.53897063 18.3267561,2.53897063 18.3566667,2.5422465 L18.3833333,2.5422465 C19.7978335,2.38958068 21.1882367,2.06380987 22.5233333,1.5722465 C15.7176475,-0.548821233 8.42395982,-0.523217096 1.63333333,1.64557983 Z" id="Path"></path>
            <path d="M11.8933333,12.0922465 C10.4242266,12.0922465 9.0999686,11.2067339 8.53870454,9.84906778 C7.97744049,8.49140165 8.28984513,6.92929243 9.33009234,5.89191092 C10.3703396,4.8545294 11.9333046,4.54643521 13.2894173,5.11144241 C14.6455299,5.6764496 15.5273805,7.00314531 15.5233472,8.4722465 C15.5178212,10.4731338 13.8942282,12.0922465 11.8933333,12.0922465 Z" id="Path"></path>
        </g>
    </g>
</svg>