<?xml version="1.0" encoding="UTF-8"?>
<svg width="24px" height="24px" viewBox="0 0 24 24" version="1.1" xmlns="http://www.w3.org/2000/svg" xmlns:xlink="http://www.w3.org/1999/xlink">
    <title>Icon/Fill/infinity-fill</title>
    <g id="Icon/Fill/infinity-fill" stroke="none" stroke-width="1" fill="none" fill-rule="evenodd">
        <g id="Group" transform="translate(-0.000000, 6.000000)" fill="#474747" fill-rule="nonzero">
            <g id="Infinity-fill">
                <path d="M18.1202356,11.7474347 C16.4390974,11.7455809 14.8388617,11.0254749 13.7225406,9.76847186 L13.6892247,9.72516124 L12.0034416,7.62292975 L10.281011,9.76847186 C8.66330103,11.5993647 6.08156239,12.2384249 3.79657177,11.3735712 C1.51158115,10.5087176 0,8.32036323 0,5.877178 C0,3.43399284 1.51158115,1.24563845 3.79657177,0.380784789 C6.08156239,-0.484068864 8.66330103,0.154991349 10.281011,1.98588421 L10.337648,2.03918956 L12.0034416,4.13142632 L13.7125458,1.99921051 C15.5014405,-0.0316052696 18.4459192,-0.578197757 20.8444884,0.675286473 C23.2430576,1.92877073 24.4754954,4.65820577 23.8296263,7.2863629 C23.1837573,9.91452011 20.8265904,11.7618106 18.1202356,11.7607614 L18.1202356,11.7474347 Z M15.381671,8.33255778 C16.4003641,9.46778486 18.0136071,9.85725424 19.4380393,9.31184696 C20.8624715,8.76643968 21.8030516,7.39912555 21.8030516,5.87384642 C21.8030516,4.34856737 20.8624715,2.98125316 19.4380393,2.43584588 C18.0136071,1.89043861 16.4003641,2.27990806 15.381671,3.41513506 L13.4160345,5.87051485 L15.381671,8.33255778 Z M5.88664745,2.18577823 C4.19402372,2.18444843 2.71819146,3.33644761 2.30855201,4.97875464 C1.89891256,6.62106167 2.66083817,8.33122316 4.15580974,9.12497178 C5.6507813,9.91872041 7.49424477,9.59187889 8.62521213,8.33255778 L10.6008433,5.87051485 L8.63520686,3.41513506 C7.93589058,2.63263921 6.93609637,2.18545846 5.88664745,2.18577823 L5.88664745,2.18577823 Z" id="Icon/Infinity/Fill"></path>
            </g>
        </g>
    </g>
</svg>