<?xml version="1.0" encoding="UTF-8"?>
<svg width="24px" height="24px" viewBox="0 0 24 24" version="1.1" xmlns="http://www.w3.org/2000/svg" xmlns:xlink="http://www.w3.org/1999/xlink">
    <title>Icon/Fill/information-fill</title>
    <g id="Icon/Fill/information-fill" stroke="none" stroke-width="1" fill="none" fill-rule="evenodd">
        <g id="Group" transform="translate(-0.000000, -0.000000)" fill="#474747" fill-rule="nonzero">
            <g id="Information">
                <path d="M12,0 C18.6270001,0 24,5.37300002 24,12 C24,18.6270001 18.6270001,24 12,24 C5.37300002,24 0,18.6270001 0,12 C0,5.37300002 5.37300002,0 12,0 Z M12,5.25000002 C11.172,5.25000002 10.5,5.92100003 10.5,6.75000002 C10.5,7.57800003 11.172,8.25000002 12,8.25000002 C12.8280001,8.25000002 13.5,7.57800003 13.5,6.75000002 C13.5,5.92100003 12.8280001,5.25000002 12,5.25000002 Z M10.5,18.75 L13.5,18.75 L13.5,11.25 L10.5,11.25 L10.5,18.75 Z" id="Combined-Shape"></path>
            </g>
        </g>
    </g>
</svg>