<?xml version="1.0" encoding="UTF-8"?>
<svg width="24px" height="24px" viewBox="0 0 24 24" version="1.1" xmlns="http://www.w3.org/2000/svg" xmlns:xlink="http://www.w3.org/1999/xlink">
    <title>Icon/Rich text editor/insert picture</title>
    <g id="Icon/Rich-text-editor/insert-picture" stroke="none" stroke-width="1" fill="none" fill-rule="evenodd">
        <path d="M21.7499481,20.9999571 C22.3749464,20.9999571 22.9061956,20.7812074 23.3436943,20.3437086 C23.7811931,19.9062099 23.9999428,19.3749607 23.9999428,18.7499624 L23.9999428,18.7499624 L23.9999428,5.24999464 C23.9999428,4.62499636 23.7811931,4.09374715 23.3436943,3.65624844 C22.9061956,3.21874972 22.3749464,3 21.7499481,3 L21.7499481,3 L2.24999464,3 C1.62499636,3 1.09374715,3.21874972 0.656248435,3.65624844 C0.218749717,4.09374715 0,4.62499636 0,5.24999464 L0,5.24999464 L0,18.7499624 C0,19.3749607 0.218749717,19.9062099 0.656248435,20.3437086 C1.09374715,20.7812074 1.62499636,20.9999571 2.24999464,20.9999571 L2.24999464,20.9999571 L21.7499481,20.9999571 Z M21.4686988,18.7499624 L2.53124397,18.7499624 C2.46874435,18.7499624 2.40624402,18.7187123 2.34374441,18.6562127 C2.2812448,18.5937131 2.24999464,18.5312127 2.24999464,18.4687131 L2.24999464,18.4687131 L2.24999464,5.53124397 C2.24999464,5.46874435 2.2812448,5.40624402 2.34374441,5.34374441 C2.40624402,5.2812448 2.46874435,5.24999464 2.53124397,5.24999464 L2.53124397,5.24999464 L21.4686988,5.24999464 C21.5311984,5.24999464 21.5936988,5.2812448 21.6561984,5.34374441 C21.718698,5.40624402 21.7499481,5.46874435 21.7499481,5.53124397 L21.7499481,5.53124397 L21.7499481,18.4687131 C21.7499481,18.5312127 21.718698,18.5937131 21.6561984,18.6562127 C21.5936988,18.7187123 21.5311984,18.7499624 21.4686988,18.7499624 L21.4686988,18.7499624 Z M19.4999535,16.4999678 L19.4999535,12.7499768 L15.3749633,8.62498659 C15.2812136,8.53123681 15.1562136,8.48436192 14.9999642,8.48436192 C14.8437148,8.48436192 14.7187149,8.53123681 14.6249651,8.62498659 L14.6249651,8.62498659 L8.99997854,14.2499732 L7.12498301,12.3749776 C7.03123324,12.2812279 6.9062333,12.234353 6.74998391,12.234353 C6.59373452,12.234353 6.46873458,12.2812279 6.3749848,12.3749776 L6.3749848,12.3749776 L4.49998927,14.2499732 L4.49998927,16.4999678 L19.4999535,16.4999678 Z M5.99998569,10.8749812 C6.53123419,10.8749812 6.97654563,10.6952944 7.33592001,10.33592 C7.69529439,9.97654563 7.87498122,9.53123419 7.87498122,8.99998569 C7.87498122,8.4687372 7.69529439,8.02342576 7.33592001,7.66405138 C6.97654563,7.304677 6.53123419,7.12499017 5.99998569,7.12499017 C5.4687372,7.12499017 5.02342576,7.304677 4.66405138,7.66405138 C4.304677,8.02342576 4.12499017,8.4687372 4.12499017,8.99998569 C4.12499017,9.53123419 4.304677,9.97654563 4.66405138,10.33592 C5.02342576,10.6952944 5.4687372,10.8749812 5.99998569,10.8749812 Z" id="Color" fill="#474747"></path>
    </g>
</svg>