<?xml version="1.0" encoding="UTF-8"?>
<svg width="24px" height="24px" viewBox="0 0 24 24" version="1.1" xmlns="http://www.w3.org/2000/svg" xmlns:xlink="http://www.w3.org/1999/xlink">
    <title>Icon/Fill/jewelry-fill</title>
    <g id="Icon/Fill/jewelry-fill" stroke="none" stroke-width="1" fill="none" fill-rule="evenodd">
        <g id="Group" transform="translate(0.000000, 2.000000)" fill="#474747" fill-rule="nonzero">
            <path d="M23.8533333,7.13333333 L23.7433333,7.26333333 L13.03,19.8533333 L12.34,20.6666667 L12.82,19.21 L16.7833333,7.13333333 L23.8533333,7.13333333 Z M7.18333333,7.13333333 L11.15,19.21 L11.5766667,20.5166667 L10.9566667,19.79 L0.146666667,7.13333333 L7.18333333,7.13333333 Z M15.1133333,7.13333333 L11.9833333,16.6633333 L8.85333333,7.13333333 L15.1133333,7.13333333 Z M5.83666667,0.483333333 L0.436666667,5.18666667 L0,5.55 L7.03333333,5.55 L5.83666667,0.483333333 L5.83666667,0.483333333 Z M24,5.55 L23.5666667,5.18666667 L18.14,0.446666667 L16.9333333,5.55 L24,5.55 L24,5.55 Z M12.0433333,1.77 L14.6933333,5.55 L9.35,5.55 L12.0433333,1.77 Z M11.7766667,0 L8.37666667,4.33666667 L7.35333333,0 L11.7766667,0 Z M16.6133333,0 L15.6,4.29 L12.1933333,0 L16.6133333,0 Z" id="Combined-Shape"></path>
        </g>
    </g>
</svg>