<svg width="24" height="24" viewBox="0 0 24 24" fill="none" xmlns="http://www.w3.org/2000/svg">
<g id="Fill=true">
<g id="Union">
<path d="M0.370989 0.402085C0.626239 0.141616 0.94656 0 1.30944 0H22.6906C23.0472 0 23.3628 0.137441 23.6062 0.401829C23.8653 0.650269 24 0.972296 24 1.33622C24 1.70057 23.854 2.01726 23.606 2.27034C23.3565 2.52495 23.0397 2.64892 22.6906 2.64892H1.30944C0.960825 2.64892 0.64571 2.52595 0.387517 2.28643L0.370604 2.27074L0.355229 2.25348C0.12674 1.997 0 1.6855 0 1.33622C0 0.979943 0.121487 0.656689 0.370989 0.402085Z" fill="#474747"/>
<path fill-rule="evenodd" clip-rule="evenodd" d="M21.861 5.59078L21.5845 20.4263C21.5692 21.0846 21.4002 21.6881 21.0777 22.2367C20.7551 22.7853 20.3173 23.2163 19.7644 23.5298C19.2268 23.8433 18.6431 24 18.0133 24H6.1247C5.47958 24 4.88822 23.8433 4.35062 23.5298C3.81302 23.2163 3.38294 22.7853 3.06038 22.2367C2.73782 21.6881 2.56886 21.0846 2.5535 20.4263L2.25398 5.59078H21.861ZM16.8 9.4262L15.744 8.32686L12 12.1623L8.256 8.32686L7.2 9.4262L10.944 13.2372L7.2 17.0483L8.256 18.1232L12 14.3121L15.744 18.1232L16.8 17.0483L13.056 13.2372L16.8 9.4262Z" fill="#474747"/>
</g>
</g>
</svg>
