<svg width="24" height="24" viewBox="0 0 24 24" fill="none" xmlns="http://www.w3.org/2000/svg">
<path d="M13.0501 4.44667C12.5035 1.92 10.1768 0.01 7.51347 0C5.9768 0.0166667 4.55347 0.59 3.50347 1.61667C2.4468 2.65 1.8368 4.08667 1.83013 5.56C1.82347 7.05333 2.41013 8.46 3.48347 9.52333C4.55347 10.5833 5.98013 11.1733 7.49013 11.1767C7.52013 11.1767 7.55013 11.1767 7.58347 11.1767C9.03347 11.1767 10.4635 10.59 11.5201 9.55667C12.2901 8.80667 12.8201 7.83667 13.0468 6.78333H18.2201L18.2135 8.93333L20.5935 8.94L20.6001 6.79H22.1568V4.47333L13.0535 4.44333L13.0501 4.44667ZM7.52013 8.83667H7.51013C6.62347 8.83667 5.79347 8.49333 5.17347 7.87667C4.55013 7.26 4.21013 6.44 4.21347 5.56C4.20013 4.72333 4.55347 3.89333 5.18013 3.28C5.7968 2.67667 6.62347 2.34333 7.50347 2.34333H7.51347C8.40013 2.34333 9.23013 2.68667 9.85013 3.30333C10.4735 3.92 10.8135 4.74 10.8101 5.60333C10.7868 7.38667 9.31347 8.83667 7.5168 8.83667H7.52013ZM22.1635 21.7733L22.1535 17.3L13.0501 17.27C12.5068 14.7467 10.1801 12.8333 7.51347 12.8233C5.9768 12.84 4.55347 13.4133 3.50347 14.44C2.4468 15.4733 1.8368 16.91 1.83013 18.3833C1.82347 19.8767 2.41013 21.2833 3.48347 22.3467C4.55347 23.4067 5.98013 23.9967 7.49013 24C7.52013 24 7.55013 24 7.58347 24C9.03347 24 10.4635 23.4133 11.5201 22.38C12.2901 21.63 12.8201 20.66 13.0468 19.6067H16.0335L16.0268 21.7533L18.4068 21.76L18.4135 19.61H19.7901L19.7835 21.76L22.1701 21.7667L22.1635 21.7733ZM7.52013 21.66H7.51013C6.62347 21.66 5.79347 21.3167 5.17347 20.7C4.55013 20.0833 4.21013 19.2633 4.21347 18.3833C4.20013 17.5467 4.55347 16.7167 5.18013 16.1033C5.7968 15.5 6.62347 15.1667 7.50347 15.1667H7.51347C8.40013 15.1667 9.23013 15.51 9.85013 16.1267C10.4735 16.7433 10.8135 17.5633 10.8101 18.4267C10.7868 20.21 9.31347 21.66 7.5168 21.66H7.52013Z" fill="black"/>
</svg>
