<?xml version="1.0" encoding="UTF-8"?>
<svg width="24px" height="24px" viewBox="0 0 24 24" version="1.1" xmlns="http://www.w3.org/2000/svg" xmlns:xlink="http://www.w3.org/1999/xlink">
    <title>Icon/Fill/keyboard-fill</title>
    <g id="Icon/Fill/keyboard-fill" stroke="none" stroke-width="1" fill="none" fill-rule="evenodd">
        <g id="Group" transform="translate(0.000000, 4.000000)" fill="#474747" fill-rule="nonzero">
            <path d="M3.6944869e-06,8.8817842e-16 L3.6944869e-06,13.8333248 C-0.000880199569,14.2314207 0.156869911,14.6134673 0.438366946,14.8949643 C0.719863982,15.1764614 1.10191056,15.3342115 1.50000369,15.3333276 L22.4999935,15.3333276 C22.8980894,15.3342115 23.280136,15.1764614 23.5616331,14.8949643 C23.8431301,14.6134673 24.0008802,14.2314207 24.0000037,13.8333248 L24.0000037,8.8817842e-16 L3.6944869e-06,8.8817842e-16 Z M13.3733325,3.99999753 C13.3733325,3.37775709 13.877758,2.87333156 14.4999985,2.87333156 C15.1222389,2.87333156 15.6266644,3.37775709 15.6266644,3.99999753 C15.6266644,4.62223796 15.1222389,5.1266635 14.4999985,5.1266635 C14.2011881,5.1266635 13.9146162,5.00796153 13.7033253,4.79667067 C13.4920345,4.58537982 13.3733325,4.29880792 13.3733325,3.99999753 Z M5.62667555,3.99999753 C5.62299386,4.62135686 5.11695187,5.12243564 4.49558648,5.11999702 C3.87422109,5.11754055 3.37214222,4.61249079 3.37335834,3.99112178 C3.37457889,3.36975277 3.87863443,2.86666489 4.50000464,2.86666489 C4.79969949,2.86754765 5.0867688,2.98744823 5.29805994,3.19998961 C5.50935108,3.41253099 5.62755597,3.70030268 5.62667555,3.99999753 L5.62667555,3.99999753 Z M8.37333558,3.99999753 C8.37333558,3.37775709 8.87776111,2.87333156 9.50000155,2.87333156 C10.122242,2.87333156 10.6266675,3.37775709 10.6266675,3.99999753 C10.6266675,4.62223796 10.122242,5.1266635 9.50000155,5.1266635 C9.20119115,5.1266635 8.91461925,5.00796153 8.7033284,4.79667067 C8.49203754,4.58537982 8.37333558,4.29880792 8.37333558,3.99999753 Z M18.3733294,3.99999753 C18.3733294,3.37775709 18.8777549,2.87333156 19.4999954,2.87333156 C20.1222358,2.87333156 20.6266613,3.37775709 20.6266613,3.99999753 C20.6266613,4.62223796 20.1222358,5.1266635 19.4999954,5.1266635 C19.201185,5.1266635 18.9146131,5.00796153 18.7033222,4.79667067 C18.4920314,4.58537982 18.3733294,4.29880792 18.3733294,3.99999753 Z M13.3733275,7.66666193 C13.3719834,7.21066717 13.6456297,6.79882195 14.0665273,6.62338471 C14.487425,6.44794747 14.9725698,6.54351571 15.2954855,6.86547607 C15.6184013,7.18743642 15.7154066,7.67229596 15.5412172,8.09371156 C15.3670278,8.51512715 14.9559952,8.78999456 14.4999985,8.78999456 C13.8798119,8.78817588 13.3769888,8.28684039 13.3733275,7.66666193 L13.3733275,7.66666193 Z M5.62667061,7.66666193 C5.62667061,8.28890236 5.12224507,8.7933279 4.50000464,8.7933279 C3.8777642,8.7933279 3.37333867,8.28890236 3.37333867,7.66666193 C3.37333867,7.04442149 3.8777642,6.53999596 4.50000464,6.53999596 C5.12224507,6.53999596 5.62667061,7.04442149 5.62667061,7.66666193 Z M8.37333061,7.66666193 C8.37198647,7.21066717 8.64563281,6.79882195 9.06653044,6.62338471 C9.48742807,6.44794747 9.9725729,6.54351571 10.2954886,6.86547607 C10.6184044,7.18743642 10.7154096,7.67229596 10.5412203,8.09371156 C10.3670309,8.51512715 9.9559983,8.78999456 9.50000155,8.78999456 C8.87981497,8.78817588 8.37699184,8.28684039 8.37333061,7.66666193 Z M20.6266613,7.66666193 C20.6266613,8.12235577 20.352158,8.53317907 19.9311518,8.70756556 C19.5101455,8.88195204 19.0255464,8.78555928 18.7033222,8.46333507 C18.381098,8.14111086 18.2847052,7.65651174 18.4590917,7.23550553 C18.6334782,6.81449931 19.0443015,6.53999596 19.4999954,6.53999596 C20.1222358,6.53999596 20.6266613,7.04442149 20.6266613,7.66666193 Z M8.10333574,10.5033268 L15.8966643,10.5033268 L15.8966643,12.2533258 L8.10333574,12.2533258 L8.10333574,10.5033268 Z" id="Shape"></path>
        </g>
    </g>
</svg>