<svg width="24" height="24" viewBox="0 0 24 24" fill="none" xmlns="http://www.w3.org/2000/svg">
<path d="M14.9735 3H9.0235V0H14.9735V3ZM21.6668 3V22.5C21.6668 23.3267 21.0002 24 20.1802 24H3.82016C3.00016 24 2.3335 23.3267 2.3335 22.5V3C2.3335 2.17333 3.00016 1.5 3.82016 1.5H6.05016V6H17.9468V1.5H20.1768C20.9968 1.5 21.6635 2.17333 21.6635 3H21.6668ZM19.1868 9.47333L13.9368 9.51667C13.3735 9.51667 12.9168 9.99 12.9202 10.5633C12.9202 10.84 13.0302 11.1 13.2235 11.2967C13.4168 11.49 13.6735 11.5967 13.9468 11.5967H13.9535L15.7568 11.5767L13.3068 14.34L10.5102 13.88C10.1102 13.8233 10.0202 13.7767 9.7535 14.02L5.87683 18.01C5.4735 18.3567 5.4135 18.9733 5.7435 19.3967C5.90683 19.6067 6.1435 19.74 6.40683 19.77C6.4435 19.7733 6.48016 19.7767 6.5135 19.7767C6.74016 19.7767 6.95683 19.6967 7.15683 19.5333L10.7735 15.94L13.4335 16.4533C13.9668 16.5433 13.9668 16.5233 14.2268 16.2733L17.1602 13.08L17.1668 13.0733L17.1835 14.5C17.1835 14.7767 17.2935 15.0367 17.4868 15.2333C17.6802 15.4267 17.9368 15.5333 18.2068 15.5333H18.2135C18.4868 15.5333 18.7468 15.4233 18.9368 15.2233C19.1268 15.0267 19.2335 14.7633 19.2302 14.4867L19.1868 9.47333Z" fill="black"/>
</svg>
