<?xml version="1.0" encoding="UTF-8"?>
<svg width="24px" height="24px" viewBox="0 0 24 24" version="1.1" xmlns="http://www.w3.org/2000/svg" xmlns:xlink="http://www.w3.org/1999/xlink">
    <title>Icon/Fill/labs-fill</title>
    <g id="Icon/Fill/labs-fill" stroke="none" stroke-width="1" fill="none" fill-rule="evenodd">
        <g id="Group" transform="translate(0.000000, 2.000000)" fill="#474747" fill-rule="nonzero">
            <g id="Fill-2">
                <path d="M6.66666667,20.6667404 L6.62666667,20.6667404 C5.36666667,20.5967404 4.45,20.1634071 3.90333333,19.3700737 C3.04333333,18.1200737 3.51333333,16.5400737 3.57,16.3700737 C3.57819671,16.341217 3.58936773,16.3132895 3.60333333,16.2867404 L7.86333333,7.03007373 L7.86333333,2.85674039 C7.8695606,2.78761502 7.82171677,2.72527306 7.75333333,2.71340706 C7.41828267,2.69520673 7.10004199,2.56083845 6.85333333,2.33340706 C6.46807681,1.93477708 6.35951292,1.34395625 6.57789079,0.834407875 C6.79626867,0.324859501 7.2989761,-0.00398790869 7.85333333,3.6525362e-05 L13.1866667,3.6525362e-05 C13.3846956,-0.000812305759 13.5749655,0.0770056499 13.7156182,0.216408117 C13.8562709,0.355810584 13.9357846,0.545378132 13.9366667,0.743407059 L13.9366667,0.743407059 L13.9733333,6.91340706 C14.4066667,7.85674039 16.8133333,13.0767404 18.1533333,15.9634071 C18.1533333,15.9934071 18.18,16.0200737 18.19,16.0500737 C18.64,17.4534071 18.5633333,18.5934071 17.9566667,19.4334071 C17.0566667,20.6667404 15.4133333,20.6667404 15.3333333,20.6667404 L6.66666667,20.6667404 Z M5.28333333,9.07007373 L5.28333333,5.35007373 C5.23009652,5.0549958 4.96614233,4.84525923 4.66666667,4.86007373 L1.33333333,4.86007373 C0.473333333,4.90007373 0,5.25340706 0,6.00340706 L0,6.14007373 C0.0399073129,6.69947151 0.502541062,7.13455028 1.06333333,7.14007373 L1.06333333,14.7267404 C1.06333333,15.3400737 1.22666667,16.3167404 1.81666667,16.5200737 L5.28333333,9.07007373 Z M20.6166667,17.8367404 C22.1266667,17.2100737 24,15.7500737 24,13.1167404 C23.9839802,11.1060821 22.8181183,9.28215582 21,8.42340706 L21,4.03674039 C21,3.62252683 20.6642136,3.28674039 20.25,3.28674039 L17.5833333,3.28674039 C16.7933333,3.28674039 15.9433333,3.70340706 15.9433333,4.62007373 C15.9431469,5.17026001 16.3055184,5.65477923 16.8333333,5.81007373 L16.8333333,8.44007373 C16.6733333,8.51340706 16.5333333,8.58674039 16.4033333,8.66007373 L20.6166667,17.8367404 Z M15.1366667,15.8367404 L14.9233333,15.1700737 L6.92333333,15.1700737 L6.71,15.8367404 C6.49,16.5034071 6.21666667,17.1300737 6.41,17.5634071 C6.60876013,17.994974 7.05246452,18.2598722 7.52666667,18.2300737 L14.3333333,18.2300737 C14.8065875,18.2594153 15.2490886,17.9944446 15.4466667,17.5634071 C15.6433333,17.1300737 15.37,16.5167404 15.15,15.8367404" id="Shape"></path>
            </g>
        </g>
    </g>
</svg>