<?xml version="1.0" encoding="UTF-8"?>
<svg width="24px" height="24px" viewBox="0 0 24 24" version="1.1" xmlns="http://www.w3.org/2000/svg" xmlns:xlink="http://www.w3.org/1999/xlink">
    <title>Icon/Fill/leader-fill</title>
    <g id="Icon/Fill/leader-fill" stroke="none" stroke-width="1" fill="none" fill-rule="evenodd">
        <g id="Group" transform="translate(1.499999, -0.000000)" fill="#474747" fill-rule="nonzero">
            <g id="leader-fill">
                <path d="M10.450003,13.4000001 C6.75197862,13.3944929 3.75551003,10.3980243 3.75000291,6.70000003 C3.75000291,2.99969219 6.7496951,0 10.450003,0 C14.1503108,0 17.150003,2.99969219 17.150003,6.70000003 C17.150003,10.4003079 14.1503108,13.4000001 10.450003,13.4000001 Z M20.5445718,16.0133334 C20.8208155,16.1308027 21.0000014,16.4009872 21.0000014,16.7000001 L21.0000014,23.2500001 C21.0000014,23.6642136 20.6626623,24.0000001 20.2465332,24.0000001 L0.753471197,24.0000001 C0.337342148,24.0000001 1.44713809e-06,23.6642136 1.44713809e-06,23.2500001 L1.44713809e-06,16.7000001 C-0.000585061052,16.4017849 0.177151612,16.1318203 0.452083876,16.0133334 C3.10948863,14.8986564 5.94345352,14.2588717 8.82395383,14.1233334 L10.4983279,15.6266668 L8.77707141,21.7666667 L10.4246554,23.4333334 L12.2195843,21.7666667 L10.4983279,15.6266668 L12.1727018,14.1233334 C15.0532022,14.2588717 17.887167,14.8986564 20.5445718,16.0133334 Z" id="Combined-Shape"></path>
            </g>
        </g>
    </g>
</svg>