<svg width="24" height="24" viewBox="0 0 24 24" fill="none" xmlns="http://www.w3.org/2000/svg">
<g clip-path="url(#clip0_15805_63767)">
<path d="M23.4315 8.34667C22.0581 10.55 20.7981 12.2133 19.4781 13.5667C19.5515 10.6667 19.5515 6.41 16.7615 0.986667C19.9181 2.35667 22.3748 5.04 23.4315 8.34667Z" fill="black"/>
<path d="M12.0781 18.5733C10.1181 17.83 8.38146 16.81 6.4348 15.4467C6.0848 13.3333 6.09813 11.2433 6.29813 8.75C7.89813 7.42 9.6648 6.38667 11.8515 5.3C13.7915 6.08333 15.5348 7.15333 17.5215 8.57C17.8648 10.6633 17.8548 12.7367 17.6615 15.21C16.0581 16.4867 14.2815 17.4933 12.0781 18.5733Z" fill="black"/>
<path d="M14.4748 0.256667C15.6381 2.47333 16.4315 4.35 16.9515 6.1C13.4981 3.83667 10.3681 2.57667 5.29813 2.05C7.2148 0.756667 9.52146 0 12.0015 0C12.8481 0 13.6781 0.09 14.4748 0.256667Z" fill="black"/>
<path d="M3.43146 3.61333C5.8748 3.77333 7.84813 4.07333 9.5848 4.54333C3.9848 7.5 1.71146 10.9667 0.0814648 13.3633C0.0314648 12.9167 0.00146484 12.46 0.00146484 12C0.00146484 8.73667 1.31146 5.77667 3.43146 3.61333Z" fill="black"/>
<path d="M0.601465 15.7433C1.9548 13.53 3.1948 11.84 4.4748 10.47C4.3748 17.24 5.5748 19.3733 7.17813 22.9833C4.08147 21.62 1.66813 18.9833 0.601465 15.74V15.7433Z" fill="black"/>
<path d="M9.46813 23.73C8.30813 21.5133 7.5148 19.6367 6.99813 17.8867C10.4615 20.09 13.6881 21.2833 18.9981 21.74C17.0281 23.16 14.6115 24 12.0015 24C11.1315 24 10.2848 23.9033 9.46813 23.73Z" fill="black"/>
<path d="M20.7648 20.1867V20.1467C18.2415 20.01 16.2081 19.74 14.4281 19.3C16.2581 18.33 17.8215 17.3333 19.2748 16.0933H19.3081C19.3081 16.0933 19.3081 16.0733 19.3081 16.0633C20.9115 14.6867 22.3815 13.0067 23.9281 10.7233C23.9715 11.1433 23.9981 11.57 23.9981 12.0033C23.9981 15.1667 22.7681 18.0433 20.7615 20.19L20.7648 20.1867Z" fill="black"/>
</g>
<defs>
<clipPath id="clip0_15805_63767">
<rect width="24" height="24" fill="white"/>
</clipPath>
</defs>
</svg>
