<?xml version="1.0" encoding="UTF-8"?>
<svg width="24px" height="24px" viewBox="0 0 24 24" version="1.1" xmlns="http://www.w3.org/2000/svg" xmlns:xlink="http://www.w3.org/1999/xlink">
    <title>Icon/Fill/library-reports-fill</title>
    <g id="Icon/Fill/library-reports-fill" stroke="none" stroke-width="1" fill="none" fill-rule="evenodd">
        <g id="Group" transform="translate(0.000000, 3.000000)" fill="#474747" fill-rule="nonzero">
            <path d="M6.74666667,17.8333333 L12.72,17.8333333 L12.72,0.5 L6.74666667,0.5 L6.74666667,17.8333333 Z M8.33333333,2.91666667 L11.1333333,2.91666667 L11.1333333,3.99 L8.33333333,3.99 L8.33333333,2.91666667 Z M8.33333333,4.88333333 L11.1333333,4.88333333 L11.1333333,5.96666667 L8.33333333,5.96666667 L8.33333333,4.88333333 Z M8.33333333,14.4133333 L11.1333333,14.4133333 L11.1333333,15.5 L8.33333333,15.5 L8.33333333,14.4133333 Z M0,17.8333333 L5.97333333,17.8333333 L5.97333333,0.5 L0,0.5 L0,17.8333333 Z M1.58666667,2.66666667 L4.38666667,2.66666667 L4.38666667,3.75 L1.58666667,3.75 L1.58666667,2.66666667 Z M1.58666667,4.87333333 L4.38666667,4.87333333 L4.38666667,5.96666667 L1.58666667,5.96666667 L1.58666667,4.87333333 Z M1.58666667,14.4033333 L4.38666667,14.4033333 L4.38666667,15.5 L1.58666667,15.5 L1.58666667,14.4033333 Z M18.3933333,0 L12.7266667,1.94666667 L18.3333333,18.3333333 L24,16.3866667 L18.3933333,0 Z M15.06,3.73333333 L17.7033333,2.80666667 L18.06,3.83333333 L15.4133333,4.76 L15.06,3.73333333 Z M16,6.64 L15.6666667,5.61666667 L18.3333333,4.69 L18.6666667,5.71333333 L16,6.64 Z M18.8233333,14.5833333 L21.4666667,13.6566667 L21.84,14.69 L19.1966667,15.6166667 L18.8233333,14.5833333 Z" id="Shape"></path>
        </g>
    </g>
</svg>