<?xml version="1.0" encoding="UTF-8"?>
<svg width="24px" height="24px" viewBox="0 0 24 24" version="1.1" xmlns="http://www.w3.org/2000/svg" xmlns:xlink="http://www.w3.org/1999/xlink">
    <title>Icon/Fill/library-fill</title>
    <g id="Icon/Fill/library-fill" stroke="none" stroke-width="1" fill="none" fill-rule="evenodd">
        <g id="Group" fill="#474747" fill-rule="nonzero">
            <path d="M9,19.5 L9,23.25 C9,23.6642136 9.33578644,24 9.75,24 L14.25,24 C14.6642136,24 15,23.6642136 15,23.25 L15,19.5 L9,19.5 Z M4.4408921e-16,18 L4.4408921e-16,23.25 C4.4408921e-16,23.6642136 0.335786438,24 0.75,24 L6.75,24 C7.16421356,24 7.5,23.6642136 7.5,23.25 L7.5,18 L4.4408921e-16,18 Z M16.5,18 L16.5,23.25 C16.5,23.6642136 16.8357864,24 17.25,24 L23.25,24 C23.6642136,24 24,23.6642136 24,23.25 L24,18 L16.5,18 Z M9,18 L15,18 L15,16.5 L9,16.5 L9,18 Z M3,11.3333333 L3,11.2466667 L3,8.24666667 C2.99002909,7.84226433 3.30256621,7.50282008 3.70641492,7.47943463 C4.11026364,7.45604918 4.45989244,7.75714975 4.49666667,8.16 L4.49666667,11.2466667 C4.50663757,11.651069 4.19410046,11.9905133 3.79025174,12.0138987 C3.38640303,12.0372842 3.03677423,11.7361836 3,11.3333333 M0.75,3 C0.335786438,3 0,3.33578644 0,3.75 L0,16.5 L7.5,16.5 L7.5,3.75 C7.5,3.33578644 7.16421356,3 6.75,3 L0.75,3 Z M19.5066667,9.83666667 L19.5066667,9.75 L19.5066667,6.75 C19.5146538,6.35799044 19.8232415,6.038289 20.2147234,6.01644291 C20.6062052,5.99459683 20.9484473,6.27797964 21,6.66666667 L21,6.75333333 L21,9.75333333 C20.9935354,10.1458554 20.6854712,10.466978 20.2935554,10.4897232 C19.9016395,10.5124683 19.5584955,10.229139 19.5066667,9.84 M17.25,1.50666667 C16.8357864,1.50666667 16.5,1.8424531 16.5,2.25666667 L16.5,16.5 L24,16.5 L24,2.25 C24,1.83578644 23.6642136,1.5 23.25,1.5 L17.25,1.50666667 Z M11.2566667,11.3333333 L11.2566667,11.2466667 L11.2566667,5.24666667 C11.2631312,4.85414457 11.5711954,4.53302196 11.9631113,4.51027684 C12.3550272,4.48753173 12.6981712,4.770861 12.75,5.16 L12.75,5.24666667 L12.75,11.2466667 C12.7435354,11.6391888 12.4354712,11.9603114 12.0435554,11.9830565 C11.6516395,12.0058016 11.3084955,11.7224723 11.2566667,11.3333333 M9.75,0 C9.33578644,0 9,0.335786438 9,0.75 L9,15 L15,15 L15,0.75 C15,0.335786438 14.6642136,0 14.25,0 L9.75,0 Z" id="Shape"></path>
        </g>
    </g>
</svg>