<?xml version="1.0" encoding="UTF-8"?>
<svg width="24px" height="24px" viewBox="0 0 24 24" version="1.1" xmlns="http://www.w3.org/2000/svg" xmlns:xlink="http://www.w3.org/1999/xlink">
    <title>Icon/Fill/life-insurance-fill</title>
    <g id="Icon/Fill/life-insurance-fill" stroke="none" stroke-width="1" fill="none" fill-rule="evenodd">
        <g id="Group" transform="translate(0.000000, 2.000000)" fill="#474747" fill-rule="nonzero">
            <path d="M23.9696578,15.8464431 C23.86755,15.2882674 23.7260879,14.7380132 23.5463306,14.1997999 L23.5196643,14.1331342 L23.4663317,14.0831349 C23.1730026,13.8198054 22.3463477,13.7964724 17.0297569,14.3264648 L16.9997573,15.3731165 C16.8126256,16.4607478 15.8733708,17.2582018 14.7697892,17.2664228 L7.76988909,17.2664228 L7.76988909,15.8897758 L14.7697892,15.8897758 C15.1833889,15.8859834 15.5385242,15.5946615 15.6231103,15.1897858 L15.666443,13.9998028 C15.6464433,13.4431441 15.0664516,13.2298138 14.5631255,13.1798145 L8.23654909,12.4031589 L7.21323037,11.6098369 L0,9.68653103 L0,18.6297367 L0.579991721,18.7997343 C2.39329917,19.33306 5.3332572,20.219714 6.13324578,20.49971 C6.43594179,20.6518601 6.77725643,20.7099068 7.1132318,20.6663743 L7.68322366,20.6663743 C8.28988167,20.6663743 9.09653682,20.6463746 9.90319197,20.6297082 L13.123146,20.5563759 L13.2431443,20.5563759 L23.026338,17.4964196 C23.712646,17.2639449 24.1174967,16.5558139 23.9696578,15.8464431 Z" id="Path"></path>
            <path d="M13.3598093,5.83658599 C15.573111,5.83658599 17.4864171,6.63990786 18.3597379,7.7998913 C18.5700513,8.0776624 18.6047112,8.45064865 18.4491811,8.76241596 C18.2936509,9.07418328 17.9748223,9.27082603 17.6264151,9.26987031 L9.07320382,9.26987031 C8.7235957,9.27338448 8.40243404,9.07771816 8.24522745,8.76542939 C8.08802085,8.45314062 8.12214988,8.0786205 8.33321438,7.7998913 C9.22986825,6.63990786 11.1431743,5.83658599 13.3598093,5.83658599 Z" id="Path"></path>
            <path d="M15.473123,2.10997252 C15.4758106,2.9669767 14.961462,3.74103389 14.1703367,4.07055504 C13.3792114,4.40007619 12.4674548,4.22002328 11.8609803,3.61450529 C11.2545057,3.0089873 11.0730138,2.0975161 11.4012857,1.30587162 C11.7295576,0.514227138 12.5028019,-0.00134273539 13.3598093,0 C13.9199854,-0.000882318753 14.4575212,0.221026707 14.8539386,0.616818775 C15.2503559,1.01261084 15.473123,1.5497957 15.473123,2.10997252 L15.473123,2.10997252 Z" id="Path"></path>
        </g>
    </g>
</svg>