<?xml version="1.0" encoding="UTF-8"?>
<svg width="24px" height="24px" viewBox="0 0 24 24" version="1.1" xmlns="http://www.w3.org/2000/svg" xmlns:xlink="http://www.w3.org/1999/xlink">
    <title>Icon/Fill/lightbulb-fill</title>
    <g id="Icon/Fill/lightbulb-fill" stroke="none" stroke-width="1" fill="none" fill-rule="evenodd">
        <g id="Group" transform="translate(1.000000, 0.000000)" fill="#474747" fill-rule="nonzero">
            <path d="M13.9603053,19.0034698 L8.86384455,19.0034698 C8.52358502,19.0656273 8.27637293,19.3620903 8.27637293,19.7079806 C8.27637293,20.0538709 8.52358502,20.3503338 8.86384455,20.4124913 L13.9603053,20.4124913 C14.3005649,20.3503338 14.547777,20.0538709 14.547777,19.7079806 C14.547777,19.3620903 14.3005649,19.0656273 13.9603053,19.0034698 Z" id="Path"></path>
            <path d="M13.2308119,20.8022207 L9.59333796,20.8022207 C9.25307842,20.8643782 9.00586634,21.1608411 9.00586634,21.5067314 C9.00586634,21.8526217 9.25307842,22.1490847 9.59333796,22.2112422 L13.2308119,22.2112422 C13.5710715,22.1490847 13.8182836,21.8526217 13.8182836,21.5067314 C13.8182836,21.1608411 13.5710715,20.8643782 13.2308119,20.8022207 L13.2308119,20.8022207 Z" id="Path"></path>
            <path d="M12.4047189,22.5909785 L10.4061069,22.5909785 C10.0658473,22.653136 9.81863525,22.9495989 9.81863525,23.2954892 C9.81863525,23.6413796 10.0658473,23.9378425 10.4061069,24 L12.4047189,24 C12.7449785,23.9378425 12.9921906,23.6413796 12.9921906,23.2954892 C12.9921906,22.9495989 12.7449785,22.653136 12.4047189,22.5909785 L12.4047189,22.5909785 Z" id="Path"></path>
            <path d="M15.5458709,8.0111034 C14.8796669,7.18834143 13.6072172,6.20569049 11.4553782,6.20569049 C9.30353921,6.20569049 8.04108258,7.18167939 7.36155448,8.0111034 C6.5413632,9.05529679 6.10084766,10.3474757 6.11242193,11.6752255 C6.11242193,12.9243581 6.68202637,13.8303956 7.23497571,14.7064539 C7.78792505,15.5825121 8.30756419,16.4152672 8.30756419,17.6177654 C8.30756166,17.7729466 8.36943421,17.9217238 8.47947601,18.0311403 C8.58951781,18.1405569 8.73864514,18.2015807 8.89382373,18.2007035 L14.0136017,18.2007035 C14.1687803,18.2015807 14.3179076,18.1405569 14.4279494,18.0311403 C14.5379912,17.9217238 14.5998637,17.7729466 14.5998612,17.6177654 C14.5998612,16.4152672 15.1195003,15.5858432 15.6724497,14.7064539 C16.225399,13.8270645 16.7950035,12.9243581 16.7950035,11.6752255 C16.8065777,10.3474757 16.3660622,9.05529679 15.5458709,8.0111034 Z" id="Path"></path>
            <path d="M11.4120749,5.01318529 C11.9865938,5.01318529 12.4528487,4.54842295 12.4546842,3.97390701 L12.4546842,1.0426093 C12.4546842,0.466792083 11.9878922,0 11.4120749,0 C10.8362577,0 10.3694656,0.466792083 10.3694656,1.0426093 L10.3694656,3.97390701 C10.3713012,4.54842295 10.8375561,5.01318529 11.4120749,5.01318529 L11.4120749,5.01318529 Z" id="Path"></path>
            <path d="M4.94656489,7.40485774 C5.15857245,7.58247299 5.43246527,7.66857284 5.70796623,7.64420881 C5.9834672,7.61984478 6.23799877,7.48701352 6.41554476,7.27494795 C6.59364307,7.06440318 6.68012625,6.79136789 6.65572358,6.51668148 C6.63132092,6.24199508 6.49806005,5.98848147 6.28563498,5.81263012 L4.03386537,3.92727273 C3.5911993,3.5611615 2.93642942,3.61906632 2.5648855,4.05718251 C2.3864568,4.26669241 2.29999926,4.5392738 2.32505205,4.81332408 C2.34881608,5.0887157 2.48199903,5.34308314 2.69479528,5.51950035 L4.94656489,7.40485774 Z" id="Path"></path>
            <path d="M5.02317835,11.5419847 C5.02134282,10.9674688 4.55508793,10.5027065 3.98056905,10.5027065 L1.03927828,10.5027065 C0.465300735,10.5027065 0,10.9680072 0,11.5419847 C0,12.1159623 0.465300735,12.581263 1.03927828,12.581263 L3.98056905,12.581263 C4.55508793,12.581263 5.02134282,12.1165007 5.02317835,11.5419847 L5.02317835,11.5419847 Z" id="Path"></path>
            <path d="M5.80596808,15.4059681 C5.53005159,15.3824621 5.25598618,15.4686311 5.04316447,15.6458015 L2.79139486,17.5311589 C2.57938183,17.7067845 2.44627838,17.959801 2.42165163,18.2340042 C2.39638465,18.5248589 2.49462024,18.8129285 2.69232821,19.0277458 C2.89003617,19.2425631 3.16898177,19.3643154 3.46092991,19.3632273 C3.70427397,19.3640029 3.94012706,19.2790958 4.12713393,19.1233865 L6.38223456,17.2380291 C6.59408441,17.0612619 6.72609526,16.806841 6.74864677,16.5318529 C6.77645058,16.2575112 6.68965807,15.9838737 6.50881332,15.7757113 C6.33271621,15.5642802 6.07995883,15.4313131 5.80596808,15.4059681 Z" id="Path"></path>
            <path d="M18.0308119,15.5292158 C17.8178343,15.3525909 17.543549,15.2675505 17.2680083,15.2927134 C16.8489395,15.3277362 16.492623,15.6126214 16.3662331,16.0137085 C16.2398431,16.4147957 16.3684607,16.8524925 16.6917418,17.1214434 L18.9435115,19.0034698 C19.155519,19.1810851 19.4294118,19.2671849 19.7049128,19.2428209 C19.9804138,19.2184569 20.2349453,19.0856256 20.4124913,18.87356 C20.5905896,18.6630153 20.6770728,18.38998 20.6526701,18.1152936 C20.6282675,17.8406072 20.4950066,17.5870935 20.2825815,17.4112422 L18.0308119,15.5292158 Z" id="Path"></path>
            <path d="M21.9380985,10.3428175 L18.9968078,10.3428175 C18.4228302,10.3428175 17.9575295,10.8081182 17.9575295,11.3820958 C17.9575295,11.9560733 18.4228302,12.421374 18.9968078,12.421374 L21.9380985,12.421374 C22.5120761,12.421374 22.9773768,11.9560733 22.9773768,11.3820958 C22.9773768,10.8081182 22.5120761,10.3428175 21.9380985,10.3428175 L21.9380985,10.3428175 Z" id="Path"></path>
            <path d="M17.2646773,7.5314365 C17.5081874,7.52988359 17.7436263,7.44394838 17.9308813,7.28827203 L20.1826509,5.40291464 C20.394664,5.22728906 20.5277674,4.9742726 20.5523942,4.7000694 C20.5857436,4.28128983 20.3652969,3.88319492 19.9926437,3.68924095 C19.6199906,3.49528698 19.1674548,3.54311612 18.8435808,3.81068702 L16.5884802,5.69604441 C16.2540585,5.97667284 16.1306686,6.4363874 16.279623,6.84675653 C16.4285773,7.25712567 16.8181185,7.53065833 17.2546842,7.5314365 L17.2646773,7.5314365 Z" id="Path"></path>
        </g>
    </g>
</svg>