<?xml version="1.0" encoding="UTF-8"?>
<svg width="24px" height="24px" viewBox="0 0 24 24" version="1.1" xmlns="http://www.w3.org/2000/svg" xmlns:xlink="http://www.w3.org/1999/xlink">
    <title>Icon/Fill/link-unlinked-fill</title>
    <g id="Icon/Fill/link-unlinked-fill" stroke="none" stroke-width="1" fill="none" fill-rule="evenodd">
        <g id="Group" transform="translate(3.000000, 0.000000)" fill="#474747" fill-rule="nonzero">
            <g id="Fill-2">
                <path d="M11.3034173,11.683312 L15.0670043,7.87638875 L10.8633876,3.63276942 L7.08646642,7.43302554 L4.99965911,5.30954909 L9.81665042,0.435887299 C10.092214,0.15697554 10.4679736,0 10.8600541,0 C11.2521345,0 11.6278941,0.15697554 11.9034577,0.435887299 L11.9034577,0.435887299 L18.2372179,6.80298308 C18.8141308,7.38936561 18.8141308,8.33007632 18.2372179,8.91645885 L18.2372179,8.91645885 L13.3902246,13.8034549 L11.3034173,11.683312 Z M11.6067711,16.5369724 L13.6935784,18.667116 L8.83325081,23.5641127 C8.55768722,23.8430245 8.18192759,24 7.78984716,24 C7.39776673,24 7.0220071,23.8430245 6.74644351,23.5641127 L6.74644351,23.5641127 L0.432684654,17.1970169 C-0.144228218,16.6106344 -0.144228218,15.6699237 0.432684654,15.0835411 L0.432684654,15.0835411 L5.28967866,10.1632095 L7.38648664,12.286686 L3.58289696,16.1236112 L7.7865136,20.3672306 L11.6067711,16.5369724 Z M7.80318139,8.82645278 L11.0767353,5.52623036 L13.1802104,7.6663746 L9.90332293,10.9799313 L7.80318139,8.82645278 Z M5.56636397,16.2402858 L8.66657291,13.1334097 L10.7633809,15.2568862 L7.66650551,18.3770965 L5.56636397,16.2402858 Z" id="Shape"></path>
            </g>
        </g>
    </g>
</svg>