<?xml version="1.0" encoding="UTF-8"?>
<svg width="24px" height="24px" viewBox="0 0 24 24" version="1.1" xmlns="http://www.w3.org/2000/svg" xmlns:xlink="http://www.w3.org/1999/xlink">
    <title>Icon/Fill/link-broken-fill</title>
    <g id="Icon/Fill/link-broken-fill" stroke="none" stroke-width="1" fill="none" fill-rule="evenodd">
        <g id="Group" fill="#474747" fill-rule="nonzero">
            <path d="M18.0381525,8.16364985 L15.8178896,10.430585 L13.617629,8.23032441 L15.8412257,5.9633893 L18.0381525,8.16364985 Z M8.14698121,20.2450805 L3.74979383,15.8312245 L6.61680001,12.9675521 L4.41653946,10.7672915 L0.452736733,14.7477629 C-0.150912244,15.3517708 -0.150912244,16.3306805 0.452736733,16.9346885 L0.452736733,16.9346885 L7.05018466,23.5421376 C7.33967973,23.8318265 7.73243567,23.9945884 8.14198062,23.9945884 C8.55152557,23.9945884 8.94428151,23.8318265 9.23377657,23.5421376 L9.23377657,23.5421376 L13.200913,19.5783349 L10.9973187,17.3780743 L8.14698121,20.2450805 Z M23.5354702,7.05018466 L16.9380222,0.452736733 C16.3340143,-0.150912244 15.3551046,-0.150912244 14.7510966,0.452736733 L14.7510966,0.452736733 L10.7772927,4.41653946 L12.9775532,6.61680001 L15.8412257,3.74979383 L20.2384131,8.16364985 L17.3714069,11.0273223 L19.5716674,13.2275829 L23.5354702,9.2604464 C24.1456127,8.66290044 24.1560588,7.68395051 23.5588063,7.07352076 C23.5502108,7.06660416 23.5423868,7.05878016 23.5354702,7.05018466 L23.5354702,7.05018466 Z M5.95005439,15.8312245 L8.14698121,18.0314851 L10.5872702,15.6645381 L8.38700963,13.4676113 L5.95005439,15.8312245 Z M20.6651303,22.8053837 L22.8487222,20.5917882 L3.34641273,1.18949065 L1.16282082,3.40308611 L20.6651303,22.8053837 Z" id="Shape"></path>
        </g>
    </g>
</svg>