<?xml version="1.0" encoding="UTF-8"?>
<svg width="24px" height="24px" viewBox="0 0 24 24" version="1.1" xmlns="http://www.w3.org/2000/svg" xmlns:xlink="http://www.w3.org/1999/xlink">
    <title>Icon/Fill/link-fill</title>
    <g id="Icon/Fill/link-fill" stroke="none" stroke-width="1" fill="none" fill-rule="evenodd">
        <g id="Group" transform="translate(-0.000000, -0.000000)" fill="#474747" fill-rule="nonzero">
            <g id="link">
                <path d="M13.4757012,14.9514023 L20.1163562,14.9514023 L20.1163562,9.04859782 L13.4757012,9.04859782 L13.4757012,6.09719559 L21.5920573,6.09719559 C22.4070645,6.09719559 23.0677584,6.75788948 23.0677584,7.57289671 L23.0677584,16.4271034 C23.0677584,17.2421106 22.4070645,17.9028045 21.5920573,17.9028045 L13.4757012,17.9028045 L13.4757012,14.9514023 Z M10.5242989,14.9514023 L10.5242989,17.9028045 L2.4079428,17.9028045 C1.59293558,17.9028045 0.93224169,17.2421106 0.93224169,16.4271034 L0.93224169,7.57289671 C0.93224169,6.75788948 1.59293558,6.09719559 2.4079428,6.09719559 L10.5242989,6.09719559 L10.5242989,9.04859782 L3.88364392,9.04859782 L3.88364392,14.9514023 L10.5242989,14.9514023 Z M5.35934503,10.5242989 L18.6406551,10.5242989 L18.6406551,13.4757012 L5.35934503,13.4757012 L5.35934503,10.5242989 Z" id="Combined-Shape-Copy" transform="translate(12.000000, 12.000000) rotate(-45.000000) translate(-12.000000, -12.000000) "></path>
            </g>
        </g>
    </g>
</svg>