<svg width="24" height="24" viewBox="0 0 24 24" fill="none" xmlns="http://www.w3.org/2000/svg">
<g clip-path="url(#clip0_15805_63775)">
<path d="M1.99838 0.00166321C1.56504 0.00166321 1.16838 0.144997 0.841709 0.374997C0.661709 0.504997 0.505042 0.661663 0.375042 0.841663C0.141709 1.16833 0.00170898 1.565 0.00170898 1.99833V21.9983C0.00170898 22.4317 0.141709 22.8317 0.375042 23.1583C0.505042 23.3383 0.661709 23.495 0.841709 23.625C1.16838 23.8583 1.56838 23.9983 2.00171 23.9983H22.0017C22.435 23.9983 22.8317 23.8583 23.1584 23.625C23.3384 23.495 23.495 23.3383 23.625 23.1583C23.8584 22.8317 23.9984 22.4317 23.9984 21.9983V0.00166321H1.99838ZM3.10504 3.22166H20.8984V5.075H3.10504V3.22166ZM3.10504 7.96166H20.8984V9.815H3.10504V7.96166ZM3.10504 14.555V12.7017H11.255V14.555H3.10504ZM13.7284 21.515L9.45504 17.2383L10.765 15.9283L13.7284 18.8917L21.1284 11.465L22.4417 12.775L13.7317 21.515H13.7284Z" fill="black"/>
</g>
<defs>
<clipPath id="clip0_15805_63775">
<rect width="24" height="24" fill="white"/>
</clipPath>
</defs>
</svg>
