<svg width="24" height="24" viewBox="0 0 24 24" fill="none" xmlns="http://www.w3.org/2000/svg">
<g clip-path="url(#clip0_15805_63779)">
<path d="M8.5748 5.05166H4.3548V9.275H8.5748V5.05166Z" fill="black"/>
<path d="M1.99813 0.00166321C1.5648 0.00166321 1.16813 0.144997 0.841465 0.374997C0.661465 0.504997 0.504798 0.661663 0.374798 0.841663C0.141465 1.16833 0.00146484 1.565 0.00146484 1.99833V21.9983C0.00146484 22.4317 0.141465 22.8317 0.374798 23.1583C0.504798 23.3383 0.661465 23.495 0.841465 23.625C1.16813 23.8583 1.56813 23.9983 2.00146 23.9983H22.0015C22.4348 23.9983 22.8315 23.8583 23.1581 23.625C23.3381 23.495 23.4948 23.3383 23.6248 23.1583C23.8581 22.8317 23.9981 22.4317 23.9981 21.9983V0.00166321H1.99813ZM9.5348 3.125C10.0648 3.125 10.4981 3.555 10.4981 4.08833V10.235C10.4981 10.765 10.0681 11.1983 9.5348 11.1983H3.39146C2.86146 11.1983 2.42813 10.765 2.42813 10.235V4.08833C2.42813 3.55833 2.85813 3.125 3.39146 3.125M5.00146 20.355L1.6748 17.0283L3.0348 15.6683L4.99813 17.6317L9.9048 12.7083L11.2681 14.0683L5.00146 20.3583V20.355ZM12.1415 6.19833H22.1748V8.125H12.1415V6.19833ZM22.1815 17.4917H12.1481V15.565H22.1815V17.4917Z" fill="black"/>
</g>
<defs>
<clipPath id="clip0_15805_63779">
<rect width="24" height="24" fill="white"/>
</clipPath>
</defs>
</svg>
