<?xml version="1.0" encoding="UTF-8"?>
<svg width="24px" height="24px" viewBox="0 0 24 24" version="1.1" xmlns="http://www.w3.org/2000/svg" xmlns:xlink="http://www.w3.org/1999/xlink">
    <title>Icon/Fill/list-view-fill</title>
    <g id="Icon/Fill/list-view-fill" stroke="none" stroke-width="1" fill="none" fill-rule="evenodd">
        <g id="Group" transform="translate(-0.000000, 4.500000)" fill="#474747" fill-rule="nonzero">
            <g id="list-view">
                <path d="M24,3 L6.00000003,3 L6.00000003,0 L24,0 L24,3 Z M3,3 L0,3 L0,0 L3,0 L3,3 Z M24,9.00000003 L6.00000003,9.00000003 L6.00000003,6.00000003 L24,6.00000003 L24,9.00000003 Z M3,9.00000003 L0,9.00000003 L0,6.00000003 L3,6.00000003 L3,9.00000003 Z M24,15.0000001 L6.00000003,15.0000001 L6.00000003,12.0000001 L24,12.0000001 L24,15.0000001 Z M3,15.0000001 L0,15.0000001 L0,12.0000001 L3,12.0000001 L3,15.0000001 Z" id="Combined-Shape"></path>
            </g>
        </g>
    </g>
</svg>