<?xml version="1.0" encoding="UTF-8"?>
<svg width="24px" height="24px" viewBox="0 0 24 24" version="1.1" xmlns="http://www.w3.org/2000/svg" xmlns:xlink="http://www.w3.org/1999/xlink">
    <title>Icon/Fill/lockopen-unlock-fill</title>
    <g id="Icon/Fill/lockopen-unlock-fill" stroke="none" stroke-width="1" fill="none" fill-rule="evenodd">
        <g id="Group" transform="translate(2.000000, 0.000000)" fill="#474747" fill-rule="nonzero">
            <path d="M15.925473,8.99163639 L15.925473,5.84322875 C15.8881042,3.20301768 14.1086074,0.905978774 11.5614936,0.21004605 C9.01437986,-0.485886674 6.31409263,0.587167538 4.93939801,2.84156892 L6.67035518,3.87880915 C7.34200323,2.67538961 8.627997,1.94623114 10.0055328,1.98776346 C11.0204413,1.97345114 11.9985812,2.36732204 12.7203658,3.08095441 C13.4421504,3.79458679 13.8471059,4.76818993 13.8443222,5.78319555 L13.8443222,8.99163639 L0,8.99163639 L0,22.4657539 C0.00176297225,22.8749954 0.166255935,23.2667247 0.457196092,23.5545364 C0.748136249,23.8423482 1.14162084,24.0025968 1.55085758,23.9999682 L18.460208,23.9999682 C18.8694447,24.0025968 19.2629293,23.8423482 19.5538694,23.5545364 C19.8448096,23.2667247 20.0093026,22.8749954 20.0110655,22.4657539 L20.0110655,8.99163639 L15.925473,8.99163639 Z M11.006086,19.2039502 L9.00497949,19.2039502 L9.00497949,13.9510455 L11.006086,13.9510455 L11.006086,19.2039502 Z" id="Shape"></path>
        </g>
    </g>
</svg>