<?xml version="1.0" encoding="UTF-8"?>
<svg width="24px" height="24px" viewBox="0 0 24 24" version="1.1" xmlns="http://www.w3.org/2000/svg" xmlns:xlink="http://www.w3.org/1999/xlink">
    <title>Icon/Fill/lockers-fill</title>
    <g id="Icon/Fill/lockers-fill" stroke="none" stroke-width="1" fill="none" fill-rule="evenodd">
        <g id="Group" transform="translate(0.000000, 0.000000)" fill="#474747" fill-rule="nonzero">
            <path d="M23.6666667,0 L23.6666667,24 L0,24 L0,0 L23.6666667,0 Z M14.2566667,2.29 L9.56666667,2.29 L9.56666667,21.71 L14.2566667,21.71 L14.2566667,2.29 Z M7.29333333,2.29 L2.29333333,2.29 L2.29333333,21.71 L7.29333333,21.71 L7.29333333,2.29 Z M21.3866667,2.29 L16.54,2.29 L16.54,21.71 L21.4,21.71 L21.3866667,2.29 Z M5.13666667,12 L5.13666667,14.05 L3.08666667,14.05 L3.08666667,12 L5.13666667,12 Z M12.5033333,12 L12.5033333,14.05 L10.4533333,14.05 L10.4533333,12 L12.5033333,12 Z M19.54,12 L19.54,14.05 L17.49,14.05 L17.49,12 L19.54,12 Z M6.19666667,4.40333333 L6.19666667,6.03666667 L3.43333333,6.03666667 L3.43333333,4.40333333 L6.19666667,4.40333333 Z M13.26,4.40333333 L13.26,6.03666667 L10.4966667,6.03666667 L10.4966667,4.40333333 L13.26,4.40333333 Z M20.3233333,4.40333333 L20.3233333,6.03666667 L17.56,6.03666667 L17.56,4.40333333 L20.3233333,4.40333333 Z" id="Combined-Shape"></path>
        </g>
    </g>
</svg>