<?xml version="1.0" encoding="UTF-8"?>
<svg width="24px" height="24px" viewBox="0 0 24 24" version="1.1" xmlns="http://www.w3.org/2000/svg" xmlns:xlink="http://www.w3.org/1999/xlink">
    <title>Icon/Fill/lockclosed-locked-fill</title>
    <g id="Icon/Fill/lockclosed-locked-fill" stroke="none" stroke-width="1" fill="none" fill-rule="evenodd">
        <g id="Group" transform="translate(2.000000, 0.000000)" fill="#474747" fill-rule="nonzero">
            <path d="M15.8747324,9.03945495 L15.8747324,5.90107854 C15.8747324,2.64200285 13.2327295,0 9.97365386,0 C6.71457818,0 4.07257533,2.64200285 4.07257533,5.90107854 L4.07257533,9.03945495 L0,9.03945495 L0,22.4706422 C0.0017573552,22.8785799 0.165726222,23.269061 0.455739407,23.5559557 C0.745752592,23.8428505 1.13798349,24.0025885 1.54591635,23.9999683 L18.4013914,23.9999683 C18.8093242,24.0025885 19.2015551,23.8428505 19.4915683,23.5559557 C19.7815815,23.269061 19.9455504,22.8785799 19.9473077,22.4706422 L19.9473077,9.03945495 L15.8747324,9.03945495 Z M10.9710192,19.219231 L8.97628848,19.219231 L8.97628848,13.9830627 L10.9710192,13.9830627 L10.9710192,19.219231 Z M13.8002124,9.03945495 L6.15372288,9.03945495 L6.15372288,5.90107854 C6.14709533,3.63041001 7.67971347,2.05789725 9.97365386,2.05789725 C12.2675943,2.05789725 13.8002124,3.63041001 13.8002124,5.90107854 L13.8002124,9.03945495 Z" id="Shape"></path>
        </g>
    </g>
</svg>