<svg width="24" height="24" viewBox="0 0 24 24" fill="none" xmlns="http://www.w3.org/2000/svg">
<g clip-path="url(#clip0_15805_63777)">
<path d="M23.8332 21.78L21.7232 23.9L0.166504 2.22L2.2765 0.0966667L23.8332 21.78ZM11.9998 2C14.2998 2 15.8365 3.57667 15.8365 5.85333V9.00667H14.1898L21.9998 16.8167V9.01H17.9165V5.85667C17.9165 2.62667 15.2632 0 11.9998 0C10.1332 0 8.46984 0.86 7.38317 2.2L8.78984 3.60667C9.4465 2.60667 10.5765 2.00333 11.9998 2.00333V2ZM12.9965 19.2067H11.0065V16.19L3.81984 9.00667H1.99984V22.4667C1.99984 23.3133 2.69317 24 3.54984 24H18.8132L12.9932 18.18V19.2067H12.9965Z" fill="black"/>
</g>
<defs>
<clipPath id="clip0_15805_63777">
<rect width="24" height="24" fill="white"/>
</clipPath>
</defs>
</svg>
