<?xml version="1.0" encoding="UTF-8"?>
<svg width="24px" height="24px" viewBox="0 0 24 24" version="1.1" xmlns="http://www.w3.org/2000/svg" xmlns:xlink="http://www.w3.org/1999/xlink">
    <title>Icon/Fill/login-fill</title>
    <g id="Icon/Fill/login-fill" stroke="none" stroke-width="1" fill="none" fill-rule="evenodd">
        <g id="Group" transform="translate(-0.000000, -0.000000)" fill="#474747" fill-rule="nonzero">
            <g id="login">
                <path d="M8.91888859,6.7784153 L14.1403233,11.99985 L8.92788844,17.2122849 C8.34139578,17.7972776 7.39190763,17.7972776 6.80691494,17.2122849 C6.22042227,16.6257922 6.22042227,15.6763041 6.80691494,15.0913114 L8.39689511,13.4998313 L0,13.4998313 L0,10.4998688 L8.39689511,10.4998688 L6.79791505,8.89938881 C6.21142239,8.31439608 6.21142239,7.36490797 6.79791505,6.7784153 C7.38290774,6.19192263 8.33239586,6.19192263 8.91888859,6.7784153 Z M22.5000188,0 C23.3280085,0 24.0000001,0.671991603 24.0000001,1.49998126 L24.0000001,22.4997188 C24.0000001,23.3277085 23.3280085,23.9997001 22.5000188,23.9997001 L10.5001688,23.9997001 C9.67217914,23.9997001 9.00018754,23.3277085 9.00018754,22.4997188 L9.00018754,21.3627331 L12.0001501,18.3627706 L12.0001501,20.9997376 L21.0000376,20.9997376 L21.0000376,2.99996251 L12.0001501,2.99996251 L12.0001501,5.63692956 L9.00018754,2.63696705 L9.00018754,1.49998126 C9.00018754,0.671991603 9.67217914,0 10.5001688,0 L22.5000188,0 Z" id="Login"></path>
            </g>
        </g>
    </g>
</svg>