<svg width="24" height="24" viewBox="0 0 24 24" fill="none" xmlns="http://www.w3.org/2000/svg">
<path d="M14.8098 24H9.12317V21.0767H14.8098V24ZM1.6665 19.61H9.54317V11.6033C9.54317 9.45 7.7765 7.7 5.6065 7.7C3.4365 7.7 1.66984 9.45 1.66984 11.6033V19.61H1.6665ZM19.6432 0H13.3265V7.7H14.8098V5.15H19.6432C20.0532 5.15 20.3832 4.82 20.3832 4.41667V0.733333C20.3832 0.326667 20.0498 0 19.6432 0ZM18.3965 7.7H14.8098V12.67H13.3265V7.7H9.3165C10.3665 8.68 11.0232 10.0633 11.0232 11.6033V19.61H22.3332V11.6033C22.3332 9.45 20.5665 7.7 18.3965 7.7Z" fill="black"/>
</svg>
