<?xml version="1.0" encoding="UTF-8"?>
<svg width="24px" height="24px" viewBox="0 0 24 24" version="1.1" xmlns="http://www.w3.org/2000/svg" xmlns:xlink="http://www.w3.org/1999/xlink">
    <title>Icon/Fill/male-symbol-fill</title>
    <g id="Icon/Fill/male-symbol-fill" stroke="none" stroke-width="1" fill="none" fill-rule="evenodd">
        <g id="Group" fill="#474747" fill-rule="nonzero">
            <path d="M14.3426415,0 L14.3426415,3.19235474 L18.3047603,3.19235474 L15.2257042,6.2480847 C11.5341029,3.71848345 6.59290738,4.03405472 3.25309354,7.01271989 C-0.0867203044,9.99138505 -0.963250098,14.864443 1.12924518,18.8202319 C3.22174045,22.7760209 7.74325265,24.7936743 12.0849552,23.7090447 C16.4266578,22.624415 19.4680919,18.7174115 19.4544079,14.2423008 C19.4522501,12.1635521 18.777764,10.1412629 17.531664,8.47740132 L20.577397,5.45832679 L20.577397,9.37046089 L23.7864133,9.37046089 L23.7864133,0 L14.3426415,0 Z M9.62075566,20.8003122 C6.00551285,20.7727345 3.09449921,17.8245328 3.11274883,14.2092315 C3.13117074,10.5939302 6.07193872,7.67540704 9.68727505,7.68450115 C13.3026114,7.69363784 16.22873,10.626953 16.22873,14.2423008 C16.2103706,17.876072 13.2545615,20.8095225 9.62075566,20.8003122 Z" id="Shape"></path>
        </g>
    </g>
</svg>