<?xml version="1.0" encoding="UTF-8"?>
<svg width="24px" height="24px" viewBox="0 0 24 24" version="1.1" xmlns="http://www.w3.org/2000/svg" xmlns:xlink="http://www.w3.org/1999/xlink">
    <title>Icon/Fill/man-fill</title>
    <g id="Icon/Fill/man-fill" stroke="none" stroke-width="1" fill="none" fill-rule="evenodd">
        <g id="Group" transform="translate(8.000000, 0.083228)" fill="#474747" fill-rule="nonzero">
            <path d="M4.49348598,6.40173943 C6.2609644,6.35514769 7.65601868,4.88455325 7.60942693,3.11707484 C7.56283519,1.34959642 6.09224076,-0.0454578654 4.32476234,0.00113388199 C2.55728392,0.0477256293 1.16222964,1.51832006 1.20882138,3.28579848 C1.25541313,5.0532769 2.72600756,6.44833118 4.49348598,6.40173943 Z M8.83709956,8.27168524 C8.83709956,8.27168524 6.71500012,6.84698937 4.31726021,6.84698937 C2.7715758,6.89945124 1.2733197,7.39387576 0,8.27168524 L0,16.1888763 L1.76675572,16.1888763 L1.76675572,23.9167721 L3.75933735,23.9167721 L3.75933735,16.1888763 L5.05451542,16.1888763 L5.05451542,23.9167721 L7.04709705,23.9167721 L7.04709705,16.1888763 L8.84706247,16.1888763 L8.83709956,8.27168524 Z" id="Combined-Shape"></path>
        </g>
    </g>
</svg>