<?xml version="1.0" encoding="UTF-8"?>
<svg width="24px" height="24px" viewBox="0 0 24 24" version="1.1" xmlns="http://www.w3.org/2000/svg" xmlns:xlink="http://www.w3.org/1999/xlink">
    <title>Icon/Fill/man-and-woman-fill</title>
    <g id="Icon/Fill/man-and-woman-fill" stroke="none" stroke-width="1" fill="none" fill-rule="evenodd">
        <g id="Group" fill="#474747" fill-rule="nonzero">
            <path d="M1.22666493,3.22965424 C1.22531814,1.92967974 2.00736611,0.756959168 3.20799912,0.258545782 C4.40863212,-0.239867605 5.79129045,0.0342281654 6.71098863,0.9529723 C7.63068681,1.87171643 7.90621747,3.25408954 7.40905047,4.4552392 C6.91188347,5.65638885 5.7399752,6.43965424 4.44,6.43965424 C2.66662594,6.43965424 1.22850627,5.00302735 1.22666493,3.22965424 Z M8.89333333,8.31298757 C8.89333333,8.31298757 6.76,6.88298757 4.33333333,6.88298757 C2.7817288,6.93471489 1.27763985,7.43106425 0,8.31298757 L0,16.2529876 L1.78333333,16.2529876 L1.78333333,24.0029876 L3.78333333,24.0029876 L3.78333333,16.2529876 L5.07333333,16.2529876 L5.07333333,24.0029876 L7.07333333,24.0029876 L7.07333333,16.2529876 L8.88,16.2529876 L8.89333333,8.31298757 Z M17.9833333,6.42634931 C19.7512382,6.39880867 21.1647656,4.94819667 21.1464951,3.18017217 C21.1282245,1.41214768 19.6850212,-0.00894321005 17.9169254,4.23779505e-05 C16.1488295,0.0091135286 14.7202141,1.44486869 14.72,3.21298757 C14.7328435,4.99664252 16.1863141,6.43371504 17.97,6.42634931 L17.9833333,6.42634931 Z M24,18.9029876 L22.6466667,8.29632091 C22.6466667,8.29632091 20.4933333,6.86632091 18.04,6.86632091 C16.4640773,6.91480217 14.9344978,7.41078826 13.63,8.29632091 L11.9366667,18.9029876 L15.3333333,18.9029876 L15.3333333,24.0029876 L17.3333333,24.0029876 L17.3333333,18.9029876 L18.6233333,18.9029876 L18.6233333,24.0029876 L20.6233333,24.0029876 L20.6233333,18.9029876 L24,18.9029876 Z" id="Shape"></path>
        </g>
    </g>
</svg>