<svg width="24" height="24" viewBox="0 0 24 24" fill="none" xmlns="http://www.w3.org/2000/svg">
<path d="M23.9724 17.2117C23.7491 16.1217 23.5558 15.5983 23.5458 15.5783L23.5191 15.5083L23.4624 15.4583C23.1724 15.1983 22.3424 15.175 17.0291 15.7017L17.0058 16.7383C16.8291 17.8117 15.8691 18.6217 14.7758 18.6217H7.77911V17.2517H14.7758C15.1858 17.2517 15.5458 16.955 15.6291 16.5583L15.6524 15.3617C15.6291 14.8083 15.0524 14.5983 14.5458 14.5483L8.23577 13.7883L7.20911 13.0017L0.00244141 11.095V19.9783L0.582441 20.1483C2.39577 20.6817 5.32911 21.5583 6.13577 21.835C6.34577 21.9883 6.65244 22.0017 7.11244 22.0017C7.27244 22.0017 7.46244 22.0017 7.68244 21.995C8.28911 21.9883 9.09577 21.9717 9.90244 21.9583C11.5124 21.925 13.1224 21.8883 13.1224 21.8883H13.2424L23.0224 18.845C23.7058 18.6183 24.1124 17.9183 23.9691 17.2183L23.9724 17.2117Z" fill="black"/>
<path d="M16.0791 3.35834L12.9358 4.715L9.79244 3.35834L12.9358 1.99834L16.0791 3.35834Z" fill="black"/>
<path d="M8.73577 4.10167L12.3024 5.64167V10.385L8.73577 8.84167V4.10167Z" fill="black"/>
<path d="M13.5691 10.385V5.64167L17.1358 4.10167V8.84167L13.5691 10.385Z" fill="black"/>
</svg>
