<?xml version="1.0" encoding="UTF-8"?>
<svg width="24px" height="24px" viewBox="0 0 24 24" version="1.1" xmlns="http://www.w3.org/2000/svg" xmlns:xlink="http://www.w3.org/1999/xlink">
    <title>Icon/Fill/manufacturer-fill</title>
    <g id="Icon/Fill/manufacturer-fill" stroke="none" stroke-width="1" fill="none" fill-rule="evenodd">
        <g id="Group" fill="#474747" fill-rule="nonzero">
            <path d="M23.9236638,10.4 L22.0203305,10.4 C21.9988341,10.4009568 21.9779251,10.392836 21.9627098,10.3776207 C21.9474945,10.3624054 21.9393736,10.3414964 21.9403305,10.32 L21.9403305,4.43666667 C21.9403305,4.39248389 21.9761477,4.35666667 22.0203305,4.35666667 L23.1069972,4.35666667 C23.1511799,4.35666667 23.1869972,4.32084945 23.1869972,4.27666667 L23.1869972,0.08 C23.1869972,0.03581722 23.1511799,0 23.1069972,0 L16.6203305,0 C16.5761477,0 16.5403305,0.03581722 16.5403305,0.08 L16.5403305,4.27666667 C16.5403305,4.32084945 16.5761477,4.35666667 16.6203305,4.35666667 L17.3836638,4.35666667 C17.4284166,4.35663085 17.4652071,4.39194967 17.4669972,4.43666667 L17.4669972,10.3333333 C17.4670161,10.355141 17.4581315,10.3760113 17.4423997,10.3911138 C17.4266679,10.4062163 17.4054526,10.414242 17.3836638,10.4133333 L15.0269972,10.4133333 C15.0052084,10.414242 14.983993,10.4062163 14.9682612,10.3911138 C14.9525294,10.3760113 14.9436449,10.355141 14.9436638,10.3333333 L14.9436638,1.48333333 C14.9452688,1.44904616 14.9238884,1.41787046 14.8913251,1.40701603 C14.8587619,1.3961616 14.8229521,1.40827392 14.8036638,1.43666667 L10.4703305,6.81 C10.4492919,6.8372708 10.4131604,6.84801472 10.3806393,6.83667017 C10.3481183,6.82532562 10.3265089,6.79443949 10.3269972,6.76 L10.3269972,3.09333333 C10.3315314,3.06806395 10.3236629,3.04215365 10.3058423,3.0236731 C10.2880218,3.00519256 10.2624147,2.99638729 10.2369972,3 L1.51699715,3 C1.10873151,2.96682461 0.706349434,3.11368096 0.415431746,3.4020355 C0.124514058,3.69039003 -0.0258973774,4.09145676 0.00366381706,4.5 L0.00366381706,24 L23.9236638,24 C23.9678466,24 24.0036638,23.9641828 24.0036638,23.92 L24.0036638,10.48 C24.0036638,10.4358172 23.9678466,10.4 23.9236638,10.4 Z M7.56366382,19.0666667 L3.17033048,19.0666667 L3.17033048,14.7333333 L7.56366382,14.7333333 L7.56366382,19.0666667 Z M14.1903305,19.0666667 L9.79366382,19.0666667 L9.79366382,14.7333333 L14.1903305,14.7333333 L14.1903305,19.0666667 Z M20.8136638,19.0666667 L16.4169972,19.0666667 L16.4169972,14.7333333 L20.8136638,14.7333333 L20.8136638,19.0666667 Z" id="Shape"></path>
        </g>
    </g>
</svg>