<svg width="24" height="24" viewBox="0 0 24 24" fill="none" xmlns="http://www.w3.org/2000/svg">
<g clip-path="url(#clip0_15805_63793)">
<path d="M6.34 6.59999L6.31333 6.48999L0 4.79999V21.1767L7.38667 23.1567V8.81L7.35 8.76C6.86333 8.11666 6.52333 7.38999 6.34 6.59999Z" fill="black"/>
<path d="M8.71 10.2033V23.1667L15.2267 21.1733V10.2033L11.97 13.44L8.71 10.2033Z" fill="black"/>
<path d="M17.75 5.05666V5.29999C17.75 6.55666 17.35 7.75333 16.5867 8.76L16.55 8.81V21.1133L24 23.11V6.73333L17.75 5.06V5.05666Z" fill="black"/>
<path d="M15.83 3.03333C15.6433 2.71666 15.4233 2.42 15.1533 2.14666C14.3 1.29999 13.17 0.833328 11.97 0.833328C10.77 0.833328 9.64333 1.29333 8.80333 2.12999C7.94333 2.99333 7.51 4.12333 7.5 5.25333C7.49 6.40666 7.92333 7.56 8.8 8.43333L8.82667 8.45999L11.97 11.5867L15.1133 8.45999L15.14 8.43333C16.6067 6.97333 16.8367 4.74 15.8333 3.03333H15.83ZM13.78 5.37666C13.7367 6.34333 12.94 7.09999 11.97 7.09999C11.3967 7.09999 10.8667 6.83666 10.52 6.37333C10.28 6.05666 10.1533 5.68333 10.1533 5.29333C10.1533 5.23333 10.1567 5.17333 10.1633 5.11666C10.2567 4.19 11.0333 3.48666 11.97 3.48666C12.5067 3.48666 13.0167 3.72333 13.3633 4.13666C13.6367 4.46 13.7867 4.86999 13.7867 5.31333V5.37666H13.78Z" fill="black"/>
</g>
<defs>
<clipPath id="clip0_15805_63793">
<rect width="24" height="24" fill="white"/>
</clipPath>
</defs>
</svg>
