<?xml version="1.0" encoding="UTF-8"?>
<svg width="24px" height="24px" viewBox="0 0 24 24" version="1.1" xmlns="http://www.w3.org/2000/svg" xmlns:xlink="http://www.w3.org/1999/xlink">
    <title>Icon/Fill/marketing-fill</title>
    <g id="Icon/Fill/marketing-fill" stroke="none" stroke-width="1" fill="none" fill-rule="evenodd">
        <g id="Group" transform="translate(0.000000, 2.000000)" fill="#474747" fill-rule="nonzero">
            <g id="Fill-2">
                <path d="M23.9132478,8.02833832 C23.9114349,8.48884457 23.5395434,8.86222359 23.0790481,8.86587486 L20.4096089,8.86587486 C19.9488931,8.86587486 19.5754092,8.49239091 19.5754092,8.03167512 C19.5754092,7.57095932 19.9488931,7.19747537 20.4096089,7.19747537 L23.0790481,7.19747537 C23.5384639,7.19747537 23.9114102,7.56892616 23.9132478,8.02833832 L23.9132478,8.02833832 Z M20.3929249,4.33783866 L23.0623641,4.33783866 C23.4734647,4.27926 23.7788855,3.92723402 23.7788855,3.51198091 C23.7788855,3.09672781 23.4734647,2.74470183 23.0623641,2.68612317 L20.3929249,2.68612317 C19.9818244,2.74470183 19.6764035,3.09672781 19.6764035,3.51198091 C19.6764035,3.92723402 19.9818244,4.27926 20.3929249,4.33783866 Z M23.0623641,11.7922476 L20.3929249,11.7922476 C20.0978744,11.7546957 19.8052027,11.8774039 19.6251565,12.1141492 C19.4451104,12.3508945 19.405043,12.6657097 19.5200474,12.940007 C19.6350518,13.2143042 19.887656,13.4064112 20.1827066,13.443963 C20.2524231,13.4539564 20.3232084,13.4539564 20.3929249,13.443963 L23.0623641,13.443963 C23.3574147,13.4815149 23.6500863,13.3588067 23.8301325,13.1220614 C24.0101786,12.8853161 24.050246,12.5705009 23.9352416,12.2962036 C23.8202373,12.0219064 23.567633,11.8297994 23.2725824,11.7922476 C23.2069898,11.7875142 23.1411059,11.7886309 23.0757113,11.7955844 L23.0623641,11.7922476 Z M2.45763047,3.54034371 L2.45763047,5.33887835 C1.06733527,5.45916852 0,6.62283859 0,8.01832792 C0,9.41381725 1.06733527,10.5774873 2.45763047,10.6977775 L2.45763047,20.0207938 L6.85219471,20.0207938 L6.85219471,3.53367011 L2.45763047,3.54034371 Z M14.1097325,0 L14.1097325,1.59832671 L8.30036546,3.33679897 L8.30036546,12.7632561 L14.1097325,14.5017283 L14.1097325,16.016635 L18.1138912,16.016635 L18.1138912,0 L14.1097325,0 Z" id="Shape"></path>
            </g>
        </g>
    </g>
</svg>