<?xml version="1.0" encoding="UTF-8"?>
<svg width="24px" height="24px" viewBox="0 0 24 24" version="1.1" xmlns="http://www.w3.org/2000/svg" xmlns:xlink="http://www.w3.org/1999/xlink">
    <title>Icon/Fill/meeting-room-fill</title>
    <g id="Icon/Fill/meeting-room-fill" stroke="none" stroke-width="1" fill="none" fill-rule="evenodd">
        <g id="Group" transform="translate(0.000000, 7.000000)" fill="#474747" fill-rule="nonzero">
            <path d="M6.82666667,2.76 C7.58881962,2.76 8.20666667,2.14215295 8.20666667,1.38 C8.20666667,0.617847045 7.58881962,0 6.82666667,0 C6.06451371,0 5.44666667,0.617847045 5.44666667,1.38 L5.44666667,1.38 C5.44666667,2.14215295 6.06451371,2.76 6.82666667,2.76 Z" id="Path"></path>
            <path d="M9.15666667,3.68666667 C9.15712967,3.55370452 9.07852958,3.43318438 8.95666667,3.38 C8.28221433,3.0986364 7.55740332,2.9579845 6.82666667,2.96666667 C6.09472539,2.95658234 5.36854378,3.09728003 4.69333333,3.38 C4.57147042,3.43318438 4.49287033,3.55370452 4.4933313,3.68666667 L4.4933313,4.59333333 L9.16,4.59333333 L9.15666667,3.68666667 Z" id="Path"></path>
            <path d="M12,2.76 C12.762153,2.76 13.38,2.14215295 13.38,1.38 C13.38,0.617847045 12.762153,0 12,0 C11.237847,0 10.62,0.617847045 10.62,1.38 L10.62,1.38 C10.6236482,2.1406367 11.2393633,2.7563518 12,2.76 Z" id="Path"></path>
            <path d="M14.3333354,3.68666667 C14.3337963,3.55370452 14.2551962,3.43318438 14.1333333,3.38 C12.7654537,2.82991712 11.2378797,2.82991712 9.87,3.38 C9.74944094,3.43418866 9.67228907,3.55449326 9.67332286,3.68666667 L9.67332286,4.59333333 L14.3333354,4.59333333 L14.3333354,3.68666667 Z" id="Path"></path>
            <path d="M17.1766667,2.76 C17.9388196,2.76 18.5566667,2.14215295 18.5566667,1.38 C18.5566667,0.617847045 17.9388196,0 17.1766667,0 C16.4145137,0 15.7966667,0.617847045 15.7966667,1.38 L15.7966667,1.38 C15.7966667,2.14215295 16.4145137,2.76 17.1766667,2.76 Z" id="Path"></path>
            <path d="M19.5066667,3.68666667 C19.5071297,3.55370452 19.4285296,3.43318438 19.3066667,3.38 C17.938787,2.82991712 16.411213,2.82991712 15.0433333,3.38 C14.9214704,3.43318438 14.8428703,3.55370452 14.8433313,3.68666667 L14.8433313,4.59333333 L19.51,4.59333333 L19.5066667,3.68666667 Z" id="Path"></path>
            <path d="M20.7633333,5.36333333 C20.6733333,5.14666667 20.3966667,4.95 19.6933333,4.95 L4.30666667,4.95 C3.60333333,4.95 3.32666667,5.14666667 3.23666667,5.36333333 L0,9.90333333 L0,10.0466667 C0,10.3266667 0.193333333,10.66 1.10666667,10.66 L22.8933333,10.66 C23.8066667,10.66 24,10.3266667 24,10.0466667 L24,9.90333333 L20.7633333,5.36333333 Z" id="Path"></path>
        </g>
    </g>
</svg>