<?xml version="1.0" encoding="UTF-8"?>
<svg width="24px" height="24px" viewBox="0 0 24 24" version="1.1" xmlns="http://www.w3.org/2000/svg" xmlns:xlink="http://www.w3.org/1999/xlink">
    <title>Icon/Fill/meeting-fill</title>
    <g id="Icon/Fill/meeting-fill" stroke="none" stroke-width="1" fill="none" fill-rule="evenodd">
        <g id="Group" transform="translate(0.000000, 1.000000)" fill="#474747" fill-rule="nonzero">
            <path d="M11.77,15.1599092 C13.7143023,15.1470289 15.2821213,13.5643167 15.2766273,11.6199795 C15.2711043,9.67564236 13.6943427,8.10183902 11.7499986,8.09998024 C9.80565456,8.09812475 8.22588939,9.66891315 8.21666667,11.6132362 C8.21666667,12.5550269 8.5912456,13.4581472 9.2578172,14.1234682 C9.92438879,14.7887892 10.828211,15.1616732 11.77,15.1599092 Z M20.3333333,16.9399111 C21.866033,16.928876 23.1006396,15.6793872 23.093334,14.1466654 C23.0859634,12.6139436 21.8394496,11.3763335 20.3067146,11.3799747 C18.7739795,11.3836319 17.5333333,12.6271635 17.5333333,14.1599029 C17.5406804,15.7000134 18.7932097,16.9435961 20.3333333,16.9399111 Z M3.66666667,16.9399111 C5.19981507,16.9307112 6.4360965,15.6820221 6.43000048,14.1488584 C6.42385922,12.6156946 5.17765066,11.3769128 3.64447772,11.3799527 C2.11130479,11.3830039 0.87,12.6267269 0.87,14.1599029 C0.8755138,15.699476 2.12708811,16.9435916 3.66666667,16.9399111 Z M18.9466667,9.1599138 C16.4224764,9.1433624 14.3875362,7.0875876 14.3966772,4.5633598 C14.4058799,2.039132 16.4557055,-0.00180071737 18.9799494,1.19224104e-06 C21.5041932,0.00180548949 23.551101,2.04566456 23.5566667,4.56990289 C23.5540174,5.78989963 23.0668333,6.95887574 22.20229,7.81966834 C21.3377466,8.68046094 20.1666634,9.16255794 18.9466667,9.1599138 Z M19.3833333,4.22323622 L19.3833333,1.68656956 L18.3833333,1.68656956 L18.3833333,5.21990289 L21.6666667,5.21990289 L21.6666667,4.21990289 L19.3833333,4.22323622 Z M6.88,18.3165696 L6.88,22.3165696 L0,22.3165696 L0,18.7732362 L0.3,18.6299029 C2.19666667,17.7065696 4.81666667,17.6065696 6.88,18.3165696 Z M24,18.7732362 L24,22.3265696 L17.12,22.3265696 L17.12,18.3265696 C19.1833333,17.6165696 21.7866667,17.7165696 23.7,18.6399029 L24,18.7732362 Z M16.05,17.4199029 L16.05,22.3265696 L7.95,22.3265696 L7.95,17.4199029 C10.5701946,16.4915182 13.4298054,16.4915182 16.05,17.4199029 L16.05,17.4199029 Z" id="Shape"></path>
        </g>
    </g>
</svg>