<svg width="24" height="24" viewBox="0 0 24 24" fill="none" xmlns="http://www.w3.org/2000/svg">
<g clip-path="url(#clip0_15805_63815)">
<path d="M18.6133 5.69333H15.4733L15.1866 6.80333C14.7199 6.14333 13.8066 5.41667 12.0599 5.41667C8.64325 5.41667 5.96659 8.82333 5.96659 13.17C5.96659 16.3533 7.61992 18.33 10.2766 18.33C11.8666 18.33 13.0133 17.84 13.9966 16.7167C14.3999 17.77 15.4566 18.3433 17.0533 18.3433C21.0066 18.3433 23.6666 14.9933 23.6666 10.0033C23.6666 5.01333 20.3133 0 12.8199 0C5.32659 0 0.333252 5.17333 0.333252 12.58C0.333252 19.41 4.85658 24 11.5866 24C14.4866 24 16.8233 23.4267 18.5333 22.2933L18.7433 22.1533L17.9999 19.65L17.6199 19.8667C15.9933 20.7967 14.1166 21.23 11.7066 21.23C9.29659 21.23 7.33659 20.4433 5.84325 18.9533C4.26659 17.3833 3.40325 15.1233 3.40992 12.5967C3.42325 6.57333 7.08659 2.68 12.7433 2.68C17.5866 2.68 20.7133 5.6 20.7133 10.12C20.7133 13.35 19.4166 15.6067 17.5633 15.6067C17.1133 15.6067 16.9633 15.4833 16.8866 15.39C16.7499 15.22 16.6299 14.8067 16.8499 13.79L18.6133 5.69333ZM13.6233 11.9233C12.9099 15.1433 11.7366 15.5767 10.6833 15.5767C9.50659 15.5767 8.77325 14.5933 8.77325 13.0133C8.77325 10.65 10.0066 8.1 11.9966 8.1C12.5233 8.1 12.9399 8.28667 13.2399 8.65667C13.7766 9.31667 13.9233 10.57 13.6233 11.92V11.9233Z" fill="black"/>
</g>
<defs>
<clipPath id="clip0_15805_63815">
<rect width="24" height="24" fill="white"/>
</clipPath>
</defs>
</svg>
