<?xml version="1.0" encoding="UTF-8"?>
<svg width="24px" height="24px" viewBox="0 0 24 24" version="1.1" xmlns="http://www.w3.org/2000/svg" xmlns:xlink="http://www.w3.org/1999/xlink">
    <title>Icon/Fill/microphone-fill</title>
    <g id="Icon/Fill/microphone-fill" stroke="none" stroke-width="1" fill="none" fill-rule="evenodd">
        <g id="Group" transform="translate(4.000000, 0.000000)" fill="#474747" fill-rule="nonzero">
            <path d="M9.09033447,20.2485077 L9.09033447,22.4793951 L12.3616357,22.4793951 L12.3616357,24 L4.31176698,24 L4.31176698,22.4793951 L7.5864029,22.4793951 L7.5864029,20.2518424 C3.27762105,19.843513 -0.0106381077,16.2199237 2.58635838e-05,11.8918503 L1.50731808,11.8918503 C1.50731808,15.6672979 4.56792308,18.7279029 8.34337067,18.7279029 C12.1188183,18.7279029 15.1794233,15.6672979 15.1794233,11.8918503 L16.673359,11.8918503 C16.6793401,16.2162759 13.3950139,19.8356785 9.09033447,20.2485077 Z M13.0218984,4.38886571 C12.8604731,1.91997238 10.8108663,0 8.33670136,0 C5.86253637,0 3.8129296,1.91997238 3.65150434,4.38886571 L3.65150434,4.90907264 L13.0218984,4.90907264 L13.0218984,4.38886571 Z M8.33670136,17.0272264 C9.58637054,17.0228121 10.7831021,16.5221455 11.6636248,15.6353691 C12.5441475,14.7485927 13.0363322,13.5483479 13.031932,12.2986788 L13.031932,12.2986788 L13.031932,6.43301217 L3.64148946,6.43301217 L3.64148946,12.3086827 C3.63596764,14.9078408 5.73754777,17.0198692 8.33670136,17.0272264 Z" id="Shape"></path>
        </g>
    </g>
</svg>