<?xml version="1.0" encoding="UTF-8"?>
<svg width="24px" height="24px" viewBox="0 0 24 24" version="1.1" xmlns="http://www.w3.org/2000/svg" xmlns:xlink="http://www.w3.org/1999/xlink">
    <title>Icon/Fill/minimize-fill</title>
    <g id="Icon/Fill/minimize-fill" stroke="none" stroke-width="1" fill="none" fill-rule="evenodd">
        <g id="Group" transform="translate(-0.000000, -0.000000)" fill="#474747" fill-rule="nonzero">
            <g id="minimize">
                <path d="M13.5002626,0 L18.0001501,0 L18.0001501,6.00135 L24.0000001,6.00135 L24.0000001,10.4997375 L13.5002626,10.4997375 L13.5002626,0 Z M13.5002626,13.4996626 L24.0000001,13.4996626 L24.0000001,18.0010501 L18.0001501,18.0010501 L18.0001501,23.9994001 L13.5002626,23.9994001 L13.5002626,13.4996626 Z M0.000599985003,13.4996626 L10.5003375,13.4996626 L10.5003375,23.9994001 L6.00045002,23.9994001 L6.00045002,17.9995501 L0.000599985003,17.9995501 L0.000599985003,13.4996626 Z M5.99985002,0 L10.5012375,0 L10.5012375,10.4997375 L0,10.4997375 L0,5.99985002 L5.99985002,5.99985002 L5.99985002,0 Z" id="Minimize"></path>
            </g>
        </g>
    </g>
</svg>