<svg width="24" height="24" viewBox="0 0 24 24" fill="none" xmlns="http://www.w3.org/2000/svg">
<g id="Fill=true">
<path id="Vector" d="M18.6121 15.912C16.4521 15.912 14.6201 15.512 13.1161 14.712C11.5481 13.896 10.3561 12.744 9.54006 11.256C8.69206 9.752 8.26806 7.976 8.26806 5.928C8.26806 5.048 8.33206 4.248 8.46006 3.528C8.60406 2.792 8.78006 2.208 8.98806 1.776C9.05206 1.664 9.11606 1.528 9.18006 1.368L9.20406 1.32C9.22006 1.24 9.22806 1.112 9.22806 0.935999C9.22806 0.696 9.14006 0.48 8.96406 0.287999C8.80406 0.0959997 8.57206 0 8.26806 0C8.18806 0 8.10006 0.0159998 8.00406 0.0479994H7.95606C7.79606 0.0799999 7.66006 0.12 7.54806 0.167999C6.09206 0.759999 4.79606 1.64 3.66006 2.808C2.52406 3.976 1.63606 5.312 0.996059 6.816C0.372059 8.304 0.0600586 9.888 0.0600586 11.568C0.0600586 13.344 0.364059 15 0.972059 16.536C1.59606 18.056 2.46006 19.368 3.56406 20.472C4.68406 21.592 6.00406 22.456 7.52406 23.064C9.06006 23.688 10.7081 24 12.4681 24C14.1961 24 15.7881 23.712 17.2441 23.136C18.7001 22.56 19.9881 21.728 21.1081 20.64C22.2281 19.568 23.1081 18.304 23.7481 16.848C23.8281 16.64 23.8761 16.48 23.8921 16.368C23.9241 16.208 23.9401 16.104 23.9401 16.056C23.9401 15.768 23.8441 15.544 23.6521 15.384C23.4601 15.224 23.2681 15.144 23.0761 15.144L22.7401 15.168C22.6121 15.2 22.4841 15.248 22.3561 15.312C22.1001 15.408 21.7401 15.512 21.2761 15.624C20.8761 15.72 20.4441 15.792 19.9801 15.84C19.5321 15.888 19.0761 15.912 18.6121 15.912Z" fill="#474747"/>
</g>
</svg>
