<?xml version="1.0" encoding="UTF-8"?>
<svg width="24px" height="24px" viewBox="0 0 24 24" version="1.1" xmlns="http://www.w3.org/2000/svg" xmlns:xlink="http://www.w3.org/1999/xlink">
    <title>Icon/Fill/mortgage-payment-fill</title>
    <g id="Icon/Fill/mortgage-payment-fill" stroke="none" stroke-width="1" fill="none" fill-rule="evenodd">
        <g id="Group" transform="translate(0.000000, 1.000000)" fill="#474747" fill-rule="nonzero">
            <path d="M10.8466667,10.1633333 C10.8480466,10.3558727 10.9137506,10.5424252 11.0333333,10.6933333 C11.1379593,10.8245977 11.269902,10.9315168 11.42,11.0066667 L11.42,9.29666667 C11.2765752,9.36451801 11.1501526,9.46360599 11.05,9.58666667 C10.9191613,9.75047575 10.8475087,9.95368729 10.8466667,10.1633333 L10.8466667,10.1633333 Z" id="Path"></path>
            <path d="M12.5866667,13.1933333 L12.5866667,15.2533333 C12.8091618,15.2007358 13.0117261,15.0849847 13.17,14.92 C13.3474428,14.7249748 13.4450173,14.4703292 13.4433333,14.2066667 C13.4489342,13.9757565 13.3680977,13.7510786 13.2166667,13.5766667 C13.0436948,13.3961282 12.8265061,13.2639763 12.5866667,13.1933333 L12.5866667,13.1933333 Z" id="Path"></path>
            <path d="M12,0 L0,12.0933333 L3.51333333,12.0933333 L3.49666667,21.3333333 L20.4666667,21.3333333 L20.4666667,12.0933333 L24,12.0933333 L12,0 Z M14.4233333,15.8066667 C13.9302205,16.3042342 13.2825229,16.6192668 12.5866667,16.7 L12.5866667,17.81 L11.42,17.81 L11.42,16.7266667 C10.7995739,16.6551585 10.2169321,16.3918044 9.75333333,15.9733333 C9.26508503,15.4818914 8.95530763,14.8412154 8.87333333,14.1533333 L8.87333333,14.0766667 L10.6666667,13.8966667 L10.6666667,13.9633333 C10.7225886,14.2467444 10.8448103,14.5128907 11.0233333,14.74 C11.1360835,14.8789073 11.2699339,14.9992603 11.42,15.0966667 L11.42,12.8633333 C10.7718605,12.7063806 10.1820503,12.3675289 9.72,11.8866667 C9.32710814,11.4218103 9.11941666,10.828406 9.13666667,10.22 C9.12164429,9.59665751 9.36256369,8.99435902 9.80333333,8.55333333 C10.2418934,8.12521818 10.81335,7.8594791 11.4233333,7.8 L11.4233333,6.69333333 L12.59,6.69333333 L12.59,7.81666667 C13.1464753,7.87390056 13.6733047,8.09554025 14.1033333,8.45333333 C14.5147786,8.83297182 14.7860807,9.34034184 14.8733333,9.89333333 L14.8733333,9.97 L13.1433333,10.18 L13.1433333,10.1133333 C13.0899417,9.77477177 12.8866305,9.47837842 12.59,9.30666667 L12.59,11.4 C13.5433333,11.6533333 14.21,11.9833333 14.57,12.38 C14.9494481,12.8247616 15.1481086,13.395762 15.1266667,13.98 C15.1423529,14.6578266 14.8895517,15.3143909 14.4233333,15.8066667 L14.4233333,15.8066667 Z" id="Shape"></path>
        </g>
    </g>
</svg>