<?xml version="1.0" encoding="UTF-8"?>
<svg width="24px" height="24px" viewBox="0 0 24 24" version="1.1" xmlns="http://www.w3.org/2000/svg" xmlns:xlink="http://www.w3.org/1999/xlink">
    <title>Icon/Fill/mortgage-fill</title>
    <g id="Icon/Fill/mortgage-fill" stroke="none" stroke-width="1" fill="none" fill-rule="evenodd">
        <g id="Group" transform="translate(2.000000, 0.000000)" fill="#474747" fill-rule="nonzero">
            <path d="M17.7836877,0 L1.55035434,0 C0.68085417,0.0146111491 -0.012638101,0.730474139 0.000174722322,1.6 L0.000174722322,22.4 C-0.012638101,23.2695259 0.68085417,23.9853889 1.55035434,24 L17.7836877,24 C18.6531878,23.9853889 19.3466801,23.2695259 19.3338673,22.4 L19.3338673,1.6 C19.3466801,0.730474139 18.6531878,0.0146111491 17.7836877,0 Z M15.667021,20.8266667 L3.667021,20.8266667 L3.667021,19.3333333 L15.667021,19.3333333 L15.667021,20.8266667 Z M15.667021,17.6666667 L3.667021,17.6666667 L3.667021,16.1666667 L15.667021,16.1666667 L15.667021,17.6666667 Z M14.7503543,9.42 L14.7503543,14.1766667 L4.58368767,14.1766667 L4.58368767,9.42 L3.18368767,9.42 L9.667021,2.56 L16.1503543,9.42 L14.7503543,9.42 Z" id="Shape"></path>
        </g>
    </g>
</svg>