<?xml version="1.0" encoding="UTF-8"?>
<svg width="24px" height="24px" viewBox="0 0 24 24" version="1.1" xmlns="http://www.w3.org/2000/svg" xmlns:xlink="http://www.w3.org/1999/xlink">
    <title>Icon/Fill/move-fill</title>
    <g id="Icon/Fill/move-fill" stroke="none" stroke-width="1" fill="none" fill-rule="evenodd">
        <g id="Group" transform="translate(0.000056, -0.000000)" fill="#474747" fill-rule="nonzero">
            <g id="move">
                <path d="M19.7999073,7.79996347 C19.21341,7.21346622 18.2639145,7.21346622 17.6789172,7.79996347 C17.09242,8.38646072 17.09242,9.33595628 17.6789172,9.92095354 L18.2579145,10.4999508 L13.4999368,10.4999508 L13.4999368,5.74197311 L14.0789341,6.3209704 C14.6654313,6.90746765 15.6149269,6.90746765 16.1999241,6.3209704 C16.7864214,5.73597314 16.7864214,4.78647758 16.1999241,4.19998033 C16.1999241,4.19998033 14.5903988,2.59045506 13.7856362,1.78569242 C12.9808736,0.980929781 11.9999438,-2.62179186e-16 11.9999438,-2.62179186e-16 L7.79996347,4.19998033 C7.21346622,4.78647758 7.21346622,5.73597314 7.79996347,6.3209704 C8.38646072,6.90746765 9.33595628,6.90746765 9.92095354,6.3209704 L10.4999508,5.7434731 L10.4999508,10.4999508 L5.74197311,10.4999508 L6.3209704,9.92095354 C6.90746765,9.33595628 6.90746765,8.38646072 6.3209704,7.79996347 C5.73597314,7.21346622 4.78647758,7.21346622 4.19998033,7.79996347 L0,11.9999438 L4.19998033,16.1999241 C4.78647758,16.7864214 5.73597314,16.7864214 6.3209704,16.1999241 C6.90746765,15.6149269 6.90746765,14.6654313 6.3209704,14.0789341 L5.74197311,13.4999368 L10.4999508,13.4999368 L10.4999508,18.2579145 L9.92095354,17.6789172 C9.33595628,17.09242 8.38646072,17.09242 7.79996347,17.6789172 C7.21346622,18.2639145 7.21346622,19.21341 7.79996347,19.7999073 L11.9999438,23.9998876 L16.1999241,19.7999073 C16.7864214,19.21341 16.7864214,18.2639145 16.1999241,17.6789172 C15.6149269,17.09242 14.6654313,17.09242 14.0789341,17.6789172 L13.4999368,18.2579145 L13.4999368,13.4999368 L18.2579145,13.4999368 L17.6789172,14.0789341 C17.09242,14.6654313 17.09242,15.6149269 17.6789172,16.1999241 C18.2639145,16.7864214 19.21341,16.7864214 19.7999073,16.1999241 L23.9998876,11.9999438 L19.7999073,7.79996347 Z" id="Fill-1"></path>
            </g>
        </g>
    </g>
</svg>