<svg width="24" height="24" viewBox="0 0 24 24" fill="none" xmlns="http://www.w3.org/2000/svg">
<g clip-path="url(#clip0_15805_63798)">
<path d="M19.9433 17.9559L6.33 4.51595L1.89667 0.13928L0 2.01595L4.84 6.79261L16.1467 17.9559L22.1033 23.8359L24 21.9593L19.9433 17.9526V17.9559ZM1.89667 0.13928L0 2.01595L22.1033 23.8359L24 21.9593L1.89667 0.13928ZM16.69 12.3993L10.65 6.43595H16.6967V12.2993C16.6967 12.3326 16.6933 12.3659 16.69 12.3993ZM19.6167 15.2893L18.45 14.1359C18.69 13.4326 18.83 12.6793 18.83 11.8926H20.3367C20.3367 13.0993 20.08 14.2459 19.62 15.2859L19.6167 15.2893ZM12.7567 20.2493V22.4793H16.0267V23.9993H7.98V22.4793H11.2533V20.2526C6.96333 19.8593 3.67667 16.2359 3.67 11.8959H5.17667C5.17667 15.6926 8.23333 18.7726 12.0033 18.7726C12.78 18.7726 13.5267 18.6359 14.22 18.3959L15.3967 19.5559C14.58 19.9226 13.6933 20.1626 12.7567 20.2493ZM9.10667 4.91595L7.51667 3.34595C8.07333 1.50928 9.69667 0.152613 11.6667 0.0126135C14.2533 -0.17072 16.4967 1.78928 16.68 4.39595V4.91595H9.10333H9.10667ZM7.30667 11.5726L12.7667 16.9626C12.5167 17.0026 12.2633 17.0326 12 17.0326C9.41 17.0326 7.31 14.9226 7.30667 12.3126V11.5726Z" fill="black"/>
</g>
<defs>
<clipPath id="clip0_15805_63798">
<rect width="24" height="24" fill="white"/>
</clipPath>
</defs>
</svg>
