<?xml version="1.0" encoding="UTF-8"?>
<svg width="24px" height="24px" viewBox="0 0 24 24" version="1.1" xmlns="http://www.w3.org/2000/svg" xmlns:xlink="http://www.w3.org/1999/xlink">
    <title>Icon/Fill/neighborhood-fill</title>
    <g id="Icon/Fill/neighborhood-fill" stroke="none" stroke-width="1" fill="none" fill-rule="evenodd">
        <g id="Group" transform="translate(0.000000, 3.000000)" fill="#474747" fill-rule="nonzero">
            <path d="M21.6866667,17.1866667 L21.8133333,1.14666667 C21.8115026,0.514140035 21.2991933,0.00183076875 20.6666667,0 L12.63,0 L12.63,9.80333333 L14.9266667,9.80333333 C15.2254908,9.79798167 15.5141971,9.91158102 15.7292492,10.1191313 C15.9443013,10.3266816 16.0680758,10.6111742 16.0733333,10.91 L16.0733333,17.1866667 L14.9266667,17.1866667 L14.9266667,10.94 L11.48,10.94 L11.48,2.54666667 L3.44333333,2.54666667 C2.81521748,2.5466242 2.30397034,3.05192661 2.29666667,3.68 L2.29666667,17.1866667 L0,17.1866667 L0,18.3333333 L24,18.3333333 L24,17.1866667 L21.6866667,17.1866667 Z M6.31333333,14.45 L5.16666667,14.45 L5.16666667,13.3033333 L6.31333333,13.3033333 L6.31333333,14.45 Z M6.31333333,10.3733333 L5.16666667,10.3733333 L5.16666667,9.23 L6.31333333,9.23 L6.31333333,10.3733333 Z M6.31333333,6.55666667 L5.16666667,6.55666667 L5.16666667,5.41 L6.31333333,5.41 L6.31333333,6.55666667 Z M9.76,15.5966667 L8.61,15.5966667 L8.61,13.3033333 L9.76,13.3033333 L9.76,15.5966667 Z M9.76,10.3766667 L8.61,10.3766667 L8.61,9.23 L9.76,9.23 L9.76,10.3766667 Z M9.76,6.55666667 L8.61,6.55666667 L8.61,5.41 L9.76,5.41 L9.76,6.55666667 Z M13,14.45 L11.8566667,14.45 L11.8566667,13.3033333 L13,13.3033333 L13,14.45 Z M16.3333333,8.34 L15.18,8.34 L15.18,7.19333333 L16.3333333,7.19333333 L16.3333333,8.34 Z M16.3333333,3.75666667 L15.18,3.75666667 L15.18,2.61 L16.3333333,2.61 L16.3333333,3.75666667 Z M19.4866667,15.5966667 L18.3333333,15.5966667 L18.3333333,13.3033333 L19.48,13.3033333 L19.4866667,15.5966667 Z M19.78,8.34 L18.6266667,8.34 L18.6266667,7.19333333 L19.7733333,7.19333333 L19.78,8.34 Z M19.78,3.75666667 L18.6266667,3.75666667 L18.6266667,2.61 L19.7733333,2.61 L19.78,3.75666667 Z" id="Shape"></path>
        </g>
    </g>
</svg>