<?xml version="1.0" encoding="UTF-8"?>
<svg width="24px" height="24px" viewBox="0 0 24 24" version="1.1" xmlns="http://www.w3.org/2000/svg" xmlns:xlink="http://www.w3.org/1999/xlink">
    <title>Icon/Fill/network-port-fill</title>
    <g id="Icon/Fill/network-port-fill" stroke="none" stroke-width="1" fill="none" fill-rule="evenodd">
        <g id="Group" transform="translate(0.000000, 1.000000)" fill="#474747" fill-rule="nonzero">
            <path d="M4.24597539,1.07986416 C0.597060863,4.86923629 0.597060863,10.8654511 4.24597539,14.6548232 L3.17610997,15.7346874 C-1.05870332,11.3446057 -1.05870332,4.39008168 3.17610997,0 L4.24597539,1.07986416 Z M5.66579679,1.84310149 C2.42875696,5.20828802 2.42875696,10.5297323 5.66579679,13.8949188 L6.73899513,12.8150546 C4.08568922,10.0501632 4.08568922,5.68452418 6.73899513,2.91963273 L5.66579679,1.84310149 Z M8.15548361,3.78952331 C5.97201394,6.06964301 5.97201394,9.66504436 8.15548361,11.9451641 L9.22534903,10.8686328 C7.62892758,9.18749462 7.62892758,6.55052567 9.22534903,4.86938747 L8.15548361,3.78952331 Z M19.7540246,1.07986416 C23.4029391,4.86923629 23.4029391,10.8654511 19.7540246,14.6548232 L20.82389,15.7346874 C25.0587033,11.3446057 25.0587033,4.39008168 20.82389,8.8817842e-15 L19.7540246,1.07986416 Z M17.2643378,2.91963273 C19.9176437,5.68452418 19.9176437,10.0501632 17.2643378,12.8150546 L18.3308703,13.8949188 C21.5679101,10.5297323 21.5679101,5.20828802 18.3308703,1.84310149 L17.2643378,2.91963273 Z M14.7779839,4.86938747 C16.3744053,6.55052567 16.3744053,9.18749462 14.7779839,10.8686328 L15.8478493,11.9451641 C18.031319,9.66504436 18.031319,6.06964301 15.8478493,3.78952331 L14.7779839,4.86938747 Z M16.7777323,20.2707834 L16.7777323,18.7776379 L12.7782354,18.7776379 L12.7782354,9.4221481 C13.3797381,9.07386484 13.6725172,8.36515089 13.4922022,7.69388846 C13.3118872,7.02262603 12.7033911,6.55601325 12.0083323,6.55601325 C11.3132735,6.55601325 10.7047773,7.02262603 10.5244624,7.69388846 C10.3441474,8.36515089 10.6369264,9.07386484 11.2384291,9.4221481 L11.2384291,18.7776379 L7.57222365,18.7776379 L7.57222365,20.2707834 L2.20289906,20.2707834 L2.20289906,22.6638157 L22.7769777,22.6638157 L22.7769777,20.2707834 L16.7777323,20.2707834 Z" id="Shape"></path>
        </g>
    </g>
</svg>