<?xml version="1.0" encoding="UTF-8"?>
<svg width="24px" height="24px" viewBox="0 0 24 24" version="1.1" xmlns="http://www.w3.org/2000/svg" xmlns:xlink="http://www.w3.org/1999/xlink">
    <title>Icon/Fill/network-fill</title>
    <g id="Icon/Fill/network-fill" stroke="none" stroke-width="1" fill="none" fill-rule="evenodd">
        <g id="Group" transform="translate(-0.000000, -0.000000)" fill="#474747" fill-rule="nonzero">
            <g id="network-fill">
                <path d="M17.8089203,6.59677613 L7.49439411,11.7931941 C7.49811526,11.861657 7.5,11.9306084 7.5,12 C7.5,12.0655553 7.4983179,12.1307176 7.49499446,12.1954463 L17.8466458,17.3712719 C18.4974494,16.8273526 19.3354961,16.5 20.2500001,16.5 C22.3210679,16.5 24,18.1789323 24,20.2500001 C24,22.3210679 22.3210679,24 20.2500001,24 C18.1789323,24 16.5,22.3210679 16.5,20.2500001 C16.5,20.1844448 16.5016822,20.1192825 16.5050056,20.0545538 L6.15335434,14.8787282 C5.50255064,15.4226476 4.66450397,15.7500001 3.75000002,15.7500001 C1.67893219,15.7500001 0,14.0710678 0,12 C0,9.92893227 1.67893219,8.25000003 3.75000002,8.25000003 C4.66041817,8.25000003 5.49506071,8.57443399 6.1446202,9.11399456 L16.5027746,3.89559685 C16.5009305,3.84729308 16.5,3.79875521 16.5,3.75000002 C16.5,1.67893219 18.1789323,0 20.2500001,0 C22.3210679,0 24,1.67893219 24,3.75000002 C24,5.82106784 22.3210679,7.5 20.2500001,7.5 C19.3177259,7.5 18.4649093,7.15980199 17.8089203,6.59677613 Z" id="Icon/Network/Fill"></path>
            </g>
        </g>
    </g>
</svg>