<?xml version="1.0" encoding="UTF-8"?>
<svg width="24px" height="24px" viewBox="0 0 24 24" version="1.1" xmlns="http://www.w3.org/2000/svg" xmlns:xlink="http://www.w3.org/1999/xlink">
    <title>Icon/Fill/notebook-fill</title>
    <g id="Icon/Fill/notebook-fill" stroke="none" stroke-width="1" fill="none" fill-rule="evenodd">
        <g id="Group" fill="#474747" fill-rule="nonzero">
            <path d="M3,3.25 L0,3.25 L0,4.75 L3,4.75 L3,11.1933333 L0,11.1933333 L0,12.71 L3,12.71 L3,19.23 L0,19.23 L0,20.73 L3,20.73 L3,24 L22.5,24 C23.3269102,23.9963491 23.9963491,23.3269102 24,22.5 L24,1.5 C23.9963491,0.673089837 23.3269102,0.00365087079 22.5,0 L3,0 L3,3.25 Z M6.75,9 L20.25,9 L20.25,10.5 L6.75,10.5 L6.75,9 Z M6.75,13.5 L20.25,13.5 L20.25,15 L6.75,15 L6.75,13.5 Z M6.75,18.0466667 L20.25,18.0466667 L20.25,19.5466667 L6.75,19.5466667 L6.75,18.0466667 Z M6.75,4.5 L20.25,4.5 L20.25,6 L6.75,6 L6.75,4.5 Z" id="Shape"></path>
        </g>
    </g>
</svg>