<?xml version="1.0" encoding="UTF-8"?>
<svg width="24px" height="24px" viewBox="0 0 24 24" version="1.1" xmlns="http://www.w3.org/2000/svg" xmlns:xlink="http://www.w3.org/1999/xlink">
    <title>Icon/Fill/noteplus-fill</title>
    <g id="Icon/Fill/noteplus-fill" stroke="none" stroke-width="1" fill="none" fill-rule="evenodd">
        <g id="Group" fill="#474747" fill-rule="nonzero">
            <path d="M15.3701891,16.4363064 C15.3615904,18.9654291 14.1168038,21.3305236 12.0369289,22.7695009 C10.7709573,23.5751814 9.30095455,24.0019564 7.80035506,23.9995186 C5.73052274,24.0065016 3.74441527,23.1827593 2.28714256,21.7128574 C0.672565177,20.0975153 -0.154384774,17.8565906 0.0238588328,15.5796585 C0.525509746,11.56464 4.05037098,8.62364406 8.09030696,8.84935352 C12.1302429,9.07506299 15.3055658,12.3903953 15.3568561,16.4363064 L15.3701891,16.4363064 Z M12.4335868,15.8396528 L8.19034651,15.8396528 L8.19034651,11.589746 L7.21036799,11.589746 L7.21036799,15.8396528 L3.29378716,15.8396528 L3.29378716,16.8196314 L7.21036799,16.8196314 L7.21036799,20.746212 L8.19034651,20.746212 L8.19034651,16.8196314 L12.4335868,16.8196314 L12.4335868,15.8396528 Z M7.0670378,0 L7.0670378,7.51316866 L7.21370125,7.51316866 L7.51702793,7.51316866 L7.61035922,7.51316866 C12.5671667,7.52787593 16.5745579,11.5561545 16.5634963,16.5129714 C16.5576813,16.5449306 16.5576813,16.5776768 16.5634963,16.609636 C16.5696573,16.6861772 16.5696573,16.7630897 16.5634963,16.8396309 L16.5634963,16.9862944 L18.6667836,16.9862944 L23.9666674,10.6664329 L24,10.6264338 L24,0 L7.0670378,0 Z M22.1567071,10.7530977 L18.1234621,15.086336 L18.1234621,10.7530977 L22.1567071,10.7530977 Z" id="Shape"></path>
        </g>
    </g>
</svg>