<?xml version="1.0" encoding="UTF-8"?>
<svg width="24px" height="24px" viewBox="0 0 24 24" version="1.1" xmlns="http://www.w3.org/2000/svg" xmlns:xlink="http://www.w3.org/1999/xlink">
    <title>Icon/Fill/notification-fill</title>
    <g id="Icon/Fill/notification-fill" stroke="none" stroke-width="1" fill="none" fill-rule="evenodd">
        <g id="Group" transform="translate(-0.000000, -0.000000)" fill="#474747" fill-rule="nonzero">
            <g id="notification">
                <path d="M12.0000001,23.9995501 C14.4885001,23.9995501 16.6785001,22.8130501 18.1080001,20.9995501 L5.89200002,20.9995501 C7.32150003,22.8130501 9.51150004,23.9995501 12.0000001,23.9995501 Z M23.1210001,13.5015001 L21.3045001,12.6750001 L18.6645001,5.48400002 C18.4485001,4.89300002 17.8860001,4.5 17.2560001,4.5 L16.5,4.5 C16.5,2.01900001 14.4810001,0 12,0 C9.51900004,0 7.5,2.01900001 7.5,4.5 L6.74400003,4.5 C6.11400003,4.5 5.55300002,4.89300002 5.33550002,5.48400002 L2.69700001,12.6750001 L0.879000004,13.5015001 C0.343500001,13.7460001 0,14.2800001 0,14.8680001 L0,18 L24,18 L24,14.8680001 C24,14.2800001 23.6565001,13.7460001 23.1210001,13.5015001 Z M10.5,4.50000001 C10.5,3.67350002 11.172,3.00000001 12,3.00000001 C12.8280001,3.00000001 13.5,3.67350002 13.5,4.50000001 L10.5,4.50000001 Z" id="Combined-Shape"></path>
            </g>
        </g>
    </g>
</svg>