<svg width="24" height="24" viewBox="0 0 24 24" fill="none" xmlns="http://www.w3.org/2000/svg">
<g clip-path="url(#clip0_15805_63800)">
<path d="M23.1267 13.5017L21.31 12.675L18.67 5.485C18.4533 4.895 17.89 4.50166 17.26 4.50166H16.5033C16.5033 2.02166 14.4833 0.00166321 12.0033 0.00166321C9.52333 0.00166321 7.50333 2.02166 7.50333 4.50166H6.74667C6.11667 4.50166 5.55667 4.895 5.33667 5.485L2.69667 12.675L0.88 13.5017C0.343333 13.745 0 14.2817 0 14.8683V18.0017H24V14.8683C24 14.2817 23.6567 13.745 23.12 13.5017H23.1267ZM10.5067 4.49833C10.5067 3.67166 11.18 2.99833 12.0067 2.99833C12.8333 2.99833 13.5067 3.67166 13.5067 4.49833H10.5067ZM12.0067 23.9983C14.4967 23.9983 16.6867 22.8117 18.1133 20.9983H5.9C7.33 22.8117 9.52 23.9983 12.0067 23.9983ZM12.9667 14.995C12.9667 15.525 12.5367 15.955 12.0067 15.955C11.4767 15.955 11.0467 15.525 11.0467 14.995C11.0467 14.465 11.4767 14.035 12.0067 14.035C12.5367 14.035 12.9667 14.465 12.9667 14.995ZM12.8633 12.545H11.15V6.955H12.8633V12.545Z" fill="black"/>
</g>
<defs>
<clipPath id="clip0_15805_63800">
<rect width="24" height="24" fill="white"/>
</clipPath>
</defs>
</svg>
