<svg width="24" height="24" viewBox="0 0 24 24" fill="none" xmlns="http://www.w3.org/2000/svg">
<g clip-path="url(#clip0_15805_63806)">
<path d="M5.89187 21C7.32187 22.8133 9.51187 24 11.9985 24C14.0385 24 15.8785 23.2 17.2619 21.9133L16.3352 21H5.89187Z" fill="black"/>
<path d="M4.08187 8.94667L13.2985 18.09H-0.00146484V14.9433C-0.00146484 14.3533 0.341869 13.8167 0.878535 13.57L2.6952 12.74L4.07854 8.94667H4.08187ZM22.7885 18.09L7.71854 3.13667C8.30187 1.32 9.99854 0 11.9985 0C14.4785 0 16.4985 2.03 16.4985 4.52333H17.2552C17.8852 4.52333 18.4485 4.91667 18.6652 5.51333L21.3052 12.74L23.1219 13.57C23.6585 13.8167 24.0019 14.3533 24.0019 14.9433V18.09H22.7885ZM13.4985 4.52333C13.4985 3.69333 12.8252 3.01667 11.9985 3.01667C11.1719 3.01667 10.4985 3.69333 10.4985 4.52333H13.4985ZM19.9419 18.09L1.8952 0.186667L-0.00146484 2.07L22.1019 23.9967L23.9985 22.11L19.9419 18.0833V18.09ZM1.8952 0.186667L-0.00146484 2.07L22.1019 24L23.9985 22.1133L1.8952 0.186667Z" fill="black"/>
</g>
<defs>
<clipPath id="clip0_15805_63806">
<rect width="24" height="24" fill="white"/>
</clipPath>
</defs>
</svg>
