<?xml version="1.0" encoding="UTF-8"?>
<svg width="24px" height="24px" viewBox="0 0 24 24" version="1.1" xmlns="http://www.w3.org/2000/svg" xmlns:xlink="http://www.w3.org/1999/xlink">
    <title>Icon/Rich text editor/numbered list</title>
    <g id="Icon/Rich-text-editor/numbered-list" stroke="none" stroke-width="1" fill="none" fill-rule="evenodd">
        <path d="M23.3436943,21.312454 C23.4999437,21.312454 23.6327564,21.2577663 23.7421309,21.1483918 C23.8515054,21.0390173 23.906193,20.9062047 23.906193,20.7499553 L23.906193,20.7499553 L23.906193,19.2499589 C23.906193,19.0937095 23.8515054,18.9608968 23.7421309,18.8515223 C23.6327564,18.7421478 23.4999437,18.6874602 23.3436943,18.6874602 L23.3436943,18.6874602 L6.46873458,18.6874602 C6.31248519,18.6874602 6.17967253,18.7421478 6.07029803,18.8515223 C5.96092353,18.9608968 5.90623592,19.0937095 5.90623592,19.2499589 L5.90623592,19.2499589 L5.90623592,20.7499553 C5.90623592,20.9062047 5.96092353,21.0390173 6.07029803,21.1483918 C6.17967253,21.2577663 6.31248519,21.312454 6.46873458,21.312454 L6.46873458,21.312454 L23.3436943,21.312454 Z M1.96874531,22.9999499 C2.71874352,22.9999499 3.2968669,22.7812002 3.70311617,22.3437015 C4.07811528,21.9687024 4.26561483,21.4999535 4.26561483,20.9374548 C4.26561483,20.5624557 4.14842761,20.2265188 3.91405317,19.9296448 C3.67967873,19.6327707 3.34374179,19.4218337 2.90624307,19.2968338 L2.90624307,19.2968338 L3.70311617,18.359336 C3.89061572,18.1718364 3.9843655,17.9530867 3.9843655,17.7030876 L3.9843655,17.7030876 L3.9843655,17.515588 C3.9843655,17.1718391 3.79686595,16.9999642 3.42186684,16.9999642 L3.42186684,16.9999642 L0.703123324,16.9999642 C0.328124218,16.9999642 0.140624665,17.1718391 0.140624665,17.515588 L0.140624665,17.515588 L0.140624665,17.937462 C0.140624665,18.3124611 0.328124218,18.4999642 0.703123324,18.4999642 L0.703123324,18.4999642 L1.31249687,18.4999642 L1.87499553,18.4062109 L1.31249687,19.0624593 L1.03124754,19.3905835 C0.843747988,19.6405827 0.812497824,19.8749571 0.937497765,20.0937069 L0.937497765,20.0937069 L0.984372653,20.1874566 C1.10937259,20.4374558 1.29687215,20.5624557 1.54687131,20.5624557 L1.54687131,20.5624557 L1.78124575,20.5624557 C2.2812448,20.5624557 2.53124397,20.6952677 2.53124397,20.9608923 C2.53124397,21.2265169 2.29686952,21.3593288 1.82812064,21.3593288 C1.60937092,21.3593288 1.39062192,21.312454 1.17187221,21.2187042 C0.859372713,21.0312046 0.609373547,21.0780795 0.421873994,21.3593288 L0.421873994,21.3593288 L0.187499553,21.8280777 C-2.5313085e-14,22.1093271 0.0312501639,22.3593262 0.281249329,22.5780759 C0.781248376,22.8593253 1.34374703,22.9999499 1.96874531,22.9999499 Z M23.3436943,13.8124718 C23.4999437,13.8124718 23.6327564,13.7577842 23.7421309,13.6484097 C23.8515054,13.5390352 23.906193,13.4062226 23.906193,13.2499732 L23.906193,13.2499732 L23.906193,11.7499768 C23.906193,11.5937274 23.8515054,11.4609147 23.7421309,11.3515402 C23.6327564,11.2421657 23.4999437,11.1874781 23.3436943,11.1874781 L23.3436943,11.1874781 L6.46873458,11.1874781 C6.31248519,11.1874781 6.17967253,11.2421657 6.07029803,11.3515402 C5.96092353,11.4609147 5.90623592,11.5937274 5.90623592,11.7499768 L5.90623592,11.7499768 L5.90623592,13.2499732 C5.90623592,13.4062226 5.96092353,13.5390352 6.07029803,13.6484097 C6.17967253,13.7577842 6.31248519,13.8124718 6.46873458,13.8124718 L6.46873458,13.8124718 L23.3436943,13.8124718 Z M3.74999106,15.4999678 C4.12499017,15.4999678 4.31248972,15.328093 4.31248972,14.984344 L4.31248972,14.984344 L4.31248972,14.56247 C4.31248972,14.1874709 4.12499017,13.9999714 3.74999106,13.9999714 L3.74999106,13.9999714 L1.92187042,13.9999714 C1.95312058,13.9062216 2.17186958,13.7499722 2.57811885,13.5312225 C3.0781179,13.218723 3.43749157,12.9530991 3.65624128,12.7343494 C4.03124039,12.3281001 4.21873994,11.8749767 4.21873994,11.3749776 C4.21873994,10.7499794 3.9843655,10.2656051 3.51561662,9.92185611 C3.14061751,9.64060678 2.67186863,9.49998212 2.10936997,9.49998212 C1.29687215,9.49998212 0.67187316,9.79685617 0.234374441,10.390605 C0.0468748882,10.6406042 0.0937497765,10.8749786 0.374999106,11.0937283 L0.374999106,11.0937283 L0.749998212,11.4218525 C1,11.6093521 1.24999726,11.5781019 1.5,11.3281028 C1.65624581,11.2031028 1.81249592,11.1406032 1.96874531,11.1406032 C2.24999464,11.1406032 2.3906193,11.2656031 2.3906193,11.5156023 C2.3906193,11.6093521 2.34374441,11.7031019 2.24999464,11.7968516 C2.15624486,11.8906014 1.98437003,12.0156014 1.73437086,12.1718507 C1.23437182,12.5155997 0.859372713,12.8280992 0.609373547,13.1093485 C0.203124277,13.5780974 0,14.1405961 0,14.7968445 L0,14.7968445 L0,14.984344 C0,15.1405934 0.054687608,15.2655934 0.164062109,15.3593431 C0.27343661,15.4530929 0.40624927,15.4999678 0.562498659,15.4999678 L0.562498659,15.4999678 L3.74999106,15.4999678 Z M23.3436943,6.31248972 C23.4999437,6.31248972 23.6327564,6.25780211 23.7421309,6.14842761 C23.8515054,6.03905311 23.906193,5.90624045 23.906193,5.74999106 L23.906193,5.74999106 L23.906193,4.24999464 C23.906193,4.09374525 23.8515054,3.96093259 23.7421309,3.85155809 C23.6327564,3.74218358 23.4999437,3.68749598 23.3436943,3.68749598 L23.3436943,3.68749598 L6.46873458,3.68749598 C6.31248519,3.68749598 6.17967253,3.74218358 6.07029803,3.85155809 C5.96092353,3.96093259 5.90623592,4.09374525 5.90623592,4.24999464 L5.90623592,4.24999464 L5.90623592,5.74999106 C5.90623592,5.90624045 5.96092353,6.03905311 6.07029803,6.14842761 C6.17967253,6.25780211 6.31248519,6.31248972 6.46873458,6.31248972 L6.46873458,6.31248972 L23.3436943,6.31248972 Z M3.74999106,7.99998569 C4.12499017,7.99998569 4.31248972,7.81248614 4.31248972,7.43748704 L4.31248972,7.43748704 L4.31248972,7.06248793 C4.31248972,6.68748882 4.12499017,6.49998927 3.74999106,6.49998927 L3.74999106,6.49998927 L3.04686774,6.49998927 L3.04686774,2.56249866 C3.04686774,2.18749955 2.85936818,2 2.48436908,2 L2.48436908,2 L1.92187042,2 C1.67187125,2 1.43749681,2.09374978 1.21874709,2.28124933 L1.21874709,2.28124933 L0.234374441,3.21874709 C-0.0468748882,3.46874626 -0.0624996126,3.71874614 0.187499553,3.96874531 L0.187499553,3.96874531 L0.468748882,4.24999464 C0.562498659,4.37499458 0.679685879,4.44530691 0.820310544,4.46093163 C0.960935209,4.47655636 1.07812243,4.42186946 1.17187221,4.29686952 L1.17187221,4.29686952 L1.35937176,4.15624486 L1.31249687,4.62499374 L1.31249687,6.49998927 L0.609373547,6.49998927 C0.234374441,6.49998927 0.0468748882,6.68748882 0.0468748882,7.06248793 L0.0468748882,7.06248793 L0.0468748882,7.43748704 C0.0468748882,7.81248614 0.234374441,7.99998569 0.609373547,7.99998569 L0.609373547,7.99998569 L3.74999106,7.99998569 Z" id="Color" fill="#474747"></path>
    </g>
</svg>