<?xml version="1.0" encoding="UTF-8"?>
<svg width="24px" height="24px" viewBox="0 0 24 24" version="1.1" xmlns="http://www.w3.org/2000/svg" xmlns:xlink="http://www.w3.org/1999/xlink">
    <title>Icon/Fill/office-fill</title>
    <g id="Icon/Fill/office-fill" stroke="none" stroke-width="1" fill="none" fill-rule="evenodd">
        <g id="Group" transform="translate(1.000000, 0.000000)" fill="#474747" fill-rule="nonzero">
            <path d="M13.51,10.6666667 L11.8166667,10.6666667 L11.8166667,11.26 L12.6666667,11.26 L12.6666667,12.0266667 L11.8166667,12.0266667 L11.8166667,16.16 L13.51,16.16 L13.51,10.6666667 Z M13.0466667,15.6666667 L12.28,15.6666667 L12.28,13.6233333 L13.0466667,13.6233333 L13.0466667,15.6666667 Z" id="Shape"></path>
            <path d="M21.4966667,23 L21.4966667,0 L16.1366667,0 L16.1366667,23.3333333 L15.2966667,23.3333333 L15.2966667,0 L1.17,0 L1.17,23 L0,23 L0,24 L22.6666667,24 L22.6666667,23 L21.4966667,23 Z M14.21,16.8466667 L11.1166667,16.8466667 L11.1166667,12.02 L9.7,12.02 L9.7,11.2533333 L11.1166667,11.2533333 L11.1166667,9.95333333 L14.21,9.95333333 L14.21,16.8466667 Z" id="Shape"></path>
        </g>
    </g>
</svg>