<?xml version="1.0" encoding="UTF-8"?>
<svg width="24px" height="24px" viewBox="0 0 24 24" version="1.1" xmlns="http://www.w3.org/2000/svg" xmlns:xlink="http://www.w3.org/1999/xlink">
    <title>Icon/Fill/oilplatform-fill</title>
    <g id="Icon/Fill/oilplatform-fill" stroke="none" stroke-width="1" fill="none" fill-rule="evenodd">
        <g id="Group" transform="translate(0.000000, 1.000000)" fill="#474747" fill-rule="nonzero">
            <g id="Fill-2">
                <path d="M23.8966236,20.2784494 C23.7498958,20.2217591 23.5964985,20.1483952 23.4164235,20.0616924 C22.7304046,19.6846381 21.9673982,19.4690802 21.185494,19.4314298 C21.0017344,19.4302556 20.8180487,19.4391616 20.6352647,19.4581075 L20.6352647,17.7674031 L23.3697374,17.7674031 L23.3697374,12.968737 L21.9991663,12.968737 L21.9991663,8.27678199 L21.0921217,8.27678199 L21.0921217,5.81242184 L20.7586494,5.81242184 L20.7586494,0 L18.7944977,0 L18.7944977,5.81242184 L18.1275531,5.81242184 L18.1275531,3.16465194 L16.1267195,3.16465194 L16.1267195,5.81242184 L15.7932472,5.81242184 L15.7932472,8.02334306 L14.1058774,2.14756148 L14.0491872,1.93747395 L11.8949562,1.93747395 L10.0741976,8.27344727 L10.0141726,8.27344727 L7.99333055,7.386411 L9.87411421,7.386411 L9.87411421,5.762401 L4.45852439,5.70571071 L4.20175073,5.53230513 C3.59806891,5.11570963 2.77129299,5.26467826 2.35097957,5.86577741 C1.9999357,6.3853924 2.0582296,7.0793674 2.49103793,7.53313881 L2.62442684,7.66986244 L2.62442684,16.3034598 L4.25844102,16.3034598 L4.25844102,9.27386411 L8.62359316,12.968737 L5.76907045,12.968737 L5.76907045,17.7540642 L8.50354314,17.7540642 L8.50354314,20.4818674 L8.21675698,20.4818674 C7.52978883,20.470851 6.85360858,20.3092052 6.23593164,20.0083368 C5.43231632,19.617798 4.55165126,19.411588 3.65819091,19.404752 C2.83745599,19.4002294 2.03081118,19.6180235 1.32388495,20.0350146 C0.958981742,20.2438718 0.558864116,20.384026 0.14339308,20.4485202 L0,20.4685286 L0.0133388912,22.0091705 L24,22.0091705 L24,20.3051271 L23.8966236,20.2784494 Z M8.96040017,11.2746978 L5.39891622,8.0733639 L8.96040017,9.54064193 L8.96040017,11.2746978 Z M11.2380158,19.5781576 C10.8617736,19.6750124 10.4946793,19.8044438 10.140892,19.9649854 L10.140892,17.7540642 L11.2380158,17.7540642 L11.2380158,19.5781576 Z M15.3897457,10.8178408 L15.3897457,12.1517299 L13.7657357,12.1517299 L13.7657357,10.8178408 L15.3897457,10.8178408 Z M12.9720717,5.04210088 L13.8390996,8.02334306 L12.1083785,8.02334306 L12.9720717,5.04210088 Z M16.2567737,20.3818258 C16.054094,20.2953077 15.8559747,20.1984741 15.663193,20.0917049 C14.8097472,19.6508173 13.8626382,19.422047 12.9020425,19.4247603 L12.9020425,17.7573989 L16.2567737,17.7573989 L16.2567737,20.3818258 Z M17.6873697,12.1583993 L16.0633597,12.1583993 L16.0633597,10.8245102 L17.6873697,10.8245102 L17.6873697,12.1583993 Z M18.9979158,19.9483118 L18.8678616,20.0150063 L18.8245102,20.0383493 C18.5341726,20.2025196 18.2236417,20.3280772 17.900792,20.4118383 L17.900792,17.7607336 L18.9979158,17.7607336 L18.9979158,19.9483118 Z M19.9983326,12.1317216 L18.357649,12.1317216 L18.357649,10.7978324 L19.9983326,10.7978324 L19.9983326,12.1317216 Z" id="Shape"></path>
            </g>
        </g>
    </g>
</svg>