<?xml version="1.0" encoding="UTF-8"?>
<svg width="24px" height="24px" viewBox="0 0 24 24" version="1.1" xmlns="http://www.w3.org/2000/svg" xmlns:xlink="http://www.w3.org/1999/xlink">
    <title>Icon/Fill/oilpipeline-fill</title>
    <g id="Icon/Fill/oilpipeline-fill" stroke="none" stroke-width="1" fill="none" fill-rule="evenodd">
        <g id="Group" transform="translate(0.000000, 1.000000)" fill="#474747" fill-rule="nonzero">
            <path d="M24,5.96090408 L24,0.0075603751 L16.8199875,0.0075603751 C16.3466533,0.0075603751 15.9533193,-0.0757731034 15.5199852,0.310894237 C15.213318,0.580894707 7.87997191,6.49423834 4.26329895,9.40757675 C6.23448028,8.97161882 8.29776083,9.41776144 9.91273619,10.6291531 C11.5277115,11.8405448 12.5334914,13.6965018 12.6666469,15.7109211 L17.7166557,5.96090408 L24,5.96090408 Z" id="Path"></path>
            <path d="M11.5266604,16.220922 C11.5137706,19.4008594 8.92776088,21.9694852 5.74780893,21.9609324 C2.56785698,21.9523368 -0.00426346014,19.3698029 5.30574206e-06,16.1898423 C0.00428470955,13.0098816 2.58333805,10.4342452 5.76330156,10.4342452 C7.29506685,10.4368943 8.76299318,11.0481561 9.84392609,12.1334652 C10.924859,13.2187744 11.5301848,14.6891585 11.5266604,16.220922 Z M5.76330156,13.167554 C4.52714233,13.1621852 3.40969867,13.9026749 2.9328959,15.0431915 C2.45609313,16.183708 2.71402243,17.4991843 3.58621255,18.3751998 C4.45840267,19.2512153 5.77273759,19.5148991 6.91532983,19.0430922 C8.05792207,18.5712853 8.80331418,17.457093 8.80331418,16.220922 C8.80507691,15.4128937 8.48578549,14.6372573 7.91567349,14.0646448 C7.34556149,13.4920323 6.5713298,13.1693495 5.76330156,13.167554 L5.76330156,13.167554 Z M5.83330168,12.6909158 C6.16290538,12.6640307 6.44376078,12.4410244 6.54464625,12.1260903 C6.64553173,11.8111561 6.54653079,11.4664673 6.2938988,11.2530698 C6.04126681,11.0396724 5.68487753,10.9996944 5.39124363,11.1518146 C5.09760973,11.3039347 4.92469945,11.6181219 4.95330015,11.9475812 C4.99216459,12.3952712 5.38541536,12.727449 5.83330168,12.6909158 Z M5.76330156,19.7475879 C5.43269016,19.7462453 5.13388184,19.9443623 5.00642619,20.2494209 C4.87897054,20.5544795 4.94801602,20.9062884 5.18131696,21.1405455 C5.41461791,21.3748026 5.76614141,21.4452863 6.07171879,21.3190794 C6.37729617,21.1928725 6.57663631,20.894877 6.57663631,20.5642629 C6.57663631,20.1145281 6.2130326,19.7494304 5.76330156,19.7475879 Z M0.623292605,16.220922 C0.625131775,16.6696758 0.990084515,17.0321452 1.43884048,17.0309234 C1.88759644,17.0296955 2.25056507,16.6652393 2.24995529,16.2164821 C2.24934398,15.7677248 1.88538499,15.4042539 1.43662735,15.4042539 C0.986896319,15.4060895 0.623292605,15.7711872 0.623292605,16.220922 Z M9.28997437,16.220922 C9.29181907,16.6701088 9.65745103,17.0327519 10.1066379,17.0309167 C10.5558247,17.0290675 10.9184699,16.6634376 10.9166372,16.2142508 C10.9147905,15.7650639 10.5491626,15.4024167 10.0999758,15.4042539 C9.88195945,15.4015712 9.67199469,15.4865349 9.51719676,15.6400794 C9.36239882,15.793624 9.27573093,16.002891 9.27663392,16.220922 L9.28997437,16.220922 Z M2.14329525,12.5542489 C1.82725646,12.8737429 1.82725646,13.3880902 2.14329525,13.7075842 C2.29537867,13.8608662 2.5023687,13.9470805 2.71829625,13.9470805 C2.93422381,13.9470805 3.14121384,13.8608662 3.29329726,13.7075842 C3.61178201,13.39002 3.61252819,12.8744003 3.29496391,12.5559156 C2.97739963,12.2374308 2.46178002,12.2366846 2.14329525,12.5542489 L2.14329525,12.5542489 Z M8.24663922,18.7142596 C7.93060042,19.0337537 7.93060042,19.548101 8.24663922,19.867595 C8.39872264,20.0208769 8.60571266,20.1070912 8.82164022,20.1070912 C9.03756778,20.1070912 9.2445578,20.0208769 9.39664122,19.867595 C9.71268002,19.548101 9.71268002,19.0337537 9.39664122,18.7142596 C9.2445578,18.5609777 9.03756778,18.4747634 8.82164022,18.4747634 C8.60571266,18.4747634 8.39872264,18.5609777 8.24663922,18.7142596 Z M2.1299619,19.867595 C2.28204532,20.0208769 2.48903534,20.1070912 2.7049629,20.1070912 C2.92089046,20.1070912 3.12788048,20.0208769 3.2799639,19.867595 C3.5960027,19.548101 3.5960027,19.0337537 3.2799639,18.7142596 C3.12788048,18.5609777 2.92089046,18.4747634 2.7049629,18.4747634 C2.48903534,18.4747634 2.28204532,18.5609777 2.1299619,18.7142596 C1.8139231,19.0337537 1.8139231,19.548101 2.1299619,19.867595 L2.1299619,19.867595 Z M8.24663922,13.7242509 C8.39872264,13.8775328 8.60571266,13.9637472 8.82164022,13.9637472 C9.03756778,13.9637472 9.2445578,13.8775328 9.39664122,13.7242509 C9.6293199,13.4916641 9.69896421,13.1418091 9.57309426,12.8378473 C9.44722431,12.5338856 9.15063264,12.3356882 8.82164022,12.3356882 C8.49264781,12.3356882 8.19605613,12.5338856 8.07018618,12.8378473 C7.94431623,13.1418091 8.01396055,13.4916641 8.24663922,13.7242509 L8.24663922,13.7242509 Z" id="Shape"></path>
        </g>
    </g>
</svg>