<?xml version="1.0" encoding="UTF-8"?>
<svg width="24px" height="24px" viewBox="0 0 24 24" version="1.1" xmlns="http://www.w3.org/2000/svg" xmlns:xlink="http://www.w3.org/1999/xlink">
    <title>Icon/Fill/oiltank-fill</title>
    <g id="Icon/Fill/oiltank-fill" stroke="none" stroke-width="1" fill="none" fill-rule="evenodd">
        <g id="Group" transform="translate(3.000000, 0.000000)" fill="#474747" fill-rule="nonzero">
            <g id="Fill-2">
                <path d="M3.32,20.5033333 L3.32,2.62666667 C1.47044938,2.91138257 0.0800554744,4.46370991 0,6.33333333 L0.0666666667,24 L3.32,24 L3.32,20.5033333 Z M4.60666667,21.8066667 L8.63666667,21.8066667 L8.63666667,23.9733333 L4.60666667,23.9733333 L4.60666667,21.8066667 Z M4.60666667,2.55 L8.63666667,2.55 L8.63666667,4.88 L4.60666667,4.88 L4.60666667,2.55 Z M19,6.29 C18.9279254,4.65520265 17.8345709,3.24278618 16.27,2.76333333 L16.27,1.27666667 C16.2718558,0.57601162 15.7073026,0.00550008823 15.0066667,0 L11.2166667,0 C10.5147266,0.00367269891 9.94815283,0.574719397 9.95,1.27666667 L9.95,1.27666667 L9.95,2.54333333 L9.92,2.54333333 L9.92,23.9733333 L18.9366667,23.9733333 L19,6.29 Z M4.60666667,10.1033333 L8.63666667,10.1033333 L8.63666667,12.72 L4.60666667,12.72 L4.60666667,10.1033333 Z M4.60666667,6.18333333 L8.63666667,6.18333333 L8.63666667,8.8 L4.60666667,8.8 L4.60666667,6.18333333 Z M4.60666667,14.02 L8.63666667,14.02 L8.63666667,16.6166667 L4.60666667,16.6166667 L4.60666667,14.02 Z M4.60666667,17.9233333 L8.63666667,17.9233333 L8.63666667,20.5 L4.60666667,20.5 L4.60666667,17.9233333 Z" id="Combined-Shape"></path>
            </g>
        </g>
    </g>
</svg>