<?xml version="1.0" encoding="UTF-8"?>
<svg width="24px" height="24px" viewBox="0 0 24 24" version="1.1" xmlns="http://www.w3.org/2000/svg" xmlns:xlink="http://www.w3.org/1999/xlink">
    <title>Icon/Fill/open-in-new-fill</title>
    <g id="Icon/Fill/open-in-new-fill" stroke="none" stroke-width="1" fill="none" fill-rule="evenodd">
        <g id="Group" transform="translate(-0.000000, -0.000000)" fill="#474747" fill-rule="nonzero">
            <g id="open-in-new-fill">
                <path d="M21,12 L24,12 L24,22.5 C24,23.3284272 23.3284272,24 22.5,24 L1.5,24 C0.671572878,24 1.77635684e-15,23.3284272 1.77635684e-15,22.5 L1.77635684e-15,1.5 C1.77635684e-15,0.671572878 0.671572878,0 1.5,0 L12,0 L12,3 L3,3 L3,21 L21,21 L21,12 Z M21.0000001,5.12132036 L12,14.1213204 L9.87867972,12 L18.8786797,3 L16.5000001,3 C15.6715729,3 15.0000001,2.32842713 15.0000001,1.5 C15.0000001,0.671572878 15.6715729,1.24344979e-14 16.5000001,1.24344979e-14 L24.0000001,1.24344979e-14 L24.0000001,3 L24.0000001,8.25000003 C24.0000001,9.07842716 23.3284272,9.75000004 22.5000001,9.75000004 C21.671573,9.75000004 21.0000001,9.07842716 21.0000001,8.25000003 L21.0000001,5.12132036 Z" id="Combined-Shape"></path>
            </g>
        </g>
    </g>
</svg>