<?xml version="1.0" encoding="UTF-8"?>
<svg width="24px" height="24px" viewBox="0 0 24 24" version="1.1" xmlns="http://www.w3.org/2000/svg" xmlns:xlink="http://www.w3.org/1999/xlink">
    <title>Icon/Fill/open-in-new-window-fill</title>
    <g id="Icon/Fill/open-in-new-window-fill" stroke="none" stroke-width="1" fill="none" fill-rule="evenodd">
        <g id="Group" fill="#474747" fill-rule="nonzero">
            <path d="M23.9999993,0 L23.9999993,17.0966656 C24.0005357,17.7203782 23.6985927,18.3056258 23.1899986,18.6666656 C22.8668179,18.8999254 22.4785652,19.0258452 22.0799987,19.0266655 L6.96999958,19.0266655 C6.5702941,19.0266655 6.18077076,18.9005903 5.85666632,18.6666656 C5.35285716,18.3033675 5.0530651,17.7211268 5.04994207,17.099999 L5.04994207,17.099999 L5.04994207,1.92666655 L5.04994207,1.92666655 C5.04684843,1.52336871 5.17301752,1.12967442 5.40999968,0.803333285 C5.53331009,0.631647336 5.68558638,0.482754965 5.85999965,0.363333312 C6.18329198,0.129893241 6.57124683,0.00290501722 6.96999958,0 L23.9999993,0 Z M4.58333306,19.8699988 C4.08244145,19.5041968 3.7834648,18.9235397 3.77666644,18.3033322 L3.77666644,4.66666639 L1.91999989,4.66666639 C1.52143339,4.66748676 1.13318068,4.79340655 0.809999952,5.02666637 C0.636604889,5.14617942 0.485440154,5.29508797 0.363333312,5.46666634 C0.128831921,5.79067912 0.00176682983,6.18003453 0,6.57999961 L0,22.073332 C0.00521213121,22.693932 0.304534081,23.2752598 0.806666619,23.6399986 C1.1310794,23.8733141 1.52040113,23.9992026 1.91999989,23.9999986 L17.349999,23.9999986 C17.7486731,23.9999986 18.137129,23.8738706 18.4599989,23.6399986 C18.9676334,23.27964 19.2694561,22.6958678 19.2699989,22.073332 L19.2699989,20.2299988 L5.69666633,20.2299988 C5.29738385,20.2272254 4.90864719,20.1015261 4.58333306,19.8699988 Z M18.9999989,6.58666627 L18.9999989,9.22999945 C18.9999989,9.81542125 19.474577,10.2899994 20.0599988,10.2899994 C20.6454206,10.2899994 21.1199987,9.81542125 21.1199987,9.22999945 L21.1199987,2.95999982 L14.8666658,2.95999982 C14.3034077,2.99157335 13.8628444,3.45752411 13.8628444,4.02166643 C13.8628444,4.58580874 14.3034077,5.0517595 14.8666658,5.08333303 L17.5033323,5.08333303 L12.1466659,10.456666 L13.6466659,11.9599998 L18.9999989,6.58666627 Z" id="Shape"></path>
        </g>
    </g>
</svg>