<svg width="24" height="24" viewBox="0 0 24 24" fill="none" xmlns="http://www.w3.org/2000/svg">
<g clip-path="url(#clip0_15805_63817)">
<path d="M22.7552 14.7917H20.3019V10.8283H13.4185V9.21501H15.5452C16.2319 9.21501 16.7885 8.65835 16.7885 7.97501V1.24168C16.7885 0.558345 16.2319 0.00167847 15.5452 0.00167847H8.44854C7.76187 0.00167847 7.2052 0.558345 7.2052 1.24168V7.97168C7.2052 8.65501 7.76187 9.21168 8.44854 9.21168H10.5952V10.825H3.6952V14.7883H1.24187C0.555202 14.7883 -0.00146484 15.345 -0.00146484 16.0283V22.7583C-0.00146484 23.4417 0.555202 23.9983 1.24187 23.9983H8.67187C9.35854 23.9983 9.9152 23.4417 9.9152 22.7583V16.0283C9.9152 15.345 9.35854 14.7883 8.67187 14.7883H6.1852V13.305H17.8152V14.7883H15.3285C14.6419 14.7883 14.0852 15.345 14.0852 16.0283V22.7583C14.0852 23.4417 14.6419 23.9983 15.3285 23.9983H22.7585C23.4452 23.9983 24.0019 23.4417 24.0019 22.7583V16.0283C24.0019 15.345 23.4452 14.7883 22.7585 14.7883L22.7552 14.7917Z" fill="black"/>
</g>
<defs>
<clipPath id="clip0_15805_63817">
<rect width="24" height="24" fill="white"/>
</clipPath>
</defs>
</svg>
