<svg width="24" height="24" viewBox="0 0 24 24" fill="none" xmlns="http://www.w3.org/2000/svg">
<g clip-path="url(#clip0_15805_63819)">
<path d="M23.9914 12.4776C23.9614 12.2776 23.1848 7.55423 19.5314 5.97423C18.0514 5.33423 16.5181 5.22423 15.2114 5.3209L21.7981 1.6409C21.9648 1.54756 22.0681 1.36756 22.0581 1.17423C22.0514 0.980897 21.9314 0.810897 21.7581 0.73423C21.6014 0.66423 17.8514 -0.97577 15.0181 0.89423C13.4014 1.9609 12.4914 3.5909 12.0081 4.80756C11.5214 3.5909 10.6148 1.9609 8.99809 0.89423C6.16143 -0.979103 2.41476 0.660897 2.25809 0.73423C2.08143 0.81423 1.96476 0.98423 1.95809 1.17423C1.94809 1.36756 2.05143 1.54756 2.21809 1.6409L8.80476 5.3209C7.49476 5.2209 5.95476 5.3309 4.47143 5.97423C0.808092 7.5509 0.0347588 12.2742 0.00475878 12.4776C-0.0252412 12.6676 0.0547588 12.8576 0.211425 12.9676C0.301425 13.0309 0.404759 13.0609 0.508092 13.0609C0.588092 13.0609 0.671425 13.0409 0.744759 13.0042L10.8514 7.7209C10.8848 8.81423 10.8714 11.0909 10.4748 14.6142C9.90143 19.6842 7.39143 23.1542 7.36809 23.1909C7.25476 23.3442 7.23809 23.5509 7.32476 23.7209C7.41143 23.8909 7.58809 24.0009 7.78143 24.0009H12.6648C12.8681 24.0009 13.0548 23.8809 13.1348 23.6909C13.1748 23.6009 14.0881 21.4276 14.3181 16.8742C14.4814 13.6842 13.8681 9.9209 13.4748 7.8909L23.2548 13.0042C23.3281 13.0442 23.4114 13.0609 23.4914 13.0609C23.5948 13.0609 23.7014 13.0276 23.7881 12.9676C23.9448 12.8576 24.0248 12.6642 23.9948 12.4776H23.9914Z" fill="black"/>
</g>
<defs>
<clipPath id="clip0_15805_63819">
<rect width="24" height="24.0009" fill="white"/>
</clipPath>
</defs>
</svg>
