<?xml version="1.0" encoding="UTF-8"?>
<svg width="24px" height="24px" viewBox="0 0 24 24" version="1.1" xmlns="http://www.w3.org/2000/svg" xmlns:xlink="http://www.w3.org/1999/xlink">
    <title>Icon/Fill/paper-airplane-fill</title>
    <g id="Icon/Fill/paper-airplane-fill" stroke="none" stroke-width="1" fill="none" fill-rule="evenodd">
        <g id="Group" transform="translate(0.000000, 4.000000)" fill="#474747" fill-rule="nonzero">
            <path d="M24,0 C24,0 21.7733333,5.57 20.5733333,8.33333333 C19.3733333,11.0966667 18.18,13.8833333 17.3333333,16.23 L17.2966667,16.3333333 L17.2033333,16.2733333 L11.8333333,12.77 L9.74,11.4 L9.63333333,11.3333333 L9.73333333,11.2566667 C10.8533333,10.43 13.5666667,8.18666667 16.1633333,6.04 L19.1266667,3.63 L19.35,3.46 L19.35,3.46 L21.6033333,1.62333333 L15.3033333,4.54666667 C12.4266667,6.03 9.45,7.54666667 6.53,9.07333333 C6.40450439,9.14745255 6.26234293,9.18872523 6.11666667,9.19333333 C5.97439897,9.18995473 5.83543595,9.14975881 5.71333333,9.07666667 C4.45666667,8.41 3.17666667,7.72 1.93666667,7.07666667 L0.46,6.29666667 C0.413333333,6.27 0.37,6.24 0.306666667,6.19666667 L0.173333333,6.10333333 L0,5.97333333 L0.203333333,5.93 C3.56,5.23333333 7.89666667,4.11 12.0933333,3.02333333 C16.2333333,1.95 24,0 24,0 Z M19.3333333,3.46 L19.3333333,3.46 L19.1166667,3.63666667 L19.3333333,3.46 Z M21.58,1.61666667 C21.1033333,1.97666667 20.2933333,2.61666667 19.3133333,3.43 L19.3133333,3.45333333 L21.58,1.61666667 Z M18.5333333,4.07 L16.1466667,6.04 L19.11,3.63 L18.5333333,4.07 Z M17.42,4.29333333 C14.38,5.91 8.38666667,9.09 7.02,9.80333333 C6.89407694,9.87138892 6.79700056,9.9826716 6.74666667,10.1166667 C6.94,11.3433333 7.16,12.5633333 7.39,13.8533333 L7.5,14.4766667 C7.58,14.2166667 7.65666667,13.96 7.73666667,13.7033333 L7.76333333,13.6133333 C7.97333333,12.9166667 8.19,12.1966667 8.43,11.4966667 C8.5432432,11.1911979 8.74091167,10.9241721 9,10.7266667 C10.2,9.83333333 14.9166667,6.22 17.4366667,4.29333333 L17.42,4.29333333 Z M19.3333333,3.45333333 L19.3333333,3.43 L18.5533333,4.07 L19.13,3.63 L19.3333333,3.45333333 Z M8.73333333,15.0166667 L10.97,13.5 L9.47666667,12.5333333 L8.73333333,15.0166667 Z" id="Shape"></path>
        </g>
    </g>
</svg>