<svg width="24" height="24" viewBox="0 0 24 24" fill="none" xmlns="http://www.w3.org/2000/svg">
<path d="M17.9535 1.93617C17.1945 1.7169 16.4396 1.69083 15.6927 1.86057C14.9432 2.03092 14.2863 2.38957 13.7261 2.93285L4.14694 12.5356L4.13896 12.5444C3.48505 13.2654 3.05657 14.1056 2.85547 15.0608L2.85467 15.065C2.67055 16.0191 2.72961 16.9732 3.02974 17.9236C3.33017 18.875 3.84743 19.7247 4.57734 20.4712L4.58136 20.4751C5.32983 21.2069 6.19742 21.7164 7.18164 22.0002C8.18072 22.2997 9.16865 22.3341 10.1408 22.0999C11.1153 21.881 11.9647 21.4093 12.6849 20.6891L19.3215 14.0526L19.3997 13.9483C19.5399 13.781 19.5945 13.5783 19.573 13.3606C19.5509 13.1206 19.4411 12.9154 19.261 12.7512C19.0872 12.5613 18.8629 12.4624 18.6041 12.4624C18.3503 12.4624 18.1253 12.5496 17.9474 12.7276L11.3302 19.3448L11.1694 19.4825L11.1643 19.4871C10.687 19.9196 10.1295 20.1949 9.48641 20.3146L9.48536 20.3148C8.85502 20.4348 8.21589 20.398 7.56449 20.201C6.91803 20.0056 6.34595 19.6602 5.84621 19.1609C5.34632 18.6454 5.00011 18.0572 4.8041 17.3942C4.60741 16.7129 4.58596 16.0526 4.73564 15.409L4.73592 15.4078C4.88544 14.7499 5.19814 14.1839 5.67691 13.7051L15.2199 4.16215C15.5363 3.90576 15.8936 3.74245 16.2953 3.67059C16.7194 3.5976 17.1343 3.62691 17.5436 3.75848L17.5515 3.76073C17.9529 3.87542 18.315 4.09832 18.6393 4.43733L18.6473 4.44501C18.9846 4.76762 19.2173 5.14631 19.3487 5.58419C19.4803 6.02277 19.4946 6.45808 19.3929 6.89449C19.2916 7.31364 19.0905 7.67245 18.7874 7.97557L9.19715 17.5658L9.09019 17.6514C8.87039 17.8187 8.62199 17.8897 8.33136 17.8634C8.0589 17.8374 7.80746 17.7222 7.57304 17.5035C7.36212 17.2771 7.25246 17.0173 7.23815 16.7149C7.23932 16.3953 7.34403 16.142 7.54892 15.9371L14.3775 9.10856L14.4665 8.98985L14.4721 8.98085C14.5833 8.80303 14.6259 8.60338 14.605 8.39254C14.5834 8.15726 14.4849 7.95155 14.3169 7.78357C14.1414 7.60805 13.9201 7.52074 13.6705 7.5184C13.4147 7.49967 13.1846 7.57833 13.0034 7.75957L6.17934 14.5836L6.05348 14.7346C5.72164 15.1194 5.50998 15.5599 5.42203 16.0524C5.33517 16.5388 5.36142 17.0254 5.49963 17.5091L5.50213 17.5169C5.65864 18.0038 5.92733 18.4443 6.3033 18.8373L6.31133 18.845C6.70591 19.2224 7.15523 19.4913 7.65798 19.6473L7.66772 19.6499C8.18628 19.7882 8.70062 19.7976 9.2068 19.6754C9.71446 19.5528 10.1616 19.307 10.5448 18.9412L20.2987 9.16331L20.3039 9.15738C20.7966 8.5968 21.1131 7.95625 21.2497 7.23913L21.2499 7.23808C21.3854 6.50968 21.3427 5.7812 21.1234 5.056C20.903 4.32701 20.5129 3.68352 19.9569 3.12757C19.3839 2.55453 18.7152 2.15621 17.9535 1.93617Z" fill="#474747"/>
</svg>
