<?xml version="1.0" encoding="UTF-8"?>
<svg width="24px" height="24px" viewBox="0 0 24 24" version="1.1" xmlns="http://www.w3.org/2000/svg" xmlns:xlink="http://www.w3.org/1999/xlink">
    <title>Icon/Fill/parks-outdoors-fill</title>
    <g id="Icon/Fill/parks-outdoors-fill" stroke="none" stroke-width="1" fill="none" fill-rule="evenodd">
        <g id="Group" fill="#474747" fill-rule="nonzero">
            <path d="M20.2241469,5.96559755 L20.2241469,5.63082527 C20.1928091,2.68447668 17.9177785,0.249251497 14.980367,0.0178085302 C12.0429555,-0.213634436 9.41461553,1.83524697 8.92223475,4.74033101 C11.2388589,5.07510329 13.0499769,7.33816389 13.0499769,9.76191519 L13.0499769,9.87239004 C14.8941632,10.5692214 16.1185996,12.3300142 16.1298819,14.3014273 C16.1606716,15.2575029 15.9475342,16.2056765 15.5105532,17.0566031 L15.5105532,17.0566031 L15.5105532,23.4206241 L16.829556,23.4206241 L16.829556,17.0231259 L18.4364629,17.0231259 C21.1789712,16.9613945 23.4871741,14.9520479 23.9261738,12.2441998 C24.3651734,9.53635162 22.8100273,6.90067425 20.2274946,5.97564072 L20.2241469,5.96559755 Z M11.8749262,10.270769 L11.8749262,10.1636419 C11.8085555,7.73475231 9.82044782,5.80022873 7.39065157,5.80022873 C4.96085532,5.80022873 2.97274769,7.73475231 2.9063769,10.1636419 L2.9063769,10.270769 C0.920526564,11.0121746 -0.271335469,13.0465939 0.0529349596,15.1413808 C0.377205388,17.2361678 2.12839525,18.8150063 4.24546602,18.9212847 L4.28898641,18.9212847 C4.41611182,18.9279786 4.5435014,18.9279786 4.67062681,18.9212847 L6.6524787,18.9212847 L6.6524787,23.4875786 L8.07526088,23.4875786 L8.07526088,18.9212847 L10.3048443,18.9212847 C12.4698359,18.9276786 14.3280766,17.3813773 14.7152188,15.2512716 C15.102361,13.1211659 13.9070597,11.0198898 11.878274,10.2640736 L11.8749262,10.270769 Z" id="Shape"></path>
        </g>
    </g>
</svg>