<?xml version="1.0" encoding="UTF-8"?>
<svg width="24px" height="24px" viewBox="0 0 24 24" version="1.1" xmlns="http://www.w3.org/2000/svg" xmlns:xlink="http://www.w3.org/1999/xlink">
    <title>Icon/Fill/particulates-fill</title>
    <g id="Icon/Fill/particulates-fill" stroke="none" stroke-width="1" fill="none" fill-rule="evenodd">
        <g id="Group" transform="translate(0.000000, 1.000000)" fill="#474747" fill-rule="nonzero">
            <path d="M5.88001549,11.1032969 C5.88811421,9.91269598 5.17732554,8.83475699 4.07980046,8.37319997 C2.98227539,7.91164295 1.71472844,8.15760579 0.86948328,8.99615025 C0.0242381236,9.83469471 -0.231805255,11.1002439 0.221002008,12.2014077 C0.673809271,13.3025716 1.74605699,14.021917 2.93668468,14.0233023 L2.93668468,14.0233023 C4.55467282,14.0269935 5.87083702,12.7212632 5.88001549,11.1032969 Z M14.936722,11.1032969 C14.943424,9.91403373 14.2322241,8.83811488 13.1354195,8.37831906 C12.0386149,7.91852323 10.7727795,8.16564117 9.92944012,9.00419424 C9.08610079,9.84274731 8.83178239,11.1071558 9.28532833,12.2065595 C9.73887427,13.3059633 10.8107279,14.0233116 12.0000103,14.0233116 C12.7767871,14.0259506 13.5227561,13.7196943 14.0735843,13.1719922 C14.6244126,12.6242901 14.9349095,11.8800763 14.936722,11.1032969 Z M21.0600025,8.1799583 C19.447693,8.18915842 18.1472399,9.50202062 18.1533379,11.1143447 C18.1594789,12.7266688 19.4698603,14.0296217 21.0821931,14.0265804 C22.6945259,14.0235284 24,12.7156326 24,11.1032969 L24,11.1032969 C23.9944858,9.48456441 22.6787402,8.17627773 21.0600025,8.1799583 L21.0600025,8.1799583 Z M7.0400145,16.5132923 C5.42727151,16.5224881 4.12664284,17.8360281 4.13335162,19.4487832 C4.14011247,21.0615384 5.45166618,22.36417 7.06442973,22.3599067 C8.67719328,22.3556224 9.98182473,21.046058 9.98001387,19.4332898 L9.98001387,19.4332898 C9.96901922,17.8173899 8.65595176,16.5132923 7.0400145,16.5132923 Z M16.0966734,16.5132751 C14.4839304,16.5224881 13.1833018,17.8360281 13.1900105,19.4487832 C13.1967714,21.0615384 14.5083251,22.36417 16.1210887,22.3599067 C17.7338522,22.3556224 19.0384837,21.046058 19.0366728,19.4332898 L19.0366728,19.4332898 C19.0340233,18.6562047 18.7227859,17.9119993 18.1714284,17.3643926 C17.620071,16.8167859 16.8737584,16.5106356 16.0966734,16.5132751 L16.0966734,16.5132751 Z M7.0400145,5.84664255 C8.6527575,5.83743892 9.95338616,4.52389896 9.94667738,2.9111438 C9.93991653,1.29838865 8.62836283,-0.00424292113 7.01559928,2.03761209e-05 C5.40283572,0.004304646 4.09820427,1.31386905 4.10001513,2.92663724 L4.10001513,2.92663724 C4.10736483,4.54406633 5.42257293,5.85032745 7.0400145,5.84664255 Z M16.0966734,5.8466367 C17.7094283,5.83927889 19.0115558,4.5272198 19.0066712,2.91445555 C19.0017591,1.30169131 17.6916858,-0.00243394515 16.0789159,3.41092501e-06 C14.4661461,0.00244760799 13.1600093,1.31053222 13.1600093,2.92330391 L13.1600093,2.92330391 C13.1655222,4.54073291 14.4792361,5.84848214 16.0966734,5.8466367 L16.0966734,5.8466367 Z" id="Shape"></path>
        </g>
    </g>
</svg>