<?xml version="1.0" encoding="UTF-8"?>
<svg width="24px" height="24px" viewBox="0 0 24 24" version="1.1" xmlns="http://www.w3.org/2000/svg" xmlns:xlink="http://www.w3.org/1999/xlink">
    <title>Icon/Fill/partnership-fill</title>
    <g id="Icon/Fill/partership-fill" stroke="none" stroke-width="1" fill="none" fill-rule="evenodd">
        <g id="Group" transform="translate(-0.000000, -0.000000)" fill="#474747" fill-rule="nonzero">
            <g id="partership-fill" transform="translate(0.000000, 1.500000)">
                <path d="M11.25,11.6230182 L11.25,21 L0,21 L0,11.9947929 L0.41029412,11.7779243 C2.15197116,10.9153893 4.06015016,10.4785539 5.98897061,10.5008097 C7.79917916,10.4837862 9.59228554,10.8662664 11.25,11.6230182 Z M18.0000001,7.5 C15.9303099,7.49667791 14.2533222,5.8196902 14.2500001,3.75000002 C14.2500001,1.67893219 15.9289323,0 18.0000001,0 C20.0710679,0 21.7500001,1.67893219 21.7500001,3.75000002 C21.7500001,5.82106784 20.0710679,7.5 18.0000001,7.5 Z M5.25000002,7.5 C3.17962169,7.49833638 1.50166363,5.82037835 1.50000001,3.75000002 C1.50000001,1.67893219 3.1789322,0 5.25000002,0 C7.32106784,0 9.00000001,1.67893219 9.00000001,3.75000002 C9.00000001,5.82106784 7.32106784,7.5 5.25000002,7.5 Z M12.7500001,21 L12.7500001,11.6230182 C14.4077146,10.8662664 16.2008209,10.4837862 18.0110295,10.5008097 C19.93985,10.4785539 21.8480289,10.9153893 23.589706,11.7779243 L24.0000001,11.9947929 L24.0000001,21 L12.7500001,21 Z" id="Combined-Shape"></path>
            </g>
        </g>
    </g>
</svg>