<?xml version="1.0" encoding="UTF-8"?>
<svg width="24px" height="24px" viewBox="0 0 24 24" version="1.1" xmlns="http://www.w3.org/2000/svg" xmlns:xlink="http://www.w3.org/1999/xlink">
    <title>Icon/Fill/payment-fill</title>
    <g id="Icon/Fill/payment-fill" stroke="none" stroke-width="1" fill="none" fill-rule="evenodd">
        <g id="Group" transform="translate(2.000000, 0.000000)" fill="#474747" fill-rule="nonzero">
            <path d="M21,3 L21,6.75 L0,6.75 L0,3 L3,3 L3,0 L6,0 L6,3 L15,3 L15,0 L18,0 L18,3 L21,3 Z M0,9.75 L21,9.75 L21,22.5 C20.9981668,23.3276666 20.3276666,23.9981668 19.5,24 L1.5,24 C0.672333382,23.9981668 0.00183315539,23.3276666 0,22.5 L0,9.75 Z M13.6233333,18.1433333 C13.6439328,17.5602314 13.4453244,16.9905703 13.0666667,16.5466667 C12.7066667,16.1466667 12.04,15.8166667 11.0866667,15.5466667 L11.0866667,13.4733333 C11.3838179,13.6428795 11.5875089,13.9385995 11.64,14.2766667 L11.64,14.3466667 L13.37,14.1333333 L13.37,14.0566667 C13.2835482,13.5043594 13.0120504,12.9977985 12.6,12.62 C12.1710175,12.2599505 11.6438144,12.0369923 11.0866667,11.98 L11.0866667,10.8566667 L9.92,10.8566667 L9.92,12 C9.31001663,12.0594791 8.73856002,12.3252182 8.3,12.7533333 C7.85889711,13.1941393 7.6179181,13.7965868 7.63333333,14.42 C7.61608332,15.028406 7.82377481,15.6218103 8.21666667,16.0866667 C8.67695861,16.5697737 9.26747355,16.9090304 9.91666667,17.0633333 L9.91666667,19.3 C9.51501025,19.0311007 9.24330667,18.6072431 9.16666667,18.13 L9.16666667,18.0633333 L7.39,18.24 L7.39,18.32 C7.47271996,19.0076638 7.78238585,19.6481092 8.27,20.14 C8.73499839,20.5557698 9.31709992,20.8177155 9.93666667,20.89 L9.93666667,21.9766667 L11.1033333,21.9766667 L11.1033333,20.8666667 C11.7987394,20.7843953 12.445955,20.4695971 12.94,19.9733333 C13.3994491,19.4768567 13.6449337,18.8194369 13.6233333,18.1433333 L13.6233333,18.1433333 Z M9.53333333,14.86 C9.41372913,14.7078196 9.34806854,14.5202179 9.34666667,14.3266667 C9.3474726,14.1180281 9.41917195,13.9158594 9.55,13.7533333 C9.64904185,13.6283104 9.77568093,13.5279119 9.92,13.46 L9.92,15.17 C9.7701126,15.0959971 9.63816006,14.9902076 9.53333333,14.86 L9.53333333,14.86 Z M11.9433333,18.3533333 C11.9463458,18.6172356 11.8485913,18.8723509 11.67,19.0666667 C11.5117261,19.2316514 11.3091618,19.3474024 11.0866667,19.4 L11.0866667,17.3566667" id="Shape"></path>
        </g>
    </g>
</svg>