<?xml version="1.0" encoding="UTF-8"?>
<svg width="24px" height="24px" viewBox="0 0 24 24" version="1.1" xmlns="http://www.w3.org/2000/svg" xmlns:xlink="http://www.w3.org/1999/xlink">
    <title>Icon/Fill/pdf-fill</title>
    <g id="Icon/Fill/pdf-fill" stroke="none" stroke-width="1" fill="none" fill-rule="evenodd">
        <g id="Group" transform="translate(-0.000000, -0.000000)" fill="#474747" fill-rule="nonzero">
            <g id="pdf" transform="translate(0.000000, 3.000000)">
                <path d="M0,0 L22.5,0 C23.3280001,0 24,0.672000003 24,1.5 L24,18 L0,18 L0,0 Z M4.68205697,10.1796017 L5.76693395,10.1796017 C6.62621389,10.1796017 7.30798756,9.95381412 7.81227543,9.50223221 C8.31656321,9.05065024 8.56870339,8.45570426 8.56870339,7.71737643 C8.56870339,6.97904853 8.31656321,6.38324403 7.81227543,5.92994507 C7.30798756,5.47664612 6.62621389,5.25000002 5.76693395,5.25000002 L3.00000001,5.25000002 L3.00000001,12.75 L4.68205697,12.75 L4.68205697,10.1796017 Z M4.68205697,8.84031596 L4.68205697,6.58928575 L5.76693395,6.58928575 C6.13519678,6.58928575 6.4147074,6.69574075 6.60547418,6.9086539 C6.79624096,7.12156705 6.89162292,7.39457253 6.89162292,7.72767858 C6.89162292,8.05391651 6.79541155,8.32091246 6.60298593,8.52867446 C6.4105603,8.73643654 6.1318791,8.84031596 5.76693395,8.84031596 L4.68205697,8.84031596 Z M9.49930886,12.75 L12.1517833,12.75 C13.0044279,12.75 13.7177191,12.4632584 14.2916782,11.8897665 C14.8656374,11.3162746 15.1526127,10.5779578 15.1526127,9.67479402 L15.1526127,8.32520606 C15.1526127,7.42547628 14.8656374,6.688018 14.2916782,6.1128091 C13.7177191,5.5376002 13.0044279,5.25000002 12.1517833,5.25000002 L9.49930886,5.25000002 L9.49930886,12.75 Z M11.1813658,6.58928575 L12.1517833,6.58928575 C12.5333169,6.58928575 12.8476627,6.75068523 13.09483,7.07348905 C13.3419974,7.39629288 13.4655793,7.81009368 13.4655793,8.31490391 L13.4655793,9.67479402 C13.4655793,10.1864724 13.3419974,10.6037072 13.09483,10.926511 C12.8476627,11.2493148 12.5333169,11.4107143 12.1517833,11.4107143 L11.1813658,11.4107143 L11.1813658,6.58928575 Z M20.4923971,9.73145607 L20.4923971,8.39217033 L17.8399227,8.39217033 L17.8399227,6.58928575 L21.0000001,6.58928575 L21.0000001,5.25000002 L16.1578657,5.25000002 L16.1578657,12.75 L17.8399227,12.75 L17.8399227,9.73145607 L20.4923971,9.73145607 Z" id="Combined-Shape"></path>
            </g>
        </g>
    </g>
</svg>