<svg width="24" height="24" viewBox="0 0 24 24" fill="none" xmlns="http://www.w3.org/2000/svg">
<g clip-path="url(#clip0_15805_63824)">
<path d="M12 0C18.6 0 24 5.4 24 12C24 18.6 18.6 24 12 24C5.4 24 0 18.6 0 12C0 5.4 5.4 0 12 0ZM17.6267 14.25C17.0267 14.25 16.5 14.7733 16.5 15.3767C16.5 15.98 17.0233 16.5033 17.6267 16.5033C18.23 16.5033 18.7533 15.98 18.7533 15.3767C18.7533 14.7733 18.23 14.25 17.6267 14.25ZM12.5033 7.35L7.50333 12.6433L5.50333 10.5267L3.75333 12.38L7.50333 16.35L14.2533 9.20333L12.5033 7.35ZM18.7533 7.5H16.5033V12.75H18.7533V7.5Z" fill="black"/>
</g>
<defs>
<clipPath id="clip0_15805_63824">
<rect width="24" height="24" fill="white"/>
</clipPath>
</defs>
</svg>
