<?xml version="1.0" encoding="UTF-8"?>
<svg width="24px" height="24px" viewBox="0 0 24 24" version="1.1" xmlns="http://www.w3.org/2000/svg" xmlns:xlink="http://www.w3.org/1999/xlink">
    <title>Icon/Fill/physician-fill</title>
    <g id="Icon/Fill/physician-fill" stroke="none" stroke-width="1" fill="none" fill-rule="evenodd">
        <g id="Group" transform="translate(-0.000000, -0.000000)" fill="#474747" fill-rule="nonzero">
            <g id="physician">
                <path d="M11.8109738,18 C11.1449096,20.5878409 8.79575921,22.5 6,22.5 C2.68629151,22.5 0,19.8137086 0,16.5 C0,13.1862916 2.68629151,10.5 6,10.5 C8.79575921,10.5 11.1449096,12.4121593 11.8109738,15 L15,15 L15,11.0827377 C11.994017,10.4006439 9.75000004,7.71238113 9.75000004,4.5 L9.75000004,0 L14.2500001,0 C15.0784272,0 15.7500001,0.671572878 15.7500001,1.5 C15.7500001,2.32842713 15.0784272,3 14.2500001,3 L12.7500001,3 L12.7500001,4.5 C12.7500001,6.57106784 14.4289323,8.25000003 16.5,8.25000003 C18.5710679,8.25000003 20.2500001,6.57106784 20.2500001,4.5 L20.2500001,3 L18.7500001,3 C17.9215729,3 17.2500001,2.32842713 17.2500001,1.5 C17.2500001,0.671572878 17.9215729,0 18.7500001,0 L23.2500001,0 L23.2500001,4.5 C23.2500001,7.71238113 21.0059831,10.4006439 18,11.0827377 L18,15 L19.5,15 C21.9852815,15 24,17.0147187 24,19.5 C24,21.9852815 21.9852815,24 19.5,24 C17.0147187,24 15,21.9852815 15,19.5 L15,18 L11.8109738,18 Z M18.0000001,18.0000001 L18.0000001,19.5000001 C18.0000001,20.3284272 18.671573,21.0000001 19.5000001,21.0000001 C20.3284272,21.0000001 21.0000001,20.3284272 21.0000001,19.5000001 C21.0000001,18.671573 20.3284272,18.0000001 19.5000001,18.0000001 L18.0000001,18.0000001 Z M6.00000001,19.5000001 C7.65685428,19.5000001 9.00000001,18.1568543 9.00000001,16.5000001 C9.00000001,14.8431458 7.65685428,13.5000001 6.00000001,13.5000001 C4.34314577,13.5000001 3.00000001,14.8431458 3.00000001,16.5000001 C3.00000001,18.1568543 4.34314577,19.5000001 6.00000001,19.5000001 Z M6.00000002,18.0000001 C5.1715729,18.0000001 4.50000002,17.3284272 4.50000002,16.5000001 C4.50000002,15.6715729 5.1715729,15.0000001 6.00000002,15.0000001 C6.82842715,15.0000001 7.50000002,15.6715729 7.50000002,16.5000001 C7.50000002,17.3284272 6.82842715,18.0000001 6.00000002,18.0000001 Z" id="Combined-Shape"></path>
            </g>
        </g>
    </g>
</svg>