<svg width="24" height="24" viewBox="0 0 24 24" fill="none" xmlns="http://www.w3.org/2000/svg">
<path d="M12.1935 20.8225C12.1135 20.9408 12.0479 21 11.9967 21C11.945 21 11.8804 20.9408 11.8029 20.8225C11.7253 20.7042 11.6464 20.543 11.5662 20.3389C11.486 20.1348 11.4185 19.9051 11.3638 19.6497C11.3091 19.3943 11.2818 19.1246 11.2818 18.8407V15.2538H7.16195C6.80668 15.2538 6.5242 15.1506 6.31452 14.9442C6.10484 14.7378 6 14.4672 6 14.1324C6 13.5632 6.14928 13.0081 6.44784 12.467C6.74641 11.926 7.16608 11.4387 7.70688 11.0053C8.1703 10.6339 8.7028 10.3274 9.30437 10.086L9.55517 6.48556C9.22823 6.2728 8.915 6.05449 8.61547 5.83063C8.31593 5.60676 8.04944 5.39013 7.81598 5.18075C7.58251 4.97136 7.40102 4.78125 7.27149 4.61043C7.06658 4.35575 6.96412 4.0998 6.96412 3.8426C6.96412 3.60105 7.0498 3.40023 7.22115 3.24014C7.3925 3.08005 7.61783 3 7.89712 3H16.0955C16.3748 3 16.6002 3.08005 16.7715 3.24014C16.9429 3.40023 17.0285 3.60105 17.0285 3.8426C17.0285 4.0998 16.9285 4.35575 16.7285 4.61043C16.599 4.78125 16.4175 4.97136 16.184 5.18075C15.9506 5.39013 15.6841 5.60676 15.3845 5.83063C15.085 6.05449 14.772 6.2728 14.4456 6.48556L14.6958 10.0869C15.2983 10.3282 15.8309 10.6344 16.2935 11.0053C16.834 11.4387 17.2536 11.926 17.5522 12.467C17.8507 13.0081 18 13.5632 18 14.1324C18 14.4672 17.8939 14.7378 17.6818 14.9442C17.4697 15.1506 17.1884 15.2538 16.838 15.2538H12.7182V18.8407C12.7182 19.1246 12.691 19.3943 12.6366 19.6497C12.5821 19.9051 12.5147 20.1348 12.4342 20.3389C12.3537 20.543 12.2735 20.7042 12.1935 20.8225Z" fill="#474747"/>
</svg>
