<svg width="24" height="24" viewBox="0 0 24 24" fill="none" xmlns="http://www.w3.org/2000/svg">
<path d="M12.258 23.7633C12.1513 23.9211 12.0639 24 11.9956 24C11.9267 24 11.8405 23.9211 11.7372 23.7633C11.6338 23.6056 11.5286 23.3906 11.4216 23.1185C11.3146 22.8464 11.2247 22.5401 11.1517 22.1995C11.0788 21.859 11.0424 21.4995 11.0424 21.121V16.3383H5.54927C5.07557 16.3383 4.69894 16.2007 4.41936 15.9255C4.13979 15.6503 4 15.2896 4 14.8433C4 14.0843 4.19904 13.3441 4.59712 12.6227C4.99521 11.9013 5.55478 11.2516 6.27584 10.6737C6.89373 10.1785 7.60373 9.76993 8.40583 9.44798L8.74023 4.64741C8.30431 4.36374 7.88666 4.07266 7.48729 3.77417C7.08791 3.47568 6.73258 3.18684 6.4213 2.90766C6.11002 2.62848 5.86803 2.37501 5.69532 2.14724C5.4221 1.80766 5.28549 1.4664 5.28549 1.12346C5.28549 0.801398 5.39973 0.533638 5.6282 0.320183C5.85667 0.106728 6.1571 0 6.52949 0H17.4607C17.8331 0 18.1335 0.106728 18.362 0.320183C18.5905 0.533638 18.7047 0.801398 18.7047 1.12346C18.7047 1.4664 18.5714 1.80766 18.3047 2.14724C18.132 2.37501 17.89 2.62848 17.5787 2.90766C17.2674 3.18684 16.9121 3.47568 16.5127 3.77417C16.1133 4.07266 15.696 4.36374 15.2608 4.64741L15.5944 9.44925C16.3978 9.771 17.1079 10.1792 17.7247 10.6737C18.4454 11.2516 19.0048 11.9013 19.4029 12.6227C19.801 13.3441 20 14.0843 20 14.8433C20 15.2896 19.8586 15.6503 19.5757 15.9255C19.2929 16.2007 18.9179 16.3383 18.4507 16.3383H12.9576V21.121C12.9576 21.4995 12.9213 21.859 12.8488 22.1995C12.7762 22.5401 12.6862 22.8464 12.5789 23.1185C12.4716 23.3906 12.3646 23.6056 12.258 23.7633Z" fill="#474747"/>
</svg>
