<svg width="24" height="24" viewBox="0 0 24 24" fill="none" xmlns="http://www.w3.org/2000/svg">
<g clip-path="url(#clip0_15805_63830)">
<path d="M23.0257 16.05L13.839 13.18V16.2667H14.7757C15.869 16.2667 16.829 17.08 17.0057 18.1567L17.029 19.2C22.3457 19.73 23.1724 19.7067 23.4624 19.4467L23.519 19.3967L23.5457 19.3267C23.5524 19.3033 23.749 18.78 23.9724 17.6833C24.1157 16.98 23.709 16.2767 23.0257 16.0467V16.05Z" fill="black"/>
<path d="M15.8657 22.15C15.8157 22.1233 15.759 22.0967 15.7024 22.0767L12.9124 21.05V20.5767H12.8824V20.56L14.549 20.36C15.0557 20.31 15.6324 20.1 15.6557 19.5433L15.6324 18.34C15.5457 17.94 15.1857 17.6433 14.779 17.6433H12.9124V12.2033L15.8557 10.2467C15.919 10.2033 15.9757 10.1567 16.0257 10.1033C16.749 9.35666 16.549 8.12999 16.4324 7.39666L16.2424 6.22999H7.99236L7.82236 7.28332C7.70236 8.01666 7.50569 9.24332 8.22902 9.98999C8.27902 10.0433 8.33569 10.09 8.40569 10.1367L11.3424 12.09V17.64H7.78569V16.2667H10.499V12.93C10.3057 12.9267 10.1057 12.9233 9.90902 12.9167C9.10236 12.9 8.29569 12.8867 7.68902 12.8767C7.46569 12.8767 7.27902 12.87 7.11902 12.87C6.65902 12.87 6.34902 12.8833 6.14236 13.0367C5.33569 13.3167 2.40236 14.1967 0.589023 14.73L-0.000976562 14.91V23.8333L7.21236 21.9133L8.23902 21.1233L11.3857 20.7433V20.99L8.59902 22.0167C8.54236 22.0367 8.48569 22.0633 8.43569 22.0933C7.47236 22.6433 7.80236 22.7733 7.91236 23.1467L8.06902 23.6867H16.259L16.4157 23.15C16.519 22.7933 16.8357 22.71 15.869 22.1567L15.8657 22.15Z" fill="black"/>
<path d="M15.399 1.03666C15.3157 0.533323 14.8857 0.166656 14.3757 0.166656H9.89569C9.89569 0.166656 9.88236 0.166656 9.87236 0.166656C9.87236 0.166656 9.86902 0.166656 9.86569 0.166656H9.73902V0.176656C9.02569 0.23999 8.87569 0.756656 8.84569 0.923323L8.23569 4.69332H15.989L15.3957 1.03332L15.399 1.03666Z" fill="black"/>
</g>
<defs>
<clipPath id="clip0_15805_63830">
<rect width="24" height="24" fill="white"/>
</clipPath>
</defs>
</svg>
