<?xml version="1.0" encoding="UTF-8"?>
<svg width="24px" height="24px" viewBox="0 0 24 24" version="1.1" xmlns="http://www.w3.org/2000/svg" xmlns:xlink="http://www.w3.org/1999/xlink">
    <title>Icon/Fill/powerbi-fill</title>
    <g id="Icon/Fill/powerbi-fill" stroke="none" stroke-width="1" fill="none" fill-rule="evenodd">
        <g id="Group" fill="#474747" fill-rule="nonzero">
            <path d="M0,1.5 L0,22.5 C0,23.3284271 0.671572875,24 1.5,24 L22.5,24 C23.3284271,24 24,23.3284271 24,22.5 L24,1.5 C24,0.671572875 23.3284271,0 22.5,0 L1.5,0 C0.671572875,0 0,0.671572875 0,1.5 Z M22.49,1.5 L22.49,22.5 L1.49,22.5 L1.49,1.5 L22.49,1.5 Z M6.74,14.5233333 L2.66666667,14.5233333 L2.66666667,21.17 L6.74,21.17 L6.74,14.5233333 Z M11.6166667,8.77333333 L7.54,8.77333333 L7.54,21.17 L11.6166667,21.17 L11.6166667,8.77333333 Z M16.4966667,12.6566667 L12.4166667,12.6566667 L12.4166667,21.17 L16.4966667,21.17 L16.4966667,12.6566667 Z M21.3766667,5.05 L17.2966667,5.05 L17.2966667,21.17 L21.3766667,21.17 L21.3766667,5.05 Z" id="Shape"></path>
        </g>
    </g>
</svg>