<?xml version="1.0" encoding="UTF-8"?>
<svg width="24px" height="24px" viewBox="0 0 24 24" version="1.1" xmlns="http://www.w3.org/2000/svg" xmlns:xlink="http://www.w3.org/1999/xlink">
    <title>Icon/Fill/power-plant-fill</title>
    <g id="Icon/Fill/power-plant-fill" stroke="none" stroke-width="1" fill="none" fill-rule="evenodd">
        <g id="Group" fill="#474747" fill-rule="nonzero">
            <g id="Fill-2">
                <path d="M20.7266667,7.36333333 L12.1066667,7.36333333 L12.1066667,4.03 L20.7266667,4.03 L20.7266667,7.36333333 Z M9.81,0 L6.90666667,0 L6.51,18.0766667 L10.1766667,18.0766667 L9.81,0 Z M5.75333333,4.30666667 L2.86,4.30666667 L2.23,18.0766667 L6.04666667,18.0766667 L5.75333333,4.30666667 Z M22.1333333,22.4366667 C21.63,19.8466667 21.2066667,17.2833333 20.8733333,14.81 L20.6033333,12.6866667 C20.42,11.2666667 20.27,10.12 20.1633333,8.81666667 L12.31,8.81666667 C12.18,10.37 12.0033333,11.7233333 11.78,13.4233333 L11.6666667,14.3333333 C11.4433333,16.0666667 11.17,17.85 10.86,19.64 L0.966666667,19.64 L0.966666667,22.4433333 L0,22.4433333 L0,24 L24,24 L24,22.4366667 L22.1333333,22.4366667 Z" id="Shape"></path>
            </g>
        </g>
    </g>
</svg>