<?xml version="1.0" encoding="UTF-8"?>
<svg width="24px" height="24px" viewBox="0 0 24 24" version="1.1" xmlns="http://www.w3.org/2000/svg" xmlns:xlink="http://www.w3.org/1999/xlink">
    <title>Icon/Fill/power-button-fill</title>
    <g id="Icon/Fill/power-button-fill" stroke="none" stroke-width="1" fill="none" fill-rule="evenodd">
        <g id="Group" fill="#474747" fill-rule="nonzero">
            <path d="M12,0 C5.372583,0 0,5.372583 0,12 C0,18.627417 5.372583,24 12,24 C18.627417,24 24,18.627417 24,12 C24,8.81740212 22.7357179,5.76515517 20.4852814,3.51471863 C18.2348448,1.26428208 15.1825979,0 12,0 Z M11.2466667,2.35 L12.7466667,2.35 L12.7466667,11.7433333 L11.2466667,11.7433333 L11.2466667,2.35 Z M12,21.5666667 C7.31133935,21.5652566 3.33640331,18.118173 2.67145065,13.4769039 C2.00649799,8.83563484 4.85367768,4.4111496 9.35333333,3.09333333 L9.35333333,3.14666667 L9.35333333,4.66666667 C5.71214507,5.95189011 3.52683456,9.67384168 4.17880696,13.4797559 C4.83077936,17.2856702 8.13031311,20.0680401 11.9916667,20.0680401 C15.8530202,20.0680401 19.152554,17.2856702 19.8045264,13.4797559 C20.4564988,9.67384168 18.2711883,5.95189011 14.63,4.66666667 L14.63,3.09333333 C19.1266538,4.41023431 21.9735345,8.8299241 21.313128,13.4686725 C20.6527216,18.1074209 16.6855128,21.5570067 12,21.5666667 Z" id="Shape"></path>
        </g>
    </g>
</svg>