<?xml version="1.0" encoding="UTF-8"?>
<svg width="24px" height="24px" viewBox="0 0 24 24" version="1.1" xmlns="http://www.w3.org/2000/svg" xmlns:xlink="http://www.w3.org/1999/xlink">
    <title>Icon/Fill/powerport-plug-outlet-fill</title>
    <g id="Icon/Fill/powerport-plug-outlet-fill" stroke="none" stroke-width="1" fill="none" fill-rule="evenodd">
        <g id="Group" transform="translate(0.000000, 4.000000)" fill="#474747" fill-rule="nonzero">
            <path d="M10.7304402,8.10043583 L10.7071096,3.39432156 L12.8401926,3.39432156 L12.8401926,8.10043583 L10.7304402,8.10043583 Z M18.0629129,0.00471942079 L5.95433418,0.00471942079 C5.22575246,-0.0411006822 4.51618948,0.248617076 4.02789364,0.791293761 L0.694951522,4.26421945 C0.454023834,4.50136079 0.263559144,4.78479039 0.135017246,5.09745498 C0.0356752562,5.36821853 -0.00961820328,5.65583199 0.0016995613,5.94402228 L0.0016995613,12.7998842 C0.00903725293,14.7537567 1.59406453,16.3343149 3.54794998,16.3361358 L20.4559653,16.3361358 C22.4085498,16.3324827 23.9915526,14.7524584 23.9988828,12.7998842 L23.9988828,5.94402228 C24.008071,5.65539162 23.9605106,5.36776444 23.8588992,5.09745498 C23.7303573,4.78479039 23.5398927,4.50136079 23.298965,4.26421945 L19.9660228,0.791293761 C19.477727,0.248617076 18.768164,-0.0411006822 18.0395823,0.00471942079 L18.0629129,0.00471942079 Z M19.3327638,12.6165724 L17.8962658,12.6165724 L17.8962658,7.90712518 L20.0293487,7.90712518 L20.0293487,12.6165724 L19.3327638,12.6165724 Z M3.95790186,12.6165724 L3.95790186,7.90712518 L6.09098481,7.90712518 L6.09098481,12.6165724 L3.95790186,12.6165724 Z" id="Shape"></path>
        </g>
    </g>
</svg>