<?xml version="1.0" encoding="UTF-8"?>
<svg width="24px" height="24px" viewBox="0 0 24 24" version="1.1" xmlns="http://www.w3.org/2000/svg" xmlns:xlink="http://www.w3.org/1999/xlink">
    <title>Icon/Fill/ppt-fill</title>
    <g id="Icon/Fill/ppt-fill" stroke="none" stroke-width="1" fill="none" fill-rule="evenodd">
        <g id="Group" transform="translate(-0.000000, -0.000000)" fill="#474747" fill-rule="nonzero">
            <g id="ppt" transform="translate(0.000000, 3.000000)">
                <path d="M24,1.5 L24,18 L0,18 L0,0 L22.5,0 C23.3290001,0 24,0.671000005 24,1.5 Z M4.67834484,10.1796017 L5.76082761,10.1796017 C6.61821121,10.1796017 7.29848027,9.95381412 7.80165521,9.50223221 C8.30483013,9.05065024 8.55641381,8.45570426 8.55641381,7.71737643 C8.55641381,6.97904853 8.30483013,6.38324403 7.80165521,5.92994507 C7.29848027,5.47664612 6.61821121,5.25000002 5.76082761,5.25000002 L3.00000001,5.25000002 L3.00000001,12.75 L4.67834484,12.75 L4.67834484,10.1796017 Z M4.67834484,8.84031596 L4.67834484,6.58928575 L5.76082761,6.58928575 C6.12827772,6.58928575 6.40717149,6.69574075 6.59751727,6.9086539 C6.78786305,7.12156705 6.88303451,7.39457253 6.88303451,7.72767858 C6.88303451,8.05391651 6.78703547,8.32091246 6.59503451,8.52867446 C6.40303355,8.73643654 6.12496737,8.84031596 5.76082761,8.84031596 L4.67834484,8.84031596 Z M11.1633104,10.1796017 L12.2457931,10.1796017 C13.1031768,10.1796017 13.7834458,9.95381412 14.2866208,9.50223221 C14.7897957,9.05065024 15.0413794,8.45570426 15.0413794,7.71737643 C15.0413794,6.97904853 14.7897957,6.38324403 14.2866208,5.92994507 C13.7834458,5.47664612 13.1031768,5.25000002 12.2457931,5.25000002 L9.48496556,5.25000002 L9.48496556,12.75 L11.1633104,12.75 L11.1633104,10.1796017 Z M11.1633104,8.84031596 L11.1633104,6.58928575 L12.2457931,6.58928575 C12.6132433,6.58928575 12.8921371,6.69574075 13.0824828,6.9086539 C13.2728286,7.12156705 13.3680001,7.39457253 13.3680001,7.72767858 C13.3680001,8.05391651 13.272001,8.32091246 13.0800001,8.52867446 C12.8879991,8.73643654 12.6099329,8.84031596 12.2457931,8.84031596 L11.1633104,8.84031596 Z M21.0000001,6.58928575 L21.0000001,5.25000002 L15.5329656,5.25000002 L15.5329656,6.58928575 L17.4099311,6.58928575 L17.4099311,12.75 L19.088276,12.75 L19.088276,6.58928575 L21.0000001,6.58928575 Z" id="Combined-Shape"></path>
            </g>
        </g>
    </g>
</svg>