<svg width="24" height="24" viewBox="0 0 24 24" fill="none" xmlns="http://www.w3.org/2000/svg">
<path d="M11.2233 13.3917C11.7033 13.765 11.7933 14.4617 11.42 14.9483C10.8633 15.7517 10.21 16.745 9.67 17.5617C8.87667 18.755 8.49667 20.2117 7.26667 21.015C6.49667 21.5317 5.59333 21.815 4.67 21.8317H4.18C2.9 21.8183 1.68667 21.2383 0.866667 20.2483C0.0166667 19.215 0 17.9283 0 16.645V9.19167C0 8.71167 0.326667 8.295 0.806667 8.295H0.87C1.34667 8.295 1.56 8.70833 1.56 9.19167V13.515C1.56 13.6183 1.68667 13.8217 1.93667 13.8383C2.17667 13.8283 2.29667 13.6483 2.29667 13.495V8.105C2.29667 7.625 2.54667 7.23167 3.02667 7.23167H3.09C3.57 7.23167 3.76667 7.60167 3.76667 8.085V13.4317C3.76667 13.5917 3.92667 13.8317 4.12667 13.815C4.31 13.815 4.47667 13.6617 4.49 13.4383V7.03167C4.49 6.55167 4.76667 6.16167 5.24667 6.16167H5.31C5.78667 6.16167 6.03333 6.55167 6.03333 7.03167V13.405C6.03333 13.575 6.14 13.7517 6.38667 13.765C6.67333 13.7483 6.75667 13.5083 6.75667 13.405V7.65167C6.75667 7.17167 7.01667 6.78167 7.49667 6.78167H7.56C8.03667 6.78167 8.31667 7.17167 8.31667 7.65167V14.935C8.31667 14.9817 8.34 15.0283 8.38 15.055C8.44333 15.0983 8.53333 15.0817 8.57667 15.015L9.52 13.4883C9.88667 12.9983 10.58 12.9017 11.0667 13.2717L11.2133 13.3817C11.2133 13.3817 11.22 13.385 11.2233 13.3883V13.3917ZM12.7767 13.3917C12.2967 13.765 12.2067 14.4617 12.58 14.9483C13.1367 15.7517 13.79 16.745 14.33 17.5617C15.1233 18.755 15.5033 20.2117 16.7333 21.015C17.5033 21.5317 18.4067 21.815 19.33 21.8317H19.82C21.1 21.8183 22.3133 21.2383 23.1333 20.2483C23.9833 19.2117 24 17.925 24 16.645V9.19167C24 8.71167 23.6733 8.295 23.1933 8.295H23.13C22.6533 8.295 22.44 8.70833 22.44 9.19167V13.515C22.44 13.6183 22.3133 13.8217 22.0633 13.8383C21.8233 13.8283 21.7033 13.6483 21.7033 13.495V8.105C21.7033 7.625 21.4533 7.23167 20.9733 7.23167H20.91C20.43 7.23167 20.2333 7.60167 20.2333 8.085V13.4317C20.2333 13.5917 20.0733 13.8317 19.8733 13.815C19.69 13.815 19.5233 13.6617 19.51 13.4383V7.03167C19.51 6.55167 19.2333 6.16167 18.7533 6.16167H18.69C18.2133 6.16167 17.9667 6.55167 17.9667 7.03167V13.405C17.9667 13.575 17.86 13.7517 17.6133 13.765C17.3267 13.7483 17.2433 13.5083 17.2433 13.405V7.65167C17.2433 7.17167 16.9833 6.78167 16.5033 6.78167H16.44C15.9633 6.78167 15.6833 7.17167 15.6833 7.65167V14.935C15.6833 14.9817 15.66 15.0283 15.62 15.055C15.5567 15.0983 15.4667 15.0817 15.4233 15.015L14.48 13.4883C14.1133 12.9983 13.42 12.9017 12.9333 13.2717L12.7867 13.3817C12.7867 13.3817 12.78 13.385 12.7767 13.3883V13.3917ZM12.8033 2.975C12.8033 2.545 12.4267 2.16833 11.9967 2.16833C11.5667 2.16833 11.19 2.53167 11.19 2.975V5.39833C11.19 5.615 11.2733 5.81833 11.4267 5.96833C11.58 6.12167 11.7833 6.205 11.9967 6.205C12.21 6.205 12.4167 6.12167 12.5667 5.96833C12.7167 5.815 12.8033 5.61167 12.8033 5.39833V2.975ZM10.3967 5.47167L9.37333 3.275C9.28333 3.07833 9.12 2.93167 8.91667 2.85833C8.71333 2.785 8.49333 2.795 8.3 2.885C8.10333 2.975 7.95667 3.13834 7.88333 3.34167C7.81 3.545 7.82 3.765 7.91 3.95833L8.93333 6.155C8.97333 6.24167 9.03 6.31833 9.09333 6.385C9.32667 6.61833 9.69 6.695 10.0067 6.54833C10.2033 6.45833 10.35 6.295 10.4233 6.09167C10.4967 5.88833 10.4867 5.66833 10.3967 5.475V5.47167ZM15.0567 6.155L16.08 3.95833C16.27 3.555 16.0933 3.07167 15.69 2.885C15.4933 2.795 15.2767 2.785 15.0733 2.85833C14.87 2.93167 14.71 3.08167 14.6167 3.275L13.5933 5.47167C13.5033 5.66833 13.4933 5.88833 13.5667 6.08833C13.6067 6.20167 13.67 6.30167 13.7533 6.385C13.82 6.45167 13.8967 6.505 13.9833 6.545C14.18 6.635 14.3967 6.645 14.6 6.57167C14.8033 6.49833 14.9633 6.34833 15.0567 6.155Z" fill="black"/>
</svg>
