<?xml version="1.0" encoding="UTF-8"?>
<svg width="24px" height="24px" viewBox="0 0 24 24" version="1.1" xmlns="http://www.w3.org/2000/svg" xmlns:xlink="http://www.w3.org/1999/xlink">
    <title>Icon/Fill/prescription-pharmacy-fill</title>
    <g id="Icon/Fill/prescription-pharmacy-fill" stroke="none" stroke-width="1" fill="none" fill-rule="evenodd">
        <g id="Group" transform="translate(2.000000, 0.000000)" fill="#474747" fill-rule="nonzero">
            <path d="M19.6666667,12.1666667 L15.92,12.1666667 L13.2533333,15.6666667 L10.2033333,11.7066667 C12.5366667,11.33 14.8,9.45 14.8,6.04 C14.8,2.45666667 12.2833333,0 8.46666667,0 L0,0 L0,19.2766667 L3.38333333,19.2766667 L3.38333333,12.08 L6.76333333,12.08 L11.3533333,18.1666667 L6.93,24 L10.86,24 L13.2833333,20.7433333 L15.7366667,24 L19.6666667,24 L15.19,18.1866667 L19.6666667,12.1666667 Z M3.38333333,9.10333333 L3.38333333,2.97666667 L8.05,2.97666667 C9.95666667,2.97666667 11.3433333,4.16333333 11.3433333,6.01 C11.3433333,7.85666667 9.95666667,9.10333333 8.05,9.10333333 L3.38333333,9.10333333 Z" id="Shape"></path>
        </g>
    </g>
</svg>