<?xml version="1.0" encoding="UTF-8"?>
<svg width="24px" height="24px" viewBox="0 0 24 24" version="1.1" xmlns="http://www.w3.org/2000/svg" xmlns:xlink="http://www.w3.org/1999/xlink">
    <title>Icon/Fill/printer-fill</title>
    <g id="Icon/Fill/printer-fill" stroke="none" stroke-width="1" fill="none" fill-rule="evenodd">
        <g id="Group" transform="translate(-0.000000, 1.500000)" fill="#474747" fill-rule="nonzero">
            <g id="printer">
                <path d="M6.00000003,21.0000001 L6.00000003,15.0000001 L18,15.0000001 L18,21.0000001 L6.00000003,21.0000001 Z M22.5,6.00000003 C23.3280001,6.00000003 24,6.67200003 24,7.50000003 L24,18 L21,18 L21,12 L3,12 L3,18 L0,18 L0,7.50000003 C0,6.67200003 0.672000003,6.00000003 1.5,6.00000003 L22.5,6.00000003 Z M18,1.5 L18,4.5 L6.00000003,4.5 L6.00000003,1.5 C6.00000003,0.672000003 6.67200003,0 7.50000003,0 L16.5,0 C17.3280001,0 18,0.672000003 18,1.5 Z" id="Combined-Shape"></path>
            </g>
        </g>
    </g>
</svg>