<?xml version="1.0" encoding="UTF-8"?>
<svg width="24px" height="24px" viewBox="0 0 24 24" version="1.1" xmlns="http://www.w3.org/2000/svg" xmlns:xlink="http://www.w3.org/1999/xlink">
    <title>Icon/Fill/productivity-fill</title>
    <g id="Icon/Fill/productivity-fill" stroke="none" stroke-width="1" fill="none" fill-rule="evenodd">
        <g id="Group" transform="translate(4.000000, 0.000000)" fill="#474747" fill-rule="nonzero">
            <path d="M4.04333333,19.38 L5.19,19.38 L5.19,22.5333333 L4.04333333,22.5333333 L4.04333333,19.38 Z M7.41333333,19.38 L8.56,19.38 L8.56,24 L7.41333333,24 L7.41333333,19.38 Z M0,18.2666667 L2.88,18.26 L2.88,13 L0,14.6566667 L0,18.2666667 L0,18.2666667 Z M7.96,0 L8.33333333,0.353333333 C11.2633333,3 11.8766667,7.31 11.87,10.46 L11.87,10.46 L11.89,18.2533333 L8.55666667,18.2533333 L8.55666667,13.29 L7.41333333,13.29 L7.41333333,18.26 L4.02333333,18.26 L4.05,10.4533333 C4.05,7.30666667 4.66666667,3 7.56666667,0.333333333 L7.56666667,0.333333333 L7.96,0 Z M7.96666667,6.4 L7.80579766,6.40520424 C6.52952984,6.48804215 5.52,7.54946025 5.52,8.84666667 C5.52,10.1979234 6.61540998,11.2933333 7.96666667,11.2933333 C9.31792335,11.2933333 10.4133333,10.1979234 10.4133333,8.84666667 C10.4133333,7.49540998 9.31792335,6.4 7.96666667,6.4 L7.96666667,6.4 Z M8.42582908,7.65348815 C8.90938944,7.85224988 9.22460183,8.32385194 9.22335148,8.84666667 C9.22704003,9.54917227 8.66247717,10.1226728 7.96,10.13 C7.43726969,10.1394796 6.96077511,9.83171298 6.75444319,9.35133398 C6.54811126,8.87095499 6.65297058,8.31348581 7.01974289,7.94090707 C7.38651521,7.56832834 7.94226872,7.45472643 8.42582908,7.65348815 Z M13.0433333,12.97 L13.0433333,18.2433333 L16,18.24 L16,14.61 L13.0433333,12.97 L13.0433333,12.97 Z M10.7466667,19.38 L11.8933333,19.38 L11.8933333,22.5333333 L10.7466667,22.5333333 L10.7466667,19.38 Z M14.45,19.38 L15.5966667,19.38 L15.5966667,21.0466667 L14.45,21.0466667 L14.45,19.38 Z M0,19.38 L1.14666667,19.38 L1.14666667,21.0466667 L0,21.0466667 L0,19.38 Z" id="Combined-Shape"></path>
        </g>
    </g>
</svg>