<?xml version="1.0" encoding="UTF-8"?>
<svg width="24px" height="24px" viewBox="0 0 24 24" version="1.1" xmlns="http://www.w3.org/2000/svg" xmlns:xlink="http://www.w3.org/1999/xlink">
    <title>Icon/Fill/profitability-fill</title>
    <g id="Icon/Fill/profitability-fill" stroke="none" stroke-width="1" fill="none" fill-rule="evenodd">
        <g id="Group" transform="translate(-0.000000, 1.500000)" fill="#474747" fill-rule="nonzero">
            <g id="profitability-fill">
                <path d="M21.75,0 L21.75,10.5 L3.75000002,10.5 L3.75000002,0 L21.75,0 Z M12.75,8.25000001 C14.4068543,8.25000001 15.75,6.90685428 15.75,5.25000001 C15.75,3.59314576 14.4068543,2.25000001 12.75,2.25000001 C11.0931458,2.25000001 9.75000004,3.59314576 9.75000004,5.25000001 C9.75000004,6.90685428 11.0931458,8.25000001 12.75,8.25000001 Z M23.9700001,16.6666667 C24.1144072,17.3746816 23.7104736,18.0797812 23.0266667,18.3133334 L13.2433334,21.3933334 L13.1233334,21.3933334 C13.1233334,21.3933334 11.5133334,21.4333334 9.90333334,21.4666667 C9.09666671,21.4833334 8.29000001,21.5033334 7.68333333,21.5033334 L7.11333336,21.5033334 C6.77697805,21.5477339 6.43508281,21.4884256 6.13333336,21.3333334 C5.33333335,21.0533334 2.39333334,20.1666668 0.580000002,19.6333334 L0,19.4600001 L0,10.4600001 L7.2266667,12.3966667 L8.25000003,13.1933334 L14.5633334,13.9600001 C15.0666667,14.0133334 15.6466667,14.2233334 15.6666667,14.7833334 L15.6300001,16 C15.543735,16.4066123 15.1856579,16.6980704 14.77,16.7000001 L7.77000003,16.7000001 L7.77000003,18.0833334 L14.77,18.0833334 C15.8762774,18.0729123 16.8159306,17.2709064 17,16.18 L17.0300001,15.13 C22.3466668,14.5933334 23.1733334,14.6166667 23.4666668,14.8800001 L23.5200001,14.9300001 L23.5466668,15.0000001 C23.7269426,15.5448664 23.8684075,16.1018149 23.9700001,16.6666667 Z" id="Combined-Shape"></path>
            </g>
        </g>
    </g>
</svg>