<?xml version="1.0" encoding="UTF-8"?>
<svg width="24px" height="24px" viewBox="0 0 24 24" version="1.1" xmlns="http://www.w3.org/2000/svg" xmlns:xlink="http://www.w3.org/1999/xlink">
    <title>Icon/Fill/projector-fill</title>
    <g id="Icon/Fill/projector-fill" stroke="none" stroke-width="1" fill="none" fill-rule="evenodd">
        <g id="Group" transform="translate(0.000000, 6.000000)" fill="#474747" fill-rule="nonzero">
            <path d="M21.7627719,11.3179327 L19.8995359,11.3179327 C19.6456324,11.3472998 19.454057,11.5623105 19.454057,11.8179066 C19.454057,12.0735027 19.6456324,12.2885134 19.8995359,12.3178805 L21.7627719,12.3178805 C22.0166753,12.2885134 22.2082508,12.0735027 22.2082508,11.8179066 C22.2082508,11.5623105 22.0166753,11.3472998 21.7627719,11.3179327 L21.7627719,11.3179327 Z" id="Path"></path>
            <path d="M4.10036119,11.3179327 L2.24045835,11.3179327 C1.98655492,11.3472998 1.79497946,11.5623105 1.79497946,11.8179066 C1.79497946,12.0735027 1.98655492,12.2885134 2.24045835,12.3178805 L4.10036119,12.3178805 C4.35426461,12.2885134 4.54584008,12.0735027 4.54584008,11.8179066 C4.54584008,11.5623105 4.35426461,11.3472998 4.10036119,11.3179327 L4.10036119,11.3179327 Z" id="Path"></path>
            <path d="M22.5693964,1.87842583 L19.69288,1.87842583 C18.9868897,0.712353274 17.7228596,-8.8817842e-16 16.3597208,-8.8817842e-16 C14.996582,-8.8817842e-16 13.7325518,0.712353274 13.0265616,1.87842583 L1.43050066,1.87842583 C1.04607324,1.87281648 0.676028051,2.0244394 0.406062306,2.29818089 C0.136096562,2.57192238 -0.0103724714,2.94403765 0.000575354102,3.32835009 L0.000575354102,9.61802152 C-0.0104044877,10.0020376 0.136163729,10.3738345 0.406236626,10.6470551 C0.676309523,10.9202757 1.04638319,11.0711421 1.43050066,11.0646126 L22.5693964,11.0646126 C22.9537994,11.0721042 23.3244399,10.9215444 23.5947259,10.6481083 C23.8650118,10.3746721 24.0112669,10.0023119 23.9993217,9.61802152 L23.9993217,3.32835009 C24.0112308,2.9437648 23.8650742,2.57108942 23.5948969,2.29713341 C23.3247196,2.0231774 22.95411,1.87185905 22.5693964,1.87842583 L22.5693964,1.87842583 Z M8.57012769,8.87806018 L2.66710273,8.87806018 C2.4131993,8.84869311 2.22162384,8.63368241 2.22162384,8.3780863 C2.22162384,8.12249018 2.4131993,7.90747948 2.66710273,7.87811242 L8.58012717,7.87811242 C8.8340306,7.90747948 9.02560606,8.12249018 9.02560606,8.3780863 C9.02560606,8.63368241 8.8340306,8.84869311 8.58012717,8.87806018 L8.57012769,8.87806018 Z M8.57012769,6.9881589 L2.66710273,6.9881589 C2.4131993,6.95879184 2.22162384,6.74378114 2.22162384,6.48818502 C2.22162384,6.23258891 2.4131993,6.01757821 2.66710273,5.98821114 L8.58012717,5.98821114 C8.8340306,6.01757821 9.02560606,6.23258891 9.02560606,6.48818502 C9.02560606,6.74378114 8.8340306,6.95879184 8.58012717,6.9881589 L8.57012769,6.9881589 Z M8.57012769,5.10159079 L2.66710273,5.10159079 C2.4131993,5.07222372 2.22162384,4.85721302 2.22162384,4.60161691 C2.22162384,4.34602079 2.4131993,4.13101009 2.66710273,4.10164303 L8.58012717,4.10164303 C8.8340306,4.13101009 9.02560606,4.34602079 9.02560606,4.60161691 C9.02560606,4.85721302 8.8340306,5.07222372 8.58012717,5.10159079 L8.57012769,5.10159079 Z M16.343055,6.92816204 C15.1426846,6.94303263 14.0522158,6.23139427 13.5825133,5.12663655 C13.1128107,4.02187883 13.3569122,2.74283001 14.2004607,1.88870114 C15.0440091,1.03457228 16.3199161,0.774547539 17.4304424,1.23044378 C18.5409687,1.68634003 19.2661435,2.76785421 19.2662356,3.96831666 C19.2751422,4.74669928 18.972155,5.49627006 18.4248592,6.0498278 C17.8775635,6.60338554 17.131488,6.91488036 16.3530545,6.9148294 L16.343055,6.92816204 Z M21.6294455,4.78827382 C21.4250158,4.79233614 21.2384452,4.67231846 21.1573825,4.48460373 C21.0763197,4.29688901 21.1168772,4.0787883 21.2600015,3.93276286 C21.4031258,3.78673741 21.6203688,3.74181193 21.8096722,3.81909191 C21.9989757,3.89637188 22.1227127,4.08049677 22.1227531,4.28496678 C22.133775,4.41680544 22.0866518,4.54688012 21.9937455,4.64106789 C21.9008392,4.73525565 21.7714222,4.78415616 21.639445,4.77494119 L21.6294455,4.78827382 Z" id="Shape"></path>
            <path d="M16.3530545,1.87842583 C15.5111064,1.86896514 14.7467865,2.36885986 14.4180103,3.14401938 C14.0892342,3.91917889 14.2610902,4.81614329 14.8531018,5.41488226 C15.4451133,6.01362123 16.3400787,6.19560118 17.1189036,5.87560459 C17.8977285,5.555608 18.4062274,4.79698523 18.4063055,3.95498402 C18.4118206,2.81494385 17.4930845,1.88576755 16.3530545,1.87842583 L16.3530545,1.87842583 Z" id="Path"></path>
        </g>
    </g>
</svg>