<?xml version="1.0" encoding="UTF-8"?>
<svg width="24px" height="24px" viewBox="0 0 24 24" version="1.1" xmlns="http://www.w3.org/2000/svg" xmlns:xlink="http://www.w3.org/1999/xlink">
    <title>Icon/Fill/purpose-fill</title>
    <g id="Icon/Fill/purpose-fill" stroke="none" stroke-width="1" fill="none" fill-rule="evenodd">
        <g id="Group" transform="translate(-0.000000, -0.000000)" fill="#474747" fill-rule="nonzero">
            <g id="purpose-fill">
                <path d="M20.7818064,12.6397807 L17.8668415,11.914331 C17.9542495,11.4563016 18,10.9834936 18,10.5 C18,6.3578644 14.6421357,3 10.5,3 C6.3578644,3 3,6.3578644 3,10.5 C3,14.6421357 6.3578644,18 10.5,18 C10.9827288,18 11.4548058,17.9543942 11.9121573,17.867256 L12.6364687,20.7824916 C11.9466433,20.9250809 11.2320708,21 10.5,21 C4.70101014,21 0,16.2989899 0,10.5 C0,4.70101014 4.70101014,0 10.5,0 C16.2989899,0 21,4.70101014 21,10.5 C21,11.2332425 20.9248409,11.9489307 20.7818064,12.6397807 Z M16.4082022,11.5513182 L14.2161814,11.0057883 C14.2384835,10.8403694 14.2500001,10.6715296 14.2500001,10.5 C14.2500001,8.42893226 12.5710678,6.75000003 10.5,6.75000003 C8.42893226,6.75000003 6.75000003,8.42893226 6.75000003,10.5 C6.75000003,12.5710678 8.42893226,14.2500001 10.5,14.2500001 C10.6712731,14.2500001 10.8398645,14.2385179 11.0050462,14.2162814 L11.5497151,16.4084853 C11.2088694,16.468629 10.8580983,16.5 10.5,16.5 C7.18629153,16.5 4.50000002,13.8137086 4.50000002,10.5 C4.50000002,7.18629153 7.18629153,4.50000002 10.5,4.50000002 C13.8137086,4.50000002 16.5,7.18629153 16.5,10.5 C16.5,10.8586597 16.4685306,11.2099693 16.4082022,11.5513182 Z M12.0000001,12.0000001 L22.5768912,14.6322796 L20.4522029,16.7587355 L24.0000001,20.2995009 L20.2926019,24.0000001 L16.7547798,20.4592347 L14.6300915,22.5856906 L12.0000001,12.0000001 Z" id="Combined-Shape"></path>
            </g>
        </g>
    </g>
</svg>