<?xml version="1.0" encoding="UTF-8"?>
<svg width="24px" height="24px" viewBox="0 0 24 24" version="1.1" xmlns="http://www.w3.org/2000/svg" xmlns:xlink="http://www.w3.org/1999/xlink">
    <title>Icon/Fill/qrcode-fill</title>
    <g id="Icon/Fill/qrcode-fill" stroke="none" stroke-width="1" fill="none" fill-rule="evenodd">
        <g id="Group" fill="#474747" fill-rule="nonzero">
            <path d="M24,0 L24,5.6 L22.08,5.6 L22.08,1.93333333 L18.4133333,1.93333333 L18.4133333,0 L24,0 Z M0,0 L0,5.6 L1.92,5.6 L1.92,1.93333333 L5.58666667,1.93333333 L5.58666667,0 L0,0 Z M1.92,22.08 L1.92,18.4133333 L0,18.4133333 L0,24 L5.6,24 L5.6,22.08 L1.92,22.08 Z M22.08,18.4133333 L22.08,22.08 L18.4133333,22.08 L18.4133333,24 L24,24 L24,18.4 L22.08,18.4133333 Z M11.2233333,14.6666667 L11.2233333,12.7333333 L9.30333333,12.7333333 L9.30333333,14.43 L7.82666667,14.43 L7.82666667,12.7333333 L5.90666667,12.7333333 L5.90666667,14.6666667 L7.60666667,14.6666667 L7.60666667,16.1433333 L5.90666667,16.1433333 L5.90666667,18.0633333 L7.82666667,18.0633333 L7.82666667,16.3633333 L9.30333333,16.3633333 L9.30333333,18.0633333 L11.2233333,18.0633333 L11.2233333,16.13 L9.52666667,16.13 L9.52666667,14.6666667 L11.2233333,14.6666667 Z M11.2233333,5.95333333 L11.2233333,11.2533333 L5.89,11.2533333 L5.89,5.94 L11.2233333,5.95333333 Z M9.30333333,9.33333333 L9.30333333,7.85666667 L7.82666667,7.85666667 L7.82666667,9.33333333 L9.30333333,9.33333333 Z M18.0166667,5.94 L18.0166667,11.2533333 L12.7,11.2533333 L12.7,5.94 L18.0166667,5.94 Z M16.1,9.33333333 L16.1,7.85666667 L14.62,7.85666667 L14.62,9.33333333 L16.1,9.33333333 Z M18.0166667,12.7333333 L18.0166667,18.0666667 L12.7,18.0666667 L12.7,12.7333333 L18.0166667,12.7333333 Z M16.1,16.13 L16.1,14.6666667 L14.62,14.6666667 L14.62,16.1433333 L16.1,16.13 Z" id="Shape"></path>
        </g>
    </g>
</svg>