<?xml version="1.0" encoding="UTF-8"?>
<svg width="24px" height="24px" viewBox="0 0 24 24" version="1.1" xmlns="http://www.w3.org/2000/svg" xmlns:xlink="http://www.w3.org/1999/xlink">
    <title>Icon/Fill/query-fill</title>
    <g id="Icon/Fill/query-fill" stroke="none" stroke-width="1" fill="none" fill-rule="evenodd">
        <g id="Group" transform="translate(0.000000, 3.000000)" fill="#474747" fill-rule="nonzero">
            <path d="M3.6944869e-06,1.77635684e-15 L3.6944869e-06,16.8333229 C-0.000880199569,17.2314189 0.156869911,17.6134654 0.438366946,17.8949625 C0.719863982,18.1764595 1.10191056,18.3342096 1.50000369,18.3333257 L22.4999935,18.3333257 C22.8980894,18.3342096 23.280136,18.1764595 23.5616331,17.8949625 C23.8431301,17.6134654 24.0008802,17.2314189 24.0000037,16.8333229 L24.0000037,1.77635684e-15 L3.6944869e-06,1.77635684e-15 Z M11.1900005,11.7099928 L18.9999957,11.7099928 L18.9999957,13.4599917 L11.1900005,13.4599917 L11.1900005,11.7099928 Z M4.80000445,4.2633307 L9.70333475,9.166661 L4.80000445,14.0699913 L3.56000522,12.8333254 L7.22666962,9.166661 L3.56000522,5.4999966 L4.80000445,4.2633307 Z" id="Shape"></path>
        </g>
    </g>
</svg>