<?xml version="1.0" encoding="UTF-8"?>
<svg width="24px" height="24px" viewBox="0 0 24 24" version="1.1" xmlns="http://www.w3.org/2000/svg" xmlns:xlink="http://www.w3.org/1999/xlink">
    <title>Icon/Outline/radio-selected-fill</title>
    <g id="Icon/Outline/radio-selected-fill" stroke="none" stroke-width="1" fill="none" fill-rule="evenodd">
        <g id="Icon" fill="#474747" fill-rule="nonzero">
            <path d="M12,23.9877925 C13.6439471,23.9877925 15.1881994,23.6744659 16.6327569,23.0478128 C18.0773143,22.4211597 19.353001,21.5564598 20.4598169,20.4537131 C21.5666328,19.3509664 22.4333672,18.0752798 23.0600203,16.6266531 C23.6866734,15.1780264 24,13.6317396 24,11.9877925 C24,10.3438454 23.6846389,8.79959308 23.0539166,7.35503561 C22.4231943,5.91047813 21.5564598,4.63479145 20.4537131,3.52797558 C19.3509664,2.42115972 18.0752798,1.55645982 16.6266531,0.93387589 C15.1780264,0.311291963 13.6317396,0 11.9877925,0 C10.3519837,0 8.80976602,0.311291963 7.36113937,0.93387589 C5.91251272,1.55645982 4.63682604,2.42115972 3.53407935,3.52797558 C2.43133266,4.63479145 1.56663276,5.91047813 0.939979654,7.35503561 C0.313326551,8.79959308 0,10.3438454 0,11.9877925 C0,13.6317396 0.313326551,15.1780264 0.939979654,16.6266531 C1.56663276,18.0752798 2.43133266,19.3509664 3.53407935,20.4537131 C4.63682604,21.5564598 5.91251272,22.4211597 7.36113937,23.0478128 C8.80976602,23.6744659 10.3560529,23.9877925 12,23.9877925 Z M12.0122075,16.7121058 C11.1414039,16.7121058 10.3479145,16.4984741 9.63173957,16.0712106 C8.9155646,15.6439471 8.34384537,15.0722279 7.91658189,14.3560529 C7.48931841,13.6398779 7.27568667,12.8423194 7.27568667,11.9633774 C7.27568667,11.0925738 7.48931841,10.2990844 7.91658189,9.58290946 C8.34384537,8.86673449 8.9155646,8.29704985 9.63173957,7.87385554 C10.3479145,7.45066124 11.1414039,7.23906409 12.0122075,7.23906409 C12.8830112,7.23906409 13.6785351,7.45066124 14.3987792,7.87385554 C15.1190234,8.29704985 15.6907426,8.86673449 16.1139369,9.58290946 C16.5371312,10.2990844 16.7487284,11.0925738 16.7487284,11.9633774 C16.7487284,12.8423194 16.5371312,13.6398779 16.1139369,14.3560529 C15.6907426,15.0722279 15.1190234,15.6439471 14.3987792,16.0712106 C13.6785351,16.4984741 12.8830112,16.7121058 12.0122075,16.7121058 Z" id="Shape"></path>
        </g>
    </g>
</svg>