<?xml version="1.0" encoding="UTF-8"?>
<svg width="24px" height="24px" viewBox="0 0 24 24" version="1.1" xmlns="http://www.w3.org/2000/svg" xmlns:xlink="http://www.w3.org/1999/xlink">
    <title>Icon/Fill/radio-fill</title>
    <g id="Icon/Fill/radio-fill" stroke="none" stroke-width="1" fill="none" fill-rule="evenodd">
        <g id="Group" transform="translate(-0.000000, -0.000000)" fill="#474747" fill-rule="nonzero">
            <g id="radio-fill">
                <path d="M7.6068181,12.971164 C7.07127617,10.5458363 8.6017681,8.14518723 11.0262543,7.6076164 C13.4507404,7.07004564 15.8522029,8.59887955 16.3916192,11.0233482 C16.9310355,13.4478169 15.4043811,15.850909 12.9807569,16.3923541 C11.8144761,16.6520769 10.5928035,16.4374506 9.58483308,15.7957501 C8.57686255,15.1540497 7.86527807,14.137914 7.6068181,12.971164 L7.6068181,12.971164 Z M0.289328318,14.6061494 C-0.349869686,11.7579405 0.0782101562,8.77440288 1.49252518,6.22036994 L2.29576741,4.95484326 C5.8323854,0.0537295863 12.477211,-1.43238474 17.7673459,1.49462688 L19.0338689,2.29723723 C23.361153,5.42567389 25.0978994,11.0355564 23.2943424,16.0590363 C21.4907854,21.0825164 16.581216,24.3099553 11.2505057,23.9763799 C5.91979545,23.6428045 1.45156305,19.8285386 0.289328318,14.6194707 L0.289328318,14.6061494 Z M5.41535678,13.4840309 C6.23470289,17.1183938 9.84442818,19.40134 13.4796276,18.5842242 C17.1148271,17.7671083 19.4001304,14.1590845 18.5850866,10.5237545 C17.7700429,6.88842448 14.1630223,4.60120801 10.5268583,5.41402132 C6.88692224,6.23148787 4.59860554,9.84426926 5.41535678,13.4840309 L5.41535678,13.4840309 Z" id="Icon/Radio/Fill"></path>
            </g>
        </g>
    </g>
</svg>