<?xml version="1.0" encoding="UTF-8"?>
<svg width="24px" height="24px" viewBox="0 0 24 24" version="1.1" xmlns="http://www.w3.org/2000/svg" xmlns:xlink="http://www.w3.org/1999/xlink">
    <title>Icon/Outline/radio-deselected-fill</title>
    <g id="Icon/Outline/radio-deselected-fill" stroke="none" stroke-width="1" fill="none" fill-rule="evenodd">
        <g id="Icon" fill="#474747" fill-rule="nonzero">
            <path d="M12,23.9877925 C13.6439471,23.9877925 15.1881994,23.6744659 16.6327569,23.0478128 C18.0773143,22.4211597 19.353001,21.5564598 20.4598169,20.4537131 C21.5666328,19.3509664 22.4333672,18.0752798 23.0600203,16.6266531 C23.6866734,15.1780264 24,13.6317396 24,11.9877925 C24,10.3438454 23.6846389,8.79959308 23.0539166,7.35503561 C22.4231943,5.91047813 21.5564598,4.63479145 20.4537131,3.52797558 C19.3509664,2.42115972 18.0752798,1.55645982 16.6266531,0.93387589 C15.1780264,0.311291963 13.6317396,0 11.9877925,0 C10.3519837,0 8.80976602,0.311291963 7.36113937,0.93387589 C5.91251272,1.55645982 4.63682604,2.42115972 3.53407935,3.52797558 C2.43133266,4.63479145 1.56663276,5.91047813 0.939979654,7.35503561 C0.313326551,8.79959308 0,10.3438454 0,11.9877925 C0,13.6317396 0.313326551,15.1780264 0.939979654,16.6266531 C1.56663276,18.0752798 2.43133266,19.3509664 3.53407935,20.4537131 C4.63682604,21.5564598 5.91251272,22.4211597 7.36113937,23.0478128 C8.80976602,23.6744659 10.3560529,23.9877925 12,23.9877925 Z M12,21.4608342 C10.6897253,21.4608342 9.46083418,21.2166836 8.31332655,20.7283825 C7.16581892,20.2400814 6.15869786,19.5625636 5.29196338,18.6958291 C4.42522889,17.8290946 3.74771109,16.8219736 3.25940997,15.6744659 C2.77110885,14.5269583 2.52695829,13.2980671 2.52695829,11.9877925 C2.52695829,10.6775178 2.77110885,9.44862665 3.25940997,8.30111902 C3.74771109,7.15361139 4.42522889,6.14649034 5.29196338,5.27975585 C6.15869786,4.41302136 7.16378433,3.73550356 8.30722279,3.24720244 C9.45066124,2.75890132 10.6775178,2.51475076 11.9877925,2.51475076 C13.3062055,2.51475076 14.5371312,2.75890132 15.6805697,3.24720244 C16.8240081,3.73550356 17.8290946,4.41302136 18.6958291,5.27975585 C19.5625636,6.14649034 20.242116,7.15361139 20.7344863,8.30111902 C21.2268566,9.44862665 21.4730417,10.6775178 21.4730417,11.9877925 C21.4811801,13.2980671 21.2390641,14.5269583 20.7466938,15.6744659 C20.2543235,16.8219736 19.5768057,17.8290946 18.7141404,18.6958291 C17.8514751,19.5625636 16.8463886,20.2400814 15.698881,20.7283825 C14.5513733,21.2166836 13.318413,21.4608342 12,21.4608342 Z" id="Shape"></path>
        </g>
    </g>
</svg>