<?xml version="1.0" encoding="UTF-8"?>
<svg width="24px" height="24px" viewBox="0 0 24 24" version="1.1" xmlns="http://www.w3.org/2000/svg" xmlns:xlink="http://www.w3.org/1999/xlink">
    <title>Icon/Fill/realestate-fill</title>
    <g id="Icon/Fill/realestate-fill" stroke="none" stroke-width="1" fill="none" fill-rule="evenodd">
        <g id="Group" transform="translate(1.000000, 0.000000)" fill="#474747" fill-rule="nonzero">
            <path d="M22,3.75333333 L22,1.62 L3.60666667,1.62 L3.60666667,0 L1.40666667,0 L1.40666667,1.62 L0,1.62 L0,3.75333333 L1.40666667,3.75333333 L1.40666667,24 L3.60666667,24 L3.60666667,3.75333333 L8.63,3.75333333 L8.63,6.6 L5.49333333,6.6 L5.49333333,15.06 C5.51158464,16.0694291 6.34387762,16.8733824 7.35333333,16.8566667 L19.5433333,16.8566667 C20.552789,16.8733824 21.385082,16.0694291 21.4033333,15.06 L21.4033333,6.6 L17.9333333,6.6 L17.9333333,3.75333333 L22,3.75333333 Z M15.7333333,3.75333333 L15.7333333,6.6 L10.83,6.6 L10.83,3.75333333 L15.7333333,3.75333333 Z" id="Shape"></path>
        </g>
    </g>
</svg>