<?xml version="1.0" encoding="UTF-8"?>
<svg width="24px" height="24px" viewBox="0 0 24 24" version="1.1" xmlns="http://www.w3.org/2000/svg" xmlns:xlink="http://www.w3.org/1999/xlink">
    <title>Icon/Rich text editor/redo</title>
    <g id="Icon/Rich-text-editor/redo" stroke="none" stroke-width="1" fill="none" fill-rule="evenodd">
        <path d="M11.6249723,23.2499446 C13.0937185,23.2499446 14.4999652,22.98432 15.8437122,22.4530715 C17.1874593,21.921823 18.3749562,21.1874495 19.4062037,20.2499517 C19.5312037,20.1562019 19.5937033,20.02339 19.5937033,19.8515152 C19.5937033,19.6796403 19.5468284,19.5468284 19.4530786,19.4530786 L19.4530786,19.4530786 L18.5155809,18.5155809 C18.4218311,18.4218311 18.2968311,18.3671435 18.1405817,18.3515187 C17.9843324,18.335894 17.8437077,18.3749562 17.7187078,18.468706 C16.9062099,19.2187042 15.9765242,19.7968276 14.9296519,20.2030768 C13.8827796,20.6093261 12.7812198,20.8124504 11.6249723,20.8124504 C9.96872647,20.8124504 8.43747988,20.3983891 7.03123324,19.5702658 C5.62498659,18.7421426 4.50780199,17.624958 3.67967873,16.2187113 C2.85155546,14.8124647 2.43749419,13.2812181 2.43749419,11.6249723 C2.43749419,9.96872647 2.85155546,8.43747988 3.67967873,7.03123324 C4.50780199,5.62498659 5.62498659,4.50780199 7.03123324,3.67967873 C8.43747988,2.85155546 9.96872647,2.43749419 11.6249723,2.43749419 C13.4687176,2.43749419 15.1405889,2.92968052 16.6405853,3.91405317 C18.1405817,4.89842582 19.2655791,6.20310997 20.0155773,7.82810634 L20.0155773,7.82810634 L14.0624665,7.68748167 C13.9062171,7.68748167 13.7734044,7.74216928 13.6640299,7.85154378 C13.5546554,7.96091828 13.4999678,8.09373094 13.4999678,8.24998033 L13.4999678,8.24998033 L13.4999678,9.5624772 C13.4999678,9.71872659 13.5546554,9.85153925 13.6640299,9.96091375 C13.7734044,10.0702883 13.9062171,10.1249759 14.0624665,10.1249759 L14.0624665,10.1249759 L23.062445,10.1249759 C23.2186944,10.1249759 23.3515071,10.0702883 23.4608816,9.96091375 C23.5702561,9.85153925 23.6249437,9.71872659 23.6249437,9.5624772 L23.6249437,9.5624772 L23.6249437,0.562498659 C23.6249437,0.40624927 23.5702561,0.27343661 23.4608816,0.164062109 C23.3515071,0.054687608 23.2186944,0 23.062445,0 L23.062445,0 L21.7499481,0 C21.5936988,0 21.4608861,0.054687608 21.3515116,0.164062109 C21.2421371,0.27343661 21.1874495,0.40624927 21.1874495,0.562498659 L21.1874495,0.562498659 L21.3280741,5.20311259 C20.2655764,3.60936639 18.8749552,2.34374441 17.1562091,1.40624665 C15.437463,0.468748882 13.5780929,0 11.5780974,0 C9.48435215,0 7.54685701,0.52343649 5.76561125,1.57030876 C3.9843655,2.61718102 2.57811885,4.03124039 1.54687131,5.81248614 C0.515623771,7.5937319 0,9.53903976 0,11.6484097 C0,13.7577797 0.52343649,15.6952748 1.57030876,17.4608959 C2.61718102,19.2265169 4.03124039,20.6327635 5.81248614,21.6796358 C7.5937319,22.7265081 9.53122704,23.2499446 11.6249723,23.2499446 Z" id="Color" fill="#474747"></path>
    </g>
</svg>