<?xml version="1.0" encoding="UTF-8"?>
<svg width="24px" height="24px" viewBox="0 0 24 24" version="1.1" xmlns="http://www.w3.org/2000/svg" xmlns:xlink="http://www.w3.org/1999/xlink">
    <title>Icon/Rich text editor/reduce indent</title>
    <g id="Icon/Rich-text-editor/reduce-indent" stroke="none" stroke-width="1" fill="none" fill-rule="evenodd">
        <path d="M22.4374513,22.6249508 C22.5937007,22.6249508 22.7265133,22.5702632 22.8358878,22.4608887 C22.9452623,22.3515142 22.9999499,22.2187016 22.9999499,22.0624522 L22.9999499,22.0624522 L22.9999499,20.5624557 C22.9999499,20.4062064 22.9452623,20.2733937 22.8358878,20.1640192 C22.7265133,20.0546447 22.5937007,19.9999571 22.4374513,19.9999571 L22.4374513,19.9999571 L2.56249866,19.9999571 C2.40624927,19.9999571 2.27343661,20.0546447 2.16406211,20.1640192 C2.05468761,20.2733937 2,20.4062064 2,20.5624557 L2,20.5624557 L2,22.0624522 C2,22.2187016 2.05468761,22.3515142 2.16406211,22.4608887 C2.27343661,22.5702632 2.40624927,22.6249508 2.56249866,22.6249508 L2.56249866,22.6249508 L22.4374513,22.6249508 Z M22.4374513,16.6249651 C22.5937007,16.6249651 22.7265133,16.5702775 22.8358878,16.460903 C22.9452623,16.3515285 22.9999499,16.2187159 22.9999499,16.0624665 L22.9999499,16.0624665 L22.9999499,14.56247 C22.9999499,14.4062207 22.9452623,14.273408 22.8358878,14.1640335 C22.7265133,14.054659 22.5937007,13.9999714 22.4374513,13.9999714 L22.4374513,13.9999714 L11.5624772,13.9999714 C11.4062278,13.9999714 11.2734152,14.054659 11.1640407,14.1640335 C11.0546662,14.273408 10.9999785,14.4062207 10.9999785,14.56247 L10.9999785,14.56247 L10.9999785,16.0624665 C10.9999785,16.2187159 11.0546662,16.3515285 11.1640407,16.460903 C11.2734152,16.5702775 11.4062278,16.6249651 11.5624772,16.6249651 L11.5624772,16.6249651 L22.4374513,16.6249651 Z M22.4374513,10.6249794 C22.5937007,10.6249794 22.7265133,10.5702918 22.8358878,10.4609173 C22.9452623,10.3515428 22.9999499,10.2187302 22.9999499,10.0624808 L22.9999499,10.0624808 L22.9999499,8.56248435 C22.9999499,8.40623496 22.9452623,8.2734223 22.8358878,8.1640478 C22.7265133,8.0546733 22.5937007,7.99998569 22.4374513,7.99998569 L22.4374513,7.99998569 L11.5624772,7.99998569 C11.4062278,7.99998569 11.2734152,8.0546733 11.1640407,8.1640478 C11.0546662,8.2734223 10.9999785,8.40623496 10.9999785,8.56248435 L10.9999785,8.56248435 L10.9999785,10.0624808 C10.9999785,10.2187302 11.0546662,10.3515428 11.1640407,10.4609173 C11.2734152,10.5702918 11.4062278,10.6249794 11.5624772,10.6249794 L11.5624772,10.6249794 L22.4374513,10.6249794 Z M6.73436371,17.3280885 C6.95311343,17.5780879 7.21873732,17.6405879 7.53123681,17.515588 C7.84373631,17.3905881 7.99998569,17.1562136 7.99998569,16.8124647 L7.99998569,16.8124647 L7.99998569,7.81248614 C7.99998569,7.4687372 7.84373631,7.23436276 7.53123681,7.10936282 C7.21873732,6.98436288 6.95311343,7.04686291 6.73436371,7.29686237 L6.73436371,7.29686237 L2.23437444,11.7968516 C2.07812505,11.9218516 2,12.0937257 2,12.3124754 C2,12.5312251 2.07812505,12.7030992 2.23437444,12.8280992 L2.23437444,12.8280992 L6.73436371,17.3280885 Z M22.4374513,4.62499374 C22.5937007,4.62499374 22.7265133,4.57030613 22.8358878,4.46093163 C22.9452623,4.35155713 22.9999499,4.21874447 22.9999499,4.06249508 L22.9999499,4.06249508 L22.9999499,2.56249866 C22.9999499,2.40624927 22.9452623,2.27343661 22.8358878,2.16406211 C22.7265133,2.05468761 22.5937007,2 22.4374513,2 L22.4374513,2 L2.56249866,2 C2.40624927,2 2.27343661,2.05468761 2.16406211,2.16406211 C2.05468761,2.27343661 2,2.40624927 2,2.56249866 L2,2.56249866 L2,4.06249508 C2,4.21874447 2.05468761,4.35155713 2.16406211,4.46093163 C2.27343661,4.57030613 2.40624927,4.62499374 2.56249866,4.62499374 L2.56249866,4.62499374 L22.4374513,4.62499374 Z" id="Color" fill="#474747"></path>
    </g>
</svg>