<svg width="24" height="24" viewBox="0 0 24 24" fill="none" xmlns="http://www.w3.org/2000/svg">
<path d="M20.25 1.5H18V6H6V1.5H3.75C2.92333 1.5 2.25 2.17333 2.25 3V22.5C2.25 23.3267 2.92333 24 3.75 24H20.25C21.0767 24 21.75 23.3267 21.75 22.5V3C21.75 2.17333 21.0767 1.5 20.25 1.5ZM15.75 19.6167L12 15.8667L8.25 19.6167L6.71667 18.0867L10.4667 14.3367L6.71667 10.5867L8.25 9.05333L12 12.8033L15.75 9.05333L17.2833 10.5867L13.5333 14.3367L17.2833 18.0867L15.75 19.6167Z" fill="black"/>
<path d="M15 0H9V3H15V0Z" fill="black"/>
</svg>
