<svg width="24" height="25" viewBox="0 0 24 25" fill="none" xmlns="http://www.w3.org/2000/svg">
<g id="Fill=true">
<path id="Vector" d="M24 16.6202V0H12.1851C11.7985 0 11.4403 0.146954 11.1641 0.425373C10.8741 0.717701 10.7641 1.08698 10.7641 1.43239C10.7641 1.78027 10.8737 2.12428 11.1164 2.40959L11.1622 2.46349L11.2157 2.50969C11.4987 2.75424 11.84 2.86479 12.1851 2.86479H21.18V13.7554H5.31634L10.3937 8.55152L10.4795 8.42173C10.6594 8.16121 10.7543 7.84733 10.7263 7.51111C10.712 7.14455 10.5593 6.8277 10.3291 6.58541C10.0536 6.27777 9.68352 6.13566 9.30644 6.13566C8.87546 6.13566 8.52886 6.33691 8.28778 6.60324L0 15.0771L8.42429 23.6895L8.4886 23.7358C8.76287 23.9332 9.09839 24.0335 9.45747 23.9899C9.77885 23.9527 10.0838 23.8165 10.3274 23.5709L10.4469 23.4504L10.491 23.3883C10.7027 23.0895 10.782 22.7414 10.7439 22.3955L10.7424 22.3829C10.7024 22.0604 10.5627 21.7851 10.3752 21.5645L10.3544 21.54L5.54045 16.6202H24Z" fill="#474747"/>
</g>
</svg>
