<svg width="24" height="24" viewBox="0 0 24 24" fill="none" xmlns="http://www.w3.org/2000/svg">
<path d="M5.38333 19.6633C9.63667 23.89 16.5567 23.89 20.81 19.6633C25.0633 15.4367 25.0633 8.56332 20.81 4.33666C16.5567 0.10999 9.63667 0.10999 5.38333 4.33666L3.26667 6.43999V4.30332C3.26667 3.40666 2.53667 2.67999 1.63333 2.67999C0.73 2.67999 0 3.40666 0 4.30332V11.9767H7.72333C8.62667 11.9767 9.35667 11.25 9.35667 10.3533C9.35667 9.90666 9.17667 9.49999 8.88 9.20666C8.58333 8.91332 8.17667 8.73332 7.72333 8.73332H5.57333L7.69 6.62999C10.67 3.66999 15.52 3.66999 18.5 6.62999C21.48 9.58999 21.48 14.41 18.5 17.37C15.52 20.33 10.67 20.33 7.69 17.37C7.05333 16.7367 6.01667 16.7367 5.38 17.37C4.74333 18.0033 4.74333 19.03 5.38 19.6633M16.5333 16.41L11.2267 13.4L11.15 7.53999L13.4833 7.50999L13.54 12.0433L17.6867 14.3933L16.53 16.4067L16.5333 16.41Z" fill="black"/>
</svg>
