<svg width="24" height="24" viewBox="0 0 24 24" fill="none" xmlns="http://www.w3.org/2000/svg">
<g clip-path="url(#clip0_15805_63852)">
<path d="M11.9998 4.97501C9.70984 4.97501 7.84984 6.84501 7.84984 9.14501C7.84984 11.445 9.71317 13.315 11.9998 13.315C14.2865 13.315 16.1498 11.445 16.1498 9.14501C16.1498 6.84501 14.2865 4.97501 11.9998 4.97501ZM11.5498 12.0017V8.36835H10.1432V7.51168C10.3398 7.51835 10.5298 7.50168 10.7165 7.46835C10.8998 7.43501 11.0665 7.37168 11.2132 7.28501C11.3598 7.19835 11.4832 7.08168 11.5865 6.93835C11.6865 6.79501 11.7532 6.61501 11.7865 6.40168H12.6898V12.0017H11.5498Z" fill="black"/>
<path d="M19.7332 14.7017L19.4065 11.5617L21.5698 9.14501L19.4065 6.72835L19.7432 3.49501L16.5765 2.81835L14.9865 0.0516785L14.9598 0.00167847L12.0032 1.32835L9.09317 0.0250118L9.04317 0.00167847L7.4265 2.81835L4.25984 3.49501L4.5965 6.72835L2.43317 9.14501L4.5965 11.5617L4.26984 14.7017L0.716504 20.5017L0.666504 20.585L4.24317 20.965L6.19317 23.9983L9.93317 17.8883L11.9998 16.9617L14.0665 17.8883L17.7565 23.915L17.8065 23.9983L19.7565 20.965L23.3332 20.585L19.7332 14.7017ZM6.1665 21.205L5.1065 19.5583L3.1665 19.3517L5.75984 15.115L7.42984 15.4717L8.5165 17.365L6.1665 21.2017V21.205ZM12.0032 14.8083C8.8965 14.8083 6.3665 12.2683 6.3665 9.14501C6.3665 6.02168 8.89317 3.48168 12.0032 3.48168C15.1132 3.48168 17.6398 6.02168 17.6398 9.14501C17.6398 12.2683 15.1132 14.8083 12.0032 14.8083ZM18.8998 19.5583L17.8398 21.205L15.4898 17.3683L16.5765 15.475L18.2465 15.1183L20.8398 19.355L18.8998 19.5617V19.5583Z" fill="black"/>
</g>
<defs>
<clipPath id="clip0_15805_63852">
<rect width="24" height="24" fill="white"/>
</clipPath>
</defs>
</svg>
