<svg width="24" height="24" viewBox="0 0 24 24" fill="none" xmlns="http://www.w3.org/2000/svg">
<g clip-path="url(#clip0_15805_63855)">
<path d="M11.9998 4.97501C9.70984 4.97501 7.84984 6.84501 7.84984 9.14501C7.84984 11.445 9.71317 13.315 11.9998 13.315C14.2865 13.315 16.1498 11.445 16.1498 9.14501C16.1498 6.84501 14.2865 4.97501 11.9998 4.97501ZM9.8865 11.8383C9.8865 11.5117 9.93317 11.2317 10.0265 10.9917C10.1198 10.7517 10.2465 10.5383 10.4065 10.3483C10.5665 10.1583 10.7532 9.98501 10.9698 9.82501C11.1865 9.66501 11.4132 9.50168 11.6532 9.33835C11.7765 9.25168 11.9065 9.16501 12.0465 9.07835C12.1865 8.99168 12.3098 8.89168 12.4265 8.78501C12.5398 8.67835 12.6365 8.55835 12.7132 8.42501C12.7898 8.29168 12.8298 8.13835 12.8298 7.96835C12.8298 7.69501 12.7498 7.48501 12.5932 7.33168C12.4365 7.17835 12.2332 7.10501 11.9898 7.10501C11.8232 7.10501 11.6832 7.14501 11.5698 7.22168C11.4565 7.29835 11.3632 7.40168 11.2932 7.52501C11.2232 7.64835 11.1732 7.78835 11.1465 7.94168C11.1198 8.09501 11.1032 8.24501 11.1032 8.39501H10.0165C10.0065 8.07501 10.0432 7.77835 10.1298 7.50168C10.2165 7.22501 10.3432 6.98835 10.5132 6.78168C10.6832 6.57501 10.8998 6.41501 11.1565 6.30168C11.4165 6.18835 11.7132 6.12835 12.0498 6.12835C12.3065 6.12835 12.5498 6.16835 12.7832 6.24835C13.0165 6.32835 13.2198 6.44168 13.3965 6.59168C13.5732 6.74168 13.7132 6.92501 13.8165 7.14501C13.9198 7.36501 13.9732 7.60835 13.9732 7.88168C13.9732 8.15501 13.9265 8.40835 13.8365 8.60835C13.7465 8.81168 13.6265 8.99168 13.4765 9.14835C13.3265 9.30501 13.1565 9.44835 12.9698 9.57501C12.7798 9.70168 12.5898 9.82835 12.3965 9.95501C12.2032 10.0817 12.0165 10.215 11.8365 10.3583C11.6565 10.5017 11.4965 10.6717 11.3565 10.8617H14.0032V11.8383H9.8865Z" fill="black"/>
<path d="M19.7332 14.7017L19.4065 11.5617L21.5698 9.14501L19.4065 6.72835L19.7432 3.49501L16.5765 2.81835L14.9865 0.0516785L14.9598 0.00167847L12.0032 1.32835L9.09317 0.0250118L9.04317 0.00167847L7.4265 2.81835L4.25984 3.49501L4.5965 6.72835L2.43317 9.14501L4.5965 11.5617L4.26984 14.7017L0.716504 20.5017L0.666504 20.585L4.24317 20.965L6.19317 23.9983L9.93317 17.8883L11.9998 16.9617L14.0665 17.8883L17.7565 23.915L17.8065 23.9983L19.7565 20.965L23.3332 20.585L19.7332 14.7017ZM6.1665 21.205L5.1065 19.5583L3.1665 19.3517L5.75984 15.115L7.42984 15.4717L8.5165 17.365L6.1665 21.2017V21.205ZM12.0032 14.8083C8.8965 14.8083 6.3665 12.2683 6.3665 9.14501C6.3665 6.02168 8.89317 3.48168 12.0032 3.48168C15.1132 3.48168 17.6398 6.02168 17.6398 9.14501C17.6398 12.2683 15.1132 14.8083 12.0032 14.8083ZM18.8998 19.5583L17.8398 21.205L15.4898 17.3683L16.5765 15.475L18.2465 15.1183L20.8398 19.355L18.8998 19.5617V19.5583Z" fill="black"/>
</g>
<defs>
<clipPath id="clip0_15805_63855">
<rect width="24" height="24" fill="white"/>
</clipPath>
</defs>
</svg>
