<svg width="24" height="24" viewBox="0 0 24 24" fill="none" xmlns="http://www.w3.org/2000/svg">
<g clip-path="url(#clip0_15805_63858)">
<path d="M19.7332 14.7017L19.4065 11.5617L21.5698 9.14501L19.4065 6.72835L19.7432 3.49501L16.5765 2.81835L14.9865 0.0516785L14.9598 0.00167847L12.0032 1.32835L9.09317 0.0250118L9.04317 0.00167847L7.4265 2.81835L4.25984 3.49501L4.5965 6.72835L2.43317 9.14501L4.5965 11.5617L4.26984 14.7017L0.716504 20.5017L0.666504 20.585L4.24317 20.965L6.19317 23.9983L9.93317 17.8883L11.9998 16.9617L14.0665 17.8883L17.7565 23.915L17.8065 23.9983L19.7565 20.965L23.3332 20.585L19.7332 14.7017ZM6.1665 21.205L5.1065 19.5583L3.1665 19.3517L5.75984 15.115L7.42984 15.4717L8.5165 17.365L6.1665 21.2017V21.205ZM12.0032 14.8083C8.8965 14.8083 6.3665 12.2683 6.3665 9.14501C6.3665 6.02168 8.89317 3.48168 12.0032 3.48168C15.1132 3.48168 17.6398 6.02168 17.6398 9.14501C17.6398 12.2683 15.1132 14.8083 12.0032 14.8083ZM18.8998 19.5583L17.8398 21.205L15.4898 17.3683L16.5765 15.475L18.2465 15.1183L20.8398 19.355L18.8998 19.5617V19.5583ZM11.9998 4.97501C9.70984 4.97501 7.84984 6.84501 7.84984 9.14501C7.84984 11.445 9.71317 13.315 11.9998 13.315C14.2865 13.315 16.1498 11.445 16.1498 9.14501C16.1498 6.84501 14.2865 4.97501 11.9998 4.97501ZM13.9098 11.0583C13.7965 11.2883 13.6432 11.4783 13.4498 11.635C13.2565 11.7883 13.0365 11.9083 12.7865 11.9883C12.5365 12.0683 12.2732 12.1083 12.0032 12.1083C11.6898 12.1083 11.4032 12.0617 11.1432 11.9717C10.8832 11.8817 10.6632 11.7483 10.4832 11.575C10.3032 11.4017 10.1632 11.1883 10.0632 10.9383C9.96317 10.6883 9.9165 10.3983 9.92317 10.075H11.0032C11.0098 10.225 11.0332 10.3683 11.0765 10.5017C11.1198 10.635 11.1798 10.755 11.2598 10.855C11.3398 10.955 11.4398 11.0317 11.5598 11.0917C11.6798 11.1517 11.8232 11.1783 11.9865 11.1783C12.2432 11.1783 12.4598 11.0983 12.6332 10.9417C12.8098 10.785 12.8965 10.5683 12.8965 10.2983C12.8965 10.085 12.8565 9.92168 12.7732 9.81168C12.6898 9.70168 12.5865 9.61835 12.4565 9.56835C12.3265 9.51835 12.1898 9.48835 12.0365 9.48168C11.8832 9.47501 11.7398 9.46835 11.5998 9.46835V8.66835C11.7232 8.67835 11.8532 8.67835 11.9932 8.66835C12.1332 8.65835 12.2598 8.62835 12.3798 8.57501C12.4998 8.52501 12.5998 8.45168 12.6765 8.35501C12.7532 8.25835 12.7932 8.13168 12.7932 7.97168C12.7932 7.73168 12.7132 7.54835 12.5532 7.41835C12.3932 7.29168 12.2098 7.22501 11.9998 7.22501C11.7132 7.22501 11.4932 7.31835 11.3465 7.50835C11.1998 7.69835 11.1298 7.93501 11.1332 8.22501H10.0532C10.0632 7.93835 10.1165 7.67501 10.2098 7.43835C10.3032 7.20168 10.4332 6.99835 10.6032 6.82501C10.7698 6.65501 10.9732 6.52168 11.2065 6.42835C11.4398 6.33501 11.7032 6.28835 11.9898 6.28835C12.2132 6.28835 12.4365 6.32168 12.6632 6.38835C12.8898 6.45501 13.0898 6.55501 13.2665 6.68835C13.4465 6.82168 13.5898 6.98501 13.7032 7.17501C13.8165 7.36835 13.8698 7.58835 13.8698 7.83835C13.8698 8.11168 13.8032 8.35168 13.6732 8.55835C13.5432 8.76501 13.3465 8.90835 13.0865 8.98168V8.99835C13.3965 9.06835 13.6398 9.21835 13.8132 9.44501C13.9898 9.67501 14.0765 9.94835 14.0765 10.2683C14.0765 10.5617 14.0198 10.8217 13.9032 11.0517L13.9098 11.0583Z" fill="black"/>
</g>
<defs>
<clipPath id="clip0_15805_63858">
<rect width="24" height="24" fill="white"/>
</clipPath>
</defs>
</svg>
