<?xml version="1.0" encoding="UTF-8"?>
<svg width="24px" height="24px" viewBox="0 0 24 24" version="1.1" xmlns="http://www.w3.org/2000/svg" xmlns:xlink="http://www.w3.org/1999/xlink">
    <title>Icon/Fill/right-chevron-circle-fill</title>
    <g id="Icon/Fill/right-chevron-circle-fill" stroke="none" stroke-width="1" fill="none" fill-rule="evenodd">
        <g id="Group" transform="translate(-0.000000, -0.000000)" fill="#474747" fill-rule="nonzero">
            <g id="right-chevron-circle">
                <path d="M12,24 C5.37300002,24 0,18.6270001 0,12 C0,5.37300002 5.37300002,0 12,0 C18.6270001,0 24,5.37300002 24,12 C24,18.6270001 18.6270001,24 12,24 Z M11.71065,6.73920003 C11.12415,6.15270003 10.17465,6.15270003 9.58965004,6.73920003 C9.00315004,7.32570003 9.00315004,8.27520003 9.58965004,8.86020004 L12.7291501,11.9997 L9.58965004,15.1392001 C9.00315004,15.7257001 9.00315004,16.6752001 9.58965004,17.2602001 C10.17465,17.8467001 11.12415,17.8467001 11.71065,17.2602001 L16.9711501,11.9997 L11.71065,6.73920003 Z" id="Combined-Shape"></path>
            </g>
        </g>
    </g>
</svg>