<?xml version="1.0" encoding="UTF-8"?>
<svg width="24px" height="24px" viewBox="0 0 24 24" version="1.1" xmlns="http://www.w3.org/2000/svg" xmlns:xlink="http://www.w3.org/1999/xlink">
    <title>Icon/Fill/savemoney-fill</title>
    <g id="Icon/Fill/savemoney-fill" stroke="none" stroke-width="1" fill="none" fill-rule="evenodd">
        <g id="Group" transform="translate(3.000000, 0.000000)" fill="#474747" fill-rule="nonzero">
            <path d="M15.3336019,0 L15.3336019,3 L17.0436019,4.23 C17.1963659,4.33982095 17.2968876,4.50565824 17.3253463,4.68853849 L17.3336155,4.8 L17.3336155,23.3033333 C17.3353011,23.6531585 17.0775564,23.9439514 16.740647,23.9928105 L16.6469353,24 L0.686935272,24 C0.337122116,23.9966404 0.0500858352,23.7347196 0.00599599299,23.3971392 L0.000130320065,23.3033333 L0.000130320065,4.8 C-0.00373284968,4.5998777 0.0784714398,4.40945451 0.222949973,4.27542968 L0.300268606,4.21333333 L2.00026861,3.06 L2.00026861,0 L15.3336019,0 Z M7.80026861,11.4933333 C4.76360194,11.4933333 3.17693527,12.7566667 3.17693527,14.0033333 C3.17693527,14.8266667 3.87693527,15.6533333 5.21026861,16.1233333 C5.19360194,16.1933333 5.19360194,16.2633333 5.19360194,16.3333333 C5.19397703,16.4906377 5.21871472,16.6469349 5.26693527,16.7966667 C4.26360194,17.2833333 3.74693527,17.9966667 3.74693527,18.71 C3.78942085,19.3680501 4.15354398,19.9628677 4.72026861,20.3 C4.56106992,20.5528185 4.47457403,20.8445979 4.47026861,21.1433333 C4.48821053,21.5906505 4.66931564,22.013819 4.97608113,22.3346417 L5.09693527,22.45 L13.0969353,22.45 C13.4767292,22.1192339 13.7034173,21.6465651 13.7236019,21.1433333 C13.6811164,20.4852832 13.3169932,19.8904656 12.7502686,19.5533333 C12.9085306,19.3000918 12.9949472,19.0085796 13.0002686,18.71 C12.9985082,18.5490104 12.9715136,18.3892926 12.9202686,18.2366667 C13.9236019,17.7533333 14.4402686,17.0366667 14.4402686,16.33 C14.4402686,15.5066667 13.7402686,14.68 12.4069353,14.21 C12.4174496,14.1404822 12.4230191,14.070306 12.4236019,14 C12.4236019,12.75 10.8369353,11.4933333 7.80026861,11.4933333 Z M11.5469353,20.5833333 L11.6896513,20.653786 C12.0478406,20.842428 12.2269353,21.0337037 12.2269353,21.1433333 C12.2269353,21.4066667 11.1536019,22.1633333 9.09693527,22.1633333 L9.09693527,22.1633333 C7.04026861,22.1633333 5.96026861,21.4066667 5.96026861,21.1433333 C5.97929961,21.0583551 6.02769413,20.9828124 6.09693527,20.93 L6.4697109,21.0224531 C7.09408666,21.1619446 7.73301753,21.2283413 8.37360194,21.22 C8.48287567,21.2235524 8.59208332,21.2245705 8.70113982,21.2230713 L9.02777085,21.2110389 C9.89712419,21.1589053 10.7513612,20.9467579 11.5469353,20.5833333 Z M6.31693527,18 C7.09360194,18.5066667 8.27360194,18.84 9.84026861,18.84 C10.2542542,18.8411808 10.6676343,18.8133442 11.0773781,18.7567692 L11.395,18.704 L11.5069353,18.6866667 L11.5069353,18.6866667 L11.5069353,18.71 C11.5069353,18.9522957 10.6151804,19.6150707 8.87061892,19.7194223 C8.70491844,19.730754 8.53137972,19.7366667 8.35026861,19.7366667 C6.38249083,19.7366667 5.33005449,19.0356192 5.24576774,18.7454294 L5.24026861,18.7133333 C5.24026861,18.56 5.60026861,18.2466667 6.29360194,18.0033333 L6.299,18.006 Z M11.5502686,15.51 C12.4736019,15.7566667 12.9502686,16.15 12.9502686,16.3233333 L12.949,16.327 C12.9502686,16.5823611 11.9614549,17.2908623 10.0689074,17.3494659 L9.81693527,17.3533333 C8.03360194,17.3533333 6.98693527,16.79 6.74360194,16.4566667 C6.74459882,16.4567758 6.74559572,16.4568848 6.74659263,16.4569937 L6.74360194,16.4533333 C7.0945045,16.4917571 7.44726925,16.5106751 7.80026861,16.51 C8.77339361,16.51 9.60097173,16.3792188 10.2723243,16.1603711 L10.4844483,16.0860872 C10.7991158,15.9683008 11.0761446,15.8303392 11.3151036,15.6775934 C11.398471,15.6231822 11.4768606,15.5674214 11.5502686,15.51 Z M7.80026861,12.98 C9.77124083,12.98 10.8421783,13.6718634 10.9280013,13.9642216 L10.9336019,14 C10.9336019,14.0169444 10.9290291,14.0360267 10.9199101,14.0568961 C10.8264823,14.2777358 10.2350599,14.6887273 9.17975495,14.8963335 C9.15832659,14.8998829 9.13643046,14.9040889 9.11433794,14.9082052 C8.93842109,14.9414277 8.75030283,14.9683338 8.54993983,14.9878601 C8.31660648,15.0105271 8.06665812,15.0233333 7.80026861,15.0233333 C5.74360194,15.0233333 4.66693527,14.2666667 4.66693527,14 C4.66693527,13.8271532 5.12067733,13.4498424 5.99911408,13.2057431 C6.04603904,13.1930707 6.09408227,13.1804118 6.14333123,13.1681831 C6.34937852,13.1167912 6.57662798,13.0732234 6.82463721,13.040945 L6.87854055,13.0342297 L6.87854055,13.0342297 C7.15999525,12.9998051 7.46733748,12.98 7.80026861,12.98 Z M13.8602686,1.49666667 L12.6269353,1.49666667 L12.6269353,2.66666667 L13.8602686,2.66666667 L13.8602686,1.49666667 Z M11.1436019,1.49666667 L9.40693527,1.49666667 L9.40693527,2.66666667 L11.1436019,2.66666667 L11.1436019,1.49666667 Z M7.92693527,1.49666667 L6.23693527,1.49666667 L6.23693527,2.66666667 L7.92693527,2.66666667 L7.92693527,1.49666667 Z M4.75360194,1.49666667 L3.48360194,1.49666667 L3.48360194,2.66666667 L4.75360194,2.66666667 L4.75360194,1.49666667 Z" id="Combined-Shape"></path>
        </g>
    </g>
</svg>