<?xml version="1.0" encoding="UTF-8"?>
<svg width="24px" height="24px" viewBox="0 0 24 24" version="1.1" xmlns="http://www.w3.org/2000/svg" xmlns:xlink="http://www.w3.org/1999/xlink">
    <title>Icon/Fill/savings-fill</title>
    <g id="Icon/Fill/savings-fill" stroke="none" stroke-width="1" fill="none" fill-rule="evenodd">
        <g id="Group" fill="#474747" fill-rule="nonzero">
            <path d="M23.2802083,14.1733861 C23.2845306,14.0489704 23.2721992,13.9245354 23.2435418,13.803388 L22.9368768,12.7500604 L22.9368768,12.7100606 C21.6435504,9.19007946 17.5102393,6.73009266 12.8702642,6.73009266 C11.219255,6.73836992 9.57403988,6.92613903 7.96362383,7.29008965 C7.08732331,6.63494653 6.02108303,6.2838246 4.92697345,6.29009502 C4.05874584,6.2785079 3.20450407,6.50938405 2.46032002,6.95675811 C2.16008958,7.15305488 1.95161695,7.46204356 1.8819926,7.81392875 C1.81236826,8.16581394 1.88746582,8.5309101 2.09032201,8.82674807 L3.11698316,10.2867402 C2.69131362,10.7716799 2.32639754,11.3067409 2.03032233,11.880065 L0.920328282,12.2133966 C0.365998425,12.3838979 -0.00897982803,12.9001723 0.000163580142,13.4800564 L0.000163580142,16.55004 C-0.00413666171,17.1253696 0.370104659,17.6352056 0.920328282,17.8033666 L2.03698896,18.1366981 C2.48365323,18.9533604 3.08698332,19.2400255 3.78697957,19.5700238 C4.14437748,19.7301032 4.49069988,19.9138434 4.82364067,20.1200208 L5.82363531,23.0566717 C5.97925849,23.61037 6.48183328,23.9947719 7.05696203,24 L10.100279,24 C10.6700412,23.9947742 11.1699988,23.6191304 11.3336057,23.0733383 L11.6969371,21.8700114 C11.7875356,21.9051562 11.8686043,21.961105 11.9336025,22.0333439 C12.0102688,22.1033435 12.0702685,22.1566766 12.1302681,22.1566766 L12.1302681,22.1566766 C13.1879372,22.2155559 14.2488504,22.1472904 15.2902512,21.9533443 L15.6235827,22.9866721 C15.7621713,23.5710317 16.2830114,23.9843969 16.883576,23.9866667 L19.8602267,23.9866667 C20.4593664,23.9889665 20.9824819,23.5814871 21.1268865,23.0000054 L22.8235441,17.5700345 C23.1585468,16.760367 23.331804,15.8929484 23.3335414,15.0167149 C23.332594,14.7347933 23.3147845,14.4531809 23.2802083,14.1733861 Z M10.5202768,11.4000676 L9.90361342,9.82340939 L9.9636131,9.79674287 C11.8376322,9.1678152 13.8732264,9.21855754 15.7135822,9.94007543 L15.7769152,9.96340864 L15.1802518,11.5500668 L15.1169188,11.5267336 C13.6648979,10.9665272 12.0661309,10.9136657 10.5802765,11.3767344 L10.5202768,11.4000676 Z M5.1336346,12.9100595 C5.13915173,12.1971028 5.72061195,11.6230821 6.43358053,11.6267327 C7.1465491,11.6304182 7.72207229,12.2103913 7.72025323,12.923367 C7.71842553,13.6363427 7.13994341,14.2133858 6.42696541,14.2133858 C5.71030155,14.209713 5.13179198,13.6267327 5.1336346,12.9100595 L5.1336346,12.9100595 Z" id="Shape"></path>
            <path d="M12.8402643,0.000128762785 C11.7131984,-0.0106821698 10.691146,0.660103403 10.2526361,1.6984211 C9.81412614,2.7367388 10.0459539,3.93707219 10.8395766,4.73742056 C11.6331994,5.53776893 12.8315337,5.77971763 13.8735149,5.34998534 C14.9154961,4.92025305 15.5948825,3.90389761 15.5936015,2.77678053 C15.5991188,1.25009294 14.3669443,0.00747630507 12.8402643,0.000128762785 L12.8402643,0.000128762785 Z" id="Path"></path>
        </g>
    </g>
</svg>