<?xml version="1.0" encoding="UTF-8"?>
<svg width="24px" height="24px" viewBox="0 0 24 24" version="1.1" xmlns="http://www.w3.org/2000/svg" xmlns:xlink="http://www.w3.org/1999/xlink">
    <title>Icon/Fill/screen-mirroring-fill</title>
    <g id="Icon/Fill/screen-mirroring-fill" stroke="none" stroke-width="1" fill="none" fill-rule="evenodd">
        <g id="Group" transform="translate(0.000000, 3.000000)" fill="#474747" fill-rule="nonzero">
            <path d="M3.99996836,11.7699145 C2.78193253,11.0733393 1.40314942,10.7068128 0,10.7065896 L0,12.166578 C3.59806296,12.1610352 6.52191824,15.0684894 6.53661496,18.6665266 L7.99993671,18.6665266 C7.99623815,15.8176597 6.47093802,13.1877881 3.99996836,11.7699145 L3.99996836,11.7699145 Z" id="Path"></path>
            <path d="M0,13.3799018 L0,14.8432235 C1.37008468,14.8478645 2.63651819,15.5735309 3.33330696,16.7532084 C3.67347784,17.3336493 3.85402955,17.9937555 3.85663616,18.6665266 L5.33329236,18.6665266 C5.33392496,17.7373418 5.08652235,16.8248289 4.61663015,16.0232142 C3.65493736,14.3862242 1.89857543,13.3805961 0,13.3799018 Z" id="Path"></path>
            <path d="M0,16.0532067 L0.0166665348,18.6665266 L2.6333125,18.6665266 C2.6390532,18.2092389 2.52407561,17.7585268 2.29998181,17.3598703 C1.81860289,16.5479629 0.943882669,16.0510204 0,16.0532067 Z" id="Path"></path>
            <path d="M23.2631493,0 L0.756660681,0 C0.56216952,-0.000878439255 0.375292442,0.0755341423 0.237141298,0.212435049 C0.0989901549,0.349335956 0.0208818834,0.535510667 0.0199998418,0.730001846 L0,9.58326514 C1.47489116,9.58422325 2.92793447,9.93976729 4.23663315,10.6199236 L4.23663315,4.28664038 L19.7365105,4.28664038 L19.7365105,14.3332276 L8.0399364,14.3332276 L8.0399364,14.3332276 C8.77139358,15.660627 9.15658176,17.1509384 9.15992754,18.6665351 L23.2631493,18.6665351 C23.4611397,18.6674778 23.6511018,18.5883291 23.7898426,18.4470772 C23.9285834,18.3058252 24.0043123,18.1144741 24,17.9165326 L24,0.730001846 C23.9989281,0.535510667 23.9208198,0.349335956 23.7826687,0.212435049 C23.6445175,0.0755341423 23.4576405,-0.000878439255 23.2631493,0 Z" id="Path"></path>
        </g>
    </g>
</svg>