<svg width="24" height="24" viewBox="0 0 24 24" fill="none" xmlns="http://www.w3.org/2000/svg">
<g clip-path="url(#clip0_15805_63864)">
<path d="M16.68 13.5083C17.47 12.175 17.93 10.6217 17.93 8.96499C17.9333 4.02165 13.91 -0.00167847 8.96667 -0.00167847C4.02333 -0.00167847 0 4.02165 0 8.96499C0 13.9083 4.02333 17.9317 8.96667 17.9317C10.6267 17.9317 12.1767 17.4717 13.5133 16.6817L20.83 24.0017L24 20.8317L16.68 13.5117V13.5083ZM5.77 12.1817L4.71 11.1217L6.83333 8.99832L4.71333 6.87832L6.83333 4.75832L8.95333 6.87832L11.0733 4.75832L12.1333 5.81832L13.1933 6.87832L11.0733 8.99832L13.1933 11.1183L11.0733 13.2383L8.95333 11.1183L6.83 13.2417L5.77 12.1817Z" fill="black"/>
</g>
<defs>
<clipPath id="clip0_15805_63864">
<rect width="24" height="24" fill="white"/>
</clipPath>
</defs>
</svg>
