<svg width="24" height="24" viewBox="0 0 24 24" fill="none" xmlns="http://www.w3.org/2000/svg">
<path d="M17.2775 15.2867C17.0442 14.1 15.4542 14.0733 15.1208 14.08C14.9575 13.6267 14.1475 13.1133 13.2942 13.1133C13.0442 13.1133 12.8108 13.16 12.6008 13.25C12.0975 12.6967 11.5308 12.4167 10.9108 12.4167C10.6142 12.4167 10.3775 12.4833 10.2442 12.5233L10.2075 8.53C10.1775 8.04667 10.1008 6.76667 9.10083 6.74333C9.06083 6.74333 8.1275 6.71 7.84083 6.79333C6.72416 7.10667 6.84083 8.62333 6.84083 8.62667C6.8675 10.7267 6.87083 13.89 6.79083 14.3267C5.68416 14.2867 5.4575 14.76 5.33416 16.1967V17.5133C5.31416 18.2367 5.4675 19.32 6.30416 20.3833C6.31416 20.3933 7.17416 21.4667 7.17416 22.7733C7.1575 23.3667 7.65416 23.8733 8.28416 23.9L15.2542 24C15.5342 24 15.8008 23.9 16.0075 23.7267C16.2475 23.5233 16.3808 23.24 16.3875 22.92C16.4075 22.2767 16.7742 20.4867 17.0442 19.18C17.2208 18.3233 17.3575 17.6467 17.3708 17.4567C17.4508 16.1133 17.4375 16.0433 17.3342 15.5733C17.3175 15.4933 17.2975 15.4 17.2742 15.29L17.2775 15.2867ZM16.2408 4.82C17.5775 4.82 18.6675 3.74 18.6675 2.41C18.6675 1.08 17.5775 0 16.2408 0C14.9042 0 13.8142 1.08 13.8142 2.41C13.8142 3.74 14.9042 4.82 16.2408 4.82ZM15.4475 2.41C15.4475 1.97667 15.8042 1.62333 16.2408 1.62333C16.6775 1.62333 17.0342 1.97667 17.0342 2.41C17.0342 2.84333 16.6775 3.19667 16.2408 3.19667C15.8042 3.19667 15.4475 2.84333 15.4475 2.41ZM8.3875 4.82C9.72416 4.82 10.8142 3.74 10.8142 2.41C10.8142 1.08 9.72416 0 8.3875 0C7.05083 0 5.96083 1.08 5.96083 2.41C5.96083 3.74 7.05083 4.82 8.3875 4.82ZM7.59416 2.41C7.59416 1.97667 7.95083 1.62333 8.3875 1.62333C8.82416 1.62333 9.18083 1.97667 9.18083 2.41C9.18083 2.84333 8.82416 3.19667 8.3875 3.19667C7.95083 3.19667 7.59416 2.84333 7.59416 2.41ZM16.2408 6.71C14.9042 6.71 13.8142 7.79 13.8142 9.12C13.8142 10.45 14.9042 11.53 16.2408 11.53C17.5775 11.53 18.6675 10.45 18.6675 9.12C18.6675 7.79 17.5775 6.71 16.2408 6.71ZM17.0342 9.12C17.0342 9.55333 16.6775 9.90667 16.2408 9.90667C15.8042 9.90667 15.4475 9.55333 15.4475 9.12C15.4475 8.68667 15.8042 8.33 16.2408 8.33C16.6775 8.33 17.0342 8.68333 17.0342 9.12Z" fill="black"/>
</svg>
