<?xml version="1.0" encoding="UTF-8"?>
<svg width="24px" height="24px" viewBox="0 0 24 24" version="1.1" xmlns="http://www.w3.org/2000/svg" xmlns:xlink="http://www.w3.org/1999/xlink">
    <title>Icon/Fill/serenity-space-fill</title>
    <g id="Icon/Fill/serenity-space-fill" stroke="none" stroke-width="1" fill="none" fill-rule="evenodd">
        <g id="Group" transform="translate(1.000000, 0.000000)" fill="#474747" fill-rule="nonzero">
            <path d="M5.94415656,24 L5.51743079,23.7366302 L0.493401666,20.6061966 L0,20.2961537 L0.373385045,19.8494252 C1.17001621,18.8352791 1.91334588,17.7803741 2.60036013,16.6889875 C2.57368977,16.5689709 2.53368423,16.3756107 2.46700833,16.0755692 C2.29031719,15.2787922 1.9469363,13.6985733 1.26684212,10.5714736 C1.20663994,10.2715407 1.25384477,9.95998886 1.40019392,9.69135168 C1.52354433,9.46131983 2.86039615,7.02431565 7.43436294,0.663434712 C8.98791143,-1.00346281 11.0315278,0.810121694 10.101399,2.37700536 C9.60799731,3.2237893 7.70440034,5.95083365 5.66745157,9.16461207 C5.38730206,9.67225809 5.29075276,10.2609733 5.39408038,10.8315096 L5.39408038,10.9148545 C5.39408038,10.9148545 5.46409007,11.4882672 6.4542272,16.4389528 C6.66425629,16.3756107 6.93429369,16.3022673 7.26767319,16.2189224 L6.08417595,10.7081592 C5.99094383,10.4383129 6.0239957,10.1408461 6.17418842,9.89804698 C6.36418664,9.62198485 6.66720417,9.44481735 7.00096959,9.4146467 C7.29387326,9.30608982 7.62067645,9.34061997 7.88442527,9.50799296 C8.17355142,9.6765593 8.37723042,9.96025505 8.44450284,10.288101 C8.51117874,10.4747935 8.57452085,10.7448309 8.66786711,11.1382187 C8.92123553,12.1950318 9.33462612,14.0486218 9.90137127,16.6456481 C10.0212018,16.8777976 10.0212018,17.1536012 9.90137127,17.3857506 C9.68800839,18.0858476 8.56785326,19.9261025 7.62772305,21.4196426 L5.94415656,24 Z M14.378658,21.4196426 C13.435194,19.9261025 12.3183727,18.0858476 12.1050098,17.3857506 C11.9851792,17.1536012 11.9851792,16.8777976 12.1050098,16.6456481 C12.6684212,14.0486218 13.0818117,12.1950318 13.3351802,11.1382187 C13.4285264,10.7448309 13.4918685,10.4714597 13.5585444,10.288101 C13.6239648,9.95595431 13.8292517,9.66806675 14.1219558,9.49799157 C14.3864606,9.33501792 14.7116828,9.30422036 15.0020777,9.4146467 C15.3313156,9.44772438 15.6290829,9.62467623 15.8155237,9.89804698 C15.9657164,10.1408461 15.9987683,10.4383129 15.9055361,10.7081592 L14.7087037,16.22559 C15.0420832,16.3089348 15.3121206,16.3822783 15.5221497,16.4456204 C16.5222882,11.4949348 16.5822965,10.9248558 16.5822965,10.9215221 L16.5822965,10.8381772 C16.694294,10.2707098 16.6071619,9.68197963 16.3355957,9.17127966 C14.3019807,5.95750124 12.3983838,3.23045689 11.8983145,2.38367295 C10.9748533,0.816789284 13.0184696,-1.00346281 14.5653505,0.670102302 C19.1426511,7.02431565 20.4795029,9.46131983 20.6028534,9.69135168 C20.7492025,9.95998886 20.7964073,10.2715407 20.7362052,10.5714736 C20.0694461,13.6985733 19.7127301,15.2787922 19.5360389,16.0755692 C19.469363,16.3756107 19.4293575,16.5689709 19.4026871,16.6889875 C20.0897014,17.7803741 20.8330311,18.8352791 21.6296622,19.8494252 L22.0030473,20.2961537 L21.5096456,20.6061966 L16.508953,23.7366302 L16.0755597,24 L14.378658,21.4196426 Z" id="Shape"></path>
        </g>
    </g>
</svg>