<?xml version="1.0" encoding="UTF-8"?>
<svg width="24px" height="24px" viewBox="0 0 24 24" version="1.1" xmlns="http://www.w3.org/2000/svg" xmlns:xlink="http://www.w3.org/1999/xlink">
    <title>Icon/Fill/service-fill</title>
    <g id="Icon/Fill/service-fill" stroke="none" stroke-width="1" fill="none" fill-rule="evenodd">
        <g id="Group" transform="translate(-0.000000, -0.000000)" fill="#474747" fill-rule="nonzero">
            <g id="service-fill">
                <path d="M23.5663949,2.94270469 L20.764382,5.73951136 L18.0724481,3.0493767 L20.7944035,0.325907029 C18.9640732,-0.371333742 16.8946444,0.0707628009 15.5095624,1.45491904 C14.1244804,2.83907529 13.6820882,4.90712095 14.3797954,6.73622792 L6.70761704,14.4032784 C4.88305836,13.7230661 2.82907642,14.1703514 1.45314238,15.5475187 C0.0772083312,16.9246861 -0.367161991,18.9779925 0.31635896,20.8002653 L3.04165012,18.0801291 L5.73358397,20.7702638 L2.93490676,23.5704039 C4.81644145,24.4076 7.01974284,23.9983793 8.47462871,22.5415078 C9.92951464,21.0846362 10.3345298,18.8819802 9.49295134,17.0034085 L16.9950074,9.50303306 C18.8763475,10.3465785 21.0835065,9.94163374 22.5423212,8.48527413 C24.0011358,7.02891457 24.4085931,4.82364318 23.5663949,2.94270469 Z" id="Path"></path>
            </g>
        </g>
    </g>
</svg>