<?xml version="1.0" encoding="UTF-8"?>
<svg width="24px" height="24px" viewBox="0 0 24 24" version="1.1" xmlns="http://www.w3.org/2000/svg" xmlns:xlink="http://www.w3.org/1999/xlink">
    <title>Icon/Fill/setting-fill</title>
    <g id="Icon/Fill/setting-fill" stroke="none" stroke-width="1" fill="none" fill-rule="evenodd">
        <g id="Group" transform="translate(-0.000000, -0.000000)" fill="#474747" fill-rule="nonzero">
            <g id="setting" transform="translate(0.000000, 0.360000)">
                <path d="M0.757000001,14.8248175 C0.312000001,14.7138175 0,14.3138176 0,13.8548176 L0,9.4168175 C0,8.9578175 0.312000001,8.55781752 0.757000001,8.44681752 L1.705,8.20981752 C2.47200001,8.01781752 3.12800002,7.52381749 3.52100002,6.83881751 C3.54300001,6.79881751 3.56600002,6.75981751 3.58900001,6.72081751 C3.99800002,6.03081751 4.10600002,5.20581751 3.88600001,4.4348175 L3.61700002,3.4938175 C3.49000001,3.0528175 3.68100002,2.58281749 4.07800001,2.3528175 L7.92200006,0.133817488 C8.31900003,-0.0951825132 8.82200006,-0.0251825132 9.14100004,0.304817488 L9.85400007,1.04281749 C10.4120001,1.61981749 11.182,1.93881749 11.9840001,1.93781749 L12.016,1.93781749 C12.8180001,1.93881749 13.588,1.61981749 14.146,1.04281749 L14.8590001,0.304817488 C15.178,-0.0251825132 15.6810001,-0.0951825132 16.078,0.133817488 L19.9220001,2.3528175 C20.3190001,2.58281749 20.5100001,3.0528175 20.3830001,3.4938175 L20.1140001,4.4348175 C19.8940001,5.20581751 20.0020001,6.03081751 20.4110001,6.72081751 C20.4340001,6.75981751 20.4570001,6.79881751 20.4790001,6.83881751 C20.8720001,7.52381749 21.5280001,8.01781752 22.2950001,8.20981752 L23.2430001,8.44681752 C23.6880001,8.55781752 24,8.9578175 24,9.4168175 L24,13.8548176 C24,14.3138176 23.6880001,14.7138175 23.2430001,14.8248175 L22.2950001,15.0618175 C21.5280001,15.2538175 20.8730001,15.7478176 20.4790001,16.4328176 C20.4570001,16.4728175 20.4340001,16.5118175 20.4110001,16.5508175 C20.0020001,17.2408175 19.8940001,18.0658175 20.1140001,18.8368175 L20.3830001,19.7778176 C20.5100001,20.2188176 20.3190001,20.6888176 19.9220001,20.9188175 L16.078,23.1378176 C15.6810001,23.3668176 15.178,23.2968176 14.8590001,22.9668176 L14.146,22.2288176 C13.588,21.6518176 12.8180001,21.3328175 12.016,21.3338176 L11.9840001,21.3338176 C11.182,21.3328175 10.4120001,21.6518176 9.85400007,22.2288176 L9.14100004,22.9668176 C8.82200006,23.2968176 8.31900003,23.3668176 7.92200006,23.1378176 L4.07800001,20.9188175 C3.68100002,20.6888176 3.49000001,20.2188176 3.61700002,19.7778176 L3.88600001,18.8368175 C4.10600002,18.0658175 3.99800002,17.2408175 3.58900001,16.5508175 C3.56600002,16.5118175 3.54300001,16.4728175 3.52100002,16.4328176 C3.12700001,15.7478176 2.47200001,15.2538175 1.705,15.0618175 L0.757000001,14.8248175 Z M12,8.63581752 C10.3430001,8.63581752 9.00000004,9.97881755 9.00000004,11.6358175 C9.00000004,13.2928175 10.3430001,14.6358175 12,14.6358175 C13.657,14.6358175 15,13.2928175 15,11.6358175 C15,9.97881755 13.657,8.63581752 12,8.63581752 Z" id="Combined-Shape"></path>
            </g>
        </g>
    </g>
</svg>