<?xml version="1.0" encoding="UTF-8"?>
<svg width="24px" height="24px" viewBox="0 0 24 24" version="1.1" xmlns="http://www.w3.org/2000/svg" xmlns:xlink="http://www.w3.org/1999/xlink">
    <title>Icon/Fill/share-fill</title>
    <g id="Icon/Fill/share-fill" stroke="none" stroke-width="1" fill="none" fill-rule="evenodd">
        <g id="Group" transform="translate(-0.000000, 0.000150)" fill="#474747" fill-rule="nonzero">
            <g id="share" transform="translate(0.000300, 0.000000)">
                <path d="M1.99997501,0 L23.9997001,0 L23.9997001,21.9997251 C23.9997001,22.4327197 23.8587019,22.8307147 23.6247048,23.1587106 C23.4957064,23.3387084 23.3387084,23.4957064 23.1577106,23.6247048 C22.8307147,23.8587019 22.4327197,23.9997001 21.9997251,23.9997001 L1.99997501,23.9997001 C1.56698042,23.9997001 1.1689854,23.8587019 0.840989489,23.6247048 C0.66099174,23.4957064 0.503993702,23.3387084 0.374995314,23.1587106 C0.140998238,22.8317147 6.99179692e-16,22.4337197 6.99179692e-16,21.9997251 L6.99179692e-16,1.99897502 C6.99179692e-16,1.56598043 0.140998238,1.1679854 0.374995314,0.840989489 C0.502993715,0.66099174 0.66099174,0.503993702 0.840989489,0.374995314 C1.16698542,0.141998225 1.56498045,0.000999987502 1.99997501,0 Z M11.2495594,14.9998126 L17.9997751,8.24989691 L17.9997751,11.9998501 C17.9997751,12.8278397 18.6717667,13.4998313 19.4997563,13.4998313 C20.327746,13.4998313 20.9997376,12.8278397 20.9997376,11.9998501 L20.9997376,2.99996251 L11.9995501,2.99996251 C11.1715604,2.99996251 10.4995688,3.67195412 10.4995688,4.49994377 C10.4995688,5.32793342 11.1715604,5.99992503 11.9995501,5.99992503 L15.7495032,5.99992503 L8.99958754,12.7498407 L11.2495594,14.9998126 Z" id="Share"></path>
            </g>
        </g>
    </g>
</svg>