<?xml version="1.0" encoding="UTF-8"?>
<svg width="24px" height="24px" viewBox="0 0 24 24" version="1.1" xmlns="http://www.w3.org/2000/svg" xmlns:xlink="http://www.w3.org/1999/xlink">
    <title>Icon/Fill/ship-fill</title>
    <g id="Icon/Fill/ship-fill" stroke="none" stroke-width="1" fill="none" fill-rule="evenodd">
        <g id="Group" transform="translate(0.000000, 6.000000)" fill="#474747" fill-rule="nonzero">
            <g id="Fill-2">
                <path d="M6,0.00333333333 L6,1.83333333 L6.51666667,1.83333333 L8.07333333,5.83333333 L8.66666667,7.13333333 L20.97,7.08666667 L24,7.08666667 L23.7066667,8.06 L23.5433333,8.51666667 C23.1401955,9.74533956 22.6235206,10.9338034 22,12.0666667 C21.9627389,12.1243989 21.9293328,12.1845298 21.9,12.2466667 C21.6511111,12.6884444 21.3906074,12.9037333 20.5791743,12.9304751 L20.3966667,12.9333333 L3.85666667,12.9333333 C3.13333333,12.9333333 2.93333333,12.87 2.6,12.24 C2.45666667,11.96 1.69333333,10.2466667 0.856666667,7.99333333 C0.599761905,7.29690476 0.374472789,6.68957483 0.322248542,6.56099611 L0.313333333,6.54 L0,5.84666667 L1.42666667,5.84666667 L1.42666667,1.82666667 L2.37666667,1.82666667 L2.37666667,0.00333333333 L6,0.00333333333 Z M14.2933333,4.72 L14.2933333,6.48 L9.70666667,6.48 L9.70666667,4.72 L14.2933333,4.72 Z M20.1666667,4.72 L20.1666667,6.48 L15.58,6.48 L15.58,4.72 L20.1666667,4.72 Z M5.28666667,2.88666667 L2.69,2.88666667 L2.69,5.46666667 L6.28666667,5.47666667 L5.28666667,2.88666667 Z M14.2933333,2.36 L14.2933333,4.12 L9.70666667,4.12 L9.70666667,2.36 L14.2933333,2.36 Z M20.1666667,2.36 L20.1666667,4.12 L15.58,4.12 L15.58,2.36 L20.1666667,2.36 Z M14.2933333,0 L14.2933333,1.76 L9.70666667,1.76 L9.70666667,0 L14.2933333,0 Z" id="Combined-Shape"></path>
            </g>
        </g>
    </g>
</svg>