<?xml version="1.0" encoding="UTF-8"?>
<svg width="24px" height="24px" viewBox="0 0 24 24" version="1.1" xmlns="http://www.w3.org/2000/svg" xmlns:xlink="http://www.w3.org/1999/xlink">
    <title>Icon/Fill/shopping-basket-fill</title>
    <g id="Icon/Fill/shopping-basket-fill" stroke="none" stroke-width="1" fill="none" fill-rule="evenodd">
        <g id="Group" transform="translate(0.000000, 1.000000)" fill="#474747" fill-rule="nonzero">
            <path d="M22.213354,7.17269835 L17.7434059,7.17269835 L13.4834552,0.772772539 C13.1448155,0.28848158 12.5910829,0 12.0001303,0 C11.4091953,0 10.8554627,0.28848158 10.516823,0.772772539 L6.27020552,7.14603199 L1.78692416,7.14603199 C1.31103241,7.14691077 0.855080176,7.33726019 0.519826589,7.67501567 C0.184573003,8.01277115 -0.00238122371,8.470126 0.000130282617,8.94601113 L0.000130282617,8.94601113 C-0.00203166016,9.11551574 0.022723793,9.28430292 0.0736106886,9.44600533 L2.66691396,18.9425619 C2.99998715,20.1595894 4.10510199,21.0041154 5.36688266,21.0058713 L18.6400621,21.0058713 C19.9017268,20.9973151 21.0060962,20.1564729 21.3500307,18.9425619 L23.943334,9.43933874 L24,9.04267667 L24,8.95601101 C23.9945201,7.97209391 23.1972797,7.17634083 22.213354,7.17269835 L22.213354,7.17269835 Z M11.7934748,1.63609587 C11.8431322,1.5732873 11.920186,1.53848879 12.0001391,1.54276361 C12.0800956,1.53973858 12.1571848,1.57277681 12.2101367,1.63276257 L15.8767608,7.17269835 L8.11351749,7.17269835 L11.7934748,1.63609587 Z M9.1768385,17.0592504 L7.666856,17.0592504 L7.666856,11.1126527 L9.16683861,11.1126527 L9.1768385,17.0592504 Z M12.7501304,17.0592504 L11.2501478,17.0592504 L11.2501478,11.1126527 L12.7501304,11.1126527 L12.7501304,17.0592504 Z M16.3334222,11.1126527 L16.3234223,17.0592504 L14.8234397,17.0592504 L14.8234397,11.1126527 L16.3334222,11.1126527 Z" id="Shape"></path>
        </g>
    </g>
</svg>