<?xml version="1.0" encoding="UTF-8"?>
<svg width="24px" height="24px" viewBox="0 0 24 24" version="1.1" xmlns="http://www.w3.org/2000/svg" xmlns:xlink="http://www.w3.org/1999/xlink">
    <title>Icon/Fill/shopping-cart-fill</title>
    <g id="Icon/Fill/shopping-cart-fill" stroke="none" stroke-width="1" fill="none" fill-rule="evenodd">
        <g id="Group" transform="translate(-0.000000, -0.000000)" fill="#474747" fill-rule="nonzero">
            <g id="Icon/ShoppingChart/fill" transform="translate(0.000000, 1.500000)">
                <path d="M11.2500329,16.5000001 C10.3400061,16.5000001 9.51958654,17.048187 9.17133439,17.888942 C8.82308216,18.7296971 9.01557986,19.6974481 9.65906591,20.3409342 C10.302552,20.9844203 11.270303,21.176918 12.1110581,20.8286657 C12.9518131,20.4804136 13.5,19.659994 13.5,18.7499672 C13.498091,17.5081363 12.4918639,16.5019091 11.2500329,16.5000001 L11.2500329,16.5000001 Z" id="Path"></path>
                <path d="M18.7500329,16.5000001 C17.8400062,16.5000001 17.0195866,17.048187 16.6713344,17.888942 C16.3230822,18.7296971 16.5155799,19.6974481 17.1590659,20.3409342 C17.8025521,20.9844203 18.770303,21.176918 19.6110581,20.8286657 C20.4518132,20.4804136 21.0000001,19.659994 21.0000001,18.7499672 C20.998091,17.5081363 19.9918639,16.5019091 18.7500329,16.5000001 L18.7500329,16.5000001 Z" id="Path"></path>
                <path d="M23.7697143,4.01645556 C23.5630618,3.74678731 23.2426331,3.58891313 22.903058,3.58945696 L7.23657969,3.58945696 C7.17991371,3.35594211 7.13991418,3.19581763 7.12324772,3.1290991 C6.92325013,2.02157149 5.90992897,2.28030067e-23 3.45662512,2.28030067e-23 L0,2.28030067e-23 L0,2.20838337 L3.44995854,2.20838337 C4.66327728,2.20838337 4.93660734,3.33592655 4.97660685,3.54275399 C4.97660685,3.56944141 4.97660685,3.59612882 4.99327332,3.6194803 C5.00993979,3.64283179 6.07659363,8.10963746 6.8332512,11.4021969 C7.49990986,14.3144608 9.54988519,15.0083335 10.5732063,14.9683024 L20.5997524,14.9983258 C21.0053696,15.0207314 21.3901331,14.8169016 21.5996818,14.4686096 C21.8092306,14.1203176 21.8092306,13.6846303 21.5996818,13.3363382 C21.3901331,12.9880462 21.0053696,12.7842164 20.5997524,12.8066221 L10.5465399,12.7765987 L10.4965405,12.7765987 C10.343209,12.7765987 9.57988489,12.6765209 9.12655699,11.4622436 L22.266399,11.488931 L23.9663786,4.96052277 C24.0493661,4.63231075 23.976836,4.28413768 23.7697143,4.01645556 Z" id="Path"></path>
            </g>
        </g>
    </g>
</svg>