<?xml version="1.0" encoding="UTF-8"?>
<svg width="24px" height="24px" viewBox="0 0 24 24" version="1.1" xmlns="http://www.w3.org/2000/svg" xmlns:xlink="http://www.w3.org/1999/xlink">
    <title>Icon/Fill/shower-fill</title>
    <g id="Icon/Fill/shower-fill" stroke="none" stroke-width="1" fill="none" fill-rule="evenodd">
        <g id="Group" transform="translate(1.000000, 0.000000)" fill="#474747" fill-rule="nonzero">
            <path d="M3.05337286,15.1833333 C2.66937265,15.1851576 2.35853045,15.4959998 2.35670619,15.88 L2.35670619,16.6666667 C2.29814649,16.944285 2.41379788,17.2296822 2.64910046,17.3882189 C2.88440304,17.5467555 3.19234268,17.5467555 3.42764526,17.3882189 C3.66294784,17.2296822 3.77859922,16.944285 3.72003953,16.6666667 L3.72003953,15.88 C3.72038583,15.5066592 3.42636747,15.1994101 3.05337286,15.1833333 L3.05337286,15.1833333 Z" id="Path"></path>
            <path d="M5.77003953,15.1833333 C5.38603932,15.1851576 5.07519712,15.4959998 5.07337286,15.88 L5.07337286,16.6666667 C5.05537063,16.9264547 5.18375942,17.174594 5.40621952,17.3099654 C5.62867961,17.4453368 5.90806611,17.4453368 6.1305262,17.3099654 C6.3529863,17.174594 6.48137509,16.9264547 6.46337286,16.6666667 L6.46337286,15.88 C6.46337725,15.4965396 6.15349551,15.1851681 5.77003953,15.1833333 L5.77003953,15.1833333 Z" id="Path"></path>
            <path d="M8.50003953,15.1833333 C8.11603932,15.1851576 7.80519712,15.4959998 7.80337286,15.88 L7.80337286,16.6666667 C7.78537063,16.9264547 7.91375942,17.174594 8.13621952,17.3099654 C8.35867961,17.4453368 8.63806611,17.4453368 8.8605262,17.3099654 C9.0829863,17.174594 9.21137509,16.9264547 9.19337286,16.6666667 L9.19337286,15.88 C9.19337725,15.4965396 8.88349551,15.1851681 8.50003953,15.1833333 L8.50003953,15.1833333 Z" id="Path"></path>
            <path d="M11.2300395,15.1833333 C10.8465835,15.1851681 10.5367062,15.4965396 10.5367062,15.88 L10.5367062,16.6666667 C10.5367062,17.0495841 10.8471221,17.36 11.2300395,17.36 C11.612957,17.36 11.9233729,17.0495841 11.9233729,16.6666667 L11.9233729,15.88 C11.9233729,15.4965396 11.6134955,15.1851681 11.2300395,15.1833333 L11.2300395,15.1833333 Z" id="Path"></path>
            <path d="M3.05337286,20.2 C2.66991248,20.2 2.35854093,20.5098773 2.35670619,20.8933333 L2.35670619,21.6666667 C2.42468055,21.9889178 2.70903065,22.2195453 3.03837286,22.2195453 C3.36771507,22.2195453 3.65206517,21.9889178 3.72003972,21.6666667 L3.72003972,20.8933333 C3.72031532,20.5205927 3.42583782,20.2143361 3.05337286,20.2 L3.05337286,20.2 Z" id="Path"></path>
            <path d="M5.77003953,20.2 C5.38657915,20.2 5.0752076,20.5098773 5.07337286,20.8933333 L5.07337286,21.6666667 C5.09867913,22.0318584 5.40230534,22.3151727 5.76837286,22.3151727 C6.13444038,22.3151727 6.43806659,22.0318584 6.46337286,21.6666667 L6.46337286,20.8933333 C6.46337286,20.5104159 6.15295695,20.2 5.77003953,20.2 Z" id="Path"></path>
            <path d="M8.50003953,20.2 C8.11657915,20.2 7.8052076,20.5098773 7.80337286,20.8933333 L7.80337286,21.6666667 C7.82867913,22.0318584 8.13230534,22.3151727 8.49837286,22.3151727 C8.86444038,22.3151727 9.16806659,22.0318584 9.19337286,21.6666667 L9.19337286,20.8933333 C9.19337286,20.7094499 9.12032545,20.5330979 8.99030023,20.4030726 C8.860275,20.2730474 8.68392296,20.2 8.50003953,20.2 L8.50003953,20.2 Z" id="Path"></path>
            <path d="M11.2300395,20.2 C10.8471221,20.2 10.5367062,20.5104159 10.5367062,20.8933333 L10.5367062,21.6666667 C10.5367062,22.0495841 10.8471221,22.36 11.2300395,22.36 C11.612957,22.36 11.9233729,22.0495841 11.9233729,21.6666667 L11.9233729,20.8933333 C11.9233729,20.5104159 11.612957,20.2 11.2300395,20.2 Z" id="Path"></path>
            <path d="M3.05337286,18.0533333 C2.66991248,18.0533333 2.35854093,18.3632107 2.35670619,18.7466667 L2.35670619,18.8133333 C2.38201246,19.1785251 2.68563867,19.4618394 3.05170619,19.4618394 C3.41777371,19.4618394 3.72139992,19.1785251 3.74670619,18.8133333 L3.74670619,18.7466667 C3.74670619,18.5627832 3.67365878,18.3864312 3.54363356,18.256406 C3.41360834,18.1263807 3.23725629,18.0533333 3.05337286,18.0533333 L3.05337286,18.0533333 Z" id="Path"></path>
            <path d="M5.77003953,18.0533333 C5.38657915,18.0533333 5.0752076,18.3632107 5.07337286,18.7466667 L5.07337286,18.8133333 C5.09867913,19.1785251 5.40230534,19.4618394 5.76837286,19.4618394 C6.13444038,19.4618394 6.43806659,19.1785251 6.46337286,18.8133333 L6.46337286,18.7466667 C6.46337286,18.3637492 6.15295695,18.0533333 5.77003953,18.0533333 L5.77003953,18.0533333 Z" id="Path"></path>
            <path d="M8.50003953,18.0533333 C8.11657915,18.0533333 7.8052076,18.3632107 7.80337286,18.7466667 L7.80337286,18.8133333 C7.82867913,19.1785251 8.13230534,19.4618394 8.49837286,19.4618394 C8.86444038,19.4618394 9.16806659,19.1785251 9.19337286,18.8133333 L9.19337286,18.7466667 C9.19337286,18.5627832 9.12032545,18.3864312 8.99030023,18.256406 C8.860275,18.1263807 8.68392296,18.0533333 8.50003953,18.0533333 L8.50003953,18.0533333 Z" id="Path"></path>
            <path d="M11.2300395,18.0533333 C10.8471221,18.0533333 10.5367062,18.3637492 10.5367062,18.7466667 L10.5367062,18.8133333 C10.5367062,19.1962508 10.8471221,19.5066667 11.2300395,19.5066667 C11.612957,19.5066667 11.9233729,19.1962508 11.9233729,18.8133333 L11.9233729,18.7466667 C11.9233729,18.3637492 11.612957,18.0533333 11.2300395,18.0533333 Z" id="Path"></path>
            <path d="M16.0533729,0 L12.1733729,0 C8.82881037,0.00550546384 6.11887832,2.71543751 6.11337286,6.06 L6.11337286,6.16333333 C2.59778716,6.66103618 -0.0117109706,9.67604519 0,13.2266667 L0,14.2466667 L14.2700395,14.2466667 L14.2700395,13.2266667 C14.28179,9.67604519 11.6722919,6.66103618 8.15670619,6.16333333 L8.15670619,6.06 C8.16945072,3.85616154 9.95286774,2.07274453 12.1567062,2.06 L16.0533729,2.06 C18.2572113,2.07274453 20.0406283,3.85616154 20.0533729,6.06 L20.0533729,24 L22.0967062,24 L22.0967062,6.06 C22.0912391,2.72192036 19.3914248,0.0146603626 16.0533729,0 Z" id="Path"></path>
        </g>
    </g>
</svg>