<?xml version="1.0" encoding="UTF-8"?>
<svg width="24px" height="24px" viewBox="0 0 24 24" version="1.1" xmlns="http://www.w3.org/2000/svg" xmlns:xlink="http://www.w3.org/1999/xlink">
    <title>Icon/Fill/shuttlebus-fill</title>
    <g id="Icon/Fill/shuttlebus-fill" stroke="none" stroke-width="1" fill="none" fill-rule="evenodd">
        <g id="Group" transform="translate(-0.000002, 5.000000)" fill="#474747" fill-rule="nonzero">
            <path d="M6.7666665,11.8333251 C7.44206454,11.8406443 7.98520243,12.3912225 7.98333713,13.0666576 L7.98333713,13.0666576 L7.98333713,13.0966576 C7.98333713,13.7704445 7.43712009,14.3166567 6.76333317,14.3166567 C6.08954624,14.3166567 5.54333401,13.7704445 5.54333401,13.0966576 L5.54333401,13.0966576 L5.54333401,13.0666576 C5.54333401,12.3893931 6.08942425,11.8388164 6.7666665,11.8333251 Z M18.7799915,11.8333251 C19.4553895,11.8406443 19.9985274,12.3912225 19.9966621,13.0666576 L19.9966621,13.0666576 L19.9966621,13.0966576 C19.9966621,13.5325213 19.7641268,13.935276 19.3866577,14.1532079 C19.0091887,14.3711397 18.5441276,14.3711397 18.1666585,14.1532079 C17.7891895,13.935276 17.556659,13.5325213 17.556659,13.0966576 L17.556659,13.0966576 L17.556659,13.0666576 C17.556659,12.3893931 18.1027492,11.8388164 18.7799915,11.8333251 Z M16.4999931,6.47999549 L24.0000045,10.2599929 L24.0000045,12.0266583 C24.0034957,12.8645195 23.3674695,13.5565851 22.5494708,13.6386094 L22.4033223,13.6466572 L21.0133232,13.6466572 C21.2666805,12.7105972 20.9066155,11.7161094 20.1127195,11.1592187 C19.3188234,10.602328 18.2611595,10.602328 17.4672635,11.1592187 C16.7229859,11.6813037 16.3600052,12.5879956 16.5262999,13.4705823 L16.5666597,13.6466572 L9.00000454,13.6466572 C9.2103849,12.8557876 8.99106111,12.0125049 8.422014,11.4243531 C7.85296689,10.8362013 7.01738358,10.5891604 6.22000021,10.7733258 C4.9798321,11.0866027 4.22307155,12.3399409 4.52333472,13.5833239 C3.24458561,13.3831157 0.198373542,12.7230543 0.00923406563,10.9546138 L4.53917619e-06,10.7799925 L4.53917619e-06,6.47999549 L16.4999931,6.47999549 Z M17.9533254,0 C20.9002739,0.00833334048 23.404917,2.15557393 23.8633213,5.06666314 C23.9307295,5.47993405 23.9732884,5.89674933 23.9908138,6.314864 L23.9999878,6.73332865 L23.9999878,9.04332704 L17.1699926,5.59666277 L17.1699926,0 L17.9533254,0 Z M10.7433304,0 L10.7433304,5.38999625 L6.48000003,5.38999625 L6.48000003,0 L10.7433304,0 Z M5.40000078,0 L5.40000078,5.38999625 L2.26683733e-06,5.38999625 L2.26683733e-06,2.61666485 C-0.00187021963,1.17983674 1.1565488,0.0109949198 2.59333607,0 L2.59333607,0 L5.40000078,0 Z M16.08666,0 L16.08666,5.38999625 L11.8233296,5.38999625 L11.8233296,0 L16.08666,0 Z" id="Combined-Shape"></path>
        </g>
    </g>
</svg>