<svg width="24" height="24" viewBox="0 0 24 24" fill="none" xmlns="http://www.w3.org/2000/svg">
<g clip-path="url(#clip0_15805_63876)">
<path d="M5.73667 0C2.57 0 0 5.37333 0 12C0 18.6267 2.57 24 5.73667 24C8.90333 24 11.4733 18.6267 11.4733 12C11.4733 5.37333 8.90667 0 5.73667 0ZM7.99333 19.63C7.3 21.0767 6.41667 22.01 5.73667 22.01C5.05667 22.01 4.17333 21.0767 3.48 19.63C3.24 19.1233 3.02333 18.5667 2.83667 17.9667C3.16667 18.0767 3.51667 18.1367 3.88 18.1367C5.70667 18.1367 7.19667 16.6533 7.19667 14.83C7.19667 13.0067 5.71 11.5233 3.88 11.5233C3.18 11.5233 2.53 11.7433 1.99333 12.1133C1.99333 12.0767 1.99333 12.0367 1.99333 12C1.99333 9.12667 2.53333 6.34667 3.48 4.37C4.17333 2.92333 5.05667 1.99 5.73667 1.99C6.41667 1.99 7.3 2.92333 7.99333 4.37C8.93667 6.34667 9.48 9.12667 9.48 12C9.48 14.8733 8.94 17.6533 7.99333 19.63ZM18.2633 0C15.0933 0 12.5267 5.37333 12.5267 12C12.5267 18.6267 15.0967 24 18.2633 24C21.43 24 24 18.6267 24 12C24 5.37333 21.43 0 18.2633 0ZM20.52 19.63C19.8267 21.0767 18.9433 22.01 18.2633 22.01C17.5833 22.01 16.7 21.0767 16.0067 19.63C15.7667 19.1233 15.55 18.5667 15.3633 17.9667C15.6933 18.0767 16.0433 18.1367 16.4067 18.1367C18.2333 18.1367 19.7233 16.6533 19.7233 14.83C19.7233 13.0067 18.2367 11.5233 16.4067 11.5233C15.7067 11.5233 15.0567 11.7433 14.52 12.1133C14.52 12.0767 14.52 12.0367 14.52 12C14.52 9.12667 15.06 6.34667 16.0067 4.37C16.7 2.92333 17.5833 1.99 18.2633 1.99C18.9433 1.99 19.8267 2.92333 20.52 4.37C21.4633 6.34667 22.0067 9.12667 22.0067 12C22.0067 14.8733 21.4667 17.6533 20.52 19.63Z" fill="black"/>
</g>
<defs>
<clipPath id="clip0_15805_63876">
<rect width="24" height="24" fill="white"/>
</clipPath>
</defs>
</svg>
