<svg width="24" height="24" viewBox="0 0 24 24" fill="none" xmlns="http://www.w3.org/2000/svg">
<path d="M12.0034 12.1267C12.6301 12.1267 13.1934 11.83 13.5567 11.3133C13.9667 10.7233 13.9667 9.9 13.5567 9.31333C13.1967 8.79667 12.6301 8.5 12.0034 8.5C11.3767 8.5 10.8134 8.79667 10.4501 9.31333C10.0401 9.90333 10.0401 10.7233 10.4501 11.3133C10.8101 11.83 11.3767 12.13 12.0034 12.13V12.1267Z" fill="black"/>
<path d="M22.8334 9.42L13.1934 0L3.85675 3.99333L2.03341 18.45L8.29675 12.3C7.54008 10.9667 7.60341 9.28667 8.49341 8.01C9.29008 6.86667 10.6034 6.18333 12.0034 6.18333C13.4034 6.18333 14.7167 6.86667 15.5134 8.01C16.4734 9.38667 16.4734 11.2367 15.5134 12.6133C14.7167 13.7567 13.4034 14.44 12.0034 14.44C11.2867 14.44 10.5934 14.26 9.98008 13.93L3.62341 20.17L18.3934 18.32L22.8334 9.42Z" fill="black"/>
<path d="M22.5434 21.6867H1.16675V24H22.5434V21.6867Z" fill="black"/>
</svg>
