<svg width="24" height="24" viewBox="0 0 24 24" fill="none" xmlns="http://www.w3.org/2000/svg">
<path d="M22.55 1.16666H1.18667V19.5367H22.55V1.16666ZM24 20.45V22.8333H0V20.45H24ZM16.8033 7.78999C16.8033 8.07999 16.69 8.35332 16.4867 8.55999L13.7567 11.3367L12.7533 10.3267L15.25 7.78999L13.0667 5.59666L10.5367 8.09332L9.54 7.08999L12.3067 4.35332C12.7133 3.94666 13.4267 3.94332 13.8367 4.35332L16.49 7.01666C16.6933 7.22332 16.8067 7.49666 16.8067 7.78666L16.8033 7.78999ZM13.3267 12.88L14.33 13.8867L11.6267 16.62C11.4133 16.8333 11.1367 16.94 10.86 16.94C10.5833 16.94 10.3067 16.8333 10.0933 16.6233L7.44 13.96C7.01667 13.5367 7.01667 12.8467 7.44 12.42L10.1633 9.71332L11.1667 10.72L8.68 13.1933L10.86 15.3833L13.33 12.8867L13.3267 12.88ZM14.07 7.78666L12.0467 9.83666L11.0433 8.82999L13.0667 6.77999L14.07 7.78666ZM9.85667 13.1867L11.8667 11.1533L12.87 12.16L10.86 14.1933L9.85667 13.1867Z" fill="black"/>
</svg>
