<svg width="24" height="24" viewBox="0 0 24 24" fill="none" xmlns="http://www.w3.org/2000/svg">
<path d="M5.33341 22.13C5.33341 23.16 6.16341 24 7.18341 24H16.8201C17.8401 24 18.6701 23.16 18.6701 22.13V18.8967H5.33341V22.13ZM12.0001 20.2167C12.6234 20.2167 13.1267 20.7267 13.1267 21.3567C13.1267 21.9867 12.6234 22.4967 12.0001 22.4967C11.3767 22.4967 10.8734 21.9867 10.8734 21.3567C10.8734 20.7267 11.3767 20.2167 12.0001 20.2167Z" fill="black"/>
<path d="M18.6667 1.87C18.6667 0.84 17.8367 0 16.8167 0H7.18008C6.16008 0 5.33008 0.84 5.33008 1.87V3.58333H18.6634V1.87H18.6667Z" fill="black"/>
<path d="M18.6667 5.08333H5.33341V17.4H18.6667V5.08333Z" fill="black"/>
</svg>
