<?xml version="1.0" encoding="UTF-8"?>
<svg width="24px" height="24px" viewBox="0 0 24 24" version="1.1" xmlns="http://www.w3.org/2000/svg" xmlns:xlink="http://www.w3.org/1999/xlink">
    <title>Icon/Fill/spark-line-fill</title>
    <g id="Icon/Fill/spark-line-fill" stroke="none" stroke-width="1" fill="none" fill-rule="evenodd">
        <g id="Group" transform="translate(-0.000000, 1.500000)" fill="#474747" fill-rule="nonzero">
            <g id="spark-line">
                <path d="M20.5816841,1.28974557 C20.307695,0.45931968 19.526726,-0.0583090971 18.6447611,0.00525935068 C17.7807955,0.0789180285 17.0848232,0.735791971 16.9518285,1.60052465 L15.0389046,14.0407687 L12.8039935,6.66682892 C12.5610032,5.86465568 11.8410318,5.32583742 11.0110649,5.32583742 C11.0090649,5.32583742 11.0090649,5.32583742 11.008065,5.32785546 C10.1770981,5.32886448 9.45712676,5.86869177 9.21813626,6.66884695 L7.27821344,13.1114586 L5.46628555,9.84323321 C5.12629908,9.23580138 4.47532498,8.89777871 3.79335212,8.87961626 C3.10137966,8.89273361 2.47540457,9.28726159 2.1604171,9.91083776 L0.164496526,13.8621717 C-0.212488472,14.6068306 0.0804998687,15.5179783 0.818470503,15.8973709 C1.55844106,16.2777727 2.4594052,15.9801109 2.83539024,15.236461 L3.87734878,13.1780541 L5.95026629,16.9144661 C6.31725168,17.5794122 7.04422276,17.9477056 7.78819316,17.8740469 C8.53816331,17.7913071 9.16213849,17.2676242 9.38012981,16.5431457 L11.0150647,11.1146022 L13.6029618,19.6590086 C13.8469521,20.4642089 14.5719232,21 15.3938905,21 C15.4388887,21 15.482887,20.9979821 15.5278852,20.994955 C16.4058502,20.9334046 17.114822,20.2785487 17.2508166,19.3986806 L19.2067388,6.67893722 L21.0766643,12.3102943 C21.3416538,13.1054044 22.19162,13.5291941 22.9755888,13.2648301 C23.7615575,12.998448 24.1855406,12.1417875 23.9215511,11.3497045 L20.5816841,1.28974557 Z" id="Fill-1"></path>
            </g>
        </g>
    </g>
</svg>