<svg width="24" height="24" viewBox="0 0 24 24" fill="none" xmlns="http://www.w3.org/2000/svg">
<path d="M13.6833 24H1V12.7L1.35 12.4833C1.47 12.41 4.29333 10.6633 7.34333 10.6633C10.3933 10.6633 13.2167 12.4067 13.3367 12.4833L13.6867 12.7V24H13.6833ZM7.34 9.63333C4.94 9.63333 2.98667 7.68 2.98667 5.27667C2.98667 2.87333 4.94 0.923333 7.34 0.923333C9.74 0.923333 11.6933 2.87667 11.6933 5.28C11.6933 7.68333 9.74 9.63667 7.34 9.63667V9.63333ZM15.6133 3.13L15.46 2.92L13.82 4.24333L13.9467 4.43C14.1167 4.68 14.4033 5.23 14.4033 6.08333C14.4033 6.64667 14.2633 7.20667 14.02 7.62667L13.9133 7.81L15.56 9.13667L15.71 8.91333C16.2333 8.14 16.52 7.13333 16.52 6.08333C16.52 4.98 16.1967 3.93 15.6133 3.12667V3.13ZM18.1267 1.59333L17.97 1.43L16.3 2.77333L16.51 2.96667C17.2133 3.61667 17.6533 4.82667 17.6533 6.12667C17.6533 7.33333 17.2767 8.46 16.6467 9.14333L16.4667 9.33667L18.1233 10.67L18.28 10.4933C19.2267 9.41667 19.77 7.82333 19.77 6.12667C19.77 4.43 19.1567 2.66333 18.1267 1.59333ZM20.56 0.133333L20.4033 0L18.6867 1.38333L18.96 1.57C20.11 2.35667 20.8833 4.20667 20.8833 6.17C20.8833 8.01667 20.2333 9.71333 19.19 10.5967L19.0033 10.7567L19.2433 11.04L20.6233 12.16L20.78 12.01C22.17 10.6967 23 8.51333 23 6.17C23 3.68667 22.0867 1.42667 20.56 0.133333Z" fill="black"/>
</svg>
