<?xml version="1.0" encoding="UTF-8"?>
<svg width="24px" height="24px" viewBox="0 0 24 24" version="1.1" xmlns="http://www.w3.org/2000/svg" xmlns:xlink="http://www.w3.org/1999/xlink">
    <title>Icon/Fill/speedometer-fill</title>
    <g id="Icon/Fill/speedometer-fill" stroke="none" stroke-width="1" fill="none" fill-rule="evenodd">
        <g id="Group" transform="translate(0.000000, 3.000000)" fill="#474747" fill-rule="nonzero">
            <path d="M2.575974,4.46876963 L7.31133689,7.19135336 C8.18723737,6.31700587 9.29107108,5.70620249 10.4971264,5.42850539 L10.4971264,0 C7.37256279,0.39222016 4.52750358,1.99727881 2.575974,4.46876963 Z" id="Path"></path>
            <path d="M0,11.8534031 C-0.00294416578,13.6243214 0.391051031,15.3733867 1.15303244,16.9719938 L1.48627402,17.6618039 L6.25162866,15.3291128 L6.29495007,15.3057859 L5.98503539,14.6393027 C5.2666902,13.1015108 5.17584246,11.3443243 5.73177179,9.74065147 L1.02640064,7.02473257 C0.349851485,8.5446367 0.00017103492,10.1897243 0,11.8534031 L0,11.8534031 Z" id="Path"></path>
            <path d="M13.4963007,0 L13.4963007,5.42850539 C14.4326902,5.64570113 15.3105632,6.06416908 16.0689257,6.65483441 L20.9142583,3.86893478 C18.9859712,1.73094609 16.3531014,0.357737692 13.4963007,0 Z" id="Path"></path>
            <path d="M17.9717351,9.01418482 C18.8260127,10.7800966 18.8431357,12.8360805 18.018389,14.6159758 L17.7084743,15.282459 L22.4771613,17.6151501 L22.5238152,17.6351446 L22.8570567,16.9453345 C24.4549566,13.5681105 24.3735089,9.63640972 22.6371173,6.32825766 L17.9717351,9.01418482 Z" id="Path"></path>
            <path d="M15.8123297,8.46766862 L13.8128802,7.13470229 L12.4799138,9.13415179 C12.320061,9.10979025 12.158352,9.09975314 11.9967136,9.10416005 C10.6917702,9.10113478 9.54835349,9.97710972 9.21158738,11.2378535 C8.87482127,12.4985974 9.4291273,13.8280629 10.561762,14.4761562 C11.6943968,15.1242495 13.1214279,14.9285045 14.0377141,13.999362 C14.9540004,13.0702194 15.1298444,11.6405997 14.4660337,10.5171044 L15.8123297,8.46766862 Z" id="Path"></path>
        </g>
    </g>
</svg>