<?xml version="1.0" encoding="UTF-8"?>
<svg width="24px" height="24px" viewBox="0 0 24 24" version="1.1" xmlns="http://www.w3.org/2000/svg" xmlns:xlink="http://www.w3.org/1999/xlink">
    <title>Icon/Fill/spinner-fill</title>
    <g id="Icon/Fill/spinner-fill" stroke="none" stroke-width="1" fill="none" fill-rule="evenodd">
        <g id="Group" fill="#474747" fill-rule="nonzero">
            <path d="M0.726666667,7.84666667 L4.39666667,9.06666667 L4.01666667,10.4233333 L0.24,9.54666667 L0.726666667,7.84666667 Z M2.10666667,5.18 L5.36333333,7.27 L4.65666667,8.49333333 L1.21666667,6.70666667 L2.10666667,5.18 Z M4.11,2.94 L6.74333333,5.77333333 L5.75666667,6.78333333 L2.86666667,4.2 L4.11,2.94 Z M6.60333333,1.26666667 L8.45,4.66666667 L7.24666667,5.4 L5.09,2.18 L6.60333333,1.26666667 Z M9.43666667,0.27 L10.38,4.01666667 L9.03333333,4.43 L7.74,0.773333333 L9.43666667,0.27 Z M3.90666667,11.04 L0.0466666667,10.77 L0,12.54 L3.87666667,12.45 L3.90666667,11.04 L3.90666667,11.04 Z M22.98,7.17333333 L23.5766667,8.84 L19.88,9.98 L19.3966667,8.65333333 L22.98,7.17333333 Z M21.44,4.59666667 L22.4266667,6.06333333 L19.13,8.08333333 L18.3366667,6.92 L21.44,4.59666667 Z M19.3066667,2.48333333 L20.63,3.66 L17.9366667,6.43333333 L16.8766667,5.50333333 L19.3066667,2.48333333 Z M16.56,0.9 L18.1433333,1.68666667 L16.27,5.07 L15.0033333,4.45 L16.56,0.9 Z M13.6633333,0.113333333 L15.39,0.483333333 L14.4166667,4.22666667 L13.0366667,3.94 L13.6633333,0.113333333 Z M8.56,19.3833333 L9.89,19.85 L8.76666667,23.56 L7.1,22.9633333 L8.56,19.3833333 Z M6.83666667,18.3 L8.00666667,19.0833333 L5.99666667,22.4 L4.53333333,21.4066667 L6.83666667,18.3 Z M5.43333333,16.8233333 L6.37666667,17.8733333 L3.60333333,20.5866667 L2.43,19.2633333 L5.43333333,16.8233333 Z M4.44,15.0466667 L5.09333333,16.2966667 L1.73666667,18.2366667 L0.93,16.6633333 L4.44,15.0466667 Z M3.92,13.0766667 L4.24,14.45 L0.51,15.4966667 L0.116666667,13.7733333 L3.92,13.0766667 Z M20.1366667,11.9966667 L24,11.81 L23.8366667,10.05 L20,10.5933333 L20.1366667,11.9966667 L20.1366667,11.9966667 Z M13.9233333,19.8933333 L14.7233333,23.6866667 L12.9766667,23.9666667 L12.5366667,20.1233333 L13.9233333,19.8933333 Z M15.8233333,19.1666667 L17.5366667,22.6433333 L15.9166667,23.35 L14.5333333,19.7366667 L15.8233333,19.1666667 Z M17.48,17.9933333 L20.0066667,20.9366667 L18.6066667,22.02 L16.3733333,18.8633333 L17.48,17.9933333 Z M18.8,16.4433333 L21.9733333,18.67 L20.89,20.0666667 L17.94,17.5633333 L18.8,16.4433333 Z M19.69,14.6166667 L23.3166667,15.9833333 L22.61,17.6066667 L19.1333333,15.91 L19.69,14.6166667 Z M20.1,12.6233333 L23.9533333,13.05 L23.67,14.7966667 L19.8833333,14.0166667 L20.1,12.6233333 Z M11.0033333,3.93333333 L12.41,3.86666667 L12.4266667,0 L10.66,0.07 L11.0033333,3.93333333 L11.0033333,3.93333333 Z M9.97333333,23.8366667 L11.7366667,24 L11.9066667,20.1266667 L10.5,20.0033333 L9.97333333,23.8366667 L9.97333333,23.8366667 Z" id="Combined-Shape"></path>
        </g>
    </g>
</svg>