<?xml version="1.0" encoding="UTF-8"?>
<svg width="24px" height="24px" viewBox="0 0 24 24" version="1.1" xmlns="http://www.w3.org/2000/svg" xmlns:xlink="http://www.w3.org/1999/xlink">
    <title>Icon/Fill/stewardship-fill</title>
    <g id="Icon/Fill/stewardship-fill" stroke="none" stroke-width="1" fill="none" fill-rule="evenodd">
        <g id="Group" transform="translate(-0.000000, -0.000000)" fill="#474747" fill-rule="nonzero">
            <g id="Stewardship-fill">
                <path d="M9.75000002,2.25342083 C9.74863159,1.34308705 10.2959484,0.521628078 11.136594,0.172308043 C11.9772395,-0.177011993 12.9455457,0.014648329 13.5897345,0.657866982 C14.2339233,1.30108564 14.4270428,2.26910182 14.0789902,3.11027292 C13.7309375,3.95144402 12.9103044,4.5 11.9999695,4.5 C10.7594402,4.4981394 9.75373212,3.49394599 9.75000002,2.25342083 Z M4.50000002,4.50002194 C4.50000002,3.89333744 4.86545794,3.346391 5.42596134,3.11422289 C5.98646474,2.88205478 6.63163205,3.01038654 7.06062277,3.43937727 C7.48961351,3.86836799 7.61794526,4.51353531 7.38577715,5.0740387 C7.15360904,5.6345421 6.60666261,6.00000001 5.9999781,6.00000001 C5.17227616,5.99828101 4.50171903,5.32772388 4.50000002,4.50002194 Z M18.0000001,3.00000001 C18.8284272,3.00000001 19.5000001,3.67157289 19.5000001,4.50000001 C19.5000001,5.32842715 18.8284272,6.00000001 18.0000001,6.00000001 C17.1715729,6.00000001 16.5000001,5.32842715 16.5000001,4.50000001 C16.5000001,3.67157289 17.1715729,3.00000001 18.0000001,3.00000001 Z M4.50000002,12 L4.50000002,7.86645806 C5.45994272,7.51200701 6.49219054,7.41254689 7.50000002,7.57739913 L7.50000002,12 L4.50000002,12 Z M9.00000004,12 L9.00000004,6.54399397 C10.9339976,5.80934613 13.0728154,5.81910112 15,6.57135952 L15,12 L9.00000004,12 Z M23.9700001,18.1666667 C24.1144072,18.8746817 23.7104736,19.5797812 23.0266667,19.8133334 L13.2433334,22.8933334 L13.1233334,22.8933334 C13.1233334,22.8933334 11.5133334,22.9333334 9.90333334,22.9666667 C9.09666671,22.9833334 8.29000001,23.0033334 7.68333333,23.0033334 L7.11333336,23.0033334 C6.77697805,23.0477339 6.43508281,22.9884256 6.13333336,22.8333334 C5.33333335,22.5533334 2.39333334,21.6666668 0.580000002,21.1333334 L0,20.9600001 L0,11.9600001 L7.2266667,13.8966667 L8.25000003,14.6933334 L14.5633334,15.4600001 C15.0666667,15.5133334 15.6466667,15.7233334 15.6666667,16.2833334 L15.6300001,17.5 C15.543735,17.9066123 15.1856579,18.1980704 14.77,18.2000001 L7.77000003,18.2000001 L7.77000003,19.5833334 L14.77,19.5833334 C15.8762774,19.5729123 16.8159306,18.7709064 17,17.68 L17.0300001,16.63 C22.3466668,16.0933334 23.1733334,16.1166667 23.4666668,16.3800001 L23.5200001,16.4300001 L23.5466668,16.5000001 C23.7269426,17.0448664 23.8684075,17.6018149 23.9700001,18.1666667 Z M16.5000001,12 L16.5000001,7.57755326 C17.5077775,7.41236986 18.5398866,7.51203026 19.5000001,7.86723318 L19.5000001,12 L16.5000001,12 Z" id="Combined-Shape"></path>
            </g>
        </g>
    </g>
</svg>