<svg width="24" height="24" viewBox="0 0 24 24" fill="none" xmlns="http://www.w3.org/2000/svg">
<path d="M17.3666 19.0316H17.1766C16.8966 18.7516 16.4033 18.175 15.9366 17.2216C15.3433 16.0016 14.6833 13.8916 14.8666 10.7216H17.0433V6.15165H15.0499C15.5633 5.48498 15.8433 4.67498 15.8433 3.83831C15.8433 1.72165 14.0999 0.00164795 11.9566 0.00164795C9.81325 0.00164795 8.06992 1.72498 8.06992 3.83831C8.06992 4.67831 8.34992 5.48498 8.86325 6.15165H6.95659V10.7216H9.13325C9.31658 13.895 8.65659 16.005 8.06325 17.2216C7.59992 18.175 7.10325 18.7516 6.82325 19.0316H6.63325C5.36659 19.0316 4.33325 20.0483 4.33325 21.3016V23.9983H19.6666V21.3016C19.6666 20.0516 18.6366 19.0316 17.3666 19.0316Z" fill="black"/>
</svg>
