<svg width="24" height="24" viewBox="0 0 24 24" fill="none" xmlns="http://www.w3.org/2000/svg">
<g clip-path="url(#clip0_369517_506)">
<path d="M12 0C13.5759 1.8792e-08 15.1363 0.310389 16.5922 0.913446C18.0481 1.5165 19.371 2.40042 20.4853 3.51472C21.5996 4.62902 22.4835 5.95189 23.0866 7.4078C23.6896 8.86371 24 10.4241 24 12C24 13.5759 23.6896 15.1363 23.0866 16.5922C22.4835 18.0481 21.5996 19.371 20.4853 20.4853C19.371 21.5996 18.0481 22.4835 16.5922 23.0866C15.1363 23.6896 13.5759 24 12 24L12 21C13.1819 21 14.3522 20.7672 15.4441 20.3149C16.5361 19.8626 17.5282 19.1997 18.364 18.364C19.1997 17.5282 19.8626 16.5361 20.3149 15.4442C20.7672 14.3522 21 13.1819 21 12C21 10.8181 20.7672 9.64778 20.3149 8.55585C19.8626 7.46392 19.1997 6.47177 18.364 5.63604C17.5282 4.80031 16.5361 4.13738 15.4442 3.68508C14.3522 3.23279 13.1819 3 12 3V0Z" fill="#474747"/>
<path d="M0.0456635 13.0459C-0.0157089 12.3444 -0.0152163 11.6388 0.0471356 10.9374L3.03535 11.2031C2.98859 11.7291 2.98822 12.2583 3.03425 12.7844L0.0456635 13.0459Z" fill="#474747"/>
<path d="M0.723689 7.89576C0.964529 7.23405 1.26315 6.59483 1.61608 5.9855L4.21206 7.48912C3.94736 7.94613 3.7234 8.42554 3.54277 8.92182L0.723689 7.89576Z" fill="#474747"/>
<path d="M3.51472 3.51472C4.01264 3.01679 4.55343 2.56366 5.13082 2.16057L6.84811 4.62043C6.41507 4.92275 6.00948 5.2626 5.63604 5.63604L3.51472 3.51472Z" fill="#474747"/>
<path d="M7.89576 0.723688C8.55746 0.482848 9.23908 0.300719 9.93272 0.179409L10.4495 3.13456C9.92931 3.22554 9.4181 3.36214 8.92182 3.54277L7.89576 0.723688Z" fill="#474747"/>
<path d="M1.6077 18C1.25561 17.3902 0.957886 16.7505 0.71797 16.0885L3.53848 15.0664C3.71841 15.5629 3.94171 16.0426 4.20577 16.5L1.6077 18Z" fill="#474747"/>
<path d="M5.11708 21.8298C4.54026 21.4259 4.00011 20.972 3.50288 20.4734L5.62716 18.3551C6.00008 18.729 6.40519 19.0694 6.83781 19.3724L5.11708 21.8298Z" fill="#474747"/>
<path d="M9.91622 23.8177C9.22275 23.6954 8.54139 23.5123 7.88002 23.2706L8.91001 20.4529C9.40604 20.6343 9.91706 20.7716 10.4372 20.8633L9.91622 23.8177Z" fill="#474747"/>
<path fill-rule="evenodd" clip-rule="evenodd" d="M16.425 6.94422L10.4549 12.9383L8.05599 10.5393L5.93933 12.656L10.456 17.1727L18.5786 9.05L16.425 6.94422Z" fill="#474747"/>
<path d="M12 0C13.5759 1.8792e-08 15.1363 0.310389 16.5922 0.913446C18.0481 1.5165 19.371 2.40042 20.4853 3.51472C21.5996 4.62902 22.4835 5.95189 23.0866 7.4078C23.6896 8.86371 24 10.4241 24 12C24 13.5759 23.6896 15.1363 23.0866 16.5922C22.4835 18.0481 21.5996 19.371 20.4853 20.4853C19.371 21.5996 18.0481 22.4835 16.5922 23.0866C15.1363 23.6896 13.5759 24 12 24L12 21C13.1819 21 14.3522 20.7672 15.4441 20.3149C16.5361 19.8626 17.5282 19.1997 18.364 18.364C19.1997 17.5282 19.8626 16.5361 20.3149 15.4442C20.7672 14.3522 21 13.1819 21 12C21 10.8181 20.7672 9.64778 20.3149 8.55585C19.8626 7.46392 19.1997 6.47177 18.364 5.63604C17.5282 4.80031 16.5361 4.13738 15.4442 3.68508C14.3522 3.23279 13.1819 3 12 3V0Z" fill="#474747"/>
<path d="M0.0456635 13.0459C-0.0157089 12.3444 -0.0152163 11.6388 0.0471356 10.9374L3.03535 11.2031C2.98859 11.7291 2.98822 12.2583 3.03425 12.7844L0.0456635 13.0459Z" fill="#474747"/>
<path d="M0.723689 7.89576C0.964529 7.23405 1.26315 6.59483 1.61608 5.9855L4.21206 7.48912C3.94736 7.94613 3.7234 8.42554 3.54277 8.92182L0.723689 7.89576Z" fill="#474747"/>
<path d="M3.51472 3.51472C4.01264 3.01679 4.55343 2.56366 5.13082 2.16057L6.84811 4.62043C6.41507 4.92275 6.00948 5.2626 5.63604 5.63604L3.51472 3.51472Z" fill="#474747"/>
<path d="M7.89576 0.723688C8.55746 0.482848 9.23908 0.300719 9.93272 0.179409L10.4495 3.13456C9.92931 3.22554 9.4181 3.36214 8.92182 3.54277L7.89576 0.723688Z" fill="#474747"/>
<path d="M1.6077 18C1.25561 17.3902 0.957886 16.7505 0.71797 16.0885L3.53848 15.0664C3.71841 15.5629 3.94171 16.0426 4.20577 16.5L1.6077 18Z" fill="#474747"/>
<path d="M5.11708 21.8298C4.54026 21.4259 4.00011 20.972 3.50288 20.4734L5.62716 18.3551C6.00008 18.729 6.40519 19.0694 6.83781 19.3724L5.11708 21.8298Z" fill="#474747"/>
<path d="M9.91622 23.8177C9.22275 23.6954 8.54139 23.5123 7.88002 23.2706L8.91001 20.4529C9.40604 20.6343 9.91706 20.7716 10.4372 20.8633L9.91622 23.8177Z" fill="#474747"/>
<path fill-rule="evenodd" clip-rule="evenodd" d="M16.425 6.94422L10.4549 12.9383L8.05599 10.5393L5.93933 12.656L10.456 17.1727L18.5786 9.05L16.425 6.94422Z" fill="#474747"/>
</g>
<defs>
<clipPath id="clip0_369517_506">
<rect width="24" height="24" fill="white"/>
</clipPath>
</defs>
</svg>
