<svg width="24" height="24" viewBox="0 0 24 24" fill="none" xmlns="http://www.w3.org/2000/svg">
<g clip-path="url(#clip0_15805_63912)">
<path d="M12 24C5.38333 24 0 18.6167 0 12C0 5.38333 5.38333 0 12 0C18.6167 0 24 5.38333 24 12C24 18.6167 18.6167 24 12 24ZM16.45 16.2667L16.18 16.4633C15.2533 17.1433 13.8067 17.5 11.9967 17.5C10.0667 17.5 8.56333 17.1 7.65 16.34L7.39333 16.1267L6 17.8033L6.25667 18.0167C7.58333 19.12 9.51333 19.68 11.9933 19.68C14.3033 19.68 16.1433 19.19 17.4633 18.22L17.7333 18.0233L16.4467 16.2667H16.45ZM7.73333 6.64667C6.70667 6.64667 5.87 7.48333 5.87 8.51C5.87 9.53667 6.70667 10.3733 7.73333 10.3733C8.76 10.3733 9.59667 9.53667 9.59667 8.51C9.59667 7.48333 8.76 6.64667 7.73333 6.64667ZM16.2633 6.64667C15.2367 6.64667 14.4 7.48333 14.4 8.51C14.4 9.53667 15.2367 10.3733 16.2633 10.3733C17.29 10.3733 18.1267 9.53667 18.1267 8.51C18.1267 7.48333 17.29 6.64667 16.2633 6.64667Z" fill="black"/>
</g>
<defs>
<clipPath id="clip0_15805_63912">
<rect width="24" height="24" fill="white"/>
</clipPath>
</defs>
</svg>
