<svg width="24" height="24" viewBox="0 0 24 24" fill="none" xmlns="http://www.w3.org/2000/svg">
<g clip-path="url(#clip0_15805_63908)">
<path d="M12 24C5.38333 24 0 18.6167 0 12C0 5.38333 5.38333 0 12 0C18.6167 0 24 5.38333 24 12C24 18.6167 18.6167 24 12 24ZM7.73333 10.3733C8.76 10.3733 9.59667 9.53667 9.59667 8.51C9.59667 7.48333 8.76 6.64667 7.73333 6.64667C6.70667 6.64667 5.87 7.48333 5.87 8.51C5.87 9.53667 6.70667 10.3733 7.73333 10.3733ZM16.2633 10.3733C17.29 10.3733 18.1267 9.53667 18.1267 8.51C18.1267 7.48333 17.29 6.64667 16.2633 6.64667C15.2367 6.64667 14.4 7.48333 14.4 8.51C14.4 9.53667 15.2367 10.3733 16.2633 10.3733ZM12.0767 14.5C9.61667 14.5 7.7 15.0567 6.38 16.15L6.12333 16.3633L7.51 18.03L7.76667 17.8167C8.67333 17.0633 10.1633 16.6667 12.0767 16.6667C13.8733 16.6667 15.3067 17.0233 16.2233 17.6967L16.4933 17.8933L17.7733 16.1467L17.5033 15.95C16.1933 14.99 14.3667 14.5 12.0733 14.5H12.0767Z" fill="black"/>
</g>
<defs>
<clipPath id="clip0_15805_63908">
<rect width="24" height="24" fill="white"/>
</clipPath>
</defs>
</svg>
