<svg width="24" height="24" viewBox="0 0 24 24" fill="none" xmlns="http://www.w3.org/2000/svg">
<g clip-path="url(#clip0_15805_63910)">
<path d="M12 24C5.38333 24 0 18.6167 0 12C0 5.38333 5.38333 0 12 0C18.6167 0 24 5.38333 24 12C24 18.6167 18.6167 24 12 24ZM6.62667 15.1767V17.3567H17.3733V15.1767H6.62667ZM7.73667 6.64667C6.71 6.64667 5.87333 7.48333 5.87333 8.51C5.87333 9.53667 6.71 10.3733 7.73667 10.3733C8.76333 10.3733 9.6 9.53667 9.6 8.51C9.6 7.48333 8.76333 6.64667 7.73667 6.64667ZM16.2667 6.64667C15.24 6.64667 14.4033 7.48333 14.4033 8.51C14.4033 9.53667 15.24 10.3733 16.2667 10.3733C17.2933 10.3733 18.13 9.53667 18.13 8.51C18.13 7.48333 17.2933 6.64667 16.2667 6.64667Z" fill="black"/>
</g>
<defs>
<clipPath id="clip0_15805_63910">
<rect width="24" height="24" fill="white"/>
</clipPath>
</defs>
</svg>
