<?xml version="1.0" encoding="UTF-8"?>
<svg width="24px" height="24px" viewBox="0 0 24 24" version="1.1" xmlns="http://www.w3.org/2000/svg" xmlns:xlink="http://www.w3.org/1999/xlink">
    <title>Icon/Fill/survey-fill</title>
    <g id="Icon/Fill/survey-fill" stroke="none" stroke-width="1" fill="none" fill-rule="evenodd">
        <g id="Group" transform="translate(-0.000000, -0.000000)" fill="#474747" fill-rule="nonzero">
            <g id="survey" transform="translate(2.250000, 0.000000)">
                <path d="M16.5,1.50000001 L18,1.50000001 C18.8280001,1.50000001 19.5,2.17200001 19.5,3.00000001 L19.5,22.5 C19.5,23.3280001 18.8280001,24 18,24 L1.5,24 C0.672000003,24 0,23.3280001 0,22.5 L0,3.00000001 C0,2.17200001 0.672000003,1.50000001 1.5,1.50000001 L3,1.50000001 L3,6.00000001 L16.5,6.00000001 L16.5,1.50000001 Z M3.00000001,18.0000001 L16.5,18.0000001 L16.5,15.0000001 L3.00000001,15.0000001 L3.00000001,18.0000001 Z M3.00000001,12 L16.5,12 L16.5,9.00000004 L3.00000001,9.00000004 L3.00000001,12 Z M6.00000003,0 L13.5,0 L13.5,1.5 L13.5,3 L6.00000003,3 L6.00000003,1.5 L6.00000003,0 Z" id="Survey"></path>
            </g>
        </g>
    </g>
</svg>