<svg width="24" height="24" viewBox="0 0 24 24" fill="none" xmlns="http://www.w3.org/2000/svg">
<g clip-path="url(#clip0_15805_63914)">
<path d="M12 24C5.38333 24 0 18.6167 0 12C0 5.38333 5.38333 0 12 0C18.6167 0 24 5.38333 24 12C24 18.6167 18.6167 24 12 24ZM16.8333 14.6533L16.6567 14.9367C15.64 16.5467 13.9 17.5067 12 17.5067C10.1 17.5067 8.38333 16.5567 7.36333 14.97L7.18333 14.69L5.35 15.8667L5.53 16.1467C6.95 18.3633 9.37 19.6867 12 19.6867C14.63 19.6867 17.08 18.3467 18.4967 16.1033L18.6733 15.8233L16.8333 14.66V14.6533ZM7.73333 10.3767C8.76 10.3767 9.59667 9.54 9.59667 8.51333C9.59667 7.48667 8.76 6.65 7.73333 6.65C6.70667 6.65 5.87 7.48667 5.87 8.51333C5.87 9.54 6.70667 10.3767 7.73333 10.3767ZM16.2633 10.3767C17.29 10.3767 18.1267 9.54 18.1267 8.51333C18.1267 7.48667 17.29 6.65 16.2633 6.65C15.2367 6.65 14.4 7.48667 14.4 8.51333C14.4 9.54 15.2367 10.3767 16.2633 10.3767Z" fill="black"/>
</g>
<defs>
<clipPath id="clip0_15805_63914">
<rect width="24" height="24" fill="white"/>
</clipPath>
</defs>
</svg>
