<svg width="24" height="24" viewBox="0 0 24 24" fill="none" xmlns="http://www.w3.org/2000/svg">
<path d="M20.75 0H3.25C2.83667 0 2.5 0.333333 2.5 0.746667V23.2533C2.5 23.6667 2.83667 24 3.25 24H20.75C21.1633 24 21.5 23.6667 21.5 23.2533V0.746667C21.5 0.333333 21.1633 0 20.75 0ZM12 22.54C11.3667 22.54 10.8567 22.03 10.8567 21.4C10.8567 20.77 11.37 20.26 12 20.26C12.63 20.26 13.1433 20.77 13.1433 21.4C13.1433 22.03 12.63 22.54 12 22.54ZM18.82 18.0667C18.82 18.48 18.4833 18.8133 18.07 18.8133H5.93C5.51667 18.8133 5.18 18.48 5.18 18.0667V3.56C5.18 3.14667 5.51667 2.81333 5.93 2.81333H18.07C18.4833 2.81333 18.82 3.14667 18.82 3.56V18.0667Z" fill="black"/>
</svg>
