<?xml version="1.0" encoding="UTF-8"?>
<svg width="24px" height="24px" viewBox="0 0 24 24" version="1.1" xmlns="http://www.w3.org/2000/svg" xmlns:xlink="http://www.w3.org/1999/xlink">
    <title>Icon/Fill/table-data-fill</title>
    <g id="Icon/Fill/table-data-fill" stroke="none" stroke-width="1" fill="none" fill-rule="evenodd">
        <g id="Group" transform="translate(-0.000000, -0.000000)" fill="#474747" fill-rule="nonzero">
            <g id="table-data">
                <path d="M0,15 L0,9.00000004 L10.5,9.00000004 L10.5,15 L0,15 Z M0,6 L0,1.49857602 C0,0.665029767 0.673540137,0 1.504394,0 L10.5,0 L10.5,6 L0,6 Z M24.0000001,1.49857602 L24.0000001,6 L13.5000001,6 L13.5000001,0 L22.4956061,0 C23.327205,0 24.0000001,0.670935338 24.0000001,1.49857602 Z M0,22.501424 L0,18.0000001 L10.5,18.0000001 L10.5,24.0000001 L1.504394,24.0000001 C0.672795097,24.0000001 0,23.3290648 0,22.501424 Z M13.5000001,24.0000001 L13.5000001,18.0000001 L24.0000001,18.0000001 L24.0000001,22.501424 C24.0000001,23.3349703 23.32646,24.0000001 22.4956061,24.0000001 L13.5000001,24.0000001 Z M13.5000001,15 L13.5000001,9.00000004 L24.0000001,9.00000004 L24.0000001,15 L13.5000001,15 Z" id="Combined-Shape"></path>
            </g>
        </g>
    </g>
</svg>