<?xml version="1.0" encoding="UTF-8"?>
<svg width="24px" height="24px" viewBox="0 0 24 24" version="1.1" xmlns="http://www.w3.org/2000/svg" xmlns:xlink="http://www.w3.org/1999/xlink">
    <title>Icon/Fill/tag-fill</title>
    <g id="Icon/Fill/tag-fill" stroke="none" stroke-width="1" fill="none" fill-rule="evenodd">
        <g id="Group" transform="translate(-0.000000, -0.000000)" fill="#474747" fill-rule="nonzero">
            <g id="tag-fill">
                <path d="M14.012064,0 L24,0 L23.9993752,9.99275613 C23.9993503,10.3907083 23.8412353,10.7723543 23.5598085,11.053749 L11.0516454,23.5604836 C10.4655565,24.1465056 9.51531866,24.1465056 8.92922973,23.5604836 L0.439566695,15.0717901 C-0.146522232,14.4857681 -0.146522232,13.5356387 0.439566695,12.9496167 L12.9508874,0.43972477 C13.2323296,0.158314751 13.6140447,0 14.012064,0 Z M16.4093501,4.40927475 C15.5302167,5.28830775 15.5302167,6.71350182 16.4093501,7.5925348 C17.2884835,8.4715678 18.7138403,8.4715678 19.5929737,7.5925348 C20.4721071,6.71350182 20.4721071,5.28830775 19.5929737,4.40927475 C18.7138403,3.53024176 17.2884835,3.53024176 16.4093501,4.40927475 Z" id="Icon"></path>
            </g>
        </g>
    </g>
</svg>