<?xml version="1.0" encoding="UTF-8"?>
<svg width="24px" height="24px" viewBox="0 0 24 24" version="1.1" xmlns="http://www.w3.org/2000/svg" xmlns:xlink="http://www.w3.org/1999/xlink">
    <title>Icon/Fill/talent-fill</title>
    <g id="Icon/Fill/talent-fill" stroke="none" stroke-width="1" fill="none" fill-rule="evenodd">
        <g id="Group" transform="translate(-0.000000, -0.000000)" fill="#474747" fill-rule="nonzero">
            <g id="talent-fill">
                <path d="M18.9095771,16.7882567 L23.9206631,21.7993427 L21.7993427,23.9206631 L16.7882567,18.9095771 C15.0353859,20.2223948 12.8585027,21 10.5,21 C4.70101014,21 0,16.2989899 0,10.5 C0,4.70101014 4.70101014,0 10.5,0 C16.2989899,0 21,4.70101014 21,10.5 C21,12.8585027 20.2223948,15.0353859 18.9095771,16.7882567 Z M5.15124777,15.7574591 C6.61475104,14.8040247 8.36226843,14.2500001 10.2391853,14.2500001 C12.2494697,14.2500001 14.1113121,14.8855564 15.6347407,15.9666975 C17.0906899,14.5986267 18,12.6555038 18,10.5 C18,6.3578644 14.6421357,3.00000001 10.5,3.00000001 C6.3578644,3.00000001 3.00000001,6.3578644 3.00000001,10.5 C3.00000001,12.5478495 3.82074942,14.4040027 5.15124777,15.7574591 Z M10.5,12 C8.84314579,12 7.50000003,10.6568543 7.50000003,9.00000003 C7.50000003,7.34314578 8.84314579,6.00000003 10.5,6.00000003 C12.1568543,6.00000003 13.5,7.34314578 13.5,9.00000003 C13.5,10.6568543 12.1568543,12 10.5,12 Z" id="Combined-Shape"></path>
            </g>
        </g>
    </g>
</svg>