<?xml version="1.0" encoding="UTF-8"?>
<svg width="24px" height="24px" viewBox="0 0 24 24" version="1.1" xmlns="http://www.w3.org/2000/svg" xmlns:xlink="http://www.w3.org/1999/xlink">
    <title>Icon/Fill/tanker-fill</title>
    <g id="Icon/Fill/tanker-fill" stroke="none" stroke-width="1" fill="none" fill-rule="evenodd">
        <g id="Group" transform="translate(0.000000, 5.000000)" fill="#474747" fill-rule="nonzero">
            <g id="Fill-2">
                <path d="M20.9666667,6.42 L20.3,7.46333333 L19.6666667,7.46333333 L19.6666667,6.26 C19.6675543,5.86190382 19.5098041,5.47985701 19.2283069,5.1983598 C18.9468097,4.91686259 18.5647628,4.75911238 18.1666667,4.76 L16.4,4.76 C16.0019038,4.75911238 15.619857,4.91686259 15.3383598,5.1983598 C15.0568626,5.47985701 14.8991124,5.86190382 14.9,6.26 L14.9,7.46333333 L14.0866667,7.46333333 L14.0866667,6.26 C14.0875543,5.86190382 13.9298041,5.47985701 13.6483069,5.1983598 C13.3668097,4.91686259 12.9847628,4.75911238 12.5866667,4.76 L10.81,4.76 C9.98308984,4.76365087 9.31365087,5.43308984 9.31,6.26 L9.31,7.46333333 L8.83666667,7.46333333 L6.50333333,2.15333333 L6,2.15333333 L6,0 L2.37666667,0 L2.37666667,2.15666667 L1.42666667,2.15666667 L1.42666667,6.17333333 L0,6.17333333 C0,6.17333333 2.19666667,12.6233333 2.33333333,12.9 C2.66666667,13.53 2.86666667,13.5933333 3.59,13.5933333 L20.3966667,13.5933333 C21.3533333,13.5933333 21.6333333,13.3833333 21.8966667,12.9066667 C21.9266667,12.8533333 24,6.42 24,6.42 L20.9666667,6.42 Z M16.4,6.26 L18.1733333,6.26 L18.1733333,7.46333333 L16.4,7.46333333 L16.4,6.26 Z M10.81,6.26 L12.5866667,6.26 L12.5866667,7.46333333 L10.81,7.46333333 L10.81,6.26 Z M3.08666667,6.02666667 L3.08666667,3.60333333 L5.23333333,3.60333333 L6.35333333,6.02666667 L3.08666667,6.02666667 Z" id="Shape"></path>
            </g>
        </g>
    </g>
</svg>