<?xml version="1.0" encoding="UTF-8"?>
<svg width="24px" height="24px" viewBox="0 0 24 24" version="1.1" xmlns="http://www.w3.org/2000/svg" xmlns:xlink="http://www.w3.org/1999/xlink">
    <title>Icon/Fill/target-fill</title>
    <g id="Icon/Fill/target-fill" stroke="none" stroke-width="1" fill="none" fill-rule="evenodd">
        <g id="Group" transform="translate(0.000050, -0.000000)" fill="#474747" fill-rule="nonzero">
            <g id="target">
                <path d="M23.9999001,11.9999501 C23.9999001,14.7729385 23.049904,17.3179279 21.4709106,19.3499195 L23.560902,21.4399107 L21.4399108,23.5609019 L19.3499195,21.4709107 C17.3179279,23.050904 14.7729385,23.9999001 11.9999501,23.9999001 C9.22696162,23.9999001 6.68197218,23.050904 4.64998064,21.4709107 L2.56098934,23.5609019 L0.439998169,21.4399107 L2.52898947,19.3499195 C0.948996047,17.3189279 0,14.7729385 0,11.9999501 C0,5.37297764 5.37297763,0 11.9999501,0 C18.6269225,0 23.9999001,5.37297764 23.9999001,11.9999501 Z M16.4929314,18.6139225 C17.3259279,18.0459249 18.0459249,17.3259279 18.6139225,16.4929313 C19.4879189,15.2109367 19.9999168,13.6639431 19.9999168,11.9999501 C19.9999168,7.58896839 16.4109317,3.99998335 11.9999501,3.99998335 C7.58896844,3.99998335 3.99998335,7.58896839 3.99998335,11.9999501 C3.99998335,13.6649431 4.51198122,15.2119367 5.38597758,16.4929313 C5.95297522,17.3259279 6.67397222,18.0469249 7.50696873,18.6139225 C8.78896344,19.4879189 10.334957,19.9999167 11.9999501,19.9999167 C13.6649431,19.9999167 15.2109367,19.4879189 16.4929314,18.6139225 Z M11.9999501,8.24996568 C14.0680664,8.24996568 15.7499344,9.93183368 15.7499344,11.9999501 C15.7499344,12.5193229 15.6430599,13.0133834 15.4518107,13.4633815 C15.0721248,14.3558778 14.3558777,15.0721248 13.4633815,15.4518107 C13.0133833,15.6430599 12.5193229,15.7499345 11.9999501,15.7499345 C11.4805772,15.7499345 10.9865168,15.6439974 10.5365186,15.4518107 C9.64402236,15.0730623 8.92777534,14.3568153 8.54808942,13.464319 C8.35684021,13.0133834 8.24996566,12.5193229 8.24996566,11.9999501 C8.24996566,9.93183368 9.93183366,8.24996568 11.9999501,8.24996568 Z" id="Combined-Shape"></path>
            </g>
        </g>
    </g>
</svg>