<?xml version="1.0" encoding="UTF-8"?>
<svg width="24px" height="24px" viewBox="0 0 24 24" version="1.1" xmlns="http://www.w3.org/2000/svg" xmlns:xlink="http://www.w3.org/1999/xlink">
    <title>Icon/Fill/telecom-fill</title>
    <g id="Icon/Fill/telecom-fill" stroke="none" stroke-width="1" fill="none" fill-rule="evenodd">
        <g id="Group" transform="translate(2.000000, 0.000000)" fill="#474747" fill-rule="nonzero">
            <g id="Fill-2">
                <path d="M17.1438721,0.333333333 L16.8105387,0 L15.3038721,1.50333333 L15.6372054,1.83666667 C16.6376628,2.83689567 17.1997331,4.1936344 17.1997331,5.60833333 C17.1997331,7.02303226 16.6376628,8.379771 15.6372054,9.38 L15.6372054,9.38 L15.3038721,9.71333333 L16.8105387,11.22 L17.1438721,10.8866667 C20.0571612,7.97335924 20.0571612,3.24997409 17.1438721,0.336666667 L17.1438721,0.336666667 L17.1438721,0.333333333 Z" id="Path"></path>
                <path d="M13.0338721,7.42333333 L14.5405387,8.93 L14.8738721,8.59666667 C16.5303439,6.93965403 16.5303439,4.25367931 14.8738721,2.59666667 L14.8738721,2.59666667 L14.5405387,2.26333333 L13.0338721,3.76666667 L13.3672054,4.1 C14.1945226,4.92888657 14.1945226,6.27111343 13.3672054,7.1 L13.0338721,7.42333333 Z" id="Path"></path>
                <path d="M3.70720541,9.38 C2.70674802,8.379771 2.1446777,7.02303226 2.1446777,5.60833333 C2.1446777,4.1936344 2.70674802,2.83689567 3.70720541,1.83666667 L3.70720541,1.83666667 L4.04053875,1.50333333 L2.52053875,0 L2.18720541,0.333333333 C0.786768999,1.73362685 0,3.6329182 0,5.61333333 C0,7.59374847 0.786768999,9.49303981 2.18720541,10.8933333 L2.18720541,10.8933333 L2.52053875,11.2266667 L4.03053875,9.72 L3.70720541,9.38 Z" id="Path"></path>
                <path d="M4.47720541,8.60666667 L4.81053875,8.94 L6.33387208,7.43333333 L6.00053875,7.1 C5.60239018,6.70234721 5.37867092,6.16271664 5.37867092,5.6 C5.37867092,5.03728336 5.60239018,4.49765279 6.00053875,4.1 L6.00053875,4.1 L6.33387208,3.76666667 L4.82720541,2.26333333 L4.49387208,2.59666667 C2.83923772,4.25443981 2.83923772,6.93889352 4.49387208,8.59666667 L4.49387208,8.59666667 L4.47720541,8.60666667 Z" id="Path"></path>
                <path d="M12.2338721,5.60333333 C12.2391107,4.36665201 11.3617272,3.3020767 10.1468153,3.07099823 C8.93190339,2.83991977 7.7249558,3.50805147 7.27581523,4.66030183 C6.82667466,5.81255219 7.26306623,7.12124805 8.31387208,7.77333333 L2.98053875,24 L5.02387208,24 L9.78053875,19.2433333 L14.5472054,24 L16.6172054,24 L11.0405387,7.76333333 C11.7862926,7.29929192 12.2380064,6.4816648 12.2338721,5.60333333 Z M11.3072054,14.7066667 L9.78053875,16.2333333 L8.16387208,14.6233333 L9.69053875,10.3766667 L11.3072054,14.7066667 Z M9.66720541,4.66666075 C10.190035,4.66666075 10.6138721,5.09050377 10.6138721,5.61333333 C10.6138721,6.1361629 10.190035,6.56 9.66720541,6.56 C9.14437585,6.56 8.72053283,6.1361629 8.72053283,5.61333333 L8.72053283,5.61333333 C8.71964903,5.36199002 8.8191011,5.12068436 8.99682877,4.94295669 C9.17455645,4.76522902 9.41586211,4.66577695 9.66720541,4.66666075 L9.66720541,4.66666075 Z M8.27053875,17.74 L5.38720541,21.5366667 L7.43387208,16.9 L8.27053875,17.74 Z M14.3138721,21.5366667 L11.2838721,17.74 L12.0605387,16.9633333 L14.3138721,21.5366667 Z" id="Shape"></path>
            </g>
        </g>
    </g>
</svg>