<svg width="24" height="24" viewBox="0 0 24 24" fill="none" xmlns="http://www.w3.org/2000/svg">
<g clip-path="url(#clip0_15805_63920)">
<path d="M22.6533 22.8567C22.6533 23.4867 22.14 24 21.51 24H13.7933C13.1633 24 12.65 23.4867 12.65 22.8567C12.65 22.2267 13.1633 21.7133 13.7933 21.7133H16.5067V2.28667H13.7933C13.1633 2.28667 12.65 1.77333 12.65 1.14333C12.65 0.513333 13.1633 0 13.7933 0H21.51C22.14 0 22.6533 0.513333 22.6533 1.14333C22.6533 1.77333 22.14 2.28667 21.51 2.28667H18.7967V21.71H21.51C22.14 21.71 22.6533 22.2233 22.6533 22.8533V22.8567ZM14.8 4.66667H0V17.8333C0 18.6633 0.67 19.3333 1.5 19.3333H14.8V4.66667ZM20.4667 4.66667V19.3333H22.5C23.33 19.3333 24 18.6633 24 17.8333V4.66667H20.4667Z" fill="black"/>
</g>
<defs>
<clipPath id="clip0_15805_63920">
<rect width="24" height="24" fill="white"/>
</clipPath>
</defs>
</svg>
