<?xml version="1.0" encoding="UTF-8"?>
<svg width="24px" height="24px" viewBox="0 0 24 24" version="1.1" xmlns="http://www.w3.org/2000/svg" xmlns:xlink="http://www.w3.org/1999/xlink">
    <title>Icon/Fill/thermometer-fill</title>
    <g id="Icon/Fill/thermometer-fill" stroke="none" stroke-width="1" fill="none" fill-rule="evenodd">
        <g id="Group" transform="translate(5.000000, 0.000000)" fill="#474747" fill-rule="nonzero">
            <path d="M7.92194534,3.4070605 C7.92194534,1.17138622 6.20837463,0 4.51153802,0 C2.81470141,0 1.10447752,1.17138622 1.10447752,3.4070605 L1.10447752,16.5265862 C-0.475195978,18.3475181 -0.345688138,21.088242 1.39865284,22.7521037 C3.14299381,24.4159654 5.88677587,24.4159654 7.63111684,22.7521037 C9.37545781,21.088242 9.50496565,18.3475181 7.92529215,16.5265862 L7.92194534,3.4070605 Z M4.50484438,2.17543156 C5.14432778,2.12940762 5.70012871,2.61030276 5.74651378,3.24976006 C5.74985936,3.29990659 5.74985936,3.35022034 5.74651378,3.40036686 L5.74651378,9.53843067 L3.26652181,9.53843067 L3.26652181,3.4070605 C3.22642655,2.76771002 3.71161085,2.2166365 4.35089077,2.17543156 C4.40215406,2.17208434 4.45358109,2.17208434 4.50484438,2.17543156 L4.50484438,2.17543156 Z M9.37111743,7.9821604 L13.3705647,7.9821604 L13.3705647,10.1843665 L9.35438334,10.1843665 L9.37111743,7.9821604 Z M9.37111743,2.88830374 L13.3705647,2.88830374 L13.3705647,5.07712257 L9.35438334,5.07712257 L9.37111743,2.88830374 Z M9.37111743,13.0894043 L13.3705647,13.0894043 L13.3705647,15.2916104 L9.35438334,15.2916104 L9.37111743,13.0894043 Z" id="Shape"></path>
        </g>
    </g>
</svg>