<?xml version="1.0" encoding="UTF-8"?>
<svg width="24px" height="24px" viewBox="0 0 24 24" version="1.1" xmlns="http://www.w3.org/2000/svg" xmlns:xlink="http://www.w3.org/1999/xlink">
    <title>Icon/Fill/ticket-fill</title>
    <g id="Icon/Fill/ticket-fill" stroke="none" stroke-width="1" fill="none" fill-rule="evenodd">
        <g id="Group" transform="translate(-0.000000, -0.000000)" fill="#474747" fill-rule="nonzero">
            <g id="ticket-fill" transform="translate(0.000000, 0.000000)">
                <path d="M24,0 L0,0 L0,3 L3,3 L3,22.5 C3,23.3284272 3.67157289,24 4.5,24 L19.5,24 C20.3284272,24 21,23.3284272 21,22.5 L21,3 L24,3 L24,0 Z M14.2500001,19.5000001 L6.00000002,19.5000001 L6.00000002,18.0000001 L14.2500001,18.0000001 L14.2500001,19.5000001 Z M14.2500001,16.5000001 L6.00000002,16.5000001 L6.00000002,15.0000001 L14.2500001,15.0000001 L14.2500001,16.5000001 Z M14.2500001,13.5 L6.00000002,13.5 L6.00000002,12 L14.2500001,12 L14.2500001,13.5 Z M14.2500001,10.5 L6.00000002,10.5 L6.00000002,9.00000004 L14.2500001,9.00000004 L14.2500001,10.5 Z M14.2500001,7.50000002 L6.00000002,7.50000002 L6.00000002,6.00000002 L14.2500001,6.00000002 L14.2500001,7.50000002 Z M18.0000001,19.5000001 L15.7500001,19.5000001 L15.7500001,18.0000001 L18.0000001,18.0000001 L18.0000001,19.5000001 Z M18.0000001,16.5000001 L15.7500001,16.5000001 L15.7500001,15.0000001 L18.0000001,15.0000001 L18.0000001,16.5000001 Z M18.0000001,13.5 L15.7500001,13.5 L15.7500001,12 L18.0000001,12 L18.0000001,13.5 Z M18.0000001,10.5 L15.7500001,10.5 L15.7500001,9.00000004 L18.0000001,9.00000004 L18.0000001,10.5 Z M18.0000001,7.50000002 L15.7500001,7.50000002 L15.7500001,6.00000002 L18.0000001,6.00000002 L18.0000001,7.50000002 Z" id="Shape"></path>
            </g>
        </g>
    </g>
</svg>