<?xml version="1.0" encoding="UTF-8"?>
<svg width="24px" height="24px" viewBox="0 0 24 24" version="1.1" xmlns="http://www.w3.org/2000/svg" xmlns:xlink="http://www.w3.org/1999/xlink">
    <title>Icon/Fill/toggle-fill</title>
    <g id="Icon/Fill/toggle-fill" stroke="none" stroke-width="1" fill="none" fill-rule="evenodd">
        <g id="Group" transform="translate(-0.000000, 3.000375)" fill="#474747" fill-rule="nonzero">
            <g id="toggle">
                <path d="M8.7309273,12.0228999 C8.11593243,10.2689145 6.46094619,8.99992504 4.49996252,8.99992504 C2.01898318,8.99992504 0,11.0179083 0,13.5008875 C0,15.9818669 2.01898318,17.9998501 4.49996252,17.9998501 C6.44394632,17.9998501 8.08893265,16.7538605 8.71592743,15.0228749 L24,15.0228749 L24,12.0228999 L8.7309273,12.0228999 Z M4.50016252,14.9995751 C3.6731694,14.9995751 3.00017501,14.3275807 3.00017501,13.4995876 C3.00017501,12.6725944 3.6731694,11.9996001 4.50016252,11.9996001 C5.32715563,11.9996001 6.00015002,12.6725944 6.00015002,13.4995876 C6.00015002,14.3275807 5.32715563,14.9995751 4.50016252,14.9995751 Z M19.4998376,8.99992504 C21.9808169,8.99992504 23.9998001,6.98194182 23.9998001,4.49896253 C23.9998001,2.01798319 21.9808169,0 19.4998376,0 C17.5468538,0 15.8968676,1.25798952 15.2758727,2.99997501 L0,2.99997501 L0,5.99995003 L15.2768728,5.99995003 C15.8978676,7.74293551 17.5478539,8.99992504 19.4998376,8.99992504 Z M19.4998376,2.99997501 C20.3268307,2.99997501 20.9998251,3.67196942 20.9998251,4.49996252 C20.9998251,5.32695566 20.3268307,5.99995003 19.4998376,5.99995003 C18.6728445,5.99995003 17.9998501,5.32695566 17.9998501,4.49996252 C17.9998501,3.67196942 18.6728445,2.99997501 19.4998376,2.99997501 Z" id="Combined-Shape"></path>
            </g>
        </g>
    </g>
</svg>