<?xml version="1.0" encoding="UTF-8"?>
<svg width="24px" height="24px" viewBox="0 0 24 24" version="1.1" xmlns="http://www.w3.org/2000/svg" xmlns:xlink="http://www.w3.org/1999/xlink">
    <title>Icon/Fill/touchscreen-fill</title>
    <g id="Icon/Fill/touchscreen-fill" stroke="none" stroke-width="1" fill="none" fill-rule="evenodd">
        <g id="Group" transform="translate(4.000000, 0.000000)" fill="#474747" fill-rule="nonzero">
            <path d="M8.21011383,23.9332986 C7.84178493,23.9332986 7.54319536,23.634709 7.54319536,23.2663801 C7.50716508,22.276467 7.16459867,21.3221748 6.5628252,20.535349 C5.97379936,19.8001004 5.66532468,18.879404 5.6924966,17.9377015 L5.6924966,16.6038646 C5.81587651,15.2233433 6.00261369,15.1566515 6.56949439,15.1566515 L6.72622023,15.1566515 L6.74622778,15.1566515 C6.85122583,15.1556771 6.95170814,15.1138095 7.02633354,15.0399407 C7.16305183,14.8998879 7.28309716,14.7798425 7.21307072,8.90429078 C7.21307072,8.55082399 7.21307072,7.43040095 8.00003451,7.39372044 C8.47688122,7.37037829 8.38017804,7.37037829 8.87036312,7.37037829 C9.56729293,7.37037829 9.66399611,8.53748562 9.66399611,8.86761026 L9.70067662,12.9691589 C9.7004008,13.0807523 9.74917245,13.1868307 9.83406032,13.2592684 C9.9037039,13.3190833 9.99235147,13.3521784 10.0841547,13.352637 L10.1408428,13.352637 C10.1708541,13.352637 10.220873,13.352637 10.2875649,13.3159565 C10.4661427,13.2564047 10.6528758,13.2249075 10.8411072,13.2225879 C11.3897981,13.2484201 11.8989134,13.5157972 12.2316322,13.9528636 C12.30407,14.0377515 12.4101483,14.0865231 12.5217418,14.0862473 C12.5796843,14.0861429 12.636793,14.0724369 12.6884714,14.0462322 C12.860851,13.9667106 13.0488603,13.9268298 13.2386791,13.9295215 C13.9589511,13.9295215 14.5925236,14.4063682 14.6358733,14.59644 C14.6749173,14.7733491 14.8315163,14.8994598 15.0126823,14.8998879 L15.1427314,14.8998879 C15.4761906,14.8998879 16.6332942,14.9599105 16.7866854,15.7435397 C16.806693,15.8602505 16.8300351,15.9569536 16.8467081,16.0403184 C16.9400767,16.4704809 16.9500804,16.5271689 16.8733848,17.8243254 C16.8733848,17.9843858 16.7066552,18.7546766 16.5399256,19.4916216 C16.2493609,20.7682941 16.0267418,22.0594848 15.8730071,23.3597487 C15.8732778,23.5416444 15.7941121,23.7145909 15.6562586,23.8332608 C15.5301143,23.9416591 15.3690724,24.0008657 15.202754,24 L8.21011383,23.9332986 Z" id="Path"></path>
            <path d="M2.88143523,5.5763676 C4.47439691,2.67301288 8.08474313,1.55888715 11.0367933,3.05968532 C13.9888435,4.5604835 15.2160422,8.1339775 13.8088944,11.1317985 C13.7422026,11.2651822 13.6621724,11.4052351 13.5621346,11.5719647 L13.4754352,11.6953446 L15.0526974,13.2959489 L15.3227994,12.8824595 C15.4864831,12.6356836 15.63568,12.3795994 15.7696347,12.1155032 C17.8423748,8.03761799 16.2419018,3.05119643 12.1831018,0.941328617 C8.12430183,-1.1685392 3.1234823,0.386362021 0.976662489,4.42573874 C-1.17015732,8.46511547 0.339042605,13.4799165 4.35865965,15.6635095 L5.19230774,13.6094006 C2.43650737,11.9506023 1.42831971,8.44594994 2.88143523,5.5763676 Z" id="Path"></path>
            <path d="M12.7151481,10.571587 C13.9105436,8.22267796 13.0331294,5.34897995 10.7295561,4.06839649 C8.42598282,2.78781302 5.52209053,3.5594383 4.15803585,5.81458768 C2.79398118,8.06973706 3.45878306,10.9999306 5.66248526,12.4456279 L6.43944529,10.5215681 C5.3507385,9.5643484 5.13926834,7.94883501 5.94491643,6.74364492 C6.75056451,5.53845483 8.3242077,5.11625788 9.62492494,5.75632556 C10.9256422,6.39639325 11.5512247,7.90080333 11.087867,9.27443053 L12.5917682,10.8016738 L12.6451217,10.7049707 C12.6684638,10.661621 12.6951406,10.6182713 12.7151481,10.571587 Z" id="Path"></path>
        </g>
    </g>
</svg>