<?xml version="1.0" encoding="UTF-8"?>
<svg width="24px" height="24px" viewBox="0 0 24 24" version="1.1" xmlns="http://www.w3.org/2000/svg" xmlns:xlink="http://www.w3.org/1999/xlink">
    <title>Icon/Fill/train-railway-fill</title>
    <g id="Icon/Fill/train-railway-fill" stroke="none" stroke-width="1" fill="none" fill-rule="evenodd">
        <g id="Group" transform="translate(3.000000, 0.000000)" fill="#474747" fill-rule="nonzero">
            <g id="Fill-2">
                <path d="M13.2833333,17.7133333 L16.3033333,17.7133333 C16.6715232,17.7133333 16.97,17.4148565 16.97,17.0466667 L16.97,0.666666667 C16.97,0.298476833 16.6715232,0 16.3033333,0 L1.30333333,0 C0.9351435,0 0.636666667,0.298476833 0.636666667,0.666666667 L0.636666667,17.0466667 C0.636666667,17.4148565 0.9351435,17.7133333 1.30333333,17.7133333 L4.37,17.7133333 L0,24 L17.6666667,24 L13.2833333,17.7133333 Z M12.54,15.2766896 C11.6519807,15.2807154 10.8491478,14.7489016 10.5065084,13.9296379 C10.163869,13.1103743 10.3490449,12.165347 10.9755396,11.5359829 C11.6020342,10.9066188 12.5462054,10.7171264 13.3670263,11.0560184 C14.1878471,11.3949105 14.7233359,12.1953048 14.7233359,13.0833333 C14.7251779,14.2915389 13.7482014,15.2729901 12.54,15.2766896 L12.54,15.2766896 Z M12.23,18.5166667 L5.43666667,18.5166667 L6,17.7133333 L11.6666667,17.7133333 L12.23,18.5166667 Z M10.05,1.75333333 L14.8866667,1.75333333 L14.8866667,8.18333333 L10.05,8.18333333 L10.05,1.75333333 Z M2.78,1.75333333 L7.61666667,1.75333333 L7.61666667,8.18333333 L2.78,8.18333333 L2.78,1.75333333 Z M2.70666406,13.0866667 C2.71218354,11.8821621 3.69212457,10.9096698 4.89663615,10.9133331 C6.10114772,10.9170172 7.07513845,11.895469 7.07331049,13.0999847 C7.07147737,14.3045005 6.09451718,15.28 4.89,15.28 C3.68179858,15.2763235 2.7048221,14.2948723 2.70666406,13.0866667 L2.70666406,13.0866667 Z M4.52,19.85 L13.1466667,19.85 L13.67,20.6 L3.98666667,20.6 L4.52,19.85 Z M2.52,22.6666667 L3.03666667,21.9266667 L14.61,21.9266667 L15.1366667,22.6666667 L2.52,22.6666667 Z" id="Shape"></path>
            </g>
        </g>
    </g>
</svg>