<?xml version="1.0" encoding="UTF-8"?>
<svg width="24px" height="24px" viewBox="0 0 24 24" version="1.1" xmlns="http://www.w3.org/2000/svg" xmlns:xlink="http://www.w3.org/1999/xlink">
    <title>Icon/Fill/transform-fill</title>
    <g id="Icon/Fill/transform-fill" stroke="none" stroke-width="1" fill="none" fill-rule="evenodd">
        <g id="Group" transform="translate(0.036818, 3.151166)" fill="#474747" fill-rule="nonzero">
            <g id="Transform-fill">
                <path d="M17.2366063,13.1343138 L19.2650994,14.3376015 C17.1794538,17.5575819 13.2723096,19.088455 9.5543557,18.1424051 C5.83640184,17.1963552 3.13614261,13.9841988 2.84318152,10.1589713 L1.97194864,11.0269166 C1.51104577,11.4490582 0.800569362,11.4373389 0.353839877,11.0002259 C-0.0928896118,10.5631129 -0.120064711,9.85305967 0.291948635,9.38308095 L3.99386646,5.68116313 L7.71551034,9.40609462 C8.13452672,9.87351757 8.11435209,10.5871466 7.66959744,11.0301503 C7.22484275,11.4731539 6.51113968,11.4905133 6.04537332,11.0696563 L5.22345551,10.2411632 C5.53496215,12.9872905 7.53044619,15.2455181 10.2173625,15.8926135 C12.9042789,16.5397089 15.7090546,15.4375372 17.2366063,13.1343138 Z M23.3056474,7.41047819 C23.7499428,7.86836032 23.7499428,8.59643159 23.3056474,9.0543138 L19.5971542,12.7562316 L15.8820857,9.03130012 C15.558224,8.73866519 15.4223073,8.29118294 15.5287072,7.86786194 C15.635107,7.44454094 15.9664501,7.11450231 16.3901875,7.00977321 C16.8139249,6.90504404 17.2608676,7.04272491 17.5522227,7.36773846 L18.3741405,8.19623159 C18.0626338,5.45010418 16.0671499,3.19187656 13.3802334,2.54478121 C10.693317,1.89768585 7.88854149,2.99985754 6.36098976,5.30308093 L4.33249659,4.09979323 C6.41430601,0.868580152 10.328095,-0.670808204 14.0533566,0.276342702 C17.7786181,1.22349362 20.4818764,4.44527188 20.7675652,8.27842342 L21.638798,7.41047819 C21.8607946,7.19384669 22.160463,7.07540061 22.4705789,7.08171104 C22.7815621,7.07598719 23.0820338,7.19428319 23.3056474,7.41047819 Z" id="Combined-Shape"></path>
            </g>
        </g>
    </g>
</svg>