<?xml version="1.0" encoding="UTF-8"?>
<svg width="24px" height="24px" viewBox="0 0 24 24" version="1.1" xmlns="http://www.w3.org/2000/svg" xmlns:xlink="http://www.w3.org/1999/xlink">
    <title>Icon/Fill/truck-connected-fill</title>
    <g id="Icon/Fill/truck-connected-fill" stroke="none" stroke-width="1" fill="none" fill-rule="evenodd">
        <g id="Group" transform="translate(0.000000, 2.000000)" fill="#474747" fill-rule="nonzero">
            <path d="M20.0833333,4.49 L14.75,4.49 L14.75,0 L0,0 L0,17.1466667 L4.19666667,17.1466667 C4.56610908,18.4324165 5.74222559,19.3181808 7.08,19.3181808 C8.41777441,19.3181808 9.59389092,18.4324165 9.96333333,17.1466667 L15.6966667,17.1466667 C16.0661091,18.4324165 17.2422256,19.3181808 18.58,19.3181808 C19.9177744,19.3181808 21.0938909,18.4324165 21.4633333,17.1466667 L24,17.1466667 L24,8.14666667 L20.0833333,4.49 Z M5.66666667,16.0266667 C5.80572452,15.5351 6.19535723,15.1543514 6.69,15.0266667 C7.47027549,14.8083484 8.28229753,15.2520763 8.52,16.0266667 C8.62381744,16.3993743 8.5740172,16.7981371 8.38172552,17.1338646 C8.18943384,17.4695921 7.87067555,17.7143061 7.49666667,17.8133333 L7.41,17.8366667 L7.41,17.8366667 C6.64651073,18.0044578 5.88383762,17.5509371 5.66666667,16.8 C5.59026959,16.5478826 5.59026959,16.278784 5.66666667,16.0266667 Z M17.1666667,16.0266667 C17.3057245,15.5351 17.6953572,15.1543514 18.19,15.0266667 C18.5701253,14.9237935 18.97536,14.9728042 19.32,15.1633333 C19.8448485,15.4447151 20.1423463,16.0201409 20.0684814,16.6110602 C19.9946164,17.2019795 19.5646292,17.6864696 18.9866667,17.83 L18.9866667,17.83 L18.9,17.8533333 L18.9,17.8533333 C18.138474,18.0216999 17.3766329,17.5715873 17.1566667,16.8233333 C17.0789972,16.5636194 17.0778399,16.2870215 17.1533333,16.0266667 L17.1666667,16.0266667 Z M21.1666667,11.36 L16.0933333,11.36 L16.0933333,7.29 L18.94,7.29 L21.12,9.33333333 L21.1666667,11.36 Z M11.8333333,12.06 L11.8333333,12.1266667 L10.3633333,12.0966667 L10.3666667,12 C10.70192,10.3799288 10.3750616,8.6930672 9.45895806,7.31546789 C8.54285452,5.93786859 7.11366527,4.98405699 5.49,4.66666667 C4.6430564,4.49499252 3.77027694,4.49499252 2.92333333,4.66666667 L2.83,4.66666667 L2.83,3.21 L2.9,3.21 C5.38723194,2.77341258 7.93325674,3.55270679 9.75,5.30666667 C11.5091231,7.07689207 12.2768984,9.60368441 11.8,12.0533333 L11.8333333,12.06 Z M7.97,7.06 C9.24794291,8.36095395 9.78649477,10.2170792 9.40333333,12 L9.40333333,12.0666667 L7.97,12.0333333 L7.99333333,11.9366667 C8.26414113,10.8713021 8.09580392,9.74181371 7.52610525,8.80171689 C6.95640657,7.86162006 6.0330677,7.18966273 4.96333333,6.93666667 C4.30620463,6.77718444 3.62046203,6.77718444 2.96333333,6.93666667 L2.86333333,6.95666667 L2.86333333,5.55333333 L2.93,5.55333333 C4.74727659,5.19668055 6.62416357,5.75053646 7.95666667,7.03666667 L7.97,7.06 Z M6.24666667,8.72666667 C7.08860836,9.58812231 7.41528207,10.8289759 7.10666667,11.9933333 L7.09,12.0566667 L5.63,12 L5.66666667,11.8966667 C5.85341388,11.3695668 5.81969021,10.7894277 5.57312626,10.2875163 C5.3265623,9.78560495 4.88799806,9.40434375 4.35666667,9.23 C3.90802383,9.07835228 3.42197617,9.07835228 2.97333333,9.23 L2.86666667,9.26666667 L2.86666667,7.84333333 L2.93,7.84333333 C4.10510248,7.55631956 5.34581545,7.87807862 6.23333333,8.7 L6.24666667,8.72666667 Z" id="Shape"></path>
        </g>
    </g>
</svg>