<?xml version="1.0" encoding="UTF-8"?>
<svg width="24px" height="24px" viewBox="0 0 24 24" version="1.1" xmlns="http://www.w3.org/2000/svg" xmlns:xlink="http://www.w3.org/1999/xlink">
    <title>Icon/Fill/truck-fill</title>
    <g id="Icon/Fill/truck-fill" stroke="none" stroke-width="1" fill="none" fill-rule="evenodd">
        <g id="Group" transform="translate(0.000000, 2.000000)" fill="#474747" fill-rule="nonzero">
            <g id="Fill-2">
                <path d="M0,0 L0,17.3333333 L3.44666667,17.3333333 C3.30039153,15.765624 4.30580441,14.320871 5.82666667,13.9133333 C7.57265786,13.4271673 9.38430936,14.4385983 9.88666667,16.18 C9.99424995,16.5543567 10.0326561,16.9451958 10,17.3333333 L13.2133333,17.3333333 L13.2133333,0 L0,0 Z" id="Path"></path>
                <path d="M20.0833333,4.53666667 L14.37,4.53666667 L14.37,17.3333333 L15.3066667,17.3333333 C15.2728243,16.9493068 15.3066714,16.5623206 15.4066667,16.19 C15.7117248,15.0807862 16.579899,14.2151468 17.69,13.9133333 C18.7249291,13.6085007 19.8436525,13.8360017 20.6773266,14.5208292 C21.5110006,15.2056568 21.9514032,16.2589109 21.8533333,17.3333333 L24,17.3333333 L24,8.23333333 L20.0833333,4.53666667 Z M16.4166667,10.6066667 L16.4166667,7.35333333 L18.8433333,7.35333333 L20.96,9.14 L20.96,10.5933333 L16.4166667,10.6066667 Z" id="Shape"></path>
                <path d="M5.59333333,19.04 C5.93855909,19.2331966 6.32772623,19.3342194 6.72333333,19.3333391 C6.88683999,19.3333391 7.04991876,19.3166264 7.21,19.2833333 L7.21,19.2833333 L7.33333333,19.2433333 C8.41821663,18.9283967 9.10642834,17.8636513 8.94807641,16.7451338 C8.78972449,15.6266162 7.83300358,14.7947489 6.70333333,14.7933308 C6.49517101,14.7930312 6.28786121,14.8199255 6.08666667,14.8733333 C5.3162889,15.0823778 4.7140009,15.6833978 4.50333333,16.4533333 C4.21968891,17.4641988 4.6717599,18.5370034 5.59333333,19.04 L5.59333333,19.04 Z" id="Path"></path>
                <path d="M17.4566667,19.04 C17.8018924,19.2331966 18.1910596,19.3342194 18.5866667,19.3333391 C18.7490702,19.3333391 18.9110421,19.3166093 19.07,19.2833333 L19.07,19.2833333 L19.2033333,19.2466667 C20.2882166,18.93173 20.9764283,17.8669846 20.8180764,16.7484671 C20.6597245,15.6299495 19.7030036,14.7980823 18.5733333,14.7966641 C18.365171,14.7963645 18.1578612,14.8232588 17.9566667,14.8766667 C17.1862889,15.0857111 16.5840009,15.6867312 16.3733333,16.4566667 C16.09029,17.4648947 16.5391427,18.5352357 17.4566667,19.04 L17.4566667,19.04 Z" id="Path"></path>
            </g>
        </g>
    </g>
</svg>