<?xml version="1.0" encoding="UTF-8"?>
<svg width="24px" height="24px" viewBox="0 0 24 24" version="1.1" xmlns="http://www.w3.org/2000/svg" xmlns:xlink="http://www.w3.org/1999/xlink">
    <title>Icon/Fill/typography-fonts-fill</title>
    <g id="Icon/Fill/typography-fonts-fill" stroke="none" stroke-width="1" fill="none" fill-rule="evenodd">
        <g id="Group" transform="translate(0.000000, 5.000000)" fill="#474747" fill-rule="nonzero">
            <path d="M8,0 L13.4,14.71 L10.7633333,14.71 L9.44666667,10.8133333 L3.85,10.8133333 L2.53333333,14.71 L0,14.71 L5.38,0 L8,0 Z M6.64666667,2.53333333 L4.52333333,8.86666667 L8.8,8.86666667 L6.69666667,2.53333333 L6.64666667,2.53333333 Z" id="Shape"></path>
            <path d="M18.8533333,3.77 C20.11,3.77 21.1,4.06333333 21.82,4.60333333 C22.5260987,5.11571339 22.9369156,5.94108192 22.92,6.81333333 L22.92,12.4033333 C22.903511,12.6027242 22.9439684,12.8026991 23.0366667,12.98 C23.1664377,13.1087316 23.3490476,13.1691903 23.53,13.1433333 C23.6876831,13.148099 23.8453901,13.1346772 24,13.1033333 L24,14.73 C23.5422215,14.8794798 23.0673096,14.9702059 22.5866667,15 C21.5866667,15 21.0166667,14.5666667 20.8566667,13.7 C20.4293684,14.130436 19.9078687,14.4556601 19.3333333,14.65 C18.6998558,14.8746778 18.0321286,14.9874696 17.36,14.9833333 C16.4354396,15.0315871 15.5279313,14.7211237 14.8266667,14.1166667 C14.1983496,13.542084 13.8535522,12.7209058 13.8833333,11.87 C13.8290395,11.0478871 14.1118699,10.2391125 14.6666667,9.63 C15.2022222,9.10333333 16.2111111,8.75 17.6933333,8.57 L18.6166667,8.44666667 C19.1052211,8.40430528 19.5885621,8.3150044 20.06,8.18 C20.2951278,8.10750786 20.4992777,7.95850189 20.64,7.75666667 C20.7631546,7.54808385 20.8244284,7.30876913 20.8166667,7.06666667 C20.8166667,6.12 20.1133333,5.63666667 18.7133333,5.62333333 C17.3133333,5.61 16.5933333,6.2 16.4733333,7.31333333 L14.24,7.31333333 C14.2499352,6.28046389 14.7265986,5.30753143 15.5366667,4.66666667 C16.3211111,4.07111111 17.4266667,3.77222222 18.8533333,3.77 Z M16.1033333,11.6833333 C16.0879637,12.1074068 16.288791,12.5103167 16.6366667,12.7533333 C17.0464563,13.0314534 17.5352682,13.1694433 18.03,13.1466667 C18.7084945,13.1762666 19.3777168,12.9805396 19.9333333,12.59 C20.3985601,12.2756149 20.6742167,11.7481085 20.6666667,11.1866667 L20.6666667,9.37333333 C20.2108383,9.65490818 19.6916639,9.81765157 19.1566667,9.84666667 L18.1933333,9.97333333 C16.8066667,10.1466667 16.1033333,10.7066667 16.1033333,11.6833333 Z" id="Shape"></path>
        </g>
    </g>
</svg>