<?xml version="1.0" encoding="UTF-8"?>
<svg width="24px" height="24px" viewBox="0 0 24 24" version="1.1" xmlns="http://www.w3.org/2000/svg" xmlns:xlink="http://www.w3.org/1999/xlink">
    <title>Icon/Fill/umbrella-fill</title>
    <g id="Icon/Fill/umbrella-fill" stroke="none" stroke-width="1" fill="none" fill-rule="evenodd">
        <g id="Group" fill="#474747" fill-rule="nonzero">
            <path d="M0.0604015012,12.3663982 C-0.0162605595,12.8297037 -0.132920217,13.5296616 0.523706999,13.7363158 C0.856979446,13.8450482 1.22091781,13.7061404 1.39698786,13.4030025 C1.75696624,13.0930212 4.18348711,12.3397331 6.92998877,13.0330248 C6.82666164,8.98326808 8.76654509,4.74018968 10.1231303,2.29033687 C1.66697164,3.38027138 0.127064163,11.9830878 0.0604015012,12.3663982 Z" id="Path"></path>
            <path d="M12.6863096,2.49365799 L12.6863096,0.687099858 C12.6602513,0.300373713 12.3389568,0 11.9513537,0 C11.5637507,0 11.2424562,0.300373713 11.2163979,0.687099858 L11.2163979,2.62365017 C9.93980794,4.97684213 8.2832408,9.38324405 8.42989865,13.1463513 L8.47656252,13.1463513 C9.37340019,12.9123144 10.2911084,12.7671781 11.2163979,12.713044 L11.2163979,19.9559422 C11.2602358,20.5092033 11.1221269,21.061639 10.8230882,21.529181 C10.6977611,21.7238623 10.4875056,21.847542 10.2564556,21.8624943 C10.102386,21.8631402 9.95519784,21.7987376 9.85111705,21.6851372 C9.74703625,21.5715368 9.69572854,21.4192885 9.70982175,21.2658635 C9.6837635,20.8791373 9.36246899,20.5787636 8.97486591,20.5787636 C8.58726283,20.5787636 8.26596832,20.8791373 8.23991007,21.2658635 C8.23362178,21.8031974 8.44384183,22.3204541 8.82319276,22.7010591 C9.2025437,23.0816641 9.71910383,23.2935901 10.2564556,23.2891459 C10.9465882,23.2825434 11.5929928,22.9500714 11.9996842,22.3924624 C12.4905837,21.6780409 12.7319443,20.8215621 12.6863096,19.9559422 L12.6863096,12.7163771 L12.7229741,12.7163771 C13.5407348,12.7918862 14.3525088,12.9221709 15.1528281,13.1063537 C15.1361624,12.8063717 15.1028311,12.463059 15.0461678,12.0597499 C14.6095274,8.87994096 13.7062483,4.71352461 12.6863096,2.49365799 Z" id="Path"></path>
            <path d="M23.9389669,12.4797247 L23.9389669,12.4797247 C23.9453287,12.4210112 23.9453287,12.3617821 23.9389669,12.3030686 C23.8455547,11.6663544 23.7029135,11.0378417 23.5123258,10.4231816 C22.8123679,8.19331554 20.512506,3.15695147 13.9162357,2.29700313 C15.1094973,4.94017766 16.1561011,9.05659701 16.5394114,11.8630951 C16.6060741,12.3530656 16.6494048,12.7963723 16.6694036,13.1963483 C19.5492306,12.4097289 22.2724003,13.2330128 22.615713,13.5296616 C22.7943421,13.8297733 23.1558296,13.9677456 23.4889939,13.8629749 C24.1322886,13.6429881 24.0156289,12.9563627 23.9389669,12.4797247 Z" id="Path"></path>
        </g>
    </g>
</svg>