<svg width="24" height="24" viewBox="0 0 24 24" fill="none" xmlns="http://www.w3.org/2000/svg">
<g clip-path="url(#clip0_15805_63928)">
<path d="M19.8034 7.80165C19.2168 7.21498 18.2668 7.21498 17.6834 7.80165C17.0968 8.38831 17.0968 9.33831 17.6834 9.92165L18.2634 10.5016H17.1001C16.5934 8.77498 15.2334 7.41498 13.5067 6.90831V5.74498L14.0868 6.32498C14.6734 6.91165 15.6234 6.91165 16.2068 6.32498C16.7934 5.73831 16.7934 4.79165 16.2068 4.20498L12.0034 0.00164795L7.80342 4.20165C7.21675 4.78831 7.21675 5.73831 7.80342 6.32165C8.39008 6.90831 9.34008 6.90831 9.92342 6.32165L10.5034 5.74498V6.90498C8.77675 7.41165 7.41675 8.77165 6.91008 10.4983H5.74675L6.32675 9.91831C6.91342 9.33498 6.91342 8.38498 6.32675 7.79831C5.74008 7.21165 4.79342 7.21165 4.20675 7.79831L0.00341797 12.0016L4.20342 16.2016C4.79008 16.7883 5.74008 16.7883 6.32342 16.2016C6.91008 15.615 6.91008 14.6683 6.32342 14.0816L5.74342 13.5016H6.90675C7.41342 15.2283 8.77342 16.5883 10.5001 17.095V18.2583L9.92008 17.6783C9.33342 17.0916 8.38675 17.0916 7.80008 17.6783C7.21342 18.2616 7.21342 19.2116 7.80008 19.7983L12.0001 23.9983L16.2001 19.7983C16.7868 19.2116 16.7868 18.2616 16.2001 17.6783C15.6134 17.0916 14.6668 17.0916 14.0801 17.6783L13.5001 18.2583V17.095C15.2268 16.5883 16.5868 15.2283 17.0934 13.5016H18.2567L17.6768 14.0816C17.0901 14.6683 17.0901 15.6183 17.6768 16.2016C18.2634 16.7883 19.2101 16.7883 19.7968 16.2016L23.9968 12.0016L19.7968 7.80165H19.8034ZM12.9501 15.6616H11.6934V14.2616H12.9501V15.6616ZM13.9168 11.595C13.7768 11.8216 13.6001 12.0416 13.3934 12.245C13.2601 12.3816 13.1434 12.4983 13.0568 12.585C13.0101 12.6316 12.9934 12.6583 12.9901 12.665C12.9901 12.665 12.9834 12.6883 12.9767 12.735C12.9667 12.8316 12.9568 12.975 12.9534 13.165V13.3783H11.6968L11.7034 13.1383C11.7101 12.9016 11.7201 12.715 11.7334 12.585C11.7568 12.395 11.8068 12.225 11.8801 12.0783C11.9568 11.9283 12.0601 11.795 12.1934 11.6683C12.2734 11.5916 12.3801 11.4816 12.5168 11.3416C12.6634 11.1983 12.7734 11.065 12.8568 10.9283C12.9034 10.8516 12.9301 10.7383 12.9301 10.5983C12.9301 10.4883 12.9134 10.3916 12.8801 10.3216C12.8434 10.2416 12.7968 10.1816 12.7368 10.125C12.6701 10.0683 12.5934 10.0216 12.5034 9.99165C12.2834 9.91498 11.9668 9.92165 11.7568 10.0116C11.6434 10.0583 11.5568 10.1183 11.4834 10.195C11.4134 10.2683 11.3601 10.3616 11.3201 10.4816C11.2768 10.6183 11.2534 10.775 11.2534 10.9516V11.2016H10.0034V10.9516C10.0034 10.7983 10.0168 10.6516 10.0368 10.5116C10.0601 10.3583 10.0934 10.2116 10.1401 10.0716C10.2234 9.81831 10.3501 9.59831 10.5068 9.40831C10.5334 9.37831 10.5568 9.34498 10.5834 9.31832C10.7768 9.11165 11.0134 8.94831 11.2868 8.83498C11.7734 8.63165 12.4134 8.61165 12.9168 8.79165C13.1368 8.86832 13.3334 8.98498 13.5067 9.12831C13.5234 9.14165 13.5434 9.15165 13.5634 9.16831C13.7568 9.33831 13.9101 9.54498 14.0201 9.78498C14.1201 10.0016 14.1734 10.2483 14.1834 10.5083C14.1834 10.5383 14.1868 10.5683 14.1868 10.5983C14.1868 10.9783 14.1001 11.3183 13.9234 11.5983H13.9168V11.595Z" fill="black"/>
</g>
<defs>
<clipPath id="clip0_15805_63928">
<rect width="24" height="24" fill="white"/>
</clipPath>
</defs>
</svg>
