<?xml version="1.0" encoding="UTF-8"?>
<svg width="24px" height="24px" viewBox="0 0 24 24" version="1.1" xmlns="http://www.w3.org/2000/svg" xmlns:xlink="http://www.w3.org/1999/xlink">
    <title>Icon/Rich text editor/undo</title>
    <g id="Icon/Rich-text-editor/undo" stroke="none" stroke-width="1" fill="none" fill-rule="evenodd">
        <path d="M11.9999714,23.2499446 C14.0937166,23.2499446 16.0312118,22.7265081 17.8124575,21.6796358 C19.5937033,20.6327635 21.0077627,19.2265169 22.0546349,17.4608959 C23.1015072,15.6952748 23.6249437,13.7577797 23.6249437,11.6484097 C23.6249437,9.53903976 23.1093199,7.5937319 22.0780724,5.81248614 C21.0468248,4.03124039 19.6405782,2.61718102 17.8593324,1.57030876 C16.0780867,0.52343649 14.1405915,0 12.0468463,0 C10.0468508,0 8.18748072,0.468748882 6.46873458,1.40624665 C4.74998844,2.34374441 3.35936723,3.60936639 2.29686952,5.20311259 L2.43749419,0.562498659 C2.43749419,0.40624927 2.38280658,0.27343661 2.27343208,0.164062109 C2.16405758,0.054687608 2.03124492,0 1.87499553,0 L0.562498659,0 C0.40624927,0 0.27343661,0.054687608 0.164062109,0.164062109 C0.054687608,0.27343661 0,0.40624927 0,0.562498659 L0,9.5624772 C0,9.71872659 0.054687608,9.85153925 0.164062109,9.96091375 C0.27343661,10.0702883 0.40624927,10.1249759 0.562498659,10.1249759 L9.5624772,10.1249759 C9.71872659,10.1249759 9.85153925,10.0702883 9.96091375,9.96091375 C10.0702883,9.85153925 10.1249759,9.71872659 10.1249759,9.5624772 L10.1249759,8.24998033 C10.1249759,8.09373094 10.0702883,7.96091828 9.96091375,7.85154378 C9.85153925,7.74216928 9.71872659,7.68748167 9.5624772,7.68748167 L3.60936639,7.82810634 C4.35936461,6.20310997 5.48436192,4.89842582 6.98435835,3.91405317 C8.48435477,2.92968052 10.156226,2.43749419 11.9999714,2.43749419 C13.6562172,2.43749419 15.1874638,2.85155546 16.5937104,3.67967873 C17.9999571,4.50780199 19.1171417,5.62498659 19.9452649,7.03123324 C20.7733882,8.43747988 21.1874495,9.96872647 21.1874495,11.6249723 C21.1874495,13.2812181 20.7733882,14.8124647 19.9452649,16.2187113 C19.1171417,17.624958 17.9999571,18.7421426 16.5937104,19.5702658 C15.1874638,20.3983891 13.6562172,20.8124504 11.9999714,20.8124504 C10.8437239,20.8124504 9.74216403,20.6093261 8.69529177,20.2030768 C7.6484195,19.7968276 6.71873374,19.2187042 5.90623592,18.468706 C5.78123598,18.3749562 5.64061131,18.335894 5.48436192,18.3515187 C5.32811254,18.3671435 5.20311259,18.4218311 5.10936282,18.5155809 L4.17186505,19.4530786 C4.07811528,19.5468284 4.03124039,19.6796403 4.03124039,19.8515152 C4.03124039,20.02339 4.09374,20.1562019 4.21873994,20.2499517 C5.24998748,21.1874495 6.43748441,21.921823 7.78123145,22.4530715 C9.12497848,22.98432 10.5312251,23.2499446 11.9999714,23.2499446 Z" id="Color" fill="#474747"></path>
    </g>
</svg>