<svg width="24" height="25" viewBox="0 0 24 25" fill="none" xmlns="http://www.w3.org/2000/svg">
<path fill-rule="evenodd" clip-rule="evenodd" d="M12.258 24.1383C12.1513 24.2961 12.0639 24.375 11.9956 24.375C11.9267 24.375 11.8405 24.2961 11.7372 24.1383C11.6338 23.9806 11.5286 23.7656 11.4216 23.4935C11.3146 23.2214 11.2247 22.9151 11.1517 22.5745C11.0788 22.234 11.0424 21.8745 11.0424 21.496V16.7133H5.54927C5.07557 16.7133 4.69894 16.5757 4.41936 16.3005C4.13979 16.0253 4 15.6646 4 15.2183C4 14.4593 4.19904 13.7191 4.59712 12.9977C4.99521 12.2763 5.55478 11.6266 6.27584 11.0487C6.60957 10.7812 6.97018 10.539 7.35766 10.3221L13.7092 16.7133H12.9576V21.496C12.9576 21.8745 12.9213 22.234 12.8488 22.5745C12.7762 22.9151 12.6862 23.2214 12.5789 23.4935C12.4716 23.7656 12.3646 23.9806 12.258 24.1383ZM8.74023 5.02241L8.63665 6.50935L18.7559 16.6919C19.0841 16.6434 19.3574 16.513 19.5757 16.3005C19.8586 16.0253 20 15.6646 20 15.2183C20 14.4593 19.801 13.7191 19.4029 12.9977C19.0048 12.2763 18.4454 11.6266 17.7247 11.0487C17.1079 10.5542 16.3978 10.146 15.5944 9.82425L15.2608 5.02241C15.696 4.73874 16.1133 4.44766 16.5127 4.14917C16.9121 3.85068 17.2674 3.56184 17.5787 3.28266C17.89 3.00348 18.132 2.75001 18.3047 2.52224C18.5714 2.18266 18.7047 1.8414 18.7047 1.49846C18.7047 1.1764 18.5905 0.908638 18.362 0.695183C18.1335 0.481728 17.8331 0.375 17.4607 0.375H6.52949C6.1571 0.375 5.85667 0.481728 5.6282 0.695183C5.39973 0.908638 5.28549 1.1764 5.28549 1.49846C5.28549 1.8414 5.4221 2.18266 5.69532 2.52224C5.86803 2.75001 6.11002 3.00348 6.4213 3.28266C6.73258 3.56184 7.08791 3.85068 7.48729 4.14917C7.88666 4.44766 8.30431 4.73874 8.74023 5.02241ZM20.6458 22.2746C20.8027 22.4255 20.9936 22.501 21.2184 22.501C21.4432 22.501 21.6269 22.4255 21.7696 22.2746C21.9195 22.1094 21.9962 21.9172 21.9999 21.6981C22.0033 21.479 21.9266 21.294 21.7696 21.1431L3.35936 2.61771C3.20238 2.45965 3.01328 2.37882 2.79207 2.37511C2.57086 2.37164 2.38176 2.44887 2.22478 2.60693C2.07493 2.76499 2 2.95538 2 3.17811C2 3.40083 2.07493 3.58763 2.22478 3.7385L20.6458 22.2746Z" fill="#474747"/>
</svg>
