<svg width="24" height="24" viewBox="0 0 24 24" fill="none" xmlns="http://www.w3.org/2000/svg">
<path d="M18.62 19.6634C19.2567 19.03 19.2567 18.0034 18.62 17.37C17.9833 16.7367 16.9467 16.7367 16.31 17.37C13.33 20.33 8.48 20.33 5.5 17.37C2.52 14.41 2.52 9.59335 5.5 6.63002C8.48 3.67002 13.33 3.67002 16.31 6.63002L18.4267 8.73335H16.2767C15.8267 8.73335 15.4167 8.91335 15.12 9.20669C14.8233 9.50002 14.6433 9.90669 14.6433 10.3534C14.6433 11.25 15.3733 11.9767 16.2767 11.9767H24V4.30335C24 3.40669 23.27 2.68002 22.3667 2.68002C21.4633 2.68002 20.7333 3.40669 20.7333 4.30335V6.44002L18.6167 4.33669C14.3633 0.11002 7.44333 0.11002 3.19 4.33669C-1.06333 8.56335 -1.06333 15.4367 3.19 19.6634C7.44333 23.89 14.3633 23.89 18.6167 19.6634" fill="black"/>
<path d="M13.5733 16.41L8.26333 13.4034L8.19 7.54335L10.5233 7.51335L10.58 12.0467L14.73 14.3967L13.5733 16.41Z" fill="black"/>
</svg>
