<?xml version="1.0" encoding="UTF-8"?>
<svg width="24px" height="24px" viewBox="0 0 24 24" version="1.1" xmlns="http://www.w3.org/2000/svg" xmlns:xlink="http://www.w3.org/1999/xlink">
    <title>Icon/Fill/upload-light-fill</title>
    <g id="Icon/Fill/upload-light-fill" stroke="none" stroke-width="1" fill="none" fill-rule="evenodd">
        <g id="Group" transform="translate(-0.000000, -0.000000)" fill="#474747" fill-rule="nonzero">
            <g id="upload-light" transform="translate(5.250000, 0.000000)">
                <path d="M2.56391859,8.41271786 C1.9771362,8.99800249 1.02686917,8.99800249 0.440086789,8.41271786 C-0.146695596,7.82743316 -0.146695596,6.87959164 0.440086789,6.29430699 L6.75050073,0 L13.0599133,6.29430699 C13.6466956,6.87959164 13.6466956,7.82743316 13.0599133,8.41271786 C12.7665221,8.70536014 12.3830107,8.85118196 11.998498,8.85118196 C11.6139854,8.85118196 11.2294727,8.70536014 10.9360815,8.41271786 L8.25250339,5.73499059 L8.25250339,18 L5.248498,18 L5.248498,5.73499059 L2.56391859,8.41271786 Z M1.8750006e-09,23.9990004 L1.8750006e-09,21.0000001 L13.5,21.0000001 L13.5,23.9990004 L12.8020695,23.9990004 L12.8020695,24.0000001 L0.696929247,24.0000001 L0.696929247,23.9990004 L1.8750006e-09,23.9990004 Z" id="Combined-Shape"></path>
            </g>
        </g>
    </g>
</svg>