<?xml version="1.0" encoding="UTF-8"?>
<svg width="24px" height="24px" viewBox="0 0 24 24" version="1.1" xmlns="http://www.w3.org/2000/svg" xmlns:xlink="http://www.w3.org/1999/xlink">
    <title>Icon/Fill/upload-fill</title>
    <g id="Icon/Fill/upload-fill" stroke="none" stroke-width="1" fill="none" fill-rule="evenodd">
        <g id="Group" transform="translate(-0.000000, 0.000050)" fill="#474747" fill-rule="nonzero">
            <g id="upload" transform="translate(0.000200, 0.000000)">
                <path d="M10.4999126,17.9998501 L0,17.9998501 L0,1 C0,0.447996268 0.447996269,0 1,0 L22.9998084,0 C23.5518038,0 23.9998001,0.447996268 23.9998001,1 L23.9998001,17.9998501 L13.4998876,17.9998501 L13.4998876,9.62091987 L16.1428656,12.2638979 C16.7288607,12.8498929 17.6778527,12.8498929 18.2638479,12.2638979 C18.849843,11.6779028 18.849843,10.7289106 18.2638479,10.1429155 L13.0608912,4.93995886 L13.0598912,4.93895886 L11.9999001,3.87896769 L10.9409089,4.93795887 L10.9379089,4.94095885 L5.73695222,10.1429155 C5.1509571,10.7289106 5.1509571,11.6789027 5.73695222,12.2638979 C6.32294733,12.8498929 7.27193943,12.8498929 7.85793455,12.2638979 L10.4999126,9.62091987 L10.4999126,17.9998501 Z M10.4999126,17.9999501 L13.4998876,17.9999501 L13.4998876,23.9999001 L10.4999126,23.9999001 L10.4999126,17.9999501 Z" id="Combined-Shape"></path>
            </g>
        </g>
    </g>
</svg>