<svg width="24" height="24" viewBox="0 0 24 24" fill="none" xmlns="http://www.w3.org/2000/svg">
<g clip-path="url(#clip0_15805_63934)">
<path d="M24 12C24 15.26 22.6933 18.2133 20.5833 20.3767C18.4033 22.61 15.3667 24 12 24C8.63333 24 5.59667 22.61 3.41667 20.3767C1.30667 18.2133 0 15.26 0 12C0 5.37333 5.37333 0 12 0C18.6267 0 24 5.37333 24 12ZM12 3C10.2533 3 8.62333 3.5 7.24333 4.36333L19.6367 16.74C20.4967 15.3633 21 13.74 21 12C21 7.03667 16.9633 3 12 3ZM12 17.5567C14.1533 17.5567 16.1367 17.9733 17.7933 18.67L5.21 6.10333C3.83667 7.68333 3 9.74667 3 12C3 14.68 4.18333 17.0833 6.04667 18.7333C7.73333 17.9967 9.78 17.5567 12 17.5567ZM15.96 10.55C15.96 8.36333 14.1867 6.59 12 6.59C11.6367 6.59 11.2833 6.64333 10.95 6.73667L15.8133 11.6C15.9067 11.2667 15.96 10.9133 15.96 10.55ZM8.04 10.55C8.04 12.74 9.81333 14.51 12 14.51C12 14.51 12 14.51 12.0033 14.51L8.04 10.5467C8.04 10.5467 8.04 10.5467 8.04 10.55Z" fill="black"/>
</g>
<defs>
<clipPath id="clip0_15805_63934">
<rect width="24" height="24" fill="white"/>
</clipPath>
</defs>
</svg>
