<svg width="24" height="24" viewBox="0 0 24 24" fill="none" xmlns="http://www.w3.org/2000/svg">
<g clip-path="url(#clip0_15805_63936)">
<path d="M22.9967 0H16.9733C16.42 0 15.97 0.45 15.97 1.00333V6.09L6.09 15.97H1.00333C0.45 15.97 0 16.42 0 16.9733V22.9967C0 23.55 0.45 24 1.00333 24H7.02667C7.58 24 8.03 23.55 8.03 22.9967V17.8033L17.8033 8.03H22.9967C23.55 8.03 24 7.58 24 7.02667V1.00333C24 0.45 23.55 0 22.9967 0ZM5.69 21.66H2.34V18.3133H5.68667V21.66H5.69ZM21.66 5.69H18.3133V2.34H21.66V5.68667V5.69Z" fill="black"/>
</g>
<defs>
<clipPath id="clip0_15805_63936">
<rect width="24" height="24" fill="white"/>
</clipPath>
</defs>
</svg>
