<?xml version="1.0" encoding="UTF-8"?>
<svg width="24px" height="24px" viewBox="0 0 24 24" version="1.1" xmlns="http://www.w3.org/2000/svg" xmlns:xlink="http://www.w3.org/1999/xlink">
    <title>Icon/Fill/venn-abc-reversed-fill</title>
    <g id="Icon/Fill/venn-abc-reversed-fill" stroke="none" stroke-width="1" fill="none" fill-rule="evenodd">
        <g id="Group" transform="translate(-0.000000, -0.000000)" fill="#474747" fill-rule="nonzero">
            <g id="venn-abc-reversed">
                <path d="M19.4678938,7.55140421 C18.3346204,7.03666939 17.0757878,6.75000003 15.7500001,6.75000003 C14.4116791,6.75000003 13.1415852,7.04211503 12.0000001,7.56606333 C10.8584149,7.04211503 9.58832104,6.75000003 8.25000003,6.75000003 C6.92421227,6.75000003 5.66537972,7.03666939 4.53210629,7.55140421 C4.2660009,7.67226978 4.00681904,7.80570971 3.75531873,7.95096551 C3.91271807,3.53313211 7.54375548,0 12.0000001,0 C16.4562446,0 20.087282,3.53313211 20.2446814,7.95096551 C19.993181,7.80570971 19.7339992,7.67226978 19.4678945,7.55140458 L19.4678938,7.55140421 Z M19.4381132,9.21795889 C19.2047898,11.0287056 18.3256962,12.6371548 17.0392559,13.804883 C16.5687207,11.6690887 15.3395407,9.81792259 13.648684,8.54835259 C14.3154301,8.35413603 15.020554,8.25000003 15.7500001,8.25000003 C17.0906074,8.25000003 18.3490622,8.60173676 19.4381132,9.21795889 Z M6.96074419,13.804883 C5.6743039,12.6371548 4.79521026,11.0287056 4.56188686,9.21795889 C5.6509379,8.60173676 6.90939271,8.25000003 8.25000003,8.25000003 C8.97944614,8.25000003 9.68457004,8.35413603 10.3513161,8.54835259 C8.66045936,9.81792259 7.43127944,11.6690887 6.96074419,13.804883 Z M8.31188688,14.7820412 C8.61664361,12.4169236 10.0231125,10.3969342 12.0000001,9.25336654 C13.9768876,10.3969342 15.3833565,12.4169236 15.6881132,14.7820412 C14.5990622,15.3982633 13.3406074,15.7500001 12.0000001,15.7500001 C10.6593927,15.7500001 9.40093789,15.3982633 8.31188688,14.7820412 Z M6.75191828,15.5623086 C6.75064151,15.6247184 6.75000003,15.6872843 6.75000003,15.7500001 C6.75000003,18.6950628 8.16456326,21.3097365 10.3513155,22.9516472 C10.6036907,23.1411416 10.8663506,23.3176788 11.1383083,23.4802717 C10.2393808,23.8162902 9.26614429,24.0000001 8.25000003,24.0000001 C3.69365083,24.0000001 0,20.3063492 0,15.7500001 C0,13.1581612 1.19519241,10.8454745 3.06449584,9.33302134 C3.37186207,11.8958043 4.75622549,14.127456 6.75191828,15.5623086 Z M8.28210558,16.4485955 C9.41537921,16.9633306 10.674212,17.2500001 12.0000001,17.2500001 C13.3257881,17.2500001 14.5846209,16.9633306 15.7178945,16.4485955 C15.4887578,18.9292801 14.0515336,21.0598856 12.0000001,22.2466336 C9.94846654,21.0598856 8.51124229,18.9292801 8.28210558,16.4485955 Z M12.8616918,23.4802717 C15.4900837,21.908859 17.2500001,19.0349548 17.2500001,15.7500001 C17.2500001,15.6872843 17.2493586,15.6247184 17.2480818,15.5623086 C19.2437746,14.127456 20.628138,11.8958043 20.9355043,9.33302134 C22.8048077,10.8454745 24.0000001,13.1581612 24.0000001,15.7500001 C24.0000001,20.3063492 20.3063492,24.0000001 15.7500001,24.0000001 C14.7338558,24.0000001 13.7606193,23.8162902 12.8616918,23.4802717 Z" id="icons/fill/venn/ABC_2" transform="translate(12.000000, 12.000000) scale(-1, 1) rotate(-180.000000) translate(-12.000000, -12.000000) "></path>
            </g>
        </g>
    </g>
</svg>