<?xml version="1.0" encoding="UTF-8"?>
<svg width="24px" height="24px" viewBox="0 0 24 24" version="1.1" xmlns="http://www.w3.org/2000/svg" xmlns:xlink="http://www.w3.org/1999/xlink">
    <title>Icon/Fill/venn-ab-vertical-fill</title>
    <g id="Icon/Fill/venn-ab-vertical-fill" stroke="none" stroke-width="1" fill="none" fill-rule="evenodd">
        <g id="Group" transform="translate(3.750000, -0.000000)" fill="#474747" fill-rule="nonzero">
            <g id="venn-ab-vertical">
                <path d="M7.38830831,19.7302717 C6.4893808,20.0662902 5.51614427,20.25 4.50000002,20.25 C-0.0563491877,20.25 -3.75000002,16.5563492 -3.75000002,12.0000001 C-3.75000002,7.44365084 -0.0563491877,3.75000002 4.50000002,3.75000002 C5.51614427,3.75000002 6.4893808,3.93370992 7.38830831,4.26972843 C4.75991642,5.84114114 3.00000001,8.71504534 3.00000001,12.0000001 C3.00000001,15.2849548 4.75991642,18.158859 7.38830831,19.7302717 L7.38830831,19.7302717 Z M9.11169176,4.26972843 C10.0106193,3.93370992 10.9838558,3.75000002 12,3.75000002 C16.5563492,3.75000002 20.2500001,7.44365084 20.2500001,12.0000001 C20.2500001,16.5563492 16.5563492,20.25 12,20.25 C10.9838558,20.25 10.0106193,20.0662902 9.11169176,19.7302717 C11.7400836,18.158859 13.5000001,15.2849548 13.5000001,12.0000001 C13.5000001,8.71504534 11.7400836,5.84114114 9.11169176,4.26972845 L9.11169176,4.26972843 Z M8.25000003,5.50336649 C10.4917552,6.80015182 12,9.22394119 12,12.0000001 C12,14.7760589 10.4917552,17.1998482 8.25000003,18.4966336 C6.00824485,17.1998482 4.50000002,14.7760589 4.50000002,12.0000001 C4.50000002,9.22394119 6.00824485,6.80015182 8.25000003,5.50336649 Z" id="icons/fill/venn/AB_2" transform="translate(8.250000, 12.000000) rotate(90.000000) translate(-8.250000, -12.000000) "></path>
            </g>
        </g>
    </g>
</svg>