<?xml version="1.0" encoding="UTF-8"?>
<svg width="24px" height="24px" viewBox="0 0 24 24" version="1.1" xmlns="http://www.w3.org/2000/svg" xmlns:xlink="http://www.w3.org/1999/xlink">
    <title>Icon/Fill/venn-ab-horizontal-fill</title>
    <g id="Icon/Fill/venn-ab-horizontal-fill" stroke="none" stroke-width="1" fill="none" fill-rule="evenodd">
        <g id="Group" transform="translate(-0.000000, 3.750000)" fill="#474747" fill-rule="nonzero">
            <g id="venn-ab-horizontal">
                <path d="M11.1383083,15.9802717 C10.2393808,16.3162902 9.26614429,16.5 8.25000003,16.5 C3.69365083,16.5 0,12.8063492 0,8.25000003 C0,3.69365083 3.69365083,0 8.25000003,0 C9.26614429,0 10.2393808,0.183709906 11.1383083,0.51972841 C8.50991644,2.09114112 6.75000003,4.96504532 6.75000003,8.25000003 C6.75000003,11.5349547 8.50991644,14.408859 11.1383083,15.9802717 L11.1383083,15.9802717 Z M12.8616918,0.51972841 C13.7606193,0.183709906 14.7338558,0 15.7500001,0 C20.3063492,0 24.0000001,3.69365083 24.0000001,8.25000003 C24.0000001,12.8063492 20.3063492,16.5 15.7500001,16.5 C14.7338558,16.5 13.7606193,16.3162902 12.8616918,15.9802717 C15.4900837,14.408859 17.2500001,11.5349547 17.2500001,8.25000003 C17.2500001,4.96504532 15.4900837,2.09114112 12.8616918,0.519728432 L12.8616918,0.51972841 Z M12.0000001,1.75336647 C14.2417552,3.0501518 15.75,5.47394117 15.75,8.25000003 C15.75,11.0260589 14.2417552,13.4498482 12.0000001,14.7466336 C9.75824487,13.4498482 8.25000003,11.0260589 8.25000003,8.25000003 C8.25000003,5.47394117 9.75824487,3.0501518 12.0000001,1.75336647 Z" id="icons/fill/venn/AB_1"></path>
            </g>
        </g>
    </g>
</svg>