<?xml version="1.0" encoding="UTF-8"?>
<svg width="24px" height="24px" viewBox="0 0 24 24" version="1.1" xmlns="http://www.w3.org/2000/svg" xmlns:xlink="http://www.w3.org/1999/xlink">
    <title>Icon/Fill/video-conference-fill</title>
    <g id="Icon/Fill/video-conference-fill" stroke="none" stroke-width="1" fill="none" fill-rule="evenodd">
        <g id="Group" transform="translate(0.000000, 4.000000)" fill="#474747" fill-rule="nonzero">
            <path d="M18.3331532,5.02995057 C18.9703952,5.03400092 19.5471459,4.65325302 19.7938195,4.0656767 C20.0404932,3.47810037 19.9083663,2.7997547 19.4591979,2.34771316 C19.0100295,1.89567161 18.3325401,1.7592222 17.7434029,2.00214435 C17.1542657,2.2450665 16.7698315,2.8193778 16.7698315,3.4566327 C16.7679892,4.32241472 17.467377,5.02627617 18.3331532,5.02995057 L18.3331532,5.02995057 Z" id="Path"></path>
            <path d="M23.5831015,0 L13.3132025,0 C13.2021168,0 13.0956287,0.0443519864 13.0173928,0.123213792 C12.9391569,0.202075598 12.8956512,0.308913696 12.8965399,0.419995889 L12.8965399,8.08658719 C12.8983705,8.31540077 13.0843816,8.49992378 13.3132025,8.49991646 L15.4231818,8.49991646 L15.4231818,11.8032173 C15.4240692,11.95585 15.3640572,12.1025359 15.256441,12.2107777 C15.1488249,12.3190195 15.0024893,12.3798809 14.8498541,12.3798783 L11.9465493,12.3798783 L11.9465493,9.97656861 L11.666552,9.83323668 C10.1221717,9.13330262 8.3509801,9.13330262 6.8065998,9.83323668 L6.52993586,9.96990201 L6.52993586,12.3665451 L3.62996437,12.3665451 C3.3127858,12.3647117 3.05663137,12.107068 3.05663667,11.7898841 L3.05663667,4.07995991 C3.05575006,3.92701913 3.11565658,3.77999049 3.22317693,3.6712199 C3.33069728,3.56244931 3.47702356,3.50084711 3.62996437,3.49996561 L12.8965399,3.49996561 L12.8965399,1.59665099 L1.79998236,1.59665099 C1.48538609,1.59844853 1.23028653,1.85206495 1.22665466,2.16664538 L1.22665466,13.1265376 L0.559994546,13.1265376 C0.248040565,13.1355574 0,13.3911143 0,13.7031986 L0,15.7565118 C0,16.0736957 0.256149179,16.3313393 0.573327748,16.3331728 L17.9064907,16.3331728 C18.2236693,16.3313393 18.4798237,16.0736957 18.4798184,15.7565118 L18.4798184,13.7031986 C18.4798237,13.3860148 18.2236693,13.1283711 17.9064907,13.1265376 L17.2398306,13.1265376 L17.2398306,8.49991646 L23.5731016,8.49991646 C23.6870862,8.50268655 23.7972264,8.45862486 23.8778495,8.3780018 C23.9584725,8.29737874 24.0025342,8.18723855 23.9998873,8.07325398 L23.9998873,0.406662686 C23.9943337,0.180460773 23.8093686,0 23.5831015,0 Z M22.5064455,6.79659987 L20.583131,6.79659987 L20.583131,5.7966097 L20.3631332,5.68661078 C19.12298,5.1234212 17.6999914,5.1234212 16.4598382,5.68661078 L16.2398404,5.7966097 L16.2398404,6.79659987 L14.4265249,6.79659987 L14.4265249,1.52998498 L22.5064455,1.52998498 L22.5064455,6.79659987 Z" id="Shape"></path>
            <path d="M7.17992655,7.05659731 C7.18544557,8.132223 8.06090917,9.00023957 9.13654273,8.99657849 C10.2121763,8.99289418 11.0816919,8.11891946 11.0798655,7.04328119 C11.0780334,5.96764292 10.2055501,5.09661658 9.1299103,5.09661658 C8.05058598,5.10029245 7.17808448,5.97726832 7.17992655,7.05659731 L7.17992655,7.05659731 Z" id="Path"></path>
        </g>
    </g>
</svg>