<?xml version="1.0" encoding="UTF-8"?>
<svg width="24px" height="24px" viewBox="0 0 24 24" version="1.1" xmlns="http://www.w3.org/2000/svg" xmlns:xlink="http://www.w3.org/1999/xlink">
    <title>Icon/Fill/view-fill</title>
    <g id="Icon/Fill/view-fill" stroke="none" stroke-width="1" fill="none" fill-rule="evenodd">
        <g id="Group" transform="translate(-0.000000, -0.000000)" fill="#474747" fill-rule="nonzero">
            <g id="view" transform="translate(0.000000, 3.750000)">
                <path d="M9.34834961,5.5983496 L12.0000001,8.25000003 L12.0000001,4.50000002 C14.0710678,4.50000002 15.75,6.17893225 15.75,8.25000003 C15.75,10.3210678 14.0710678,12 12.0000001,12 C9.92893227,12 8.25000003,10.3210678 8.25000003,8.25000003 C8.25000003,7.21446611 8.66973311,6.2769661 9.34834961,5.5983496 Z M17.6570001,2.22529537 L24,8.24964386 L17.6570001,14.2739924 C14.533,17.2420026 9.46700006,17.2420026 6.34300002,14.2739924 L0,8.24964386 L6.34300002,2.22529537 C9.46700006,-0.741765123 14.533,-0.741765123 17.6570001,2.22529537 Z M6.00000003,8.24947248 C6.00000003,11.5636376 8.68530731,14.25 11.9994725,14.25 C15.3136376,14.25 18,11.5636376 18,8.24947248 C18,4.93741757 15.3136376,2.25000001 11.9994725,2.25000001 C8.68530731,2.25000001 6.00000003,4.93741757 6.00000003,8.24947248 Z" id="Combined-Shape"></path>
            </g>
        </g>
    </g>
</svg>