<svg width="24" height="25" viewBox="0 0 24 25" fill="none" xmlns="http://www.w3.org/2000/svg">
<g id="View-off-fill">
<g id="Vector">
<path d="M1.056 0.375L23.976 23.199L23.448 23.751L22.92 24.279L0 1.431L1.056 0.375Z" fill="#474747"/>
<path d="M24 11.643L18.7768 16.609L17.0494 14.8888C17.0956 14.8161 17.1405 14.7422 17.184 14.667C17.728 13.739 18 12.731 18 11.643C18 10.555 17.728 9.555 17.184 8.643C16.656 7.715 15.928 6.987 15 6.459C14.088 5.915 13.088 5.643 12 5.643C10.912 5.643 9.904 5.915 8.976 6.459C8.89349 6.50677 8.81249 6.55617 8.733 6.60721L7.0965 4.97757C7.94723 4.34576 8.90973 3.89557 9.984 3.627C11.328 3.291 12.68 3.291 14.04 3.627C15.432 3.979 16.64 4.643 17.664 5.619L24 11.643Z" fill="#474747"/>
<path d="M15.744 11.643C15.744 12.2074 15.6255 12.738 15.3884 13.2348L12 9.86053V7.899C12.672 7.899 13.296 8.067 13.872 8.403C14.448 8.739 14.904 9.195 15.24 9.771C15.576 10.347 15.744 10.971 15.744 11.643Z" fill="#474747"/>
<path d="M6.46819 9.28949L4.51905 7.34648L0 11.643L6.336 17.667C7.36 18.643 8.576 19.307 9.984 19.659C11.328 19.995 12.68 19.995 14.04 19.659C14.7647 19.4757 15.4395 19.2079 16.0644 18.8556L14.3709 17.1674C13.6334 17.4845 12.8431 17.643 12 17.643C10.912 17.643 9.904 17.379 8.976 16.851C8.064 16.307 7.336 15.579 6.792 14.667C6.264 13.739 6 12.731 6 11.643C6 10.8065 6.15606 10.022 6.46819 9.28949Z" fill="#474747"/>
<path d="M12 15.387C12.1858 15.387 12.3679 15.3742 12.5463 15.3485L8.29253 11.1081C8.26818 11.2823 8.256 11.4606 8.256 11.643C8.256 12.315 8.424 12.939 8.76 13.515C9.096 14.091 9.552 14.547 10.128 14.883C10.704 15.219 11.328 15.387 12 15.387Z" fill="#474747"/>
</g>
</g>
</svg>
