<?xml version="1.0" encoding="UTF-8"?>
<svg width="24px" height="24px" viewBox="0 0 24 24" version="1.1" xmlns="http://www.w3.org/2000/svg" xmlns:xlink="http://www.w3.org/1999/xlink">
    <title>Icon/Fill/visitor-fill</title>
    <g id="Icon/Fill/visitor-fill" stroke="none" stroke-width="1" fill="none" fill-rule="evenodd">
        <g id="Group" transform="translate(3.000000, 0.003333)" fill="#474747" fill-rule="nonzero">
            <g id="visitor-fill">
                <path d="M9.00000004,7.4966667 C10.2426407,7.4966667 11.25,8.50402605 11.25,9.74666671 C11.25,10.9893074 10.2426407,11.9966667 9.00000004,11.9966667 C7.75735938,11.9966667 6.75000003,10.9893074 6.75000003,9.74666671 C6.75000003,8.50402605 7.75735938,7.4966667 9.00000004,7.4966667 Z M0,1.5 C0,0.671572878 0.671572878,0 1.5,0 L16.5,0 C17.3284272,0 18,0.671572878 18,1.5 L18,22.4928911 C18,23.3213182 17.3284272,23.9928911 16.5,23.9928911 L1.5,23.9928911 C0.671572878,23.9928911 0,23.3213182 0,22.4928911 L0,1.5 Z M6.75000003,2.99666668 L6.75000003,4.49666668 L11.25,4.49666668 L11.25,2.99666668 L6.75000003,2.99666668 Z M3.00000001,19.4966667 L3.00000001,20.9966667 L12,20.9966667 L12,19.4966667 L3.00000001,19.4966667 Z M14.9906554,17.0740584 L14.97694,6.75478943 C14.97694,6.33608981 14.6330677,5.99666669 14.2088797,5.99666669 L3.76806029,5.99666669 C3.34387231,5.99666669 3.00000001,6.33608981 3.00000001,6.75478943 L3.00000001,17.0740584 C3.00000001,17.1321864 3.00697408,17.1901098 3.02057305,17.2466667 C2.97563302,17.0528532 3.00753064,16.8494123 3.10972291,16.6780747 C3.18858625,16.552849 5.09845045,13.6015855 8.81531359,13.6015855 C12.5321767,13.6015855 14.7574942,16.4986974 14.8500729,16.6205386 C14.9719974,16.7852184 15.022574,16.9909953 14.9906554,17.1925151 C14.9906554,17.1519014 14.9906554,17.1146721 14.9906554,17.0740584 Z" id="Combined-Shape"></path>
            </g>
        </g>
    </g>
</svg>