<?xml version="1.0" encoding="UTF-8"?>
<svg width="24px" height="24px" viewBox="0 0 24 24" version="1.1" xmlns="http://www.w3.org/2000/svg" xmlns:xlink="http://www.w3.org/1999/xlink">
    <title>Icon/Fill/volume-up-fill</title>
    <g id="Icon/Fill/volume-up-fill" stroke="none" stroke-width="1" fill="none" fill-rule="evenodd">
        <g id="Group" transform="translate(-0.000000, 0.750000)" fill="#474747" fill-rule="nonzero">
            <g id="volume-up">
                <path d="M20.2656116,1.54912181 C23.4847151,4.76822544 24.7415975,9.46164671 23.5642647,13.8633865 C22.9862049,16.0218299 21.8459952,17.9999611 20.2656116,19.5803448 L18.1442912,17.4590245 C20.6050228,14.9982928 21.5702236,11.4026548 20.6686624,8.04036206 C20.2231851,6.38573221 19.3534438,4.87959477 18.1442912,3.67044216 L20.2656116,1.54912181 Z M16.5533009,5.29912183 C18.4465793,7.1924002 19.1837381,9.95542002 18.494309,12.5434309 C18.1548978,13.816223 17.4866818,14.9723426 16.5533009,15.9057236 L14.4319806,13.7844032 C15.566887,12.6494968 16.0176676,10.9895637 15.5987068,9.43569649 C15.3971813,8.67202121 14.9888272,7.97728878 14.4319806,7.42044221 L16.5533009,5.29912183 Z M0,7.50613308 C0,6.67770599 0.671572878,6.00613311 1.5,6.00613311 L3.75000002,6.00613311 L12.3261436,0.131254703 C12.4509569,0.0457543952 12.5987101,0 12.7500001,0 C13.1642136,0 13.5,0.335786439 13.5,0.750000003 L13.5,21.7524968 C13.5,21.903449 13.4544496,22.0508883 13.3693047,22.1755355 C13.1356669,22.5175681 12.6689938,22.6054393 12.3269614,22.3718015 L3.75000002,16.512994 L1.5,16.512994 C0.671572878,16.512994 0,15.8414211 0,15.012994 L0,7.50613308 L0,7.50613308 Z" id="Combined-Shape"></path>
            </g>
        </g>
    </g>
</svg>