<?xml version="1.0" encoding="UTF-8"?>
<svg width="24px" height="24px" viewBox="0 0 24 24" version="1.1" xmlns="http://www.w3.org/2000/svg" xmlns:xlink="http://www.w3.org/1999/xlink">
    <title>Icon/Fill/volume-on-fill</title>
    <g id="Icon/Fill/volume-on-fill" stroke="none" stroke-width="1" fill="none" fill-rule="evenodd">
        <g id="Group" transform="translate(2.250000, 0.750000)" fill="#474747" fill-rule="nonzero">
            <g id="volume-on">
                <path d="M16.5533009,6.04912183 C18.4465793,7.94240021 19.1837381,10.70542 18.494309,13.2934309 C18.1548978,14.566223 17.4866818,15.7223426 16.5533009,16.6557236 L14.4319806,14.5344032 C15.566887,13.3994968 16.0176676,11.7395637 15.5987068,10.1856965 C15.3971813,9.42202121 14.9888272,8.72728879 14.4319806,8.17044221 L16.5533009,6.04912183 Z M0,7.50613308 C0,6.67770599 0.671572878,6.00613311 1.5,6.00613311 L3.75000002,6.00613311 L12.3261436,0.131254703 C12.4509569,0.0457543952 12.5987101,0 12.7500001,0 C13.1642136,0 13.5,0.335786439 13.5,0.750000003 L13.5,21.7524968 C13.5,21.903449 13.4544496,22.0508883 13.3693047,22.1755355 C13.1356669,22.5175681 12.6689938,22.6054393 12.3269614,22.3718015 L3.75000002,16.512994 L1.5,16.512994 C0.671572878,16.512994 0,15.8414211 0,15.012994 L0,7.50613308 Z" id="Combined-Shape"></path>
            </g>
        </g>
    </g>
</svg>