<?xml version="1.0" encoding="UTF-8"?>
<svg width="24px" height="24px" viewBox="0 0 24 24" version="1.1" xmlns="http://www.w3.org/2000/svg" xmlns:xlink="http://www.w3.org/1999/xlink">
    <title>Icon/Fill/wait-fill</title>
    <g id="Icon/Fill/wait-fill" stroke="none" stroke-width="1" fill="none" fill-rule="evenodd">
        <g id="Group" transform="translate(-0.000000, -0.000000)" fill="#474747" fill-rule="nonzero">
            <g id="wait-fill" transform="translate(3.000000, 0.000000)">
                <path d="M12.75,3.00000001 L5.25000002,3.00000001 L5.25000002,8.12951621 L9.00000004,10.2723734 L12.75,8.12951621 L12.75,3.00000001 Z M15.7500001,3 L15.7500001,8.12951621 C15.7500001,9.20608676 15.1731418,10.2001171 14.2384169,10.7342457 L12.0233467,12 L14.2384169,13.2657544 C15.1731418,13.799883 15.7500001,14.7939133 15.7500001,15.8704839 L15.7500001,21 L18,21 L18,24 L0,24 L0,21 L2.25000001,21 L2.25000001,15.8704839 C2.25000001,14.7939133 2.82685821,13.799883 3.7615832,13.2657544 L5.97665335,12 L3.7615832,10.7342457 C2.82685821,10.2001171 2.25000001,9.20608676 2.25000001,8.12951621 L2.25000001,3 L0,3 L0,0 L18,0 L18,3 L15.7500001,3 Z M9.00000004,13.7276267 L5.25000002,15.8704839 L5.25000002,21.0000001 L12.75,21.0000001 L12.75,15.8704839 L9.00000004,13.7276267 Z M11.2890625,7.28170127 L9.00000004,8.58973699 L6.71093755,7.28170127 L6.71093755,4.46093752 L11.2890625,4.46093752 L11.2890625,7.28170127 Z M6.71093755,16.7182988 L9.00000004,15.4102631 L11.2890625,16.7182988 L11.2890625,19.5390626 L6.71093755,19.5390626 L6.71093755,16.7182988 Z" id="Icon/Wait/Fill"></path>
            </g>
        </g>
    </g>
</svg>