<?xml version="1.0" encoding="UTF-8"?>
<svg width="24px" height="24px" viewBox="0 0 24 24" version="1.1" xmlns="http://www.w3.org/2000/svg" xmlns:xlink="http://www.w3.org/1999/xlink">
    <title>Icon/Fill/walking-workstation-fill</title>
    <g id="Icon/Fill/walking-workstation-fill" stroke="none" stroke-width="1" fill="none" fill-rule="evenodd">
        <g id="Group" transform="translate(2.000000, 0.000000)" fill="#474747" fill-rule="nonzero">
            <path d="M19.9050258,11.7487002 L19.9050258,10.1272046 L16.4218131,10.1272046 C17.1403692,8.92718388 17.543258,7.56470818 17.5928932,6.16688522 L17.5528563,3.92481728 L17.1491506,3.92481728 L15.8412776,3.96485421 L16.3283936,0.628443588 C16.3550849,0.414913308 16.3017023,0.294802525 16.0848356,0.294802525 L14.1797451,0.00787121169 C13.7093112,-0.0621934114 13.2422138,0.341512274 13.1487943,0.978766703 L12.244627,7.13778071 C12.1512075,7.77503514 12.4781757,8.29217879 12.951946,8.36557982 L14.8537001,8.64917472 C15.0672304,8.67920242 15.1573135,8.59579215 15.1873412,8.37892546 L15.714494,4.77560199 L16.7521177,4.75558353 L16.7821454,6.18690369 C16.7202293,7.60724771 16.2409368,8.97781546 15.4042078,10.1272046 L10.5697489,10.1272046 L10.5697489,11.7453638 L16.8555465,11.7453638 L16.8555465,19.6259657 L1.33456425,19.6259657 C0.563853395,19.6259657 0,20.1097452 0,20.6902807 L0,23.6663589 C0,23.9299354 0.116774372,24 0.380350811,24 L19.2944626,24 C19.5613755,24 19.6781499,23.9132533 19.6781499,23.6663589 L19.6781499,20.6902807 C19.6760468,20.6206206 19.6671068,20.5513355 19.6514586,20.4834232 C19.6377036,20.4309481 19.6198547,20.3796325 19.598076,20.3299483 C19.5282906,20.1781791 19.4243841,20.044585 19.2944626,19.9395883 C19.1693658,19.8389227 19.0268844,19.762028 18.8740749,19.7127123 C18.7018278,19.6557985 18.5216546,19.6265203 18.3402492,19.6259657 L17.769723,19.6259657 L17.769723,11.7487002 L19.9050258,11.7487002 Z M5.8120273,23.0157589 L3.17626291,23.0157589 C2.54097625,22.3639088 2.48675787,21.3423203 3.04947931,20.6268889 L5.94882014,20.6268889 C6.50588927,21.345698 6.44750779,22.3652381 5.8120273,23.0157589 L5.8120273,23.0157589 Z M11.1502843,23.0157589 L8.51451991,23.0157589 C7.87923325,22.3639088 7.82501486,21.3423203 8.38773631,20.6268889 L11.2870771,20.6268889 C11.5377054,20.9466209 11.6729169,21.3416736 11.6707897,21.7479228 C11.6685673,22.2221036 11.4818975,22.6768121 11.1502843,23.0157589 L11.1502843,23.0157589 Z M16.4885413,23.0157589 L13.8527769,23.0157589 C13.2231653,22.3614343 13.169177,21.3441803 13.7259933,20.6268889 L16.6253341,20.6268889 C17.1815954,21.3438273 17.1290849,22.3599769 16.5018869,23.0157589 L16.4885413,23.0157589 Z" id="Shape"></path>
            <path d="M4.49414511,20.8704405 C4.13728612,20.8690976 3.81487709,21.0832046 3.67768909,21.4126429 C3.54050108,21.7420812 3.61564735,22.1217422 3.86798657,22.3740814 C4.12032579,22.6264206 4.49998669,22.7015669 4.82942502,22.5643789 C5.15886335,22.4271908 5.3729703,22.1047818 5.37162744,21.7479228 L5.37162744,21.7479228 C5.37162744,21.5152017 5.279173,21.2920123 5.11461433,21.1274536 C4.95005566,20.9628949 4.72686621,20.8704405 4.49414511,20.8704405 Z" id="Path"></path>
            <path d="M15.1739955,20.8704468 C14.8187991,20.8677483 14.4970128,21.0794576 14.3588999,21.4067138 C14.220787,21.7339699 14.2935948,22.112211 14.5433246,22.3648111 C14.7930543,22.6174113 15.1704385,22.6945369 15.4992517,22.560173 C15.8280649,22.4258091 16.0434378,22.1064633 16.0447987,21.7512592 L16.0447987,21.7512592 C16.0448298,21.2686822 15.6565414,20.8759307 15.1739955,20.8704468 Z" id="Path"></path>
            <path d="M9.83240211,20.8704405 C9.47554311,20.8690976 9.15313409,21.0832046 9.01594608,21.4126429 C8.87875808,21.7420812 8.95390435,22.1217422 9.20624357,22.3740814 C9.45858278,22.6264206 9.83824369,22.7015669 10.167682,22.5643789 C10.4971203,22.4271908 10.7112273,22.1047818 10.7098844,21.7479228 L10.7098844,21.7479228 C10.7098844,21.5152017 10.61743,21.2920123 10.4528713,21.1274536 C10.2883127,20.9628949 10.0651232,20.8704405 9.83240211,20.8704405 Z" id="Path"></path>
        </g>
    </g>
</svg>