<?xml version="1.0" encoding="UTF-8"?>
<svg width="24px" height="24px" viewBox="0 0 24 24" version="1.1" xmlns="http://www.w3.org/2000/svg" xmlns:xlink="http://www.w3.org/1999/xlink">
    <title>Icon/Fill/success-fill</title>
    <g id="Icon/Fill/success-fill" stroke="none" stroke-width="1" fill="none" fill-rule="evenodd">
        <g id="Icon" transform="translate(0.000000, 2.000000)" fill="#474747" fill-rule="nonzero">
            <g id="alert-outline">
                <path d="M13.2404821,0.711050866 L23.8063294,18.8687077 C24.3568214,19.8152872 23.6683313,21 22.5658473,21 L1.43415272,21 C0.331668655,21 -0.356821393,19.8152872 0.19367065,18.8687077 L10.7595179,0.711050866 C11.31151,-0.237016955 12.68849,-0.237016955 13.2404821,0.711050866 Z M12,15 C11.5861256,15 11.25,15.3361256 11.25,15.75 C11.25,16.1646596 11.5861256,16.5 12,16.5 C12.4138744,16.5 12.75,16.1646596 12.75,15.75 C12.75,15.3361256 12.4138744,15 12,15 Z M12,7.5 C11.5857865,7.5 11.25,7.83977722 11.25,8.24777257 L11.25,8.24777257 L11.25,12.7522274 C11.25,13.1652108 11.5828986,13.5 12,13.5 C12.4142135,13.5 12.75,13.1602228 12.75,12.7522274 L12.75,12.7522274 L12.75,8.24777257 C12.75,7.83478919 12.4171014,7.5 12,7.5 Z" id="Combined-Shape"></path>
            </g>
        </g>
    </g>
</svg>