<svg width="24" height="24" viewBox="0 0 24 24" fill="none" xmlns="http://www.w3.org/2000/svg">
<path d="M10.0933 12.0083C9.34333 13.215 7.36 16.6183 7.29333 19.0516C7.29333 19.085 7.29333 19.1616 7.29333 19.175C7.29333 20.705 8.57667 21.9983 10.0933 21.9983C11.61 21.9983 12.8967 20.705 12.8967 19.175C12.8967 19.165 12.8967 19.0883 12.8967 19.0583C12.83 16.6183 10.8467 13.215 10.0967 12.0083H10.0933Z" fill="black"/>
<path d="M4.47333 2.00165H0.753333C0.336667 2.00165 0 2.34165 0 2.76165V12.2316C0 12.6516 0.336667 12.9916 0.753333 12.9916H4.47333C4.89 12.9916 5.22667 12.6516 5.22667 12.2316V2.76165C5.22667 2.34165 4.89 2.00165 4.47333 2.00165Z" fill="black"/>
<path d="M23.2467 2.00165H19.5267C19.11 2.00165 18.7733 2.34165 18.7733 2.76165V12.2316C18.7733 12.6516 19.11 12.9916 19.5267 12.9916H23.2467C23.6633 12.9916 24 12.6516 24 12.2316V2.76165C24 2.34165 23.6633 2.00165 23.2467 2.00165Z" fill="black"/>
<path d="M6.54667 11.2916H8.93667C9.22333 11.2916 9.48333 11.1283 9.61333 10.8716C9.74 10.615 9.71333 10.305 9.54 10.075L8.89333 8.87165L8.84333 8.56165L10.2733 7.67498L10.1633 8.84832C10.11 9.08832 10.1767 9.33832 10.34 9.52165L11.7 11.0416C11.8433 11.2016 12.0467 11.2916 12.26 11.2916H17.38V3.70498H6.54667V11.2916Z" fill="black"/>
</svg>
