<?xml version="1.0" encoding="UTF-8"?>
<svg width="24px" height="24px" viewBox="0 0 24 24" version="1.1" xmlns="http://www.w3.org/2000/svg" xmlns:xlink="http://www.w3.org/1999/xlink">
    <title>Icon/Fill/wealth-fill</title>
    <g id="Icon/Fill/wealth-fill" stroke="none" stroke-width="1" fill="none" fill-rule="evenodd">
        <g id="Group" transform="translate(-0.000000, 3.000000)" fill="#474747" fill-rule="nonzero">
            <g id="wealth-fill">
                <path d="M21.8366668,12.0633334 L21.8366668,12.6500001 C21.8366668,13.3133334 20.5033334,14.0600001 18.7333334,14.0600001 C16.9633334,14.0600001 15.6300001,13.3166668 15.6300001,12.6500001 L15.6300001,12.0633334 C16.5675971,12.6196822 17.6434935,12.8993459 18.7333334,12.8700001 C19.8232775,12.9002605 20.8994241,12.6205318 21.8366668,12.0633334 Z M24.0000001,10.4900001 L22.9400001,10.4900001 L22.9400001,10.3700001 C22.9400001,9.67333339 22.4866667,9.05000006 21.6666668,8.45666674 L21.6666668,2.48666668 L3.33333334,2.48666668 L3.33333334,0 L24.0000001,0 L24.0000001,10.4900001 Z M18.7333334,18.5066668 C16.9566667,18.5066668 15.6300001,17.7533334 15.6300001,17.0866667 L15.6300001,16.5166667 C16.5675971,17.0730155 17.6434935,17.3526792 18.7333334,17.3233334 C19.8232775,17.3535939 20.8994241,17.0738651 21.8366668,16.5166667 L21.8366668,17.0966668 C21.8366668,17.7600001 20.5100001,18.5066668 18.7333334,18.5066668 Z M18.7333334,8.95666669 C20.5100001,8.95666669 21.8366668,9.70333339 21.8366668,10.3700001 C21.8366668,11.0366667 20.5033334,11.7800001 18.7333334,11.7800001 C16.9633334,11.7800001 15.6300001,11.0366667 15.6300001,10.3700001 C15.6300001,9.70333339 16.9566667,8.95666669 18.7333334,8.95666669 Z M15.6300001,14.3433334 C16.5675971,14.8996822 17.6434935,15.1793459 18.7333334,15.1500001 C19.8232775,15.1802605 20.8994241,14.9005318 21.8366668,14.3433334 L21.8366668,14.8233334 C21.8366668,15.49 20.5033334,16.2333334 18.7333334,16.2333334 C16.9633334,16.2333334 15.6300001,15.49 15.6300001,14.8233334 L15.6300001,14.3433334 Z M0,3.50333335 L20.3800001,3.50333335 L20.3800001,7.71333333 C19.8407919,7.58341436 19.2879704,7.51850816 18.7333334,7.52000006 C16.3833334,7.52000006 14.5400001,8.62000001 14.5400001,10.0233333 L14.5400001,13.72 L0,13.72 L0,3.50333335 Z M10.1900001,12.3833334 C11.7800001,12.3833334 13.0266667,10.72 13.0266667,8.61333334 C13.0266667,6.50666673 11.7833334,4.84 10.1900001,4.84 C8.59666669,4.84 7.35000003,6.51000003 7.35000003,8.61333334 C7.35000003,10.7166667 8.59666669,12.3833334 10.1900001,12.3833334 Z" id="Combined-Shape"></path>
            </g>
        </g>
    </g>
</svg>