<svg width="24" height="24" viewBox="0 0 24 24" fill="none" xmlns="http://www.w3.org/2000/svg">
<path d="M23.24 1H0.76C0.34 1 0 1.34 0 1.76333V19.1433C0 19.5633 0.34 19.9067 0.76 19.9067H11.2433V21.4733H7.37V23H16.63V21.4733H12.7633V19.9067H23.24C23.66 19.9067 24 19.5667 24 19.1433V1.76333C24 1.34333 23.66 1 23.24 1ZM12 5.67333C13.1667 5.67333 14.1133 6.62 14.1133 7.78667C14.1133 8.95333 13.1667 9.9 12 9.9C10.8333 9.9 9.88667 8.95333 9.88667 7.78667C9.88667 6.62 10.8333 5.67333 12 5.67333ZM16.2833 14.97H7.71667C6.96 14.97 6.52333 14.1 6.98333 13.4967C7.87333 12.3333 9.78667 11.5267 12 11.5267C14.2133 11.5267 16.1267 12.3333 17.0167 13.4967C17.4767 14.1 17.04 14.97 16.2833 14.97Z" fill="black"/>
</svg>
