<?xml version="1.0" encoding="UTF-8"?>
<svg width="24px" height="24px" viewBox="0 0 24 24" version="1.1" xmlns="http://www.w3.org/2000/svg" xmlns:xlink="http://www.w3.org/1999/xlink">
    <title>Icon/Fill/webcast-studio-fill</title>
    <g id="Icon/Fill/webcast-studio-fill" stroke="none" stroke-width="1" fill="none" fill-rule="evenodd">
        <g id="Group" transform="translate(3.359990, 4.080000)" fill="#474747" fill-rule="nonzero">
            <path d="M8.64001049,8.43360004 C8.97736605,8.43296412 9.30065172,8.29833996 9.53874804,8.05934346 C9.77684436,7.82034697 9.91024762,7.49655559 9.90961277,7.15920003 L9.90961277,4.81920002 L7.37280816,4.81920002 L7.37280816,7.15920003 C7.37148177,7.86077232 7.93844193,8.43095385 8.64001049,8.43360004 L8.64001049,8.43360004 Z" id="Path"></path>
            <path d="M16.7328105,0 L0.547210457,0 C0.401667208,0 0.262119795,0.0579791981 0.159430619,0.161118766 C0.0567414424,0.264258333 -0.000627892506,0.404058153 5.18443053e-06,0.549600002 L5.18443053e-06,13.0632001 C5.18443053e-06,13.365801 0.244612436,13.6114787 0.547210457,13.6128001 L8.09521049,13.6128001 L8.09521049,14.7408001 L5.30641048,14.7408001 L5.30641048,15.8400001 L11.9736105,15.8400001 L11.9736105,14.7408001 L9.18961049,14.7408001 L9.18961049,13.6128001 L16.7328105,13.6128001 C17.0354085,13.6114787 17.2800158,13.365801 17.2800158,13.0632001 L17.2800158,0.549600002 C17.2806489,0.404058153 17.2232795,0.264258333 17.1205904,0.161118766 C17.0179012,0.0579791981 16.8783538,0 16.7328105,0 L16.7328105,0 Z M6.77041048,4.00560002 C6.74589491,3.32124657 7.09700849,2.67812025 7.68592717,2.32867005 C8.27484585,1.97921985 9.00757513,1.97921985 9.59649381,2.32867005 C10.1854125,2.67812025 10.5365261,3.32124657 10.5120105,4.00560002 L10.5120105,7.15920003 C10.5365261,7.84355348 10.1854125,8.4866798 9.59649381,8.83613 C9.00757513,9.1855802 8.27484585,9.1855802 7.68592717,8.83613 C7.09700849,8.4866798 6.74589491,7.84355348 6.77041048,7.15920003 L6.77041048,4.00560002 Z M8.93041049,10.32 L8.93041049,11.208 L10.2336105,11.208 L10.2336105,11.8128 L7.03441048,11.8128 L7.03441048,11.208 L8.34001049,11.208 L8.34001049,10.32 C6.62235295,10.158883 5.30986743,8.71639692 5.31120945,6.99120003 L5.91361048,6.99120003 C5.91361048,8.49694918 7.13426134,9.71760004 8.64001049,9.71760004 C10.1457596,9.71760004 11.3664105,8.49694918 11.3664105,6.99120003 L11.9688117,6.99120003 C11.9702695,8.71555951 10.6591177,10.1577225 8.94241049,10.32 L8.93041049,10.32 Z" id="Shape"></path>
            <path d="M9.9096105,4.00560002 C9.92989955,3.53928257 9.69267929,3.09943648 9.29187938,2.86022309 C8.89107948,2.62100971 8.3913415,2.62100971 7.9905416,2.86022309 C7.58974169,3.09943648 7.35252143,3.53928257 7.37281049,4.00560002 L7.37281049,4.21440002 L9.9096105,4.21440002 L9.9096105,4.00560002 Z" id="Path"></path>
        </g>
    </g>
</svg>