<svg width="24" height="24" viewBox="0 0 24 24" fill="none" xmlns="http://www.w3.org/2000/svg">
<path d="M4.33333 1.5H0V5.52333H4.33333V1.5Z" fill="black"/>
<path d="M24 1.5H5.71333V5.52333H24V1.5Z" fill="black"/>
<path d="M0 7.12333V21C0 21.83 0.67 22.5 1.5 22.5H22.5C23.33 22.5 24 21.83 24 21V7.12333H0ZM10.3333 16.4167C10.3333 16.83 9.99667 17.1667 9.58333 17.1667H3.75C3.33667 17.1667 3 16.83 3 16.4167V10.5833C3 10.17 3.33667 9.83333 3.75 9.83333H9.58333C9.99667 9.83333 10.3333 10.17 10.3333 10.5833V16.4167ZM17.9067 14.8033H11.9433V13.3033H17.9067V14.8033ZM21.2333 11.7467H11.9533V10.2467H21.2333V11.7467Z" fill="black"/>
<path d="M8.83333 11.3333H4.5V15.6667H8.83333V11.3333Z" fill="black"/>
</svg>
