<?xml version="1.0" encoding="UTF-8"?>
<svg width="24px" height="24px" viewBox="0 0 24 24" version="1.1" xmlns="http://www.w3.org/2000/svg" xmlns:xlink="http://www.w3.org/1999/xlink">
    <title>Icon/Fill/weight-fill</title>
    <g id="Icon/Fill/weight-fill" stroke="none" stroke-width="1" fill="none" fill-rule="evenodd">
        <g id="Group" transform="translate(3.000000, 0.000000)" fill="#474747" fill-rule="nonzero">
            <path d="M18.6632893,7.94003788 C18.6632893,7.12003981 18.3299568,5.74004307 16.1532952,5.73337642 L13.0933025,5.73337642 C12.4799706,5.50337696 11.9966384,5.16004444 11.9966384,4.64004566 C11.9966384,4.36671298 11.9966384,4.13671352 11.9966384,3.93338066 L13.4633016,3.93338066 C14.3327661,3.92970621 15.0351438,3.22285475 15.0332979,2.35338439 L15.0332979,1.57671956 C15.0342032,1.15654867 14.8670056,0.753472007 14.5689615,0.457306335 C14.2709174,0.161140663 13.8667917,-0.00350514567 13.446635,0 L5.14998785,0 C4.7327146,0.000939725051 4.3328827,0.167548308 4.03845108,0.46323017 C3.74401946,0.758912033 3.57910657,1.15944631 3.57999156,1.57671956 L3.57999156,2.35338439 C3.57814558,3.22285475 4.2805233,3.92970621 5.14998785,3.93338066 L6.45998476,3.93338066 C6.48782815,4.17681675 6.50118498,4.42169198 6.49998467,4.66671227 C6.51334615,4.95949695 6.39759003,5.24340407 6.18331875,5.4433771 C6.05081886,5.56584691 5.90014295,5.66704715 5.73665314,5.74337639 L2.21332811,5.74337639 C0.826664717,5.74337639 0,6.57670776 0,7.96003783 C0,9.86003335 0,11.7589178 0,13.6566911 L0,17.8900144 C0,19.6855657 0,21.4822282 0,23.2800017 L0,24 L18.6666226,24 L18.6666226,23.2600017 C18.6644004,18.1533471 18.6632893,13.0466925 18.6632893,7.94003788 Z" id="Path"></path>
        </g>
    </g>
</svg>