<?xml version="1.0" encoding="UTF-8"?>
<svg width="24px" height="24px" viewBox="0 0 24 24" version="1.1" xmlns="http://www.w3.org/2000/svg" xmlns:xlink="http://www.w3.org/1999/xlink">
    <title>Icon/Fill/wifi-fill</title>
    <g id="Icon/Fill/wifi-fill" stroke="none" stroke-width="1" fill="none" fill-rule="evenodd">
        <g id="Group" transform="translate(0.000000, 2.000000)" fill="#474747" fill-rule="nonzero">
            <path d="M11.9950019,16.7938833 C10.8369647,16.7994005 9.90213968,17.7416708 9.90580088,18.8997154 C9.90948364,20.0577599 10.8502654,20.994083 12.0083143,20.9922562 C13.1663632,20.9904241 14.1041951,20.0511333 14.1041951,18.893083 C14.1005201,17.7313497 13.1567395,16.792042 11.9950019,16.7938833 L11.9950019,16.7938833 Z" id="Path"></path>
            <path d="M11.9950019,0.000310112191 C7.73482054,-0.0200796324 3.59593281,1.41794869 0.26615527,4.07541791 C0.120034351,4.19022567 0.0258589514,4.35867155 0.00458230452,4.54327775 C-0.0166943424,4.72788395 0.0366927037,4.91333703 0.152865274,5.05837523 L1.12915847,6.28457283 C1.24677065,6.43289708 1.41945903,6.5272421 1.60781488,6.54607769 C1.79617074,6.56491327 1.98412172,6.50663219 2.12877609,6.38453459 C7.95517786,1.71818098 16.1995264,1.58116338 22.1777733,6.05132872 C22.4808788,6.28019534 22.9112152,6.22547904 23.1474024,5.92804255 L23.8471347,5.05171111 C23.9633073,4.90667291 24.0166943,4.72121983 23.9954177,4.53661363 C23.974141,4.35200743 23.8799656,4.18356155 23.7338447,4.06875379 C20.4005023,1.41151819 16.2578025,-0.0242571345 11.9950019,0.000310112191 L11.9950019,0.000310112191 Z" id="Path"></path>
            <path d="M11.9950019,5.59816874 C8.98054392,5.58358983 6.05133759,6.59799796 3.69151162,8.4737354 C3.39626073,8.71636042 3.35027595,9.15099069 3.5882178,9.4500286 L4.56784306,10.6728941 C4.6870086,10.8191366 4.85971831,10.9116392 5.047489,10.9297904 C5.23525968,10.9479415 5.42248979,10.8902332 5.56746067,10.7695238 C9.38933885,7.72105165 14.7747128,7.59432093 18.7357567,10.4596424 C19.0402944,10.6790337 19.4632313,10.6219592 19.6987216,10.3296921 L20.401786,9.4500286 C20.5215026,9.30331625 20.5769772,9.11451556 20.5556531,8.92636176 C20.534329,8.73820796 20.4380093,8.56661062 20.288496,8.45041099 C17.9273483,6.58684041 15.0029285,5.58109378 11.9950019,5.59816874 L11.9950019,5.59816874 Z" id="Path"></path>
            <path d="M7.16684885,12.878717 C6.88524273,13.1194014 6.84680976,13.5406858 7.08021532,13.8283537 L8.05317646,15.0512193 C8.16573591,15.1969412 8.33188871,15.2916073 8.51463684,15.3141379 C8.69738497,15.3366685 8.88155524,15.2851929 9.02613761,15.1711734 C10.8147609,13.694792 13.365061,13.5819589 15.2770797,14.8946125 C15.5777127,15.0851172 15.9740891,15.0142324 16.1900638,14.7313416 L16.9097885,13.8283537 C17.1498667,13.5391256 17.1111511,13.1102756 16.823155,12.8687208 C13.9754788,10.6791641 10.0099857,10.6832691 7.16684885,12.878717 L7.16684885,12.878717 Z" id="Path"></path>
        </g>
    </g>
</svg>