<?xml version="1.0" encoding="UTF-8"?>
<svg width="24px" height="24px" viewBox="0 0 24 24" version="1.1" xmlns="http://www.w3.org/2000/svg" xmlns:xlink="http://www.w3.org/1999/xlink">
    <title>Icon/Fill/windmill-fill</title>
    <g id="Icon/Fill/windmill-fill" stroke="none" stroke-width="1" fill="none" fill-rule="evenodd">
        <g id="Group" transform="translate(2.000000, 0.000000)" fill="#474747" fill-rule="nonzero">
            <path d="M20,13.5933333 L13.03,8.92666667 C12.8963318,8.25747406 12.5446692,7.65144219 12.03,7.20333333 L11.5633333,1.20333333 L11.49,0 L8.51333333,0 L7.96666667,7.2 C7.45199746,7.64810886 7.10033487,8.25414072 6.96666667,8.92333333 L0,13.5966667 L1.49333333,16.18 L8.04333333,12.94 L6.30666667,23.7166667 L6.28,24 L13.74,24 L11.96,12.94 L18.5166667,16.18 L20,13.5933333 Z M7.12666667,10.6666667 C7.23902475,10.9538629 7.39410635,11.2224463 7.58666667,11.4633333 L2.1,14.17 L2.04,14.07 M9.94,1.53 L10.0633333,1.53 L10.4566667,6.46333333 C10.1551262,6.41669311 9.84820716,6.41669311 9.54666667,6.46333333 M10,8.16331706 C10.5563632,8.16063413 11.059384,8.49388039 11.2738565,9.00725054 C11.4883289,9.5206207 11.3718714,10.1126685 10.9789381,10.5065603 C10.5860047,10.900452 9.99424232,11.0183514 9.48035122,10.8051302 C8.96646012,10.591909 8.63198947,10.0897015 8.6333293,9.53333333 C8.6333293,8.77800306 9.24467197,8.16517112 10,8.16331706 Z M8.33333333,22.4 L9.60666667,12.6033333 C9.86559747,12.6366795 10.1277359,12.6366795 10.3866667,12.6033333 L11.7066667,22.4 L8.33333333,22.4 Z M17.9566667,14.0666667 L17.9,14.1666667 L12.42,11.46 C12.6100386,11.2192019 12.7638848,10.9519361 12.8766667,10.6666667" id="Shape"></path>
        </g>
    </g>
</svg>