<?xml version="1.0" encoding="UTF-8"?>
<svg width="24px" height="24px" viewBox="0 0 24 24" version="1.1" xmlns="http://www.w3.org/2000/svg" xmlns:xlink="http://www.w3.org/1999/xlink">
    <title>Icon/Fill/woman-fill</title>
    <g id="Icon/Fill/woman-fill" stroke="none" stroke-width="1" fill="none" fill-rule="evenodd">
        <g id="Group" transform="translate(6.000000, 0.000000)" fill="#474747" fill-rule="nonzero">
            <path d="M6.02914643,6.4222068 C7.83018494,6.4222068 9.29021513,4.98454684 9.29021513,3.2111034 C9.29021513,1.43765996 7.83018494,0 6.02914643,0 C4.22810791,0 2.76807772,1.43765996 2.76807772,3.2111034 C2.76807772,4.98454684 4.22810791,6.4222068 6.02914643,6.4222068 Z M12.0549618,18.9002082 L10.6892436,8.29424011 C10.6892436,8.29424011 8.53740458,6.86190146 6.08577377,6.86190146 C4.51619504,6.91374107 2.99365042,7.41047415 1.69548924,8.29424011 L0,18.9002082 L3.38431645,18.9002082 L3.38431645,24 L5.38292852,24 L5.38292852,18.9002082 L6.67203331,18.9002082 L6.67203331,24 L8.67064539,24 L8.67064539,18.9002082 L12.0549618,18.9002082 Z" id="Combined-Shape"></path>
        </g>
    </g>
</svg>