<svg width="24" height="24" viewBox="0 0 24 24" fill="none" xmlns="http://www.w3.org/2000/svg">
<path d="M4.35 1.83502C3.59 1.83502 2.97 2.45502 2.97 3.21836V20.6817C2.97 21.445 3.59 22.065 4.35 22.065C5.11 22.065 5.73 21.445 5.73 20.6817V3.21836C5.73 2.45502 5.11 1.83502 4.35 1.83502Z" fill="black"/>
<path d="M7.97667 1.83502C7.21667 1.83502 6.59667 2.45502 6.59667 3.21836V20.6817C6.59667 21.445 7.21667 22.065 7.97667 22.065C8.73667 22.065 9.35667 21.445 9.35667 20.6817V3.21836C9.35667 2.45502 8.73667 1.83502 7.97667 1.83502Z" fill="black"/>
<path d="M15.9867 1.93502C15.2267 1.93502 14.6067 2.55502 14.6067 3.31836V20.7817C14.6067 21.545 15.2267 22.165 15.9867 22.165C16.7467 22.165 17.3667 21.545 17.3667 20.7817V3.32169C17.3667 2.55836 16.7467 1.93836 15.9867 1.93836V1.93502Z" fill="black"/>
<path d="M19.6167 1.93502C18.8567 1.93502 18.2367 2.55502 18.2367 3.31836V20.7817C18.2367 21.545 18.8567 22.165 19.6167 22.165C20.3767 22.165 20.9967 21.545 20.9967 20.7817V3.32169C20.9967 2.55836 20.3767 1.93836 19.6167 1.93836V1.93502Z" fill="black"/>
<path d="M0.75 9.98169C0.336667 9.98169 0 10.3184 0 10.735V13.5017C0 13.9184 0.336667 14.255 0.75 14.255H2.23667V9.98169H0.75Z" fill="black"/>
<path d="M23.25 9.98169H21.7633V14.255H23.25C23.6633 14.255 24 13.9184 24 13.5017V10.735C24 10.3184 23.6633 9.98169 23.25 9.98169Z" fill="black"/>
<path d="M13.8367 9.98169H10.1633V14.255H13.8367V9.98169Z" fill="black"/>
</svg>
