<?xml version="1.0" encoding="UTF-8"?>
<svg width="24px" height="24px" viewBox="0 0 24 24" version="1.1" xmlns="http://www.w3.org/2000/svg" xmlns:xlink="http://www.w3.org/1999/xlink">
    <title>Icon/Fill/workflow-fill</title>
    <g id="Icon/Fill/workflow-fill" stroke="none" stroke-width="1" fill="none" fill-rule="evenodd">
        <g id="Group" fill="#474747" fill-rule="nonzero">
            <path d="M9.24666667,0 C9.44615595,-0.000879209848 9.63777884,0.0777468359 9.77915289,0.218495333 C9.92052693,0.35924383 10,0.550516164 10,0.750007418 L10,9.25334075 C9.99911791,9.45225373 9.91925306,9.64266912 9.77797522,9.78269671 C9.63669739,9.92272429 9.44557963,10.0008934 9.24666667,10.0000149 L0.75,10.0000149 C0.337084701,10.0000149 0.00183517909,9.66625197 0,9.25334075 L0,0.750007418 C0,0.335793856 0.335786438,0 0.75,0 L9.24666667,0 Z" id="Path"></path>
            <path d="M14.7533333,24.0000148 C14.5538441,24.000894 14.3622212,23.922268 14.2208471,23.7815195 C14.0794731,23.640771 14,23.4494987 14,23.2500074 L14,14.7466741 C14.0008821,14.5477611 14.0807469,14.3573457 14.2220248,14.2173181 C14.3633026,14.0772905 14.5544204,13.9991214 14.7533333,14 L23.25,14 C23.6629153,14 23.9981648,14.3337629 24,14.7466741 L24,23.2500074 C24,23.664221 23.6642136,24.0000148 23.25,24.0000148 L14.7533333,24.0000148 Z" id="Path"></path>
            <path d="M18.7966667,0.030007418 L23.5333333,4.76334075 C23.9701835,5.20386193 23.9686965,5.91465821 23.530007,6.35334772 C23.0913175,6.79203724 22.3805212,6.79352425 21.94,6.35667408 L19.94,4.35667408 L19.94,11.2166741 L17.6666667,11.2166741 L17.6666667,4.33334075 L15.6666667,6.33334075 C15.2261455,6.77019092 14.5153492,6.76870391 14.0766597,6.33001439 C13.6379702,5.89132488 13.6364832,5.1805286 14.0733333,4.74000742 L18.7966667,0.030007418 Z" id="Path"></path>
            <path d="M5.23,23.9300074 L0.496666667,19.1966741 C0.0598164976,18.7561529 0.0613035126,18.0453566 0.499993027,17.6066671 C0.93868254,17.1679776 1.64947882,17.1664906 2.09,17.6033408 L4.09,19.6033408 L4.09,12.7433408 L6.34333333,12.7433408 L6.34333333,19.6166741 L8.34333333,17.6166741 C8.78385451,17.1798239 9.49465079,17.1813109 9.93334031,17.6200004 C10.3720298,18.05869 10.3735168,18.7694862 9.93666667,19.2100074 L5.23,23.9300074 Z" id="Path"></path>
        </g>
    </g>
</svg>