<?xml version="1.0" encoding="UTF-8"?>
<svg width="24px" height="24px" viewBox="0 0 24 24" version="1.1" xmlns="http://www.w3.org/2000/svg" xmlns:xlink="http://www.w3.org/1999/xlink">
    <title>Icon/Fill/xbrl-fill</title>
    <g id="Icon/Fill/xbrl-fill" stroke="none" stroke-width="1" fill="none" fill-rule="evenodd">
        <g id="Group" transform="translate(0.000000, 3.000000)" fill="#474747" fill-rule="nonzero">
            <path d="M24,1.5 L24,18 L0,18 L0,0 L22.5,0 C23.3276666,0.00183315539 23.9981668,0.672333382 24,1.5 Z M1.17333333,5.63 L3.14,8.83 L1,12.37 L2.8,12.37 L4.03333333,10.1233333 L5.16333333,12.37 L7.06666667,12.37 L4.94333333,8.83 L6.89,5.63 L5.10333333,5.63 L4.03333333,7.72666667 L3.03333333,5.63 L1.17333333,5.63 Z M7.17333333,5.63 L7.17333333,12.37 L10.1166667,12.37 C10.732469,12.4139103 11.3421067,12.2233985 11.8233333,11.8366667 C12.2374764,11.4260206 12.4517399,10.855057 12.41,10.2733333 C12.418373,9.92093072 12.3246025,9.57363254 12.14,9.27333333 C11.9629133,8.98943556 11.6914695,8.77700122 11.3733333,8.67333333 C11.8707669,8.3985005 12.1759019,7.87156561 12.1666667,7.30333333 C12.1989298,6.82415699 12.0023343,6.35801545 11.6366667,6.04666667 C11.1933404,5.73584091 10.656841,5.58642114 10.1166667,5.62333333 L7.17333333,5.63 Z M8.74333333,8.29666667 L8.74333333,7 L9.97333333,7 C10.1423775,6.99196599 10.307359,7.05338247 10.43,7.17 C10.5467414,7.3017251 10.6066535,7.47427202 10.5966667,7.65 C10.607736,7.8276557 10.539353,8.00105548 10.41,8.12333333 C10.2922875,8.2349409 10.1355231,8.29597131 9.97333333,8.29333333 L8.74333333,8.29666667 Z M8.74333333,10.9633333 L8.74333333,9.41666667 L10.0233333,9.41666667 C10.2447212,9.38107521 10.4699115,9.45215667 10.6307474,9.60839728 C10.7915833,9.76463788 10.8691608,9.98767374 10.84,10.21 C10.84,10.7133333 10.57,10.9633333 10.0233333,10.9633333 L8.74333333,10.9633333 Z M12.9,5.63 L12.9,12.37 L14.4666667,12.37 L14.4666667,9.91666667 L15.68,9.91666667 C15.9171204,9.90797996 16.1422152,10.0211561 16.2766667,10.2166667 C16.4639002,10.5956692 16.5576262,11.0140071 16.55,11.4366667 C16.54213,11.7552224 16.5964784,12.0722542 16.71,12.37 L18.26,12.37 C18.1333333,12.2133333 18.0533333,11.7766667 18.0266667,11.06 C17.9733333,10.0066667 17.6933333,9.39333333 17.13,9.23666667 L17.13,9.21666667 C17.4408498,9.08971131 17.6937461,8.85224995 17.84,8.55 C17.9995466,8.23032623 18.0806733,7.87725395 18.0766667,7.52 C18.0969078,7.00286308 17.8927518,6.5021948 17.5166667,6.14666667 C17.0981631,5.78267514 16.5536774,5.59719102 16,5.63 L12.9,5.63 Z M14.4666667,8.55666667 L14.4666667,7.03666667 L15.74,7.03666667 C15.9411471,7.02856317 16.1382,7.09503883 16.2933333,7.22333333 C16.4427826,7.36576203 16.5209867,7.56738199 16.5066667,7.77333333 C16.5255047,7.98277842 16.4634866,8.19149327 16.3333333,8.35666667 C16.1982784,8.49512675 16.0097473,8.56810653 15.8166667,8.55666667 L14.4666667,8.55666667 Z M18.6233333,5.63 L18.6233333,12.37 L23,12.37 L23,10.86 L20.1966667,10.86 L20.1966667,5.63 L18.6233333,5.63 Z" id="Shape"></path>
        </g>
    </g>
</svg>