<?xml version="1.0" encoding="UTF-8"?>
<svg width="24px" height="24px" viewBox="0 0 24 24" version="1.1" xmlns="http://www.w3.org/2000/svg" xmlns:xlink="http://www.w3.org/1999/xlink">
    <title>Icon/Fill/xls-fill</title>
    <g id="Icon/Fill/xls-fill" stroke="none" stroke-width="1" fill="none" fill-rule="evenodd">
        <g id="Group" transform="translate(-0.000000, -0.000000)" fill="#474747" fill-rule="nonzero">
            <g id="xls" transform="translate(0.000000, 3.000000)">
                <path d="M22.5,0 C23.3280001,0 24,0.672000003 24,1.5 L24,18 L0,18 L0,0 L22.5,0 Z M6.13344319,7.81341791 L4.96705109,5.3551402 L3.05436574,5.3551402 L5.11532128,8.96995999 L3.00000001,12.6448599 L4.92751237,12.6448599 L6.15321255,10.1365154 L7.37891272,12.6448599 L9.40527184,12.6448599 L7.18616148,8.96995999 L9.24711701,5.3551402 L7.31960465,5.3551402 L6.13344319,7.81341791 Z M11.6342669,11.3431242 L11.6342669,5.3551402 L9.96375619,5.3551402 L9.96375619,12.6448599 L14.7232291,12.6448599 L14.7232291,11.3431242 L11.6342669,11.3431242 Z M19.3294894,10.7122831 C19.3294894,10.9392535 19.243823,11.1228298 19.0724877,11.2630174 C18.9011525,11.403205 18.6408585,11.4732978 18.2915981,11.4732978 C17.8665547,11.4732978 17.551072,11.384013 17.3451401,11.2054406 C17.1392083,11.0268683 17.0362439,10.7256363 17.0362439,10.3017357 L15.4102142,10.3017357 L15.4003296,10.3317757 C15.383855,11.1662259 15.6581521,11.7778686 16.2232291,12.1667224 C16.788306,12.5555761 17.4777555,12.75 18.2915981,12.75 C19.1087357,12.75 19.7644127,12.5689271 20.2586492,12.2067757 C20.7528856,11.8446244 21.0000001,11.3431274 21.0000001,10.7022697 C21.0000001,10.0747632 20.7858342,9.58077619 20.3574959,9.22029379 C19.9291577,8.85981131 19.298192,8.55440719 18.46458,8.30407211 C17.9736385,8.11047971 17.6383864,7.94943326 17.4588139,7.82092796 C17.2792414,7.69242266 17.1894564,7.52136288 17.1894564,7.30774368 C17.1894564,7.08744888 17.2767702,6.90220375 17.4514004,6.75200268 C17.6260306,6.60180168 17.864908,6.5267023 18.1680396,6.5267023 C18.5403644,6.5267023 18.81878,6.60430503 19.003295,6.75951273 C19.1878099,6.91472043 19.280066,7.1642173 19.280066,7.50801071 L20.9011533,7.50801071 L20.911038,7.47797066 C20.9275125,6.77035698 20.6853403,6.2221315 20.1845141,5.83327772 C19.6836878,5.44442395 19.0230684,5.25000002 18.202636,5.25000002 C17.4250374,5.25000002 16.7841871,5.43858295 16.2800659,5.81575435 C15.7759448,6.19292583 15.523888,6.68691288 15.523888,7.29773036 C15.523888,7.92189903 15.7405251,8.40003176 16.1738056,8.73214286 C16.6070863,9.06425404 17.2701768,9.37716814 18.1630973,9.67089454 C18.6046151,9.82777122 18.9093897,9.97546662 19.0774301,10.1139854 C19.2454704,10.2525041 19.3294894,10.4519346 19.3294894,10.7122831 Z" id="Combined-Shape"></path>
            </g>
        </g>
    </g>
</svg>